<?xml version="1.0" encoding="UTF-8"?> <!-- Generator: Adobe Illustrator 24.2.0, SVG Export Plug-In . SVG Version: 6.00 Build 0) --> <svg xmlns="http://www.w3.org/2000/svg" xmlns:xlink="http://www.w3.org/1999/xlink" version="1.1" id="Layer_2_1_" x="0px" y="0px" viewBox="0 0 570 500" style="enable-background:new 0 0 570 500;" xml:space="preserve"> <style type="text/css"> .st0{fill:#95CA59;} .st1{fill:#015245;} .st2{fill:#1766B0;} .st3{fill:#F58257;} .st4{fill:#B84096;} .st5{fill:#5FAD6E;} .st6{fill:#D5634B;} .st7{fill:#FFFFFF;} .st8{fill:#D6E9BD;} .st9{fill:#1B81C4;} .st10{fill:#087262;} .st11{fill:none;stroke:#5FAD6E;stroke-width:1.5296;stroke-miterlimit:10;} .st12{fill:none;stroke:#95CA59;stroke-width:1.5296;stroke-miterlimit:10;} .st13{fill:#DEF0EE;} .st14{fill:#CDDFEE;} .st15{fill:#D6E9BD;stroke:#95CA59;stroke-width:1.1415;stroke-miterlimit:10;} .st16{fill:#D6E9BD;stroke:#D6E9BD;stroke-width:1.1415;stroke-miterlimit:10;} </style> <g> <path class="st0" d="M361.62,46.98C247.52,79.81,70,57.82,56.41,203.54C47.15,273.06,70.37,364.1,97.8,417.18 c13.36,25.28,29.07,40.31,44.07,51.95C307.49,597.75,489.71,295.25,515.21,98.69c4.1-31.49-20.75-53.43-35.99-63.14 C451.77,17.09,419.73,34.02,361.62,46.98z"></path> <path class="st1" d="M372.35,141.21c0,0,23.86-29.19,39.84-45.02c15.98-15.83,42.58-60.23,5.95-68.95S399.97,6.77,379.33,1.71 c-20.64-5.06-34.86,1.31-40.72,16.22c-5.86,14.91-22.44,38.95-35.04,35.74c-12.6-3.21-75.34-14.75-66.12,44.27 S356.44,213.31,372.35,141.21z"></path> <path class="st2" d="M382.82,108.72c0,0,9.22,1.75,12.94,37.05c3.72,35.31,7.58,77.09-0.45,79.03s-30.11-7.37-24.94-43.06 S382.82,108.72,382.82,108.72z"></path> <path class="st3" d="M440.28,123.16c-0.69-3.87-1.82-7.65-3.37-11.27c-0.69,1.78-0.9,3.71-0.62,5.6c0.39,4.39,1.96,10.97,0.14,13.4 c-3.24,4.26-2.71,5.21-3.13,2.35c-0.42-2.85,2.05-6.94-1.48-12.29c-0.25,4.1-0.77,8.18-1.58,12.2c-1.14,5.08,0.82,12.04-3.93,21.89 c-11.1,12.39-27.14,30.34-37.27,45.66c-10.88,16.53-14.53,21.48-8.09,22.97c13.25,3.04,22.68-10.54,26.25-17 c6.59-12.05,22.9-49.5,22.9-49.5l0.15-0.17c4.67-5.54,9.82-13.99,10.5-17.12C441.34,134.32,441.18,128.69,440.28,123.16z"></path> <path class="st3" d="M440.04,140.39c0,0,3.79-10.68,3.61-12.97c-0.11-1.59-2.07-8.94-2.07-8.94s-1.76,3.85-1.14,6.85 C441.06,128.34,440.04,140.39,440.04,140.39z"></path> <path class="st4" d="M377.32,235.89c-7.34-14.11-34.09-10.66-53.06,0H377.32z"></path> <path class="st2" d="M311.31,235.89h69.49l-3.68-61.33c0,0,7.88-61.64,8.48-64.69c0.6-3.05-31.43-17.76-36.53-12.19 c-9.44,10.27-32.24,1.58-32.24,1.58S322.94,194.25,311.31,235.89z"></path> <path class="st2" d="M325.06,103.6c-9.27-7.41-14.94-7.85-22.83,11.02c-17.58,42.24-17.69,106.55-0.08,110.39 c10.43,2.28,13.7-3.65,18.74-10.05S332.93,109.9,325.06,103.6z"></path> <path class="st5" d="M417.57,180.82c-1.07,2.21-3.25,3.68-5.71,3.85h-33.73c-1.46,0.17-2.78-0.87-2.95-2.33 c-0.06-0.52,0.03-1.05,0.27-1.52l21.91-52.67c0.84-2.02,3.42-4.22,5.71-4.22h33.7c1.61-0.03,2.95,1.25,2.98,2.87 c0.01,0.47-0.1,0.94-0.31,1.36L417.57,180.82z"></path> <path class="st3" d="M386.27,154.18c0,0-3.65,6.4-1.22,7.01c2.43,0.6,17.67-7.92,17.67-7.92l4.87-0.62l-11.95,9.53 c3.86-2.9,7.99-5.42,12.33-7.55c2.64-1.14,4.44-0.54,5.11-0.76c1.83-0.6-15.78,10.97-15.78,10.97l7.47-2.43 c0,0,4.04-0.91,2.07,1.37c-1.08,1.24-2.75,1.52-5.03,4.71c-2.28,3.2-13.1,12.66-23.97,14.02c-3.31,0.42-6.45,1.68-9.13,3.65 l-51.37,33.37c0,0-23.77,4.11-21.03-9.13c2.74-13.24,47.76-27.19,63.98-32.44c10.66-3.42,11.42-6.4,13.7-8.69 C376.27,166.99,380.48,157.23,386.27,154.18z"></path> <path class="st3" d="M369.53,76.18l-15.32-16.77c-2.35,11.43-4.03,22.98-5.03,34.6c-0.32,4.18-2.44,6.23-4.49,7.26l12.07,16.08 c1.11,0.33,2.26,0.52,3.42,0.57c1.04,0.05,2.08,0.05,3.12,0c0.55-0.47,1.07-0.98,1.56-1.51c0.3-0.32,0.58-0.66,0.87-0.99 c0-0.02,0-0.05,0-0.07l0.27-0.37c0.9-1.28,1.72-2.62,2.45-4.01c0.22-0.42,0.42-0.84,0.63-1.27c0.51-1.24,1.04-2.48,1.6-3.71 C361.97,95.33,369.53,76.18,369.53,76.18z"></path> <path class="st6" d="M366.84,92.39c0-1.14,0.11-2.16,0.24-3.23c0.07-0.66,0.27-1.29,0.6-1.86c0.62-2.74,1.51-5.42,2.64-7.99 l-18.34-16.76c-2.14,8.71-3.83,17.52-5.07,26.4c0.09,0.46,0.19,0.84,0.3,1.24c0,0.11,0.1,0.22,0.14,0.33 c0.29,0.86,0.51,1.71,0.74,2.57c1.14,2.97,2.73,4.92,5.47,8.21c3.42,4.09,8.3,1.56,13.25-3.58 C366.65,95.95,366.66,94.16,366.84,92.39z"></path> <path class="st3" d="M339.39,59.54c3.31-9.03,12.56-7.71,19.31-11.59c5.55-3.2,10.42-18.09,17.74-16.52 c24.18,5.21,7.08,66.58-19.01,64.47c-15.22-1.23-20.03-15.98-19.25-29.99C338.27,63.75,338.68,61.6,339.39,59.54z"></path> <path class="st7" d="M394.08,253.51H266.72c0-0.11,0-0.23,0-0.34c0-14.14,11.46-25.6,25.6-25.6c0,0,0.01,0,0.01,0 c2.34,0,4.67,0.33,6.92,0.97c2.84-20.56,21.81-34.92,42.37-32.08c18.59,2.57,32.43,18.45,32.43,37.22c0,0.08,0,0.16,0,0.25 C384.41,235.14,392.64,243.19,394.08,253.51z"></path> <path class="st6" d="M144.68,251.48l-0.1-0.29v-0.13c-0.02-0.06-0.04-0.12-0.07-0.17c-0.03-0.1-0.07-0.19-0.11-0.29 c-0.55-1.39-1.23-2.73-2.01-4.01H92.45c0,0-14.6,7.67-0.73,20.28c11.32,10.27,23.7,3.09,29.96,0.19 c4.84-2.28,17.76-10.74,23.37-14.47C144.93,252.24,144.81,251.87,144.68,251.48z"></path> <path class="st3" d="M145.08,252.68c-0.13-0.4-0.25-0.8-0.39-1.2l-0.1-0.29v-0.13c-0.02-0.06-0.04-0.12-0.07-0.17 c-0.03-0.1-0.07-0.19-0.11-0.29c-0.27-0.7-0.58-1.36-0.9-2.02c-12.4,1.35-33.77,3.68-40.73,4.46c-6.62,0.75-12.74,3.89-14.45,7.84 c0.75,1.81,1.28,4.57,3.42,6.1c11.88,8.39,22.01,4.94,28.26,2.04c4.92-2.28,19.18-12.17,25.11-16.32L145.08,252.68z"></path> <path class="st8" d="M157.2,251.93c5.1,14.84,8.6,45.66,14.37,63.33h70.31l4.63-37.67c0,0,15.31-6.5,18.47-3.05 c29.51,32.13,21.05-66.21-19.41-87.76c-8.62-4.57-61.72-3.07-61.72-3.07s-34.91,6.13-77.34,64.86 C105.13,250.54,151.29,234.83,157.2,251.93z"></path> <path class="st3" d="M187.18,223.92c4.14-1.91,8.41-3.53,12.67-5.14l-18.77-13.42l-13.18,0.53c0,0-5.18,3.42-8.14,5.54l9.13-1.92 l-20.38,8.31c0,0-7.83,3.57-5.89,4.3c2.4,0.89,18.33-4.3,18.33-4.3c4.1,1.14,8.11,2.59,12,4.34c4.04,1.77,9.69,2.07,13.87,1.99 C186.94,224.05,187.06,223.98,187.18,223.92z"></path> <path class="st3" d="M262,244.91c-21.37-8.48-52.3-22.15-62.57-26.25c-2.77,0.83-11.23,1.44-13.99,2.28 c4.92,7.32,37.03,39.02,61.23,46.07c26.76,7.8,28.59,11.65,32.41,6.02C282.89,267.38,282.06,252.88,262,244.91z"></path> <path class="st9" d="M165.28,242.89c0.62,1.71-0.26,3.1-1.97,3.1H81.34c-1.89-0.14-3.53-1.34-4.21-3.1l-20.83-56.71 c-0.62-1.71,0.26-2.59,1.97-2.59h81.97c1.8-0.08,3.47,0.95,4.21,2.59L165.28,242.89z"></path> <path class="st9" d="M195.19,252c-0.1,1.71-1.57,3-3.28,2.9c0,0,0,0,0,0H82.5c-1.67,0.1-3.1-1.18-3.19-2.85c0-0.02,0-0.04,0-0.05 v-2.71c0.06-1.76,1.44-3.18,3.2-3.3h109.38c1.79,0.08,3.21,1.51,3.28,3.3L195.19,252z"></path> <path class="st6" d="M136.3,259.31l17.12,3.58l22.53-8.69c-3.79-1.28-7.87-1.37-11.71-0.25c-6.95,1.79-10.13,0.65-10.13,0.65 l-6.19-4.28l4.77-4.86l2.65-5.01l-10.6,5.16l-6.39,6.26"></path> <path class="st3" d="M141.66,255.92c-0.85-0.25-1.58-0.8-2.04-1.55h-1.4c-1.41,1.66-2.93,3.21-4.57,4.65c0,0.1,0.07,0.22,0.1,0.33 l17.12,3.58c4.23-0.61,6.44-1.32,7.31-2.08C152.51,259.6,147.13,257.51,141.66,255.92z"></path> <path class="st6" d="M271.27,276.14c-7.23-0.76-26.62-10.47-37.33-16.92c-14.65-8.82-38.41-29.88-45.19-35.39 c-0.09,0.21-0.16,0.41-0.25,0.62c-0.67,1.53,10.42,10.75,12.16,12.56c5.1,5.12,10.48,9.94,16.13,14.44 c5.89,5.07,12.09,9.77,18.57,14.06c6.38,4.08,13.38,7.34,19.95,11.2c20.31,5.83,18.26,4.36,21.69-0.13 C274.13,278.13,275.98,276.63,271.27,276.14z"></path> <path class="st3" d="M213.81,191.23c1.55-1.75,3.16-3.42,4.81-5.07c-0.25-1.14-0.39-1.89-0.15-1.91c-0.7-0.76-1.47-1.45-2.28-2.09 c-6.02-4.7-7.69-22.83-7.69-22.83s-26.79,3.3-16.81,13.7c4.57,4.78,3.84,11.79,2.28,18.1c0.07,0.15,0.13,0.31,0.17,0.47 c0.07,0.3,0.15,0.58,0.24,0.87c0.02,0.08,0.05,0.15,0.08,0.23c0.32,0.52,0.61,1.05,0.87,1.6l0.41,0.58l0.19,0.24 c0.45,0.53,0.91,1.03,1.39,1.51c0.96,0.95,1.97,1.84,3.02,2.69l1.53,1.22l0.24,0.18l0.15,0.11l0.9,0.68l2.09,1.61 C207.59,198.83,210.47,194.83,213.81,191.23z"></path> <path class="st1" d="M192.82,159.72c0,0,27.6-8.3,34.58-15.64c6.97-7.34-7.05-6.34-9.13-19.11s-12.49-44.94-18.44-25.11 c-5.95,19.83,4.38,26.25,3.25,17.03c-1.13-9.22,2.28-34.25-23.57-29.18c-25.85,5.07-32.75,22.83-10.01,28.2s-28.66-19.5-25.41-2.47 c3.25,17.03,18.34,13.09,23.58,12.21c5.24-0.88-22.64-10.27-17.44,7.49S172,156.69,192.82,159.72z"></path> <path class="st6" d="M211.58,159.18c0,0-4.19,5.71,4.34,25.02c0,0-11.32,6.64-19.98-1.14c-0.03-3.76-1.55-7.36-4.23-9.99 C181.73,162.66,211.58,159.18,211.58,159.18z"></path> <path class="st3" d="M169.21,123.55c0,0-2.89,13.7,3,33.93c5.89,20.23,16.97,24.37,33.61,18.26c16.63-6.11,15.28-26.94,13.99-31.89 c-1.29-4.95,15.41-4.04,9.62-14.84c-5.79-10.8-11.93-5.1-11.87-0.41c0.06,4.69-1.8,11.06-6.12,8.07 c-4.31-2.99-0.53-22.21-8.21-17.84C195.56,123.2,181.97,129.63,169.21,123.55z"></path> <path class="st7" d="M309.96,373.45c2.18-13.61-7.08-26.42-20.7-28.6c-4.05-0.65-8.21-0.29-12.09,1.05 c-4.14-28.54-30.64-48.32-59.18-44.18c-1.28,0.19-2.56,0.42-3.83,0.7c-23.69-26.24-64.17-28.32-90.41-4.63 c-9.52,8.59-16.24,19.84-19.29,32.3h-0.11c-20.96,0-37.94,16.99-37.94,37.94c0.02,1.82,0.16,3.63,0.43,5.42L309.96,373.45z"></path> <path class="st6" d="M298.77,447.39l21.4,28.87c0,0,16.05-22.02,13.91-29.85c-2.13-7.83-11.77-21.03-15.5-27.88"></path> <path class="st10" d="M261.1,267.48c0,0-33.88,5.89-36.37,26.14c-2.49,20.25-0.72,23.21-11.06,30.93 c-10.34,7.73-25.67,32.77,5,43.08c30.67,10.31,46.36-6.62,61.64-0.37s40.29-0.37,45.66-10.27c5.37-9.91,7.84-32.77-10.34-41.61 c-18.18-8.84-12.64-24.76-14.62-29.1C294.98,273,282.14,265.64,261.1,267.48z"></path> <path class="st2" d="M208.33,473.93c0,0-53.55,26.53,1.14-90.97c2.74-5.88,24.65-29.93,48.51-19.19 c23.87,10.74,19.82,6.93,38.55,11.77c18.73,4.84,26.44,3.81,29.74,19.06s-15.03,73.06-16.49,75.82S208.33,473.93,208.33,473.93z"></path> <path class="st8" d="M287.93,373.08c-6.52-1.28-9.03-1.43-22.49-7.71c-2.48,0.87-3.42,2.76-3.24,5.71c0,0,4.81,77.69,4.87,104.05 c11.52,0.19,23.05-5.86,32.97-5.83c3.04-13.91,4.57-71.34-1.29-82.62C296.06,381.48,292.38,376.86,287.93,373.08z"></path> <path class="st3" d="M291.01,378.58c0.07-0.19,0.15-0.37,0.25-0.55c-1.88-2.45-4.18-4.76-5.59-6.85c-2.9-4.26-0.81-11.53,2.44-19.1 c3.25-7.57-5.89,6.94-23.13,5.64l-1.5,7.27l1.56,13.99c0.94,0.25,1.75,0.83,2.28,1.64c1.26,1.95,2.7,3.78,4.29,5.47 c1.69,1.87,3.42,3.68,5.16,5.51c1.37,1.46,2.74,2.96,4.03,4.57c1.04,0,3.23,3.23,3.23-0.26c0-0.99,1.86-0.53,2.73-0.9 C287.86,389.46,289.27,383.97,291.01,378.58z"></path> <path class="st6" d="M290.27,349.22c7.82-18.09-6.93,7.99-27.4,6.59l1.28,9.13l1.14,4.67c10.81-1.14,16.51-11.15,24.2-18.74 C289.78,350.35,290.05,349.78,290.27,349.22z"></path> <path class="st3" d="M244.95,290.35c0,0,6.85,12.48-2.28,23.97c-9.13,11.49-5.58,6.93-5.58,6.93s11.48,39.48,29.85,38.81 c18.37-0.67,28.82-10.47,32.12-26c3.3-15.54-5.58-30.54-5.58-30.54s-21.97,9.01-29.52,7.27 C256.41,309.06,256.75,288.27,244.95,290.35z"></path> <path class="st3" d="M175,474.34c0.25,0.34,0.53,0.67,0.81,0.99c4.69,0.63,9.41,0.97,14.14,1.02c14.65,0.57,61.88-2.13,61.88-2.13 s3.88,2.56,10.74,2.28c5.29-0.17,8.13-1.45,11.53-1.68c3.86-0.07,7.73,0.09,11.57,0.47c1.27,0.16,2.5,0.61,3.57,1.31h6.39 c-0.74-0.68-4-3.66-3.04-3.21c9.9,4.67,12.97,1.53,12.97,1.53s-1.77-1.44-1.3-1.4c2.28,0.16,2.59-0.78,2.59-0.78l-14.9-12.56 l-10.43-0.27l-28.8,2.48l-45.76-8.57l6.85-21.79c-6.35-1.95-12.89-4.77-19.41-5.97c-9.21-1.69-9.91,4.51-12.89,12.28 c-1.71,4.41-3.15,8.92-4.31,13.5c-1.05,4.12-5.38,13.93-4.29,17.93C173.33,471.41,174.04,472.95,175,474.34z"></path> <line class="st11" x1="239.15" y1="457.33" x2="229.86" y2="476.44"></line> <line class="st12" x1="242.78" y1="458.06" x2="235.84" y2="475.46"></line> <path class="st6" d="M293.03,463.63c0,0,7.17,4.71,11.12,7l2.76,1.47c0,0-0.37,0.91-2.59,0.75l-9.2-6.85l-9.74-1.14L293.03,463.63z "></path> <path class="st6" d="M295.84,476.08c0,0-0.06,0.22-0.11,0.22h-0.08l-1.62-1.84C294.9,475.31,295.84,476.08,295.84,476.08z"></path> <path class="st6" d="M283.56,469.53l8.54,0.62c3.12,2.13,6.44,3.94,9.91,5.42c-2.03,0-5.02-0.66-9.38-2.68 c-0.08,0-0.1-0.13-0.13-0.13l-1.95-1.72L283.56,469.53z"></path> <path class="st6" d="M183.74,432.92c-1.14,3-2.52,5.97-3.79,8.88c-1.88,6.3-3.42,12.72-4.93,19.15c3.15-1.71,7.33-6.78,13.63-10.13 c7.18-3.8,16.41-3.64,16.41-3.64C200.72,446.01,192.2,433.05,183.74,432.92z"></path> <path class="st2" d="M198.14,401.92c-4.34,7.79-8.29,15.79-11.83,23.97c-0.26,0.63-0.5,1.26-0.78,1.87 c-1.56,4.79-3.42,9.48-5.58,14.03c-0.17,0.57-0.33,1.14-0.49,1.74c4.84,1.32,41.97,11.11,43.9,2c2.08-9.74,21.12-76.57,21.12-76.57 C224.65,349.14,206.81,387,198.14,401.92z"></path> <path class="st3" d="M317.56,474.83c0,0,5.64-60.65,7.51-67.52c1.87-6.87,1.42-21.75,7.99-5.15s6.58,55.5,7.04,66.95 C340.57,480.56,319.91,480.55,317.56,474.83z"></path> <path class="st3" d="M329.77,395.48c-3.54-2.5-7.53-4.31-11.75-5.33c-7.04-1.72-13.62,8.57-17.37,9.13s-17.85,9.74-19.27,10.88 c-1.42,1.14,0,2.85,5.64,0.57c5.64-2.28,13.63-4.57,13.63-4.57l-8.93,8.58l-4.23,10.27c0,0,2.66,1.53,4.86-1.71 c1.21-1.8,2.26-3.71,3.13-5.71l8.46-6.3l-4.7,11.42l-5.64,11.42c0,0,4.38,3.24,7.99-6.85c2.01-5.71,8.46-9.73,8.46-9.73l-2.82,9.13 l-2.34,6.56c0,0,2.07,3.66,4.22-0.76c3.42-7.05,6.11-12.21,6.11-12.21s9.39-5.52,12.68-12.97"></path> <polygon class="st7" points="263.81,369.16 263.81,398.23 265.82,402.16 275.25,393.57 283.42,401.15 "></polygon> <path class="st7" d="M285.17,370.82c1.14,2.69-1.75,30.33-1.75,30.33l4.66-8.76l8.16,2.92l-2.28-16.33L285.17,370.82z"></path> <polygon class="st7" points="215.58,180.92 205.21,202.11 204.23,204.86 204.23,204.86 205.85,210.07 206.24,201.91 217.13,208.9 223.74,184.41 "></polygon> <polygon class="st7" points="194.07,181.52 204.44,202.73 205.27,207.54 206.44,209.58 205.08,210.46 200.02,201.52 191.08,206.56 187.2,185.18 "></polygon> <path class="st8" d="M345.42,101.19l16.32,15.16c0,0-0.78,10.11-0.78,8.55s-2.73-7-2.73-7l-6.55,6.63l-15.16-21.77L345.42,101.19z"></path> <path class="st8" d="M361.36,124.15c-0.45,0.65-0.39-7.39-0.39-7.39s6.22-12.83,6.61-16.71l6.61,2.72l0.78,20.99l-9.33-8.16"></path> <path class="st13" d="M355.65,439.08c-0.41,1.59-2.03,2.54-3.62,2.12l-12.19-3.2c-1.58-0.42-2.52-2.04-2.11-3.62l46.36-177.06 c0.42-1.58,2.03-2.53,3.62-2.12l12.19,3.2c1.58,0.4,2.52,2.01,2.12,3.58c0,0.01-0.01,0.02-0.01,0.03L355.65,439.08z"></path> <path class="st14" d="M350.72,440.28c-0.34,0-0.68-0.04-1-0.13l-12.19-3.2l0.53-1.99l12.18,3.18c1.02,0.28,2.08-0.32,2.35-1.35 c0-0.01,0.01-0.02,0.01-0.03l46.37-177.06l1.99,0.51L354.59,437.3C354.13,439.05,352.54,440.27,350.72,440.28z"></path> <path class="st14" d="M407.44,479.17h-46.7v-3.56h46.37c1.08,0,8.5-2.21,8.5-12.66c0-7.01-24.15-70.77-40.4-111.87l3.84-1.54 c4.17,10.54,40.68,103.26,40.68,113.31c0,11.73-7.99,15.87-12.15,16.48L407.44,479.17z"></path> <path class="st14" d="M347.63,479.17v-2.18c0-1.63-0.57-1.4-2.21-1.4h-73.35c-1.64,0-5.54-0.23-5.54,1.4v2.18H347.63z"></path> <path class="st15" d="M106.09,153.98c-0.15-0.78-0.29-1.55-0.42-2.28l1.14-0.19c0.13,0.75,0.26,1.53,0.41,2.28L106.09,153.98z"></path> <path class="st15" d="M105.02,147.04c-0.17-1.54-0.31-3.1-0.4-4.65l1.14-0.07c0.09,1.52,0.22,3.07,0.39,4.57L105.02,147.04z M105.65,137.72h-1.14l0,0c0-1.53,0-3.08,0.1-4.62l1.14,0.06c-0.07,1.52-0.1,3.05-0.09,4.57H105.65z M106.09,128.53l-1.14-0.11 c0.16-1.54,0.35-3.1,0.59-4.63l1.14,0.17c-0.24,1.52-0.41,3.06-0.59,4.63L106.09,128.53z M107.5,119.4l-1.14-0.24 c0.32-1.51,0.68-3.04,1.08-4.57l1.14,0.31c-0.41,1.53-0.76,3.04-1.08,4.55L107.5,119.4z M109.88,110.51l-1.14-0.37 c0.47-1.46,0.99-2.95,1.54-4.39l1.14,0.42c-0.58,1.45-1.07,2.91-1.54,4.36L109.88,110.51z M113.14,101.91l-1.07-0.48 c0.62-1.4,1.28-2.83,1.97-4.21l1.05,0.53c-0.68,1.39-1.35,2.79-1.97,4.19L113.14,101.91z M117.24,93.68l-1.02-0.57 c0.75-1.35,1.55-2.69,2.37-4.01l0.99,0.62c-0.76,1.32-1.61,2.66-2.35,3.98L117.24,93.68z M122.11,85.89l-1-0.67 c0.87-1.27,1.79-2.53,2.73-3.77l0.94,0.71c-0.89,1.26-1.79,2.5-2.66,3.76L122.11,85.89z M127.68,78.57l-0.9-0.74 c0.98-1.14,2.02-2.36,3.06-3.5l0.87,0.79c-1.04,1.15-2.05,2.32-3.03,3.48L127.68,78.57z M133.88,71.72l-0.82-0.82 c1.08-1.14,2.21-2.18,3.36-3.23l0.8,0.86c-1.13,1.12-2.25,2.19-3.33,3.28L133.88,71.72z M140.66,65.48l-0.75-0.89 c1.14-0.99,2.4-1.99,3.62-2.93l0.72,0.92c-1.21,1.02-2.42,2-3.58,2.98L140.66,65.48z M147.95,59.77l-0.68-0.96 c1.27-0.89,2.56-1.77,3.86-2.63l0.64,0.98c-1.29,0.98-2.57,1.85-3.81,2.74L147.95,59.77z M155.66,54.72l-0.59-1 c1.32-0.79,2.68-1.56,4.04-2.28l0.56,1.04c-1.35,0.84-2.69,1.61-4.01,2.39L155.66,54.72z M163.77,50.33l-0.51-1.05 c1.38-0.68,2.8-1.35,4.21-1.97l0.48,1.07c-1.4,0.75-2.81,1.45-4.18,2.09L163.77,50.33z M172.19,46.58l-0.43-1.14 c1.44-0.57,2.9-1.14,4.36-1.63l0.39,1.14c-1.44,0.66-2.89,1.21-4.31,1.77L172.19,46.58z M180.89,43.51l-0.35-1.14 c1.48-0.46,2.99-0.89,4.47-1.29l0.31,1.14c-1.43,0.55-2.97,0.98-4.43,1.43L180.89,43.51z M189.79,41.14L189.54,40 c1.51-0.34,3.04-0.65,4.57-0.94l0.22,1.14c-1.52,0.42-3.04,0.74-4.53,1.07L189.79,41.14z M240.14,40.62 c-1.51-0.31-3.02-0.58-4.57-0.82l0.18-1.14c1.52,0.24,3.06,0.53,4.57,0.82L240.14,40.62z M198.86,39.48l-0.13-1.07 c1.52-0.23,3.08-0.42,4.57-0.58l0.13,1.14c-1.51,0.22-3.05,0.41-4.57,0.58L198.86,39.48z M231.05,39.18 c-1.53-0.19-3.07-0.35-4.57-0.48l0.1-1.14c1.53,0.14,3.09,0.3,4.62,0.49L231.05,39.18z M208.02,38.51l-0.07-1.14 c1.54-0.1,3.1-0.18,4.65-0.23v1.14c-1.5,0.13-3.05,0.24-4.58,0.34L208.02,38.51z M221.86,38.39c-1.53-0.08-3.08-0.13-4.57-0.14 v-1.14c1.54,0,3.1,0.07,4.66,0.14L221.86,38.39z"></path> <path class="st15" d="M247.02,42.34l-2.28-0.57l0.27-1.14l2.28,0.57L247.02,42.34z"></path> <path class="st16" d="M389.36,336.68h-1.89v-1.14c1.52,0,3.08,0,4.63-0.07l0.06,1.14C391.26,336.65,390.31,336.67,389.36,336.68z M382.75,336.36c-1.56-0.17-3.14-0.39-4.67-0.68l0.22-1.14c1.5,0.27,3.04,0.5,4.57,0.66L382.75,336.36z M396.91,336.21l-0.15-1.14 c1.52-0.18,3.06-0.42,4.57-0.71l0.21,1.14c-1.51,0.27-3.04,0.53-4.61,0.71L396.91,336.21z M406.18,334.48l-0.29-1.14 c1.48-0.37,2.99-0.79,4.49-1.24l0.34,1.14c-1.51,0.45-3.04,0.82-4.53,1.24L406.18,334.48z M373.48,334.63 c-1.52-0.42-3.04-0.9-4.57-1.45l0.41-1.14c1.44,0.54,2.92,1,4.41,1.42L373.48,334.63z M415.18,331.71l-0.4-1.14 c1.43-0.53,2.89-1.14,4.34-1.7l0.45,1.07c-1.45,0.7-2.92,1.24-4.37,1.77L415.18,331.71z M364.61,331.38 c-1.42-0.66-2.83-1.39-4.2-2.17l0.58-1.02c1.34,0.76,2.73,1.47,4.11,2.12L364.61,331.38z M356.39,326.71 c-1.28-0.87-2.57-1.81-3.8-2.8l0.72-0.91c1.22,0.96,2.48,1.88,3.74,2.74L356.39,326.71z M349,320.85c-1.14-1.05-2.28-2.16-3.36-3.3 l0.84-0.81c1.07,1.14,2.18,2.21,3.31,3.24L349,320.85z M342.5,314c-1-1.14-1.99-2.43-2.92-3.71l0.95-0.7 c0.92,1.26,1.88,2.49,2.87,3.66L342.5,314z M336.85,306.45c-0.84-1.31-1.68-2.66-2.45-4.03l1.02-0.58 c0.76,1.35,1.59,2.68,2.42,3.97L336.85,306.45z M332.16,298.26c-0.71-1.39-1.38-2.83-2.01-4.27l1.07-0.47 c0.63,1.42,1.29,2.83,1.99,4.21L332.16,298.26z M328.39,289.61c-0.56-1.47-1.06-2.98-1.53-4.46l1.14-0.34 c0.46,1.46,0.96,2.95,1.51,4.41L328.39,289.61z M325.62,280.59c-0.38-1.56-0.71-3.12-0.96-4.63l1.14-0.19 c0.25,1.48,0.57,3.02,0.94,4.57L325.62,280.59z M324.09,271.28c-0.11-1.32-0.18-2.63-0.18-3.86v-0.88h1.14c0,0.29,0,0.57,0,0.86 c0,1.21,0.07,2.48,0.18,3.77L324.09,271.28z M325.47,261.98l-1.14-0.19c0.24-1.59,0.69-3.15,1.32-4.63l1.07,0.48 c-0.61,1.39-1.04,2.84-1.29,4.34L325.47,261.98z"></path> <polyline class="st5" points="500.11,296.98 409.26,321.53 405.48,317.19 "></polyline> <polygon class="st8" points="500.11,296.98 444.52,297.6 420.44,305.53 405.48,317.19 "></polygon> <polygon class="st8" points="395.48,337.78 401.59,322.19 499.52,297.14 425.23,336.36 "></polygon> <polygon class="st5" points="414.7,336.42 414.91,336.52 425.2,346.95 499.92,297.1 "></polygon> <path class="st7" d="M180.32,158.38c0,0,7.48-0.22,17.52-4.85c0,0-1.53,9.13-5.25,13.08C188.87,170.56,183.81,166.74,180.32,158.38 z"></path> <path class="st7" d="M345.98,74.52c0,0,8.72,2.61,21.6,1.44c0,0-4.21,9.29-9.57,12.09C352.66,90.84,347.82,84.86,345.98,74.52z"></path> <path class="st7" d="M259.49,340.5c0,0,8.61-0.86,19.54-6.63c0,0-0.46,9.86-4.19,14.34S264.73,349.08,259.49,340.5z"></path> </g> </svg> 