<?xml version="1.0" encoding="UTF-8"?> <!-- Generator: Adobe Illustrator 24.2.0, SVG Export Plug-In . SVG Version: 6.00 Build 0) --> <svg xmlns="http://www.w3.org/2000/svg" xmlns:xlink="http://www.w3.org/1999/xlink" version="1.1" id="Layer_1" x="0px" y="0px" viewBox="0 0 250 200" style="enable-background:new 0 0 250 200;" xml:space="preserve"> <style type="text/css"> .st0{fill:#D6E9BD;} .st1{fill:#1B81C4;} .st2{fill:#4F5E67;} .st3{fill:#F58458;} .st4{fill:#D6644B;} .st5{fill:#67BD50;stroke:#60AD6E;stroke-width:0.3499;stroke-miterlimit:10;} .st6{fill:#96CA59;} .st7{fill:#1F81C5;} .st8{fill:#345AA9;} .st9{fill:#FFFFFF;} .st10{fill:#015245;} .st11{fill:#95CA59;} .st12{fill:#67BD50;} .st13{fill:#94C460;} .st14{fill:#CBE3AD;} .st15{fill:#7CAD45;} .st16{fill:#EDF3FB;} </style> <g id="Layer_1_1_"> <path class="st0" d="M30,52.4c64.2-33.7,81.9,19,109.5,28.3c20.6,6.9,56.9,11.3,84.5,30.6c22,15.4,29.3,49.6,24.7,77.7H16 C14.1,134.9-26.8,82.2,30,52.4z"></path> <path class="st1" d="M125.2,188.8c2.6-7.1,3.8-16.1,3.3-28.7c-2.5-58.8-29.9-55.9-30.1-54.4c-0.5,3.3-16.7-2.5-17.7-1.4 c-5.9,6.7-18.7,10.1-29.1,25.6c-8.2,12.2-8.7,45.2-8.7,58.8H125.2z"></path> <path class="st2" d="M100.1,83.8c0,0-22.7-5.5-28.8-11.1c-6.1-5.7,5.4-5.5,6.5-15.9S86,19.7,91.7,35.5s-2.4,21.5-1.9,14 s-3.4-27.7,17.8-24.8s27.7,17.1,9.4,22.5S139.5,30,137.6,44c-1.8,14-14.3,11.4-18.6,11c-4.3-0.5,17.9-9.3,14.5,5.2 C130.1,74.8,116.9,80.4,100.1,83.8z"></path> <path class="st3" d="M87.4,84.2c0,0-0.5,14.8-5.2,18.9c-8.6,7.5-10.5,28.2,20.1,18.2c5.1-1.7-8.2-17.9-0.6-26.8 C109.2,85.7,87.4,84.2,87.4,84.2z"></path> <path class="st4" d="M84.9,84.2c0,0,3.7,4.5-2.4,20.5c0,0,9.5,4.9,16.2-1.9c-0.2-3.1,0.9-6,3-8.3C109.3,85.7,84.9,84.2,84.9,84.2z"></path> <path class="st3" d="M117.7,53.4c0,0,3,11-0.9,27.7c-3.8,16.7-12.7,20.6-26.5,16.4c-13.8-4.2-13.7-21.2-12.8-25.3 c0.8-4.1-12.7-2.6-8.5-11.7s9.5-4.7,9.6-0.9c0.2,3.8,2,8.9,5.3,6.3c3.4-2.6-0.6-18.1,5.9-14.9S107.6,58.9,117.7,53.4z"></path> <path class="st2" d="M132.9,87.4c0,0-21.3,3.7-22.9,16.4s-0.4,14.6-7,19.5c-6.6,4.9-16.2,20.6,3.1,27.1s29.2-4.2,38.8-0.2 c9.6,3.9,25.4-0.2,28.7-6.5c3.4-6.3,4.9-20.6-6.5-26.2c-11.4-5.6-8-15.6-9.2-18.3C154.2,90.9,146.1,86.2,132.9,87.4z"></path> <path class="st5" d="M93.5,187.7c0,0,8.7-38.8,12.7-39.9c4-1.1,9.7-6.5,24.7,0.2s12.5,4.4,24.3,7.4c11.8,3,16.6,2.4,18.7,12 s2.3,19,1.4,20.7C174.4,189.9,93.5,187.7,93.5,187.7z"></path> <path class="st0" d="M149.8,153.9c-4.1-0.8-5.7-0.9-14.2-4.8c-1.5,0.5-2.1,1.7-2,3.6c0,0,3,19.4,3.1,36c7.3,0.1,14.5,0.2,20.7,0.2 c1.9-8.7,2.9-19.3-0.8-26.4C154.9,159.1,152.6,156.2,149.8,153.9z"></path> <path class="st3" d="M134,143l-1.1,5.2l2,16.1c0,0,6,6.1,13.7,4.6c4.3-0.9,7-2.8,7.4-5.7c0.5-3.9-4.4-7.6-6.5-10.7 s-0.7-8.3,1.7-13.7C153.6,133.4,146.9,143.9,134,143z"></path> <path class="st4" d="M151.2,138.8c4.9-11.4-4.4,5-17.2,4.1l-1.1,5.2v0.3c6.8-0.7,13.1-3.8,17.8-8.6 C150.9,139.6,151.1,139.2,151.2,138.8z"></path> <path class="st6" d="M159.1,173.3c0-1-0.1-1.9-0.2-2.8c-7.1,3.7-15.4,4.4-23,1.7c0.1,0.9,0.1,1.9,0.2,2.9c3,0.9,6.1,1.4,9.2,1.4 C150.1,176.4,154.8,175.4,159.1,173.3z"></path> <path class="st6" d="M158.5,182.4c0.1-0.9,0.2-1.9,0.3-2.8c-8.7,2.6-19.4,1.2-22.5,0.6c0.1,0.9,0.1,1.7,0.1,2.7 c3.4,0.6,6.9,0.9,10.4,0.9C150.8,183.8,154.7,183.3,158.5,182.4z"></path> <path class="st3" d="M120.8,99.6c0,0,4.6,7.9-1.5,15c-6.1,7.2-3.7,4.4-3.7,4.4s7.6,24.9,19.8,24.4s19.2-6.5,21.4-16.4 s-3.7-19.2-3.7-19.2s-14.6,5.7-19.6,4.6C128.4,111.3,128.7,98.3,120.8,99.6z"></path> <path class="st7" d="M247.2,131.3h-55.4c-1.5,0.1-2.8,1.1-3.4,2.5l-18.7,51.4H230l18.7-51.4C249.2,132.4,248.5,131.3,247.2,131.3z"></path> <path class="st8" d="M121.6,184.8v1.5c0,1.3,1.1,2.4,2.4,2.4c0,0,0,0,0,0h104.1c1.3,0,2.4-1.1,2.4-2.4v-1.5H121.6z"></path> <path class="st7" d="M169.6,186.4v-1.5h-48.1v1.5c0,1.3,1.1,2.4,2.4,2.4c0,0,0,0,0,0h43.2C168.5,188.8,169.6,187.8,169.6,186.4 C169.6,186.4,169.6,186.4,169.6,186.4z"></path> <path class="st9" d="M97.9,86.7c1.5,0,3.1,0.1,4.6,0.1c-0.5,3.2-3.5,5.5-6.7,5c-2.6-0.4-4.6-2.3-5-4.9C93,86.8,95.4,86.7,97.9,86.7 z"></path> <path class="st9" d="M140.5,132.2c1.5,0,3.1,0.1,4.6,0.1c-0.5,3.2-3.5,5.5-6.7,5c-2.6-0.4-4.6-2.3-5-4.9 C135.6,132.3,138,132.2,140.5,132.2z"></path> <path class="st10" d="M2.4,135.7c0.2,2.1-0.3,10.1,8.1,13.9s14.1-4,23.1,7.2s18.1,12.8,27.6-0.2s12-5.1,22.1-8.7 c10.1-3.5,19-28.2,1.9-40.9c-10.6-7.9-13.9-11.3-34.4,1.7c-20.8,13.3-18.3-4.8-29.5-5.4C10,102.8,1.5,122.5,2.4,135.7z"></path> <path class="st3" d="M67,167.7c-3.4,3-7.1,4.4-10.3,3.4c-4.4-1.4-6.9-6.8-6.9-13.7l0.3,0.1c5.9,2.2,7.3-9.5,7.6-15 c0.4-5.5,11,8.1,11,8.1s-5.4,2.8-6.1,8.2C62.2,161.5,64.4,164.3,67,167.7z"></path> <path class="st4" d="M62.6,160.4c-2.5-2.6-4.6-5.6-6.3-8.7c0.8-3,1.2-6.1,1.4-9.2c0.4-5.5,11,8.1,11,8.1s-5.4,2.8-6.1,8.2 C62.5,159.2,62.5,159.8,62.6,160.4z"></path> <path class="st3" d="M81.7,113.1c0,0,11.9,50.2-16,37.8c-11.3-5-10.6-10.4-10.8-14.3c-0.1-3.9-6.1,0.5-4.8-6.8 c1.3-7.3,3.4-6.2,5.5-2s3.9,3,5.9-2c2-5-2.4-7.8,7.1-4.7C78.1,124.2,82.7,121.9,81.7,113.1z"></path> <path class="st3" d="M61,189.7c0-2.7-0.2-5.1-0.2-5.1s-3.9-2.2-4.8-0.9c-0.8,1.9-1.4,3.9-1.7,6H61z"></path> <path class="st11" d="M59.7,159.6c0,0,7.9,8.3,5.8,13.6c-2.1,5.2-2.9,13.1-2.9,13.1l-9.4-1.7C53.2,184.7,58.8,160.2,59.7,159.6z"></path> <path class="st12" d="M58.5,189.7c0.3-8.2,1.2-16,3.1-17.7c3.9-3.5-0.9-15.3-7.8-15.6c0,0-10.4-2.4-20.7,13.1 c-4.2,6.4-7.8,13.2-10.8,20.2L58.5,189.7z"></path> <path class="st3" d="M94.4,178.3c0,0,2.8-2.3,4.4-2.7c1.5-0.3,3.1-0.5,4.7-0.6l3.5,0.9c-0.9,0.8-2.1,1-3.2,0.7c-1,0-2,0.1-3,0.4 l1.7,1.7c0,0,0.3,2.8-1.6,4.3c-0.5,0.4-1.2,0.6-1.9,0.5c0,0-1.7,0.1-1-0.6s-1.7-0.6-1.7-0.6s-3.6,0-5.4-0.9 C89.2,180.5,93.3,178.8,94.4,178.3z"></path> <path class="st3" d="M62.4,162.6c0,0,10,7.9,11,8.1c5.8,1.8,11.6,4,17.2,6.4c8.4,3.7,3.2,5.1-1.3,5.2s-16.4-1.7-20.5-4.5 c-4.1-2.8-12.4-4.7-14.2-7.2S62.4,162.6,62.4,162.6z"></path> <path class="st11" d="M65.3,164.1c0,0-7.3-10.9-13.2-8.2c-6,2.7-5.7,6.3-5.2,8.7c0.4,2.4,7.9,11.4,7.9,11.4S57.3,165,65.3,164.1z"></path> <path class="st9" d="M74.2,142.1c1.5,0,3.1,0.1,4.6,0.1c-0.5,3.2-3.5,5.5-6.7,5c-2.6-0.4-4.6-2.3-5-4.9 C69.4,142.2,71.8,142,74.2,142.1z"></path> <circle class="st13" cx="195.6" cy="43" r="32.8"></circle> <path class="st14" d="M220.2,21.4l-56.8,15.2c-0.4,2.1-0.6,4.3-0.6,6.5c0,2.9,0.4,5.7,1.1,8.5l63.4-17 C226,29.7,223.5,25.1,220.2,21.4z"></path> <path class="st14" d="M171,64.7l56.7-15.2c0.4-2.1,0.6-4.3,0.6-6.5c0-0.4,0-0.8,0-1.2l-61.8,16.6C167.8,60.6,169.3,62.8,171,64.7z"></path> <circle class="st15" cx="195.6" cy="43" r="30.3"></circle> <circle class="st16" cx="195.6" cy="43" r="28.7"></circle> <path class="st13" d="M197.6,17.3c0,1.1-0.9,2-2.1,2c-1.1,0-2-0.9-2-2.1c0-1.1,0.9-2,2-2C196.7,15.3,197.6,16.2,197.6,17.3 C197.6,17.3,197.6,17.3,197.6,17.3z"></path> <path class="st13" d="M197.6,68.8c0,1.1-0.9,2.1-2,2.1c-1.1,0-2.1-0.9-2.1-2c0-1.1,0.9-2.1,2-2.1c0,0,0,0,0,0 C196.7,66.7,197.6,67.6,197.6,68.8z"></path> <path class="st13" d="M183.8,20.1c0.3,0.6,0.1,1.3-0.5,1.7c-0.6,0.3-1.3,0.1-1.7-0.5c-0.3-0.6-0.1-1.3,0.4-1.7 C182.7,19.4,183.4,19.5,183.8,20.1C183.8,20.1,183.8,20.1,183.8,20.1z"></path> <path class="st13" d="M209.5,64.7c0.3,0.6,0.1,1.3-0.5,1.7s-1.3,0.1-1.7-0.5c-0.3-0.6-0.1-1.3,0.5-1.7 C208.4,63.9,209.2,64.1,209.5,64.7z"></path> <path class="st13" d="M173.9,29.1c0.6,0.3,0.8,1.1,0.5,1.7c-0.3,0.6-1.1,0.8-1.7,0.5c-0.6-0.3-0.8-1.1-0.5-1.7c0,0,0,0,0,0 C172.6,29,173.3,28.8,173.9,29.1z"></path> <path class="st13" d="M218.5,54.8c0.6,0.3,0.8,1.1,0.5,1.7s-1.1,0.8-1.7,0.5c-0.6-0.3-0.8-1.1-0.5-1.7c0,0,0,0,0,0 C217.2,54.7,217.9,54.5,218.5,54.8z"></path> <path class="st13" d="M169.9,41c1.1,0,2.1,0.9,2.1,2.1c0,1.1-0.9,2.1-2.1,2.1c-1.1,0-2.1-0.9-2.1-2.1c0,0,0,0,0,0 C167.8,41.9,168.7,41,169.9,41C169.9,41,169.9,41,169.9,41z"></path> <path class="st13" d="M221.3,41c1.1,0,2.1,0.9,2.1,2c0,1.1-0.9,2.1-2,2.1c-1.1,0-2.1-0.9-2.1-2c0,0,0,0,0,0 C219.3,41.9,220.2,41,221.3,41z"></path> <path class="st13" d="M172.7,54.8c0.6-0.3,1.3-0.1,1.7,0.4s0.1,1.3-0.4,1.7c-0.6,0.3-1.3,0.1-1.7-0.4c0,0,0,0,0,0 C171.9,55.9,172.1,55.2,172.7,54.8C172.7,54.8,172.7,54.8,172.7,54.8z"></path> <path class="st13" d="M217.2,29.1c0.6-0.3,1.3-0.1,1.7,0.5c0.3,0.6,0.1,1.3-0.5,1.7c-0.6,0.3-1.3,0.1-1.7-0.5c0,0,0,0,0,0 C216.4,30.2,216.6,29.5,217.2,29.1C217.2,29.1,217.2,29.1,217.2,29.1z"></path> <path class="st13" d="M181.7,64.7c0.3-0.6,1.1-0.8,1.7-0.5c0.6,0.3,0.8,1.1,0.5,1.7c-0.3,0.6-1.1,0.8-1.7,0.5c0,0,0,0,0,0 C181.5,66,181.3,65.3,181.7,64.7C181.7,64.7,181.7,64.7,181.7,64.7z"></path> <path class="st13" d="M207.4,20.1c0.3-0.6,1.1-0.8,1.7-0.4s0.8,1.1,0.4,1.7c-0.3,0.6-1.1,0.8-1.7,0.4 C207.3,21.5,207.1,20.7,207.4,20.1C207.4,20.1,207.4,20.1,207.4,20.1z"></path> <circle class="st15" cx="195.6" cy="43" r="4.1"></circle> <path class="st13" d="M198.1,43c0,1.4-1.1,2.5-2.5,2.5s-2.5-1.1-2.5-2.5c0-1.4,1.1-2.5,2.5-2.5l0,0C197,40.6,198.1,41.7,198.1,43z"></path> <path class="st13" d="M194.9,44.6c0.2-0.3,0.5-0.4,0.9-0.5c0.7-0.1,1.3,0.4,1.4,1.1c0,0,0,0,0,0l2,18.4c0,0.7-0.5,1.3-1.2,1.3 c-0.6,0-1.2-0.4-1.3-1l-2-18.4C194.6,45.2,194.7,44.8,194.9,44.6z"></path> <path class="st13" d="M185.5,30.1c0.3,0.1,0.6,0.2,0.9,0.5l8.9,9.7c0.6,0.7,0.5,1.7-0.3,2.3c-0.6,0.5-1.6,0.5-2.2-0.1l-8.8-9.7 c-0.6-0.7-0.6-1.7,0.1-2.3C184.5,30.1,185,30,185.5,30.1L185.5,30.1z"></path> <path class="st15" d="M196.4,43c0,0.5-0.4,0.8-0.8,0.8c-0.5,0-0.8-0.4-0.8-0.8c0-0.5,0.4-0.8,0.8-0.8c0,0,0,0,0,0 C196,42.2,196.4,42.6,196.4,43z"></path> </g> </svg> 