<?xml version="1.0" encoding="UTF-8"?> <!-- Generator: Adobe Illustrator 24.2.0, SVG Export Plug-In . SVG Version: 6.00 Build 0) --> <svg xmlns="http://www.w3.org/2000/svg" xmlns:xlink="http://www.w3.org/1999/xlink" version="1.1" id="Layer_1" x="0px" y="0px" viewBox="0 0 250 200" style="enable-background:new 0 0 250 200;" xml:space="preserve"> <style type="text/css"> .st0{fill:#087262;} .st1{fill:#7B7E80;} .st2{opacity:0.15;fill:#010101;enable-background:new ;} .st3{fill:#AFDAB2;} .st4{fill:#B9DEBB;} .st5{fill:#A2D4A1;} .st6{opacity:0.1;fill:#505E68;enable-background:new ;} .st7{fill:#D6634A;} .st8{fill:#F58457;} .st9{fill:#505E68;} .st10{fill:#60AD6E;} .st11{fill:#95CA59;} .st12{fill:#DFEFED;} .st13{fill:#5A969C;} .st14{opacity:4.000000e-02;fill:#505E68;enable-background:new ;} .st15{fill:#BFD9D8;} .st16{opacity:4.000000e-02;fill:#BD6A60;enable-background:new ;} .st17{fill:#B6DCB5;} .st18{fill:#C3E2C2;} .st19{opacity:7.000000e-02;fill:#505E68;enable-background:new ;} .st20{fill:#D0E5E0;} .st21{fill:#DCEAE7;} .st22{fill:#FFFFFF;} .st23{fill:#E5F1F2;} .st24{fill:#FFF9EE;} .st25{fill:#D6E9BD;} .st26{fill:#81B578;} .st27{opacity:0.1;} .st28{fill:#A0C696;} .st29{clip-path:url(#SVGID_2_);} .st30{fill:#4F5E67;} .st31{fill:#5FAD6E;} .st32{fill:#3E4950;} .st33{fill:#DDE8EB;} .st34{fill:#BAC9CC;} .st35{fill:#1B81C4;} .st36{fill:#0B77B3;} .st37{fill:#39A0DA;} .st38{fill:#FDE5E5;} </style> <g> <g id="Layer_1_1_"> <path class="st0" d="M186.2,176.3c-16.8-0.5-36.3-9.7-67.7,2C59.9,200.2,0.9,185.1,3.9,114.1S46.4-1.5,107.4,16.3 c44.7,13.1,50.3,44,78.7,45.2c53,2.2,73.9,37.6,59.4,73.7C231.2,171.4,208.6,177,186.2,176.3z"></path> <rect y="123.4" class="st1" width="249.1" height="3.8"></rect> <rect y="125.4" class="st2" width="249.1" height="1.9"></rect> <rect x="36.7" y="47.2" class="st3" width="173" height="67.4"></rect> <rect x="36.6" y="47.4" class="st4" width="173.2" height="33.7"></rect> <rect x="107.9" y="47.4" class="st5" width="30.6" height="67.1"></rect> <rect x="36.6" y="47.4" class="st6" width="173.2" height="3"></rect> <polygon class="st7" points="238.2,47.4 11.3,47.4 37.8,25.6 211.8,25.6 "></polygon> <rect x="44.1" y="27.1" class="st6" width="33" height="0.9"></rect> <rect x="34.8" y="30" class="st6" width="33" height="0.9"></rect> <rect x="81.3" y="30" class="st6" width="20.4" height="0.9"></rect> <rect x="115.3" y="30" class="st6" width="33" height="0.9"></rect> <rect x="155.5" y="30" class="st6" width="33" height="0.9"></rect> <rect x="89.4" y="27.1" class="st6" width="27.6" height="0.9"></rect> <rect x="129.3" y="27.1" class="st6" width="33" height="0.9"></rect> <rect x="175.2" y="27.1" class="st6" width="26.4" height="0.9"></rect> <rect x="38.5" y="33.5" class="st6" width="33" height="0.9"></rect> <rect x="29.2" y="36.3" class="st6" width="33" height="0.9"></rect> <rect x="69.4" y="36.3" class="st6" width="33" height="0.9"></rect> <rect x="109.6" y="36.3" class="st6" width="33" height="0.9"></rect> <rect x="149.8" y="36.3" class="st6" width="33" height="0.9"></rect> <rect x="192.5" y="36.3" class="st6" width="28.1" height="0.9"></rect> <rect x="81" y="33.5" class="st6" width="33" height="0.9"></rect> <rect x="129.5" y="33.5" class="st6" width="21.3" height="0.9"></rect> <rect x="197.7" y="29.6" class="st6" width="18.2" height="0.9"></rect> <rect x="206.5" y="39.8" class="st6" width="18.2" height="0.9"></rect> <rect x="166.2" y="33.5" class="st6" width="33" height="0.9"></rect> <rect x="38.2" y="39.8" class="st6" width="22.3" height="0.9"></rect> <rect x="24.9" y="42.7" class="st6" width="30.3" height="0.9"></rect> <rect x="63.7" y="42.7" class="st6" width="33" height="0.9"></rect> <rect x="104" y="42.7" class="st6" width="33" height="0.9"></rect> <rect x="148.8" y="42.7" class="st6" width="23.8" height="0.9"></rect> <rect x="184.4" y="42.7" class="st6" width="33" height="0.9"></rect> <rect x="75.4" y="39.8" class="st6" width="33" height="0.9"></rect> <rect x="120.3" y="39.8" class="st6" width="28.4" height="0.9"></rect> <rect x="160.6" y="39.8" class="st6" width="33" height="0.9"></rect> <rect x="111.6" y="84.2" class="st7" width="23.1" height="30.3"></rect> <rect x="112.5" y="84.2" class="st8" width="21.3" height="30.3"></rect> <rect x="124.9" y="86.4" class="st9" width="7.9" height="11.6"></rect> <polygon class="st10" points="125.4,97.4 132.3,97.4 125.4,86.9 "></polygon> <polygon class="st11" points="125.4,86.9 132.3,97.4 132.3,86.9 "></polygon> <rect x="113.6" y="86.4" class="st9" width="7.9" height="11.6"></rect> <polygon class="st10" points="114.2,97.4 121,97.4 114.2,86.9 "></polygon> <polygon class="st11" points="114.2,86.9 121,97.4 121,86.9 "></polygon> <rect x="124.9" y="99.3" class="st12" width="1.1" height="5"></rect> <rect x="120.5" y="99.3" class="st12" width="1.1" height="5"></rect> <rect x="122.6" y="84.2" class="st7" width="1.3" height="30.3"></rect> <rect x="36.7" y="114.4" class="st13" width="173" height="9"></rect> <rect x="109.8" y="84.2" class="st14" width="26.7" height="2.2"></rect> <rect x="154.5" y="55.7" class="st5" width="12.8" height="15.4"></rect> <rect x="155.6" y="56.8" class="st9" width="10.6" height="13.5"></rect> <polygon class="st11" points="156.7,58.2 165.1,66.2 165.1,58.2 "></polygon> <polygon class="st10" points="156.7,68.9 165.1,68.9 165.1,66.2 156.7,58.2 "></polygon> <rect x="156.3" y="61.7" class="st9" width="9.2" height="0.8"></rect> <rect x="160.5" y="57.9" class="st9" width="0.8" height="11.9"></rect> <rect x="154.5" y="68.9" class="st12" width="12.9" height="0.9"></rect> <rect x="154.5" y="69.7" class="st15" width="12.9" height="1.6"></rect> <rect x="154.5" y="71.2" class="st6" width="12.9" height="1"></rect> <rect x="174.1" y="55.7" class="st5" width="12.8" height="15.4"></rect> <rect x="175.2" y="56.8" class="st9" width="10.6" height="13.5"></rect> <polygon class="st11" points="176.3,58.2 184.7,66.2 184.7,58.2 "></polygon> <polygon class="st10" points="176.3,68.9 184.7,68.9 184.7,66.2 176.3,58.2 "></polygon> <rect x="175.9" y="61.7" class="st9" width="9.2" height="0.8"></rect> <rect x="180.2" y="57.9" class="st9" width="0.8" height="11.9"></rect> <rect x="174.1" y="68.9" class="st12" width="12.9" height="0.9"></rect> <rect x="174.1" y="69.7" class="st15" width="12.9" height="1.6"></rect> <rect x="174.1" y="71.2" class="st6" width="12.9" height="1"></rect> <rect x="154.5" y="89" class="st5" width="12.8" height="15.4"></rect> <rect x="155.6" y="90" class="st9" width="10.6" height="13.5"></rect> <polygon class="st11" points="156.7,91.4 165.1,99.5 165.1,91.4 "></polygon> <polygon class="st10" points="156.7,102.1 165.1,102.1 165.1,99.5 156.7,91.4 "></polygon> <rect x="156.3" y="95" class="st9" width="9.2" height="0.8"></rect> <rect x="160.5" y="91.2" class="st9" width="0.8" height="11.9"></rect> <rect x="154.5" y="102.1" class="st12" width="12.9" height="0.9"></rect> <rect x="154.5" y="102.9" class="st15" width="12.9" height="1.6"></rect> <rect x="154.5" y="104.5" class="st6" width="12.9" height="1"></rect> <rect x="174.1" y="89" class="st5" width="12.8" height="15.4"></rect> <rect x="175.2" y="90" class="st9" width="10.6" height="13.5"></rect> <polygon class="st11" points="176.3,91.4 184.7,99.5 184.7,91.4 "></polygon> <polygon class="st10" points="176.3,102.1 184.7,102.1 184.7,99.5 176.3,91.4 "></polygon> <rect x="175.9" y="95" class="st9" width="9.2" height="0.8"></rect> <rect x="180.2" y="91.1" class="st9" width="0.8" height="11.9"></rect> <rect x="174.1" y="102.1" class="st12" width="12.9" height="0.9"></rect> <rect x="174.1" y="102.9" class="st15" width="12.9" height="1.6"></rect> <rect x="174.1" y="104.5" class="st6" width="12.9" height="1"></rect> <rect x="107.9" y="76.7" class="st12" width="30.7" height="7.5"></rect> <rect x="61.3" y="55.8" class="st5" width="12.8" height="15.4"></rect> <rect x="62.5" y="56.8" class="st9" width="10.6" height="13.5"></rect> <polygon class="st11" points="63.6,58.2 71.9,66.2 71.9,58.2 "></polygon> <polygon class="st10" points="63.6,68.9 71.9,68.9 71.9,66.2 63.6,58.2 "></polygon> <rect x="63.1" y="61.7" class="st9" width="9.2" height="0.8"></rect> <rect x="67.4" y="58" class="st9" width="0.8" height="11.9"></rect> <rect x="61.3" y="68.9" class="st12" width="12.9" height="0.9"></rect> <rect x="61.3" y="69.7" class="st15" width="12.9" height="1.6"></rect> <rect x="61.3" y="71.2" class="st6" width="12.9" height="1"></rect> <rect x="80.9" y="55.7" class="st5" width="12.8" height="15.4"></rect> <rect x="82.1" y="56.8" class="st9" width="10.6" height="13.5"></rect> <polygon class="st11" points="83.2,58.2 91.6,66.2 91.6,58.2 "></polygon> <polygon class="st10" points="83.2,68.9 91.6,68.9 91.6,66.2 83.2,58.2 "></polygon> <rect x="82.7" y="61.7" class="st9" width="9.2" height="0.8"></rect> <rect x="87" y="57.9" class="st9" width="0.8" height="11.9"></rect> <rect x="80.9" y="68.9" class="st12" width="12.9" height="0.9"></rect> <rect x="80.9" y="69.7" class="st15" width="12.9" height="1.6"></rect> <rect x="80.9" y="71.2" class="st6" width="12.9" height="1"></rect> <rect x="61.3" y="89" class="st5" width="12.8" height="15.4"></rect> <rect x="62.5" y="90" class="st9" width="10.6" height="13.5"></rect> <polygon class="st11" points="63.6,91.4 71.9,99.5 71.9,91.4 "></polygon> <polygon class="st10" points="63.6,102.1 71.9,102.1 71.9,99.5 63.6,91.4 "></polygon> <rect x="63.1" y="95" class="st9" width="9.2" height="0.8"></rect> <rect x="67.4" y="91.2" class="st9" width="0.8" height="11.9"></rect> <rect x="61.3" y="102.1" class="st12" width="12.9" height="0.9"></rect> <rect x="61.3" y="102.9" class="st15" width="12.9" height="1.6"></rect> <rect x="61.3" y="104.5" class="st6" width="12.9" height="1"></rect> <rect x="80.9" y="89" class="st5" width="12.8" height="15.4"></rect> <rect x="82.1" y="90" class="st9" width="10.6" height="13.5"></rect> <polygon class="st11" points="83.2,91.4 91.6,99.5 91.6,91.4 "></polygon> <polygon class="st10" points="83.2,102.1 91.6,102.1 91.6,99.5 83.2,91.4 "></polygon> <rect x="82.8" y="95" class="st9" width="9.2" height="0.8"></rect> <rect x="87" y="91.2" class="st9" width="0.8" height="11.9"></rect> <rect x="80.9" y="102.1" class="st12" width="12.9" height="0.9"></rect> <rect x="80.9" y="102.9" class="st15" width="12.9" height="1.6"></rect> <rect x="80.9" y="104.5" class="st6" width="12.9" height="1"></rect> <rect x="191.4" y="50.4" class="st14" width="1.9" height="73"></rect> <rect x="97.1" y="50.4" class="st14" width="1.9" height="73"></rect> <rect x="107.9" y="50.4" class="st14" width="1.9" height="73"></rect> <rect x="136.5" y="50.4" class="st16" width="1.9" height="73"></rect> <rect x="147.4" y="50.4" class="st14" width="1.9" height="73"></rect> <rect x="55.9" y="50.4" class="st14" width="1.9" height="73"></rect> <rect x="193.3" y="47.4" class="st17" width="44.7" height="76.1"></rect> <rect x="193.3" y="47.4" class="st18" width="44.7" height="33.7"></rect> <rect x="193.3" y="114.4" class="st13" width="44.7" height="9"></rect> <rect x="193.3" y="47.4" class="st19" width="44.7" height="3"></rect> <rect x="192.4" y="42.9" class="st20" width="46.4" height="1.6"></rect> <rect x="191.3" y="44.4" class="st15" width="48.5" height="3"></rect> <rect x="11.4" y="47.4" class="st17" width="44.7" height="76.1"></rect> <rect x="11.4" y="47.4" class="st18" width="44.7" height="33.7"></rect> <rect x="11.4" y="114.4" class="st15" width="44.7" height="9"></rect> <rect x="11.4" y="47.4" class="st19" width="44.7" height="3"></rect> <rect x="10.5" y="42.9" class="st20" width="46.4" height="1.6"></rect> <rect x="9.4" y="44.4" class="st15" width="48.5" height="3"></rect> <rect x="105" y="47.4" class="st20" width="3" height="67"></rect> <rect x="102" y="47.4" class="st12" width="3" height="67"></rect> <rect x="99" y="47.4" class="st21" width="3" height="67"></rect> <rect x="98" y="47.4" class="st20" width="10.9" height="1.9"></rect> <rect x="98" y="112.5" class="st20" width="10.9" height="1.9"></rect> <rect x="144.5" y="47.4" class="st20" width="3" height="67"></rect> <rect x="141.5" y="47.4" class="st12" width="3" height="67"></rect> <rect x="138.5" y="47.4" class="st21" width="3" height="67"></rect> <rect x="137.5" y="47.4" class="st20" width="10.9" height="1.9"></rect> <rect x="137.5" y="112.5" class="st20" width="10.9" height="1.9"></rect> <rect x="99" y="49.2" class="st6" width="9" height="1.4"></rect> <rect x="138.5" y="49.2" class="st6" width="9" height="1.4"></rect> <polygon class="st15" points="154.6,47.4 123.3,20.2 92.1,47.4 "></polygon> <polygon class="st12" points="95.9,47.4 123.3,23.5 150.8,47.4 "></polygon> <rect x="95.7" y="45" class="st15" width="55.2" height="2.4"></rect> <rect x="97.6" y="114.4" class="st15" width="51.3" height="9"></rect> <rect x="109" y="114.4" class="st22" width="28.5" height="1.1"></rect> <rect x="109" y="115.5" class="st23" width="28.5" height="1.9"></rect> <rect x="107.1" y="117.4" class="st22" width="32.3" height="1.1"></rect> <rect x="107.1" y="118.5" class="st23" width="32.3" height="1.9"></rect> <rect x="104.8" y="120.4" class="st24" width="36.9" height="1.1"></rect> <rect x="104.8" y="121.6" class="st25" width="36.9" height="1.9"></rect> <circle class="st6" cx="123.3" cy="36.5" r="6.8"></circle> <circle class="st8" cx="123.3" cy="36.5" r="6"></circle> <circle class="st20" cx="123.3" cy="36.5" r="5"></circle> <rect x="123.2" y="32.2" class="st26" width="0.3" height="1.6"></rect> <rect x="121.4" y="32.7" transform="matrix(0.866 -0.5 0.5 0.866 -0.4347 65.2504)" class="st26" width="0.3" height="1.6"></rect> <rect x="120.1" y="33.9" transform="matrix(0.4998 -0.8661 0.8661 0.4998 30.0637 121.5006)" class="st26" width="0.3" height="1.6"></rect> <rect x="119" y="36.3" class="st26" width="1.6" height="0.3"></rect> <rect x="119.5" y="38.1" transform="matrix(0.866 -0.5 0.5 0.866 -3.0381 65.2548)" class="st26" width="1.6" height="0.3"></rect> <rect x="120.8" y="39.4" transform="matrix(0.5002 -0.8659 0.8659 0.5002 26.467 125.0477)" class="st26" width="1.6" height="0.3"></rect> <rect x="123.2" y="39.3" class="st26" width="0.3" height="1.6"></rect> <rect x="124.9" y="38.8" transform="matrix(0.8659 -0.5002 0.5002 0.8659 -3.0336 67.8851)" class="st26" width="0.3" height="1.6"></rect> <rect x="126.2" y="37.5" transform="matrix(0.5 -0.866 0.866 0.5 30.0466 128.6235)" class="st26" width="0.3" height="1.6"></rect> <rect x="126.1" y="36.3" class="st26" width="1.6" height="0.3"></rect> <rect x="125.6" y="34.6" transform="matrix(0.866 -0.5 0.5 0.866 -0.4256 67.862)" class="st26" width="1.6" height="0.3"></rect> <rect x="124.3" y="33.3" transform="matrix(0.5 -0.866 0.866 0.5 33.6086 125.0577)" class="st26" width="1.6" height="0.3"></rect> <path class="st4" d="M124.2,36.5c0,0.5-0.4,0.9-0.8,0.9c-0.5,0-0.9-0.4-0.9-0.8c0,0,0,0,0,0c-0.2-0.5,0.1-1,0.6-1.1 c0.5-0.2,1,0.1,1.1,0.6C124.2,36.1,124.2,36.3,124.2,36.5z"></path> <path class="st26" d="M123.9,36.5c0,0.3-0.3,0.6-0.6,0.6c-0.3,0-0.6-0.3-0.6-0.6c0-0.3,0.3-0.6,0.6-0.6c0,0,0,0,0,0 C123.6,35.9,123.9,36.2,123.9,36.5C123.9,36.5,123.9,36.5,123.9,36.5z"></path> <rect x="123.1" y="32.9" class="st9" width="0.5" height="3.6"></rect> <rect x="123.1" y="36.2" class="st9" width="2.9" height="0.5"></rect> <rect x="199.3" y="55.7" class="st5" width="12.8" height="15.4"></rect> <rect x="200.5" y="56.8" class="st9" width="10.6" height="13.5"></rect> <polygon class="st11" points="201.6,58.2 209.9,66.2 209.9,58.2 "></polygon> <polygon class="st10" points="201.6,68.9 209.9,68.9 209.9,66.2 201.6,58.2 "></polygon> <rect x="201.1" y="61.7" class="st9" width="9.2" height="0.8"></rect> <rect x="205.4" y="57.9" class="st9" width="0.8" height="11.9"></rect> <rect x="199.3" y="68.9" class="st12" width="12.9" height="0.9"></rect> <rect x="199.3" y="69.7" class="st15" width="12.9" height="1.6"></rect> <rect x="199.3" y="71.2" class="st6" width="12.9" height="1"></rect> <rect x="218.9" y="55.7" class="st5" width="12.8" height="15.4"></rect> <rect x="220.1" y="56.8" class="st9" width="10.6" height="13.5"></rect> <polygon class="st11" points="221.2,58.2 229.5,66.2 229.5,58.2 "></polygon> <polygon class="st10" points="221.2,68.9 229.5,68.9 229.5,66.2 221.2,58.2 "></polygon> <rect x="220.7" y="61.7" class="st9" width="9.2" height="0.8"></rect> <rect x="225" y="57.9" class="st9" width="0.8" height="11.9"></rect> <rect x="218.9" y="68.9" class="st12" width="12.9" height="0.9"></rect> <rect x="218.9" y="69.7" class="st15" width="12.9" height="1.6"></rect> <rect x="218.9" y="71.2" class="st6" width="12.9" height="1"></rect> <rect x="199.3" y="89" class="st5" width="12.8" height="15.4"></rect> <rect x="200.5" y="90" class="st9" width="10.6" height="13.5"></rect> <polygon class="st11" points="201.6,91.4 209.9,99.5 209.9,91.4 "></polygon> <polygon class="st10" points="201.6,102.1 209.9,102.1 209.9,99.5 201.6,91.4 "></polygon> <rect x="201.1" y="95" class="st9" width="9.2" height="0.8"></rect> <rect x="205.4" y="91.2" class="st9" width="0.8" height="11.9"></rect> <rect x="199.3" y="102.1" class="st12" width="12.9" height="0.9"></rect> <rect x="199.3" y="102.9" class="st15" width="12.9" height="1.6"></rect> <rect x="199.3" y="104.5" class="st6" width="12.9" height="1"></rect> <rect x="218.9" y="88.9" class="st5" width="12.8" height="15.4"></rect> <rect x="220.1" y="90" class="st9" width="10.6" height="13.5"></rect> <polygon class="st11" points="221.2,91.4 229.5,99.5 229.5,91.4 "></polygon> <polygon class="st10" points="221.2,102.1 229.5,102.1 229.5,99.5 221.2,91.4 "></polygon> <rect x="220.7" y="95" class="st9" width="9.2" height="0.8"></rect> <rect x="225" y="91.2" class="st9" width="0.8" height="11.9"></rect> <rect x="218.9" y="102.1" class="st12" width="12.9" height="0.9"></rect> <rect x="218.9" y="102.9" class="st15" width="12.9" height="1.6"></rect> <rect x="218.9" y="104.5" class="st6" width="12.9" height="1"></rect> <rect x="17.5" y="55.8" class="st5" width="12.8" height="15.4"></rect> <rect x="18.6" y="56.8" class="st9" width="10.6" height="13.5"></rect> <polygon class="st11" points="19.7,58.2 28.1,66.2 28.1,58.2 "></polygon> <polygon class="st10" points="19.7,68.9 28.1,68.9 28.1,66.2 19.7,58.2 "></polygon> <rect x="19.3" y="61.7" class="st9" width="9.2" height="0.8"></rect> <rect x="23.5" y="57.9" class="st9" width="0.8" height="11.9"></rect> <rect x="17.5" y="68.9" class="st12" width="12.9" height="0.9"></rect> <rect x="17.5" y="69.7" class="st15" width="12.9" height="1.6"></rect> <rect x="17.5" y="71.3" class="st6" width="12.9" height="1"></rect> <rect x="37.1" y="55.8" class="st5" width="12.8" height="15.4"></rect> <rect x="38.3" y="56.8" class="st9" width="10.6" height="13.5"></rect> <polygon class="st11" points="39.4,58.2 47.7,66.2 47.7,58.2 "></polygon> <polygon class="st10" points="39.4,68.9 47.7,68.9 47.7,66.2 39.4,58.2 "></polygon> <rect x="38.9" y="61.7" class="st9" width="9.2" height="0.8"></rect> <rect x="43.2" y="58" class="st9" width="0.8" height="11.9"></rect> <rect x="37.1" y="68.9" class="st12" width="12.9" height="0.9"></rect> <rect x="37.1" y="69.7" class="st15" width="12.9" height="1.6"></rect> <rect x="37.1" y="71.3" class="st6" width="12.9" height="1"></rect> <rect x="17.5" y="89" class="st5" width="12.8" height="15.4"></rect> <rect x="18.6" y="90" class="st9" width="10.6" height="13.5"></rect> <polygon class="st11" points="19.7,91.4 28.1,99.5 28.1,91.4 "></polygon> <polygon class="st10" points="19.7,102.1 28.1,102.1 28.1,99.5 19.7,91.4 "></polygon> <rect x="19.3" y="95" class="st9" width="9.2" height="0.8"></rect> <rect x="23.5" y="91.2" class="st9" width="0.8" height="11.9"></rect> <rect x="17.5" y="102.1" class="st12" width="12.9" height="0.9"></rect> <rect x="17.5" y="102.9" class="st15" width="12.9" height="1.6"></rect> <rect x="17.5" y="104.5" class="st6" width="12.9" height="1"></rect> <rect x="37.1" y="89" class="st5" width="12.8" height="15.4"></rect> <rect x="38.3" y="90" class="st9" width="10.6" height="13.5"></rect> <polygon class="st11" points="39.4,91.4 47.7,99.5 47.7,91.4 "></polygon> <polygon class="st10" points="39.4,102.1 47.7,102.1 47.7,99.5 39.4,91.4 "></polygon> <rect x="38.9" y="95" class="st9" width="9.2" height="0.8"></rect> <rect x="43.2" y="91.2" class="st9" width="0.8" height="11.9"></rect> <rect x="37.1" y="102.1" class="st12" width="12.9" height="0.9"></rect> <rect x="37.1" y="102.9" class="st15" width="12.9" height="1.6"></rect> <rect x="37.1" y="104.5" class="st6" width="12.9" height="1"></rect> <g class="st27"> <path class="st9" d="M111.9,81.2h0.2c0.1,0.5,0.5,0.9,1,0.9c0.5,0,0.8-0.2,0.8-0.6s-0.2-0.4-0.9-0.7s-1-0.6-1-1.1 c0-0.6,0.5-1,1-1c0,0,0.1,0,0.1,0c0.3,0,0.6,0.1,0.8,0.3l0.1-0.2h0.1l0.1,1H114c-0.1-0.4-0.5-0.8-0.9-0.8c-0.4,0-0.6,0.2-0.6,0.5 s0.2,0.4,0.8,0.6c0.9,0.3,1.2,0.7,1.2,1.2s-0.6,1-1.4,1c-0.3,0-0.7-0.1-0.9-0.3l-0.1,0.3H112L111.9,81.2z"></path> <path class="st9" d="M117.9,78.8h0.2L118,80h-0.2c-0.1-0.5-0.5-0.9-1-0.9c-0.7,0-1.1,0.6-1.1,1.5s0.4,1.5,1.1,1.5 c0.6,0,1.1-0.4,1.2-1h0.2v1.2H118l-0.1-0.4c-0.3,0.3-0.8,0.4-1.2,0.4c-0.9,0.1-1.7-0.6-1.8-1.5c0-0.1,0-0.2,0-0.2 c0-1,0.7-1.8,1.7-1.9c0.1,0,0.1,0,0.2,0c0.4,0,0.7,0.1,1,0.3L117.9,78.8z"></path> <path class="st9" d="M122.1,81.6c0,0.5,0.1,0.5,0.5,0.6v0.2h-1.7v-0.2c0.4,0,0.5-0.1,0.5-0.5v-1h-1.7v0.9c0,0.5,0.1,0.5,0.5,0.6 v0.2h-1.7v-0.2c0.4,0,0.5-0.1,0.5-0.5v-2.1c0-0.4-0.1-0.5-0.4-0.5v-0.2h1.6V79c-0.4,0-0.5,0.1-0.5,0.5v0.9h1.7v-0.9 c0-0.4-0.1-0.5-0.5-0.5v-0.2h1.6V79c-0.4,0-0.4,0.1-0.4,0.5L122.1,81.6z"></path> <path class="st9" d="M126.8,80.6c0.1,1.1-0.7,2-1.8,2.1c-1.1,0.1-2-0.7-2.1-1.8c-0.1-1.1,0.7-2,1.8-2.1c0.1,0,0.1,0,0.2,0 C125.9,78.8,126.8,79.6,126.8,80.6C126.8,80.6,126.8,80.6,126.8,80.6z M126.1,80.6c0-0.9-0.4-1.5-1.2-1.5s-1.2,0.6-1.2,1.5 c0,0.9,0.4,1.5,1.2,1.5S126.1,81.5,126.1,80.6L126.1,80.6z"></path> <path class="st9" d="M131.2,80.6c0.1,1.1-0.7,2-1.8,2.1c-1.1,0.1-2-0.7-2.1-1.8c-0.1-1.1,0.7-2,1.8-2.1c0.1,0,0.1,0,0.2,0 C130.2,78.8,131.1,79.6,131.2,80.6C131.2,80.6,131.2,80.6,131.2,80.6z M130.4,80.6c0-0.9-0.4-1.5-1.2-1.5c-0.7,0-1.2,0.6-1.2,1.5 c0,0.9,0.4,1.5,1.2,1.5C129.9,82.1,130.4,81.5,130.4,80.6L130.4,80.6z"></path> <path class="st9" d="M134.6,82.4h-3.1v-0.2c0.4,0,0.5-0.1,0.5-0.5v-2.1c0-0.4-0.1-0.5-0.4-0.5v-0.2h1.6V79 c-0.4,0-0.5,0.1-0.5,0.5v1.9c0,0.5,0.2,0.6,0.8,0.6c0.6,0,0.9-0.1,1.1-0.8h0.2L134.6,82.4z"></path> </g> <path class="st10" d="M111.9,80.9h0.2c0.1,0.5,0.5,0.9,1,0.9c0.5,0,0.8-0.2,0.8-0.6c0-0.3-0.2-0.4-0.9-0.7s-1-0.6-1-1.1 c0-0.6,0.5-1,1-1c0,0,0.1,0,0.1,0c0.3,0,0.6,0.1,0.8,0.3l0.1-0.2h0.1l0.1,1H114c-0.1-0.4-0.5-0.8-0.9-0.8c-0.4,0-0.6,0.2-0.6,0.5 s0.2,0.4,0.8,0.6c0.9,0.3,1.2,0.7,1.2,1.2s-0.6,1-1.4,1c-0.3,0-0.7-0.1-0.9-0.3l-0.1,0.3H112L111.9,80.9z"></path> <path class="st10" d="M117.9,78.6h0.2l-0.1,1.2h-0.2c-0.1-0.5-0.5-0.9-1-0.9c-0.7,0-1.1,0.6-1.1,1.5s0.4,1.5,1.1,1.5 c0.6,0,1.1-0.4,1.2-1h0.2v1.2H118l-0.1-0.4c-0.3,0.3-0.8,0.4-1.2,0.4c-0.9,0.1-1.7-0.6-1.8-1.5c0-0.1,0-0.2,0-0.2 c0-1,0.7-1.8,1.7-1.9c0.1,0,0.1,0,0.2,0c0.4,0,0.7,0.1,1,0.3L117.9,78.6z"></path> <path class="st10" d="M122.1,81.3c0,0.5,0.1,0.5,0.5,0.5v0.2h-1.7v-0.2c0.4,0,0.5-0.1,0.5-0.5v-0.9h-1.7v0.9 c0,0.5,0.1,0.5,0.5,0.5v0.2h-1.7v-0.2c0.4,0,0.5-0.1,0.5-0.5v-2.1c0-0.4-0.1-0.5-0.4-0.5v-0.2h1.6v0.2c-0.4,0-0.5,0.1-0.5,0.5v0.8 h1.7v-0.9c0-0.4-0.1-0.5-0.5-0.5v-0.2h1.6v0.2c-0.4,0-0.4,0.1-0.4,0.6L122.1,81.3z"></path> <path class="st10" d="M126.8,80.3c0.1,1.1-0.7,2-1.8,2.1c-1.1,0.1-2-0.7-2.1-1.8c-0.1-1.1,0.7-2,1.8-2.1c0.1,0,0.1,0,0.2,0 C125.9,78.5,126.8,79.3,126.8,80.3C126.8,80.3,126.8,80.3,126.8,80.3z M126.1,80.3c0-0.9-0.4-1.5-1.2-1.5s-1.2,0.6-1.2,1.5 s0.4,1.5,1.2,1.5S126.1,81.2,126.1,80.3L126.1,80.3z"></path> <path class="st10" d="M131.2,80.3c0.1,1.1-0.7,2-1.8,2.1c-1.1,0.1-2-0.7-2.1-1.8c-0.1-1.1,0.7-2,1.8-2.1c0.1,0,0.1,0,0.2,0 C130.2,78.5,131.1,79.3,131.2,80.3C131.2,80.3,131.2,80.3,131.2,80.3z M130.4,80.3c0-0.9-0.4-1.5-1.2-1.5c-0.7,0-1.2,0.6-1.2,1.5 s0.4,1.5,1.2,1.5C129.9,81.8,130.4,81.2,130.4,80.3L130.4,80.3z"></path> <path class="st10" d="M134.6,82.1h-3.1v-0.2c0.4,0,0.5-0.1,0.5-0.5v-2.1c0-0.4-0.1-0.5-0.4-0.5v-0.2h1.6v0.2 c-0.4,0-0.5,0.1-0.5,0.6v1.9c0,0.5,0.2,0.6,0.8,0.6c0.6,0,0.9-0.2,1.1-0.8h0.2L134.6,82.1z"></path> <rect x="116.8" y="55.6" class="st28" width="12.8" height="15.4"></rect> <rect x="117.9" y="56.7" class="st9" width="10.6" height="13.5"></rect> <polygon class="st11" points="119,58.1 127.4,66.1 127.4,58.1 "></polygon> <polygon class="st10" points="119,68.8 127.4,68.8 127.4,66.1 119,58.1 "></polygon> <rect x="118.6" y="61.6" class="st9" width="9.2" height="0.8"></rect> <rect x="122.8" y="57.8" class="st9" width="0.8" height="11.9"></rect> <rect x="116.8" y="68.8" class="st12" width="12.9" height="0.9"></rect> <rect x="116.8" y="69.6" class="st15" width="12.9" height="1.6"></rect> <rect x="116.8" y="71.1" class="st6" width="12.9" height="1"></rect> <rect x="17.5" y="76.7" class="st5" width="4.4" height="1.5"></rect> <rect x="33.9" y="51.8" class="st5" width="4.4" height="1.5"></rect> <rect x="49.6" y="64.7" class="st5" width="3.5" height="1.5"></rect> <rect x="77.4" y="58.9" class="st5" width="3.5" height="1.5"></rect> <rect x="73.9" y="99.6" class="st5" width="3.5" height="1.5"></rect> <rect x="11.4" y="53.6" class="st5" width="4.4" height="1.5"></rect> <rect x="11.4" y="85.1" class="st5" width="4.4" height="1.5"></rect> <rect x="22.1" y="110.5" class="st5" width="4.4" height="1.5"></rect> <rect x="40.6" y="82.5" class="st5" width="4.4" height="1.5"></rect> <rect x="154.5" y="76.3" class="st5" width="4.4" height="1.5"></rect> <rect x="108" y="64.7" class="st28" width="4.4" height="1.5"></rect> <rect x="131.4" y="72.7" class="st28" width="4.4" height="1.5"></rect> <rect x="199.4" y="52" class="st5" width="4.4" height="1.5"></rect> <rect x="228.5" y="76.3" class="st5" width="4.4" height="1.5"></rect> <rect x="215.2" y="98.6" class="st5" width="4.4" height="1.5"></rect> <rect x="166.9" y="67.5" class="st5" width="4.4" height="1.5"></rect> <rect x="84.8" y="109.3" class="st5" width="4.4" height="1.5"></rect> <rect x="19.7" y="78.5" class="st5" width="4.4" height="1.5"></rect> <rect x="47.4" y="107.4" class="st5" width="4.4" height="1.5"></rect> <rect x="49.6" y="109.3" class="st5" width="4.4" height="1.5"></rect> <rect x="73" y="52.2" class="st5" width="4.4" height="1.5"></rect> <rect x="157.3" y="107.9" class="st5" width="4.4" height="1.5"></rect> <rect x="154.9" y="109.7" class="st5" width="4.4" height="1.5"></rect> <rect x="197.9" y="83" class="st5" width="4.4" height="1.5"></rect> <rect x="195.4" y="84.9" class="st5" width="4.4" height="1.5"></rect> <rect x="76.5" y="82.9" class="st5" width="4.4" height="1.5"></rect> <rect x="74" y="84.7" class="st5" width="4.4" height="1.5"></rect> <rect x="205.9" y="109.2" class="st5" width="4.4" height="1.5"></rect> <rect x="208.4" y="111" class="st5" width="4.4" height="1.5"></rect> <g> <defs> <path id="SVGID_1_" d="M186.2,176.3c-16.8-0.5-36.3-9.7-67.7,2C59.9,200.2,0.9,185.1,3.9,114.1S46.4-1.5,107.4,16.3 c44.7,13.1,50.3,44,78.7,45.2c53,2.2,73.9,37.6,59.4,73.7C231.2,171.4,208.6,177,186.2,176.3z"></path> </defs> <clipPath id="SVGID_2_"> <use xlink:href="#SVGID_1_" style="overflow:visible;"></use> </clipPath> <g class="st29"> <path class="st8" d="M63,187.1l23.2-78.7c0,0,6.7-1.4,9.7-1.3c0.9,0.1,1.7,0.4,2.4,1c2-0.7,5.2-1,10.1,0.8c0,0,6.6,8.2,6.5,16.5 c-0.1,8.2-1.1,21.3-1.1,21.3s19.9,5.5,28.4,10.1c0.8,0.4,1.7,0.7,2.6,0.9l0,0l0.1,0.9c0.8,0.7,1.2,1.3,1,1.9 c-0.1,0.4-0.4,0.7-0.8,0.9v0.2l-1.1,0.8l-3.7-0.3c-1.7,0-3.7-0.1-6.1-0.3c-11.2-1-27.3-1.3-31.5-5.1c-3.6-3.2-5.5-10.7-6.4-18.8 c-5,7.8-11.2,14.7-11.5,19c-0.3,4.9-9.9,22.1-16,29c-0.5,0.6-1,1.3-1.2,2.1c-0.2,0.7-0.4,1.2-0.4,1.2l-1.4,0.3 c-0.9-0.2-1.7-0.4-2.5-0.8C62.9,188,63,187.1,63,187.1z"></path> <path class="st7" d="M101.1,141.9c1.7,2.1,3.7,12.1,6.6,13.1s22.7,3.5,25.8,4.2c2.3,0.6,8.7,0.4,12.3,1.6 c-0.2,0.2-0.3,0.3-0.5,0.4v0.2l-1.1,0.8l-3.7-0.3c-1.7,0-3.7-0.1-6.1-0.3c-11.2-1-27.3-1.3-31.5-5.1c-2.9-2.6-4.6-7.8-5.7-13.9 C98.5,141.1,100,140.6,101.1,141.9z"></path> <path class="st7" d="M95.1,83.5c-4.2-1.2-13.7,13.8-15.2,13.3c-3.1-1-4.6-19.2-8.7-18.4c-3.6,0.6-3,23.2,6,26.7 c6.9,2.7,13.9-5.5,15.9-7.9S98.2,84.4,95.1,83.5z"></path> <path class="st7" d="M63,187.1l18.2-62c0.6-0.2,1.2-0.3,1.8-0.4c9.1-1.1,0.2,15.8-0.5,18.5c-0.7,2.8-10.6,25.3-11.2,28.9 c-0.5,2.9-5.7,12.7-7.7,16.4c-0.1-0.1-0.3-0.1-0.4-0.2C62.9,188,63,187.1,63,187.1z"></path> <path class="st7" d="M72.9,79.3c0.4-0.7,0.8-1.4,1-2.1c0-0.9-0.4-1.1-0.4-1.1s0.4-1.9-0.9-1.7c-2.1,0.3-2.4,1.1-2.7,2.9 C69.6,79,69.6,81.3,72.9,79.3z"></path> <path class="st11" d="M95.1,83.5c-3-0.8-8.7,6.5-12.2,10.7c0,3.4,1.9,6.6,4.8,8.3c2-1.6,3.7-3.3,5.3-5.3 C95,94.8,98.2,84.4,95.1,83.5z"></path> <path class="st30" d="M94.9,66.8c0,0,2.9-4.2,9.5,4.5c2.3,3,13.4,1.6,15.2,7.2c3.6,10.7-8.5,14.3-17,11.8 C94.6,88,83.1,68.4,94.9,66.8z"></path> <path class="st31" d="M92.3,97.9c0.3-2.7,0.4-10-0.9-10.5c-1.3-0.4-5.4,13.7-6.2,16.6C88,102.5,90.3,100.4,92.3,97.9z"></path> <path class="st32" d="M96.8,75.7c5.1,1.7,11.8,5.2,16.1,6.3c2.5,0.5,4.7,1.7,6.5,3.4c-2.5,5.2-10.7,6.6-16.9,4.8 C96.4,88.5,87.9,76,90.2,69.9C91.5,71.9,93.7,74.7,96.8,75.7z"></path> <path class="st30" d="M86.2,108.5c0,0,6.7-1.4,9.7-1.3c0.9,0.1,1.7,0.4,2.4,1c2-0.7,5.2-1,10.1,0.8c0,0,6.6,8.2,6.5,16.5 c-0.1,7.3-0.8,18.4-1,20.8c-2,0.5-5.3,1.2-10.3,2.2c-1.7,0.3-3.3,0.5-5,0.4c-3.1-0.1-6.2-0.4-9.3-1c-4.9-0.9-9.7-2.2-14.5-3.8 C80.5,125.6,86.2,108.5,86.2,108.5z"></path> <path class="st32" d="M86.2,108.5c0,0,3.3-0.7,6.3-1.1c-0.8,5.7-2.3,17.9-2.1,23.6c0.2,5.7-3.2,12.9-5,16.1 c-4.7-1.1-8.7-2.3-10.6-3C80.5,125.6,86.2,108.5,86.2,108.5z"></path> <path class="st25" d="M108.5,84c-4.8-2.5-12.3-2.9-16.4,0.4c-3.1,2.5-1.6,7.3-1.8,9.8c-0.3,3.5-3.2,9.4-3.9,13.5 c0,0.2-0.1,0.5-0.2,0.7c3.8,0.7,14.2,2.2,22.2,0.4c-0.6-1.4-1.1-2.8-1.4-4.2c-1.1-5.6,0.8-7.7,2.3-10.7 C110,92.5,112.5,86.1,108.5,84z"></path> <path class="st11" d="M107,95.7c-0.5,3.2-1.8,6.2-3.8,8.8c-2.2,2.7-8.6,3.8-10.2,3.2C91.4,107.2,105.8,94.6,107,95.7z"></path> <path class="st11" d="M86.4,107.7c0.6-4.2,3.6-10,3.9-13.5c0.2-2.5-1.2-7.2,1.8-9.8c1.7-1.3,3.6-2,5.7-2.3 c-1.1,1.9-3.9,7-3.7,11.5c0.2,3.8-0.7,11.3-1.3,15.7c-2.8-0.3-5.2-0.7-6.6-0.9C86.3,108.3,86.4,108,86.4,107.7z"></path> <path class="st8" d="M110,89.2c1.4-4.7-6.2-5-8.1-1.8c-2.2,3.7-6.4,11.4-9.1,11.8c-3.4,0.5-12.5-15.6-14.7-15.5 c-5.2,0.3,2.1,21.8,11.4,24C96,109.3,105.2,105.5,110,89.2z"></path> <path class="st7" d="M95.8,96.8c1.7,1.7,7.8,3.1,7.8,3.1L97.9,94C97.3,95,96.6,95.9,95.8,96.8z"></path> <path class="st25" d="M110,89.2c1.4-4.7-6.2-5-8.1-1.8c-1.2,2-3,5.2-4.8,7.7c1.6,1.6,4.8,4.5,7.7,5.3 C107.2,96.9,108.9,93.1,110,89.2z"></path> <path class="st7" d="M82.7,105.2c1.2-0.4,2.3-0.9,3.4-1.6l-6.5-5.8C80.5,100.3,81.5,102.8,82.7,105.2z"></path> <path class="st22" d="M57.7,43.8c-0.4,4.3,0.7,8.7,3.1,12.3c1.4,2,2.3,4.3,2.9,6.7c0.1,0.7,0.8,1.2,1.5,1 c2.2,0.2,19.9,1.9,20.1,1.9c0.6,0.1,1.1-0.3,1.3-0.8c0.9-2.3,2.3-4.3,4-6.1c7.3-7.6,7.1-19.8-0.5-27.1c-3.1-3-7.1-4.8-11.3-5.2 c-10.5-1.1-20,6.6-21.1,17.1C57.7,43.7,57.7,43.7,57.7,43.8z"></path> <path class="st13" d="M76.4,66.1c0.2,0,0.4-0.1,0.4-0.3l7.2-21c0.1-0.3,0-0.7-0.2-1c-0.2-0.3-0.6-0.4-0.9-0.3 c-0.4,0.1-0.9,0.1-1.3,0c-0.4-0.1-0.8-0.3-1.1-0.7c-0.5-0.6-1.2-0.9-2-0.8c-0.7,0-1.4,0.3-1.9,0.9c-0.1,0.2-0.2,0.2-0.3,0.2 c-0.1,0-0.6-0.3-0.9-0.6c-0.6-0.5-1.4-1.1-2.1-0.6c-0.1,0.1-0.4,0.2-1.5,0.2c-1.1-0.1-2,0.8-2,1.9c0,0.1,0,0.3,0,0.4L73,65.5 c0,0.2,0.2,0.4,0.5,0.3c0.2,0,0.4-0.2,0.3-0.5l-3.1-21.2c-0.1-0.6,0.3-1.2,0.9-1.3c0.1,0,0.2,0,0.2,0c0.7,0.1,1.4,0,2.1-0.3 c0.2-0.2,0.7,0.2,1.1,0.6c0.4,0.4,0.9,0.7,1.4,0.8c0.4,0,0.7-0.2,0.9-0.5c0.2-0.3,0.4-0.5,1.3-0.6c0.5-0.1,1,0.1,1.3,0.5 c0.4,0.5,0.9,0.8,1.5,0.9c0.6,0.1,1.1,0.1,1.7,0c0,0,0.1,0,0.2,0c0,0.1,0,0.1,0,0.2L76,65.6C76,65.8,76.1,66,76.4,66.1 L76.4,66.1z"></path> <path class="st33" d="M61.6,66.2c0.2-1.8,1.8-3.1,3.6-3c0,0,0,0,0,0l20.1,1.8c1.8,0.2,3.1,1.7,3,3.5c-0.2,1.8-1.7,3.1-3.5,3 h-0.2c1.6,0.9,2.2,2.8,1.3,4.4c-0.6,1.1-1.9,1.8-3.2,1.7l-2.7-0.2c1.8,0.2,3.1,1.7,3,3.5c-0.2,1.8-1.7,3.1-3.5,3l-11.6-1 c-1.8-0.2-3.1-1.7-3-3.5c0.2-1.8,1.7-3.1,3.5-3l-2.7-0.2c-1.8-0.2-3.1-1.8-2.9-3.6c0.1-1.3,1-2.4,2.2-2.8h-0.2 C62.8,69.7,61.4,68.1,61.6,66.2C61.6,66.3,61.6,66.3,61.6,66.2z"></path> <path class="st34" d="M67.6,79.7c1.9,0.6,11.2,1.2,15.1,1.4c-0.3,1.7-1.8,2.9-3.5,2.8l-11.6-1c-1.8-0.1-3.1-1.7-3-3.5 c0-0.6,0.2-1.1,0.6-1.6C65.7,78.8,66.5,79.5,67.6,79.7z"></path> <path class="st34" d="M69.2,73.5c6.4,1.1,13.2,1,15.2,1.3c0.6,0.1,1.2,0.2,1.6,0.2c-0.3,1.7-1.8,2.8-3.5,2.7l-2.7-0.2l-11.6-1 l-2.7-0.2c-1.8-0.2-3.1-1.8-3-3.6c0,0,0,0,0,0c0.1-0.7,0.3-1.3,0.8-1.9C63.7,71.5,65,72.7,69.2,73.5z"></path> <path class="st34" d="M80.3,77.5l-0.4-0.1L80.3,77.5z"></path> <path class="st7" d="M100.9,104.7c-2.6,1.2-5.8,2.4-7.7,1.9c-3.4-1-3.3-2.2-6.4-4.6c-3.1-2.3-4.8-6.7-6.7-10.4 c-1.5-3-2.2-5.6-3.5-6.6c-1.5,4.8,4.9,20.8,12.8,22.7C92.9,108.6,97,107.9,100.9,104.7z"></path> <path class="st8" d="M79.3,84.7c0.2-0.8-1-2.7-1.3-3c-0.3-0.3-0.7-0.4-1.1-0.3c0,0-1.3-1.4-2-0.4c-1.1,1.6-0.7,2.3,0.6,3.6 S78.7,87.6,79.3,84.7z"></path> <path class="st22" d="M147,161.6c-0.1,2-0.4,3.9-0.8,5.9c0.1,0.1,0.3,0.1,0.4,0.1c0.8,0.1,1.9-7.9,1.3-9.4 c-0.2-0.4-0.6-0.7-1.1-0.7C147,158.9,147,160.2,147,161.6z"></path> <path class="st30" d="M147,161.6c0.1-1.4,0-2.7-0.2-4.1c-0.5-0.1-1.1,0-1.6,0.1l-0.4,0.1c0.1,1.1,0.1,2.3,0,3.4 c0,0.5-0.3,0.9-0.7,1.2c0,0,0,0,0.1,0c0.4,0.5,0.6,1.2,0.7,1.9c0.5,1.3-0.1,2.9,1.2,3.3C146.6,165.5,146.8,163.6,147,161.6z"></path> <path class="st22" d="M62.9,190.1c-1.9-0.6-3.7-1.4-5.5-2.3c-0.1,0.1-0.2,0.3-0.2,0.4c-0.3,0.7,7.2,3.9,8.7,3.7 c0.4-0.1,0.8-0.4,0.9-0.8C65.6,190.8,64.2,190.5,62.9,190.1z"></path> <path class="st30" d="M62.9,190.1c1.3,0.4,2.6,0.7,4,0.9c0.2-0.5,0.3-1,0.3-1.6c0-0.1,0-0.3,0-0.4c-1.1-0.2-2.2-0.5-3.3-0.9 c-0.4-0.2-0.8-0.5-0.9-0.9v0c-0.6,0.2-1.3,0.3-2,0.2c-1.4,0.1-2.7-0.8-3.5,0.3C59.3,188.6,61.1,189.4,62.9,190.1z"></path> <path class="st11" d="M101.9,87.4c1-1.4,2.7-2.2,4.4-2.1c-1.1,2-4.3,7.8-5.1,9.9c-0.3,0.8-0.7,1.7-1,2.6c-1.1-0.8-2.1-1.7-3-2.6 C99,92.5,100.7,89.4,101.9,87.4z"></path> <path class="st8" d="M100.4,75.9l0.8,6.5c0.1,1.3-2.9,4.9-5.1,3.4c-0.6-0.4,0-2.3,0.5-3.7l0.9-5.5L100.4,75.9z"></path> <path class="st7" d="M97,80.7c1.6-0.5,2.8-1.8,3.2-3.5l-2.7,0.4L97,80.7z"></path> <path class="st8" d="M99.9,71.1l0.7,3c0.6,2.4-0.8,4.9-3.2,5.5c-2.1,0.6-4.3-0.6-4.9-2.7c-0.1-0.2-0.1-0.4-0.1-0.6 c-0.5-2.5,1.1-4.8,1.7-6C95.4,67.6,98.8,67.7,99.9,71.1z"></path> <path class="st8" d="M100.1,74c0.1-0.3,0.1-0.5,0.1-0.8c0-0.5,0.2-1.3,1-0.8c1.1,0.6,0.7,3.4-0.6,3.5 C99.6,76,99.9,74.7,100.1,74z"></path> <path class="st8" d="M93.6,73.6c-0.1-0.3-0.1-0.5-0.1-0.8c0-0.5-0.1-1.3-0.9-0.9c-1.1,0.6-0.9,3.3,0.3,3.5 C93.9,75.5,93.7,74.2,93.6,73.6z"></path> <path class="st22" d="M97.3,75.6c-1,0.1-2,0.1-3-0.2c0.2,0.7,0.5,1.3,1,1.7C95.9,77.6,96.8,76.9,97.3,75.6z"></path> <path class="st7" d="M97.1,78.6c-1.1,0.1-2.3-0.1-3.3-0.7c-0.6-0.5-1-1.2-1.4-1.9c0,0,0,0.1,0,0.1c0.2,2.2,2.2,3.7,4.4,3.5 c0.2,0,0.4-0.1,0.6-0.1c1.4-0.4,2.6-1.4,3-2.8C99.6,77.8,98.4,78.4,97.1,78.6z"></path> <path class="st22" d="M87.4,195.4c0,0,0.4,4.2-0.1,5.4c0.5,0.4,1.1,0.6,1.7,0.5c1.4-0.2,2.8-0.6,4.2-1c-0.6-1.6,1-5.3,0.9-6.2 L87.4,195.4z"></path> <path class="st30" d="M89,204.2c-2.5,0.4-5.1,0.7-7.6,0.8c0,0.2,0,0.4,0,0.6c0.1,1,10.5-0.1,12.1-1.3c0.4-0.4,0.7-1,0.6-1.5 C92.4,203.3,90.7,203.8,89,204.2z"></path> <path class="st30" d="M89,204.2c1.7-0.3,3.4-0.8,5.1-1.4c-0.1-0.7-0.3-1.4-0.6-2c-0.1-0.2-0.2-0.3-0.2-0.5 c-1.4,0.5-2.8,0.8-4.2,1c-0.6,0.1-1.2-0.1-1.7-0.5v0.1c-0.2,0.5-1,0.9-2.1,1.5c-1.5,1-3.6,0.8-3.8,2.6 C84,204.9,86.5,204.6,89,204.2z"></path> <path class="st35" d="M128,113c0,0-21.2,28-13.9,33.6c7.3,5.7,19.4-10.5,21.5-14.9S128,113,128,113z"></path> <path class="st31" d="M125,143.5c0,0-22.5,0.9-28.8,7.5c-6.3,6.6-16.5,42.2-14,45.2c2.5,3,8.7,2.7,12,1.3 c3.3-1.4,10.1-33.7,10.1-33.7s4.7-1.3,13.2-1.1c9.5,0.2,20.4-0.9,24.2-6.2C144.5,152.3,132,143.8,125,143.5z"></path> <path class="st36" d="M131.4,122.3c-0.8-0.9-1.9-1.4-3.1-1.4c0,0,2.7,9.8,3,12.1c0.3,1.5,0.6,3.1,0.8,4.1 c1.3-1.7,2.5-3.4,3.5-5.3c0.3-0.9,0.4-1.8,0.2-2.8C134.5,126.7,133,124.4,131.4,122.3z"></path> <path class="st22" d="M112.5,193.9c0,0,1.2,4,1,5.3c0.5,0.3,1.2,0.4,1.8,0.1c1.4-0.5,2.7-1.1,3.9-1.9c-0.9-1.4-0.1-5.4-0.4-6.3 L112.5,193.9z"></path> <path class="st30" d="M115.8,202.1c-2.4,1-4.8,1.7-7.3,2.3c0,0.2,0.1,0.4,0.1,0.6c0.3,1,10.2-2.3,11.6-3.7 c0.4-0.5,0.4-1.1,0.2-1.6C119,200.5,117.5,201.4,115.8,202.1z"></path> <path class="st30" d="M115.8,202.1c1.6-0.7,3.2-1.5,4.6-2.5c-0.2-0.7-0.6-1.3-1-1.8c-0.1-0.1-0.2-0.3-0.3-0.4 c-1.2,0.8-2.5,1.4-3.9,1.9c-0.6,0.2-1.2,0.2-1.8-0.1c0,0,0,0.1,0,0.1c-0.1,0.5-0.8,1.1-1.7,1.9c-1.3,1.3-3.4,1.5-3.2,3.3 C111,203.8,113.5,203,115.8,202.1z"></path> <path class="st11" d="M110.3,151.3c-11.4,5-3.5,41.5-0.9,44.2c3.4,3.6,9.8-1.4,10.6-3.5c0.5-1.4-0.1-17.9,0.9-25.5 c0,0,15.8,13,30,6c10.5-5.2,10.3-13.9,8.9-15.8C158.5,154.9,117.9,147.9,110.3,151.3z"></path> <path class="st31" d="M114.8,185.4c0.7-6.9-1.4-17.2,1.7-21.9c3.2-4.7,5.7,1.1,12.3,2.4c6.6,1.3,8,4.1,16.2,3.6 c6.1-0.4,12-4,14.5-5.7c-1.2,2.9-3.7,6.1-8.7,8.6c-14.2,7-30-6-30-6c-1,7.6-0.4,24.2-0.9,25.5s-3,3.6-5.6,4.5 C114.3,192.8,114.5,189.1,114.8,185.4z"></path> <path class="st37" d="M127.3,114.8c0.3-4.1,8.8-6.9,15.8-8c4.3-0.7,10.1-0.4,12.8,1.1c14.6,8.3,8.9,44.1,6.6,49.8 c-2.3,5.7-16.5-0.4-22.6-2.1c-6.1-1.7-13-5.1-11.6-7.4c1.4-2.4,6.9-11.1,5-15.9S126.8,120.1,127.3,114.8z"></path> <path class="st35" d="M133.2,132.3c-1.9-4.8-6.4-12.3-5.9-17.5c0.2-2.5,3.4-4.5,7.5-6c-0.2,4.6,0.6,9.3,2.2,13.6 c1.7,4.2,4.4,13.3,2.9,20.4c-1.4,6.3-5.6,9.7-8.3,9.5c-2.6-1.4-4.1-3-3.4-4.2C129.5,145.9,135.1,137.1,133.2,132.3z"></path> <path class="st36" d="M151.1,120.3c0,0,3.7,19.4,2.8,20.2c-0.9,0.8-6.5,1.3-6.5,1.3s4.7,2.8,7.3,2.2c2.6-0.6,4-2.5,3.3-7.4 C157.1,129.3,151.1,120.3,151.1,120.3z"></path> <path class="st8" d="M128.4,135.5c-0.6-0.6-1.4-0.9-2.2-1c-0.8-0.1-1.8,0.1-2.2-0.1c-0.4-0.2-0.9-0.2-0.7,0.2 c0.3,1.2,1.4,2,2.6,1.8C127.9,136.4,128.6,135.9,128.4,135.5z"></path> <path class="st8" d="M154.6,108.7c5.7-1,16.3,19.8,11,38.9c-5.3,19.1-39.7-4.7-38-8.4c0.3-0.8,0-3.1,2.1-2.9 c7.7,0.4,24.5,7.6,25.9,6C158.3,139.5,144.2,110.5,154.6,108.7z"></path> <path class="st7" d="M154.6,108.7c-0.5,0.1-0.9,0.2-1.3,0.4c0.5,3,4.7,7.6,7,12.6c4.2,8.9,3.2,22.1,1,26.4 c-2.2,4.3-5.7,2.2-10.6,1.9s-14.7-5.1-17.5-7.6c-2.1-1.8-3.4-4.9-5-5.3c-0.2,0.7-0.4,1.4-0.5,2.1c-1.6,3.7,32.7,27.5,38,8.4 S160.3,107.7,154.6,108.7z"></path> <path class="st11" d="M111.8,143.7l14.7-0.6c0.4,0,0.6-0.4,0.6-0.7c0-0.1,0-0.1,0-0.2l-4.3-24.6c0-0.4-0.4-0.8-0.8-0.8 l-14.8,0.6c-0.4,0-0.6,0.4-0.6,0.8c0,0,0,0.1,0,0.1l4.3,24.6C111,143.4,111.4,143.7,111.8,143.7z"></path> <path class="st25" d="M111.2,143.7l14.8-0.7c0.4,0,0.6-0.4,0.6-0.7c0-0.1,0-0.1,0-0.2l-4.3-24.6c0-0.4-0.4-0.8-0.8-0.8 l-14.8,0.6c-0.4,0-0.6,0.4-0.6,0.8c0,0,0,0.1,0,0.1l4.3,24.6C110.4,143.4,110.7,143.7,111.2,143.7z"></path> <path class="st11" d="M114.1,125.8c0.1,0.6,0.6,1.1,1.2,1.2c0.6,0,0.9-0.6,0.8-1.3c-0.1-0.6-0.6-1.1-1.2-1.2 C114.3,124.6,114,125.2,114.1,125.8z"></path> <path class="st8" d="M127.6,134.9c0,0-0.7,1-2.9,1.4c-0.7,0.1-2.7-0.7-3.1,0c-0.2,0.4,0.7,0.9,1,1.5s1.6,0.8,1.8,1.1 c0.4,0.4,0.9,0.8,1.4,1c0.3,0.1,4.2,0.4,4.2-2.5C130,136.4,127.6,134.9,127.6,134.9z"></path> <path class="st36" d="M167,140.2c-0.1,0.7-0.1,1.5-0.2,2.2c-6.5,1.2-9.9,0-10.8-0.5c0.2-0.6,0.2-1.2,0.1-1.9L167,140.2z"></path> <path class="st37" d="M154.6,108c6.8-0.8,16.2,16.2,13.6,33.8c-2.4,0.1-8.2,1-12.2-0.5C156.4,135.5,144.5,109.2,154.6,108z"></path> <path class="st35" d="M154.6,108c0.4-0.1,0.8-0.1,1.2,0c-0.5,3-1.5,9.9-0.5,14.5c1.2,5.4,5,15.6,5.4,19.6 c-1.6,0-3.2-0.3-4.7-0.9C156.4,135.5,144.5,109.2,154.6,108z"></path> <path class="st30" d="M132.3,97.2c0,0-3.1-0.1-3.2-4.1c-0.1-2.6,3.4-6.8,5.1-6.9c1.7-0.1,1.2,1.4,1.6,2.1 c1.9,4.1,6.8,5.5,7.6,8.9c0.8,3.4-3.3,5.5-4.9,4.9S132.3,97.2,132.3,97.2z"></path> <path class="st8" d="M142.3,98.5l6.1,10.1c0.4,1.6-7.2,7.9-10.1,6.4c-0.9-0.4-1-2-0.7-3.8l2.1-9.8L142.3,98.5z"></path> <path class="st7" d="M139.3,103.3c1.7-0.7,3.9-1.7,3.9-1.7c0.2,1.9-0.3,3.9-1.5,5.4c-1,1.3-2.3,2.2-3.8,2.7L139.3,103.3z"></path> <path class="st8" d="M139,95l3.8,5.6c1.1,1.9,0.5,4.4-1.4,5.6c-1.5,0.9-3.1,1.4-4.8,1.6c-1.8,0.3-3.2-1.1-3.9-3.4 c-0.7-2.5-0.9-5-0.7-7.6C132.3,93,136.2,91.5,139,95z"></path> <path class="st8" d="M139.8,97.7c0.1-0.4,0.2-0.8,0.2-1.2c0-0.8,0.3-2,1.4-1.3c1.7,0.9,1.2,5.2-0.8,5.4 C139.1,100.7,139.5,98.7,139.8,97.7z"></path> <path class="st22" d="M136.4,101c-1.1,0.6-2.3,1-3.5,1.1c0.2,0.5,0.6,0.9,1.1,0.9c1.1,0.2,2.1-0.4,2.3-1.5 C136.4,101.4,136.4,101.2,136.4,101z"></path> <path class="st7" d="M135.4,105.6c1.9-1,4.2,1.6,6.9-2.3c0.4-0.9,0.6-1.9,0.4-2.9l0.1,0.1c1.1,1.9,0.5,4.4-1.4,5.6 c-1.5,0.9-3.1,1.4-4.8,1.6c-1.1,0.2-2.2-0.3-2.8-1.2C134.2,106.5,134.8,105.9,135.4,105.6z"></path> <path class="st7" d="M45.5,90.8c4-1.1,9,12.6,9.9,12.8c0.9,0.2,9.1-13.4,13.2-11.5s-5.8,19.6-11.1,20.8 c-8.2,1.9-10.8-8.5-10.8-8.5S42,91.8,45.5,90.8z"></path> <path class="st8" d="M24,132.2c0.7-6.6,3-13.1,5.5-15.6c1.4-1.4,2.8-2.6,3.7-3.7c0.4-0.6,0.7-1.2,0.7-1.9c6,1.9,12.2,2.3,14.6,2 c1.6,10.6,2.2,21.6,1.8,26.2c-1.4,14.9-2.7,25-10.3,47.9c-0.4,1-1.6,1.5-2.6,1c-0.3-0.1-0.5-0.3-0.7-0.5 c-2.8-3.8-1.9-18.8,2.4-29.5c1.3-3.2-1.2-20.7-2-20.7c-0.4,0-3.8,20.3-6.7,29.1c-1.9,6-6.5,20.8-12.4,19.4 c-1.8-0.4,3.2-22.1,4.9-26.4C23.7,157.6,23.9,133.2,24,132.2z"></path> <path class="st7" d="M30.5,166.4c1.1-3.3,2.2-8.2,3.3-13.1c-1.7-0.4-3.4-0.4-5,0c0,0-1.6,6.6-2.5,10.8c-0.9,4.2-6,16.6-6.7,19.3 c-0.2,0.8-0.2,1.6,0.1,2.3C24.7,184.7,28.7,171.9,30.5,166.4z"></path> <path class="st7" d="M40.1,187c4.6-13.8,6.8-23,8.2-31.3c-3.8-0.5-5,6.6-5.7,9.4c-0.8,2.8-3,14.4-3.8,18.8 c-0.3,1.4-0.4,2.9-0.3,4.4C39.1,188.2,39.8,187.7,40.1,187z"></path> <path class="st30" d="M21.4,153.6c-0.6-2.3-0.4-15.7,1.1-27.4c1.1-8.2,5.7-14.6,6.5-17.5c1.7-6.7,0.8-11.6,3.2-14 c2.2-2.2,4.6-4.8,13-4.1c3,0.2,5.6,4.6,5.9,9.3c0.1,2.4-2.2,4.5-2,7.1c1.7,23.3,3.5,47.3,3.5,47.3c1.8,5.5-5.6,4.5-11.9,4.3 C33.9,158.3,22.6,158.8,21.4,153.6z"></path> <path class="st8" d="M37.7,92c0,0,3.2-1.4,5.7-0.9c2.5,0.5,4.5,4.5,4.2,5.2c-0.3,0.8-5.7,2-6.5,1.5S36,92.8,37.7,92z"></path> <path class="st7" d="M41.7,68.2c0,0,1.8-2.6,6.8-2.2c7.1,0.6,9.4,6.3,9,7c-0.4,0.7-1.4,0.1-1.4,0.1s2,4.2,1.6,6.1 c-0.4,2-2.2,1-2.2,1s-0.8,5-2.7,5.8c-1.9,0.8-2.4-0.1-2.4-0.1s-2.1,3.1-9.3,2.2c-1.7-0.2-3.3-0.7-4.8-1.4 c-0.7,0.5-1.7,0.7-2.6,0.5c-1.5-0.4-1.6-4.8-1-5.5c0,0-2.8,0.6-3-2.3c-0.2-2.9,2.1-6.6,2.1-6.6c-0.7-0.3-1.2-0.9-1.4-1.6 C30,69.9,38.3,64.6,41.7,68.2z"></path> <path class="st8" d="M39.3,85.5l-0.6,9.3c0,1.6,4,2.5,6.4,0.5c0.7-0.6-0.3-2.7-1-4.3L42.7,86L39.3,85.5z"></path> <path class="st7" d="M44.2,91c-1.8-0.7-3.2-2.2-3.8-4l2.9,0.5L44.2,91z"></path> <path class="st8" d="M40.5,78.7l-1.2,3.5c-1,2.7,0.3,5.8,3,6.9c2.5,0.9,5.3-0.1,6.3-3.3c0.9-2.9-0.7-5.8-1.2-7.2 C46.2,75.3,42.2,74.9,40.5,78.7z"></path> <path class="st8" d="M39.9,82.2c-0.1-0.3-0.1-0.6-0.1-1c0-0.6-0.1-1.5-1-1.1c-1.3,0.6-1.2,3.9,0.3,4.2 C40.2,84.5,40.1,83,39.9,82.2z"></path> <path class="st8" d="M47.6,82.5c0.1-0.3,0.2-0.6,0.2-0.9c0.1-0.6,0.3-1.5,1.2-0.9c1.2,0.8,0.7,4-0.9,4.1 C47,84.8,47.4,83.3,47.6,82.5z"></path> <path class="st22" d="M43,84.4c1.1,0.3,2.3,0.3,3.5,0.2c-0.3,0.7-0.7,1.4-1.3,1.9C44.3,86.9,43.4,86,43,84.4z"></path> <path class="st7" d="M42.8,88c1.3,0.3,2.7,0.1,3.9-0.3c0.7-0.5,1.4-1.2,1.9-2c0,0.1,0,0.1,0,0.2c-1,3.2-3.8,4.2-6.3,3.3 c-1.6-0.6-2.8-2-3.2-3.7C40,86.7,41.3,87.6,42.8,88z"></path> <path class="st38" d="M36,186.3c0.7,0,1.9,0.5,2.4,0.3c0.5-0.2,1.4-1,2.1-0.7c0.8,0.3,2.3,2.5,2.8,3.1c0.6,0.5,2.1,1.1,2.3,2.1 l0,0c0,0.5-0.5,0.9-1,0.9c0,0,0,0,0,0l-8.3-0.8c-0.7-0.1-1.3-0.7-1.3-1.4C34.9,189,35.3,186.3,36,186.3z"></path> <path class="st38" d="M17.6,184.6c0.7,0,1.9,0.5,2.4,0.3c0.5-0.2,1.3-1,2.1-0.7c0.8,0.3,2.3,2.5,2.8,3.1 c0.6,0.5,2.1,1.1,2.3,2.1l0,0c0,0.5-0.5,0.9-1,0.9c0,0,0,0,0,0l-8.3-0.8c-0.7-0.1-1.3-0.7-1.3-1.4 C16.5,187.3,16.9,184.6,17.6,184.6z"></path> <path class="st8" d="M34.7,94.5c5.6,0,5.4,18.5,9.6,19.4c3.7,0.7,21.3-9.8,24.7-6.8c3.5,3-16.6,20.4-28.7,15.8 C31.9,119.6,27.3,94.6,34.7,94.5z"></path> <path class="st7" d="M69.4,107.7c-1,0.6-2.1,1.3-3,2c-1.3,1-4.6,4.3-8.5,6.4c-3.9,2.1-11.7,5.5-15.1,4.6 c-3.4-0.9-5.9-6.9-8.1-11.6c-1.7-3.7-2.1-10.7-2.3-13.4c-4,4.9,0.5,24.4,7.8,27.2C51.7,127.2,70.3,112,69.4,107.7z"></path> <path class="st8" d="M67.7,106.8c0,0,1.7-1.2,1.8-1.8c0.1-0.6,0.5-0.7,0.7-0.2c0.1,0.4-0.7,1-0.3,1.2c0.4,0.2,2.3-0.6,3.1,0 s-3.2,3.1-4.6,2.3C67.1,107.5,67.7,106.8,67.7,106.8z"></path> </g> </g> </g> </g> </svg> 