<?xml version="1.0" encoding="UTF-8"?> <!-- Generator: Adobe Illustrator 24.2.0, SVG Export Plug-In . SVG Version: 6.00 Build 0) --> <svg xmlns="http://www.w3.org/2000/svg" xmlns:xlink="http://www.w3.org/1999/xlink" version="1.1" id="Layer_1" x="0px" y="0px" viewBox="0 0 250 200" style="enable-background:new 0 0 250 200;" xml:space="preserve"> <style type="text/css"> .st0{fill:#5A969C;} .st1{fill:#95CA59;} .st2{fill:#4F5E67;} .st3{fill:#1B81C4;} .st4{fill:#D6E9BD;} .st5{fill:#4473B9;} .st6{fill:#5FAD6E;} .st7{fill-rule:evenodd;clip-rule:evenodd;fill:#1B81C4;} .st8{fill-rule:evenodd;clip-rule:evenodd;fill:#5FAD6E;} .st9{fill-rule:evenodd;clip-rule:evenodd;fill:#95CA59;} .st10{fill:#EFE0CA;} .st11{fill:#F58457;} </style> <g id="Layer_1_1_"> <path class="st0" d="M198.1,49.3c-17-3-38.4,2.1-67.4-16.2C76.6-1.1,14.3,1.7,2.5,73.5s18.3,124.8,83.1,119.6 c47.6-3.8,59.6-33.6,88.3-28.8c53.5,8.9,81.8-22.2,75-61.4C242.1,63.6,220.7,53.4,198.1,49.3z"></path> <polygon class="st1" points="142,104.9 129.9,89.4 168.1,89.4 180.2,104.9 "></polygon> <polygon class="st2" points="129.9,89.4 117.8,104.9 117.8,153.9 142,153.9 142,104.9 "></polygon> <rect x="142" y="104.9" class="st3" width="38.2" height="49"></rect> <rect x="151.3" y="112.1" class="st4" width="2.8" height="2.4"></rect> <rect x="151.3" y="119.1" class="st4" width="2.8" height="2.4"></rect> <rect x="159.7" y="112.1" class="st4" width="2.8" height="2.4"></rect> <rect x="159.7" y="119.1" class="st4" width="2.8" height="2.4"></rect> <rect x="168.1" y="112.1" class="st4" width="2.8" height="2.4"></rect> <rect x="168.1" y="119.1" class="st4" width="2.8" height="2.4"></rect> <rect x="151.3" y="126.2" class="st4" width="2.8" height="2.4"></rect> <rect x="159.7" y="126.2" class="st4" width="2.8" height="2.4"></rect> <rect x="168.1" y="126.2" class="st4" width="2.8" height="2.4"></rect> <rect x="124.3" y="112.1" class="st5" width="2.8" height="2.4"></rect> <rect x="124.3" y="119.1" class="st5" width="2.8" height="2.4"></rect> <rect x="132.7" y="112.1" class="st5" width="2.8" height="2.4"></rect> <rect x="132.7" y="119.1" class="st5" width="2.8" height="2.4"></rect> <rect x="124.3" y="126.2" class="st5" width="2.8" height="2.4"></rect> <rect x="132.7" y="126.2" class="st5" width="2.8" height="2.4"></rect> <path class="st1" d="M180.2,138.2c-16.5-6.5-23.8,5.2-31.5,7.5c-11.1,3.3-12.8-1.3-26.6,0.7c-10.7,1.5-13.6,9.6-23.1,7.7 c-9.9-1.9-23.1-6.3-37.1,1c-15.4,8-11.5,33.2-11.5,33.2l25.5,7.1h104.3V138.2z"></path> <path class="st6" d="M79.8,195.3v-40.1c0,0,12.3-6.6,27.7,1.9c21.2,11.7,20.1,6.5,43.5,6.5c16.5,0,44.2,31.7,44.2,31.7H79.8z"></path> <polygon class="st7" points="204.4,138.2 180.2,138.2 180.2,147 204.4,147 204.4,138.2 "></polygon> <polygon class="st8" points="204.4,138.2 180.2,138.2 191,127.7 215.2,127.7 204.4,138.2 "></polygon> <polygon class="st7" points="193.6,157.5 169.5,157.5 169.5,195.3 193.6,195.3 193.6,157.5 "></polygon> <polygon class="st8" points="193.6,157.5 169.5,157.5 180.2,147 204.4,147 193.6,157.5 "></polygon> <polygon class="st9" points="215.2,127.7 225.9,138.2 204.4,138.2 215.2,127.7 "></polygon> <polygon class="st9" points="236.5,157.5 226.1,147.1 226.1,138.1 204.6,138.1 204.6,147.2 193.6,157.5 193.6,195.4 204.6,195.4 204.6,195.4 226,195.4 226,195.4 236.5,195.4 "></polygon> <rect x="209.4" y="145.2" class="st6" width="2.3" height="4.5"></rect> <rect x="218.6" y="145.2" class="st6" width="2.3" height="4.5"></rect> <rect x="209.4" y="153.1" class="st6" width="2.3" height="4.5"></rect> <rect x="218.6" y="153.1" class="st6" width="2.3" height="4.5"></rect> <rect x="209.4" y="161" class="st6" width="2.3" height="4.5"></rect> <rect x="218.6" y="161" class="st6" width="2.3" height="4.5"></rect> <rect x="209.4" y="168.9" class="st6" width="2.3" height="4.5"></rect> <rect x="218.6" y="168.9" class="st6" width="2.3" height="4.5"></rect> <rect x="209.4" y="176.8" class="st6" width="2.3" height="4.5"></rect> <rect x="218.6" y="176.8" class="st6" width="2.3" height="4.5"></rect> <rect x="209.4" y="184.6" class="st6" width="2.3" height="4.5"></rect> <rect x="218.6" y="184.6" class="st6" width="2.3" height="4.5"></rect> <rect x="200.2" y="161" class="st6" width="2.3" height="4.5"></rect> <rect x="200.2" y="168.9" class="st6" width="2.3" height="4.5"></rect> <rect x="200.2" y="176.8" class="st6" width="2.3" height="4.5"></rect> <rect x="200.2" y="184.6" class="st6" width="2.3" height="4.5"></rect> <rect x="227.8" y="161" class="st6" width="2.3" height="4.5"></rect> <rect x="227.8" y="168.9" class="st6" width="2.3" height="4.5"></rect> <rect x="227.8" y="176.8" class="st6" width="2.3" height="4.5"></rect> <rect x="227.8" y="184.6" class="st6" width="2.3" height="4.5"></rect> <path class="st2" d="M95,195.3h45.6c-0.6-4-4.8-7.1-10.1-7.1c-1.6,0-3.1,0.3-4.6,0.9c0-0.2,0-0.4,0-0.7c0-7.1-7.2-12.9-16.2-12.9 c-1.6,0-3.3,0.2-4.8,0.6c-0.4-4.1-4.7-7.4-10.1-7.4L95,195.3z"></path> <polygon class="st5" points="70.9,57.9 70.9,51.7 40.1,51.7 40.1,57.9 38.2,57.9 38.2,194.8 70.8,194.8 70.8,57.9 "></polygon> <polygon class="st6" points="68.9,57.9 40.1,57.9 38.2,57.9 38.2,194.8 70.8,194.8 70.8,57.9 "></polygon> <rect x="21.1" y="51.7" class="st1" width="36.9" height="143.1"></rect> <rect x="21.1" y="51.7" class="st1" width="36.9" height="6.2"></rect> <rect x="28" y="66.6" class="st10" width="3.4" height="6.4"></rect> <rect x="34.6" y="66.6" class="st10" width="3.4" height="6.4"></rect> <rect x="41.1" y="66.6" class="st10" width="3.4" height="6.4"></rect> <rect x="47.7" y="66.6" class="st10" width="3.4" height="6.4"></rect> <rect x="28" y="77.5" class="st10" width="3.4" height="6.4"></rect> <rect x="34.6" y="77.5" class="st10" width="3.4" height="6.4"></rect> <rect x="41.1" y="77.5" class="st10" width="3.4" height="6.4"></rect> <rect x="47.7" y="77.5" class="st10" width="3.4" height="6.4"></rect> <rect x="28" y="88.5" class="st10" width="3.4" height="6.4"></rect> <rect x="34.6" y="88.5" class="st10" width="3.4" height="6.4"></rect> <rect x="41.1" y="88.5" class="st10" width="3.4" height="6.4"></rect> <rect x="47.7" y="88.5" class="st10" width="3.4" height="6.4"></rect> <rect x="28" y="99.5" class="st10" width="3.4" height="6.4"></rect> <rect x="34.6" y="99.5" class="st10" width="3.4" height="6.4"></rect> <rect x="41.1" y="99.5" class="st10" width="3.4" height="6.4"></rect> <rect x="47.7" y="99.5" class="st10" width="3.4" height="6.4"></rect> <polygon class="st6" points="66.9,195.2 38.8,195.2 38.8,107.3 66.9,100.3 "></polygon> <rect x="67" y="100.3" class="st4" width="28" height="94.9"></rect> <rect x="38.8" y="107.3" class="st4" width="28" height="1.2"></rect> <rect x="38.8" y="114.6" class="st4" width="28" height="1.2"></rect> <rect x="38.8" y="121.9" class="st4" width="28" height="1.2"></rect> <rect x="38.8" y="129.2" class="st4" width="28" height="1.2"></rect> <rect x="38.8" y="136.5" class="st4" width="28" height="1.2"></rect> <rect x="38.8" y="143.8" class="st4" width="28" height="1.2"></rect> <rect x="38.8" y="151" class="st4" width="28" height="1.2"></rect> <rect x="38.8" y="158.3" class="st4" width="28" height="1.2"></rect> <rect x="38.8" y="165.6" class="st4" width="28" height="1.2"></rect> <rect x="38.8" y="172.9" class="st4" width="28" height="1.2"></rect> <rect x="38.8" y="180.2" class="st4" width="28" height="1.2"></rect> <rect x="38.8" y="187.5" class="st4" width="28" height="1.2"></rect> <rect x="66.9" y="107.3" class="st1" width="28" height="1.2"></rect> <rect x="66.9" y="114.6" class="st1" width="28" height="1.2"></rect> <rect x="66.9" y="121.9" class="st1" width="28" height="1.2"></rect> <rect x="66.9" y="129.2" class="st1" width="28" height="1.2"></rect> <rect x="66.9" y="136.5" class="st1" width="28" height="1.2"></rect> <rect x="66.9" y="143.8" class="st1" width="28" height="1.2"></rect> <rect x="66.9" y="151" class="st1" width="28" height="1.2"></rect> <rect x="66.9" y="158.3" class="st1" width="28" height="1.2"></rect> <rect x="66.9" y="165.6" class="st1" width="28" height="1.2"></rect> <rect x="66.9" y="172.9" class="st1" width="28" height="1.2"></rect> <rect x="66.9" y="180.2" class="st1" width="28" height="1.2"></rect> <rect x="66.9" y="187.5" class="st1" width="28" height="1.2"></rect> <path class="st11" d="M125.3,14.2c-15.4,0-27.9,12.5-27.9,27.9c0,15.4,12.5,27.9,27.9,27.9s27.9-12.5,27.9-27.9 C153.2,26.8,140.7,14.3,125.3,14.2C125.3,14.2,125.3,14.2,125.3,14.2z M149,47.5c-3,13.1-16,21.3-29.1,18.3 c-9-2.1-16.1-9.1-18.3-18.1c-0.4-1.8-0.6-3.7-0.7-5.6c0-13.4,10.9-24.3,24.4-24.3c13.4,0,24.3,10.9,24.3,24.4 C149.6,44,149.4,45.8,149,47.5z"></path> <path class="st11" d="M164.6,42.9C164,21.1,146,4,124.2,4.6c-21.1,0.6-38,17.6-38.3,38.7c0,0.2,0,0.3,0,0.5 c0,30.6,39.4,58.5,39.4,58.5s39.3-27.9,39.3-58.5C164.6,43.5,164.6,43.2,164.6,42.9z M125.3,71.3c-16.1,0-29.2-13.1-29.2-29.2 C96.1,26,109.2,13,125.3,13c16.1,0,29.2,13.1,29.2,29.2c0,0,0,0,0,0C154.4,58.3,141.4,71.3,125.3,71.3z"></path> </g> </svg> 