<?xml version="1.0" encoding="UTF-8"?> <!-- Generator: Adobe Illustrator 24.2.0, SVG Export Plug-In . SVG Version: 6.00 Build 0) --> <svg xmlns="http://www.w3.org/2000/svg" xmlns:xlink="http://www.w3.org/1999/xlink" version="1.1" id="Layer_1" x="0px" y="0px" viewBox="0 0 250 200" style="enable-background:new 0 0 250 200;" xml:space="preserve"> <style type="text/css"> .st0{fill:#D6E9BD;} .st1{fill:#30BA9D;} .st2{fill-rule:evenodd;clip-rule:evenodd;fill:#FFFFFF;} .st3{fill:#1A82C5;} .st4{fill:#67C07E;} .st5{fill:#3CAFE1;} .st6{fill:#3092BE;} .st7{fill:#2E2E2E;} .st8{opacity:0.1;fill:#27B0E5;enable-background:new ;} .st9{fill:#EFF2F5;} .st10{fill:#27B0E5;} .st11{fill:#FAA432;} .st12{fill:none;stroke:#FFFFFF;stroke-width:1.3998;} .st13{fill:#FFFFFF;} .st14{fill:#CED5D8;} .st15{fill:#5A6374;} .st16{fill:#085346;} .st17{fill:#D6644B;} .st18{fill:#F58458;} .st19{fill:#BACBE5;} .st20{fill:#F99B1F;} .st21{fill:#01A063;} .st22{fill:#EBF4FB;} .st23{fill:#FDC013;} .st24{fill:#DCE3EA;} .st25{fill:#758088;} .st26{fill:#097363;} .st27{fill:#92C33E;} .st28{fill:#F48458;} .st29{fill:#26225C;} .st30{fill:#FFCA15;} .st31{fill:#6ABE52;} </style> <g> <g id="Layer_3"> <path class="st0" d="M186.52,11.65L32.31,52.15C22.6,54.7,15.18,62.56,13.21,72.4L0.52,135.56c-2.85,14.24,6.38,28.09,20.62,30.94 c0.23,0.05,0.46,0.09,0.68,0.13l128.4,22.2c7.9,1.37,15.99-0.94,21.97-6.28l69.01-61.48c8.71-7.77,11.26-20.34,6.26-30.89 l-30.52-64.35C211.53,14.4,198.75,8.44,186.52,11.65z"></path> <path class="st1" d="M123.19,56.76c-31.78,4.82-53.73,34.6-48.9,66.38s34.59,53.72,66.38,48.9c31.79-4.82,53.72-34.6,48.9-66.38 C184.75,73.89,154.96,51.95,123.19,56.76z"></path> <path class="st2" d="M123.99,76.88c0,0-9.93,1.52-10.53,5.22c-0.6,3.7-0.66,13.32-3.58,12.59c-2.92-0.73-5.73-1.8-7.37,0.47 c-0.28,0.38-7.75,23.85-11.11,30.92c-0.98,2.04-1.29,4.11,0.03,6.18c1.84,2.88,19.53,19.32,22.64,19.14 c3.92-0.22,6.94-8.93,11.22-14.26c13.3-16.62,18.43-8.26,33.03-4.57c6.27,1.58,14.18-1.66,16.66-8.3 c1.17-3.15,6.42-27.15-6.37-35.42c-8.73-5.65-21.22-13.47-28.27-17.85c-10.44-6.5-6.24,2.34-1.86,8.77 c4.82,7.07,0.6,8.71-5.01,7.69c-5.61-1.02-9.2-1.96-9.37-4.98C123.93,79.45,123.99,76.88,123.99,76.88L123.99,76.88z M170.64,134.31c0,0,3.91-0.82,6.33-3.22c2.42-2.4,3.58,7.41,1.58,8.45C176.56,140.59,170.64,134.31,170.64,134.31L170.64,134.31z "></path> <path class="st3" d="M135.58,55.53c-32.41-2.15-60.52,22.49-62.66,54.89c-2.14,32.4,22.48,60.51,54.89,62.66 s60.51-22.49,62.66-54.89S167.97,57.66,135.58,55.53z"></path> <path class="st4" d="M189.06,101.46l-5.52,8.79l-9.63,16.73l-4.73-11.11l-8.41,4.9l-4.83-10.06l-4.99,5.56l-2.29-0.73l-7.27-3.41 l0.95,7.87l5.57,2.63l-11.54,23.85l-4.57,2.53l-3.43-9.33l-1.66-15.42l-7.48-0.82l-2.86-5.86l4.96-11.37l6.37-1.06l3.73,2.82 l9.39-1.65l-9.79-6.25l-8.4-2.02l-0.27-2.59l8.49-4.2l-3.13-5.57l8.79-6.99l8.65,3.67l15.01-3.63c0,0,6.23-2.81,13.19-5.9 C181.18,80.73,186.63,90.64,189.06,101.46z"></path> <path class="st4" d="M97.8,66.23l-3.7,5.56l-6.53,10.23c-0.17,0.28-0.19,0.62-0.04,0.91l3.65,6.79c0.17,0.26,0.44,0.44,0.75,0.47 c0.31,0.01,0.61-0.13,0.79-0.38l3.83-5.42l6.38,8.88l-14.2,11.12l-7.64,0.22c-0.36,0.01-0.67,0.22-0.82,0.55l-1.93,4.54 c-0.12,0.28-0.09,0.61,0.08,0.87l4.66,6.8l-7.95-4.3l-2.15-2.98C74.26,92.47,83.37,76.38,97.8,66.23z"></path> <path class="st4" d="M91.43,137.95l-4.54-10.46l6.21-11.88l15.01,15.51l-15.24,26.73l-2.34-6.44l0.97-13.03 C91.51,138.23,91.49,138.09,91.43,137.95z"></path> <path class="st4" d="M108.55,83.4l-5.71-14.28c9.9-4.25,16.41-4.93,18.9-5.01l-3.67,12.59L108.55,83.4z"></path> <path class="st5" d="M105.44,176.33c-0.67-0.02-1.35-0.07-2.01-0.14l0.09-0.84c1.1,0.12,2.21,0.17,3.32,0.16v0.84 C106.38,176.35,105.9,176.34,105.44,176.33z M110.26,176.13l-0.1-0.84c1.08-0.13,2.18-0.31,3.29-0.54l0.18,0.82 C112.5,175.81,111.36,176.02,110.26,176.13L110.26,176.13z M100.06,175.6c-1.11-0.27-2.2-0.61-3.26-1.02l0.31-0.78 c1.03,0.4,2.09,0.73,3.17,0.99L100.06,175.6z M116.94,174.73l-0.24-0.82c1.04-0.31,2.11-0.67,3.17-1.07l0.3,0.79 C119.08,174.04,117.99,174.41,116.94,174.73L116.94,174.73z M93.67,173.1c-1-0.56-1.95-1.19-2.86-1.89l0.51-0.67 c0.88,0.67,1.8,1.28,2.77,1.82L93.67,173.1z M123.3,172.34l-0.35-0.77c1-0.45,2.01-0.95,3.01-1.47l0.41,0.75 C125.34,171.37,124.3,171.87,123.3,172.34z M88.23,168.97c-0.81-0.81-1.56-1.68-2.25-2.58l0.67-0.51c0.67,0.88,1.4,1.72,2.18,2.5 L88.23,168.97z M129.32,169.19l-0.43-0.73c0.95-0.56,1.9-1.16,2.86-1.78l0.47,0.71c-0.97,0.62-1.93,1.22-2.89,1.79V169.19z M134.98,165.45l-0.48-0.7c0.89-0.64,1.8-1.33,2.68-2.04l0.52,0.67c-0.91,0.72-1.82,1.41-2.72,2.06V165.45z M84.06,163.56 c-0.59-0.98-1.12-1.98-1.61-3.02l0.76-0.36c0.47,1.01,1,1.99,1.57,2.94L84.06,163.56z M140.31,161.25l-0.55-0.64 c0.84-0.72,1.69-1.47,2.52-2.23l0.57,0.62c-0.84,0.76-1.69,1.51-2.54,2.24V161.25z M81.13,157.39c-0.38-1.04-0.73-2.13-1.04-3.24 l0.82-0.23c0.31,1.09,0.65,2.16,1.02,3.18L81.13,157.39z M145.31,156.66l-0.6-0.62c0.79-0.78,1.58-1.58,2.36-2.4l0.61,0.58 c-0.77,0.82-1.57,1.63-2.37,2.42L145.31,156.66z M79.3,150.82c-0.22-1.09-0.41-2.21-0.57-3.35l0.82-0.12 c0.16,1.12,0.34,2.23,0.56,3.3L79.3,150.82z M150.01,151.75l-0.63-0.57c0.74-0.82,1.49-1.68,2.21-2.53l0.64,0.54 C151.49,150.05,150.74,150.91,150.01,151.75z M78.36,144.09c-0.07-0.84-0.12-1.71-0.16-2.57l0.84-0.04 c0.04,0.85,0.09,1.71,0.16,2.53L78.36,144.09z M154.37,146.57l-0.66-0.53c0.69-0.87,1.38-1.76,2.06-2.66l0.67,0.51 C155.76,144.79,155.06,145.7,154.37,146.57L154.37,146.57z M158.45,141.15l-0.69-0.49c0.64-0.91,1.29-1.84,1.91-2.77l0.7,0.47 c-0.64,0.92-1.29,1.88-1.94,2.79L158.45,141.15z M162.22,135.53l-0.71-0.45c0.6-0.94,1.19-1.91,1.76-2.86l0.73,0.43 c-0.59,0.96-1.19,1.93-1.79,2.88H162.22z M165.7,129.71l-0.74-0.41c0.37-0.65,0.74-1.32,1.1-1.99l0.51-0.96l0.75,0.41l-0.52,0.97 c-0.38,0.65-0.75,1.33-1.12,1.98H165.7z M168.87,123.73l-0.76-0.38c0.5-1,0.99-2.04,1.47-3.03l0.76,0.36 c-0.49,1.02-0.98,2.04-1.49,3.05H168.87z M171.73,117.61l-0.78-0.33c0.45-1.03,0.89-2.07,1.31-3.1l0.78,0.31 c-0.42,1.02-0.86,2.07-1.31,3.11V117.61z M174.27,111.33l-0.79-0.3c0.41-1.05,0.78-2.12,1.13-3.17l0.82,0.27 c-0.38,1.04-0.76,2.11-1.16,3.18V111.33z M176.47,104.92l-0.82-0.25c0.33-1.07,0.65-2.15,0.95-3.22l0.82,0.22 c-0.29,1.06-0.62,2.15-0.95,3.24V104.92z M178.29,98.39l-0.82-0.2c0.27-1.09,0.52-2.2,0.75-3.26l0.82,0.18 c-0.22,1.06-0.46,2.17-0.75,3.27V98.39z M179.7,91.76l-0.82-0.15c0.2-1.11,0.38-2.22,0.53-3.32l0.82,0.12 c-0.16,1.09-0.33,2.22-0.53,3.33V91.76z M180.65,85.04l-0.84-0.09c0.12-1.12,0.21-2.24,0.29-3.35l0.84,0.05 c-0.07,1.1-0.17,2.24-0.29,3.37V85.04z M180.24,78.25c0.02-1.13,0.02-2.26,0-3.35l0.84-0.02c0.02,1.11,0.03,2.26,0,3.4 L180.24,78.25z M180.07,71.54c-0.09-1.13-0.2-2.25-0.34-3.33l0.84-0.11c0.14,1.1,0.26,2.24,0.35,3.38L180.07,71.54z M179.18,64.89 c-0.22-1.11-0.47-2.21-0.76-3.26l0.82-0.22c0.29,1.07,0.54,2.19,0.77,3.32L179.18,64.89z M114.8,58.84l-0.59-0.6 c0.82-0.79,1.63-1.58,2.47-2.33l0.57,0.62C116.43,57.27,115.6,58.07,114.8,58.84z M177.44,58.43c-0.38-1.07-0.82-2.11-1.25-3.09 l0.77-0.35c0.46,1.01,0.89,2.07,1.28,3.16L177.44,58.43z M119.77,54.31l-0.54-0.64c0.87-0.73,1.75-1.46,2.63-2.14l0.52,0.67 C121.51,52.87,120.63,53.58,119.77,54.31z M174.66,52.38c-0.56-0.96-1.17-1.89-1.83-2.78l0.67-0.51c0.68,0.92,1.31,1.87,1.89,2.86 L174.66,52.38z M125.06,50.18l-0.49-0.68c0.93-0.67,1.87-1.31,2.8-1.92l0.46,0.69C126.91,48.88,125.98,49.52,125.06,50.18 L125.06,50.18z M130.69,46.5l-0.41-0.73c0.99-0.58,1.99-1.13,2.98-1.63l0.39,0.75C132.65,45.39,131.65,45.94,130.69,46.5 L130.69,46.5z M170.68,47.07c-0.76-0.8-1.58-1.54-2.45-2.23l0.51-0.64c0.9,0.71,1.75,1.48,2.54,2.31L170.68,47.07z M136.65,43.43 l-0.34-0.77c1.05-0.47,2.11-0.9,3.15-1.29l0.29,0.79C138.72,42.56,137.68,42.97,136.65,43.43L136.65,43.43z M165.49,42.97 c-0.22-0.13-0.45-0.26-0.68-0.38c-0.74-0.4-1.51-0.77-2.29-1.09l0.32-0.78c0.81,0.33,1.6,0.71,2.38,1.13 c0.24,0.13,0.47,0.26,0.71,0.41L165.49,42.97z M142.92,41.12l-0.23-0.82c1.11-0.32,2.22-0.59,3.31-0.82l0.16,0.82 C145.11,40.55,144.01,40.81,142.92,41.12L142.92,41.12z M159.37,40.46c-1.07-0.28-2.16-0.48-3.26-0.61l0.1-0.84 c1.14,0.14,2.26,0.35,3.37,0.63L159.37,40.46z M149.46,39.82l-0.09-0.84c1.13-0.12,2.27-0.18,3.41-0.18v0.84 C151.68,39.65,150.56,39.71,149.46,39.82L149.46,39.82z"></path> <path class="st5" d="M165.54,157.24l0.02-0.84c1.13,0.02,2.26,0.02,3.35,0l0.02,0.84C167.83,157.24,166.69,157.24,165.54,157.24z M162.15,157.1c-1.11-0.07-2.25-0.17-3.38-0.29l0.09-0.84c1.12,0.11,2.25,0.21,3.35,0.28L162.15,157.1z M172.34,157.07l-0.07-0.84 c1.13-0.09,2.25-0.2,3.33-0.34l0.11,0.84c-1.1,0.11-2.24,0.25-3.38,0.33V157.07z M155.41,156.4c-1.1-0.16-2.23-0.34-3.35-0.54 l0.15-0.82c1.11,0.2,2.22,0.38,3.32,0.53L155.41,156.4z M148.73,155.2c-1.09-0.23-2.2-0.49-3.3-0.76l0.2-0.82 c1.09,0.27,2.2,0.52,3.26,0.75L148.73,155.2z M179.07,156.16l-0.16-0.82c1.11-0.22,2.21-0.47,3.26-0.76l0.22,0.82 C181.32,155.68,180.21,155.94,179.07,156.16L179.07,156.16z M142.15,153.57c-1.07-0.3-2.17-0.62-3.26-0.96l0.25-0.82 c1.07,0.33,2.16,0.66,3.23,0.95L142.15,153.57z M185.64,154.39l-0.28-0.8c1.07-0.38,2.11-0.82,3.1-1.25l0.35,0.77 C187.8,153.57,186.74,154,185.64,154.39z M135.68,151.56c-1.06-0.36-2.13-0.75-3.19-1.14l0.3-0.79c1.05,0.41,2.11,0.78,3.17,1.13 L135.68,151.56z M191.84,151.53l-0.41-0.73c0.96-0.56,1.88-1.17,2.77-1.83l0.51,0.68C193.79,150.32,192.83,150.95,191.84,151.53z M129.33,149.19c-1.04-0.41-2.09-0.87-3.13-1.31l0.34-0.78c1.02,0.45,2.07,0.89,3.1,1.31L129.33,149.19z M123.12,146.48 c-1.02-0.47-2.04-0.97-3.05-1.47l0.38-0.76c1,0.5,2.02,0.99,3.03,1.47L123.12,146.48z M197.31,147.45l-0.58-0.61 c0.8-0.77,1.54-1.58,2.23-2.45l0.66,0.53C198.9,145.81,198.13,146.66,197.31,147.45z M117.06,143.47l-0.97-0.51 c-0.67-0.36-1.34-0.73-2-1.11l0.41-0.73c0.66,0.37,1.33,0.74,1.99,1.1l0.96,0.52L117.06,143.47z M111.16,140.15 c-0.97-0.58-1.94-1.18-2.89-1.78l0.45-0.71c0.94,0.59,1.9,1.19,2.86,1.76L111.16,140.15z M201.55,142.08l-0.73-0.43 c0.13-0.22,0.26-0.45,0.38-0.68c0.4-0.74,0.76-1.51,1.09-2.29l0.78,0.32c-0.33,0.81-0.71,1.6-1.12,2.38 c-0.13,0.22-0.26,0.46-0.4,0.69L201.55,142.08z M105.43,136.51c-0.93-0.63-1.87-1.27-2.79-1.92l0.49-0.69 c0.91,0.64,1.84,1.29,2.77,1.91L105.43,136.51z M99.91,132.59c-0.91-0.68-1.81-1.38-2.68-2.07l0.53-0.66 c0.87,0.69,1.76,1.39,2.66,2.06L99.91,132.59z M204.15,135.73l-0.82-0.21c0.27-1.07,0.48-2.16,0.61-3.26l0.84,0.1 C204.64,133.49,204.43,134.62,204.15,135.73L204.15,135.73z M94.61,128.38c-0.87-0.73-1.73-1.48-2.56-2.23l0.56-0.63 c0.82,0.74,1.68,1.49,2.54,2.21L94.61,128.38z M204.14,128.95c0-1.11-0.06-2.22-0.18-3.32l0.84-0.09 c0.12,1.13,0.18,2.28,0.18,3.42L204.14,128.95z M89.56,123.84c-0.82-0.78-1.63-1.58-2.41-2.38l0.6-0.59 c0.78,0.79,1.58,1.58,2.4,2.36L89.56,123.84z M84.81,119c-0.77-0.84-1.53-1.69-2.25-2.54l0.64-0.55c0.72,0.84,1.47,1.69,2.23,2.52 L84.81,119z M203.47,122.32c-0.22-1.07-0.48-2.16-0.82-3.24l0.82-0.23c0.32,1.11,0.59,2.22,0.82,3.31L203.47,122.32z M80.41,113.84c-0.71-0.89-1.4-1.8-2.04-2.71l0.68-0.49c0.65,0.89,1.33,1.79,2.04,2.68L80.41,113.84z M201.62,115.88 c-0.38-1.02-0.82-2.07-1.27-3.1l0.77-0.34c0.47,1.05,0.9,2.11,1.29,3.15L201.62,115.88z M76.43,108.34 c-0.63-0.95-1.22-1.92-1.8-2.88l0.73-0.41c0.56,0.94,1.16,1.9,1.78,2.86L76.43,108.34z M198.91,109.77 c-0.5-0.98-1.05-1.96-1.63-2.94l0.73-0.41c0.58,0.99,1.13,1.99,1.63,2.98L198.91,109.77z M72.96,102.5 c-0.53-1.02-1.04-2.04-1.49-3.05l0.77-0.35c0.45,1,0.95,2.01,1.47,3.01L72.96,102.5z M195.52,103.98c-0.6-0.92-1.22-1.85-1.9-2.77 l0.69-0.49c0.67,0.93,1.31,1.87,1.92,2.8L195.52,103.98z M70.16,96.31c-0.41-1.08-0.78-2.16-1.09-3.22l0.82-0.24 c0.31,1.04,0.67,2.11,1.07,3.17L70.16,96.31z M191.61,98.53c-0.68-0.87-1.39-1.74-2.12-2.6l0.64-0.55 c0.73,0.87,1.46,1.75,2.14,2.63L191.61,98.53z M68.23,89.78c-0.24-1.13-0.41-2.27-0.56-3.37l0.84-0.1 c0.12,1.08,0.31,2.18,0.54,3.29L68.23,89.78z M187.27,93.4c-0.75-0.82-1.52-1.63-2.31-2.45l0.6-0.59 c0.79,0.82,1.58,1.63,2.33,2.45L187.27,93.4z M67.45,83c0-0.47,0-0.95,0-1.42c0.02-0.67,0.07-1.35,0.14-2l0.84,0.09 c-0.07,0.64-0.11,1.29-0.14,1.95c0,0.45,0,0.91,0,1.37L67.45,83z M69.01,76.4l-0.82-0.2c0.27-1.11,0.61-2.2,1.02-3.26l0.79,0.31 C69.6,74.27,69.27,75.32,69.01,76.4L69.01,76.4z M71.42,70.23l-0.73-0.41c0.56-0.99,1.19-1.95,1.89-2.86l0.67,0.51 C72.58,68.36,71.97,69.28,71.42,70.23L71.42,70.23z M75.44,64.98l-0.6-0.6c0.81-0.81,1.67-1.56,2.58-2.26l0.51,0.67 C77.06,63.48,76.22,64.2,75.44,64.98L75.44,64.98z M80.68,60.93l-0.44-0.73c0.95-0.57,1.97-1.11,3.02-1.61l0.36,0.77 C82.62,59.83,81.64,60.35,80.68,60.93z M86.7,58.07l-0.29-0.82c1.04-0.38,2.13-0.73,3.24-1.04l0.23,0.82 C88.79,57.36,87.72,57.71,86.7,58.07z M93.14,56.27l-0.17-0.82c1.09-0.22,2.21-0.41,3.35-0.57l0.12,0.82 c-1.12,0.18-2.23,0.37-3.3,0.58V56.27z M121.01,56.65l-1.17-0.21l0.15-0.82l1.18,0.21L121.01,56.65z M99.78,55.34l-0.07-0.84 c1.11-0.09,2.24-0.16,3.39-0.19l0.02,0.84c-1.14,0.06-2.27,0.11-3.36,0.2L99.78,55.34z M116.52,55.92 c-1.12-0.15-2.24-0.29-3.34-0.41l0.09-0.84c1.11,0.11,2.24,0.25,3.37,0.41L116.52,55.92z M109.83,55.26 c-1.13-0.07-2.25-0.11-3.35-0.13v-0.84c1.11,0,2.25,0.06,3.39,0.13L109.83,55.26z"></path> <rect x="116.36" y="62.24" transform="matrix(0.8651 -0.5017 0.5017 0.8651 -15.0711 70.1184)" class="st6" width="12.9" height="1.67"></rect> <path class="st7" d="M99.81,75.67L83.08,46.8c-0.49-0.86-0.2-1.95,0.65-2.45l42.42-24.61c0.86-0.49,1.95-0.2,2.45,0.66 l16.73,28.87"></path> <rect x="90.09" y="32.44" transform="matrix(0.8651 -0.5017 0.5017 0.8651 -8.2873 63.3852)" class="st1" width="47.19" height="29.32"></rect> <path class="st5" d="M153.03,46.88l-0.98-1.69l-24.56,14.24l-0.32,0.19c0.23,0.94-0.51,1.35-1.4,1.87l-5.62,3.26 c-0.88,0.51-1.61,0.96-2.31,0.28l-0.32,0.19L92.96,79.46l0.98,1.69c0,0,2.93,0.34,4.43-0.53l18.8-10.9l14.41-8.35l18.8-10.9 C151.88,49.59,153.03,46.88,153.03,46.88z"></path> <g> <polygon class="st8" points="135.64,51.29 127.21,36.74 119.95,24.23 112.42,28.59 91.4,40.78 94.53,46.18 98.66,53.3 107.09,67.84 "></polygon> </g> <polygon class="st9" points="134.71,51.83 123.77,32.96 118.28,23.5 107.46,20.71 88.23,31.86 92.3,38.86 97.65,48.1 108.6,66.97 "></polygon> <polygon class="st10" points="111.39,27.49 118.28,23.5 107.46,20.71 "></polygon> <polygon class="st8" points="118.28,23.5 111.39,27.49 122.21,30.28 "></polygon> <rect x="97.4" y="34.66" transform="matrix(0.8651 -0.5017 0.5017 0.8651 -3.8091 55.9083)" class="st1" width="9.24" height="0.74"></rect> <rect x="98.59" y="35.43" transform="matrix(0.8651 -0.5017 0.5017 0.8651 -3.3904 58.9949)" class="st5" width="18.76" height="0.74"></rect> <rect x="99.76" y="37.45" transform="matrix(0.8651 -0.5017 0.5017 0.8651 -4.2445 59.8549)" class="st5" width="18.76" height="0.74"></rect> <rect x="100.93" y="39.46" transform="matrix(0.8651 -0.5017 0.5017 0.8651 -5.0985 60.7109)" class="st5" width="18.76" height="0.74"></rect> <rect x="102.71" y="41.87" transform="matrix(0.867 -0.4983 0.4983 0.867 -6.1354 61.4871)" class="st5" width="18.82" height="0.75"></rect> <rect x="103.27" y="43.49" transform="matrix(0.8651 -0.5017 0.5017 0.8651 -6.8061 62.4289)" class="st5" width="18.76" height="0.74"></rect> <rect x="104.44" y="45.51" transform="matrix(0.8651 -0.5017 0.5017 0.8651 -7.6581 63.2884)" class="st5" width="18.76" height="0.74"></rect> <rect x="105.61" y="47.53" transform="matrix(0.8651 -0.5017 0.5017 0.8651 -8.5136 64.1469)" class="st5" width="18.76" height="0.74"></rect> <path class="st7" d="M161.27,160.39l0.44-37.42c0.01-0.95,0.79-1.7,1.73-1.69l62.3,0.74c0.95,0.01,1.7,0.79,1.69,1.73L227,161.17 c-0.01,0.95-0.79,1.7-1.73,1.69l-62.3-0.74C162.02,162.12,161.26,161.34,161.27,160.39z"></path> <rect x="177.29" y="115.55" transform="matrix(0.0119 -0.9999 0.9999 0.0119 49.9856 334.7269)" class="st11" width="34.14" height="53.05"></rect> <line class="st12" x1="223.44" y1="137.84" x2="223.34" y2="147"></line> <line class="st12" x1="165.42" y1="140.61" x2="165.39" y2="142.85"></line> <rect x="183.21" y="116.36" transform="matrix(0.0126 -0.9999 0.9999 0.0126 52.7073 332.5378)" class="st1" width="23.03" height="46.45"></rect> <rect x="192" y="130.51" transform="matrix(0.0126 -0.9999 0.9999 0.0126 38.378 346.3187)" class="st13" width="5.09" height="46.43"></rect> <rect x="192.48" y="135.96" transform="matrix(0.0126 -0.9999 0.9999 0.0126 36.6929 344.5747)" class="st14" width="0.67" height="35.5"></rect> <rect x="180.46" y="147.82" transform="matrix(0.0126 -0.9999 0.9999 0.0126 24.9868 332.4129)" class="st11" width="0.67" height="11.48"></rect> <path class="st15" d="M172.7,154.32c-0.09,0-0.17-0.08-0.16-0.18c0,0,0-0.01,0-0.01v-1.4c-0.01-0.1,0.07-0.18,0.16-0.19 c0,0,0.01,0,0.01,0c0.04,0,0.07,0.01,0.11,0.03l1.22,0.72c0.06,0.03,0.1,0.09,0.1,0.16c0,0.07-0.04,0.13-0.11,0.16l-1.22,0.69 C172.78,154.31,172.74,154.32,172.7,154.32L172.7,154.32z M172.73,152.69c0,0.01,0,0.01,0,0.02v1.41c0,0,0,0,0,0.02h0.02 l1.22-0.69h0.02h-0.02l-1.22-0.72l0,0L172.73,152.69z"></path> <rect x="212.31" y="153.86" transform="matrix(0.0126 -0.9999 0.9999 0.0126 56.6451 365.2826)" class="st15" width="1.93" height="0.19"></rect> <rect x="212.01" y="154.05" transform="matrix(0.0126 -0.9999 0.9999 0.0126 55.9715 364.9765)" class="st15" width="1.54" height="0.19"></rect> <rect x="211.72" y="154.24" transform="matrix(0.0126 -0.9999 0.9999 0.0126 55.308 364.6765)" class="st15" width="1.15" height="0.19"></rect> <rect x="211.43" y="154.42" transform="matrix(0.0126 -0.9999 0.9999 0.0126 54.6445 364.3766)" class="st15" width="0.77" height="0.19"></rect> <path class="st15" d="M216.28,154.96l-1.76-0.02c-0.04,0-0.08-0.03-0.08-0.08c0,0,0,0,0,0v-1.75c0-0.05,0.04-0.08,0.08-0.08l0,0 h0.87c0.04,0,0.08,0.04,0.08,0.08c0,0.04-0.03,0.08-0.08,0.08c0,0,0,0,0,0h-0.79l-0.02,1.6l1.6,0.02V154 c0-0.04,0.03-0.08,0.08-0.08c0,0,0,0,0,0c0.04,0,0.08,0.03,0.08,0.08c0,0,0,0,0,0v0.87c0,0.04-0.04,0.08-0.08,0.08L216.28,154.96z "></path> <path class="st15" d="M216.3,153.68c-0.05,0-0.08-0.04-0.08-0.08v0v-0.41h-0.41c-0.04,0-0.08-0.03-0.08-0.08c0,0,0,0,0,0 c0-0.05,0.04-0.08,0.08-0.08l0,0l0,0h0.48c0.04,0,0.08,0.04,0.08,0.08v0.47c0,0.04-0.04,0.08-0.08,0.08L216.3,153.68z"></path> <path class="st15" d="M215.54,153.95c-0.02,0-0.04-0.01-0.06-0.02c-0.03-0.03-0.03-0.08,0-0.11c0,0,0,0,0,0l0.7-0.68 c0.03-0.03,0.08-0.03,0.11,0c0.03,0.03,0.03,0.08,0,0.11c0,0,0,0,0,0l-0.7,0.68C215.58,153.94,215.56,153.95,215.54,153.95z"></path> <path class="st13" d="M192.53,142.4c-0.32-0.01-0.58-0.28-0.57-0.61c0-0.02,0-0.03,0-0.05l0.08-4.82 c-0.03-0.32,0.2-0.61,0.53-0.64c0.02,0,0.03,0,0.05,0c0.13,0.01,0.26,0.05,0.37,0.11l4.15,2.45c0.3,0.13,0.44,0.49,0.3,0.79 c-0.06,0.14-0.17,0.24-0.3,0.3l-4.21,2.36c-0.11,0.07-0.24,0.1-0.37,0.1L192.53,142.4z M192.61,136.85c0,0,0,0.04,0,0.08 l-0.07,4.81c-0.01,0.02-0.01,0.05,0,0.07c0.03,0,0.05-0.01,0.07-0.03l4.2-2.36c0.02-0.01,0.05-0.03,0.07-0.05l-0.07-0.04 l-4.14-2.45C192.66,136.86,192.63,136.85,192.61,136.85L192.61,136.85z"></path> <path class="st16" d="M228.88,41.34c-4.82-4.05-25.42-5.64-30.61-15.54c-2.89-5.51-8.26,8.98-6.58,14.63 c-9.85,30.77-4.95,40.97,3.73,40.33C241.55,77.37,240.96,51.48,228.88,41.34z"></path> <path class="st17" d="M187.62,90.72c0,0,0.46,2.04-9.42,4.56c-9.87,2.52-24.97,3.74-24.97,3.74l22.23-7.89 C175.46,91.13,184.1,88.49,187.62,90.72z"></path> <path class="st17" d="M161.18,97.78c-4.65,1.33-5.98,4.24-7.62,5.49c-1.12,0.88-2.17,1.84-3.17,2.86 c0.46-2.29,1.95-2.77,2.52-3.63c0.57-0.86,0.47-0.48-1.22-0.13c-0.96,0.2-2.14,2.34-3.07,3.6c-0.82,1.09-1.44,1.34-1.44,1.34 c0.5-1.33,1.13-2.61,1.88-3.82c1.07-1.66,2.34-3.19,3.78-4.55c0.88-0.68,3.96-1.68,6.26-2.04 C161.68,96.54,164.53,96.82,161.18,97.78z"></path> <path class="st18" d="M153.09,98.96c0,0-3.3,1.93-3.79,2.58c-0.34,0.45-1.63,2.89-1.63,2.89c0.73-0.35,1.36-0.88,1.84-1.54 C150.08,101.94,153.09,98.96,153.09,98.96z"></path> <path class="st19" d="M182.11,87.72c0,0,9.17-2.04,10.1,3.48c0.53,3.13-1.22,4.79-4,5.35c-5.17,1.06-11.12,1.99-11.12,1.99 l-4.96-7.56L182.11,87.72z"></path> <path class="st19" d="M181.59,83.17l2.55-25.07c0,0-0.18-6.56,2.19-6.42c3.41,0.19,4.06,5.85,4.35,7.89 c0.6,4.13,1.47,5.77,1.41,16.19c-0.04,6.43,0.41,13.69,0,18.02c-0.27,2.99-3.19-0.33-6.22-0.61 C180.21,92.64,181.59,83.17,181.59,83.17z"></path> <polygon class="st18" points="126.59,153.37 118.21,171.53 106.6,171.79 100.73,170.6 113.36,167.6 120.12,150.74 "></polygon> <path class="st16" d="M116.95,174.38l-1.54-0.36l-0.86-1.88l-9.37,0.41l-7.54-1.4c0.08-0.3,0.26-0.57,0.51-0.76 c1.33-0.72,7.19-1.07,7.19-1.07s-0.62,1.63,0.05,1.97c0.67,0.34,7.89-0.11,9.63-0.35c2.98-0.41,4.53-1.18,4.4-0.78 C119.2,170.77,116.95,174.38,116.95,174.38z"></path> <path class="st20" d="M172.94,116.47l-27.37-0.73l-20.41,44.64l-8.44-3.34l19.9-53.71c0,0,1.58-3.39,9.84-3.39 c8.05,0,40.52-0.89,44.21,0.14C199.43,102.5,171.44,109.05,172.94,116.47z"></path> <path class="st16" d="M192.21,42.66l0.16-5.05c4.66-2.27,6.6-7.89,4.34-12.55c0-0.01-0.01-0.01-0.01-0.02l-1.54-3.17 c-2.26-4.66-7.88-6.61-12.54-4.35c-0.01,0-0.02,0.01-0.03,0.01l-2.11,1.02c-4.67,2.28-9.7,4.8-7.43,9.47 C173.05,28.04,172.46,57.37,192.21,42.66z"></path> <path class="st18" d="M177.02,24.49c0.47,0.64,0.85,1.38,1.31,2.04c3.51,5.01,8.82,7.53,12.66,6.28c1.2,2.17,2.67,4.18,4.39,5.96 c1.71,1.81,5.31,2.86,5.31,2.86c2.45,3.49,1.07,13.54-7.72,14.58c-5.31,0.62-4.2-4.95-2.36-8.42c0.91-1.71,1.71-3.64,1.22-5.6 c-0.48-1.95-2.74-4.15-4.61-2.86c-9.79,6.68-12.02-6.29-10.65-11.93C176.67,26.97,177.16,24.69,177.02,24.49z"></path> <path class="st21" d="M204.54,107.62c0,0-4.02,0.82-5.13,1.25c-1.49,0.56-5.84-0.15-5.84-0.15s-0.56-21.51-1.63-29.01 c-1.08-7.5-3-9.54-2.98-11.89c0-3.75,0.33-4.63,0.99-7.54c0.66-2.91-1.27-6.78-0.61-6.04c1.06,1.19,5.03,3.04,8.75-1.06 C198.74,52.48,204.54,107.62,204.54,107.62z"></path> <path class="st22" d="M190.3,45.53c0,0-5.46,5.5-5.24,7.31c0.22,1.81-0.33,9.39,0.91,17.48c1.25,8.09,2.27,10.09,2.45,15.99 s-1.16,7.22-0.67,14.46c0.41,5.67,1.28,10.68,1.28,10.68c1.65,0.38,3.37-0.15,4.52-1.39c1.94-2.1,1.22-21.83,0.52-26.69 s-3.57-17.59-3.4-20.98c0.17-3.38,1.27-11.47,1.87-12.53C194.06,47.2,190.73,45.8,190.3,45.53z"></path> <path class="st19" d="M190.28,45.01c0.18,0.28,0.41,0.53,0.67,0.73c0.57,0.44,1.11,0.93,1.6,1.46c0,0-1.09-0.53-1.51,0.41 c-0.51,1.16-0.82,3.78-0.82,3.78s-2.02-3.33-1.54-4.39C189.55,45.09,190.28,45.01,190.28,45.01z"></path> <polygon class="st18" points="153.58,157.34 153.17,170.05 150.58,173.1 143.68,177.08 138.56,176.15 147.59,169.43 148.25,156.09 "></polygon> <path class="st16" d="M152.78,172.84l-2.32,1.63l-0.71-0.56l-7.69,4.22c0,0-4.06,2.04-5.18,0.72c-0.37-0.41,0.09-1.82,1.39-2.78 c0.52-0.4,1.07-0.75,1.66-1.06c0,0,0.27,0.99,2.57,1.37c0.73,0.13,5.31-2.89,6.87-3.67c2.82-1.4,3.94-3.38,4.08-3.2 C153.81,170.01,152.78,172.84,152.78,172.84z"></path> <path class="st23" d="M207.76,90.31l-3.3,7.8l-5.67,0.7l-45.8,2.91c0,0-4.11-1.27-6.71,5.21c-3.72,9.22,1.14,55.36,1.14,55.36 l6.79-0.11l3.67-43.5c0,0,44.02,7.7,56.7,3.81c4.87-1.49,8.57-10.08,7.89-18.77c-0.54-6.81-5.08-13.06-5.08-13.06L207.76,90.31z"></path> <path class="st22" d="M201.53,106.68c0,0-2.13-19.18-3.33-28.29c-1.21-9.11-0.94-24.34-1.22-26.53s-1.42-5.33-1.42-5.33 s2.21-4.96,5.11-4.79c2.54,0.14,8.02,3.85,11.9,5.43c2.69,1.09,3.82,30.68,4.08,32.3c0.87,5.81,3.72,12.47,5.57,17.07 c1.47,3.67,2.61,9.12,2.61,9.12S210.15,103.93,201.53,106.68z"></path> <path class="st19" d="M200.12,40.23l-2.16,2.45c0,0-3.01,4.16-2.04,3.58c1.22-0.74,2.67,3.6,2.67,3.6l4-8.21L200.12,40.23z"></path> <path class="st18" d="M217.68,86.89c0,0,3.35,2.38-9.31,3.67c-12.66,1.29-31.54,0.36-31.54,0.36l28.95-5.48 C205.78,85.44,213.76,83.83,217.68,86.89z"></path> <path class="st18" d="M186.87,90.76c-6,0.79-8.2,3.86-10.46,5.02c-1.54,0.82-3.03,1.74-4.46,2.74c1.01-2.5,2.95-2.83,3.82-3.71 c0.87-0.88,0.66-0.47-1.49-0.34c-1.22,0.08-3.09,2.3-4.49,3.58c-1.2,1.11-2.04,1.29-2.04,1.29c0.88-1.44,1.9-2.78,3.05-4.01 c1.66-1.73,3.52-3.26,5.53-4.56c1.22-0.62,5.22-1.27,8.13-1.3C187.73,89.44,191.19,90.19,186.87,90.76z"></path> <path class="st18" d="M176.66,90.84c0,0-4.44,1.66-5.18,2.32c-0.5,0.45-2.54,3-2.54,3s1.68-0.48,2.56-1.46 C172.38,93.73,176.66,90.84,176.66,90.84z"></path> <path class="st19" d="M210.19,83.3l-4.12-27.89c0,0,1.02-5.75,2.8-7.71c2.11-2.33,3.67-0.54,3.67-0.54s7.17,2.76,7.51,24.84 c0.23,15.1,1.63,21.33-4.9,21.98c-6.07,0.62-17.05,1.17-17.05,1.17l-2.33-8.66L210.19,83.3z"></path> <rect x="135.86" y="98.39" class="st24" width="39.96" height="0.82"></rect> <path class="st9" d="M158.17,98.34c0.04,0.6-0.42,1.11-1.01,1.15h-20.49c-0.55,0-1.31-0.41-1.99-2.04l-10.13-18.5 c0-0.82,0.63-1.29,1.18-1.15l21.02,0.65c0.56,0.13,1.01,0.56,1.33,1.4L158.17,98.34z"></path> <path class="st25" d="M155.7,99.21h20.22c-1.03,0.45-2.14,0.67-3.26,0.63h-33.69c-1.12,0.04-2.24-0.18-3.26-0.63H155.7z"></path> <polygon class="st13" points="67.27,119.19 66.38,123.86 59.48,117.44 65.74,118.6 "></polygon> <polygon class="st17" points="53.23,128.87 60.18,130.88 60.07,120.73 55.8,122.42 "></polygon> <path class="st18" d="M47.17,141.76c0,0.18-1.34,12.31-1.82,17.35s-2.67,11.55-2.69,11.61s-4.2,3.09-3.8,3.51 c0.41,0.42,6.99-0.24,7.16-0.41s2.67-4.56,2.67-4.56s3.32-25.94,2.45-28.93C50.26,137.33,47.03,137.62,47.17,141.76z"></path> <path class="st18" d="M68.85,174.83c0,0,15.8,0.11,15.28-4.85c-0.51-4.95-9.54-11.1-9.54-11.1l-10.65,10.44L68.85,174.83z"></path> <path class="st17" d="M74.23,166.6c0,0-6.77-4.03,4.4,2.19c-3.26,8.2-20.28,6.27-18.02,5.57c-3.62-1.51,5.64-6.71,5.64-6.71 L74.23,166.6z"></path> <path class="st26" d="M61.45,170.83c-0.09,0-14.16,0.99-15.37-2.8s1.22-9.86,1.22-9.86l1.74-1.6l-0.5-3.04 c-0.29-0.13-0.45-0.43-0.41-0.74c0.09-0.52,1.01-8.89-0.33-12.75c-0.46-1.31,1.02-9.45,2.98-11.52c3.78-3.99,9.72-2.09,9.72-2.09 s1.41,0.27,3.04,2.13c-0.82,8.27,1.4,25.52,1.4,25.52s9.18,2.17,10.81,5.28c1.63,3.11,2.13,7.21,1.15,7.67 c-0.99,0.46-3.1,0.25-3.08,0.61s3.34,3.3-0.3,4.19c-3.64,0.89-7.45-0.72-7.45-0.72L61.45,170.83z"></path> <path class="st17" d="M52.58,174.23c0,0,10.43,1.06,11.65,0.26c1.22-0.8-0.78-3.32-0.78-3.32l-11.09-0.94L52.58,174.23z"></path> <path class="st27" d="M60.18,152.34c0,0-6.14,3.86-11.64,1.2c-0.49,2.17-1.22,4.64-1.22,4.64s9.39,2.29,13.06-2.64 C60.76,153.26,60.18,152.34,60.18,152.34z"></path> <path class="st18" d="M59.27,133.66c0.03-0.09,1.38-4.66,4.28-5.09c0,0,3.47,4.61,1.73,9.44c0.31,5.54-0.95,16.04-0.82,18.86 s0.79,17.19,1.47,17.88c0.67,0.69,2.04,3.65,1.69,4.28c-0.35,0.63-1.4-2.04-1.55-1.86c-0.15,0.18,0.13,2.42-0.35,2.45 c-0.48,0.03-0.89-2.45-1.1-2.37c-0.22,0.08,0.16,2.9-0.33,2.93c-0.49,0.03-0.67-3.36-0.67-3.36s-0.33,2.93-0.82,2.96 c-0.55,0.03-0.19-3.39-0.19-3.39s-0.71,2.93-1.32,2.5c-0.41-0.48,0.7-4.9,0.7-4.9s-2.86-17.52-2-20.32 C59.75,146.52,58.91,134.66,59.27,133.66z"></path> <path class="st16" d="M50.46,170.71c0-0.09-2.35-4.69-4.04-2.82c-1.69,1.87-0.9,10.81-0.49,10.94c0.4,0.13,1.55-0.45,1.55-0.45 L50.46,170.71z"></path> <path class="st16" d="M50.3,170.38c0,0-3.05,7.46-3.84,8.31c0.07-2.55,3.29-8.57,2.07-10.67C49.3,168.66,49.9,169.47,50.3,170.38z "></path> <path class="st16" d="M52.91,169.93c0,0-1.53-2.56-2.62-2.02s-3.9,11.15-3.32,11.71c0.58,0.56,4.63-3.51,5.31-4.94 C52.95,173.25,52.91,169.93,52.91,169.93z"></path> <path class="st17" d="M56.61,124.78c-3.37-0.21-6.47-1.93-8.42-4.68c-0.87-1.19-1.33-2.69-1.94-3.95c0.03,0.78,0.07,1.74,0.1,2.69 c0.02,1.22,0.07,2.42,0.04,3.62c-0.07,2.63-1.47,4.53-3.49,6.04c-0.17,0.1-0.34,0.19-0.53,0.26c-0.03-0.22-0.04-0.45-0.04-0.67 c0.13-2.67-0.53-5.2-1.26-7.72c-0.69-2.38-1.4-4.74-1.25-7.26s1.05-4.44,3.37-5.57c1.75-0.85,2.86-0.62,4.49,0.91 c1.15-1.48,2.63-2.68,4.32-3.5c0.47-0.22,0.93-0.48,1.39-0.72l2.4-0.59c0.25,0.06,0.51,0.11,0.76,0.13c3.67,0,6.8,1.22,8.98,4.28 c1.46,2.04,1.78,4.29,0.6,6.6c-0.25,0.35-0.55,0.67-0.9,0.93c-0.06-0.58-0.12-1.17-0.19-1.75c-0.11-1.39-0.57-2.73-1.34-3.89 c-0.79,3.19-3.3,4.49-5.75,5.83c0.56,1.87,0.88,3.71,0.47,5.62c-0.11-0.08-0.18-0.2-0.21-0.33c-0.36-1.2-0.67-2.42-1.11-3.58 c-0.23-0.74-0.9-1.26-1.67-1.29c-1.33,0.03-2.46,0.99-2.7,2.3c-0.29,1.32,0.47,2.63,1.76,3.04c0.66,0.19,1.35,0.25,2.18,0.41 c0.13,0.82,0.29,1.75,0.44,2.68L56.61,124.78z"></path> <path class="st28" d="M57.11,124.59l-0.44-2.68c-0.82-0.15-1.53-0.21-2.18-0.41c-1.29-0.4-2.05-1.72-1.76-3.04 c0.24-1.31,1.37-2.27,2.7-2.3c0.77,0.03,1.44,0.55,1.67,1.29c0.45,1.16,0.75,2.38,1.11,3.58c0.03,0.13,0.11,0.25,0.21,0.33 c0.41-1.9,0.09-3.75-0.47-5.62c2.45-1.36,4.96-2.64,5.75-5.83c0.77,1.16,1.23,2.5,1.34,3.89c0.07,0.59,0.13,1.17,0.19,1.75 c0.32,0.2,0.62,0.53,0.96,0.57c0.61,0,1.1,0.49,1.1,1.09c0,0.04,0,0.09-0.01,0.13c0,0.56,0,1.11,0,1.82L62.93,119 c0.3,1.8,2.24,3.19,3.96,2.65c-0.1,0.74-0.26,1.47-0.49,2.19c-0.76,1.8-3.41,1.09-5.01,1.07 C60.97,124.93,57.19,125.09,57.11,124.59z"></path> <path class="st17" d="M82.75,153.23c-1.98,4.17-3.82,8.39-5.78,12.56c-1.81,4.68-3.65,9.31-4.62,11.43 c-0.19,0.6-0.37,1.2-0.56,1.8c-0.84,2.69,1.4,1.82,1.9,2.06c1.09,0.53,4.16,0.08,4.28-0.38s7.41-26.38,7.41-26.38l-2.54-1.3 L82.75,153.23z"></path> <path class="st29" d="M103.56,180.91c0,0,6.72-0.71,7.43-2.42c0.71-1.71-2.93-2.5-2.93-2.5S103.76,179.07,103.56,180.91z"></path> <path class="st30" d="M76.28,175.06c0,0-0.51,6.12,3.15,6.94c3.66,0.82,22.68,0.68,23.47,0c0.79-0.68,8.96-8.05,10.06-10.86 c1.1-2.81-0.25-5.87-1.53-6.48c-1.28-0.61-10.4,4.14-10.4,4.14L76.28,175.06z"></path> <path class="st18" d="M110.97,133.47c-0.17-0.3-0.39-0.57-0.63-0.82c-1-1.17-0.97-2.55-1.08-4c-0.15-2.04-0.59-4.04-1.32-5.95 c-0.01-0.03-0.03-0.05-0.06-0.06c-0.73-0.33-7.48,4.16-8.03,4.8c-1.49,1.77-2.03,4.15-1.46,6.39c-0.39,0.12-0.77,0.28-1.13,0.47 c-1.38,0.76-5.16,6.01-4.94,6.26c0,0,9.06,5.02,9.23,3.95c0.17-1.07,0.89-2.27,2-2.49c0.29-0.05,0.56-0.08,0.85-0.16l1.84-0.49 l2.69-0.71l0.18-0.18l0.96-2.86c0.18-0.55,0.35-1.1,0.55-1.63C110.92,135.2,111.4,134.33,110.97,133.47z"></path> <path class="st18" d="M114.28,181.7h0.58h0.5l-0.89-0.71h-0.18l-1.71-0.77c-0.63-0.29-1.74-0.54-2.07-1.18 c-0.21-0.52-0.34-1.07-0.39-1.63c-0.13-0.82-0.25-1.63-0.36-2.45c-0.1-0.72-0.16-1.46-0.3-2.18c-0.58-3-1.25-5.99-1.74-9.01 c-2.94-18.26-5.09-15.16-5.89-19.34l-2.42,14.45l4.99,15.03c0.65,1.96,1.2,5.92,2.49,7.49c0.49,0.6,1.08,0.45,1.78,0.44l2.1-0.05 L114.28,181.7z"></path> <path class="st16" d="M100.89,140.8c0.07,0,2.22-0.63,2.41-0.69c0.2-0.07,1.29-2.42,0.73-4.69c-1.02,0.07-2.97-1.82-1.95-5.19 c0.43-1.42,2.02-0.29,2.78,0.24c0.39,0.32,0.7,0.72,0.91,1.17l1.41,2.34l0.15-0.04l-0.18-6.89c0-0.09,0-0.16,0.04-0.23 c0.97,0.01,1.94-0.06,2.9-0.18l2.4-0.16c-0.32-0.2-0.62-0.44-0.89-0.71l-1.42-2.13c0.13,0.19,2.06-0.08,2.29-0.09l1.81-0.09 l-5.17-4.29l1.6-2.13l-8.02,0.53c0.22-0.38-12.07,4.2-13.13,11.64c-0.59,4.08,1.89,8.61,4.57,9.61 C96.83,139.79,100.89,140.8,100.89,140.8z"></path> <path class="st31" d="M100.05,171.96c0.19-1.35-0.31-2.94-0.49-4.26c-0.3-2.23-0.11-3.85,0.18-6.07c0,0,0.6,1.31,1.09,1.22 c0.49-0.09,4.8-3.94,5.46-7.95c0,0-3.43-10.47-6.19-12.78c-1.56-1.3-4.59-2.04-7.33-2.13c-0.5,0.67-1,1.34-1.49,2.02 c-2.58,3.55-5.03,7.2-7.35,10.95c-1.44,2.33-2.82,4.69-4.15,7.09c-2.09,4.94-4.65,11.93-3.96,15.17 c1.07,1.97,14.52,2.2,19.81,0.73c1.56-0.43,3.19-1.46,4.03-2.88C99.85,172.73,99.99,172.35,100.05,171.96z"></path> <path class="st18" d="M104.43,133.43c-0.11-0.26-0.9-0.61-0.64-1.24c0.11-0.35,0.43-0.61,0.8-0.63c0,0-1.34-2.28-2.04-1.44 c-0.7,0.84-0.77,3.6,0.6,4.18C104.51,134.87,104.64,133.92,104.43,133.43z"></path> <path class="st31" d="M79.55,160.25c-0.34,0.71,5.64,1.61,5.64,1.61s10.83-24.57,7.58-21.85 C84.91,146.56,81.35,156.43,79.55,160.25z"></path> <path class="st13" d="M110.63,136.02l-1.77-0.18C108.86,135.84,109.15,141.97,110.63,136.02z"></path> <path class="st13" d="M177.73,35.9l6.48-1.3C184.2,34.61,183.43,44.97,177.73,35.9z"></path> </g> </g> </svg> 