<?xml version="1.0" encoding="UTF-8"?> <!-- Generator: Adobe Illustrator 24.2.0, SVG Export Plug-In . SVG Version: 6.00 Build 0) --> <svg xmlns="http://www.w3.org/2000/svg" xmlns:xlink="http://www.w3.org/1999/xlink" version="1.1" id="Layer_1" x="0px" y="0px" viewBox="0 0 270 270" style="enable-background:new 0 0 270 270;" xml:space="preserve"> <style type="text/css"> .st0{fill:none;stroke:#D6E9BD;stroke-width:0.7618;} .st1{fill:#D6E9BD;} .st2{fill:#95CA59;} .st3{fill:#D6634A;} .st4{fill:#1B81C4;} .st5{fill:#F58257;} .st6{fill:#B84096;} .st7{fill:#EFF2F5;} .st8{fill:#D5634B;} .st9{fill:#087262;} .st10{fill:#DBE3E9;} .st11{fill:#4F5E67;} .st12{fill:#9AA896;} .st13{fill:#F37256;} .st14{fill:#D5E8BD;} .st15{fill:#2C75A5;} .st16{fill:#93CEF1;} .st17{fill:#F58357;} .st18{fill:#00A063;} .st19{opacity:0.5;} .st20{fill:#5FAD6E;} .st21{fill:#67BD50;} .st22{fill:#F58458;} .st23{fill:#D6644B;} .st24{fill:#FFFFFF;} .st25{fill:#E5EEF9;} .st26{fill:#D6E7BD;} .st27{fill:#FFE4B0;} .st28{fill:#6ABE52;} .st29{fill:#B0C19F;} .st30{fill:#DEF0EE;} .st31{fill-rule:evenodd;clip-rule:evenodd;fill:#D6E9BD;} </style> <g> <g id="Layer_1_1_"> <polyline class="st0" points="220.4,99.3 220.4,95.8 223.3,94.3 "></polyline> <polyline class="st0" points="216,91.8 216,88.3 219,86.7 "></polyline> <polyline class="st0" points="224.7,91.8 224.7,88.3 227.6,86.5 "></polyline> <polyline class="st0" points="210,94.8 214.3,92.3 218.6,94.8 218.6,99.8 214.3,102.3 "></polyline> <polygon class="st0" points="218.6,94.8 222.9,92.3 227.2,94.8 227.2,99.8 222.9,102.3 218.6,99.8 "></polygon> <polyline class="st0" points="231.5,102.3 227.3,99.8 227.3,94.8 231.5,92.3 235.9,94.8 "></polyline> <polyline class="st0" points="210,84.8 214.3,87.3 214.3,92.3 210,94.8 "></polyline> <polygon class="st0" points="214.3,87.3 218.6,84.8 222.9,87.3 222.9,92.3 218.6,94.8 214.3,92.3 "></polygon> <polygon class="st0" points="222.9,87.3 227.2,84.8 231.5,87.3 231.5,92.3 227.2,94.8 222.9,92.3 "></polygon> <polyline class="st0" points="235.9,94.8 231.5,92.3 231.5,87.3 235.9,84.8 "></polyline> <polyline class="st0" points="218.6,81.5 218.6,84.7 214.3,87.2 210,84.7 "></polyline> <polyline class="st0" points="227.2,81.5 227.2,84.7 222.9,87.2 218.6,84.7 218.6,81.5 "></polyline> <polyline class="st0" points="235.8,84.7 231.5,87.2 227.2,84.7 227.2,81.5 "></polyline> <path class="st1" d="M158.5,110.4c-0.1-0.1,0-0.3,0.1-0.4c0.1-0.1,0.3,0,0.4,0.1l0,0c0.2,0.4,0.4,0.7,0.5,1c0.1,0.1,0,0.3-0.1,0.4 c-0.1,0.1-0.3,0-0.4-0.1l0,0C158.9,111.1,158.7,110.8,158.5,110.4C158.5,110.4,158.5,110.4,158.5,110.4z"></path> <path class="st2" d="M164.5,113.5c-0.1-0.1,0-0.3,0.1-0.3c0.1-0.1,0.3-0.1,0.4,0.1c0,0,0,0,0,0c0.4,0.6,0.9,1.3,1.3,1.9 c0.1,0.1,0.1,0.3,0,0.4c-0.1,0.1-0.3,0.1-0.4,0c0,0,0,0,0,0C165.4,114.9,165,114.2,164.5,113.5 C164.5,113.5,164.5,113.5,164.5,113.5z M167.3,117.2c0-0.1,0-0.2,0.1-0.3c0.1-0.1,0.3-0.1,0.4,0l0,0c0.5,0.6,1,1.1,1.6,1.7 c0.1,0.1,0.1,0.3,0,0.4c-0.1,0.1-0.2,0.1-0.4,0l0,0c-0.6-0.5-1.1-1.1-1.6-1.7C167.4,117.3,167.3,117.3,167.3,117.2L167.3,117.2z M170.6,120.5c0-0.1,0-0.2,0-0.3c0.1-0.1,0.2-0.1,0.4-0.1c0,0,0,0,0,0c0.6,0.5,1.2,0.9,1.8,1.4c0.1,0.1,0.2,0.3,0.1,0.4 c-0.1,0.1-0.2,0.1-0.3,0.1l0,0c-0.6-0.4-1.2-0.9-1.8-1.4C170.7,120.6,170.6,120.5,170.6,120.5L170.6,120.5z M174.3,123.1 c0-0.1,0-0.1,0-0.2c0.1-0.1,0.2-0.2,0.3-0.1c0,0,0,0,0,0c0.6,0.4,1.3,0.8,1.9,1.1c0.1,0.1,0.2,0.2,0.1,0.4 c-0.1,0.1-0.2,0.2-0.3,0.1c0,0,0,0,0,0c-0.6-0.4-1.3-0.7-1.9-1.1C174.3,123.3,174.3,123.2,174.3,123.1z M178.2,125.3 c0-0.1,0-0.1,0-0.2c0-0.1,0.2-0.2,0.3-0.2h0c0.6,0.3,1.3,0.6,2,0.9c0.1,0.1,0.2,0.2,0.2,0.4c0,0.1-0.2,0.2-0.3,0.2h0 c-0.7-0.3-1.4-0.6-2.1-0.9C178.3,125.4,178.2,125.3,178.2,125.3z M182.3,126.8c0-0.1,0-0.1,0-0.2c0-0.1,0.1-0.2,0.3-0.2h0 c0.7,0.2,1.4,0.4,2.1,0.6c0.1,0.1,0.2,0.2,0.2,0.4c0,0.1-0.1,0.2-0.3,0.2c0,0,0,0,0,0c-0.7-0.2-1.4-0.4-2.1-0.6 C182.4,127,182.3,126.9,182.3,126.8L182.3,126.8z M186.5,127.9c0-0.1,0-0.1,0-0.1c0-0.1,0.1-0.2,0.3-0.2h0 c0.7,0.1,1.4,0.3,2.1,0.4c0.1,0,0.3,0.2,0.2,0.3c0,0.1-0.1,0.3-0.3,0.3h0c-0.7-0.1-1.4-0.2-2.1-0.4 C186.6,128.1,186.5,128,186.5,127.9L186.5,127.9z M190.8,128.5c0,0,0-0.1,0-0.1c0-0.1,0.1-0.3,0.3-0.3c0,0,0,0,0,0 c0.7,0.1,1.4,0.1,2.1,0.1c0.1,0,0.3,0.1,0.3,0.3c0,0.1-0.1,0.3-0.2,0.3h0c-0.7,0-1.4-0.1-2.1-0.1 C190.9,128.7,190.8,128.6,190.8,128.5L190.8,128.5z M193.5,127.4c-0.1-0.3-0.2-0.5-0.2-0.8c0-0.1,0-0.3,0.2-0.4 c0.1,0,0.3,0.1,0.3,0.2c0.1,0.3,0.1,0.5,0.2,0.8c0.1,0.5,0.4,0.9,0.5,1.4c0.1,0.1,0,0.3-0.1,0.4c-0.1,0.1-0.3,0-0.4-0.1l0,0 C193.8,128.4,193.7,127.9,193.5,127.4L193.5,127.4z M192.7,124.4C192.7,124.3,192.7,124.3,192.7,124.4c-0.1-0.6-0.1-1.1-0.2-1.7 c0-0.3,0-0.5,0-0.8c0-0.1,0.1-0.3,0.2-0.3h0c0.1,0,0.3,0.1,0.3,0.3c0,0.2,0,0.5,0,0.7c0,0.5,0.1,1,0.2,1.6c0,0.1-0.1,0.3-0.2,0.3 l0,0C192.9,124.6,192.8,124.5,192.7,124.4z M195,131.1c-0.1-0.1,0-0.3,0.1-0.4c0.1-0.1,0.3,0,0.4,0.1c0,0,0,0,0,0 c0.4,0.7,0.8,1.3,1.2,2c0.1,0.1,0.1,0.3-0.1,0.4c-0.1,0.1-0.3,0.1-0.4-0.1c0,0,0,0,0,0C195.8,132.5,195.4,131.8,195,131.1 C195.1,131.1,195,131.1,195,131.1L195,131.1z M195,128.8C195,128.7,195,128.7,195,128.8c-0.1-0.2,0.1-0.4,0.2-0.4c0,0,0,0,0,0h0.5 c0.5,0,1.1,0,1.6,0c0.1,0,0.3,0.1,0.3,0.3c0,0.1-0.1,0.3-0.2,0.3c-0.5,0-1.1,0-1.6,0h-0.5C195.2,128.9,195.1,128.8,195,128.8 L195,128.8z M197.6,135c0-0.1,0-0.2,0.1-0.3c0.1-0.1,0.3-0.1,0.4,0c0,0,0,0,0,0c0.3,0.4,0.6,0.8,1,1.2l0.5,0.6 c0.1,0.1,0.1,0.3,0,0.4c-0.1,0.1-0.2,0.1-0.4,0l0,0c-0.2-0.2-0.3-0.4-0.5-0.6c-0.4-0.4-0.7-0.8-1-1.2 C197.7,135,197.6,135,197.6,135L197.6,135z M192.7,119.7c0-0.1,0-0.1,0-0.1c0.1-0.8,0.3-1.5,0.6-2.3c0-0.1,0.2-0.2,0.3-0.2h0 c0.1,0.1,0.2,0.2,0.1,0.4c-0.2,0.7-0.4,1.4-0.5,2.2c0,0.1-0.1,0.2-0.3,0.2c0,0,0,0,0,0C192.8,119.9,192.8,119.8,192.7,119.7 L192.7,119.7z M200.8,138.4c0-0.1,0-0.2,0-0.3c0.1-0.1,0.2-0.1,0.4,0l0,0c0.5,0.5,1.1,1,1.7,1.5c0.1,0.1,0.1,0.3,0.1,0.4 c-0.1,0.1-0.2,0.1-0.4,0.1c0,0,0,0,0,0c-0.6-0.5-1.2-1-1.7-1.6C200.8,138.5,200.8,138.4,200.8,138.4L200.8,138.4z M194.1,115.4 c0-0.1,0-0.2,0-0.2c0.4-0.7,0.8-1.3,1.3-1.9c0.1-0.1,0.2-0.1,0.4,0l0,0c0.1,0.1,0.1,0.3,0,0.4c-0.5,0.6-0.9,1.1-1.2,1.8 c-0.1,0.1-0.2,0.2-0.3,0.1c0,0,0,0,0,0C194.2,115.5,194.1,115.4,194.1,115.4L194.1,115.4z M199.3,128.5 C199.3,128.5,199.3,128.5,199.3,128.5c0-0.2,0.1-0.4,0.2-0.4l0,0c0.7-0.1,1.4-0.2,2.1-0.4c0.1,0,0.3,0.1,0.3,0.2 c0,0.1,0,0.3-0.2,0.4c-0.7,0.2-1.4,0.3-2.1,0.4C199.4,128.7,199.3,128.6,199.3,128.5L199.3,128.5z M204.2,141.3c0-0.1,0-0.2,0-0.3 c0.1-0.1,0.2-0.1,0.3-0.1l0,0c0.6,0.4,1.2,0.9,1.8,1.4c0.1,0.1,0.2,0.3,0.1,0.4c-0.1,0.1-0.2,0.2-0.3,0.1c0,0,0,0,0,0 c-0.6-0.4-1.3-0.9-1.8-1.4C204.3,141.5,204.2,141.4,204.2,141.3L204.2,141.3z M196.9,112c-0.1-0.1,0-0.3,0.1-0.3 c0.6-0.4,1.2-0.8,1.9-1.1c0.1-0.1,0.3,0,0.4,0.2l0,0l0,0c0.1,0.1,0,0.3-0.1,0.4c-0.6,0.3-1.2,0.6-1.8,1 C197.2,112.3,197.1,112.2,196.9,112L196.9,112C196.9,112.1,196.9,112.1,196.9,112L196.9,112z M207.9,144c0-0.1,0-0.2,0-0.2 c0.1-0.1,0.2-0.2,0.3-0.1c0,0,0,0,0,0c0.6,0.4,1.3,0.8,1.9,1.2c0.1,0.1,0.2,0.3,0.1,0.4c-0.1,0.1-0.2,0.2-0.3,0.1c0,0,0,0,0,0 c-0.6-0.4-1.3-0.8-1.9-1.2C207.9,144.1,207.9,144.1,207.9,144L207.9,144z M203.4,127.5c-0.1-0.1,0-0.3,0.1-0.4 c0.6-0.3,1.2-0.6,1.8-0.9l0.1,0c0.1-0.1,0.3,0,0.4,0.1c0,0,0,0,0,0c0.1,0.1,0,0.3-0.1,0.4c-0.6,0.4-1.2,0.7-1.9,1 C203.6,127.7,203.4,127.6,203.4,127.5C203.4,127.5,203.4,127.5,203.4,127.5C203.4,127.5,203.4,127.5,203.4,127.5z M211.7,146.4 c0-0.1,0-0.1,0-0.2c0.1-0.1,0.2-0.2,0.3-0.1c0,0,0,0,0,0c0.6,0.4,1.3,0.8,1.9,1.1c0.1,0.1,0.2,0.3,0.1,0.4 c-0.1,0.1-0.2,0.2-0.3,0.1c0,0,0,0,0,0c-0.6-0.4-1.3-0.8-1.9-1.1C211.8,146.5,211.7,146.4,211.7,146.4L211.7,146.4z M200.8,110.6 C200.8,110.5,200.8,110.5,200.8,110.6c0-0.2,0.1-0.3,0.2-0.4l0,0c0.7,0,1.5,0,2.2,0.2c0.1,0.1,0.2,0.2,0.2,0.4s-0.1,0.2-0.3,0.2h0 c-0.7-0.1-1.4-0.2-2.1-0.2C201,110.8,200.9,110.7,200.8,110.6z M206.9,125.1c0-0.1,0-0.2,0.1-0.3c0.5-0.5,0.9-1.1,1.3-1.7 c0.1-0.1,0.2-0.1,0.4-0.1c0,0,0,0,0,0c0.1,0.1,0.1,0.3,0.1,0.4c-0.4,0.6-0.9,1.2-1.4,1.8c-0.1,0.1-0.3,0.1-0.4,0c0,0,0,0,0,0 C207,125.2,206.9,125.1,206.9,125.1z M215.5,148.7c0-0.1,0-0.1,0-0.2c0.1-0.1,0.2-0.2,0.3-0.1c0,0,0,0,0,0 c0.6,0.4,1.3,0.8,1.9,1.1c0.1,0.1,0.2,0.3,0.1,0.4c-0.1,0.1-0.2,0.2-0.3,0.1h0c-0.6-0.4-1.3-0.8-1.9-1.1 C215.6,148.8,215.5,148.7,215.5,148.7z M205,111.5c0-0.1,0-0.1,0-0.2c0-0.1,0.2-0.2,0.3-0.1c0,0,0,0,0,0c0.7,0.4,1.3,0.8,1.9,1.3 c0.1,0.1,0.1,0.3,0.1,0.4c-0.1,0.1-0.2,0.1-0.4,0.1l0,0c-0.6-0.5-1.1-0.9-1.8-1.2C205.1,111.7,205,111.6,205,111.5z M209.2,121.3 c0-0.1,0-0.1,0-0.2c0.2-0.7,0.4-1.4,0.4-2.2c0-0.1,0.1-0.3,0.2-0.3h0c0.1,0,0.3,0.2,0.3,0.3c0,0.8-0.2,1.6-0.4,2.4 c0,0.1-0.2,0.2-0.3,0.2h0C209.3,121.5,209.2,121.4,209.2,121.3z M219.4,151c0-0.1,0-0.1,0-0.2c0.1-0.1,0.2-0.2,0.3-0.1 c0,0,0,0,0,0c0.6,0.4,1.3,0.8,1.9,1.2c0.1,0.1,0.2,0.3,0.1,0.4c-0.1,0.1-0.2,0.2-0.3,0.1c0,0,0,0,0,0c-0.6-0.4-1.3-0.8-1.9-1.2 C219.4,151.1,219.4,151.1,219.4,151z M208.4,114.6c0-0.1,0-0.3,0.1-0.3c0.1-0.1,0.3-0.1,0.4,0.1v0c0.4,0.6,0.6,1.1,0.9,1.8 c0.1,0.1,0.1,0.3,0.1,0.5c0,0.1,0,0.3-0.2,0.4c-0.1,0-0.3-0.1-0.3-0.2s-0.1-0.3-0.1-0.4c-0.2-0.6-0.5-1.1-0.8-1.6 C208.4,114.6,208.4,114.6,208.4,114.6z M223.1,153.5c0-0.1,0-0.2,0-0.2c0.1-0.1,0.2-0.2,0.3-0.1c0,0,0,0,0,0 c0.6,0.4,1.3,0.9,1.9,1.3c0.1,0.1,0.1,0.3,0.1,0.4c-0.1,0.1-0.2,0.1-0.3,0.1l0,0c-0.6-0.4-1.2-0.9-1.8-1.3 C223.2,153.6,223.2,153.5,223.1,153.5z M226.8,156.2c0-0.1,0-0.2,0-0.3c0.1-0.1,0.2-0.1,0.3-0.1c0,0,0,0,0,0 c0.6,0.5,1.2,1,1.7,1.5c0.1,0.1,0.1,0.3,0.1,0.4c-0.1,0.1-0.2,0.1-0.4,0.1l0,0c-0.5-0.5-1.1-1-1.7-1.5 C226.8,156.3,226.8,156.3,226.8,156.2L226.8,156.2z M230.1,159.3c0-0.1,0-0.2,0.1-0.3c0.1-0.1,0.2-0.1,0.4,0l0,0 c0.5,0.6,1.1,1.1,1.6,1.7c0.1,0.1,0.1,0.3,0,0.4c-0.1,0.1-0.3,0.1-0.4,0c0,0,0,0,0,0c-0.5-0.6-1-1.1-1.5-1.7 C230.2,159.4,230.1,159.4,230.1,159.3z M237.7,178.4c0-0.1,0-0.1,0-0.1c0.1-0.8,0.1-1.5,0.1-2.3c0-0.1,0.1-0.3,0.2-0.3h0 c0.1,0,0.3,0.1,0.3,0.3c0,0.8,0,1.6-0.1,2.4c0,0.1-0.1,0.2-0.3,0.2h0C237.8,178.6,237.7,178.6,237.7,178.4L237.7,178.4z M233.1,162.9c0-0.1,0-0.2,0.1-0.3c0.1-0.1,0.3-0.1,0.4,0.1c0,0,0,0,0,0c0.4,0.6,0.9,1.3,1.3,2c0.1,0.1,0.1,0.3-0.1,0.4 c-0.1,0.1-0.3,0-0.4-0.1c0,0,0,0,0,0C234,164.3,233.5,163.6,233.1,162.9C233.1,163,233.1,162.9,233.1,162.9z M237.5,173.7 C237.5,173.7,237.5,173.7,237.5,173.7c-0.1-0.8-0.3-1.6-0.5-2.4c-0.1-0.1,0-0.3,0.1-0.4c0.1-0.1,0.3,0,0.4,0.1c0,0,0,0,0,0.1 c0.2,0.8,0.4,1.6,0.5,2.4c0,0.1-0.1,0.3-0.2,0.3l0,0C237.7,173.9,237.6,173.9,237.5,173.7L237.5,173.7z M235.4,167 c-0.1-0.1,0-0.3,0.1-0.4c0.1-0.1,0.3,0,0.4,0.1c0,0,0,0,0,0c0.4,0.7,0.6,1.5,0.9,2.2c0.1,0.1,0,0.3-0.1,0.4 c-0.1,0.1-0.3,0-0.4-0.1c0,0,0-0.1,0-0.1C236.1,168.4,235.8,167.7,235.4,167L235.4,167z"></path> <path class="st1" d="M232.6,181.9c0-0.1,0-0.1,0-0.2c0.1-0.4,0.2-0.7,0.3-1.1c0-0.1,0.1-0.2,0.3-0.2h0c0.1,0.1,0.2,0.2,0.2,0.4 c-0.1,0.4-0.2,0.8-0.3,1.1c0,0.1-0.2,0.2-0.3,0.2h0C232.7,182,232.7,182,232.6,181.9z"></path> <path class="st1" d="M110.5,38.1c0.3-0.2,0.6-0.4,0.9-0.5l0.3,0.4c-0.3,0.2-0.6,0.4-0.9,0.5L110.5,38.1z"></path> <path class="st2" d="M113.3,36.6c0.6-0.3,1.3-0.6,1.9-0.9l0.2,0.5c-0.6,0.3-1.3,0.6-1.9,0.9L113.3,36.6z M117.3,35.4l-0.2-0.5l0,0 c0.6-0.2,1.3-0.5,2-0.7l0.1,0.5C118.6,34.9,118,35.2,117.3,35.4z M121.3,34.2l-0.1-0.5c0.7-0.2,1.4-0.3,2-0.5l0.1,0.5 C122.6,33.8,121.9,34,121.3,34.2L121.3,34.2z M125.3,33.3l-0.1-0.5c0.7-0.1,1.4-0.2,2.1-0.2l0.1,0.5 C126.7,33.2,126,33.3,125.3,33.3L125.3,33.3z M129.4,33l0-0.5c0.7,0,1.4,0,2.1,0v0.5C130.8,32.9,130.1,33,129.4,33L129.4,33z M133.5,33l0-0.5c0.7,0,1.4,0.1,2.1,0.2l-0.1,0.5C134.9,33.1,134.2,33.1,133.5,33L133.5,33z M137.6,33.5l0.1-0.5 c0.7,0.1,1.4,0.2,2.1,0.4l-0.1,0.5C139,33.7,138.3,33.6,137.6,33.5z M141.6,34.3l0.1-0.5c0.7,0.2,1.4,0.4,2,0.6l-0.2,0.5 C143,34.7,142.3,34.5,141.6,34.3L141.6,34.3z M145.6,35.6l0.2-0.5c0.6,0.2,1.3,0.5,1.9,0.7l-0.2,0.5 C146.8,36,146.2,35.8,145.6,35.6L145.6,35.6z M149.4,37.1l0.2-0.5c0.6,0.3,1.3,0.6,1.9,0.9l-0.2,0.5 C150.6,37.7,150,37.4,149.4,37.1L149.4,37.1z M153,39l0.3-0.4c0.6,0.4,1.2,0.7,1.8,1.1l-0.3,0.4C154.2,39.7,153.6,39.3,153,39 L153,39z M156.5,41.2l0.3-0.4c0.6,0.4,1.1,0.8,1.7,1.2l-0.3,0.4C157.7,41.9,157.1,41.5,156.5,41.2L156.5,41.2z M159.9,43.6 l0.3-0.4c0.5,0.4,1.1,0.9,1.6,1.4l-0.4,0.4C160.9,44.5,160.4,44.1,159.9,43.6L159.9,43.6z M163,46.3l0.4-0.4c0.5,0.5,1,1,1.5,1.5 l-0.4,0.4C164,47.3,163.5,46.8,163,46.3L163,46.3z M165.8,49.3l0.4-0.4c0.5,0.5,0.9,1.1,1.4,1.6l-0.4,0.3 C166.8,50.3,166.3,49.8,165.8,49.3L165.8,49.3z M168.5,52.5l0.4-0.3c0.4,0.6,0.8,1.1,1.2,1.7l-0.4,0.3 C169.3,53.6,168.9,53,168.5,52.5L168.5,52.5z M170.8,55.9l0.4-0.3c0.4,0.6,0.7,1.2,1.1,1.8l-0.4,0.3 C171.6,57,171.2,56.4,170.8,55.9L170.8,55.9z M178.8,76.9c-0.1-0.7-0.2-1.4-0.4-2l0.5-0.1c0.1,0.7,0.3,1.4,0.4,2.1L178.8,76.9z M173,59.4l0.5-0.3c0.3,0.6,0.6,1.2,1,1.9l-0.5,0.2C173.6,60.6,173.3,60,173,59.4L173,59.4z M178,72.9c-0.1-0.7-0.3-1.4-0.5-2 l0.5-0.1c0.2,0.7,0.4,1.4,0.5,2L178,72.9z M174.8,63.1l0.5-0.2c0.3,0.6,0.6,1.3,0.8,1.9l-0.5,0.2C175.3,64.4,175,63.7,174.8,63.1 L174.8,63.1z M177,68.9c-0.2-0.6-0.4-1.3-0.6-2l0.5-0.2c0.2,0.6,0.4,1.3,0.6,2L177,68.9z"></path> <path class="st1" d="M179.2,80.1c0-0.4-0.1-0.7-0.1-1l0.5-0.1c0,0.4,0.1,0.7,0.1,1.1L179.2,80.1z"></path> <path class="st3" d="M94.8,55c0,0,9.3-11.4,15.5-17.5s16.6-23.4,2.3-26.8c-14.3-3.4-7.1-8-15.1-9.9S83.9,1.2,81.6,7 c-2.3,5.8-8.7,15.1-13.6,13.9c-4.9-1.2-29.3-5.7-25.7,17.2C45.8,61.1,88.5,83,94.8,55z"></path> <path class="st4" d="M98.8,42.3c0,0,3.6,0.7,5,14.4s2.9,30-0.2,30.7c-3.1,0.7-11.7-2.9-9.7-16.8S98.8,42.3,98.8,42.3z"></path> <path class="st5" d="M121.2,47.9c-0.3-1.5-0.7-3-1.3-4.4c0,0-0.4,0.7-0.2,2.2c0.1,1.7,0.8,4.3,0.1,5.2c-1.3,1.6-1.1,2-1.2,0.9 c-0.1-1.1,0.8-2.7-0.6-4.8c-0.1,1.6-0.3,3.2-0.6,4.7c-0.4,2,0.3,4.7-1.5,8.5c-4.3,4.8-10.6,11.8-14.5,17.8 c-4.2,6.4-5.6,8.4-3.1,8.9c5.1,1.2,8.8-4.1,10.2-6.6c2.6-4.7,8.9-19.3,8.9-19.3l0.1-0.1c1.8-2.1,3.8-5.4,4.1-6.7 C121.5,53.8,121.6,50.7,121.2,47.9z"></path> <path class="st5" d="M121.1,54.6c0,0,1.5-4.1,1.4-5c-0.1-0.6-0.8-3.5-0.8-3.5s-0.7,1.5-0.4,2.6S121.1,54.6,121.1,54.6z"></path> <path class="st6" d="M96.7,91.8c-2.9-5.5-13.3-4.1-20.6,0H96.7z"></path> <path class="st4" d="M71,91.8h27L96.6,68c0,0,3.1-24,3.3-25.2c0.2-1.2-12.2-6.9-14.2-4.7c-3.7,4-12.5,0.6-12.5,0.6 S75.5,75.6,71,91.8z"></path> <path class="st4" d="M76.3,40.3c-3.6-2.9-5.8-3.1-8.9,4.3c-6.9,16.4-6.9,41.4,0,42.9c4.1,0.9,5.3-1.4,7.3-3.9 C76.7,81.1,79.4,42.8,76.3,40.3z"></path> <path class="st7" d="M114.3,72.2c-0.5,1-1.5,1.7-2.6,1.8H96.3c-1.1,0-1.6-0.8-1.2-1.8l10-24.1c0.4-0.9,1.6-1.9,2.6-1.9H123 c1.1,0,1.6,1,1.2,1.9L114.3,72.2z"></path> <path class="st5" d="M100.2,60c0,0-1.4,2.5-0.5,2.7c0.9,0.2,6.9-3.1,6.9-3.1l1.9-0.2l-4.6,3.7c-0.4,0.2,3-2.2,4.8-2.9 c1-0.4,1.7-0.2,2-0.3c0.7-0.2-6.1,4.3-6.1,4.3l2.9-0.9c0,0,1.6-0.4,0.8,0.5c-0.4,0.5-1.1,0.6-2,1.8s-5.1,4.9-9.3,5.4 c-1.3,0.2-2.5,0.6-3.6,1.4l-20,13c0,0-9.2,1.6-8.2-3.6c1.1-5.1,18.6-10.6,24.9-12.6c4.1-1.4,4.4-2.5,5.3-3.4 C96.3,65,97.9,61.2,100.2,60z"></path> <path class="st5" d="M93.6,29.7l-6-6.5c-0.9,4.4-1.6,8.9-2,13.5c-0.1,1.6-0.9,2.4-1.7,2.8l4.7,6.3c0.4,0.1,0.9,0.2,1.3,0.2 c0.3,0,0.7,0,1.2,0c0.2-0.2,0.4-0.4,0.6-0.6c0.1-0.1,0.2-0.3,0.3-0.4l0,0l0.1-0.1c0.4-0.5,0.7-1,0.9-1.6c0.1-0.1,0.2-0.3,0.2-0.5 c0.2-0.5,0.4-1,0.6-1.4C90.7,37.1,93.6,29.7,93.6,29.7z"></path> <path class="st8" d="M92.6,36c0-0.4,0.1-0.9,0.1-1.3c0-0.3,0.1-0.5,0.2-0.7c0.2-1.1,0.6-2.1,1-3.1l-7.1-6.5 c-0.8,3.4-1.5,6.8-2,10.3c0,0.2,0.1,0.3,0.1,0.5c0,0,0,0.1,0.1,0.1c0.1,0.3,0.2,0.6,0.3,1c0.4,1.1,1.1,1.9,2.1,3.2 c1.3,1.6,3.2,0.6,5.1-1.4C92.5,37.3,92.5,36.7,92.6,36z"></path> <path class="st5" d="M81.9,23.2c1.3-3.5,4.9-3,7.5-4.5c2.1-1.2,4.1-7,6.9-6.4c9.4,2,2.8,25.9-7.4,25.1c-5.9-0.5-7.8-6.2-7.5-11.7 C81.5,24.8,81.6,24,81.9,23.2z"></path> <path class="st9" d="M202.1,160.1V88.7c0-1.9-1.5-3.4-3.4-3.4H82.8c-1.9,0-3.4,1.5-3.4,3.4v71.4H202.1z"></path> <rect x="85.1" y="91.1" class="st1" width="111.2" height="62.6"></rect> <path class="st7" d="M79.2,160.2v10.3c0,2,1.6,3.6,3.6,3.6h115.9c2,0,3.6-1.6,3.6-3.6v-10.3H79.2z"></path> <path class="st7" d="M162,189.3c0,0-0.9-0.4-1.9-0.8c-1.1-0.4-2.4-0.9-3.2-1.3c-1.4-0.6-1.5-1.1-2-3.3c-0.6-2.4-1.1-7.6-1.3-9.8 h-25.7c-0.2,2.2-0.7,7.4-1.3,9.8c-0.5,2.2-0.6,2.6-2,3.3c-0.8,0.4-2.1,0.9-3.1,1.3l0,0c-1,0.4-1.9,0.7-1.9,0.7s-0.8,0.5,0.5,0.5 h41.3C162.6,189.7,162,189.3,162,189.3z"></path> <path class="st10" d="M153.9,176.8c-0.1-1.1-0.2-2-0.3-2.7h-25.7c-0.1,0.7-0.1,1.6-0.3,2.7H153.9z"></path> <polygon class="st10" points="181.9,193.4 116.8,193.4 101.1,203.1 175.1,203.1 "></polygon> <polygon class="st7" points="181.4,192.6 116.3,192.6 100.6,202.4 174.6,202.4 "></polygon> <path class="st11" d="M80.1,128.6c0,4.6,0,9.3,0,13.9c0,0.1,0,0.1,0,0.1c0,0.1,0,0.2,0,0.3c-0.1,2.6,0.1,5.3-0.2,8 c-0.1,1-0.2,2-0.3,3c-0.4,2.7-1.2,5.2-2.4,7.6c-1.2,2.4-2.8,4.5-4.8,6.3c-2.2,1.8-4.5,3.3-7.3,4c-2.3,0.6-4.7,0.8-7-0.1 c-1.4-0.5-2.7-1.4-3.7-2.6c-1.5-1.8-2.5-3.9-3.1-6.1c-0.8-2.6-1.2-5.2-1.4-7.9c-0.1-2-0.2-3.9-0.3-5.9c-0.1-2,0-4,0-6 c0,0,0-0.1,0-0.1l0-33.1c0-1.6,0-3.1,0-4.6c0-1.2,0.1-2.3,0.2-3.5c0.1-0.9,0.2-1.9,0.3-2.9c0.1-0.8,0.3-1.7,0.5-2.5 c0.2-0.9,0.4-1.8,0.7-2.7c1.7-4.5,4.1-8.3,8.4-10.8c1.6-0.9,3.4-1.5,5.2-1.8c1.8-0.3,3.5-0.5,5.3-0.5c1.1,0.1,2.2,0.2,3.4,0.3 c3.3,0.4,6.5,1.5,9.4,3.3c4.1,2.4,7.2,5.8,9.2,10.1c0.6,1.2,0.9,2.6,1.2,3.9c0.3,1,0.4,2,0.6,2.9c0.1,1.2,0.1,2.3,0.2,3.5 c0,0.1-0.2,0.3-0.4,0.4c-0.8,0.2-1.5,0.4-2.3,0.6l-0.6,0.1c-0.9,0.1-1.9,0.3-2.8,0.4c-1.6,0.2-3.2,0.4-4.8,0.5 c-1,0.1-2,0.1-3.1,0.1c-0.1,0-0.2,0-0.4,0v0.5c0,5.9,0,11.7,0,17.6C80.1,126.3,80.1,127.4,80.1,128.6"></path> <path class="st4" d="M38.6,173.2c0.9,5.1,2.2,10,3.8,14.9c0.7,2.2,1.4,4.4,2.3,6.5c1.2,3,2.4,5.9,3.7,8.8c1.5,3.1,3.1,6.2,5.3,8.9 c1.1,1.4,2.4,2.6,3.9,3.7c0.1,0.1,0.3,0.3,0.4,0.4c0.2,0.1,0.3,0.1,0.5,0.2c0.4,0.3,0.8,0.5,1.2,0.8c0.8,0.4,1.6,0.8,2.5,1H92 c1.5-0.5,2.9-1,4.3-1.7c0.7-0.3,1.4-0.6,2.1-1c-0.1-0.3-0.2-0.5-0.3-0.7c-1.4-2.2-2.5-4.6-3.6-6.9c-1.3-3-2.4-6-3.3-9.1 c-1.3-4.3-2.4-8.6-3.2-13.1c-0.3-1.3-0.5-2.6-0.7-3.9c-0.2-1.2-0.2-2.5-0.4-3.7c-0.4-3.3-0.3-6.7-0.2-10c0.1-2,0.3-4.1,0.6-6.1 c0.2-1.6,0.5-3.3,0.9-4.9c0.4-1.6,1.1-3.2,2.2-4.5c1.2-1.3,2.8-2.2,4.6-2.5c0.6-0.1,1.3-0.1,1.9-0.2c0.1,0,0.2-0.1,0.3-0.1 c-0.1-0.1-0.2-0.2-0.4-0.2c-2.4-1.1-4.7-2.1-7.1-3.1c-3.2-1.4-6.4-2.6-9.6-3.9c0,0.1,0,0.2,0,0.3c-0.1,2.6,0.1,5.3-0.2,7.9 c-0.1,1-0.2,2-0.3,3c-0.4,2.7-1.2,5.2-2.4,7.6c-1.2,2.4-2.8,4.5-4.8,6.3c-2.2,1.8-4.5,3.3-7.3,4c-2.3,0.6-4.7,0.8-7-0.1 c-1.4-0.5-2.7-1.4-3.7-2.6c-1.5-1.8-2.5-3.9-3.1-6.1c-0.8-2.6-1.2-5.2-1.4-7.9c-0.1-2-0.2-3.9-0.3-5.9s0-4,0-6l-0.1-0.1 c-2.4,1.9-4.8,3.8-7,6l-0.1,0.1l-0.3,0.3c-0.3,0.5-0.6,1-0.9,1.5c-0.6,1.3-1.1,2.5-1.6,3.8c-0.8,2.1-1.3,4.2-1.6,6.4 c-0.3,1.7-0.4,3.4-0.3,5.1C37.9,168.6,38.2,170.9,38.6,173.2z"></path> <path class="st4" d="M131.7,143.6l-0.7,9.9c0,5.1-4.5,9.3-10,9.3s-10-4.1-10.8-9.3l-0.6-9.9H131.7z"></path> <path class="st12" d="M118.9,150.8l-0.1,0.2c0,0,0.1-0.1,0.3-0.2H118.9z"></path> <path class="st13" d="M108.3,155c0-0.8,0.1-1.5,0.2-2.3c-0.9,0.3-1.8,0.7-2.7,1c-0.1-0.4,0.8-1.4,1.4-2.1c0.9-1-1.6-1.4-3-0.1 c-0.4,0.4-6.4,5.2-6.4,5.2l7.8,3.1l3.3-1.5C108.6,157.3,108.4,156.1,108.3,155z"></path> <path class="st4" d="M110.7,158.5c1.1,0,2.1-0.5,2.8-1.4l-1.5-1.2c-0.4,0.6-1.3,0.9-2,0.6c-1.6-0.6-3.2-2.9-3.2-4.7 c0-0.4,0.1-0.9,0.5-1.2c0.9-0.8,3-0.7,3.7-0.6l0.3-1.9c-0.4-0.1-3.5-0.4-5.2,1.1c-0.8,0.7-1.2,1.6-1.1,2.6c0,2.7,2,5.7,4.4,6.5 C109.8,158.4,110.3,158.5,110.7,158.5"></path> <polygon class="st13" points="109.3,149.7 106.6,150.8 104.9,160.8 110.1,158 110.6,151.1 "></polygon> <path class="st14" d="M87.3,182c0.2,1.3,0.4,2.6,0.7,3.9c0.8,4.4,1.9,8.8,3.2,13.1c0.9,3.1,2.1,6.1,3.3,9.1c1,2.4,2.2,4.7,3.6,6.9 c0.1,0.2,0.2,0.5,0.3,0.7c0.7,0.9,1.6,1.6,2.6,2.1c0.4,0.2,0.9,0.4,1.4,0.5h8.4c1.6-0.4,3.2-1.1,4.7-1.9c2.4-1.4,4-3.4,5.1-6 c0.8-2.1,0.9-4.3,0.6-6.4c-0.3-2.6-0.8-5.2-1.4-7.7c-1.2-4.9-2.6-9.8-4.3-14.6c-1.1-3.2-2.3-6.4-3.6-9.5c-1.1-2.9-2.4-5.7-3.7-8.5 c-1.2-2.6-2.6-5.2-4-7.7c-1.5-2.7-3.7-4.6-6.5-5.9c-0.1-0.1-0.3-0.1-0.4-0.1c-0.1,0-0.2,0.1-0.3,0.1c-0.6,0.1-1.3,0.1-1.9,0.2 c-1.8,0.3-3.4,1.2-4.6,2.5c-1.1,1.3-1.9,2.8-2.2,4.5c-0.4,1.6-0.7,3.3-0.9,4.9c-0.3,2-0.5,4.1-0.5,6.1c-0.1,3.3-0.1,6.7,0.2,10 C87,179.5,87.1,180.7,87.3,182z"></path> <path class="st14" d="M40.7,215.6c0.4,0.1,0.7,0.3,1.1,0.4c4.4,1.5,11.1,2,15.5,0.5c-0.8-1.4-2.4-2.6-3.6-4.1 c-2.2-2.7-3.8-5.8-5.3-8.9c-1.4-2.9-2.5-5.9-3.7-8.8c-0.9-2.1-1.6-4.4-2.3-6.5c-1.6-4.9-2.9-9.8-3.8-14.9 c-0.4-2.3-0.7-4.5-0.8-6.8c-0.1-1.7,0.1-3.4,0.3-5.1c0.3-2.2,0.8-4.4,1.6-6.4c0.5-1.3,1.1-2.6,1.6-3.8c0.2-0.5,0.6-1,0.9-1.5 c-0.1,0.1-0.3,0.1-0.4,0.2c-0.6,0.6-1.2,1.3-1.8,2c-1.5,1.6-2.7,3.5-3.4,5.6c-0.6,1.8-1.1,3.7-1.6,5.5c-0.5,2.1-1,4.4-1.4,6.5 c-0.5,2.3-1.1,4.6-1.5,6.9c-0.5,2.6-0.9,5.1-1.3,7.8c-0.3,2-0.6,4-0.8,6.1c-0.2,1.8-0.2,3.5-0.2,5.3c0,1.5,0,3,0.1,4.5 c0.1,1.3,0.2,2.5,0.5,3.7c0.5,2.7,1.8,5.2,3.6,7.2C35.7,212.9,38,214.5,40.7,215.6"></path> <path class="st15" d="M49.6,143.2L49.6,143.2v-0.1C49.6,143.1,49.6,143.1,49.6,143.2"></path> <path class="st16" d="M42.5,149.1L42.5,149.1L42.5,149.1"></path> <path class="st13" d="M126.7,201.3l6.6,3.1l4.9-3.2c0,0,10.5-4,5.2-4.6c-11.2-1.1-6-2.2-10,1.6c0.6-0.5,1.1-1.1,1.6-1.7 c0.7-1-1.9-0.4-3,0.9C131.6,197.8,126.7,201.3,126.7,201.3"></path> <path class="st14" d="M109.1,218.2c1.8-0.1,3.6-0.3,5.4-0.6c6.4-3.6,13.4-9.6,19.6-13.4c0,0-1.2-2.1-2-2.7 c-0.7-0.5-3.9-1.7-3.9-1.7l-35-1.5c0,0.2-0.1,0.4-0.1,0.6C93.3,202.1,94,218.9,109.1,218.2z"></path> <path class="st17" d="M95.7,114.6c-0.3-0.4-0.5-0.9-0.8-1.3c-1.2-1.8-2.5-3.6-3.8-5.4c-0.3-0.3-0.4-0.7-0.2-1 c0.1-0.3,0.1-0.6,0.2-0.9c-0.9,0.1-1.9,0.3-2.8,0.4c-1.6,0.2-3.2,0.4-4.8,0.5c-1,0.1-2,0.1-3.1,0.1c-0.1,0-0.2,0-0.4,0v0.5 c0,5.9,0,11.7,0,17.6c0,1.1,0,2.3,0,3.5c2.6,0.7,5.1,1.4,7.7,2.1c0.1,0.1,0.4,0,0.4-0.1c0,0,0-0.1,0-0.1c0.6-2,1.3-4.1,1.9-6.3 c-1.3-1.4-2.9-4.4-2.9-4.4l3.8,0.6c0.3-1.2,0.5-2.4,0.6-3.6c0-0.3,0.2-0.5,0.4-0.6c1.1-0.4,2.2-0.8,3.3-1.2 C95.8,115,95.8,114.8,95.7,114.6z"></path> <path class="st18" d="M88.9,223.5h9.4c0.4-0.1,0.7-0.2,1.1-0.4c0.1,0,0.5-0.2,0.7-0.3l0.3-0.1c0.6-0.3,1.1-0.6,1.6-0.9 c0.6-0.4,1.2-0.7,1.7-1.1c0.2-0.1,0.4-0.3,0.7-0.5l0.6-0.4l0.3-0.3c0.3-0.2,0.5-0.4,0.8-0.7c0.3-0.2,0.6-0.5,0.9-0.8 c-0.3-12.4-2.1-27.5-5.3-38.4c-0.7-2.6-1.7-5.3-3.9-6.9c-1.9-1.4-4.5-1.6-6.9-1.8c-20.7-1.3-41.4-2.1-62.2-2.4 c-2.8,0-5.3,0.1-7.4,0.5c-1.6,0.8-3.2,1.7-4.6,2.7c-0.9,0.8-1.8,1.7-2.7,2.6l0,0.1c-0.1,0.1-0.1,0.3-0.1,0.5 c0.4,3.5,0.8,6.9,1.2,10.4c1,7.3,2.1,14.7,3.1,22c0.3,1.7,0.8,3.5,1.9,4.7c1,1.1,2.4,6.8,3.8,7.4c3.9,1.5,8,2.8,12.1,3.9h50.8 C87.4,223.4,88.1,223.4,88.9,223.5z"></path> <path class="st9" d="M88.9,223.5c2.2,0,4.5,0,6.7,0.1c-0.2-13.7-1.3-27.5-4.9-40.8c-0.7-2.6-1.6-5.3-3.6-6.9 c-1.8-1.4-4.2-1.6-6.4-1.8c-19.3-1.3-38.7-2.1-58.1-2.4c-2.1-0.1-4.2,0.1-6.3,0.4c-0.9,0.8-1.7,1.6-2.5,2.4 c-0.1,0.1-0.1,0.2-0.2,0.3c0.4,3.5,0.8,7.1,1.2,10.6c0.9,7,1.8,13.9,2.6,20.9c0.8,7.4,1.3,13.4,8.6,17.1 C47,223.5,68,223.4,88.9,223.5z"></path> <g class="st19"> <rect x="121.5" y="78.3" class="st20" width="80.8" height="48.7"></rect> <rect x="121.5" y="78.3" class="st20" width="80.8" height="9"></rect> <rect x="121.9" y="80.7" class="st20" width="2.9" height="3.4"></rect> <rect x="127.6" y="80.7" class="st20" width="2.9" height="3.4"></rect> <rect x="133.3" y="80.7" class="st20" width="2.9" height="3.4"></rect> </g> <rect x="121.5" y="75.2" class="st7" width="83.6" height="49.6"></rect> <rect x="121.5" y="75" class="st11" width="83.6" height="10.1"></rect> <rect x="124.7" y="78.4" class="st1" width="2.9" height="3.4"></rect> <rect x="130.4" y="78.4" class="st1" width="2.9" height="3.4"></rect> <rect x="136.1" y="78.4" class="st1" width="2.9" height="3.4"></rect> <rect x="118.4" y="92.5" class="st21" width="16.3" height="2.3"></rect> <rect x="118.4" y="97.2" class="st11" width="9.3" height="2.3"></rect> <rect x="110.3" y="93.7" class="st4" width="4.6" height="4.6"></rect> <rect x="118.4" y="103" class="st21" width="16.3" height="2.3"></rect> <rect x="118.4" y="107.6" class="st11" width="9.3" height="2.3"></rect> <rect x="110.3" y="104.1" class="st4" width="4.6" height="4.6"></rect> <rect x="118.4" y="113.4" class="st21" width="16.3" height="2.3"></rect> <rect x="118.4" y="118.1" class="st11" width="9.3" height="2.3"></rect> <rect x="110.3" y="114.6" class="st4" width="4.6" height="4.6"></rect> <path class="st1" d="M156.8,70.8h23.9c3.4,0,6.1,2.7,6.1,6.1v23.9c0,3.4-2.7,6.1-6.1,6.1h-23.9c-3.4,0-6.1-2.7-6.1-6.1V76.9 C150.8,73.6,153.5,70.8,156.8,70.8z"></path> <polygon class="st1" points="158.8,112.9 158.8,103.7 168.9,103.7 "></polygon> <path class="st9" d="M156.4,64.9c0.6-1.1,1.6-2.2,2.9-2.4c2.3-0.4,6.6,0.7,9.2,2.6c2.7-1.7,7-0.6,9.2,1.5 c6.4,5.8-1.6,14.1-6.1,18.7c-0.2,0-0.4,0.1-0.6,0.2c0,0,0-0.1,0-0.1c-3.3,1-1.4-2.9-2.6-4.1c-1.7-1.7-4.1-1.4-6.3-1.8 c-2.4-0.4-3.3-1.9-4.6-3.7C155.2,72.7,154.4,68.4,156.4,64.9z"></path> <path class="st22" d="M160,103.1h16.6c1.9-12.1-2.6-11.2-5.6-15.1c-2.9-4-1.6-5.8-1.6-5.8s-6-1.4-4.4,0.3c1.6,1.6,2,2.2,1.2,5.1 s-5.1,2.8-6.5,5.9C158.5,96.2,157.8,101.5,160,103.1z"></path> <path class="st23" d="M171.4,89c-1.7-0.3-3.3-0.9-4.8-1.8c0.4-2.3-0.1-3-1.5-4.7c-1.6-1.9,4.4-0.2,4.4-0.2s-0.9,1.7,2.1,6.3 C171.6,88.6,171.3,89,171.4,89z"></path> <path class="st4" d="M160,103.1h16.6c1.7-10.9-1.8-11.2-4.6-14c-0.1,0.4-1,0.6-1.4,0.8c-4.8,2.3-3.4,4.1-4.1,2.5 c-0.3-0.6-1.4-1.6-1.5-3.2c-1.6,0.9-4.5,2.3-5.4,4.2C158.5,96.2,157.8,101.5,160,103.1z"></path> <path class="st22" d="M174.2,74.3c0,0-2.7,1.9-5.2-1.6l-2.5-3.6c0,0-3,2-4.4,0.4c-1.4-1.5-2.6,6.2-1.2,11.7c1.4,5.5,7,8,11.6,3.3 c1.5-1.5,2.6-1.8,4.2-2.6c3.4-1.9,1.1-5-0.5-4.1c-1.6,0.9-1.4,2.1-2.1,1.5C173.2,78.6,172.8,76,174.2,74.3z"></path> <path class="st4" d="M176.7,103.1c1-6.4,0.2-9.2-1.2-10.9c-1.1,0.7-2.2,1.9-3,3.7c-1.4,3.2-2.2,5.4-2.8,7.2H176.7z"></path> <path class="st4" d="M160,103.1L160,103.1c-0.1-6,0.9-9.9,1.6-11.8c-0.8,0.5-1.5,1.2-1.9,2.1C158.5,96.2,157.8,101.5,160,103.1z"></path> <path class="st24" d="M167.1,80.5l-5.2-0.7C161.8,79.8,163.5,85.7,167.1,80.5z"></path> <path class="st18" d="M195.1,99.1c0,6.3-5.1,11.4-11.4,11.4s-11.4-5.1-11.4-11.4s5.1-11.4,11.4-11.4l0,0 C190,87.7,195.1,92.8,195.1,99.1L195.1,99.1z"></path> <polygon class="st24" points="181.2,104 178.2,100.9 179.3,99.8 181.2,101.7 188.1,94.8 189.3,96 "></polygon> <path class="st25" d="M166.9,91.9c0,0.2,0.1,1.9,0.1,1.9l0.6-1.7l1.1,1.2c0,0,4.5-3.3,4.2-3.4c-0.2-0.1-1.6-1.7-1.6-1.7 L166.9,91.9z"></path> <path class="st25" d="M166.8,91.7c0,0,0.1,2.4,0.1,2.3c0-0.2-0.8-2.2-0.8-2.2l-1.3,1.5l-0.5-3.6c0,0,1.4-1.1,1.4-0.9 C165.7,88.9,166.8,91.7,166.8,91.7z"></path> <path class="st4" d="M150,110.6h1.8v3.7h3.6v1.7h-3.6v3.8H150v-3.8h-3.6v-1.7h3.6L150,110.6z"></path> <path class="st26" d="M252.7,144.1l2.7,2.4c0.4,0.3,0.4,0.9,0.1,1.2l-0.1,0.1c-0.3,0.4-0.9,0.4-1.2,0.1l-2.7-2.3 c-0.4-0.3-0.4-0.9-0.1-1.2l0.1-0.1C251.8,143.9,252.3,143.8,252.7,144.1L252.7,144.1z"></path> <path class="st26" d="M248.3,159.1l-1.3,6.9c-0.1,0.7-0.8,1.2-1.5,1.1c-0.2,0-0.4-0.1-0.6-0.3l-5.4-4.6l-5.4-4.6 c-0.6-0.5-0.6-1.3-0.1-1.8c0.1-0.2,0.4-0.3,0.6-0.4l6.6-2.4l8.8-3.1L248.3,159.1z"></path> <rect x="246.5" y="147.6" transform="matrix(0.6512 -0.7589 0.7589 0.6512 -25.9492 242.2701)" class="st26" width="8.2" height="3.6"></rect> <path class="st2" d="M248.3,159.1l-1.3,6.9c-0.1,0.7-0.8,1.2-1.5,1.1c-0.2,0-0.4-0.1-0.6-0.3l-5.4-4.6l-5.4-4.6 c-0.6-0.5-0.6-1.3-0.1-1.8c0.1-0.2,0.4-0.3,0.6-0.4l6.6-2.4L248.3,159.1z"></path> <path class="st2" d="M245,157.2c-0.6,0.6-1.5,0.7-2.1,0.1c-0.6-0.6-0.7-1.5-0.1-2.1c0.6-0.6,1.5-0.7,2.1-0.1 C245.5,155.6,245.6,156.6,245,157.2L245,157.2z"></path> <path class="st27" d="M244.2,155.9c-0.2,0.2-0.5,0.2-0.7,0.1c-0.2-0.2-0.2-0.5-0.1-0.7c0.2-0.2,0.5-0.2,0.7-0.1l0,0 C244.3,155.4,244.3,155.7,244.2,155.9L244.2,155.9z"></path> <path class="st2" d="M246.2,154.1c-0.3,0.4-0.8,0.4-1.1,0.1s-0.4-0.8-0.1-1.1c0.3-0.4,0.8-0.4,1.1-0.1 C246.4,153.2,246.5,153.7,246.2,154.1L246.2,154.1z"></path> <path class="st27" d="M245.7,153.4c-0.1,0.1-0.3,0.1-0.4,0l0,0c-0.1-0.1-0.1-0.3,0-0.4c0.1-0.1,0.3-0.1,0.4,0 C245.8,153.1,245.8,153.3,245.7,153.4L245.7,153.4z"></path> <path class="st20" d="M248.5,153.3c-0.3,0.4-0.8,0.4-1.1,0.1c-0.4-0.3-0.4-0.8-0.1-1.1c0.3-0.4,0.8-0.4,1.1-0.1 C248.8,152.4,248.8,152.9,248.5,153.3L248.5,153.3z"></path> <path class="st27" d="M248,152.6c-0.1,0.1-0.3,0.1-0.4,0c-0.1-0.1-0.1-0.3,0-0.4c0.1-0.1,0.3-0.1,0.4,0 C248.1,152.3,248.1,152.5,248,152.6C248,152.6,248,152.6,248,152.6z"></path> <ellipse class="st20" cx="246.8" cy="156.1" rx="1" ry="1"></ellipse> <path class="st27" d="M247,155.8c-0.1,0.1-0.3,0.1-0.4,0c-0.1-0.1-0.1-0.3,0-0.4c0.1-0.1,0.3-0.1,0.4,0 C247,155.6,247,155.7,247,155.8z"></path> <path class="st28" d="M252.7,147C252.7,147,252.7,147,252.7,147l-1.2-1c-0.1,0-0.1-0.1,0-0.1c0-0.1,0.1-0.1,0.1,0l1.2,1 c0,0,0,0.1,0,0.1C252.8,146.9,252.8,147,252.7,147z"></path> <path class="st28" d="M251.9,147C251.8,147,251.8,147,251.9,147l-0.7-0.6c0,0,0-0.1,0-0.1l0,0c0,0,0.1,0,0.1,0l0,0l0.7,0.6 c0,0,0,0.1,0,0.1l0,0C252,147.1,251.9,147.1,251.9,147z"></path> <path class="st28" d="M251.9,147.9C251.9,147.9,251.9,147.9,251.9,147.9l-1.2-1c0,0,0-0.1,0-0.1l0,0c0,0,0.1,0,0.1,0l1.2,1 c0,0,0,0.1,0,0.1l0,0C252,147.9,252,147.9,251.9,147.9z"></path> <path class="st28" d="M251.1,148C251,148,251,148,251.1,148l-0.7-0.6c0,0,0-0.1,0-0.1l0,0c0,0,0.1,0,0.1,0l0,0l0.7,0.6 c0,0,0,0.1,0,0.1l0,0C251.2,148,251.1,148,251.1,148z"></path> <path class="st28" d="M251.1,148.8C251.1,148.8,251.1,148.8,251.1,148.8l-1.2-1c0,0,0-0.1,0-0.1l0,0c0,0,0.1,0,0.1,0l0,0l1.2,1 c0,0,0,0.1,0,0.1l0,0C251.2,148.8,251.2,148.8,251.1,148.8z"></path> <path class="st28" d="M250.3,148.9C250.2,148.9,250.2,148.9,250.3,148.9l-0.7-0.6c0,0-0.1-0.1,0-0.1c0,0,0.1-0.1,0.1,0l0,0 l0.7,0.6c0,0,0,0.1,0,0.1l0,0C250.3,148.9,250.3,148.9,250.3,148.9z"></path> <path class="st28" d="M250.3,149.8C250.3,149.8,250.3,149.8,250.3,149.8l-1.2-1c0,0,0-0.1,0-0.1l0,0c0,0,0.1,0,0.1,0l0,0l1.2,1 c0,0,0,0.1,0,0.1l0,0C250.4,149.8,250.3,149.8,250.3,149.8z"></path> <path class="st28" d="M249.5,149.8C249.4,149.8,249.4,149.8,249.5,149.8l-0.7-0.6c0,0,0-0.1,0-0.1l0,0c0,0,0.1,0,0.1,0l0,0 l0.7,0.6c0,0,0,0.1,0,0.1l0,0C249.5,149.8,249.5,149.8,249.5,149.8z"></path> <path class="st28" d="M249.5,150.7C249.5,150.7,249.5,150.7,249.5,150.7l-1.2-1c0,0,0-0.1,0-0.1l0,0c0,0,0.1,0,0.1,0l1.2,1 c0,0,0,0.1,0,0.1l0,0C249.6,150.7,249.5,150.7,249.5,150.7z"></path> <path class="st28" d="M248.7,150.8C248.6,150.8,248.6,150.8,248.7,150.8l-0.7-0.6c0,0,0-0.1,0-0.1l0,0c0,0,0.1,0,0.1,0l0,0 l0.7,0.6c0,0,0,0.1,0,0.1C248.8,150.8,248.7,150.8,248.7,150.8z"></path> <path class="st28" d="M248.7,151.6C248.7,151.6,248.7,151.6,248.7,151.6l-1.2-1c-0.1,0-0.1-0.1,0-0.1c0-0.1,0.1-0.1,0.1,0 c0,0,0,0,0,0l1.2,1c0,0,0,0.1,0,0.1l0,0C248.8,151.6,248.8,151.6,248.7,151.6z"></path> <path class="st28" d="M247.9,151.7C247.8,151.7,247.8,151.7,247.9,151.7l-0.7-0.6c0,0,0-0.1,0-0.1c0,0,0.1,0,0.1,0l0.7,0.6 c0,0,0,0.1,0,0.1l0,0C247.9,151.7,247.9,151.7,247.9,151.7z"></path> <path class="st1" d="M224.9,115.1c0.1-0.6,0.5-1.2,1.2-1.4c0.6-0.1,1.3,0.2,1.6,0.8l4,6.6c0.1,0.1,0.2,0.3,0.2,0.5 c0.1,0.5-0.2,0.9-0.7,1c0,0,0,0-0.1,0c-0.4,0.1-0.9-0.1-1.1-0.5l-0.6-1.1l-3.6,0.7l-0.1,1.3c0,0.4-0.4,0.8-0.8,0.9 c-0.5,0.1-1-0.2-1.1-0.7l0,0c0-0.1,0-0.3,0-0.4L224.9,115.1z M226,119.8l2.5-0.5l-2-3.6h0L226,119.8z"></path> <path class="st1" d="M238.9,119.8c0.1,0.5,0.2,1.2-0.6,1.4c-0.6,0.1-0.8-0.1-1.1-0.6c-0.3,0.6-0.9,1.1-1.6,1.2 c-1.8,0.4-3.4-0.9-3.9-3c-0.4-2.1,0.6-3.9,2.4-4.3c0.7-0.2,1.4,0,2,0.5c0-0.5,0.3-0.9,0.7-1c0.9-0.2,1.1,0.6,1.1,1.1L238.9,119.8z M235.4,120.1c1-0.2,1.3-1.3,1.1-2.2c-0.2-0.9-0.9-1.8-1.9-1.6c-1,0.2-1.3,1.3-1.1,2.2C233.7,119.4,234.4,120.3,235.4,120.1 L235.4,120.1z"></path> <rect x="155.8" y="41.2" transform="matrix(0.8945 -0.447 0.447 0.8945 -1.509 80.8765)" class="st2" width="29.6" height="4.9"></rect> <rect x="158.4" y="47" transform="matrix(0.8945 -0.447 0.447 0.8945 -4.8087 76.0067)" class="st20" width="0.6" height="2.4"></rect> <rect x="160" y="46.1" transform="matrix(0.8945 -0.4471 0.4471 0.8945 -3.9867 76.593)" class="st20" width="0.6" height="1.3"></rect> <rect x="162.1" y="45.1" transform="matrix(0.8945 -0.4471 0.4471 0.8945 -3.5778 77.4818)" class="st20" width="0.6" height="2.4"></rect> <rect x="163.7" y="44.3" transform="matrix(0.8945 -0.4471 0.4471 0.8945 -2.7682 78.0538)" class="st20" width="0.6" height="1.3"></rect> <rect x="165.8" y="43.3" transform="matrix(0.8945 -0.447 0.447 0.8945 -2.3721 78.9282)" class="st20" width="0.6" height="2.4"></rect> <rect x="167.4" y="42.4" transform="matrix(0.8945 -0.4471 0.4471 0.8945 -1.5495 79.5152)" class="st20" width="0.6" height="1.3"></rect> <rect x="169.5" y="41.5" transform="matrix(0.8945 -0.4471 0.4471 0.8945 -1.1507 80.4127)" class="st20" width="0.6" height="2.4"></rect> <rect x="171.1" y="40.6" transform="matrix(0.8945 -0.4471 0.4471 0.8945 -0.3411 80.9848)" class="st20" width="0.6" height="1.3"></rect> <rect x="173.2" y="39.6" transform="matrix(0.8945 -0.447 0.447 0.8945 6.985571e-02 81.8649)" class="st20" width="0.6" height="2.4"></rect> <rect x="174.8" y="38.7" transform="matrix(0.8945 -0.4471 0.4471 0.8945 0.893 82.4525)" class="st20" width="0.6" height="1.3"></rect> <rect x="176.9" y="37.8" transform="matrix(0.8945 -0.447 0.447 0.8945 1.2883 83.3256)" class="st20" width="0.6" height="2.4"></rect> <rect x="178.5" y="36.9" transform="matrix(0.8945 -0.4471 0.4471 0.8945 2.1117 83.9136)" class="st20" width="0.6" height="1.3"></rect> <rect x="180.6" y="35.9" transform="matrix(0.8945 -0.4471 0.4471 0.8945 2.5254 84.8063)" class="st20" width="0.6" height="2.4"></rect> <path class="st1" d="M205.5,54.2c0.3,0.4,0.2,0.9-0.2,1.2c-0.4,0.3-0.9,0.6-1.4,0.8c-2.9,1.4-5.2,0.3-6.4-2.1 c-1.4-2.9-0.1-5.4,2.4-6.6c0.4-0.2,0.9-0.4,1.4-0.5c0.5-0.1,0.9,0.2,1,0.6v0v0c0.1,0.4-0.2,0.9-0.6,1c-0.3,0.1-0.6,0.2-0.9,0.3 c-1.5,0.7-2.2,2.2-1.4,4c0.8,1.7,2.3,2.3,4,1.5c0.3-0.1,0.6-0.3,0.8-0.5C204.7,53.7,205.3,53.8,205.5,54.2L205.5,54.2z"></path> <path class="st1" d="M83.4,38.6l6.9,6.4c0,0-0.3,4.2-0.3,3.6c0-0.6-1.1-2.9-1.1-2.9L86,48.4l-6.4-9.1L83.4,38.6z"></path> <path class="st1" d="M90.1,48.3c-0.2,0.3-0.1-3.1-0.1-3.1s2.6-5.4,2.8-7l2.8,1.1l0.3,8.8l-3.9-3.4"></path> <path class="st2" d="M134.8,260.5l0.2-0.5c0.7,0.2,1.4,0.4,2.1,0.6l-0.1,0.5c-0.3-0.1-0.6-0.1-0.9-0.2 C135.6,260.8,135.2,260.6,134.8,260.5z M139.2,261.1c0.7,0.1,1.5,0.2,2.2,0.3l-0.1,0.6c-0.7-0.1-1.5-0.2-2.2-0.3L139.2,261.1z M130.5,258.7l0.2-0.5c0.7,0.3,1.4,0.6,2,0.9l-0.2,0.5C131.9,259.4,131.3,259.1,130.5,258.7L130.5,258.7z M126.6,256.5l0.3-0.5 c0.6,0.4,1.3,0.8,1.9,1.2l-0.3,0.5C127.9,257.3,127.3,256.9,126.6,256.5L126.6,256.5z M143.7,261.4c0.7,0,1.5,0,2.2-0.1l0,0.6 c-0.7,0.1-1.5,0.1-2.3,0.1L143.7,261.4z M123,253.9l0.4-0.4c0.6,0.5,1.2,0.9,1.8,1.4l-0.3,0.5C124.2,254.8,123.5,254.3,123,253.9 L123,253.9z M148.1,261.1c0.7-0.1,1.5-0.3,2.2-0.4l0.1,0.6c-0.7,0.2-1.5,0.3-2.2,0.4L148.1,261.1z M152.4,260.1 c0.7-0.2,1.4-0.5,2.1-0.8l0.2,0.5c-0.7,0.3-1.4,0.6-2.1,0.8L152.4,260.1z M156.5,258.4c0.6-0.3,1.3-0.7,1.9-1.1l0.3,0.5 c-0.6,0.4-1.3,0.8-2,1.1L156.5,258.4z M160.3,256.1c0.6-0.4,1.2-0.9,1.8-1.3l0.4,0.4c-0.6,0.5-1.2,0.9-1.8,1.3L160.3,256.1z M163.9,253.4c0.6-0.5,1.1-1,1.6-1.5l0.4,0.4c-0.5,0.5-1.1,1-1.7,1.5L163.9,253.4z M167.1,250.2c0.5-0.6,1-1.1,1.5-1.7l0.4,0.4 c-0.5,0.6-1,1.1-1.5,1.7L167.1,250.2z M169.9,246.8c0.4-0.6,0.9-1.2,1.3-1.9l0.5,0.3c-0.4,0.6-0.8,1.3-1.3,1.9L169.9,246.8z M172.3,243c0.4-0.6,0.7-1.3,1-2l0.5,0.2c-0.3,0.7-0.7,1.4-1.1,2L172.3,243z M174.2,239c0.2-0.6,0.4-1.1,0.6-1.7 c0-0.1,0.1-0.3,0.1-0.4l0.5,0.1c0,0.1-0.1,0.3-0.1,0.4c-0.2,0.6-0.4,1.1-0.6,1.8L174.2,239z M175.3,232.5l0.6-0.1 c0.1,0.8,0.1,1.6,0,2.3l-0.6-0.1C175.4,234,175.4,233.2,175.3,232.5L175.3,232.5z"></path> <polyline class="st29" points="81,235.1 120.4,243.9 121.9,242 "></polyline> <polygon class="st1" points="81,235.1 104.8,234.4 115.3,237.3 121.9,242 "></polygon> <polygon class="st1" points="126.6,250.6 123.7,244.1 81.2,235.2 113.8,250.6 "></polygon> <polygon class="st29" points="118.3,250.4 118.2,250.5 114,255.1 81.1,235.2 "></polygon> <path class="st24" d="M84.6,26.2c0,0,3.6,1.1,8.8,0.6c0,0-1.7,3.8-3.9,4.9C87.3,32.9,85.3,30.4,84.6,26.2z"></path> <path class="st8" d="M218.8,206.4c0,0,0-0.1,0-0.1l0-0.1l0-0.1c0,0,0-0.1,0.1-0.1c0.2-0.6,0.5-1.1,0.9-1.7h21.1 c0,0,6.2,3.2,0.3,8.6c-4.8,4.4-10,1.3-12.7,0.1c-2.1-0.9-7.5-4.6-9.9-6.1C218.7,206.7,218.8,206.6,218.8,206.4z"></path> <path class="st5" d="M218.6,206.9c0.1-0.2,0.1-0.4,0.2-0.5c0,0,0-0.1,0-0.1l0-0.1l0-0.1c0,0,0-0.1,0.1-0.1 c0.1-0.3,0.2-0.6,0.4-0.9c5.2,0.6,14.3,1.6,17.2,1.9c2.8,0.3,5.4,1.6,6.1,3.3c-0.3,0.8-0.5,1.9-1.5,2.6c-5,3.6-9.3,2.1-12,0.9 C227.2,212.9,221.1,208.7,218.6,206.9L218.6,206.9z"></path> <path class="st4" d="M235,205.2c-18-24.9-32.7-27.5-32.7-27.5s-22.5-0.6-26.1,1.3c-17.1,9.1-20.7,50.8-8.2,37.1 c1.3-1.5,7.8,1.3,7.8,1.3c0.8,0.4-0.1,7.5,0.3,8.7c1.1,4,2.6,9.4,6.7,9.4c7.7-0.1,18.3-4.4,23.8-9.9c6.2-6.2,4.4-11.4,7.1-19 C216,199.4,235.5,206,235,205.2z"></path> <path class="st5" d="M200.8,194.7c-1.8-0.8-3.6-1.5-5.4-2.2l7.9-5.7l5.6,0.2c0,0,2.2,1.5,3.4,2.4l-3.9-0.8l8.6,3.5 c0,0,3.3,1.5,2.5,1.8c-1,0.4-7.8-1.8-7.8-1.8c-1.7,0.5-3.4,1.1-5.1,1.9c-1.7,0.7-4.1,0.9-5.9,0.8 C200.9,194.8,200.9,194.8,200.8,194.7z"></path> <path class="st5" d="M169.1,203.6c9.1-3.6,22.1-9.4,26.5-11.1c1.2,0.4,4.8,0.6,5.9,1c-2.1,3.1-16.9,13.9-25.9,19.5 c-10.1,6.2-12.1,4.9-13.7,2.6S160.6,207,169.1,203.6z"></path> <path class="st30" d="M210.1,202.8c-0.3,0.7,0.1,1.3,0.8,1.3h34.7c0.8-0.1,1.5-0.6,1.8-1.3l8.8-24c0.3-0.7-0.1-1.1-0.8-1.1h-34.7 c-0.7,0-1.5,0.4-1.8,1.1L210.1,202.8z"></path> <path class="st30" d="M197.4,206.6c0,0.7,0.7,1.3,1.4,1.2h46.3c0.7,0,1.3-0.5,1.4-1.2v0v-1.1c0-0.7-0.6-1.4-1.4-1.4h-46.3 c-0.8,0-1.4,0.6-1.4,1.4V206.6z"></path> <path class="st8" d="M222.4,209.7l-7.3,1.5l-9.5-3.7c0,0,2-0.9,5-0.1c2.9,0.8,4.3,0.3,4.3,0.3l2.6-1.8l-2-2.1l-1.1-2.1l4.5,2.2 l2.7,2.6"></path> <path class="st5" d="M220.1,208.3c0.4-0.1,0.7-0.3,0.9-0.6h0.6c0.6,0.7,1.2,1.4,1.9,2c0,0.1,0,0.1-0.1,0.1l-7.2,1.5 c-1.8-0.3-2.7-0.6-3.1-0.9C215.5,209.9,217.8,209,220.1,208.3z"></path> <path class="st8" d="M165.2,216.9c3.1-0.3,11.3-4.4,15.8-7.1c6.2-3.7,16.3-12.6,19.1-15c0,0.1,0.1,0.2,0.1,0.3 c0.3,0.6-4.4,4.6-5.1,5.3c-2.2,2.3-4.4,4.1-6.8,6.1c-2.5,2.1-5.1,4.2-7.9,5.9c-2.7,1.7-5.7,3.1-8.4,4.7c-8.6,2.5-7.7,1.9-9.2-0.1 C164,217.7,163.2,217.1,165.2,216.9z"></path> <path class="st5" d="M191.1,166.7c0,0-0.9,11.9-3.9,15c-0.2,0.2-0.4,0.5-0.6,0.7c3.1,0.1,5.8,2.1,7,4.9h0l0.1,0c0.1,0,0.1,0,0.2,0 c0.6-2.1,2.1-3.8,4-4.9c-0.1-2.5,0.4-4.9,1.8-6.8C204.9,168.9,191.1,166.7,191.1,166.7z"></path> <path class="st8" d="M189.6,166.6c0,0,2.1,3.7-2.1,16c1.6,0.3,3.1,1,4.2,2.2c1.8,0.2,3.9-0.3,5.8-2.5c0-2.4,0.7-4.7,2.2-6.6 C204.9,168.9,189.6,166.6,189.6,166.6z"></path> <polygon class="st1" points="188.3,175.5 193.4,185.8 193.8,187.1 193.8,187.1 193,189.7 192.9,185.7 187.6,189.1 184.4,177.2 "></polygon> <polygon class="st1" points="198.8,175.8 193.8,186.1 193.3,188.4 192.8,189.4 193.4,189.9 195.9,185.5 200.2,188 202.1,177.6 "></polygon> <path class="st11" d="M199.2,169.4c0,0-14.1-4.2-17.7-8s3.6-3.2,4.6-9.8c1-6.5,6.4-23,9.4-12.9c3.1,10.1-2.2,13.4-1.7,8.7 c0.6-4.7-1.2-17.5,12.1-14.9c13.2,2.6,16.8,11.7,5.1,14.4s14.7-10,13-1.3c-1.7,8.7-9.4,6.7-12.1,6.2s11.6-5.2,8.9,3.8 S209.8,167.8,199.2,169.4z"></path> <path class="st5" d="M211.3,150.9c0,0,1.5,7-1.5,17.4c-3,10.4-8.7,12.5-17.2,9.4s-7.8-13.8-7.1-16.3c0.7-2.5-7.9-2.1-4.9-7.6 c2.9-5.6,6.1-2.6,6.1-0.2c0,2.4,0.9,5.6,3.1,4.1c2.2-1.5,0.3-11.4,4.2-9.1C197.8,150.7,204.7,154,211.3,150.9z"></path> <path class="st24" d="M205.6,169.3c0,0-4.4-0.1-10.3-2.9c0,0,0.9,5.4,3.1,7.7C200.6,176.5,203.6,174.3,205.6,169.3z"></path> <path class="st1" d="M181.9,241.8c1-0.5,2-1,3.1-1.4c1.5-0.5,2.5-0.7,3.4-0.5c0.9,0.1,1.8,0.8,2.1,1.7c0.4,1,0.1,2.1-0.9,3v0 c1.4-0.1,2.6,0.5,3.1,1.9c0.3,0.9,0.2,1.9-0.3,2.7c-0.6,0.9-1.8,1.7-3.9,2.5c-0.9,0.3-1.8,0.6-2.7,0.8L181.9,241.8z M185.8,245.1 l0.8-0.3c1.3-0.5,1.8-1.2,1.5-2.1c-0.3-0.8-1.1-1-2.2-0.6c-0.4,0.1-0.7,0.3-1,0.4L185.8,245.1z M187.6,250c0.3-0.1,0.6-0.2,1-0.3 c1.1-0.4,1.9-1.2,1.5-2.3c-0.4-1.1-1.5-1.2-2.8-0.7l-0.9,0.3L187.6,250z"></path> <path class="st31" d="M148.6,17.6c0.3,1.1,1.7,6.2,2.4,6.6c1.3,0.6,1.4-0.9,1.2-1.8l1.2-0.5c1.9,6-4.2,7.1-5.4,3.4 c-0.7-2.2-1.3-4.5-1.9-6.8l-1.7,0.6c0.7,2.3,2.4,7.6,1.9,9.3c-0.6,2.2-4.4,2.2-3.4-1.5c0.7-2.6,0.3-4.6-0.4-7.1 c-1.6,0.6-1.7,1-2,2.7l-1.2,0.4c-0.3-3.1-0.3-4.8,3-6l8.1-3.1l1,2.6L148.6,17.6z"></path> </g> <path class="st1" d="M148.6,270l-8.8-8.6l3.1-11.9l11.9-3.3l8.8,8.6l-3.1,11.9L148.6,270z M148,248.6l-4.6,1.3l-2.9,11.3l8.3,8.2 l11.2-3.1L163,255l-8.3-8.2L148,248.6"></path> <g id="Layer_1_2_"> <polyline class="st0" points="220.4,99.3 220.4,95.8 223.3,94.3 "></polyline> <polyline class="st0" points="216,91.8 216,88.3 219,86.7 "></polyline> <polyline class="st0" points="224.7,91.8 224.7,88.3 227.6,86.5 "></polyline> <polyline class="st0" points="210,94.8 214.3,92.3 218.6,94.8 218.6,99.8 214.3,102.3 "></polyline> <polygon class="st0" points="218.6,94.8 222.9,92.3 227.2,94.8 227.2,99.8 222.9,102.3 218.6,99.8 "></polygon> <polyline class="st0" points="231.5,102.3 227.3,99.8 227.3,94.8 231.5,92.3 235.9,94.8 "></polyline> <polyline class="st0" points="210,84.8 214.3,87.3 214.3,92.3 210,94.8 "></polyline> <polygon class="st0" points="214.3,87.3 218.6,84.8 222.9,87.3 222.9,92.3 218.6,94.8 214.3,92.3 "></polygon> <polygon class="st0" points="222.9,87.3 227.2,84.8 231.5,87.3 231.5,92.3 227.2,94.8 222.9,92.3 "></polygon> <polyline class="st0" points="235.9,94.8 231.5,92.3 231.5,87.3 235.9,84.8 "></polyline> <polyline class="st0" points="218.6,81.5 218.6,84.7 214.3,87.2 210,84.7 "></polyline> <polyline class="st0" points="227.2,81.5 227.2,84.7 222.9,87.2 218.6,84.7 218.6,81.5 "></polyline> <polyline class="st0" points="235.8,84.7 231.5,87.2 227.2,84.7 227.2,81.5 "></polyline> <path class="st1" d="M158.5,110.4c-0.1-0.1,0-0.3,0.1-0.4c0.1-0.1,0.3,0,0.4,0.1l0,0c0.2,0.4,0.4,0.7,0.5,1c0.1,0.1,0,0.3-0.1,0.4 c-0.1,0.1-0.3,0-0.4-0.1l0,0C158.9,111.1,158.7,110.8,158.5,110.4C158.5,110.4,158.5,110.4,158.5,110.4z"></path> <path class="st2" d="M164.5,113.5c-0.1-0.1,0-0.3,0.1-0.3c0.1-0.1,0.3-0.1,0.4,0.1c0,0,0,0,0,0c0.4,0.6,0.9,1.3,1.3,1.9 c0.1,0.1,0.1,0.3,0,0.4c-0.1,0.1-0.3,0.1-0.4,0c0,0,0,0,0,0C165.4,114.9,165,114.2,164.5,113.5 C164.5,113.5,164.5,113.5,164.5,113.5z M167.3,117.2c0-0.1,0-0.2,0.1-0.3c0.1-0.1,0.3-0.1,0.4,0l0,0c0.5,0.6,1,1.1,1.6,1.7 c0.1,0.1,0.1,0.3,0,0.4c-0.1,0.1-0.2,0.1-0.4,0l0,0c-0.6-0.5-1.1-1.1-1.6-1.7C167.4,117.3,167.3,117.3,167.3,117.2L167.3,117.2z M170.6,120.5c0-0.1,0-0.2,0-0.3c0.1-0.1,0.2-0.1,0.4-0.1c0,0,0,0,0,0c0.6,0.5,1.2,0.9,1.8,1.4c0.1,0.1,0.2,0.3,0.1,0.4 c-0.1,0.1-0.2,0.1-0.3,0.1l0,0c-0.6-0.4-1.2-0.9-1.8-1.4C170.7,120.6,170.6,120.5,170.6,120.5L170.6,120.5z M174.3,123.1 c0-0.1,0-0.1,0-0.2c0.1-0.1,0.2-0.2,0.3-0.1c0,0,0,0,0,0c0.6,0.4,1.3,0.8,1.9,1.1c0.1,0.1,0.2,0.2,0.1,0.4 c-0.1,0.1-0.2,0.2-0.3,0.1c0,0,0,0,0,0c-0.6-0.4-1.3-0.7-1.9-1.1C174.3,123.3,174.3,123.2,174.3,123.1z M178.2,125.3 c0-0.1,0-0.1,0-0.2c0-0.1,0.2-0.2,0.3-0.2h0c0.6,0.3,1.3,0.6,2,0.9c0.1,0.1,0.2,0.2,0.2,0.4c0,0.1-0.2,0.2-0.3,0.2h0 c-0.7-0.3-1.4-0.6-2.1-0.9C178.3,125.4,178.2,125.3,178.2,125.3z M182.3,126.8c0-0.1,0-0.1,0-0.2c0-0.1,0.1-0.2,0.3-0.2h0 c0.7,0.2,1.4,0.4,2.1,0.6c0.1,0.1,0.2,0.2,0.2,0.4c0,0.1-0.1,0.2-0.3,0.2c0,0,0,0,0,0c-0.7-0.2-1.4-0.4-2.1-0.6 C182.4,127,182.3,126.9,182.3,126.8L182.3,126.8z M186.5,127.9c0-0.1,0-0.1,0-0.1c0-0.1,0.1-0.2,0.3-0.2h0 c0.7,0.1,1.4,0.3,2.1,0.4c0.1,0,0.3,0.2,0.2,0.3c0,0.1-0.1,0.3-0.3,0.3h0c-0.7-0.1-1.4-0.2-2.1-0.4 C186.6,128.1,186.5,128,186.5,127.9L186.5,127.9z M190.8,128.5c0,0,0-0.1,0-0.1c0-0.1,0.1-0.3,0.3-0.3c0,0,0,0,0,0 c0.7,0.1,1.4,0.1,2.1,0.1c0.1,0,0.3,0.1,0.3,0.3c0,0.1-0.1,0.3-0.2,0.3h0c-0.7,0-1.4-0.1-2.1-0.1 C190.9,128.7,190.8,128.6,190.8,128.5L190.8,128.5z M193.5,127.4c-0.1-0.3-0.2-0.5-0.2-0.8c0-0.1,0-0.3,0.2-0.4 c0.1,0,0.3,0.1,0.3,0.2c0.1,0.3,0.1,0.5,0.2,0.8c0.1,0.5,0.4,0.9,0.5,1.4c0.1,0.1,0,0.3-0.1,0.4c-0.1,0.1-0.3,0-0.4-0.1l0,0 C193.8,128.4,193.7,127.9,193.5,127.4L193.5,127.4z M192.7,124.4C192.7,124.3,192.7,124.3,192.7,124.4c-0.1-0.6-0.1-1.1-0.2-1.7 c0-0.3,0-0.5,0-0.8c0-0.1,0.1-0.3,0.2-0.3h0c0.1,0,0.3,0.1,0.3,0.3c0,0.2,0,0.5,0,0.7c0,0.5,0.1,1,0.2,1.6c0,0.1-0.1,0.3-0.2,0.3 l0,0C192.9,124.6,192.8,124.5,192.7,124.4z M195,131.1c-0.1-0.1,0-0.3,0.1-0.4c0.1-0.1,0.3,0,0.4,0.1c0,0,0,0,0,0 c0.4,0.7,0.8,1.3,1.2,2c0.1,0.1,0.1,0.3-0.1,0.4c-0.1,0.1-0.3,0.1-0.4-0.1c0,0,0,0,0,0C195.8,132.5,195.4,131.8,195,131.1 C195.1,131.1,195,131.1,195,131.1L195,131.1z M195,128.8C195,128.7,195,128.7,195,128.8c-0.1-0.2,0.1-0.4,0.2-0.4c0,0,0,0,0,0h0.5 c0.5,0,1.1,0,1.6,0c0.1,0,0.3,0.1,0.3,0.3c0,0.1-0.1,0.3-0.2,0.3c-0.5,0-1.1,0-1.6,0h-0.5C195.2,128.9,195.1,128.8,195,128.8 L195,128.8z M197.6,135c0-0.1,0-0.2,0.1-0.3c0.1-0.1,0.3-0.1,0.4,0c0,0,0,0,0,0c0.3,0.4,0.6,0.8,1,1.2l0.5,0.6 c0.1,0.1,0.1,0.3,0,0.4c-0.1,0.1-0.2,0.1-0.4,0l0,0c-0.2-0.2-0.3-0.4-0.5-0.6c-0.4-0.4-0.7-0.8-1-1.2 C197.7,135,197.6,135,197.6,135L197.6,135z M192.7,119.7c0-0.1,0-0.1,0-0.1c0.1-0.8,0.3-1.5,0.6-2.3c0-0.1,0.2-0.2,0.3-0.2h0 c0.1,0.1,0.2,0.2,0.1,0.4c-0.2,0.7-0.4,1.4-0.5,2.2c0,0.1-0.1,0.2-0.3,0.2c0,0,0,0,0,0C192.8,119.9,192.8,119.8,192.7,119.7 L192.7,119.7z M200.8,138.4c0-0.1,0-0.2,0-0.3c0.1-0.1,0.2-0.1,0.4,0l0,0c0.5,0.5,1.1,1,1.7,1.5c0.1,0.1,0.1,0.3,0.1,0.4 c-0.1,0.1-0.2,0.1-0.4,0.1c0,0,0,0,0,0c-0.6-0.5-1.2-1-1.7-1.6C200.8,138.5,200.8,138.4,200.8,138.4L200.8,138.4z M194.1,115.4 c0-0.1,0-0.2,0-0.2c0.4-0.7,0.8-1.3,1.3-1.9c0.1-0.1,0.2-0.1,0.4,0l0,0c0.1,0.1,0.1,0.3,0,0.4c-0.5,0.6-0.9,1.1-1.2,1.8 c-0.1,0.1-0.2,0.2-0.3,0.1c0,0,0,0,0,0C194.2,115.5,194.1,115.4,194.1,115.4L194.1,115.4z M199.3,128.5 C199.3,128.5,199.3,128.5,199.3,128.5c0-0.2,0.1-0.4,0.2-0.4l0,0c0.7-0.1,1.4-0.2,2.1-0.4c0.1,0,0.3,0.1,0.3,0.2 c0,0.1,0,0.3-0.2,0.4c-0.7,0.2-1.4,0.3-2.1,0.4C199.4,128.7,199.3,128.6,199.3,128.5L199.3,128.5z M204.2,141.3c0-0.1,0-0.2,0-0.3 c0.1-0.1,0.2-0.1,0.3-0.1l0,0c0.6,0.4,1.2,0.9,1.8,1.4c0.1,0.1,0.2,0.3,0.1,0.4c-0.1,0.1-0.2,0.2-0.3,0.1c0,0,0,0,0,0 c-0.6-0.4-1.3-0.9-1.8-1.4C204.3,141.5,204.2,141.4,204.2,141.3L204.2,141.3z M196.9,112c-0.1-0.1,0-0.3,0.1-0.3 c0.6-0.4,1.2-0.8,1.9-1.1c0.1-0.1,0.3,0,0.4,0.2l0,0l0,0c0.1,0.1,0,0.3-0.1,0.4c-0.6,0.3-1.2,0.6-1.8,1 C197.2,112.3,197.1,112.2,196.9,112L196.9,112C196.9,112.1,196.9,112.1,196.9,112L196.9,112z M207.9,144c0-0.1,0-0.2,0-0.2 c0.1-0.1,0.2-0.2,0.3-0.1c0,0,0,0,0,0c0.6,0.4,1.3,0.8,1.9,1.2c0.1,0.1,0.2,0.3,0.1,0.4c-0.1,0.1-0.2,0.2-0.3,0.1c0,0,0,0,0,0 c-0.6-0.4-1.3-0.8-1.9-1.2C207.9,144.1,207.9,144.1,207.9,144L207.9,144z M203.4,127.5c-0.1-0.1,0-0.3,0.1-0.4 c0.6-0.3,1.2-0.6,1.8-0.9l0.1,0c0.1-0.1,0.3,0,0.4,0.1c0,0,0,0,0,0c0.1,0.1,0,0.3-0.1,0.4c-0.6,0.4-1.2,0.7-1.9,1 C203.6,127.7,203.4,127.6,203.4,127.5C203.4,127.5,203.4,127.5,203.4,127.5C203.4,127.5,203.4,127.5,203.4,127.5z M211.7,146.4 c0-0.1,0-0.1,0-0.2c0.1-0.1,0.2-0.2,0.3-0.1c0,0,0,0,0,0c0.6,0.4,1.3,0.8,1.9,1.1c0.1,0.1,0.2,0.3,0.1,0.4 c-0.1,0.1-0.2,0.2-0.3,0.1c0,0,0,0,0,0c-0.6-0.4-1.3-0.8-1.9-1.1C211.8,146.5,211.7,146.4,211.7,146.4L211.7,146.4z M200.8,110.6 C200.8,110.5,200.8,110.5,200.8,110.6c0-0.2,0.1-0.3,0.2-0.4l0,0c0.7,0,1.5,0,2.2,0.2c0.1,0.1,0.2,0.2,0.2,0.4s-0.1,0.2-0.3,0.2h0 c-0.7-0.1-1.4-0.2-2.1-0.2C201,110.8,200.9,110.7,200.8,110.6z M206.9,125.1c0-0.1,0-0.2,0.1-0.3c0.5-0.5,0.9-1.1,1.3-1.7 c0.1-0.1,0.2-0.1,0.4-0.1c0,0,0,0,0,0c0.1,0.1,0.1,0.3,0.1,0.4c-0.4,0.6-0.9,1.2-1.4,1.8c-0.1,0.1-0.3,0.1-0.4,0c0,0,0,0,0,0 C207,125.2,206.9,125.1,206.9,125.1z M215.5,148.7c0-0.1,0-0.1,0-0.2c0.1-0.1,0.2-0.2,0.3-0.1c0,0,0,0,0,0 c0.6,0.4,1.3,0.8,1.9,1.1c0.1,0.1,0.2,0.3,0.1,0.4c-0.1,0.1-0.2,0.2-0.3,0.1h0c-0.6-0.4-1.3-0.8-1.9-1.1 C215.6,148.8,215.5,148.7,215.5,148.7z M205,111.5c0-0.1,0-0.1,0-0.2c0-0.1,0.2-0.2,0.3-0.1c0,0,0,0,0,0c0.7,0.4,1.3,0.8,1.9,1.3 c0.1,0.1,0.1,0.3,0.1,0.4c-0.1,0.1-0.2,0.1-0.4,0.1l0,0c-0.6-0.5-1.1-0.9-1.8-1.2C205.1,111.7,205,111.6,205,111.5z M209.2,121.3 c0-0.1,0-0.1,0-0.2c0.2-0.7,0.4-1.4,0.4-2.2c0-0.1,0.1-0.3,0.2-0.3h0c0.1,0,0.3,0.2,0.3,0.3c0,0.8-0.2,1.6-0.4,2.4 c0,0.1-0.2,0.2-0.3,0.2h0C209.3,121.5,209.2,121.4,209.2,121.3z M219.4,151c0-0.1,0-0.1,0-0.2c0.1-0.1,0.2-0.2,0.3-0.1 c0,0,0,0,0,0c0.6,0.4,1.3,0.8,1.9,1.2c0.1,0.1,0.2,0.3,0.1,0.4c-0.1,0.1-0.2,0.2-0.3,0.1c0,0,0,0,0,0c-0.6-0.4-1.3-0.8-1.9-1.2 C219.4,151.1,219.4,151.1,219.4,151z M208.4,114.6c0-0.1,0-0.3,0.1-0.3c0.1-0.1,0.3-0.1,0.4,0.1v0c0.4,0.6,0.6,1.1,0.9,1.8 c0.1,0.1,0.1,0.3,0.1,0.5c0,0.1,0,0.3-0.2,0.4c-0.1,0-0.3-0.1-0.3-0.2s-0.1-0.3-0.1-0.4c-0.2-0.6-0.5-1.1-0.8-1.6 C208.4,114.6,208.4,114.6,208.4,114.6z M223.1,153.5c0-0.1,0-0.2,0-0.2c0.1-0.1,0.2-0.2,0.3-0.1c0,0,0,0,0,0 c0.6,0.4,1.3,0.9,1.9,1.3c0.1,0.1,0.1,0.3,0.1,0.4c-0.1,0.1-0.2,0.1-0.3,0.1l0,0c-0.6-0.4-1.2-0.9-1.8-1.3 C223.2,153.6,223.2,153.5,223.1,153.5z M226.8,156.2c0-0.1,0-0.2,0-0.3c0.1-0.1,0.2-0.1,0.3-0.1c0,0,0,0,0,0 c0.6,0.5,1.2,1,1.7,1.5c0.1,0.1,0.1,0.3,0.1,0.4c-0.1,0.1-0.2,0.1-0.4,0.1l0,0c-0.5-0.5-1.1-1-1.7-1.5 C226.8,156.3,226.8,156.3,226.8,156.2L226.8,156.2z M230.1,159.3c0-0.1,0-0.2,0.1-0.3c0.1-0.1,0.2-0.1,0.4,0l0,0 c0.5,0.6,1.1,1.1,1.6,1.7c0.1,0.1,0.1,0.3,0,0.4c-0.1,0.1-0.3,0.1-0.4,0c0,0,0,0,0,0c-0.5-0.6-1-1.1-1.5-1.7 C230.2,159.4,230.1,159.4,230.1,159.3z M237.7,178.4c0-0.1,0-0.1,0-0.1c0.1-0.8,0.1-1.5,0.1-2.3c0-0.1,0.1-0.3,0.2-0.3h0 c0.1,0,0.3,0.1,0.3,0.3c0,0.8,0,1.6-0.1,2.4c0,0.1-0.1,0.2-0.3,0.2h0C237.8,178.6,237.7,178.6,237.7,178.4L237.7,178.4z M233.1,162.9c0-0.1,0-0.2,0.1-0.3c0.1-0.1,0.3-0.1,0.4,0.1c0,0,0,0,0,0c0.4,0.6,0.9,1.3,1.3,2c0.1,0.1,0.1,0.3-0.1,0.4 c-0.1,0.1-0.3,0-0.4-0.1c0,0,0,0,0,0C234,164.3,233.5,163.6,233.1,162.9C233.1,163,233.1,162.9,233.1,162.9z M237.5,173.7 C237.5,173.7,237.5,173.7,237.5,173.7c-0.1-0.8-0.3-1.6-0.5-2.4c-0.1-0.1,0-0.3,0.1-0.4c0.1-0.1,0.3,0,0.4,0.1c0,0,0,0,0,0.1 c0.2,0.8,0.4,1.6,0.5,2.4c0,0.1-0.1,0.3-0.2,0.3l0,0C237.7,173.9,237.6,173.9,237.5,173.7L237.5,173.7z M235.4,167 c-0.1-0.1,0-0.3,0.1-0.4c0.1-0.1,0.3,0,0.4,0.1c0,0,0,0,0,0c0.4,0.7,0.6,1.5,0.9,2.2c0.1,0.1,0,0.3-0.1,0.4 c-0.1,0.1-0.3,0-0.4-0.1c0,0,0-0.1,0-0.1C236.1,168.4,235.8,167.7,235.4,167L235.4,167z"></path> <path class="st1" d="M232.6,181.9c0-0.1,0-0.1,0-0.2c0.1-0.4,0.2-0.7,0.3-1.1c0-0.1,0.1-0.2,0.3-0.2h0c0.1,0.1,0.2,0.2,0.2,0.4 c-0.1,0.4-0.2,0.8-0.3,1.1c0,0.1-0.2,0.2-0.3,0.2h0C232.7,182,232.7,182,232.6,181.9z"></path> <path class="st1" d="M110.5,38.1c0.3-0.2,0.6-0.4,0.9-0.5l0.3,0.4c-0.3,0.2-0.6,0.4-0.9,0.5L110.5,38.1z"></path> <path class="st2" d="M113.3,36.6c0.6-0.3,1.3-0.6,1.9-0.9l0.2,0.5c-0.6,0.3-1.3,0.6-1.9,0.9L113.3,36.6z M117.3,35.4l-0.2-0.5l0,0 c0.6-0.2,1.3-0.5,2-0.7l0.1,0.5C118.6,34.9,118,35.2,117.3,35.4z M121.3,34.2l-0.1-0.5c0.7-0.2,1.4-0.3,2-0.5l0.1,0.5 C122.6,33.8,121.9,34,121.3,34.2L121.3,34.2z M125.3,33.3l-0.1-0.5c0.7-0.1,1.4-0.2,2.1-0.2l0.1,0.5 C126.7,33.2,126,33.3,125.3,33.3L125.3,33.3z M129.4,33l0-0.5c0.7,0,1.4,0,2.1,0v0.5C130.8,32.9,130.1,33,129.4,33L129.4,33z M133.5,33l0-0.5c0.7,0,1.4,0.1,2.1,0.2l-0.1,0.5C134.9,33.1,134.2,33.1,133.5,33L133.5,33z M137.6,33.5l0.1-0.5 c0.7,0.1,1.4,0.2,2.1,0.4l-0.1,0.5C139,33.7,138.3,33.6,137.6,33.5z M141.6,34.3l0.1-0.5c0.7,0.2,1.4,0.4,2,0.6l-0.2,0.5 C143,34.7,142.3,34.5,141.6,34.3L141.6,34.3z M145.6,35.6l0.2-0.5c0.6,0.2,1.3,0.5,1.9,0.7l-0.2,0.5 C146.8,36,146.2,35.8,145.6,35.6L145.6,35.6z M149.4,37.1l0.2-0.5c0.6,0.3,1.3,0.6,1.9,0.9l-0.2,0.5 C150.6,37.7,150,37.4,149.4,37.1L149.4,37.1z M153,39l0.3-0.4c0.6,0.4,1.2,0.7,1.8,1.1l-0.3,0.4C154.2,39.7,153.6,39.3,153,39 L153,39z M156.5,41.2l0.3-0.4c0.6,0.4,1.1,0.8,1.7,1.2l-0.3,0.4C157.7,41.9,157.1,41.5,156.5,41.2L156.5,41.2z M159.9,43.6 l0.3-0.4c0.5,0.4,1.1,0.9,1.6,1.4l-0.4,0.4C160.9,44.5,160.4,44.1,159.9,43.6L159.9,43.6z M163,46.3l0.4-0.4c0.5,0.5,1,1,1.5,1.5 l-0.4,0.4C164,47.3,163.5,46.8,163,46.3L163,46.3z M165.8,49.3l0.4-0.4c0.5,0.5,0.9,1.1,1.4,1.6l-0.4,0.3 C166.8,50.3,166.3,49.8,165.8,49.3L165.8,49.3z M168.5,52.5l0.4-0.3c0.4,0.6,0.8,1.1,1.2,1.7l-0.4,0.3 C169.3,53.6,168.9,53,168.5,52.5L168.5,52.5z M170.8,55.9l0.4-0.3c0.4,0.6,0.7,1.2,1.1,1.8l-0.4,0.3 C171.6,57,171.2,56.4,170.8,55.9L170.8,55.9z M178.8,76.9c-0.1-0.7-0.2-1.4-0.4-2l0.5-0.1c0.1,0.7,0.3,1.4,0.4,2.1L178.8,76.9z M173,59.4l0.5-0.3c0.3,0.6,0.6,1.2,1,1.9l-0.5,0.2C173.6,60.6,173.3,60,173,59.4L173,59.4z M178,72.9c-0.1-0.7-0.3-1.4-0.5-2 l0.5-0.1c0.2,0.7,0.4,1.4,0.5,2L178,72.9z M174.8,63.1l0.5-0.2c0.3,0.6,0.6,1.3,0.8,1.9l-0.5,0.2C175.3,64.4,175,63.7,174.8,63.1 L174.8,63.1z M177,68.9c-0.2-0.6-0.4-1.3-0.6-2l0.5-0.2c0.2,0.6,0.4,1.3,0.6,2L177,68.9z"></path> <path class="st1" d="M179.2,80.1c0-0.4-0.1-0.7-0.1-1l0.5-0.1c0,0.4,0.1,0.7,0.1,1.1L179.2,80.1z"></path> <path class="st3" d="M94.8,55c0,0,9.3-11.4,15.5-17.5s16.6-23.4,2.3-26.8c-14.3-3.4-7.1-8-15.1-9.9S83.9,1.2,81.6,7 c-2.3,5.8-8.7,15.1-13.6,13.9c-4.9-1.2-29.3-5.7-25.7,17.2C45.8,61.1,88.5,83,94.8,55z"></path> <path class="st4" d="M98.8,42.3c0,0,3.6,0.7,5,14.4s2.9,30-0.2,30.7c-3.1,0.7-11.7-2.9-9.7-16.8S98.8,42.3,98.8,42.3z"></path> <path class="st5" d="M121.2,47.9c-0.3-1.5-0.7-3-1.3-4.4c0,0-0.4,0.7-0.2,2.2c0.1,1.7,0.8,4.3,0.1,5.2c-1.3,1.6-1.1,2-1.2,0.9 c-0.1-1.1,0.8-2.7-0.6-4.8c-0.1,1.6-0.3,3.2-0.6,4.7c-0.4,2,0.3,4.7-1.5,8.5c-4.3,4.8-10.6,11.8-14.5,17.8 c-4.2,6.4-5.6,8.4-3.1,8.9c5.1,1.2,8.8-4.1,10.2-6.6c2.6-4.7,8.9-19.3,8.9-19.3l0.1-0.1c1.8-2.1,3.8-5.4,4.1-6.7 C121.5,53.8,121.6,50.7,121.2,47.9z"></path> <path class="st5" d="M121.1,54.6c0,0,1.5-4.1,1.4-5c-0.1-0.6-0.8-3.5-0.8-3.5s-0.7,1.5-0.4,2.6S121.1,54.6,121.1,54.6z"></path> <path class="st6" d="M96.7,91.8c-2.9-5.5-13.3-4.1-20.6,0H96.7z"></path> <path class="st4" d="M71,91.8h27L96.6,68c0,0,3.1-24,3.3-25.2c0.2-1.2-12.2-6.9-14.2-4.7c-3.7,4-12.5,0.6-12.5,0.6 S75.5,75.6,71,91.8z"></path> <path class="st4" d="M76.3,40.3c-3.6-2.9-5.8-3.1-8.9,4.3c-6.9,16.4-6.9,41.4,0,42.9c4.1,0.9,5.3-1.4,7.3-3.9 C76.7,81.1,79.4,42.8,76.3,40.3z"></path> <path class="st7" d="M114.3,72.2c-0.5,1-1.5,1.7-2.6,1.8H96.3c-1.1,0-1.6-0.8-1.2-1.8l10-24.1c0.4-0.9,1.6-1.9,2.6-1.9H123 c1.1,0,1.6,1,1.2,1.9L114.3,72.2z"></path> <path class="st5" d="M100.2,60c0,0-1.4,2.5-0.5,2.7c0.9,0.2,6.9-3.1,6.9-3.1l1.9-0.2l-4.6,3.7c-0.4,0.2,3-2.2,4.8-2.9 c1-0.4,1.7-0.2,2-0.3c0.7-0.2-6.1,4.3-6.1,4.3l2.9-0.9c0,0,1.6-0.4,0.8,0.5c-0.4,0.5-1.1,0.6-2,1.8s-5.1,4.9-9.3,5.4 c-1.3,0.2-2.5,0.6-3.6,1.4l-20,13c0,0-9.2,1.6-8.2-3.6c1.1-5.1,18.6-10.6,24.9-12.6c4.1-1.4,4.4-2.5,5.3-3.4 C96.3,65,97.9,61.2,100.2,60z"></path> <path class="st5" d="M93.6,29.7l-6-6.5c-0.9,4.4-1.6,8.9-2,13.5c-0.1,1.6-0.9,2.4-1.7,2.8l4.7,6.3c0.4,0.1,0.9,0.2,1.3,0.2 c0.3,0,0.7,0,1.2,0c0.2-0.2,0.4-0.4,0.6-0.6c0.1-0.1,0.2-0.3,0.3-0.4l0,0l0.1-0.1c0.4-0.5,0.7-1,0.9-1.6c0.1-0.1,0.2-0.3,0.2-0.5 c0.2-0.5,0.4-1,0.6-1.4C90.7,37.1,93.6,29.7,93.6,29.7z"></path> <path class="st8" d="M92.6,36c0-0.4,0.1-0.9,0.1-1.3c0-0.3,0.1-0.5,0.2-0.7c0.2-1.1,0.6-2.1,1-3.1l-7.1-6.5 c-0.8,3.4-1.5,6.8-2,10.3c0,0.2,0.1,0.3,0.1,0.5c0,0,0,0.1,0.1,0.1c0.1,0.3,0.2,0.6,0.3,1c0.4,1.1,1.1,1.9,2.1,3.2 c1.3,1.6,3.2,0.6,5.1-1.4C92.5,37.3,92.5,36.7,92.6,36z"></path> <path class="st5" d="M81.9,23.2c1.3-3.5,4.9-3,7.5-4.5c2.1-1.2,4.1-7,6.9-6.4c9.4,2,2.8,25.9-7.4,25.1c-5.9-0.5-7.8-6.2-7.5-11.7 C81.5,24.8,81.6,24,81.9,23.2z"></path> <path class="st9" d="M202.1,160.1V88.7c0-1.9-1.5-3.4-3.4-3.4H82.8c-1.9,0-3.4,1.5-3.4,3.4v71.4H202.1z"></path> <rect x="85.1" y="91.1" class="st1" width="111.2" height="62.6"></rect> <path class="st7" d="M79.2,160.2v10.3c0,2,1.6,3.6,3.6,3.6h115.9c2,0,3.6-1.6,3.6-3.6v-10.3H79.2z"></path> <path class="st7" d="M162,189.3c0,0-0.9-0.4-1.9-0.8c-1.1-0.4-2.4-0.9-3.2-1.3c-1.4-0.6-1.5-1.1-2-3.3c-0.6-2.4-1.1-7.6-1.3-9.8 h-25.7c-0.2,2.2-0.7,7.4-1.3,9.8c-0.5,2.2-0.6,2.6-2,3.3c-0.8,0.4-2.1,0.9-3.1,1.3l0,0c-1,0.4-1.9,0.7-1.9,0.7s-0.8,0.5,0.5,0.5 h41.3C162.6,189.7,162,189.3,162,189.3z"></path> <path class="st10" d="M153.9,176.8c-0.1-1.1-0.2-2-0.3-2.7h-25.7c-0.1,0.7-0.1,1.6-0.3,2.7H153.9z"></path> <polygon class="st10" points="181.9,193.4 116.8,193.4 101.1,203.1 175.1,203.1 "></polygon> <polygon class="st7" points="181.4,192.6 116.3,192.6 100.6,202.4 174.6,202.4 "></polygon> <path class="st11" d="M80.1,128.6c0,4.6,0,9.3,0,13.9c0,0.1,0,0.1,0,0.1c0,0.1,0,0.2,0,0.3c-0.1,2.6,0.1,5.3-0.2,8 c-0.1,1-0.2,2-0.3,3c-0.4,2.7-1.2,5.2-2.4,7.6c-1.2,2.4-2.8,4.5-4.8,6.3c-2.2,1.8-4.5,3.3-7.3,4c-2.3,0.6-4.7,0.8-7-0.1 c-1.4-0.5-2.7-1.4-3.7-2.6c-1.5-1.8-2.5-3.9-3.1-6.1c-0.8-2.6-1.2-5.2-1.4-7.9c-0.1-2-0.2-3.9-0.3-5.9c-0.1-2,0-4,0-6 c0,0,0-0.1,0-0.1l0-33.1c0-1.6,0-3.1,0-4.6c0-1.2,0.1-2.3,0.2-3.5c0.1-0.9,0.2-1.9,0.3-2.9c0.1-0.8,0.3-1.7,0.5-2.5 c0.2-0.9,0.4-1.8,0.7-2.7c1.7-4.5,4.1-8.3,8.4-10.8c1.6-0.9,3.4-1.5,5.2-1.8c1.8-0.3,3.5-0.5,5.3-0.5c1.1,0.1,2.2,0.2,3.4,0.3 c3.3,0.4,6.5,1.5,9.4,3.3c4.1,2.4,7.2,5.8,9.2,10.1c0.6,1.2,0.9,2.6,1.2,3.9c0.3,1,0.4,2,0.6,2.9c0.1,1.2,0.1,2.3,0.2,3.5 c0,0.1-0.2,0.3-0.4,0.4c-0.8,0.2-1.5,0.4-2.3,0.6l-0.6,0.1c-0.9,0.1-1.9,0.3-2.8,0.4c-1.6,0.2-3.2,0.4-4.8,0.5 c-1,0.1-2,0.1-3.1,0.1c-0.1,0-0.2,0-0.4,0v0.5c0,5.9,0,11.7,0,17.6C80.1,126.3,80.1,127.4,80.1,128.6"></path> <path class="st4" d="M38.6,173.2c0.9,5.1,2.2,10,3.8,14.9c0.7,2.2,1.4,4.4,2.3,6.5c1.2,3,2.4,5.9,3.7,8.8c1.5,3.1,3.1,6.2,5.3,8.9 c1.1,1.4,2.4,2.6,3.9,3.7c0.1,0.1,0.3,0.3,0.4,0.4c0.2,0.1,0.3,0.1,0.5,0.2c0.4,0.3,0.8,0.5,1.2,0.8c0.8,0.4,1.6,0.8,2.5,1H92 c1.5-0.5,2.9-1,4.3-1.7c0.7-0.3,1.4-0.6,2.1-1c-0.1-0.3-0.2-0.5-0.3-0.7c-1.4-2.2-2.5-4.6-3.6-6.9c-1.3-3-2.4-6-3.3-9.1 c-1.3-4.3-2.4-8.6-3.2-13.1c-0.3-1.3-0.5-2.6-0.7-3.9c-0.2-1.2-0.2-2.5-0.4-3.7c-0.4-3.3-0.3-6.7-0.2-10c0.1-2,0.3-4.1,0.6-6.1 c0.2-1.6,0.5-3.3,0.9-4.9c0.4-1.6,1.1-3.2,2.2-4.5c1.2-1.3,2.8-2.2,4.6-2.5c0.6-0.1,1.3-0.1,1.9-0.2c0.1,0,0.2-0.1,0.3-0.1 c-0.1-0.1-0.2-0.2-0.4-0.2c-2.4-1.1-4.7-2.1-7.1-3.1c-3.2-1.4-6.4-2.6-9.6-3.9c0,0.1,0,0.2,0,0.3c-0.1,2.6,0.1,5.3-0.2,7.9 c-0.1,1-0.2,2-0.3,3c-0.4,2.7-1.2,5.2-2.4,7.6c-1.2,2.4-2.8,4.5-4.8,6.3c-2.2,1.8-4.5,3.3-7.3,4c-2.3,0.6-4.7,0.8-7-0.1 c-1.4-0.5-2.7-1.4-3.7-2.6c-1.5-1.8-2.5-3.9-3.1-6.1c-0.8-2.6-1.2-5.2-1.4-7.9c-0.1-2-0.2-3.9-0.3-5.9s0-4,0-6l-0.1-0.1 c-2.4,1.9-4.8,3.8-7,6l-0.1,0.1l-0.3,0.3c-0.3,0.5-0.6,1-0.9,1.5c-0.6,1.3-1.1,2.5-1.6,3.8c-0.8,2.1-1.3,4.2-1.6,6.4 c-0.3,1.7-0.4,3.4-0.3,5.1C37.9,168.6,38.2,170.9,38.6,173.2z"></path> <path class="st4" d="M131.7,143.6l-0.7,9.9c0,5.1-4.5,9.3-10,9.3s-10-4.1-10.8-9.3l-0.6-9.9H131.7z"></path> <path class="st12" d="M118.9,150.8l-0.1,0.2c0,0,0.1-0.1,0.3-0.2H118.9z"></path> <path class="st13" d="M108.3,155c0-0.8,0.1-1.5,0.2-2.3c-0.9,0.3-1.8,0.7-2.7,1c-0.1-0.4,0.8-1.4,1.4-2.1c0.9-1-1.6-1.4-3-0.1 c-0.4,0.4-6.4,5.2-6.4,5.2l7.8,3.1l3.3-1.5C108.6,157.3,108.4,156.1,108.3,155z"></path> <path class="st4" d="M110.7,158.5c1.1,0,2.1-0.5,2.8-1.4l-1.5-1.2c-0.4,0.6-1.3,0.9-2,0.6c-1.6-0.6-3.2-2.9-3.2-4.7 c0-0.4,0.1-0.9,0.5-1.2c0.9-0.8,3-0.7,3.7-0.6l0.3-1.9c-0.4-0.1-3.5-0.4-5.2,1.1c-0.8,0.7-1.2,1.6-1.1,2.6c0,2.7,2,5.7,4.4,6.5 C109.8,158.4,110.3,158.5,110.7,158.5"></path> <polygon class="st13" points="109.3,149.7 106.6,150.8 104.9,160.8 110.1,158 110.6,151.1 "></polygon> <path class="st14" d="M87.3,182c0.2,1.3,0.4,2.6,0.7,3.9c0.8,4.4,1.9,8.8,3.2,13.1c0.9,3.1,2.1,6.1,3.3,9.1c1,2.4,2.2,4.7,3.6,6.9 c0.1,0.2,0.2,0.5,0.3,0.7c0.7,0.9,1.6,1.6,2.6,2.1c0.4,0.2,0.9,0.4,1.4,0.5h8.4c1.6-0.4,3.2-1.1,4.7-1.9c2.4-1.4,4-3.4,5.1-6 c0.8-2.1,0.9-4.3,0.6-6.4c-0.3-2.6-0.8-5.2-1.4-7.7c-1.2-4.9-2.6-9.8-4.3-14.6c-1.1-3.2-2.3-6.4-3.6-9.5c-1.1-2.9-2.4-5.7-3.7-8.5 c-1.2-2.6-2.6-5.2-4-7.7c-1.5-2.7-3.7-4.6-6.5-5.9c-0.1-0.1-0.3-0.1-0.4-0.1c-0.1,0-0.2,0.1-0.3,0.1c-0.6,0.1-1.3,0.1-1.9,0.2 c-1.8,0.3-3.4,1.2-4.6,2.5c-1.1,1.3-1.9,2.8-2.2,4.5c-0.4,1.6-0.7,3.3-0.9,4.9c-0.3,2-0.5,4.1-0.5,6.1c-0.1,3.3-0.1,6.7,0.2,10 C87,179.5,87.1,180.7,87.3,182z"></path> <path class="st14" d="M40.7,215.6c0.4,0.1,0.7,0.3,1.1,0.4c4.4,1.5,11.1,2,15.5,0.5c-0.8-1.4-2.4-2.6-3.6-4.1 c-2.2-2.7-3.8-5.8-5.3-8.9c-1.4-2.9-2.5-5.9-3.7-8.8c-0.9-2.1-1.6-4.4-2.3-6.5c-1.6-4.9-2.9-9.8-3.8-14.9 c-0.4-2.3-0.7-4.5-0.8-6.8c-0.1-1.7,0.1-3.4,0.3-5.1c0.3-2.2,0.8-4.4,1.6-6.4c0.5-1.3,1.1-2.6,1.6-3.8c0.2-0.5,0.6-1,0.9-1.5 c-0.1,0.1-0.3,0.1-0.4,0.2c-0.6,0.6-1.2,1.3-1.8,2c-1.5,1.6-2.7,3.5-3.4,5.6c-0.6,1.8-1.1,3.7-1.6,5.5c-0.5,2.1-1,4.4-1.4,6.5 c-0.5,2.3-1.1,4.6-1.5,6.9c-0.5,2.6-0.9,5.1-1.3,7.8c-0.3,2-0.6,4-0.8,6.1c-0.2,1.8-0.2,3.5-0.2,5.3c0,1.5,0,3,0.1,4.5 c0.1,1.3,0.2,2.5,0.5,3.7c0.5,2.7,1.8,5.2,3.6,7.2C35.7,212.9,38,214.5,40.7,215.6"></path> <path class="st15" d="M49.6,143.2L49.6,143.2v-0.1C49.6,143.1,49.6,143.1,49.6,143.2"></path> <path class="st16" d="M42.5,149.1L42.5,149.1L42.5,149.1"></path> <path class="st13" d="M126.7,201.3l6.6,3.1l4.9-3.2c0,0,10.5-4,5.2-4.6c-11.2-1.1-6-2.2-10,1.6c0.6-0.5,1.1-1.1,1.6-1.7 c0.7-1-1.9-0.4-3,0.9C131.6,197.8,126.7,201.3,126.7,201.3"></path> <path class="st14" d="M109.1,218.2c1.8-0.1,3.6-0.3,5.4-0.6c6.4-3.6,13.4-9.6,19.6-13.4c0,0-1.2-2.1-2-2.7 c-0.7-0.5-3.9-1.7-3.9-1.7l-35-1.5c0,0.2-0.1,0.4-0.1,0.6C93.3,202.1,94,218.9,109.1,218.2z"></path> <path class="st17" d="M95.7,114.6c-0.3-0.4-0.5-0.9-0.8-1.3c-1.2-1.8-2.5-3.6-3.8-5.4c-0.3-0.3-0.4-0.7-0.2-1 c0.1-0.3,0.1-0.6,0.2-0.9c-0.9,0.1-1.9,0.3-2.8,0.4c-1.6,0.2-3.2,0.4-4.8,0.5c-1,0.1-2,0.1-3.1,0.1c-0.1,0-0.2,0-0.4,0v0.5 c0,5.9,0,11.7,0,17.6c0,1.1,0,2.3,0,3.5c2.6,0.7,5.1,1.4,7.7,2.1c0.1,0.1,0.4,0,0.4-0.1c0,0,0-0.1,0-0.1c0.6-2,1.3-4.1,1.9-6.3 c-1.3-1.4-2.9-4.4-2.9-4.4l3.8,0.6c0.3-1.2,0.5-2.4,0.6-3.6c0-0.3,0.2-0.5,0.4-0.6c1.1-0.4,2.2-0.8,3.3-1.2 C95.8,115,95.8,114.8,95.7,114.6z"></path> <path class="st18" d="M88.9,223.5h9.4c0.4-0.1,0.7-0.2,1.1-0.4c0.1,0,0.5-0.2,0.7-0.3l0.3-0.1c0.6-0.3,1.1-0.6,1.6-0.9 c0.6-0.4,1.2-0.7,1.7-1.1c0.2-0.1,0.4-0.3,0.7-0.5l0.6-0.4l0.3-0.3c0.3-0.2,0.5-0.4,0.8-0.7c0.3-0.2,0.6-0.5,0.9-0.8 c-0.3-12.4-2.1-27.5-5.3-38.4c-0.7-2.6-1.7-5.3-3.9-6.9c-1.9-1.4-4.5-1.6-6.9-1.8c-20.7-1.3-41.4-2.1-62.2-2.4 c-2.8,0-5.3,0.1-7.4,0.5c-1.6,0.8-3.2,1.7-4.6,2.7c-0.9,0.8-1.8,1.7-2.7,2.6l0,0.1c-0.1,0.1-0.1,0.3-0.1,0.5 c0.4,3.5,0.8,6.9,1.2,10.4c1,7.3,2.1,14.7,3.1,22c0.3,1.7,0.8,3.5,1.9,4.7c1,1.1,2.4,6.8,3.8,7.4c3.9,1.5,8,2.8,12.1,3.9h50.8 C87.4,223.4,88.1,223.4,88.9,223.5z"></path> <path class="st9" d="M88.9,223.5c2.2,0,4.5,0,6.7,0.1c-0.2-13.7-1.3-27.5-4.9-40.8c-0.7-2.6-1.6-5.3-3.6-6.9 c-1.8-1.4-4.2-1.6-6.4-1.8c-19.3-1.3-38.7-2.1-58.1-2.4c-2.1-0.1-4.2,0.1-6.3,0.4c-0.9,0.8-1.7,1.6-2.5,2.4 c-0.1,0.1-0.1,0.2-0.2,0.3c0.4,3.5,0.8,7.1,1.2,10.6c0.9,7,1.8,13.9,2.6,20.9c0.8,7.4,1.3,13.4,8.6,17.1 C47,223.5,68,223.4,88.9,223.5z"></path> <g class="st19"> <rect x="121.5" y="78.3" class="st20" width="80.8" height="48.7"></rect> <rect x="121.5" y="78.3" class="st20" width="80.8" height="9"></rect> <rect x="121.9" y="80.7" class="st20" width="2.9" height="3.4"></rect> <rect x="127.6" y="80.7" class="st20" width="2.9" height="3.4"></rect> <rect x="133.3" y="80.7" class="st20" width="2.9" height="3.4"></rect> </g> <rect x="121.5" y="75.2" class="st7" width="83.6" height="49.6"></rect> <rect x="121.5" y="75" class="st11" width="83.6" height="10.1"></rect> <rect x="124.7" y="78.4" class="st1" width="2.9" height="3.4"></rect> <rect x="130.4" y="78.4" class="st1" width="2.9" height="3.4"></rect> <rect x="136.1" y="78.4" class="st1" width="2.9" height="3.4"></rect> <rect x="118.4" y="92.5" class="st21" width="16.3" height="2.3"></rect> <rect x="118.4" y="97.2" class="st11" width="9.3" height="2.3"></rect> <rect x="110.3" y="93.7" class="st4" width="4.6" height="4.6"></rect> <rect x="118.4" y="103" class="st21" width="16.3" height="2.3"></rect> <rect x="118.4" y="107.6" class="st11" width="9.3" height="2.3"></rect> <rect x="110.3" y="104.1" class="st4" width="4.6" height="4.6"></rect> <rect x="118.4" y="113.4" class="st21" width="16.3" height="2.3"></rect> <rect x="118.4" y="118.1" class="st11" width="9.3" height="2.3"></rect> <rect x="110.3" y="114.6" class="st4" width="4.6" height="4.6"></rect> <path class="st1" d="M156.8,70.8h23.9c3.4,0,6.1,2.7,6.1,6.1v23.9c0,3.4-2.7,6.1-6.1,6.1h-23.9c-3.4,0-6.1-2.7-6.1-6.1V76.9 C150.8,73.6,153.5,70.8,156.8,70.8z"></path> <polygon class="st1" points="158.8,112.9 158.8,103.7 168.9,103.7 "></polygon> <path class="st9" d="M156.4,64.9c0.6-1.1,1.6-2.2,2.9-2.4c2.3-0.4,6.6,0.7,9.2,2.6c2.7-1.7,7-0.6,9.2,1.5 c6.4,5.8-1.6,14.1-6.1,18.7c-0.2,0-0.4,0.1-0.6,0.2c0,0,0-0.1,0-0.1c-3.3,1-1.4-2.9-2.6-4.1c-1.7-1.7-4.1-1.4-6.3-1.8 c-2.4-0.4-3.3-1.9-4.6-3.7C155.2,72.7,154.4,68.4,156.4,64.9z"></path> <path class="st22" d="M160,103.1h16.6c1.9-12.1-2.6-11.2-5.6-15.1c-2.9-4-1.6-5.8-1.6-5.8s-6-1.4-4.4,0.3c1.6,1.6,2,2.2,1.2,5.1 s-5.1,2.8-6.5,5.9C158.5,96.2,157.8,101.5,160,103.1z"></path> <path class="st23" d="M171.4,89c-1.7-0.3-3.3-0.9-4.8-1.8c0.4-2.3-0.1-3-1.5-4.7c-1.6-1.9,4.4-0.2,4.4-0.2s-0.9,1.7,2.1,6.3 C171.6,88.6,171.3,89,171.4,89z"></path> <path class="st4" d="M160,103.1h16.6c1.7-10.9-1.8-11.2-4.6-14c-0.1,0.4-1,0.6-1.4,0.8c-4.8,2.3-3.4,4.1-4.1,2.5 c-0.3-0.6-1.4-1.6-1.5-3.2c-1.6,0.9-4.5,2.3-5.4,4.2C158.5,96.2,157.8,101.5,160,103.1z"></path> <path class="st22" d="M174.2,74.3c0,0-2.7,1.9-5.2-1.6l-2.5-3.6c0,0-3,2-4.4,0.4c-1.4-1.5-2.6,6.2-1.2,11.7c1.4,5.5,7,8,11.6,3.3 c1.5-1.5,2.6-1.8,4.2-2.6c3.4-1.9,1.1-5-0.5-4.1c-1.6,0.9-1.4,2.1-2.1,1.5C173.2,78.6,172.8,76,174.2,74.3z"></path> <path class="st4" d="M176.7,103.1c1-6.4,0.2-9.2-1.2-10.9c-1.1,0.7-2.2,1.9-3,3.7c-1.4,3.2-2.2,5.4-2.8,7.2H176.7z"></path> <path class="st4" d="M160,103.1L160,103.1c-0.1-6,0.9-9.9,1.6-11.8c-0.8,0.5-1.5,1.2-1.9,2.1C158.5,96.2,157.8,101.5,160,103.1z"></path> <path class="st24" d="M167.1,80.5l-5.2-0.7C161.8,79.8,163.5,85.7,167.1,80.5z"></path> <path class="st18" d="M195.1,99.1c0,6.3-5.1,11.4-11.4,11.4s-11.4-5.1-11.4-11.4s5.1-11.4,11.4-11.4l0,0 C190,87.7,195.1,92.8,195.1,99.1L195.1,99.1z"></path> <polygon class="st24" points="181.2,104 178.2,100.9 179.3,99.8 181.2,101.7 188.1,94.8 189.3,96 "></polygon> <path class="st25" d="M166.9,91.9c0,0.2,0.1,1.9,0.1,1.9l0.6-1.7l1.1,1.2c0,0,4.5-3.3,4.2-3.4c-0.2-0.1-1.6-1.7-1.6-1.7 L166.9,91.9z"></path> <path class="st25" d="M166.8,91.7c0,0,0.1,2.4,0.1,2.3c0-0.2-0.8-2.2-0.8-2.2l-1.3,1.5l-0.5-3.6c0,0,1.4-1.1,1.4-0.9 C165.7,88.9,166.8,91.7,166.8,91.7z"></path> <path class="st4" d="M150,110.6h1.8v3.7h3.6v1.7h-3.6v3.8H150v-3.8h-3.6v-1.7h3.6L150,110.6z"></path> <path class="st26" d="M252.7,144.1l2.7,2.4c0.4,0.3,0.4,0.9,0.1,1.2l-0.1,0.1c-0.3,0.4-0.9,0.4-1.2,0.1l-2.7-2.3 c-0.4-0.3-0.4-0.9-0.1-1.2l0.1-0.1C251.8,143.9,252.3,143.8,252.7,144.1L252.7,144.1z"></path> <path class="st26" d="M248.3,159.1l-1.3,6.9c-0.1,0.7-0.8,1.2-1.5,1.1c-0.2,0-0.4-0.1-0.6-0.3l-5.4-4.6l-5.4-4.6 c-0.6-0.5-0.6-1.3-0.1-1.8c0.1-0.2,0.4-0.3,0.6-0.4l6.6-2.4l8.8-3.1L248.3,159.1z"></path> <rect x="246.5" y="147.6" transform="matrix(0.6512 -0.7589 0.7589 0.6512 -25.9492 242.2701)" class="st26" width="8.2" height="3.6"></rect> <path class="st2" d="M248.3,159.1l-1.3,6.9c-0.1,0.7-0.8,1.2-1.5,1.1c-0.2,0-0.4-0.1-0.6-0.3l-5.4-4.6l-5.4-4.6 c-0.6-0.5-0.6-1.3-0.1-1.8c0.1-0.2,0.4-0.3,0.6-0.4l6.6-2.4L248.3,159.1z"></path> <path class="st2" d="M245,157.2c-0.6,0.6-1.5,0.7-2.1,0.1c-0.6-0.6-0.7-1.5-0.1-2.1c0.6-0.6,1.5-0.7,2.1-0.1 C245.5,155.6,245.6,156.6,245,157.2L245,157.2z"></path> <path class="st27" d="M244.2,155.9c-0.2,0.2-0.5,0.2-0.7,0.1c-0.2-0.2-0.2-0.5-0.1-0.7c0.2-0.2,0.5-0.2,0.7-0.1l0,0 C244.3,155.4,244.3,155.7,244.2,155.9L244.2,155.9z"></path> <path class="st2" d="M246.2,154.1c-0.3,0.4-0.8,0.4-1.1,0.1s-0.4-0.8-0.1-1.1c0.3-0.4,0.8-0.4,1.1-0.1 C246.4,153.2,246.5,153.7,246.2,154.1L246.2,154.1z"></path> <path class="st27" d="M245.7,153.4c-0.1,0.1-0.3,0.1-0.4,0l0,0c-0.1-0.1-0.1-0.3,0-0.4c0.1-0.1,0.3-0.1,0.4,0 C245.8,153.1,245.8,153.3,245.7,153.4L245.7,153.4z"></path> <path class="st20" d="M248.5,153.3c-0.3,0.4-0.8,0.4-1.1,0.1c-0.4-0.3-0.4-0.8-0.1-1.1c0.3-0.4,0.8-0.4,1.1-0.1 C248.8,152.4,248.8,152.9,248.5,153.3L248.5,153.3z"></path> <path class="st27" d="M248,152.6c-0.1,0.1-0.3,0.1-0.4,0c-0.1-0.1-0.1-0.3,0-0.4c0.1-0.1,0.3-0.1,0.4,0 C248.1,152.3,248.1,152.5,248,152.6C248,152.6,248,152.6,248,152.6z"></path> <ellipse class="st20" cx="246.8" cy="156.1" rx="1" ry="1"></ellipse> <path class="st27" d="M247,155.8c-0.1,0.1-0.3,0.1-0.4,0c-0.1-0.1-0.1-0.3,0-0.4c0.1-0.1,0.3-0.1,0.4,0 C247,155.6,247,155.7,247,155.8z"></path> <path class="st28" d="M252.7,147C252.7,147,252.7,147,252.7,147l-1.2-1c-0.1,0-0.1-0.1,0-0.1c0-0.1,0.1-0.1,0.1,0l1.2,1 c0,0,0,0.1,0,0.1C252.8,146.9,252.8,147,252.7,147z"></path> <path class="st28" d="M251.9,147C251.8,147,251.8,147,251.9,147l-0.7-0.6c0,0,0-0.1,0-0.1l0,0c0,0,0.1,0,0.1,0l0,0l0.7,0.6 c0,0,0,0.1,0,0.1l0,0C252,147.1,251.9,147.1,251.9,147z"></path> <path class="st28" d="M251.9,147.9C251.9,147.9,251.9,147.9,251.9,147.9l-1.2-1c0,0,0-0.1,0-0.1l0,0c0,0,0.1,0,0.1,0l1.2,1 c0,0,0,0.1,0,0.1l0,0C252,147.9,252,147.9,251.9,147.9z"></path> <path class="st28" d="M251.1,148C251,148,251,148,251.1,148l-0.7-0.6c0,0,0-0.1,0-0.1l0,0c0,0,0.1,0,0.1,0l0,0l0.7,0.6 c0,0,0,0.1,0,0.1l0,0C251.2,148,251.1,148,251.1,148z"></path> <path class="st28" d="M251.1,148.8C251.1,148.8,251.1,148.8,251.1,148.8l-1.2-1c0,0,0-0.1,0-0.1l0,0c0,0,0.1,0,0.1,0l0,0l1.2,1 c0,0,0,0.1,0,0.1l0,0C251.2,148.8,251.2,148.8,251.1,148.8z"></path> <path class="st28" d="M250.3,148.9C250.2,148.9,250.2,148.9,250.3,148.9l-0.7-0.6c0,0-0.1-0.1,0-0.1c0,0,0.1-0.1,0.1,0l0,0 l0.7,0.6c0,0,0,0.1,0,0.1l0,0C250.3,148.9,250.3,148.9,250.3,148.9z"></path> <path class="st28" d="M250.3,149.8C250.3,149.8,250.3,149.8,250.3,149.8l-1.2-1c0,0,0-0.1,0-0.1l0,0c0,0,0.1,0,0.1,0l0,0l1.2,1 c0,0,0,0.1,0,0.1l0,0C250.4,149.8,250.3,149.8,250.3,149.8z"></path> <path class="st28" d="M249.5,149.8C249.4,149.8,249.4,149.8,249.5,149.8l-0.7-0.6c0,0,0-0.1,0-0.1l0,0c0,0,0.1,0,0.1,0l0,0 l0.7,0.6c0,0,0,0.1,0,0.1l0,0C249.5,149.8,249.5,149.8,249.5,149.8z"></path> <path class="st28" d="M249.5,150.7C249.5,150.7,249.5,150.7,249.5,150.7l-1.2-1c0,0,0-0.1,0-0.1l0,0c0,0,0.1,0,0.1,0l1.2,1 c0,0,0,0.1,0,0.1l0,0C249.6,150.7,249.5,150.7,249.5,150.7z"></path> <path class="st28" d="M248.7,150.8C248.6,150.8,248.6,150.8,248.7,150.8l-0.7-0.6c0,0,0-0.1,0-0.1l0,0c0,0,0.1,0,0.1,0l0,0 l0.7,0.6c0,0,0,0.1,0,0.1C248.8,150.8,248.7,150.8,248.7,150.8z"></path> <path class="st28" d="M248.7,151.6C248.7,151.6,248.7,151.6,248.7,151.6l-1.2-1c-0.1,0-0.1-0.1,0-0.1c0-0.1,0.1-0.1,0.1,0 c0,0,0,0,0,0l1.2,1c0,0,0,0.1,0,0.1l0,0C248.8,151.6,248.8,151.6,248.7,151.6z"></path> <path class="st28" d="M247.9,151.7C247.8,151.7,247.8,151.7,247.9,151.7l-0.7-0.6c0,0,0-0.1,0-0.1c0,0,0.1,0,0.1,0l0.7,0.6 c0,0,0,0.1,0,0.1l0,0C247.9,151.7,247.9,151.7,247.9,151.7z"></path> <path class="st1" d="M224.9,115.1c0.1-0.6,0.5-1.2,1.2-1.4c0.6-0.1,1.3,0.2,1.6,0.8l4,6.6c0.1,0.1,0.2,0.3,0.2,0.5 c0.1,0.5-0.2,0.9-0.7,1c0,0,0,0-0.1,0c-0.4,0.1-0.9-0.1-1.1-0.5l-0.6-1.1l-3.6,0.7l-0.1,1.3c0,0.4-0.4,0.8-0.8,0.9 c-0.5,0.1-1-0.2-1.1-0.7l0,0c0-0.1,0-0.3,0-0.4L224.9,115.1z M226,119.8l2.5-0.5l-2-3.6h0L226,119.8z"></path> <path class="st1" d="M238.9,119.8c0.1,0.5,0.2,1.2-0.6,1.4c-0.6,0.1-0.8-0.1-1.1-0.6c-0.3,0.6-0.9,1.1-1.6,1.2 c-1.8,0.4-3.4-0.9-3.9-3c-0.4-2.1,0.6-3.9,2.4-4.3c0.7-0.2,1.4,0,2,0.5c0-0.5,0.3-0.9,0.7-1c0.9-0.2,1.1,0.6,1.1,1.1L238.9,119.8z M235.4,120.1c1-0.2,1.3-1.3,1.1-2.2c-0.2-0.9-0.9-1.8-1.9-1.6c-1,0.2-1.3,1.3-1.1,2.2C233.7,119.4,234.4,120.3,235.4,120.1 L235.4,120.1z"></path> <rect x="155.8" y="41.2" transform="matrix(0.8945 -0.447 0.447 0.8945 -1.509 80.8765)" class="st2" width="29.6" height="4.9"></rect> <rect x="158.4" y="47" transform="matrix(0.8945 -0.447 0.447 0.8945 -4.8087 76.0067)" class="st20" width="0.6" height="2.4"></rect> <rect x="160" y="46.1" transform="matrix(0.8945 -0.4471 0.4471 0.8945 -3.9867 76.593)" class="st20" width="0.6" height="1.3"></rect> <rect x="162.1" y="45.1" transform="matrix(0.8945 -0.4471 0.4471 0.8945 -3.5778 77.4818)" class="st20" width="0.6" height="2.4"></rect> <rect x="163.7" y="44.3" transform="matrix(0.8945 -0.4471 0.4471 0.8945 -2.7682 78.0538)" class="st20" width="0.6" height="1.3"></rect> <rect x="165.8" y="43.3" transform="matrix(0.8945 -0.447 0.447 0.8945 -2.3721 78.9282)" class="st20" width="0.6" height="2.4"></rect> <rect x="167.4" y="42.4" transform="matrix(0.8945 -0.4471 0.4471 0.8945 -1.5495 79.5152)" class="st20" width="0.6" height="1.3"></rect> <rect x="169.5" y="41.5" transform="matrix(0.8945 -0.4471 0.4471 0.8945 -1.1507 80.4127)" class="st20" width="0.6" height="2.4"></rect> <rect x="171.1" y="40.6" transform="matrix(0.8945 -0.4471 0.4471 0.8945 -0.3411 80.9848)" class="st20" width="0.6" height="1.3"></rect> <rect x="173.2" y="39.6" transform="matrix(0.8945 -0.447 0.447 0.8945 6.985571e-02 81.8649)" class="st20" width="0.6" height="2.4"></rect> <rect x="174.8" y="38.7" transform="matrix(0.8945 -0.4471 0.4471 0.8945 0.893 82.4525)" class="st20" width="0.6" height="1.3"></rect> <rect x="176.9" y="37.8" transform="matrix(0.8945 -0.447 0.447 0.8945 1.2883 83.3256)" class="st20" width="0.6" height="2.4"></rect> <rect x="178.5" y="36.9" transform="matrix(0.8945 -0.4471 0.4471 0.8945 2.1117 83.9136)" class="st20" width="0.6" height="1.3"></rect> <rect x="180.6" y="35.9" transform="matrix(0.8945 -0.4471 0.4471 0.8945 2.5254 84.8063)" class="st20" width="0.6" height="2.4"></rect> <path class="st1" d="M205.5,54.2c0.3,0.4,0.2,0.9-0.2,1.2c-0.4,0.3-0.9,0.6-1.4,0.8c-2.9,1.4-5.2,0.3-6.4-2.1 c-1.4-2.9-0.1-5.4,2.4-6.6c0.4-0.2,0.9-0.4,1.4-0.5c0.5-0.1,0.9,0.2,1,0.6v0v0c0.1,0.4-0.2,0.9-0.6,1c-0.3,0.1-0.6,0.2-0.9,0.3 c-1.5,0.7-2.2,2.2-1.4,4c0.8,1.7,2.3,2.3,4,1.5c0.3-0.1,0.6-0.3,0.8-0.5C204.7,53.7,205.3,53.8,205.5,54.2L205.5,54.2z"></path> <path class="st1" d="M83.4,38.6l6.9,6.4c0,0-0.3,4.2-0.3,3.6c0-0.6-1.1-2.9-1.1-2.9L86,48.4l-6.4-9.1L83.4,38.6z"></path> <path class="st1" d="M90.1,48.3c-0.2,0.3-0.1-3.1-0.1-3.1s2.6-5.4,2.8-7l2.8,1.1l0.3,8.8l-3.9-3.4"></path> <path class="st2" d="M134.8,260.5l0.2-0.5c0.7,0.2,1.4,0.4,2.1,0.6l-0.1,0.5c-0.3-0.1-0.6-0.1-0.9-0.2 C135.6,260.8,135.2,260.6,134.8,260.5z M139.2,261.1c0.7,0.1,1.5,0.2,2.2,0.3l-0.1,0.6c-0.7-0.1-1.5-0.2-2.2-0.3L139.2,261.1z M130.5,258.7l0.2-0.5c0.7,0.3,1.4,0.6,2,0.9l-0.2,0.5C131.9,259.4,131.3,259.1,130.5,258.7L130.5,258.7z M126.6,256.5l0.3-0.5 c0.6,0.4,1.3,0.8,1.9,1.2l-0.3,0.5C127.9,257.3,127.3,256.9,126.6,256.5L126.6,256.5z M143.7,261.4c0.7,0,1.5,0,2.2-0.1l0,0.6 c-0.7,0.1-1.5,0.1-2.3,0.1L143.7,261.4z M123,253.9l0.4-0.4c0.6,0.5,1.2,0.9,1.8,1.4l-0.3,0.5C124.2,254.8,123.5,254.3,123,253.9 L123,253.9z M148.1,261.1c0.7-0.1,1.5-0.3,2.2-0.4l0.1,0.6c-0.7,0.2-1.5,0.3-2.2,0.4L148.1,261.1z M152.4,260.1 c0.7-0.2,1.4-0.5,2.1-0.8l0.2,0.5c-0.7,0.3-1.4,0.6-2.1,0.8L152.4,260.1z M156.5,258.4c0.6-0.3,1.3-0.7,1.9-1.1l0.3,0.5 c-0.6,0.4-1.3,0.8-2,1.1L156.5,258.4z M160.3,256.1c0.6-0.4,1.2-0.9,1.8-1.3l0.4,0.4c-0.6,0.5-1.2,0.9-1.8,1.3L160.3,256.1z M163.9,253.4c0.6-0.5,1.1-1,1.6-1.5l0.4,0.4c-0.5,0.5-1.1,1-1.7,1.5L163.9,253.4z M167.1,250.2c0.5-0.6,1-1.1,1.5-1.7l0.4,0.4 c-0.5,0.6-1,1.1-1.5,1.7L167.1,250.2z M169.9,246.8c0.4-0.6,0.9-1.2,1.3-1.9l0.5,0.3c-0.4,0.6-0.8,1.3-1.3,1.9L169.9,246.8z M172.3,243c0.4-0.6,0.7-1.3,1-2l0.5,0.2c-0.3,0.7-0.7,1.4-1.1,2L172.3,243z M174.2,239c0.2-0.6,0.4-1.1,0.6-1.7 c0-0.1,0.1-0.3,0.1-0.4l0.5,0.1c0,0.1-0.1,0.3-0.1,0.4c-0.2,0.6-0.4,1.1-0.6,1.8L174.2,239z M175.3,232.5l0.6-0.1 c0.1,0.8,0.1,1.6,0,2.3l-0.6-0.1C175.4,234,175.4,233.2,175.3,232.5L175.3,232.5z"></path> <polyline class="st29" points="81,235.1 120.4,243.9 121.9,242 "></polyline> <polygon class="st1" points="81,235.1 104.8,234.4 115.3,237.3 121.9,242 "></polygon> <polygon class="st1" points="126.6,250.6 123.7,244.1 81.2,235.2 113.8,250.6 "></polygon> <polygon class="st29" points="118.3,250.4 118.2,250.5 114,255.1 81.1,235.2 "></polygon> <path class="st24" d="M84.6,26.2c0,0,3.6,1.1,8.8,0.6c0,0-1.7,3.8-3.9,4.9C87.3,32.9,85.3,30.4,84.6,26.2z"></path> <path class="st8" d="M218.8,206.4c0,0,0-0.1,0-0.1l0-0.1l0-0.1c0,0,0-0.1,0.1-0.1c0.2-0.6,0.5-1.1,0.9-1.7h21.1 c0,0,6.2,3.2,0.3,8.6c-4.8,4.4-10,1.3-12.7,0.1c-2.1-0.9-7.5-4.6-9.9-6.1C218.7,206.7,218.8,206.6,218.8,206.4z"></path> <path class="st5" d="M218.6,206.9c0.1-0.2,0.1-0.4,0.2-0.5c0,0,0-0.1,0-0.1l0-0.1l0-0.1c0,0,0-0.1,0.1-0.1 c0.1-0.3,0.2-0.6,0.4-0.9c5.2,0.6,14.3,1.6,17.2,1.9c2.8,0.3,5.4,1.6,6.1,3.3c-0.3,0.8-0.5,1.9-1.5,2.6c-5,3.6-9.3,2.1-12,0.9 C227.2,212.9,221.1,208.7,218.6,206.9L218.6,206.9z"></path> <path class="st4" d="M235,205.2c-18-24.9-32.7-27.5-32.7-27.5s-22.5-0.6-26.1,1.3c-17.1,9.1-20.7,50.8-8.2,37.1 c1.3-1.5,7.8,1.3,7.8,1.3c0.8,0.4-0.1,7.5,0.3,8.7c1.1,4,2.6,9.4,6.7,9.4c7.7-0.1,18.3-4.4,23.8-9.9c6.2-6.2,4.4-11.4,7.1-19 C216,199.4,235.5,206,235,205.2z"></path> <path class="st5" d="M200.8,194.7c-1.8-0.8-3.6-1.5-5.4-2.2l7.9-5.7l5.6,0.2c0,0,2.2,1.5,3.4,2.4l-3.9-0.8l8.6,3.5 c0,0,3.3,1.5,2.5,1.8c-1,0.4-7.8-1.8-7.8-1.8c-1.7,0.5-3.4,1.1-5.1,1.9c-1.7,0.7-4.1,0.9-5.9,0.8 C200.9,194.8,200.9,194.8,200.8,194.7z"></path> <path class="st5" d="M169.1,203.6c9.1-3.6,22.1-9.4,26.5-11.1c1.2,0.4,4.8,0.6,5.9,1c-2.1,3.1-16.9,13.9-25.9,19.5 c-10.1,6.2-12.1,4.9-13.7,2.6S160.6,207,169.1,203.6z"></path> <path class="st30" d="M210.1,202.8c-0.3,0.7,0.1,1.3,0.8,1.3h34.7c0.8-0.1,1.5-0.6,1.8-1.3l8.8-24c0.3-0.7-0.1-1.1-0.8-1.1h-34.7 c-0.7,0-1.5,0.4-1.8,1.1L210.1,202.8z"></path> <path class="st30" d="M197.4,206.6c0,0.7,0.7,1.3,1.4,1.2h46.3c0.7,0,1.3-0.5,1.4-1.2v0v-1.1c0-0.7-0.6-1.4-1.4-1.4h-46.3 c-0.8,0-1.4,0.6-1.4,1.4V206.6z"></path> <path class="st8" d="M222.4,209.7l-7.3,1.5l-9.5-3.7c0,0,2-0.9,5-0.1c2.9,0.8,4.3,0.3,4.3,0.3l2.6-1.8l-2-2.1l-1.1-2.1l4.5,2.2 l2.7,2.6"></path> <path class="st5" d="M220.1,208.3c0.4-0.1,0.7-0.3,0.9-0.6h0.6c0.6,0.7,1.2,1.4,1.9,2c0,0.1,0,0.1-0.1,0.1l-7.2,1.5 c-1.8-0.3-2.7-0.6-3.1-0.9C215.5,209.9,217.8,209,220.1,208.3z"></path> <path class="st8" d="M165.2,216.9c3.1-0.3,11.3-4.4,15.8-7.1c6.2-3.7,16.3-12.6,19.1-15c0,0.1,0.1,0.2,0.1,0.3 c0.3,0.6-4.4,4.6-5.1,5.3c-2.2,2.3-4.4,4.1-6.8,6.1c-2.5,2.1-5.1,4.2-7.9,5.9c-2.7,1.7-5.7,3.1-8.4,4.7c-8.6,2.5-7.7,1.9-9.2-0.1 C164,217.7,163.2,217.1,165.2,216.9z"></path> <path class="st5" d="M191.1,166.7c0,0-0.9,11.9-3.9,15c-0.2,0.2-0.4,0.5-0.6,0.7c3.1,0.1,5.8,2.1,7,4.9h0l0.1,0c0.1,0,0.1,0,0.2,0 c0.6-2.1,2.1-3.8,4-4.9c-0.1-2.5,0.4-4.9,1.8-6.8C204.9,168.9,191.1,166.7,191.1,166.7z"></path> <path class="st8" d="M189.6,166.6c0,0,2.1,3.7-2.1,16c1.6,0.3,3.1,1,4.2,2.2c1.8,0.2,3.9-0.3,5.8-2.5c0-2.4,0.7-4.7,2.2-6.6 C204.9,168.9,189.6,166.6,189.6,166.6z"></path> <polygon class="st1" points="188.3,175.5 193.4,185.8 193.8,187.1 193.8,187.1 193,189.7 192.9,185.7 187.6,189.1 184.4,177.2 "></polygon> <polygon class="st1" points="198.8,175.8 193.8,186.1 193.3,188.4 192.8,189.4 193.4,189.9 195.9,185.5 200.2,188 202.1,177.6 "></polygon> <path class="st11" d="M199.2,169.4c0,0-14.1-4.2-17.7-8s3.6-3.2,4.6-9.8c1-6.5,6.4-23,9.4-12.9c3.1,10.1-2.2,13.4-1.7,8.7 c0.6-4.7-1.2-17.5,12.1-14.9c13.2,2.6,16.8,11.7,5.1,14.4s14.7-10,13-1.3c-1.7,8.7-9.4,6.7-12.1,6.2s11.6-5.2,8.9,3.8 S209.8,167.8,199.2,169.4z"></path> <path class="st5" d="M211.3,150.9c0,0,1.5,7-1.5,17.4c-3,10.4-8.7,12.5-17.2,9.4s-7.8-13.8-7.1-16.3c0.7-2.5-7.9-2.1-4.9-7.6 c2.9-5.6,6.1-2.6,6.1-0.2c0,2.4,0.9,5.6,3.1,4.1c2.2-1.5,0.3-11.4,4.2-9.1C197.8,150.7,204.7,154,211.3,150.9z"></path> <path class="st24" d="M205.6,169.3c0,0-4.4-0.1-10.3-2.9c0,0,0.9,5.4,3.1,7.7C200.6,176.5,203.6,174.3,205.6,169.3z"></path> <path class="st1" d="M181.9,241.8c1-0.5,2-1,3.1-1.4c1.5-0.5,2.5-0.7,3.4-0.5c0.9,0.1,1.8,0.8,2.1,1.7c0.4,1,0.1,2.1-0.9,3v0 c1.4-0.1,2.6,0.5,3.1,1.9c0.3,0.9,0.2,1.9-0.3,2.7c-0.6,0.9-1.8,1.7-3.9,2.5c-0.9,0.3-1.8,0.6-2.7,0.8L181.9,241.8z M185.8,245.1 l0.8-0.3c1.3-0.5,1.8-1.2,1.5-2.1c-0.3-0.8-1.1-1-2.2-0.6c-0.4,0.1-0.7,0.3-1,0.4L185.8,245.1z M187.6,250c0.3-0.1,0.6-0.2,1-0.3 c1.1-0.4,1.9-1.2,1.5-2.3c-0.4-1.1-1.5-1.2-2.8-0.7l-0.9,0.3L187.6,250z"></path> <path class="st31" d="M148.6,17.6c0.3,1.1,1.7,6.2,2.4,6.6c1.3,0.6,1.4-0.9,1.2-1.8l1.2-0.5c1.9,6-4.2,7.1-5.4,3.4 c-0.7-2.2-1.3-4.5-1.9-6.8l-1.7,0.6c0.7,2.3,2.4,7.6,1.9,9.3c-0.6,2.2-4.4,2.2-3.4-1.5c0.7-2.6,0.3-4.6-0.4-7.1 c-1.6,0.6-1.7,1-2,2.7l-1.2,0.4c-0.3-3.1-0.3-4.8,3-6l8.1-3.1l1,2.6L148.6,17.6z"></path> </g> <path class="st1" d="M148.6,270l-8.8-8.6l3.1-11.9l11.9-3.3l8.8,8.6l-3.1,11.9L148.6,270z M148,248.6l-4.6,1.3l-2.9,11.3l8.3,8.2 l11.2-3.1L163,255l-8.3-8.2L148,248.6"></path> </g> </svg> 