<?xml version="1.0" encoding="UTF-8"?> <!-- Generator: Adobe Illustrator 24.2.0, SVG Export Plug-In . SVG Version: 6.00 Build 0) --> <svg xmlns="http://www.w3.org/2000/svg" xmlns:xlink="http://www.w3.org/1999/xlink" version="1.1" id="Layer_1" x="0px" y="0px" viewBox="0 0 570 500" style="enable-background:new 0 0 570 500;" xml:space="preserve"> <style type="text/css"> .st0{fill:#5A969C;} .st1{clip-path:url(#SVGID_2_);} .st2{fill:none;} .st3{fill:#D6EBBD;} .st4{fill:#95CA59;} .st5{fill:#F68457;} .st6{fill:#FFFFFF;} .st7{fill:#DBE3E9;} .st8{fill:#015245;} .st9{fill:#F58457;} .st10{fill:#5FAD6E;} .st11{fill:#F5865A;} .st12{fill:#D6644B;} .st13{fill:#ED825C;} .st14{fill:#FAD54B;} .st15{fill:#585756;} .st16{fill:#F48357;} .st17{fill:#D5634A;} .st18{fill:#D6644A;} .st19{fill:#D4634A;} .st20{fill:#FEF9F8;} .st21{fill:#B5BCC2;} .st22{fill:#D6634A;} .st23{fill:#67BD50;} .st24{fill:#00A063;} .st25{fill:#D1ECFB;} .st26{fill:#545454;} .st27{fill:#69B345;} .st28{fill:#C7D7D9;} .st29{fill:#E9F1F2;} .st30{fill:#1A81C4;} </style> <g> <path class="st0" d="M310.69,431.74c0,0,277.35,41.12,250.25-80.93c-25.36-114.29-73.98-220.18-192.56-240.43 S-8.49,192.53,0.21,271.64S140.16,413.33,310.69,431.74z"></path> <g> <defs> <path id="SVGID_1_" d="M310.69,431.74c0,0,277.35,41.12,250.25-80.93c-25.36-114.29-73.98-220.18-192.56-240.43 S-8.49,192.53,0.21,271.64S140.16,413.33,310.69,431.74z"></path> </defs> <clipPath id="SVGID_2_"> <use xlink:href="#SVGID_1_" style="overflow:visible;"></use> </clipPath> <g class="st1"> <polygon class="st2" points="554.12,100.02 433.65,152.35 554.12,152.35 "></polygon> <path class="st2" d="M420.24,252.84c3.02,0.14,5.79,1.68,7.51,4.16l120.86-48.9H420.24V252.84z"></path> <path class="st2" d="M419.52,165.83c-1.42-0.05-2.8-0.41-4.06-1.06l-34.64,42.63h38.7V165.83z"></path> <path class="st2" d="M380.26,208.1l-42.04,51.75h72.21c1.18-4.07,4.86-6.91,9.09-7.02V208.1H380.26z"></path> <path class="st2" d="M294.01,317.51h125.51v-45.25c-4.75-0.14-8.71-3.67-9.38-8.37h-75.21l-42.07,51.79 C293.31,316.24,293.7,316.85,294.01,317.51z"></path> <path class="st2" d="M151.05,382.6v44.99h133.88v-54.33H160.41C160.21,378.34,156.13,382.41,151.05,382.6z"></path> <path class="st2" d="M285.64,331.5v41.08h133.88V318.2h-125.2c1.98,4.99-0.45,10.64-5.44,12.62 C287.85,331.23,286.75,331.46,285.64,331.5L285.64,331.5z"></path> <path class="st2" d="M140.97,373.26H25.51l-8.6,3.77l-0.46,0.19v50.4h133.89V382.6C145.26,382.42,141.18,378.34,140.97,373.26z"></path> <path class="st2" d="M277.12,327.06L160.3,371.47c0.06,0.37,0.09,0.75,0.11,1.11h124.52V331.5 C281.76,331.38,278.84,329.72,277.12,327.06z"></path> <path class="st2" d="M272.5,263.15H151.05v50.77l121.68-49.16C272.61,264.23,272.53,263.69,272.5,263.15z"></path> <path class="st2" d="M149.88,314.4l0.47-0.19v-51.06H16.45v44.99c5.09,0.18,9.18,4.27,9.36,9.36H142.8L149.88,314.4z"></path> <path class="st2" d="M432.02,153.06l-2.62,1.11c0.14,0.64,0.2,1.29,0.2,1.94c-0.01,5.23-4.15,9.51-9.37,9.71v41.58h130.1 l3.34-1.36l0.41,1.01v-54H432.02z"></path> <path class="st2" d="M25.82,318.2c-0.01,0.46-0.06,0.93-0.14,1.38l58.14,23.76l57.42-25.14H25.82z"></path> <path class="st2" d="M-118.13,370.57L6.54,319.58c-0.09-0.46-0.14-0.92-0.14-1.38h-124.52V370.57z"></path> <path class="st2" d="M-118.13,263.15v54.35H6.4c0.18-5.09,4.26-9.18,9.35-9.36v-44.99H-118.13z"></path> <path class="st2" d="M282.19,252.81c0.93,0,1.85,0.14,2.74,0.4V208.1H151.05v54.35h121.41 C272.52,257.12,276.86,252.83,282.19,252.81z"></path> <path class="st2" d="M88.98,345.47l53.67,21.96c1.75-2.55,4.6-4.13,7.69-4.24v-44.58L88.98,345.47z"></path> <path class="st2" d="M141.12,371.18l-57.31-23.44l-56.68,24.84h113.85C140.99,372.11,141.04,371.64,141.12,371.18z"></path> <polygon class="st2" points="-117.71,374.77 -118.13,373.76 -118.13,427.6 -117.43,427.6 15.34,373.29 15.42,373.26 -113.99,373.26 "></polygon> <path class="st2" d="M15.75,327.57c-3.09-0.12-5.94-1.69-7.68-4.24l-120.34,49.25h128L15.75,327.57z"></path> <path class="st2" d="M16.45,327.57v45.01h0.57l61.55-26.95l-54.45-22.26C22.37,325.9,19.53,327.46,16.45,327.57z"></path> <path class="st2" d="M554.12,210.24l-124.8,50.49c0.11,0.57,0.17,1.15,0.17,1.73h124.66L554.12,210.24z"></path> <path class="st2" d="M351.08,448.18l-3.28,4.56l0,0h4.4v-4.45c0-0.69,0-1.4,0.07-2.1h-0.07 C351.78,446.98,351.46,447.56,351.08,448.18z"></path> <polygon class="st2" points="15.75,427.6 15.75,377.49 -106.74,427.6 "></polygon> <path class="st2" d="M554.12,317.51v-54.35H429.45c-0.32,4.93-4.29,8.84-9.23,9.09v45.26L554.12,317.51z"></path> <rect x="285.64" y="373.26" class="st2" width="133.88" height="54.35"></rect> <path class="st2" d="M285.64,98.02v54.33h125.27c1.47-3.48,4.83-5.8,8.62-5.93v-48.4H285.64z"></path> <rect x="16.45" y="98.02" class="st2" width="133.88" height="54.33"></rect> <rect x="-118.13" y="153.06" class="st2" width="133.88" height="54.35"></rect> <path class="st2" d="M420.24,146.41c3.01,0.1,5.81,1.61,7.56,4.06l120.78-52.46H420.24V146.41z"></path> <rect x="16.45" y="208.1" class="st2" width="133.88" height="54.35"></rect> <rect x="-118.13" y="208.1" class="st2" width="133.88" height="54.35"></rect> <rect x="16.45" y="153.06" class="st2" width="133.88" height="54.35"></rect> <rect x="420.24" y="373.26" class="st2" width="133.88" height="54.35"></rect> <rect x="420.24" y="318.2" class="st2" width="133.88" height="54.35"></rect> <rect x="151.05" y="153.06" class="st2" width="133.88" height="54.35"></rect> <rect x="151.05" y="98.02" class="st2" width="133.88" height="54.33"></rect> <rect x="-118.13" y="98.02" class="st2" width="133.88" height="54.33"></rect> <path class="st2" d="M285.64,207.4h89.96l36.73-45.18c-1.4-1.73-2.16-3.88-2.16-6.1c0-1.04,0.17-2.07,0.5-3.06H285.64V207.4z"></path> <path class="st2" d="M282.19,272.27c-3.06,0.01-5.95-1.41-7.79-3.85l-121.47,49.09h123.55c1.58-3.21,4.79-5.3,8.37-5.43v-40.2 C283.99,272.13,283.09,272.26,282.19,272.27z"></path> <path class="st2" d="M285.64,271.62v40.45c1.42,0.05,2.8,0.41,4.06,1.06l40-49.24h-37.84 C291.35,267.41,288.97,270.37,285.64,271.62z"></path> <path class="st2" d="M285.64,253.48c2.86,1.08,5.04,3.45,5.89,6.39H333l42.03-51.75h-89.39V253.48z"></path> <path class="st2" d="M151.05,318.31v44.88c3.17,0.12,6.08,1.79,7.79,4.45l116.87-44.37c-0.07-0.49-0.12-0.99-0.12-1.49 c0.01-1.23,0.24-2.44,0.69-3.58h-125L151.05,318.31z"></path> <path class="st3" d="M420.24,165.83h-0.71v41.57h-38.7l-0.56,0.7h39.26v44.72h0.24h0.47V208.1h128.37l1.73-0.7h-130.1V165.83z"></path> <path class="st3" d="M284.93,271.87v40.2h0.36h0.36v-40.45L284.93,271.87z"></path> <path class="st3" d="M150.35,318.61v44.58h0.7v-44.88L150.35,318.61z"></path> <path class="st3" d="M16.45,327.57h-0.7v45.01h-128l-1.73,0.71H15.43l1.59-0.71h-0.59L16.45,327.57z"></path> <path class="st3" d="M554.12,262.45H429.45c0,0,0,0.06,0,0.09c0,0.21,0,0.41,0,0.61h124.66v54.35H420.24v-45.26h-0.47h-0.24 v45.25H294.01c0.11,0.22,0.22,0.46,0.31,0.69h125.2v54.4H285.64V331.5h-0.71v41.08H160.41c0,0.12,0,0.23,0,0.36s0,0.23,0,0.36 h124.52v54.34H151.05V382.6h-0.35h-0.36v44.99H16.45V377.2l-0.7,0.29v50.09h-122.44l-1.7,0.7h663.21V209.96l-0.7,0.28 L554.12,262.45z M420.24,318.2h133.88v54.39H420.24V318.2z M285.64,373.26h133.88v54.34H285.64V373.26z M420.24,427.6v-54.34 h133.88v54.34H420.24z"></path> <polygon class="st3" points="554.82,97.31 554.32,97.31 554.82,98.47 "></polygon> <polygon class="st3" points="554.12,152.35 433.65,152.35 432.01,153.06 554.12,153.06 554.12,207.05 554.82,208.78 554.82,99.71 554.12,100.02 "></polygon> <path class="st3" d="M-118.13,318.2H6.4c-0.01-0.11-0.01-0.23,0-0.35c0-0.11,0-0.23,0-0.35h-124.53v-54.35H15.75v44.99h0.36h0.35 v-44.99h133.89v51.06l0.7-0.29v-50.77H272.5c0-0.2,0-0.4,0-0.61v-0.09H151.05V208.1h133.88v45.11c0.24,0.07,0.48,0.16,0.71,0.24 V208.1h89.39l0.57-0.7h-89.96v-54.34h125.01c0.08-0.24,0.16-0.48,0.26-0.71H285.64V98.02h133.88v48.4h0.36h0.36v-48.4h128.34 l1.63-0.71h-668.97v273.55l0.7-0.29L-118.13,318.2z M-118.13,262.45V208.1H15.75v54.35H-118.13z M150.35,153.06v54.34H16.45 v-54.34H150.35z M16.45,152.35V98.02h133.89v54.33H16.45z M15.75,207.4h-133.88v-54.34H15.75L15.75,207.4z M150.35,262.45H16.45 V208.1h133.89V262.45z M284.93,207.4H151.05v-54.34h133.88V207.4z M284.93,152.35H151.05V98.02h133.88V152.35z M15.75,98.02 v54.33h-133.88V98.02H15.75z"></path> <path class="st3" d="M140.96,372.9c0-0.12,0-0.23,0-0.36H27.13l-1.61,0.71h115.46C140.97,373.14,140.96,373.01,140.96,372.9z"></path> <path class="st3" d="M142.8,317.51H25.82c0,0.11,0,0.23,0,0.35c0.01,0.11,0.01,0.23,0,0.35h115.37L142.8,317.51z"></path> <path class="st3" d="M151.45,318.13l-0.17,0.07h124.97c0.1-0.23,0.2-0.47,0.31-0.69H153.01L151.45,318.13z"></path> <path class="st3" d="M79.9,456.32l1.11-0.99c2.83-2.73,4.62-4.73,4.62-7.2c0.08-2.08-1.54-3.84-3.62-3.92 c-0.16-0.01-0.32,0-0.49,0.01c-1.39-0.01-2.73,0.48-3.8,1.37l0.58,1.28c0.79-0.7,1.8-1.09,2.85-1.11 c1.31-0.16,2.49,0.77,2.66,2.07c0.02,0.18,0.02,0.36,0,0.54c0,2.03-1.57,3.76-5,7.01l-1.42,1.38v1.11h8.57v-1.51h-6.03 L79.9,456.32z"></path> <path class="st3" d="M217.3,450.62L217.3,450.62c1.44-0.39,2.44-1.67,2.47-3.16c0-1.63-1.19-3.19-3.84-3.19 c-1.24-0.01-2.46,0.35-3.51,1.04l0.48,1.32c0.79-0.55,1.72-0.86,2.68-0.89c1.67,0,2.35,0.95,2.35,2.03 c0,1.58-1.67,2.23-2.98,2.23h-1.01v1.37h1.01c1.75,0,3.44,0.8,3.46,2.68c0,1.11-0.7,2.59-3.04,2.59 c-1.05-0.02-2.07-0.31-2.97-0.85l-0.49,1.41c1.06,0.61,2.27,0.92,3.5,0.9c3.22,0,4.89-1.88,4.89-4.02 C220.29,452.34,219.02,450.87,217.3,450.62z"></path> <path class="st3" d="M353.91,444.45h-1.96l-5.99,8.56v1.19h6.23v3.66h1.71v-3.66h1.88v-1.41h-1.88V444.45z M352.19,448.27v4.45 h-4.4l0,0l3.28-4.56c0.38-0.62,0.7-1.2,1.11-1.98h0.07C352.21,446.9,352.19,447.61,352.19,448.27z"></path> <path class="st3" d="M487.55,450.06c-0.88-0.5-1.87-0.75-2.88-0.72c-0.37,0-0.75,0.03-1.11,0.09l0.52-3.45h5.12v-1.52h-6.42 l-0.87,6.43c0.62-0.09,1.24-0.14,1.86-0.14c2.67,0,3.84,1.24,3.85,2.97c-0.02,1.63-1.36,2.93-2.99,2.91c-0.04,0-0.08,0-0.12,0 c-1-0.01-1.98-0.26-2.86-0.73l-0.46,1.38c1.02,0.57,2.17,0.85,3.34,0.82c2.56,0.18,4.79-1.74,4.97-4.31 c0.01-0.09,0.01-0.19,0.01-0.28C489.56,452.08,488.8,450.75,487.55,450.06z"></path> <path class="st4" d="M554.82,208.78l-0.7-1.73l-0.41-1.01l-3.34,1.36l-1.73,0.7L427.75,257c-1.72-2.48-4.5-4.02-7.51-4.16h-0.47 h-0.24c-4.24,0.11-7.92,2.95-9.09,7.02h-72.21l-3.34,4.04h75.21c0.68,4.7,4.64,8.23,9.38,8.37h0.24h0.47 c4.94-0.25,8.91-4.16,9.23-9.09c0-0.2,0-0.4,0-0.61c0,0,0-0.06,0-0.09c0-0.58-0.05-1.16-0.17-1.73l124.8-50.49l0.7-0.28l0.4-0.17 L554.82,208.78z M425.44,262.54c0,3.14-2.55,5.69-5.69,5.69c-3.14,0-5.69-2.55-5.69-5.69c0-3.14,2.55-5.69,5.69-5.69 c0,0,0.01,0,0.01,0c3.14,0,5.68,2.54,5.68,5.68C425.44,262.53,425.44,262.54,425.44,262.54L425.44,262.54z"></path> <polygon class="st4" points="15.75,377.49 16.45,377.2 16.92,377.02 25.51,373.26 27.13,372.55 83.82,347.74 78.6,345.6 17.04,372.55 15.42,373.26 15.34,373.29 -117.43,427.6 -118.83,428.17 -119.24,428.35 -117.71,432.09 -108.44,428.3 -106.74,427.6 "></polygon> <path class="st5" d="M-118.13,373.76l0.42,1.01l3.72-1.51l1.73-0.71L8.12,323.33c1.74,2.55,4.59,4.12,7.68,4.24h0.7 c3.09-0.12,5.94-1.69,7.69-4.24l54.45,22.26l5.22,2.14l57.3,23.44c-0.08,0.45-0.13,0.91-0.14,1.37c0,0.12,0,0.23,0,0.36 c0,0.12,0,0.23,0,0.36c0.19,5.09,4.28,9.17,9.37,9.35h0.36h0.35c5.09-0.19,9.17-4.26,9.36-9.35c0-0.12,0-0.24,0-0.36 c0-0.11,0-0.23,0-0.36c0-0.38,0-0.76-0.11-1.11l116.87-44.37c1.72,2.66,4.63,4.32,7.79,4.45h0.71c5.36-0.19,9.56-4.7,9.36-10.06 c-0.04-1.11-0.27-2.21-0.68-3.24c-0.09-0.23-0.2-0.47-0.31-0.69c-0.3-0.65-0.67-1.26-1.11-1.83l42.07-51.79l3.34-4.04 l42.04-51.75l0.56-0.7l34.52-42.64c1.26,0.65,2.65,1.01,4.06,1.06h0.71c5.22-0.19,9.36-4.48,9.37-9.71c0-0.65-0.07-1.3-0.2-1.94 l2.62-1.11l1.63-0.71l120.47-52.31l0.7-0.31l0.45-0.19l-0.45-1.05l-0.5-1.11l-0.66-1.5l-3.52,1.42l-1.63,0.71l-120.81,52.46 c-1.75-2.46-4.54-3.96-7.56-4.06h-0.36h-0.36c-3.78,0.13-7.14,2.45-8.62,5.93c-0.1,0.23-0.18,0.47-0.26,0.71 c-0.33,0.99-0.5,2.02-0.5,3.06c0,2.22,0.76,4.37,2.16,6.1l-36.73,45.18l-0.57,0.7l-42.03,51.75l-3.34,4.04l-39.87,49.24 c-1.26-0.65-2.65-1.01-4.06-1.06h-0.36h-0.36c-3.58,0.14-6.79,2.22-8.37,5.43c-0.11,0.22-0.21,0.46-0.31,0.69 c-0.45,1.14-0.68,2.36-0.69,3.58c0.01,0.5,0.05,1,0.12,1.49l-116.84,44.37c-1.72-2.67-4.62-4.33-7.79-4.45h-0.7 c-3.09,0.12-5.94,1.69-7.69,4.24L89,345.47l-5.2-2.13l-58.14-23.76c0.09-0.46,0.14-0.92,0.14-1.38c0.01-0.11,0.01-0.23,0-0.35 c0-0.11,0-0.23,0-0.35c-0.18-5.09-4.27-9.18-9.36-9.36h-0.35h-0.36c-5.09,0.18-9.17,4.27-9.35,9.36c0,0.11,0,0.23,0,0.35 c-0.01,0.11-0.01,0.23,0,0.35c0.01,0.46,0.06,0.93,0.14,1.38l-124.66,50.99l-0.7,0.29l-0.41,0.17l0.41,1.01L-118.13,373.76z M414.2,156.12c0-3.14,2.54-5.68,5.68-5.68c3.14,0,5.68,2.54,5.68,5.68c0,3.14-2.54,5.68-5.68,5.68 C416.75,161.79,414.21,159.25,414.2,156.12z M279.61,321.78c0-3.14,2.55-5.69,5.69-5.69s5.69,2.55,5.69,5.69 s-2.55,5.69-5.69,5.69c0,0-0.01,0-0.01,0C282.15,327.46,279.61,324.91,279.61,321.78z M156.38,372.9c0,3.14-2.55,5.69-5.69,5.69 c-3.14,0-5.69-2.55-5.69-5.69c0-3.14,2.55-5.69,5.69-5.69c0,0,0.01,0,0.01,0C153.84,367.22,156.38,369.77,156.38,372.9z M10.43,317.85c0.01-3.14,2.55-5.67,5.69-5.67c3.14,0.01,5.67,2.55,5.67,5.69c-0.01,3.13-2.55,5.67-5.68,5.67 C12.97,323.53,10.43,320.99,10.43,317.85z"></path> <path class="st6" d="M419.88,161.8c3.14,0,5.68-2.54,5.68-5.68c0-3.14-2.54-5.68-5.68-5.68c-3.14,0-5.68,2.54-5.68,5.68 C414.21,159.25,416.75,161.79,419.88,161.8z"></path> <path class="st6" d="M285.27,327.47c3.14,0.01,5.69-2.54,5.7-5.68c0.01-3.14-2.54-5.69-5.68-5.7c-3.14-0.01-5.69,2.54-5.7,5.68 c0,0,0,0.01,0,0.01C279.6,324.91,282.14,327.46,285.27,327.47z"></path> <path class="st6" d="M150.7,367.22c-3.14-0.01-5.69,2.54-5.7,5.68c-0.01,3.14,2.54,5.69,5.68,5.7c3.14,0.01,5.69-2.54,5.7-5.68 c0,0,0-0.01,0-0.01C156.38,369.77,153.84,367.22,150.7,367.22z"></path> <path class="st6" d="M16.11,323.54c3.14,0.01,5.69-2.54,5.7-5.68c0.01-3.14-2.54-5.69-5.68-5.7c-3.14-0.01-5.69,2.54-5.7,5.68 c0,0,0,0.01,0,0.01C10.43,320.99,12.97,323.53,16.11,323.54z"></path> <path class="st6" d="M287.87,262.54c0-3.14-2.54-5.68-5.68-5.68s-5.68,2.54-5.68,5.68c0,3.14,2.54,5.68,5.68,5.68 C285.32,268.21,287.86,265.67,287.87,262.54z"></path> <path class="st4" d="M285.64,253.48c-0.23-0.09-0.47-0.18-0.71-0.24c-5.14-1.52-10.54,1.41-12.07,6.54 c-0.26,0.87-0.39,1.78-0.4,2.69v0.09c0,0.21,0,0.41,0,0.61c0.03,0.54,0.11,1.08,0.23,1.6l-121.65,49.14l-0.7,0.29l-0.47,0.19 l-7.08,3.11l-1.59,0.69l-57.4,25.14l5.22,2.13l61.36-26.86l0.7-0.3l0.23-0.11l0.17-0.07l1.54-0.62l121.47-49.09 c2.43,3.23,6.6,4.6,10.47,3.45l0.71-0.24c3.31-1.27,5.68-4.23,6.18-7.74h37.84l3.34-4.04h-41.52 C290.68,256.92,288.49,254.56,285.64,253.48z M276.51,262.56c0-3.14,2.54-5.68,5.68-5.68s5.68,2.54,5.68,5.68 c0,3.14-2.54,5.68-5.68,5.68S276.51,265.7,276.51,262.56c0-0.01,0-0.01,0-0.02L276.51,262.56z"></path> <path class="st6" d="M419.77,256.82c-3.14-0.01-5.69,2.54-5.7,5.68c-0.01,3.14,2.54,5.69,5.68,5.7c3.14,0.01,5.69-2.54,5.7-5.68 c0,0,0-0.01,0-0.01C425.44,259.37,422.9,256.83,419.77,256.82z"></path> </g> </g> <path class="st7" d="M460.03,443.14v-3.94c0-2.62-0.36-2.64-2.97-2.64H339.93c-2.62,0-8.15,0-8.15,2.64v3.94H460.03z"></path> <polygon class="st4" points="307.31,122.56 307.31,139.39 312.92,139.39 312.92,133.78 340.96,133.78 340.96,128.17 312.92,128.17 312.92,122.56 "></polygon> <path class="st4" d="M357.79,147.81v-19.63h-8.41v-5.57h-5.57v16.79h5.57v-5.57h2.8v8.35H301.7v-8.41h2.8v-5.57h-8.41v58.89h61.7 V147.81z M352.23,181.46H301.7v-33.66h50.48L352.23,181.46z"></path> <rect x="307.31" y="161.83" class="st4" width="5.61" height="5.61"></rect> <rect x="315.73" y="161.83" class="st4" width="5.61" height="5.61"></rect> <rect x="324.14" y="161.83" class="st4" width="5.61" height="5.61"></rect> <rect x="332.55" y="161.83" class="st4" width="5.61" height="5.61"></rect> <rect x="315.73" y="153.42" class="st4" width="5.61" height="5.61"></rect> <rect x="324.14" y="153.42" class="st4" width="5.61" height="5.61"></rect> <rect x="332.55" y="153.42" class="st4" width="5.61" height="5.61"></rect> <rect x="307.31" y="170.25" class="st4" width="5.61" height="5.61"></rect> <rect x="315.73" y="170.25" class="st4" width="5.61" height="5.61"></rect> <rect x="324.14" y="170.25" class="st4" width="5.61" height="5.61"></rect> <rect x="332.55" y="170.25" class="st4" width="5.61" height="5.61"></rect> <rect x="340.96" y="161.83" class="st4" width="5.61" height="5.61"></rect> <rect x="340.96" y="153.42" class="st4" width="5.61" height="5.61"></rect> <path class="st8" d="M256.63,131.82c0.76-9.32-3.47-16.45-10.27-22.14c-10.97-9.17-23.89-13.89-37.99-15.58 c-0.55-0.08-1.1-0.19-1.64-0.35c-1.63,0.1-3.25,0.18-4.86,0.18c-2.07,0-4.12-0.11-6.14-0.27c-0.37,0.18-0.78,0.3-1.19,0.35 c-12.24,0.79-23.04,5.57-33.29,11.94c-10.74,6.68-15.98,16.62-16.01,28.94c-0.06,29,0.33,58,0.53,87.01 c4.93-1.81,9.27-0.33,13.41,2.33c4.72-5.93,9.75-11.64,14.07-17.81c4.32-6.17,8.01-13.22,12.17-19.73c1.28-2.01,0.9-3.15-0.67-4.69 c-5.4-5.28-7.5-11.62-5.83-19.11c1.71-7.71,6.21-11.02,14.15-11.13c6.43,0,13.05,0.06,19.27-1.32c12.89-2.85,23.3-9.62,29.59-23.37 c1.55,3.87,3.06,6.68,3.81,9.75c1.2,4.86,2.04,9.83,2.76,14.79c0.68,4.3-0.27,8.7-2.68,12.32c-0.67,0.97-0.88,2.2-0.57,3.34 c3.42,6.22,7.05,12.31,10.62,18.44h1.34c0.07-13.57,0.17-27.14,0.16-40.71c0-3.9-0.31-7.79-0.49-11.69L256.63,131.82z"></path> <path class="st9" d="M256.6,309.14c5.77,22.6,11.54,45.18,17.31,67.76c1.26,4.94,2.45,9.91,3.87,15.64l6.87-0.79 c0.65,6.94,1.32,13.88,1.99,20.83l-10.72,2.72c-0.86-0.01-1.72,0.05-2.57,0.18c-9.04,2.23-18.09,4.31-27.08,6.68 c-2.29,0.74-4.52,1.64-6.68,2.7l-47.86,11.95l-19.18,4.79l-8.83-0.19l-6.68-16.7c-7.39-18.38-14.86-36.73-22.14-55.14 c-2.77-7.03-5.1-14.25-7.62-21.37c7.96-1.18,15.92-2.33,23.88-3.52c7.1-1.11,14.2-2.23,21.3-3.34c0.81,1.48,1.51,3.02,2.09,4.61 c5.16,17.3,10.32,34.59,15.3,51.95c0.62,2.23,1.61,2.66,3.58,2.44c2.78-0.32,5.57-0.5,8.38-0.73l25.89-2.23h12.92 c0.09-0.37,0.13-0.74,0.14-1.11c-1.88-11.57-3.77-23.13-5.68-34.67c-0.6-3.57-1.37-7.1-2.07-10.66 c-0.97-9.92-2.05-19.84-2.87-29.76c-0.69-8.38-0.93-16.8-1.64-25.18c-1.11-13.46-2.44-26.89-3.66-40.34 c-0.32-3.89-0.64-7.78-0.96-11.68c1.39-0.34,2.75-0.76,4.09-1.26c3.42-1.49,6.78-3.11,10.17-4.67c0.19,1.19,0.3,2.42,0.6,3.58 c3.34,13.1,6.73,26.2,10.18,39.29C251.43,290.39,254.04,299.75,256.6,309.14z"></path> <path class="st10" d="M127.28,348.25c2.53,7.12,4.85,14.34,7.62,21.37c7.28,18.42,14.75,36.73,22.14,55.14l6.68,16.7 c-2.08,0.12-4.16,0.33-6.24,0.33c-38.23,0-76.47,0-114.71,0h-4.14c2.42-8.1,4.45-15.67,6.91-23.07 c6.76-20.15,13.7-40.23,20.6-60.32c0.38-0.89,0.82-1.75,1.32-2.57c1.79-0.36,3.57-0.82,5.31-1.38c11.43-4.3,22.81-8.73,34.25-12.99 c4.98-1.85,10.02-3.34,15.12-5.08L127.28,348.25z"></path> <path class="st4" d="M122.14,336.29c-5.04,1.68-10.14,3.23-15.12,5.08c-11.44,4.26-22.82,8.69-34.25,12.99 c-1.74,0.56-3.52,1.02-5.31,1.38c2.5-6.78,4.85-13.6,7.52-20.3c8.6-21.67,16.63-43.65,28.47-63.79 c7.31-12.42,16.15-23.96,24.55-35.72c4.52-6.31,11.01-10.4,17.75-14.04c4.93-1.81,9.27-0.33,13.41,2.33 c1.02,1.42,1.89,2.93,2.59,4.53c1.96,5.83,3.67,11.75,5.57,17.61c0.56,1.7,1.41,3.34,2.14,4.95c0.75,4.69,1.63,9.36,2.23,14.06 c1.11,8.83,2.15,17.65,2.87,26.51c0.56,6.93,0.7,13.9,0.75,20.86c-0.2,1.44-1.01,2.73-2.23,3.53c-2.11,1.17-4.3,2.18-6.57,3.02 c-0.96,0.15-1.91,0.37-2.84,0.65c-8.7,3.24-17.43,6.43-26.08,9.81C132.38,331.78,127.28,334.1,122.14,336.29z"></path> <path class="st11" d="M298.9,390.78c9.28-0.63,18.56-1.42,27.83-1.81c4.98-0.2,9.17,2.23,13.12,5.14 c16.07,11.94,31.22,25.07,45.3,39.3c0.92,0.91,1.11,2.54,1.66,3.84c-1.69,0-3.76,0.71-5.01,0c-4.71-2.63-9.19-5.64-13.4-9.02 c-5.4-4.57-11.13-6.68-18.21-5.5c-9.95,1.73-17.07-2.23-22.43-10.86c-5.15-8.36-5.57-8.09-15.15-5.57l-9.24,2.46L298.9,390.78z"></path> <path class="st8" d="M256.6,309.14c-2.56-9.37-5.18-18.73-7.65-28.13c-3.45-13.09-6.81-26.19-10.18-39.29 c-0.3-1.11-0.41-2.39-0.6-3.58c1.01-2.06,2.23-4.07,3.03-6.2c3.44-8.69,8.17-17.16,4.4-27.07c-1-2.62-1.65-5.37-2.45-8.06 c0.3-2.71,2.06-5.04,4.6-6.06c2.87-1.29,5.42-3.34,8.11-5.02h1.34c0.06,1.22,0.17,2.45,0.17,3.67c0,38.38-0.03,76.75-0.09,115.11 C257.15,306.07,256.93,307.61,256.6,309.14z"></path> <path class="st12" d="M239.64,424.78c2.16-1.06,4.39-1.97,6.68-2.7c8.99-2.32,18.04-4.45,27.08-6.68c0.85-0.13,1.71-0.19,2.57-0.18 c-1.25,5.06-2.23,10.2-3.78,15.15c-1.79,5.69-6.39,9.12-11.13,12.24c-2,1.46-4.79,1.09-6.34-0.83 C249.56,436.2,244.64,430.46,239.64,424.78z"></path> <path class="st8" d="M298.9,390.78l4.45,17.94l1.47,8.59c0.17,0.97,0.69,2.06,0.4,2.87c-0.58,1.17-1.3,2.26-2.16,3.24 c-0.95-0.71-2.4-1.24-2.73-2.17c-1.24-3.45-2.09-7.05-3.09-10.59c-1.36-6.52-2.72-13.05-4.1-19.57c-0.09-0.71-0.09-1.43,0-2.15 c0.32-1.25,0.83-2.44,1.27-3.65c1.27,0.81,2.47,1.73,3.57,2.76C298.63,388.7,298.63,389.86,298.9,390.78z"></path> <path class="st4" d="M286.64,412.56c-0.67-6.95-1.33-13.89-1.99-20.83c-0.06-1.11-0.49-2.36-0.06-3.19c0.6-1.2,1.6-2.14,2.84-2.65 c0.53-0.19,1.93,1.26,2.45,2.23c0.43,1.12,0.69,2.3,0.77,3.5c0.74,6.68,1.46,13.36,2.16,20.04c0.37,3.42,0.55,6.87,1.18,10.23 c0.42,2.23-0.79,3.23-2.34,3.34c-0.91,0-2.43-1.36-2.74-2.38C287.92,419.45,287.37,415.99,286.64,412.56z"></path> <path class="st13" d="M292.81,411.65c-0.74-6.68-1.46-13.36-2.16-20.04l2.52-0.5c1.37,6.52,2.74,13.05,4.1,19.57L292.81,411.65z"></path> <path class="st14" d="M172.55,441.59l19.22-4.85c-0.35,1.78-0.68,3.56-0.92,4.86L172.55,441.59z"></path> <path class="st15" d="M256.86,133.27l-0.22-1.49C256.71,132.32,256.79,132.81,256.86,133.27z"></path> <path class="st16" d="M255.86,185.72c-2.69,1.7-5.24,3.73-8.11,5.02c-2.53,1.02-4.3,3.34-4.6,6.06 c-3.15,7.66-6.18,15.38-9.57,22.94c-0.83,1.71-2.34,2.98-4.16,3.51c-3.14,0.53-6.44,0.13-9.68,0.11l-11.04-2.64 c-2.23,3.73-4.8,7.21-6.58,11.03c-1.45,3.11-1.99,6.62-2.95,9.95v1.65c-0.27,12.01-0.5,24.02-0.81,36.03 c-0.2,7.96-0.5,15.92-0.79,23.88c0,0.27-0.32,0.51-0.63,0.96c-0.38-0.55-0.73-1.12-1.05-1.71c-5.75-12.19-11.32-24.49-17.32-36.54 c-2.55-5.11-5.99-9.77-9.03-14.64c-0.72-1.65-1.58-3.25-2.14-4.95c-1.89-5.85-3.61-11.78-5.57-17.61c-0.7-1.6-1.57-3.11-2.59-4.53 c4.72-5.93,9.75-11.64,14.07-17.81c4.32-6.17,8.01-13.22,12.17-19.73c1.28-2.01,0.9-3.15-0.67-4.69c-5.4-5.28-7.5-11.62-5.83-19.11 c1.71-7.71,6.21-11.02,14.15-11.13c6.43,0,13.05,0.06,19.27-1.32c12.89-2.85,23.3-9.62,29.59-23.37c1.55,3.87,3.06,6.68,3.81,9.75 c1.2,4.86,2.04,9.83,2.76,14.79c0.68,4.3-0.27,8.7-2.68,12.32c-0.67,0.97-0.88,2.2-0.57,3.34 C248.65,173.5,252.28,179.58,255.86,185.72z M214.4,190.87c3.43,6.99,7.74,12.44,14.89,14.89c1.38,0.48,3.88,0.45,4.62-0.41 c1.9-2.23,3.11-5.06,4.65-7.79L214.4,190.87z"></path> <path class="st10" d="M169.51,251.31c3.04,4.86,6.48,9.53,9.03,14.64c6,12.07,11.56,24.35,17.32,36.54 c0.32,0.59,0.67,1.16,1.05,1.71c0.31-0.45,0.62-0.69,0.63-0.96c0.29-7.96,0.59-15.92,0.79-23.88c0.31-12.01,0.55-24.02,0.81-36.03 c0.25,0.41,0.48,0.83,0.67,1.27c7.32,20.42,12.93,41.42,16.76,62.78c1.74,9.44,3.03,19.38,1.95,28.81 c-1.54,13.41-5.44,26.57-8.34,39.83c-2.78,7.9-5.56,15.79-8.33,23.68c-2.79,0.23-5.57,0.41-8.38,0.73 c-1.97,0.22-2.96-0.26-3.58-2.44c-4.99-17.35-10.14-34.65-15.3-51.95c-0.59-1.58-1.29-3.12-2.09-4.61l-5.94-22.15 c2.26-0.84,4.46-1.85,6.57-3.02c1.21-0.8,2.03-2.09,2.23-3.53c0-6.96-0.19-13.92-0.75-20.86c-0.72-8.9-1.79-17.69-2.87-26.51 C171.11,260.67,170.23,256,169.51,251.31z"></path> <path class="st4" d="M210.15,376.02c2.89-13.26,6.8-26.41,8.34-39.83c1.11-9.43-0.21-19.37-1.95-28.81 c-3.83-21.37-9.44-42.38-16.76-62.81c-0.19-0.44-0.41-0.86-0.67-1.27c0-0.55,0-1.11,0-1.65c9.62,2.77,18.39,7.08,25.71,14.04 c1.22,13.45,2.55,26.88,3.66,40.34c0.7,8.38,0.95,16.8,1.64,25.18c0.82,9.93,1.9,19.85,2.87,29.76 c-4.39,6.57-8.8,13.11-13.12,19.72c-0.46,0.98-0.8,2.01-0.99,3.07l-4.9,6.43C212.41,378.48,211.28,377.26,210.15,376.02z"></path> <path class="st17" d="M166.52,319.29l5.94,22.15c-7.1,1.11-14.2,2.23-21.3,3.34c-7.96,1.19-15.92,2.34-23.88,3.52l-5.14-11.95 c5.14-2.23,10.24-4.52,15.46-6.56c8.65-3.34,17.38-6.57,26.08-9.81C164.61,319.68,165.56,319.45,166.52,319.29z"></path> <path class="st18" d="M218.92,373.81c0.19-1.06,0.53-2.1,0.99-3.07c4.32-6.61,8.74-13.16,13.12-19.72 c0.7,3.56,1.47,7.09,2.07,10.66c1.92,11.55,3.81,23.11,5.68,34.67c-0.01,0.37-0.06,0.75-0.14,1.11h-12.92 c-1.06-3.09-2.04-6.21-3.18-9.27C222.72,383.4,220.79,378.61,218.92,373.81z"></path> <path class="st19" d="M219.73,223.35c3.24,0,6.54,0.42,9.68-0.11c1.82-0.52,3.34-1.8,4.16-3.51c3.34-7.56,6.42-15.28,9.57-22.94 c0.8,2.69,1.45,5.44,2.45,8.06c3.77,9.91-0.96,18.38-4.4,27.07c-0.85,2.13-2.01,4.14-3.03,6.2c-3.39,1.57-6.76,3.18-10.17,4.67 c-1.34,0.5-2.7,0.92-4.09,1.26c-0.48-0.82-0.85-1.69-1.11-2.6C221.7,235.43,220.72,229.38,219.73,223.35z"></path> <path class="st8" d="M219.73,223.35c1,6.03,1.97,12.08,3.03,18.1c0.26,0.91,0.63,1.79,1.11,2.6c0.31,3.9,0.63,7.79,0.96,11.68 c-7.32-6.96-16.1-11.26-25.71-14.04c0.96-3.34,1.5-6.85,2.95-9.95c1.78-3.82,4.31-7.3,6.58-11.03L219.73,223.35z"></path> <path class="st20" d="M214.4,190.87l24.16,6.68c-1.55,2.7-2.75,5.57-4.65,7.79c-0.73,0.86-3.24,0.89-4.62,0.41 C222.14,203.31,217.83,197.83,214.4,190.87z"></path> <path class="st7" d="M550.41,444.85H475.7v-6.6h74.19c1.73-0.35,13.58-3.34,13.58-20.04c0-11.13-38.58-112.92-64.56-178.57 l6.12-2.42c0.16,0.41,16.38,41.5,32.39,83.98c32.58,86.49,32.58,94.4,32.58,97c0,12.1-5.2,18.69-9.56,22.07 c-2.87,2.25-6.24,3.78-9.83,4.45L550.41,444.85z"></path> <path class="st7" d="M467.7,380.37c-0.68,2.51-3.26,4-5.78,3.34l-19.46-5.1c-2.51-0.68-4.01-3.26-3.34-5.78l74.04-282.72 c0.67-2.52,3.26-4.01,5.78-3.34l19.46,5.1c2.51,0.68,4.01,3.26,3.34,5.78L467.7,380.37z"></path> <path class="st21" d="M459.83,382.6c-0.57,0-1.13-0.07-1.68-0.22l-19.46-5.1l0.97-3.68l19.46,5.09c1.51,0.4,3.05-0.51,3.45-2.01 l74.04-282.72l3.68,0.97l-74.03,282.72C465.49,380.55,462.85,382.59,459.83,382.6z"></path> <path class="st4" d="M29.24,99.87h65.97c9.28,0,16.8,7.52,16.8,16.8v65.97c0,9.28-7.52,16.8-16.8,16.8H29.24 c-9.28,0-16.8-7.52-16.8-16.8v-65.97C12.45,107.39,19.97,99.87,29.24,99.87z"></path> <polygon class="st4" points="90.42,216.52 90.42,191.03 62.31,191.03 "></polygon> <path class="st22" d="M46.18,137.34c3.7-3.71,9.71-3.72,13.43-0.02c0.01,0.01,0.01,0.01,0.02,0.02l2.23,2.23l2.23-2.23 c3.71-3.71,9.72-3.71,13.43-0.01s3.71,9.72,0.01,13.43l0,0l-2.23,2.23l0,0l-13.42,13.45l-13.43-13.42l0,0l-2.23-2.23 C42.49,147.08,42.48,141.06,46.18,137.34z"></path> <path class="st6" d="M60.32,270.28c-1.83,0.01-3.59-0.7-4.9-1.98l-21.6-21.06l3.17-3.26l21.6,21.07c0.97,0.91,2.49,0.91,3.46,0 l21.43-20.88l3.17,3.25L65.24,268.3C63.92,269.57,62.16,270.29,60.32,270.28z"></path> <rect x="73.78" y="258.12" transform="matrix(0.6975 -0.7165 0.7165 0.6975 -171.0429 136.4011)" class="st6" width="4.54" height="25.38"></rect> <rect x="31.69" y="268.58" transform="matrix(0.7078 -0.7064 0.7064 0.7078 -178.3315 110.5296)" class="st6" width="25.52" height="4.54"></rect> <path class="st6" d="M80.59,284.42H39.68c-3.76-0.01-6.81-3.05-6.81-6.81v-27.27c0-3.76,3.05-6.82,6.81-6.82h40.91 c3.77,0.01,6.82,3.06,6.82,6.82v27.27C87.41,281.38,84.35,284.42,80.59,284.42z M39.68,248.07c-1.23,0-2.23,1-2.23,2.23v27.27 c0,1.23,1,2.23,2.23,2.23h40.91c1.22-0.03,2.2-1.01,2.23-2.23V250.3c0-1.23-1-2.23-2.23-2.23L39.68,248.07z"></path> <path class="st23" d="M483.4,113.38c0.01,32.16-26.06,58.24-58.23,58.25s-58.24-26.06-58.25-58.23 c-0.01-32.16,26.06-58.24,58.23-58.25c0,0,0.01,0,0.01,0c32.16-0.01,58.23,26.06,58.24,58.21 C483.4,113.37,483.4,113.37,483.4,113.38z"></path> <path class="st24" d="M425.17,55.15c32.16-0.44,58.59,25.27,59.04,57.43c0.44,32.16-25.27,58.59-57.43,59.04 c-0.54,0.01-1.07,0.01-1.61,0"></path> <path class="st6" d="M470.46,113.38c0,25.01-20.28,45.29-45.29,45.29c-25.01,0-45.29-20.28-45.29-45.29s20.28-45.29,45.29-45.29 l0,0c25.01-0.01,45.29,20.26,45.29,45.27C470.46,113.36,470.46,113.37,470.46,113.38z"></path> <path class="st25" d="M384.73,116.57c0.01-25.01,20.3-45.28,45.31-45.27c7.93,0,15.72,2.09,22.59,6.05 c-19.81-15.28-48.25-11.61-63.52,8.2c-15.28,19.81-11.61,48.25,8.2,63.52c1.66,1.28,3.41,2.45,5.24,3.49 C391.31,144,384.72,130.69,384.73,116.57z"></path> <path class="st26" d="M433.31,113.38c0.01,4.47-3.61,8.1-8.08,8.1c-4.47,0.01-8.1-3.61-8.1-8.08c-0.01-4.47,3.61-8.1,8.08-8.1 c0,0,0.01,0,0.01,0c4.46-0.01,8.09,3.61,8.09,8.07C433.31,113.37,433.31,113.37,433.31,113.38z"></path> <path class="st26" d="M444.44,80.68c-0.11,0-0.22-0.03-0.32-0.09c-0.31-0.18-0.42-0.57-0.24-0.88c0,0,0-0.01,0.01-0.01l1.25-2.16 c0.18-0.31,0.58-0.41,0.88-0.23s0.41,0.58,0.23,0.88L445,80.34c-0.11,0.21-0.33,0.33-0.57,0.33L444.44,80.68z"></path> <path class="st26" d="M404.66,149.56c-0.12,0-0.23-0.03-0.33-0.09c-0.31-0.18-0.41-0.58-0.23-0.89l1.24-2.16 c0.17-0.31,0.57-0.42,0.88-0.25c0,0,0.01,0,0.01,0.01c0.31,0.18,0.42,0.58,0.24,0.89l-1.24,2.16 C405.11,149.43,404.9,149.56,404.66,149.56z"></path> <path class="st26" d="M460.68,134.54c-0.11,0-0.22-0.03-0.32-0.09l-2.15-1.18c-0.31-0.18-0.42-0.57-0.24-0.88c0,0,0-0.01,0.01-0.01 c0.18-0.31,0.58-0.42,0.89-0.24l2.14,1.24c0.32,0.18,0.43,0.58,0.25,0.89c0,0,0,0,0,0.01c-0.12,0.2-0.34,0.32-0.57,0.32V134.54z"></path> <path class="st26" d="M391.82,94.78c-0.11,0-0.22-0.03-0.32-0.09l-2.17-1.25c-0.27-0.24-0.3-0.65-0.07-0.93 c0.18-0.21,0.47-0.28,0.72-0.19l2.17,1.25c0.31,0.18,0.42,0.58,0.24,0.9c-0.12,0.2-0.34,0.33-0.57,0.33V94.78z"></path> <path class="st26" d="M405.91,80.68c-0.23,0-0.45-0.13-0.57-0.33l-1.24-2.15c-0.18-0.32-0.07-0.72,0.24-0.9 c0.31-0.18,0.71-0.07,0.89,0.24l1.24,2.16c0.18,0.31,0.07,0.71-0.23,0.89C406.14,80.64,406.03,80.67,405.91,80.68z"></path> <path class="st26" d="M445.7,149.56c-0.23,0-0.45-0.12-0.57-0.32l-1.26-2.17c-0.18-0.31-0.07-0.71,0.23-0.89 c0.31-0.18,0.71-0.08,0.9,0.23l1.25,2.17c0.18,0.31,0.08,0.7-0.22,0.88c0,0-0.01,0-0.01,0.01 C445.93,149.53,445.82,149.56,445.7,149.56L445.7,149.56z"></path> <path class="st26" d="M389.66,134.54c-0.24,0-0.46-0.13-0.57-0.33c-0.18-0.31-0.08-0.7,0.23-0.88c0,0,0.01,0,0.01-0.01l2.16-1.24 c0.31-0.18,0.71-0.07,0.89,0.24c0.18,0.31,0.08,0.7-0.23,0.88c0,0-0.01,0.01-0.01,0.01l-2.16,1.24 C389.88,134.51,389.77,134.54,389.66,134.54L389.66,134.54z"></path> <path class="st26" d="M458.55,94.78c-0.24,0-0.45-0.13-0.57-0.33c-0.18-0.31-0.08-0.7,0.22-0.89c0,0,0.01,0,0.01-0.01l2.15-1.24 c0.29-0.2,0.69-0.13,0.9,0.16c0.2,0.29,0.13,0.69-0.16,0.9c-0.03,0.02-0.06,0.04-0.09,0.05l-2.09,1.26 c-0.1,0.06-0.21,0.09-0.32,0.09H458.55z"></path> <path class="st26" d="M386.64,114.03h-2.48c-0.36,0.05-0.69-0.21-0.74-0.57s0.21-0.69,0.57-0.74c0.06-0.01,0.11-0.01,0.17,0h2.48 c0.36,0,0.66,0.29,0.66,0.66s-0.29,0.66-0.66,0.66V114.03z"></path> <path class="st26" d="M463.7,114.03c-0.36,0-0.66-0.29-0.66-0.66c0-0.36,0.29-0.66,0.66-0.66h2.5c0.36,0,0.65,0.29,0.65,0.65 c0,0.36-0.29,0.65-0.65,0.66L463.7,114.03z"></path> <path class="st26" d="M425.17,155.05L425.17,155.05c-0.36-0.01-0.65-0.3-0.66-0.66v-2.5c0-0.36,0.29-0.65,0.65-0.65l0,0 c0.36,0.01,0.65,0.3,0.65,0.66v2.52c0,0.36-0.29,0.66-0.66,0.66L425.17,155.05z"></path> <path class="st26" d="M425.17,75.5c-0.36,0-0.65-0.29-0.65-0.65v-2.48c-0.05-0.36,0.21-0.69,0.57-0.74s0.69,0.21,0.74,0.57 c0.01,0.06,0.01,0.11,0,0.17v2.48c0,0.36-0.29,0.65-0.65,0.65C425.17,75.5,425.17,75.5,425.17,75.5L425.17,75.5z"></path> <path class="st26" d="M425.18,115.54c-1.19,0-2.15-0.96-2.15-2.15c0,0,0-0.01,0-0.01v-32.1c0.09-1.19,1.12-2.08,2.31-2 c1.07,0.08,1.92,0.93,2,2v32.1C427.34,114.57,426.37,115.54,425.18,115.54L425.18,115.54z"></path> <path class="st26" d="M411.13,129.58c-1.19,0-2.16-0.97-2.16-2.16c0-0.57,0.23-1.12,0.63-1.52l13.49-13.49 c0.8-0.89,2.16-0.96,3.05-0.16c0.89,0.8,0.96,2.16,0.16,3.05c-0.05,0.05-0.1,0.11-0.16,0.16l-13.49,13.5 C412.25,129.36,411.7,129.58,411.13,129.58z"></path> <path class="st6" d="M430.16,113.38c0.01,2.76-2.23,5-4.99,5.01c-2.76,0.01-5-2.23-5.01-4.99c-0.01-2.76,2.23-5,4.99-5.01 c0,0,0.01,0,0.01,0c2.75-0.01,4.99,2.22,5,4.98C430.16,113.37,430.16,113.37,430.16,113.38z"></path> <path class="st27" d="M427.64,113.38c0,1.36-1.11,2.47-2.47,2.47s-2.47-1.11-2.47-2.47s1.11-2.47,2.47-2.47 c1.36-0.01,2.46,1.09,2.47,2.45C427.64,113.36,427.64,113.37,427.64,113.38z"></path> <path class="st27" d="M425.18,114.46c-0.61-0.09-1.02-0.66-0.93-1.27c0.06-0.36,0.29-0.68,0.62-0.83l27.98-8.46 c0.57-0.15,1.16,0.16,1.35,0.72c0.16,0.57-0.16,1.16-0.71,1.35l-27.96,8.45c-0.1,0.02-0.21,0.02-0.31,0L425.18,114.46z"></path> <polygon class="st6" points="308.01,359.91 308.01,291.54 308.01,257.25 332.57,232.69 401.09,232.69 401.09,258.07 401.09,291.54 401.09,359.91 "></polygon> <polygon class="st28" points="332.57,257.25 308.01,257.25 332.57,232.69 "></polygon> <polygon class="st29" points="308.01,257.25 332.57,257.25 308.01,281.82 "></polygon> <path class="st30" d="M330.63,332.51V316.5c-8.31,0.55-14.59,7.73-14.04,16.04c0.55,8.31,7.73,14.59,16.04,14.04 c7.55-0.5,13.55-6.52,14.04-14.07H330.63z"></path> <path class="st27" d="M345.94,328.75c0-6.22-5.04-11.26-11.26-11.26v11.26H345.94z"></path> <path class="st26" d="M337.98,285.98c-0.29,0.92-0.78,1.76-1.44,2.47l4.9,6.83c2.52-2.17,4.26-5.11,4.93-8.37L337.98,285.98z"></path> <path class="st27" d="M332.98,277.31c2.89,0.6,5.04,3.02,5.3,5.95l8.37,0.92c0-0.1,0-0.19,0-0.29 c-0.01-7.78-5.94-14.27-13.69-14.98L332.98,277.31z"></path> <path class="st5" d="M326.66,279.39c0.94-1.06,2.2-1.79,3.58-2.08v-8.39c-4.34,0.4-8.29,2.66-10.83,6.2L326.66,279.39z"></path> <path class="st30" d="M334.33,290.06c-3.36,1.52-7.32,0.04-8.84-3.32c-0.4-0.89-0.61-1.86-0.6-2.84c0.01-0.73,0.14-1.46,0.38-2.15 l-7.25-4.27c-3.54,7.5-0.33,16.46,7.17,20c4.47,2.11,9.7,1.89,13.97-0.6L334.33,290.06z"></path> <rect x="353.76" y="268.92" class="st5" width="36.29" height="3.73"></rect> <rect x="353.76" y="280.62" class="st26" width="36.29" height="3.72"></rect> <rect x="353.76" y="292.33" class="st26" width="36.29" height="3.72"></rect> <rect x="353.76" y="316.5" class="st5" width="25.24" height="3.73"></rect> <rect x="353.76" y="328.2" class="st26" width="36.29" height="3.73"></rect> <rect x="353.76" y="339.9" class="st26" width="36.29" height="3.73"></rect> </g> </svg> 