<?xml version="1.0" encoding="UTF-8"?> <!-- Generator: Adobe Illustrator 24.2.0, SVG Export Plug-In . SVG Version: 6.00 Build 0) --> <svg xmlns="http://www.w3.org/2000/svg" xmlns:xlink="http://www.w3.org/1999/xlink" version="1.1" id="Layer_1" x="0px" y="0px" viewBox="0 0 270 160" style="enable-background:new 0 0 270 160;" xml:space="preserve"> <style type="text/css"> .st0{fill:#00925A;} </style> <g id="Layer_1_5_"> <path class="st0" d="M98,65.2c0.2,11.7,9.9,21,21.7,20.8c11.3-0.2,20.4-9.3,20.8-20.8c0-1.3-0.1-2.8-0.4-4.2V47.8l10.6-5.4v5.7 c-0.3,0.1-0.4,0.4-0.8,0.6l-3.7,3.7c-1.3,1.3-1.5,3.7,0,5.2l0,0l3.6,3.6c1.5,1.3,3.7,1.3,5.2,0l3.7-3.6c1.3-1.3,1.5-3.7,0-5.2l0,0 l-3.6-3.6c-0.2-0.2-0.4-0.4-0.7-0.6v-7.6c0.6-0.3,1-1,1-1.6s-0.4-1.2-1-1.6l-1-0.4h-0.1l-31.7-15.8c-0.4-0.2-1.1-0.2-1.6,0 l-35.5,16c-1,0.4-1.2,1.5-1,2.5c0.1,0.4,0.4,0.7,0.8,0.9l14.3,7.4V61C98.2,62.4,98,63.9,98,65.2z M156.1,55.1l-3.6,3.6l-3.7-3.6 l3.6-3.6L156.1,55.1z M119.4,82.7c-9.5,0.1-17.5-7.6-17.5-17.2c0-1.1,0.1-2.1,0.3-3.3c0.1-0.1,0.1-0.3,0.1-0.4c0-0.1,0-0.1,0-0.2 c0.4-1.1,6-3.6,17.1-3.6s16.7,2.7,17.1,3.6c0,0.2,0.1,0.4,0.1,0.7c0.2,1,0.3,2,0.3,3C136.8,74.9,129,82.7,119.4,82.7z M102.2,57 v-9.2l0,0c0.4-1,6.1-3.7,17.1-3.7c11,0,16.7,2.7,17.1,3.6l0,0v9.2c-4.4-2.1-11.9-2.8-17.1-2.8C114,54.1,106.7,54.8,102.2,57 L102.2,57z M89.3,38.9l31.5-14.2l28.5,14.2l-10.9,5.6c-3.6-3.3-13.1-4.3-19.2-4.3c-6.1,0-15.5,1-19.2,4.3L89.3,38.9z"></path> <path class="st0" d="M122.8,98.1c0.7-0.4,1.5-0.4,2.2-0.6h0.2h0.1c0.2,0,0.4,0,0.6,0h0.2h0.2l-1.6-8.1c-1.2,0.3-2.5,0.4-3.6,0.6 L122.8,98.1z"></path> <path class="st0" d="M108.2,125.1l9.9,6.3c0.7,0.4,1.6,0.4,2.4,0l9.9-6.3c0.1-0.1,0.1-0.1,0.1-0.1l-4.4,0.3h-0.4h-0.1 c-0.7,0-1.2-0.1-2-0.3l-4.4,2.8l-8-5.1l6.1-32.6c-1.2,0-2.4-0.2-3.6-0.6l-6.3,33.6C107.1,123.8,107.6,124.5,108.2,125.1z"></path> <path class="st0" d="M81.4,139h75.7c3,0,5.5-2.5,5.5-5.5v-1c-0.1,0-0.3,0-0.4,0c-0.9,0-1.8-0.2-2.6-0.7l-0.7-0.2v1.9 c0,1-0.8,1.9-1.9,1.9H81.4c-1,0-1.9-0.8-1.9-1.9V104c0-10.1,8.3-18.4,18.4-18.4h6.7c-1.6-1.1-2.8-2.2-4.2-3.6h-2.7 c-12.2-0.1-22,9.8-22,22v29.5C75.9,136.5,78.3,139,81.4,139L81.4,139z"></path> <path class="st0" d="M140.5,81.8h-2.7c-1.2,1.3-2.6,2.6-4.2,3.6h6.7c7.2,0,13.7,4.3,16.7,10.7h1.9c0.8,0,1.6,0.1,2.2,0.3 C158.3,87.8,149.8,81.8,140.5,81.8z"></path> <path class="st0" d="M151.2,128.7c0.3,0.1,0.6,0.2,1,0.2c0.4,0,0.7-0.1,1-0.2l4-2.2l4.3,2.2c0.6,0.3,1.2,0.3,1.9-0.1 c0.4-0.4,0.9-1,0.9-1.6v-7.4l24.3,1.9c0.1,0,0.3,0,0.4,0c3.5-0.2,5.2-5.2,5.2-10.1c0-4.8-1.9-9.9-5.2-10.1c-0.1,0-0.3,0-0.4,0 l-12.2,0.9c-0.4-1-1-1.9-1.8-2.5c-1.3-1.2-3.1-1.7-4.9-1.3c-2.7,0.4-5.2,1.2-7.5,2.6c-0.9-0.4-1.9-0.8-2.8-0.8h-4 c-1,0-1.9,0.2-2.7,0.7c-2.4-1.5-4.9-2.5-7.8-2.8c-1.7-0.3-3.5,0.1-4.8,1.2c-1,0.8-1.6,1.9-2,3l-12.2-0.9c-0.1,0-0.3,0-0.4,0 c-3.6,0.3-5.3,5.2-5.3,10.1c0,4.8,1.9,10.1,5.5,10.1h0.1l24.3-1.9v7.4C150.2,127.7,150.5,128.3,151.2,128.7z M188.5,104.9 c0.4,0.1,1.9,2.5,1.9,6.4c0,4-1.3,6.3-1.8,6.4c-0.4-0.1-1.9-2.5-1.9-6.4C186.7,107.3,188,105.1,188.5,104.9z M170,101.9 c0.7-0.1,1.3,0.1,1.9,0.4c0.4,0.4,0.8,1.1,0.8,1.8v3.6c0,0.7-0.3,1.2-0.8,1.8c-0.4,0.4-1.2,0.7-1.9,0.4c-2-0.3-3.8-0.9-5.6-1.8 c0.1-0.3,0.1-0.4,0.1-0.8v-2c0-0.6-0.1-1.1-0.2-1.6C166,102.8,168,102.2,170,101.9L170,101.9z M164,112.3c1.8,0.7,3.6,1.2,5.4,1.6 c0.3,0.1,0.7,0.1,1,0.1c1.5,0,2.8-0.4,3.9-1.5c1.2-1.1,2.1-2.8,2.1-4.5v-2l7.5-0.6c-1.3,3.9-1.3,8.3,0,12.2l-19.9-1.5L164,112.3z M160.4,123.9l-2.5-1.2c-0.3-0.1-0.4-0.2-0.9-0.2c-0.3,0-0.7,0.1-0.9,0.2l-2.1,1.2v-11.3c0.4,0.1,0.8,0.1,1.2,0.1h3.9 c0.4,0,0.9-0.1,1.2-0.1L160.4,123.9L160.4,123.9z M153.4,105.4c0-1,0.8-1.7,1.7-1.7h3.9c1,0,1.7,0.8,1.7,1.7v2 c0,0.9-0.7,1.6-1.6,1.7c-0.1,0-4.3,0-4.3,0c-1,0-1.7-0.8-1.7-1.7C153.4,107.5,153.4,105.4,153.4,105.4z M141.4,104.1 c0-0.8,0.4-1.6,1-2.1c0.4-0.4,0.9-0.4,1.3-0.4c0.1,0,0.2,0,0.4,0c2,0.4,4.2,1,6,2c-0.2,0.6-0.4,1.2-0.4,1.9v2.1 c0,0.4,0.1,0.7,0.1,1.1c-1.8,1-3.6,1.6-5.7,2c-0.7,0.1-1.2-0.1-1.8-0.4c-0.7-0.4-1-1.2-1-2.1L141.4,104.1z M125.8,117.8 c-0.4-0.1-1.9-2.5-1.9-6.4c0-4,1.3-6.3,1.9-6.4c0.4,0.1,1.9,2.5,1.9,6.4C127.7,115.3,126.2,117.7,125.8,117.8z M130.3,117.3 c1.3-3.9,1.3-8.3,0-12.2l7.5,0.6v2c0,1.9,0.8,3.6,2.2,4.9c1,0.9,2.4,1.3,3.7,1.3c0.4,0,0.7-0.1,1-0.1c1.9-0.3,3.6-0.9,5.4-1.6v3.4 L130.3,117.3z"></path> </g> </svg> 