<?xml version="1.0" encoding="UTF-8"?> <!-- Generator: Adobe Illustrator 24.2.0, SVG Export Plug-In . SVG Version: 6.00 Build 0) --> <svg xmlns="http://www.w3.org/2000/svg" xmlns:xlink="http://www.w3.org/1999/xlink" version="1.1" id="Layer_1" x="0px" y="0px" viewBox="0 0 270 160" style="enable-background:new 0 0 270 160;" xml:space="preserve"> <style type="text/css"> .st0{fill:#00925A;} </style> <g> <path class="st0" d="M121.1,79.7c-0.9,0-1.5,0.7-1.5,1.5v1.5H118c-0.9,0.1-1.5,0.8-1.4,1.6c0.1,0.8,0.7,1.3,1.4,1.4h12.2 c0.9,0.1,1.6-0.5,1.6-1.4c0.1-0.9-0.5-1.6-1.4-1.6c-0.1,0-0.2,0-0.3,0h-7.6v-1.6C122.6,80.2,121.9,79.7,121.1,79.7L121.1,79.7z"></path> <path class="st0" d="M98.1,62.9c13.5,0,24.4-10.9,24.4-24.4s-10.9-24.4-24.4-24.4S73.7,25,73.7,38.5C73.8,51.9,84.8,62.9,98.1,62.9 z M98.1,17.2c9.3,0,17.5,5.9,20.3,14.8l-4.1,2.1c-1.6-3.8-6-5.7-10-4.1c-2.1,0.9-3.7,2.5-4.4,4.7h-3.8c-1.2-4.1-5.5-6.3-9.4-5.1 c-2.2,0.7-3.8,2.3-4.7,4.4l-4.1-2.2C80.7,23.1,89,17.2,98.1,17.2L98.1,17.2L98.1,17.2z M111.9,36.9c0,2.5-2.1,4.5-4.5,4.5 s-4.5-2.1-4.5-4.5c0-2.4,2.1-4.5,4.5-4.5S111.9,34.4,111.9,36.9z M93.6,36.9c0,2.5-2.1,4.5-4.5,4.5c-2.5,0-4.5-2.1-4.5-4.5 c0-2.4,2.1-4.5,4.5-4.5l0,0C91.6,32.3,93.6,34.4,93.6,36.9z M77.1,35l4.3,2.2c0.2,4.2,3.7,7.5,7.9,7.4c3.8-0.1,6.9-3.1,7.4-6.8h3.1 c0.3,4.2,4.2,7.2,8.3,6.8c3.8-0.3,6.7-3.5,6.8-7.4l4.3-2.2c0.2,1.1,0.3,2.3,0.3,3.5c0,11.7-9.6,21.4-21.4,21.4s-21.4-9.7-21.4-21.4 l0,0C76.8,37.3,77,36.2,77.1,35L77.1,35z"></path> <path class="st0" d="M98.1,55.8c1.8,0,3.5-0.7,4.8-1.9c0.7-0.4,0.9-1.4,0.3-2.1c-0.4-0.7-1.4-0.9-2.1-0.3c-0.1,0.1-0.3,0.2-0.3,0.3 c-1.5,1.4-4,1.4-5.5,0c-0.5-0.5-1.5-0.5-2.2,0c-0.5,0.5-0.5,1.5,0,2.2C94.6,55.3,96.4,55.8,98.1,55.8z"></path> <path class="st0" d="M94.9,87.6l1.8-14.5c1,0.4,2.1,0.4,3,0l1.8,14.5c1-0.3,1.9-0.8,3-1.1l-1.9-15l0.2-0.1c1.1-0.7,1.8-2.1,1.4-3.4 l-0.5-2.5c-1.1,0.2-2,0.3-3.1,0.3l0.8,3l-3.1,1.8l-3.1-1.8l0.8-3c-1.1-0.1-2-0.2-3.1-0.3l-0.7,2.5c-0.3,1.3,0.3,2.7,1.4,3.4 l0.2,0.1L92,86.7C92.9,86.8,93.9,87.2,94.9,87.6z"></path> <path class="st0" d="M61.7,77.6c0-8.5,6.7-15.4,15.3-15.5h7.4c-1.5-0.9-3-1.9-4.2-3.1h-3.2c-10.2,0.1-18.3,8.3-18.3,18.6v19.3 l3.1-2.1C61.7,94.7,61.7,77.6,61.7,77.6z"></path> <path class="st0" d="M134.7,92c0.4-0.2,1.1-0.3,1.6-0.3c0.4,0,1,0.1,1.4,0.2V77.6c0.1-10.2-8.1-18.4-18.3-18.6h-3.2 c-1.3,1.1-2.6,2.2-4.2,3.1h7.4c8.5,0.1,15.3,7,15.2,15.5L134.7,92z"></path> <path class="st0" d="M124.8,104c0.2-0.3,0.3-0.5,0.3-0.9c-2.9-0.4-5.7-0.7-8.7-0.7c-6.6,0.1-13.4,1.5-18.3,5.9 c-4.9-4.4-11.6-5.9-18.4-5.9c-13.4,0.1-27.1,5.9-27.1,5.9v-0.3l22.3-15c3.5-0.2,7.8-1,11.6-1c2.2-0.1,4.4,0.3,6.4,1.1 c2,0.9,3.8,2,5.4,3.4c2.4-2.2,5.5-3.8,8.8-4.6c1-0.3,2-0.3,3.1-0.3c3.8,0,8.2,1.2,11.6,1.5l5.7,3.8c0.4-1,1.3-1.8,2.4-2.1l-6.4-4.3 c-0.4-0.3-1-0.4-1.5-0.4c-1.3-0.1-3-0.3-4.5-0.7c-2.4-0.4-4.8-0.8-7.4-0.9c-1.3,0-2.5,0.2-3.8,0.4c-2.9,0.8-5.5,2-7.9,3.7 c-1.2-1-2.6-1.8-4-2.4c-2.4-1-5.1-1.4-7.6-1.3c-2.5,0-5.2,0.3-7.7,0.5c-1.5,0.2-3,0.3-4.2,0.4c-0.5,0-1.1,0.2-1.5,0.4l-22.6,15.2 c-0.9,0.5-1.3,1.5-1.3,2.5v0.3c0,1.8,1.3,3.1,3.1,3.1l0,0c0.3,0,0.9-0.1,1.2-0.3c0.1-0.1,13.3-5.6,26.1-5.6 c7.1,0,12.5,1.8,16.5,5.2c1.1,1.1,3,1.1,4.1,0c3.8-3.4,9.3-5.2,16.5-5.2c2.5,0,5.2,0.2,7.7,0.5C124.4,105.5,124.6,104.8,124.8,104z "></path> <path class="st0" d="M164.6,91.4c13,0,23.5-11.6,23.5-26.1c0-9.2-4.4-17.7-11.4-22.4c-0.9-6.7-6.9-11.4-13.6-10.5 c-5.5,0.7-9.9,5.1-10.5,10.5c-7,4.7-11.4,13.2-11.4,22.4C141.1,79.7,151.7,91.4,164.6,91.4z M155,45.4c1.1-0.5,2.4-1,3.6-1l0,0 c1,0,1.8-0.8,1.8-1.8c0-1-0.8-1.8-1.8-1.8l0,0c-0.7,0-1.4,0.1-2.1,0.3c1.8-4.5,6.8-6.7,11.3-4.8c2.2,0.9,4,2.6,4.8,4.8 c-0.8-0.2-1.4-0.3-2.2-0.3h-0.1c-1,0-1.8,0.8-1.8,1.8c0,1,0.8,1.8,1.8,1.8l0,0c1.5,0.1,3,0.5,4.2,1.3c4.9,3.4,8.3,8.7,9.4,14.5 c-1.8-1.3-3.5-2.4-5.6-3.2c-1.9-0.5-3.8-1.1-5.8-1.1c-0.9-0.1-1.8-0.2-2.5-0.3c-4.5-0.9-8.3-3.6-10.5-7.7c-0.3-0.9-1.4-1.2-2.4-0.9 c-0.4,0.3-0.9,0.8-1,1.3c-0.1,0.4-1.8,11.7-11.1,12C146.2,54.2,149.8,48.8,155,45.4L155,45.4z M144.7,64c8,0.1,12.2-5.9,14.1-11 c2.7,3.3,6.7,5.5,10.9,6.1c1,0.2,1.8,0.3,2.7,0.3c1.8,0.1,3.4,0.4,5.1,1c4.5,1.8,7,4.2,7.2,7.4c-1.1,11.3-9.7,20-20,20 c-11,0-20-10.2-20-22.6C144.7,64.8,144.7,64.4,144.7,64z"></path> <path class="st0" d="M156,76.6c2.5,0,4.9-1.6,5.8-4.1l2.1-0.4c0.5-0.2,1.2-0.2,1.8,0l2.1,0.4c1.1,3.2,4.5,4.8,7.8,3.7 c3.2-1.1,4.8-4.5,3.7-7.8c-1.1-3.2-4.5-4.8-7.8-3.7c-1.9,0.7-3.3,2.2-3.8,4.2l-1.1-0.3c-1.1-0.3-2.4-0.3-3.5,0l-1.1,0.3 c-1-3.2-4.3-5.2-7.5-4.2c-3.2,1-5.2,4.3-4.2,7.5C150.8,74.7,153.3,76.7,156,76.6L156,76.6z M173.3,67.9c1.4,0,2.5,1.1,2.5,2.5 s-1.1,2.5-2.5,2.5s-2.5-1.1-2.5-2.5l0,0C170.7,69,171.9,67.9,173.3,67.9z M156,67.9c1.4,0,2.5,1.1,2.5,2.6c0,1.4-1.1,2.5-2.6,2.5 s-2.5-1.1-2.5-2.5C153.3,69,154.4,67.9,156,67.9C155.9,67.9,155.9,67.9,156,67.9z"></path> <path class="st0" d="M166.4,79.1h-3.5c-1,0-1.8,0.8-1.8,1.8s0.8,1.8,1.8,1.8l0,0h3.5c1,0,1.8-0.8,1.8-1.8 C168.2,79.9,167.4,79.1,166.4,79.1z"></path> <path class="st0" d="M171.7,104.6l4.5-12.5c-1.4,0.7-2.9,1.3-4.3,1.8l-4.1,11.2L171.7,104.6z"></path> <path class="st0" d="M218.7,134h-11.3v-22c0-13.4-10.9-24.4-24.4-24.9c-0.5,0.5-1.2,1.1-1.9,1.8c-0.9,0.8-1.8,1.4-2.7,2.1l6.8,7.4 h-5.1c-0.5,0-1.1,0.3-1.3,0.7l-4.3,5.3l4.9-0.5l1.5-1.9h8.1c1,0,1.8-0.8,1.8-1.8c0-0.4-0.2-0.9-0.4-1.1l-7.6-8.3 c11.7,0.5,21.1,10,21.1,21.5v22h-4.4v3.5h19.2c1,0,1.8-0.8,1.8-1.8C220.3,134.8,219.5,133.9,218.7,134L218.7,134L218.7,134z"></path> <path class="st0" d="M157.6,104.6l3.8,0.4l-4-11.3c-1.5-0.4-3-1.1-4.3-1.8L157.6,104.6z"></path> <path class="st0" d="M195.9,109.2L195.9,109.2c0-1-0.8-1.8-1.8-1.8c-0.1,0-0.1,0-0.2,0l-29.4,3.7l-29.3-3.7c-1-0.1-1.8,0.5-1.9,1.5 c0,0.1,0,0.2,0,0.2l0,0v31.2l0,0c0,0.9,0.7,1.6,1.5,1.8l29.6,3.7h0.4l29.6-3.7c0.9-0.1,1.5-0.9,1.5-1.8l0,0L195.9,109.2z M166.4,142.1v-27.7l26.1-3.2V139L166.4,142.1z M136.8,111.2l26.1,3.2V142l-26.1-3.2V111.2z"></path> <path class="st0" d="M129.8,134h-4.4v-22c0-11.5,9.4-21,21.1-21.5l-7.6,8.2c-0.7,0.8-0.5,1.8,0.1,2.4c0.3,0.3,0.8,0.4,1.1,0.4h8.1 l1.5,1.9l4.9,0.5l-4.3-5.3c-0.3-0.3-0.9-0.7-1.3-0.7h-5.1l6.8-7.4c-1-0.7-1.9-1.3-2.7-2.1c-0.7-0.5-1.2-1.1-1.9-1.8 c-13.4,0.8-24.4,11.6-24.4,25V134h-11.2c-1,0-1.8,0.8-1.8,1.8c0,1,0.8,1.8,1.8,1.8h19.2L129.8,134L129.8,134z"></path> </g> </svg> 