<?xml version="1.0" encoding="UTF-8"?> <!-- Generator: Adobe Illustrator 24.2.0, SVG Export Plug-In . SVG Version: 6.00 Build 0) --> <svg xmlns="http://www.w3.org/2000/svg" xmlns:xlink="http://www.w3.org/1999/xlink" version="1.1" id="Layer_1" x="0px" y="0px" viewBox="0 0 270 160" style="enable-background:new 0 0 270 160;" xml:space="preserve"> <style type="text/css"> .st0{fill:none;} .st1{fill:#00925A;} .st2{fill:none;stroke:#D324AA;stroke-width:1.0106;stroke-miterlimit:10;} </style> <g> <g> <path class="st0" d="M193.5,91.4c-2.4-0.6-4.9,0.8-5.5,3.1c-0.3,1.2-0.2,2.4,0.4,3.5c0.5,1.1,1.6,1.7,2.7,2.1 c2.4,0.6,4.9-0.8,5.5-3.1S195.9,92.1,193.5,91.4z"></path> </g> <path class="st1" d="M194.4,88.3c-3.4-0.9-6.9,0.5-8.7,3.7l-0.1,0.4l-5.1-1.4l0.1-0.4c0.8-3.4,1.1-6.8,1.1-10.2 c0-11.6-4.3-22.8-12.1-31.5l-0.4-0.4l3.7-3.7l0.4,0.1c3.7,2.2,8.3,0.9,10.5-2.7c2.2-3.6,0.9-8.3-2.7-10.5 c-3.7-2.2-8.3-0.9-10.5,2.7c-1.4,2.4-1.4,5.3,0,7.8l0.1,0.4l-3.7,3.7l-0.4-0.2c-11.4-10.5-26.7-14.7-41.7-11.5l-0.4,0.1l-1.4-5.1 l0.4-0.1c3.7-2.1,5-6.8,2.9-10.5c-2.1-3.7-6.8-5-10.4-2.9c-3.7,2.1-5,6.8-2.9,10.5c1.4,2.4,3.9,3.9,6.7,3.9h0.4l0.1,0.4l1.3,4.7 l-0.5,0.1c-5.5,1.7-10.8,4.5-15.3,8.2h-0.1c-0.1,0.1-0.2,0.1-0.4,0.2c-0.2,0.2-0.2,0.2-0.2,0.2l-0.1,0.1C98.1,50,93.1,57.5,90.5,66 l-0.1,0.4L85.2,65v-0.3c0-3.6-2.3-6.6-5.6-7.6c-4-1.1-8.3,1.3-9.4,5.3c-1.1,4,1.3,8.3,5.4,9.4c0.6,0.1,1.4,0.2,2.1,0.2 c2.7,0,5.3-1.4,6.7-3.9l0.1-0.4l5.1,1.4l-0.1,0.4c-3.4,14.8,0.8,30.4,11.2,41.7l0.2,0.4l-3.7,3.7l-0.4-0.1c-3.7-2.2-8.3-1-10.5,2.6 c-2.2,3.7-1,8.3,2.6,10.5c3.7,2.2,8.3,1,10.5-2.6c0.8-1.2,1.1-2.5,1.1-3.9s-0.4-2.6-1-3.8l-0.1-0.4l3.7-3.7l0.4,0.4 c1,0.9,2,1.7,3,2.5c0.4,0.3,0.7,0.5,1.1,0.8l0,0c0,0,0.6,0.4,0.8,0.6c0,0,0.1,0.1,0.1,0.1c10.5,7.3,23.8,10,36.6,7.2l0.4-0.1l1.4,5 l-0.4,0.1c-3.7,2.1-5,6.8-3,10.5c2.1,3.7,6.8,5,10.5,3c3.7-2.1,5-6.8,3-10.5c-1.4-2.4-3.9-3.9-6.7-3.9h-0.4l-1.4-5l0.4-0.1 c14.5-4.5,26-15.8,30.6-30.4l0.1-0.4l5.1,1.4v0.4c-0.1,3.6,2.3,6.6,5.6,7.6c0.6,0.1,1.4,0.2,2.1,0.2c3.5,0,6.5-2.3,7.6-5.6 C200.9,93.7,198.5,89.3,194.4,88.3z M174,35c1.7-1.7,4.7-1.7,6.4,0c1.7,1.7,1.7,4.7,0,6.4c-1.7,1.7-4.7,1.7-6.4,0 c-0.8-0.8-1.3-2.1-1.3-3.1C172.6,36.9,173.1,35.8,174,35z M82.1,65.9c-0.5,2.1-2.4,3.4-4.4,3.4c-0.4,0-0.8-0.1-1.2-0.1 c-1.2-0.2-2.2-1.1-2.8-2.1c-0.6-1-0.8-2.3-0.4-3.5c0.5-2.1,2.4-3.4,4.4-3.4c0.4,0,0.8,0.1,1.2,0.1C81.2,60.8,82.7,63.3,82.1,65.9z M96,125.3c-1.7,1.7-4.7,1.7-6.4-0.1c-1.7-1.7-1.7-4.7,0.1-6.4s4.7-1.7,6.4,0.1c0.8,0.8,1.3,2.1,1.3,3.1 C97.3,123.2,96.8,124.3,96,125.3z M120.9,27.2c-0.4,0.1-0.8,0.1-1.2,0.1c-2.1,0-3.9-1.4-4.4-3.5c-0.6-2.4,0.8-4.9,3.1-5.5 c0,0,0,0,0.1,0c0.4-0.1,0.8-0.1,1.2-0.1c2.4-0.2,4.7,1.5,5,4C124.9,24.6,123.3,26.7,120.9,27.2z M149,133.1c2.4-0.8,4.9,0.8,5.6,3 c0.4,1.3,0.1,2.5-0.4,3.7c-0.5,1.2-1.6,1.7-2.8,2.1c-0.4,0.1-0.8,0.1-1.2,0.1c-2.4,0.2-4.7-1.6-4.9-4 C145.1,135.6,146.7,133.5,149,133.1z M135.1,123.7c-10,0-19.1-3.3-26.5-8.9l-0.7,0.1l0.7-0.1c-5.9-4.5-10.7-10.5-13.7-17.4 l-0.5-0.9c-1.2-3-2.1-6.2-2.5-9.4c-0.4-2.3-0.6-4.6-0.6-7c0-24.2,19.6-43.8,43.8-43.8s43.8,19.6,43.8,43.8 C178.8,104.1,159.2,123.7,135.1,123.7z M196.6,96.9c-0.6,2.4-3.1,3.8-5.5,3.1c-1.1-0.3-2.2-1-2.7-2.1c-0.6-1.1-0.8-2.3-0.4-3.5 c0.6-2.4,3.1-3.8,5.5-3.1C195.9,92.1,197.3,94.5,196.6,96.9z"></path> <g> <polygon class="st2" points="117.7,47.1 117.7,47.1 117.7,47.1 "></polygon> <path class="st0" d="M143.7,89.1c1.3,0,2.6,0.8,3,2.1l1.6,4.1h0.2c1.2,0.2,2.3,1.2,2.4,2.4l1.8,11l2.9,2.9l4.7-3.5l4-10 c0.1-0.1,0.1-0.4,0.2-0.6l6.6-10h-6.3c-1.4,0-2.7-1-2.9-2.4l-1.7-10.1h-8.8c-0.6,0-1.1-0.2-1.6-0.4l-5.3-3.6l-5.2,1.8l-7.6,7.7 l0.1,0.2c0.7,3.7,1.1,6.6,1.6,8.1l0.1,0.4h0.4C137.2,89.6,140.5,89.3,143.7,89.1z"></path> <path class="st0" d="M130.9,91.1c-0.2-0.2-0.4-1-2.1-10.1c-0.2-0.9,0.1-1.9,0.8-2.6l7.8-7.6c0.3-0.3,0.7-0.7,1.1-0.8l5.7-1.9 c0.8-0.2,1.7,0,2.4,0.4l5.3,3.6h8.8c1.4,0,2.8,1,2.9,2.4l1.7,10.1h6.6c0.7,0,1.2,0.2,1.7,0.4c1.3,1,1.7,2.8,0.8,4.1l-6.9,10.4 l-4,10c-0.2,0.6-0.6,1.1-0.9,1.2l-5,3.3c-1.3,0.7-2.8,0.4-3.8-0.4l-3.1-3.1c-0.3-0.4-0.7-1-0.8-1.6L148,98.4l-0.4-0.1 c-1-0.1-1.8-0.9-2.2-1.9l-1.4-4.1h-0.4c-1.3,0.1-3.9,0.2-6.2,0.2C132.6,92.6,131.5,92.3,130.9,91.1z"></path> <path class="st1" d="M152.5,47l-8.9,7.3l-1.2-2.4c-0.2-0.6-0.8-0.9-1.4-0.9h-4.1c-0.8,0-1.6,0.8-1.6,1.6v6.2 c0,0.8,0.8,1.6,1.6,1.6h0.4V63c0,0.4,0.1,0.8,0.4,1.1c0.2,0.2,0.8,0.4,1.1,0.4l7-0.1c0.1,0,0.4,0,0.4-0.1l5.2-1.8l5.5,3.7 c0.4,0.2,1,0.4,1.7,0.4h8.8l1.8,10.1c0.1,1.4,1.4,2.4,2.9,2.4h6.7c0-1-0.1-1.9-0.1-2.9h-6.6l-1.7-10.1c-0.1-1.4-1.4-2.4-2.9-2.4 h-8.8l-5.3-3.6c-0.8-0.4-1.7-0.7-2.4-0.4l-5.2,1.7l-5,0.1v-2.6c0-0.8-0.8-1.6-1.6-1.6h-0.4v-3.1h1.4l1.7,3.3 c0.1,0.4,0.7,0.8,1.1,0.8c0.4,0.1,0.9,0,1.3-0.2l10.1-8.1c-0.1,0,10.8,0,13,0c-1.1-1.2-2.3-2.4-3.5-3.5h-10.4 C153,46.6,152.7,46.7,152.5,47z"></path> <path class="st1" d="M136.8,51c-0.9,0-1.6,0.7-1.6,1.6C135.2,51.8,136,51,136.8,51z"></path> <path class="st1" d="M135.2,58.8c0,0.9,0.7,1.6,1.6,1.6C136,60.4,135.2,59.6,135.2,58.8z"></path> <path class="st1" d="M119.3,48.7c0-0.9-0.7-1.6-1.6-1.6C118.5,47.1,119.3,47.9,119.3,48.7z"></path> <path class="st1" d="M137.2,92.5c2.3,0,4.9-0.1,6.2-0.2h0.4l1.4,4.1c0.4,1,1.2,1.8,2.2,1.9l0.4,0.1l1.8,10.8 c0.1,0.6,0.4,1.1,0.8,1.6l3.1,3.1c1,0.9,2.4,1.1,3.8,0.4l5-3.3c0.3-0.1,0.7-0.7,0.9-1.2l4-10l6.9-10.4c0.9-1.3,0.6-3.1-0.8-4.1 c-0.4-0.2-1-0.4-1.7-0.4h-6.6l-1.7-10.1c-0.1-1.4-1.4-2.4-2.9-2.4h-8.8l-5.3-3.6c-0.8-0.4-1.7-0.7-2.4-0.4l-5.7,1.9 c-0.4,0.1-0.8,0.4-1.1,0.8l-7.8,7.6c-0.7,0.7-1,1.7-0.8,2.6c1.7,9.1,1.9,9.9,2.1,10.1C131.5,92.3,132.6,92.6,137.2,92.5z M133.5,89.3l-0.1-0.4c-0.4-1.6-0.9-4.5-1.6-8.1l-0.1-0.2l7.6-7.7l5.2-1.8l5.3,3.6c0.4,0.2,1,0.4,1.6,0.4h8.8l1.7,10.1 c0.2,1.4,1.4,2.4,2.9,2.4h6.3l-6.6,10c-0.1,0.1-0.1,0.4-0.2,0.6l-4,10l-4.7,3.5l-2.9-2.9l-1.8-11c-0.1-1.2-1.2-2.2-2.4-2.4h-0.2 l-1.6-4.1c-0.4-1.3-1.7-2.1-3-2.1c-3.2,0.2-6.5,0.4-9.8,0.2H133.5z"></path> </g> <path class="st1" d="M122.6,114.1l-5.9-7.9c0,0,1.5-10.3,1.9-11.1c0.1-1,0-1.7-0.8-2.1l-12-5.9c-0.1,0-0.1-0.1-0.1-0.1l-5.7-1.7 l-1.7-4.9l3.8-7.7l6.1-6l10.2-6.1c0.4-0.2,0.8-0.8,0.8-1.4V48.7c0-0.8-0.8-1.6-1.6-1.6c0,0,0,0,0,0h-7.8l-2.3-2.5 c-0.8,0.6-1.6,1.3-2.4,2l2.8,2.8c0.2,0.2,0.8,0.4,1.1,0.4h6.8v8l-9.7,5.8c-0.1,0.1-0.1,0.1-0.2,0.1l-6.3,6.3 c-0.1,0.1-0.1,0.2-0.2,0.4l-3.8,7.5h-5.4c0,0.5,0,1.1,0,1.6c0,0.7,0,1.4,0.1,2h4.9l1.6,4.8L95,94.4l-1.2,2.4 c0.5,1.2,1.1,2.4,1.7,3.6c0.2-0.1,0.5-0.4,0.6-0.7l2.1-4.1c0.1-0.1,0.1-0.1,0.1-0.2l1.7-6.8l4.5,1.4l10.5,5.2l-0.6,3.5l-0.5,2.6 l-0.8,4.9c0,0.2,0,0.5,0,0.7c0.1,0.2,0.2,0.5,0.3,0.7l4.6,6.2l-9.5,1.6c1.4,1.1,2.9,2,4.5,2.9l8.5-1.4c0.6-0.1,1.1-0.5,1.4-1.1 C123.1,115.2,123,114.6,122.6,114.1z"></path> </g> </svg> 