<?xml version="1.0" encoding="UTF-8"?> <!-- Generator: Adobe Illustrator 24.2.0, SVG Export Plug-In . SVG Version: 6.00 Build 0) --> <svg xmlns="http://www.w3.org/2000/svg" xmlns:xlink="http://www.w3.org/1999/xlink" version="1.1" id="Layer_1" x="0px" y="0px" viewBox="0 0 270 160" style="enable-background:new 0 0 270 160;" xml:space="preserve"> <style type="text/css"> .st0{fill:#94d341;} </style> <g> <g id="Layer_1_10_"> <path class="st0" d="M80.4,95.2h-3.6c-1.5,0-2.5,1-2.5,2.5s1,2.5,2.5,2.5h3.6c1.5,0,2.5-1,2.5-2.5C82.8,96.4,81.7,95.2,80.4,95.2 L80.4,95.2z"></path> <path class="st0" d="M95,95.2h-3.7c-1.5,0-2.5,1-2.5,2.5s1,2.5,2.5,2.5l0,0H95c1.5,0,2.5-1,2.5-2.5C97.4,96.4,96.4,95.2,95,95.2z"></path> <path class="st0" d="M80.4,104.9h-3.6c-1.5,0-2.5,1-2.5,2.5c0,1.5,1,2.5,2.5,2.5h3.6c1.5,0,2.5-1,2.5-2.5 C82.8,106.1,81.7,104.9,80.4,104.9z"></path> <path class="st0" d="M95,104.9h-3.7c-1.5,0-2.5,1-2.5,2.5c0,1.5,1,2.5,2.5,2.5l0,0H95c1.5,0,2.5-1,2.5-2.5 C97.4,106.1,96.4,104.9,95,104.9z"></path> <path class="st0" d="M80.4,114.7h-3.6c-1.5,0-2.5,1-2.5,2.5c0,1.5,1,2.5,2.5,2.5l0,0h3.6c1.5,0,2.5-1,2.5-2.5 C82.8,115.8,81.7,114.7,80.4,114.7z"></path> <path class="st0" d="M95,114.7h-3.7c-1.5,0-2.5,1-2.5,2.5c0,1.5,1,2.5,2.5,2.5H95c1.5,0,2.5-1,2.5-2.5 C97.4,115.8,96.4,114.7,95,114.7z"></path> <path class="st0" d="M80.4,124.4h-3.6c-1.5,0-2.5,1-2.5,2.5c0,1.5,1,2.5,2.5,2.5l0,0h3.6c1.5,0,2.5-1,2.5-2.5 C82.8,125.4,81.7,124.4,80.4,124.4z"></path> <path class="st0" d="M95,124.4h-3.7c-1.5,0-2.5,1-2.5,2.5c0,1.5,1,2.5,2.5,2.5H95c1.5,0,2.5-1,2.5-2.5 C97.5,125.4,96.4,124.4,95,124.4z"></path> <path class="st0" d="M179,95.2h-3.6c-1.5,0-2.5,1-2.5,2.5s1,2.5,2.5,2.5h3.6c1.5,0,2.5-1,2.5-2.5C181.4,96.4,180.4,95.2,179,95.2 L179,95.2z"></path> <path class="st0" d="M193.6,95.2H190c-1.5,0-2.5,1-2.5,2.5s1,2.5,2.5,2.5l0,0h3.6c1.5,0,2.5-1,2.5-2.5 C196.1,96.4,195,95.2,193.6,95.2z"></path> <path class="st0" d="M179,104.9h-3.6c-1.5,0-2.5,1-2.5,2.5c0,1.5,1,2.5,2.5,2.5h3.6c1.5,0,2.5-1,2.5-2.5 C181.4,106.1,180.4,104.9,179,104.9z"></path> <path class="st0" d="M193.6,104.9H190c-1.5,0-2.5,1-2.5,2.5c0,1.5,1,2.5,2.5,2.5l0,0h3.6c1.5,0,2.5-1,2.5-2.5 C196.1,106.1,195,104.9,193.6,104.9z"></path> <path class="st0" d="M179,114.7h-3.6c-1.5,0-2.5,1-2.5,2.5c0,1.5,1,2.5,2.5,2.5h3.6c1.5,0,2.5-1,2.5-2.5 C181.4,115.8,180.4,114.7,179,114.7z"></path> <path class="st0" d="M193.6,114.7H190c-1.5,0-2.5,1-2.5,2.5c0,1.5,1,2.5,2.5,2.5l0,0h3.6c1.5,0,2.5-1,2.5-2.5 C196.1,115.8,195,114.7,193.6,114.7z"></path> <path class="st0" d="M179,124.4h-3.6c-1.5,0-2.5,1-2.5,2.5c0,1.5,1,2.5,2.5,2.5h3.6c1.5,0,2.5-1,2.5-2.5 C181.5,125.4,180.4,124.4,179,124.4z"></path> <path class="st0" d="M193.6,124.4H190c-1.5,0-2.5,1-2.5,2.5c0,1.5,1,2.5,2.5,2.5l0,0h3.6c1.5,0,2.5-1,2.5-2.5 C196.1,125.4,195,124.4,193.6,124.4z"></path> <g> <path class="st0" d="M96.2,91.9H59.6c-0.7,0-1.5-0.2-1.9-0.6c-0.9-0.5-1.5-1.4-1.8-2.4s-0.2-2.1,0.3-3L72,56.6 c0.7-1.4,2.1-2.1,3.6-2.1h38.9c0.6,0,1.1,0.3,1.5,0.9c0.3,0.6,0.2,1.2-0.2,1.7L96.6,81.5c-1.5,1.7-1.6,4.1-0.7,6.1 c0.1,0.1,0.2,0.3,0.3,0.5c0.1,0.1,0.1,0.2,0.2,0.3l0,0c0.1,0.1,0.1,0.2,0.2,0.3c0.1,0.2,0.5,0.6,0.6,0.7c0.5,0.5,0.6,1.1,0.3,1.7 C97.4,91.6,96.8,91.9,96.2,91.9z M75.5,57.9c-0.3,0-0.6,0.2-0.7,0.6L59.1,87.5c-0.1,0.3-0.1,0.6-0.1,0.6s0.1,0.3,0.5,0.6 c0,0,0.1,0,0.1,0.1c0,0,0.1,0.1,0.3,0.1h33.4c-1.5-3-1-6.5,1.1-9.2l17-21.8L75.5,57.9z"></path> </g> <g> <path class="st0" d="M210.6,91.9L210.6,91.9l-36.3-0.1c-0.6,0-1.2-0.5-1.5-1c-0.2-0.6-0.1-1.4,0.3-1.7c0.2-0.2,0.5-0.5,0.6-0.6 v-0.1c0-0.1,0.1-0.1,0.1-0.2c0.2-0.3,0.5-0.5,0.5-0.9c0.9-1.8,0.6-4.3-0.7-6l-18.8-24.1c-0.5-0.6-0.5-1.1-0.2-1.7 c0.3-0.6,0.8-0.9,1.5-0.9h38.8c1.5,0,2.7,0.8,3.5,2l15.8,29.2c0.3,0.5,0.5,1.1,0.5,1.9C214.7,90.1,212.9,91.9,210.6,91.9z M177.3,88.6l33.3,0.1c0.5,0,0.8-0.5,0.8-0.8c0-0.1,0-0.2-0.1-0.6l-15.8-29.2c-0.1-0.2-0.5-0.5-0.7-0.5h-35.5l17,21.6 C178.4,82.1,178.8,85.6,177.3,88.6z"></path> </g> </g> <g> <path class="st0" d="M148.7,98.7c-1.5,0-2.5,1-2.5,2.5s1,2.5,2.5,2.5h4.8c1.2,0,2.3-1,2.5-2.5c0-1.5-1-2.5-2.5-2.5H148.7z"></path> <path class="st0" d="M121.7,103.6c1.5,0,2.6-1,2.6-2.5s-1-2.5-2.5-2.5h-5c-1.5,0-2.5,1-2.5,2.5s1,2.5,2.5,2.5H121.7z"></path> </g> <g> <path class="st0" d="M116.9,103.6h4.8c1.5,0,2.6-1,2.6-2.5s-1-2.5-2.5-2.5h-5c-1.5,0-2.5,1-2.5,2.5S115.4,103.6,116.9,103.6z"></path> <path class="st0" d="M148.7,98.7c-1.5,0-2.5,1-2.5,2.5s1,2.5,2.5,2.5h4.8c1.2,0,2.3-1,2.5-2.5c0-1.5-1-2.5-2.5-2.5H148.7z"></path> </g> <g> <path class="st0" d="M153.5,98.7h-4.8c-1.5,0-2.5,1-2.5,2.5s1,2.5,2.5,2.5h4.8c1.2,0,2.3-1,2.5-2.5C156,99.7,155,98.7,153.5,98.7z "></path> </g> <path class="st0" d="M116.9,103.6h4.8c1.5,0,2.6-1,2.6-2.5s-1-2.5-2.5-2.5h-5c-1.5,0-2.5,1-2.5,2.5S115.4,103.6,116.9,103.6z"></path> <path class="st0" d="M148.7,98.7c-1.5,0-2.5,1-2.5,2.5s1,2.5,2.5,2.5h4.8c1.2,0,2.3-1,2.5-2.5c0-1.5-1-2.5-2.5-2.5H148.7z"></path> <path class="st0" d="M64.5,139.3c-0.9,0-1.7-0.8-1.7-1.7V95.2c0-0.9,0.8-1.7,1.7-1.7c0.9,0,1.7,0.8,1.7,1.7v42.4 C66.2,138.5,65.5,139.3,64.5,139.3z"></path> <path class="st0" d="M205.6,139.3c-0.9,0-1.7-0.8-1.7-1.7V95.2c0-0.9,0.8-1.7,1.7-1.7c0.9,0,1.7,0.8,1.7,1.7v42.4 C207.3,138.5,206.6,139.3,205.6,139.3z"></path> <path class="st0" d="M212.8,139.3H57.1c-0.9,0-1.7-0.8-1.7-1.7c0-0.9,0.8-1.7,1.7-1.7h155.6c0.9,0,1.7,0.8,1.7,1.7 C214.4,138.5,213.7,139.3,212.8,139.3z"></path> <path class="st0" d="M161.3,138.2c-0.9,0-1.7-0.8-1.7-1.7V85.7c0-0.9,0.8-1.7,1.7-1.7h4.8l-31.2-38.6L103.8,84h4.8 c0.9,0,1.7,0.8,1.7,1.7v50.9c0,0.9-0.8,1.7-1.7,1.7c-0.9,0-1.7-0.8-1.7-1.7V87.4h-6.7c-0.7,0-1.2-0.4-1.5-1 c-0.3-0.6-0.2-1.3,0.2-1.8l34.7-43c0.6-0.8,2-0.8,2.6,0l34.7,43c0.4,0.5,0.5,1.2,0.2,1.8c-0.3,0.6-0.9,1-1.5,1H163v49.2 C163,137.5,162.2,138.2,161.3,138.2z"></path> <path class="st0" d="M123.6,138.6c-0.9,0-1.7-0.8-1.7-1.7v-16.7c0-7.2,5.9-13.1,13.1-13.1c7.2,0,13.1,5.9,13.1,13.1v16.3 c0,0.9-0.8,1.7-1.7,1.7s-1.7-0.8-1.7-1.7v-16.3c0-5.3-4.3-9.7-9.7-9.7c-5.3,0-9.7,4.3-9.7,9.7v16.7 C125.3,137.9,124.5,138.6,123.6,138.6z"></path> <path class="st0" d="M135.2,93.4c-6.4,0-11.6-5.2-11.6-11.6s5.2-11.6,11.6-11.6c6.4,0,11.6,5.2,11.6,11.6S141.6,93.4,135.2,93.4z M135.2,73.7c-4.4,0-8.2,3.8-8.2,8.2s3.8,8.2,8.2,8.2c4.5,0,8.2-3.7,8.2-8.2C143.4,77.4,139.7,73.7,135.2,73.7z"></path> <path class="st0" d="M138.5,84.5c-0.1,0-0.2,0-0.3,0l-3.5-1.2c-0.7-0.2-0.9-0.8-0.9-1.3v-3.7c0-0.8,0.5-1.4,1.4-1.4 s1.4,0.5,1.4,1.4V81l2.8,0.8c0.3,0.1,0.6,0.4,0.7,0.7c0.1,0.3,0.1,0.6-0.1,0.9l0,0.1l0,0.1C139.6,84.1,139.1,84.5,138.5,84.5z"></path> <path class="st0" d="M134.9,44.9c-0.9,0-1.7-0.8-1.7-1.7V22.4c0-0.9,0.8-1.7,1.7-1.7c0.9,0,1.7,0.8,1.7,1.7v20.8 C136.6,44.2,135.9,44.9,134.9,44.9z"></path> <path class="st0" d="M152.4,35.4h-17.5c-0.9,0-1.7-0.8-1.7-1.7V22.4c0-0.9,0.8-1.7,1.7-1.7h17.5c0.6,0,1.2,0.3,1.5,0.8 c0.3,0.5,0.3,1.2,0,1.7l-2.7,4.9l2.7,4.9c0.3,0.5,0.3,1.2,0,1.7C153.6,35.1,153,35.4,152.4,35.4z M136.6,32.1h12.9l-1.8-3.2 c-0.3-0.5-0.3-1.1,0-1.7l1.8-3.2h-12.9V32.1z"></path> </g> </svg> 