<?xml version="1.0" encoding="UTF-8"?> <svg xmlns="http://www.w3.org/2000/svg" viewBox="0 0 570 500"><defs><style>.cls-1{isolation:isolate;}.cls-2{fill:#e7f8fe;}.cls-3{fill:#1981c4;}.cls-4{fill:#fff;}.cls-5{fill:#d1ecfb;}.cls-6{fill:#545454;}.cls-7{fill:#21bbf7;}.cls-8{fill:#f5bc23;}.cls-9{fill:#2e2e2e;}.cls-10{fill:#d6e8bc;}.cls-11,.cls-12{fill:#c4d6d3;}.cls-12,.cls-15{mix-blend-mode:multiply;}.cls-13{fill:#a9c1ce;}.cls-14{fill:none;stroke:#fff;stroke-miterlimit:10;stroke-width:1.66px;}.cls-16{fill:#24aee4;opacity:0.1;}.cls-17{fill:#eef2f5;}.cls-18{fill:#dbe3e9;}.cls-19{fill:#7cd55e;}</style></defs><g class="cls-1"><g id="Layer_1" data-name="Layer 1"><path class="cls-2" d="M247.71,475.28l261.51-85.54c34.35-11.24,57.15-43.61,53.74-76.32L544.23,133.7c-3.17-30.45-28.27-53.1-60.94-55L186.63,61.82c-34-1.94-66.87,19.08-78.65,50.24L54.13,254.51c-7.93,21-5,43.37,8,60.18L169.87,454.42C187,476.6,218.15,485,247.71,475.28Z"></path><path class="cls-3" d="M189.13,112A91.21,91.21,0,1,1,97.92,20.74,91.21,91.21,0,0,1,189.13,112Z"></path><path class="cls-3" d="M97.92,20.74a91.21,91.21,0,0,1,0,182.42"></path><path class="cls-4" d="M168.86,112A70.95,70.95,0,1,1,97.92,41,70.94,70.94,0,0,1,168.86,112Z"></path><path class="cls-5" d="M34.57,117A70.92,70.92,0,0,1,141,55.58a70.93,70.93,0,1,0-78.51,117.8A70.79,70.79,0,0,1,34.57,117Z"></path><path class="cls-6" d="M110.58,112A12.67,12.67,0,1,1,97.92,99.28,12.66,12.66,0,0,1,110.58,112Z"></path><path class="cls-6" d="M128.08,60.72a1,1,0,0,1-.89-1.54l2-3.38a1,1,0,0,1,1.77,1L129,60.2a1,1,0,0,1-.89.52Z"></path><path class="cls-6" d="M65.79,168.62a1.06,1.06,0,0,1-.51-.14,1,1,0,0,1-.38-1.4l1.94-3.38a1,1,0,0,1,1.4-.38,1,1,0,0,1,.38,1.4l-1.94,3.38a1,1,0,0,1-.89.52Z"></path><path class="cls-6" d="M153.54,145.08a1,1,0,0,1-.51-.14L149.67,143a1,1,0,0,1-.37-1.4,1,1,0,0,1,1.4-.37l3.36,1.93a1,1,0,0,1,.37,1.4,1,1,0,0,1-.89.51Z"></path><path class="cls-6" d="M45.68,82.8a1,1,0,0,1-.51-.14l-3.39-1.94a1,1,0,0,1,1-1.78l3.39,2a1,1,0,0,1-.51,1.91Z"></path><path class="cls-6" d="M67.75,60.72a1,1,0,0,1-.88-.52l-1.94-3.38a1,1,0,0,1,1.78-1l1.93,3.38a1,1,0,0,1-.89,1.54Z"></path><path class="cls-6" d="M130.07,168.62a1,1,0,0,1-.89-.51l-2-3.39a1,1,0,0,1,.37-1.4,1,1,0,0,1,1.4.37l2,3.39a1,1,0,0,1-.38,1.4,1.06,1.06,0,0,1-.51.14Z"></path><path class="cls-6" d="M42.29,145.08a1,1,0,0,1-.51-1.91l3.4-1.94a1,1,0,0,1,1,1.78L42.8,145a1,1,0,0,1-.51.13Z"></path><path class="cls-6" d="M150.19,82.8a1,1,0,0,1-.52-1.91L153,79a1,1,0,1,1,1,1.77l-3.36,1.94a1.06,1.06,0,0,1-.51.14Z"></path><path class="cls-6" d="M37.58,113h-3.9a1,1,0,0,1,0-2h3.9a1,1,0,1,1,0,2Z"></path><path class="cls-6" d="M158.26,113a1,1,0,1,1,0-2h3.92a1,1,0,0,1,0,2h-3.92Z"></path><path class="cls-6" d="M97.91,177.21h0a1,1,0,0,1-1-1l0-3.91a1,1,0,0,1,1-1h0a1,1,0,0,1,1,1l0,3.91a1,1,0,0,1-1,1Z"></path><path class="cls-6" d="M97.92,52.62a1,1,0,0,1-1-1V47.71a1,1,0,0,1,2,0V51.6a1,1,0,0,1-1,1Z"></path><path class="cls-6" d="M97.93,115.32A3.38,3.38,0,0,1,94.55,112V61.67a3.38,3.38,0,1,1,6.76,0V112a3.37,3.37,0,0,1-3.38,3.37Z"></path><path class="cls-6" d="M75.92,137.33a3.38,3.38,0,0,1-2.39-5.77l21.14-21.14a3.38,3.38,0,0,1,4.78,4.78L78.31,136.34a3.38,3.38,0,0,1-2.39,1Z"></path><path class="cls-4" d="M105.73,112a7.81,7.81,0,1,1-7.81-7.82A7.81,7.81,0,0,1,105.73,112Z"></path><path class="cls-7" d="M101.78,112a3.87,3.87,0,1,1-3.86-3.87A3.86,3.86,0,0,1,101.78,112Z"></path><path class="cls-8" d="M97.93,113.64a1.69,1.69,0,0,1-.49-3.31l43.84-13.24a1.69,1.69,0,0,1,1,3.23L98.42,113.57a2.07,2.07,0,0,1-.49.07Z"></path><path class="cls-9" d="M521.61,371.18V132.33a11.26,11.26,0,0,0-11.25-11.24H122.48a11.26,11.26,0,0,0-11.24,11.24V371.18Z"></path><rect class="cls-10" x="130.31" y="140.36" width="372.22" height="209.6"></rect><path class="cls-11" d="M110.44,371.64v34.53a12,12,0,0,0,12,12.05H510.36a12,12,0,0,0,12-12V371.64Z"></path><path class="cls-11" d="M387.38,469.09s-3-1.47-6.42-2.77c-3.66-1.37-8.06-3.09-10.65-4.34-4.54-2.18-4.93-3.61-6.62-11-1.86-8.12-3.59-25.25-4.29-32.72H273.46c-.7,7.47-2.44,24.6-4.29,32.72-1.7,7.43-2.08,8.86-6.62,11-2.57,1.23-6.9,2.93-10.54,4.3h0c-3.48,1.32-6.32,2.32-6.32,2.32s-2.77,1.54,1.67,1.76H385.5C389.67,470.44,387.38,469.09,387.38,469.09Z"></path><path class="cls-12" d="M360.3,427.24c-.39-3.55-.7-6.74-.91-9H273.46c-.22,2.28-.53,5.47-.91,9Z"></path><rect class="cls-8" x="127.83" y="139.09" width="377.18" height="216.9"></rect><rect class="cls-13" x="127.83" y="139.09" width="377.18" height="43.98"></rect><rect class="cls-4" x="142.52" y="153.09" width="13.18" height="15.06"></rect><rect class="cls-4" x="168.2" y="153.09" width="13.17" height="15.06"></rect><rect class="cls-4" x="193.89" y="153.09" width="13.18" height="15.06"></rect><rect class="cls-14" x="179.3" y="205.06" width="21.52" height="21.52"></rect><rect class="cls-14" x="179.3" y="247.68" width="21.52" height="21.52"></rect><rect class="cls-14" x="179.3" y="290.3" width="21.52" height="21.52"></rect><g class="cls-15"><polygon class="cls-16" points="423.99 354.51 423.99 248.66 423.99 157.57 369.18 157.57 216.26 157.57 216.26 196.86 216.26 248.66 216.26 354.51 423.99 354.51"></polygon></g><polygon class="cls-17" points="417.23 354.51 417.23 217.17 417.23 148.31 367.08 98.98 227.18 98.98 227.18 149.95 227.18 217.17 227.18 354.51 417.23 354.51"></polygon><polygon class="cls-18" points="367.08 148.31 417.23 148.31 367.08 98.98 367.08 148.31"></polygon><polygon class="cls-16" points="417.23 148.32 367.08 148.32 417.23 197.66 417.23 148.32"></polygon><rect class="cls-18" x="263.17" y="214.24" width="118.07" height="4.67"></rect><rect class="cls-18" x="263.17" y="228.91" width="118.07" height="4.67"></rect><rect class="cls-18" x="263.17" y="243.58" width="118.07" height="4.67"></rect><rect class="cls-18" x="263.17" y="258.25" width="118.07" height="4.67"></rect><rect class="cls-18" x="263.17" y="272.92" width="118.07" height="4.67"></rect><rect class="cls-18" x="263.17" y="287.59" width="118.07" height="4.68"></rect><rect class="cls-18" x="263.17" y="302.27" width="118.07" height="4.67"></rect><path class="cls-3" d="M352.77,99.75s12.89,19.16-16.88,41.84c-9.16,7-48.8,31.08-60.29,33.76-14.35,3.35-30.91,1.87-48.49-6.78l.25-70.39Z"></path><rect class="cls-4" x="246.28" y="127.12" width="58.15" height="13.34"></rect><path class="cls-19" d="M477.57,344.85a44.78,44.78,0,1,1-44.78-44.78A44.78,44.78,0,0,1,477.57,344.85Z"></path><polygon class="cls-4" points="423.08 363.98 411.1 351.99 415.67 347.42 423.08 354.83 449.9 328.02 454.47 332.59 423.08 363.98"></polygon></g></g></svg> 