<?xml version="1.0" encoding="UTF-8"?> <!-- Generator: Adobe Illustrator 24.2.0, SVG Export Plug-In . SVG Version: 6.00 Build 0) --> <svg xmlns="http://www.w3.org/2000/svg" xmlns:xlink="http://www.w3.org/1999/xlink" version="1.1" id="Layer_1" x="0px" y="0px" viewBox="0 0 570 500" style="enable-background:new 0 0 570 500;" xml:space="preserve"> <style type="text/css"> .st0{fill:#D6EBBD;} .st1{fill:#95CA59;} .st2{fill:#00A063;} .st3{fill:#087262;} .st4{fill:#67BD50;} .st5{fill:#5FAD6E;} .st6{fill:#FFFFFF;} .st7{fill:#E8E9EB;} .st8{fill:#F68457;} .st9{fill:#D6E8BC;} .st10{fill:#F48257;} .st11{fill:#FFE4AF;} .st12{fill:#D6634A;} .st13{fill:#015245;} </style> <g> <path class="st0" d="M546.79,121.64c-8.43-50.55-43.05-93.12-101.44-85.13c-46.52,6.33-62.29,31.73-83.99,68.74 C327.68,162.7,264.23,181.7,206.23,205c-47.42,19.05-95.28,37.08-141.86,58.26c-19.98,9.12-43.34,22.02-48.8,45.28 c-4.89,20.87,7.49,41.83,21.77,57.81c50.89,56.98,131.64,90.76,201.47,117.99c22.8,8.89,46.74,17.02,71.18,15.48 c50.41-3.17,85.47-42.37,113.59-80.03C483.06,340.13,564.38,227.09,546.79,121.64z"></path> <path class="st1" d="M284.8,65.93C178.11,58.89,85.49,139.98,78.45,246.7s74.04,199.31,180.77,206.34s199.31-74.06,206.34-180.76 C472.6,165.58,391.51,72.96,284.8,65.93z"></path> <path class="st2" d="M460.95,217.18l-18.17,28.95l-31.65,55.1l-15.64-36.58l-27.74,16.14l-15.83-33.18l-16.41,18.31l-7.54-2.4 L304,252.37l3.1,25.86l18.35,8.68l-38,78.55l-15.05,8.34l-11.3-30.81l-5.46-50.68l-24.62-2.66l-9.38-19.29l16.41-37.52l20.97-3.52 l12.3,9.29l30.88-5.44l-32.37-20.59l-27.63-6.58l-0.91-8.52l27.96-13.82l-10.29-18.35l28.95-23.07l28.5,12.18l49.42-11.96 c0,0,20.53-9.26,43.45-19.43C435,148.93,452.92,181.56,460.95,217.18z"></path> <path class="st2" d="M160.39,101.21l-12.26,18.28l-21.42,33.66c-0.56,0.91-0.61,2.05-0.12,3l12.02,22.35 c0.54,0.87,1.45,1.44,2.47,1.55c1.02,0.04,2-0.43,2.6-1.25l12.5-17.87l21.01,29.23l-46.77,36.63l-25.17,0.72 c-1.16,0.04-2.2,0.75-2.66,1.82l-6.35,14.94c-0.4,0.94-0.3,2.02,0.27,2.86l15.33,22.38l-26.17-14.17l-7.03-9.8 C82.85,187.57,112.86,134.59,160.39,101.21z"></path> <path class="st2" d="M139.36,337.35l-14.9-34.49l20.45-39.08l49.44,50.98l-50.18,88.08l-7.71-21.22l3.19-42.91 C139.65,338.24,139.56,337.78,139.36,337.35z"></path> <path class="st2" d="M195.78,157.72l-18.9-47.05c32.62-14,54.04-16.21,62.24-16.48l-12.09,41.47L195.78,157.72z"></path> <path class="st3" d="M141.7,441.76c-2.17-0.56-4.33-1.17-6.41-1.9l0.89-2.66c3.5,1.17,7.07,2.13,10.68,2.87l-0.57,2.76 C144.74,442.51,143.19,442.15,141.7,441.76z M157.53,444.55l0.28-2.8c3.59,0.36,7.32,0.57,11.08,0.6v2.81 c-3.89-0.04-7.7-0.23-11.37-0.61L157.53,444.55z M124.7,435.57c-3.43-1.66-6.74-3.56-9.91-5.67l1.56-2.34 c3.06,2.05,6.26,3.87,9.58,5.48L124.7,435.57z M180.18,444.79l-0.2-2.8c3.61-0.27,7.33-0.68,11.06-1.17l0.41,2.78 C187.65,444.1,183.91,444.52,180.18,444.79z M105.77,422.91c-2.84-2.55-5.5-5.29-7.96-8.21l2.15-1.81c2.38,2.81,4.94,5.45,7.68,7.9 L105.77,422.91z M202.59,441.54l-0.59-2.76c3.52-0.75,7.21-1.64,10.83-2.64l0.75,2.71C209.9,439.86,206.19,440.77,202.59,441.54z M91.07,405.53c-2.04-3.21-3.87-6.55-5.49-9.99l2.54-1.17c1.56,3.34,3.34,6.57,5.31,9.68L91.07,405.53z M224.41,435.59l-0.89-2.66 c3.52-1.17,7.03-2.42,10.55-3.76l1.01,2.61C231.49,433.15,227.91,434.42,224.41,435.59L224.41,435.59z M245.51,427.48l-1.17-2.57 c3.35-1.47,6.78-3.05,10.15-4.69l1.17,2.52c-3.33,1.66-6.78,3.21-10.16,4.74L245.51,427.48z M81.35,384.93 c-1.21-3.6-2.23-7.25-3.07-10.95l2.73-0.62c0.82,3.61,1.82,7.17,3,10.68L81.35,384.93z M265.8,417.64l-1.32-2.47 c3.25-1.74,6.53-3.52,9.78-5.45l1.41,2.44C272.39,414.04,269.07,415.89,265.8,417.64z M76.27,362.84 c-0.49-3.66-0.86-7.46-1.06-11.29l2.8-0.15c0.2,3.76,0.55,7.49,1.03,11.07L76.27,362.84z M285.32,406.31l-1.49-2.34 c3.12-1.96,6.27-4,9.38-6.1l1.57,2.34C291.65,402.28,288.47,404.34,285.32,406.31z M74.99,340.22c0.06-3.69,0.25-7.49,0.54-11.31 l2.8,0.22c-0.29,3.75-0.47,7.5-0.53,11.14L74.99,340.22z M304.04,393.73l-1.63-2.29c2.99-2.16,6.01-4.4,8.98-6.67l1.71,2.24 C310.11,389.3,307.01,391.55,304.04,393.73z M76.74,317.67c0.39-2.78,0.82-5.63,1.32-8.45l2.77,0.48c-0.49,2.8-0.94,5.6-1.3,8.35 L76.74,317.67z M321.95,380.03l-1.77-2.13c2.87-2.34,5.76-4.69,8.59-7.18l1.83,2.13C327.75,375.25,324.83,377.69,321.95,380.03z M339.05,365.34l-1.89-2.08c2.73-2.49,5.49-5.05,8.21-7.64l1.95,2.03C344.59,360.31,341.81,362.84,339.05,365.34z M355.34,349.75 l-2-1.97c2.61-2.64,5.23-5.35,7.78-8.05l2.04,1.92C360.59,344.37,357.97,347.09,355.34,349.75z M370.78,333.34l-2.09-1.86 c1.66-1.86,3.34-3.78,4.99-5.69l2.34-2.76l2.13,1.82l-2.34,2.78C374.14,329.54,372.46,331.46,370.78,333.34z M385.38,316.18 l-2.16-1.78c2.34-2.9,4.69-5.86,6.93-8.79l2.23,1.7c-2.3,2.97-4.64,5.94-7,8.86L385.38,316.18z M399.08,298.29l-2.26-1.65 c2.19-3.02,4.36-6.1,6.45-9.14l2.34,1.58c-2.13,3.06-4.31,6.16-6.53,9.2L399.08,298.29z M411.84,279.69l-2.34-1.52 c2.03-3.13,4.02-6.33,5.94-9.48l2.34,1.47c-1.89,3.17-3.9,6.38-5.94,9.53L411.84,279.69z M423.56,260.43l-2.44-1.4 c1.85-3.24,3.67-6.54,5.39-9.8l2.49,1.32c-1.76,3.27-3.58,6.58-5.45,9.86L423.56,260.43z M434.11,240.5l-2.52-1.23 c1.66-3.36,3.27-6.76,4.8-10.12l2.56,1.17c-1.52,3.36-3.14,6.8-4.82,10.18H434.11z M443.43,219.96l-2.59-1.07 c1.43-3.46,2.81-6.96,4.09-10.41l2.64,0.98c-1.29,3.48-2.68,7.01-4.13,10.49H443.43z M451.32,198.85l-2.66-0.88 c1.17-3.52,2.29-7.15,3.31-10.68l2.7,0.77c-1.01,3.53-2.13,7.16-3.33,10.75L451.32,198.85z M454.84,176.5 c0.88-3.66,1.69-7.33,2.34-10.92l2.76,0.54c-0.7,3.63-1.51,7.34-2.42,11.03L454.84,176.5z M459.07,154.58 c0.53-3.74,0.95-7.47,1.27-11.09l2.79,0.25c-0.3,3.67-0.74,7.46-1.28,11.23L459.07,154.58z M460.95,132.37 c0.08-3.76,0-7.52-0.12-11.14l2.8-0.13c0.18,3.69,0.21,7.5,0.12,11.34L460.95,132.37z M256.06,66.71l-1.49-2.34 c3.2-1.99,6.46-3.95,9.68-5.79l1.4,2.43c-3.19,1.76-6.4,3.69-9.58,5.66L256.06,66.71z M459.91,110.12 c-0.46-3.74-1.08-7.42-1.84-10.95l2.74-0.59c0.77,3.61,1.41,7.37,1.89,11.2L459.91,110.12z M275.46,55.48l-1.28-2.44 c3.34-1.77,6.74-3.52,10.08-5.09l1.17,2.53C282.13,52.08,278.78,53.77,275.46,55.48z M455.19,88.41 c-1.13-3.52-2.46-6.96-3.97-10.33l2.56-1.17c1.56,3.46,2.93,7.01,4.09,10.62L455.19,88.41z M295.62,45.87l-1.11-2.58 c3.52-1.51,7.03-2.93,10.47-4.24l1,2.63C302.55,42.97,299.06,44.38,295.62,45.87z M316.51,37.97l-0.87-2.67 c3.62-1.17,7.27-2.25,10.83-3.2l0.73,2.71C323.68,35.74,320.09,36.81,316.51,37.97z M446.05,68.38c-1.92-3.14-4.05-6.14-6.38-8.99 l2.17-1.78c2.41,2.95,4.61,6.05,6.6,9.3L446.05,68.38z M338.06,32.23l-0.56-2.74c3.75-0.77,7.5-1.42,11.15-1.92l0.39,2.78 C345.44,30.86,341.75,31.48,338.06,32.23z M432.12,51.34c-0.63-0.57-1.29-1.17-1.95-1.72c-2.13-1.84-4.35-3.57-6.67-5.17l1.61-2.34 c2.39,1.66,4.7,3.45,6.91,5.35c0.68,0.59,1.35,1.17,2,1.79L432.12,51.34z M360.1,29.22l-0.18-2.8c3.83-0.25,7.66-0.34,11.34-0.27 v2.8C367.6,28.89,363.86,28.97,360.1,29.22z M414.03,38.82c-3.29-1.66-6.69-3.1-10.16-4.31l0.93-2.65 c3.61,1.25,7.14,2.74,10.55,4.46L414.03,38.82z M382.28,29.69l0.32-2.79c3.75,0.42,7.48,1.03,11.17,1.84l-0.6,2.74 C389.58,30.69,385.94,30.09,382.28,29.69z"></path> <path class="st3" d="M350.66,422.67l0.67-2.73c3.65,0.88,7.32,1.69,10.9,2.34l-0.53,2.76 C358.07,424.37,354.35,423.62,350.66,422.67z M339.75,419.76c-3.52-1.02-7.19-2.15-10.79-3.34l0.89-2.66 c3.52,1.17,7.15,2.34,10.67,3.31L339.75,419.76z M372.84,426.95l0.4-2.78c3.73,0.53,7.46,0.95,11.08,1.27l-0.23,2.79 C380.41,427.92,376.63,427.48,372.84,426.95L372.84,426.95z M318.33,412.67c-3.52-1.3-7.03-2.7-10.55-4.14l1.08-2.59 c3.46,1.43,6.96,2.81,10.4,4.09L318.33,412.67z M297.48,404.04c-3.39-1.54-6.81-3.17-10.2-4.83l1.24-2.52 c3.35,1.66,6.75,3.27,10.12,4.8L297.48,404.04z M395.39,428.84l0.07-2.8c3.76,0.08,7.5,0,11.13-0.12l0.13,2.8 C403.03,428.9,399.22,428.94,395.39,428.84L395.39,428.84z M277.25,394.07c-3.28-1.75-6.6-3.58-9.87-5.44l1.38-2.44 c3.25,1.85,6.54,3.67,9.8,5.39L277.25,394.07z M418.02,427.78l-0.35-2.79c3.74-0.46,7.42-1.08,10.95-1.84l0.6,2.74 C425.6,426.66,421.84,427.31,418.02,427.78z M257.65,382.91c-3.19-1.93-6.4-3.95-9.54-5.99l1.52-2.34 c3.12,2.02,6.32,4.02,9.47,5.94L257.65,382.91z M440.19,422.95l-0.86-2.67c3.51-1.13,6.96-2.46,10.32-3.97l1.17,2.56 C447.36,420.42,443.81,421.79,440.19,422.95z M238.72,370.67c-3.07-2.11-6.17-4.3-9.2-6.51l1.65-2.26 c3.01,2.18,6.08,4.35,9.14,6.45L238.72,370.67z M220.48,357.43c-2.95-2.27-5.93-4.62-8.85-6.98l1.76-2.18 c2.9,2.34,5.86,4.69,8.8,6.93L220.48,357.43z M460.88,413.52l-1.47-2.34c3.14-1.92,6.15-4.05,9-6.38l1.77,2.17 C467.24,409.36,464.13,411.55,460.88,413.52L460.88,413.52z M202.95,343.27l-2.78-2.34c-1.91-1.65-3.83-3.34-5.72-5.03l1.88-2.09 c1.86,1.66,3.79,3.35,5.69,4.99l2.76,2.34L202.95,343.27z M186.15,328.24c-2.73-2.57-5.46-5.19-8.11-7.82l1.98-2 c2.63,2.61,5.35,5.23,8.05,7.78L186.15,328.24z M478.5,399.1l-2.06-1.9c0.59-0.63,1.17-1.29,1.74-1.95 c1.84-2.13,3.57-4.36,5.17-6.67l2.34,1.61c-1.66,2.4-3.45,4.7-5.36,6.91C479.71,397.82,479.11,398.46,478.5,399.1L478.5,399.1z M170.16,312.34c-2.59-2.71-5.18-5.49-7.69-8.21l2.09-1.89c2.49,2.73,5.05,5.49,7.63,8.21L170.16,312.34z M155.01,295.65 c-2.45-2.85-4.89-5.76-7.23-8.65l2.13-1.72c2.34,2.87,4.69,5.77,7.19,8.59L155.01,295.65z M491.49,380.33l-2.52-1.27 c1.66-3.29,3.1-6.69,4.31-10.16l2.65,0.93c-1.25,3.61-2.74,7.13-4.46,10.54L491.49,380.33z M140.78,278.24 c-2.34-2.99-4.55-6.04-6.72-9.06l2.27-1.63c2.16,2.99,4.41,6.01,6.67,8.98L140.78,278.24z M496.31,358.36 c0.79-3.62,1.39-7.27,1.81-10.95l2.79,0.3c-0.42,3.77-1.04,7.52-1.85,11.23L496.31,358.36z M127.64,259.87 c-2.1-3.13-4.16-6.32-6.14-9.46l2.34-1.49c1.96,3.12,4.01,6.27,6.1,9.38L127.64,259.87z M115.64,240.72 c-1.9-3.27-3.74-6.59-5.49-9.86l2.47-1.32c1.74,3.25,3.52,6.54,5.44,9.78L115.64,240.72z M498.83,336.27 c0.07-3.61,0-7.35-0.26-11.1l2.8-0.19c0.25,3.83,0.34,7.66,0.27,11.35L498.83,336.27z M105.03,220.79 c-1.66-3.41-3.25-6.86-4.69-10.26l2.58-1.11c1.47,3.35,3.04,6.78,4.69,10.15L105.03,220.79z M497.45,314.11 c-0.5-3.59-1.17-7.29-1.89-10.97l2.74-0.56c0.77,3.74,1.42,7.5,1.92,11.15L497.45,314.11z M95.98,200.12 c-1.37-3.52-2.65-7.13-3.81-10.63l2.66-0.89c1.17,3.52,2.42,7.03,3.76,10.55L95.98,200.12z M492.99,292.31 c-0.95-3.52-2-7.12-3.17-10.69l2.66-0.87c1.17,3.62,2.26,7.27,3.21,10.84L492.99,292.31z M88.95,178.67 c-1.01-3.69-1.91-7.39-2.67-11l2.74-0.59c0.76,3.52,1.65,7.21,2.64,10.83L88.95,178.67z M486.14,271.05 c-1.3-3.42-2.71-6.91-4.2-10.35l2.58-1.17c1.5,3.52,2.93,7.03,4.24,10.47L486.14,271.05z M84.26,156.53 c-0.55-3.8-0.97-7.59-1.24-11.27l2.8-0.2c0.26,3.61,0.67,7.33,1.17,11.06L84.26,156.53z M477.3,250.52 c-1.58-3.31-3.27-6.66-5.03-9.98l2.49-1.31c1.77,3.34,3.52,6.74,5.08,10.08L477.3,250.52z M82.63,133.93 c0-3.85,0.23-7.66,0.61-11.34l2.79,0.29c-0.36,3.59-0.56,7.32-0.6,11.08L82.63,133.93z M466.87,230.74 c-1.84-3.19-3.78-6.41-5.74-9.59l2.34-1.49c1.99,3.21,3.94,6.46,5.79,9.68L466.87,230.74z M84.96,111.36 c0.32-1.54,0.68-3.07,1.07-4.58c0.56-2.17,1.17-4.33,1.89-6.41l2.67,0.89c-0.68,2.02-1.3,4.12-1.84,6.23 c-0.38,1.47-0.73,2.97-1.04,4.46L84.96,111.36z M94.74,91.02l-2.52-1.17c1.66-3.43,3.55-6.74,5.66-9.91l2.34,1.56 C98.18,84.54,96.35,87.72,94.74,91.02z M106.98,72.72l-2.1-1.86c2.55-2.84,5.29-5.5,8.21-7.96l1.82,2.15 C112.09,67.41,109.44,69.98,106.98,72.72z M123.77,58.52l-1.51-2.34c3.22-2.04,6.56-3.87,10-5.49l1.17,2.54 C130.1,54.79,126.87,56.55,123.77,58.52z M143.7,49.14l-0.82-2.71c3.6-1.21,7.25-2.23,10.95-3.07l0.62,2.74 c-3.62,0.81-7.2,1.81-10.73,2.99L143.7,49.14z M165.29,44.18l-0.35-2.77c3.66-0.49,7.46-0.86,11.29-1.06l0.15,2.8 c-3.76,0.14-7.49,0.49-11.07,0.97L165.29,44.18z M187.49,42.94v-2.81c3.69,0,7.49,0.25,11.31,0.54l-0.22,2.8 c-3.69-0.34-7.43-0.52-11.07-0.57L187.49,42.94z M277.76,64.04l-3.58-1.52l1.06-2.59c1.17,0.49,2.45,1.01,3.67,1.52L277.76,64.04z M209.7,44.61l0.38-2.79c3.66,0.5,7.41,1.17,11.16,1.82l-0.53,2.76C217.05,45.7,213.35,45.11,209.7,44.61z M263.7,58.46 c-3.52-1.29-7.03-2.53-10.55-3.67l0.87-2.67c3.52,1.17,7.12,2.4,10.67,3.7L263.7,58.46z M242.53,51.53 c-3.61-1.02-7.25-1.97-10.81-2.81l0.64-2.73c3.61,0.86,7.28,1.81,10.93,2.84L242.53,51.53z"></path> <path class="st4" d="M553.63,203.81l-65.91-72.13c-2.65-2.9-7.15-3.11-10.05-0.46c0,0,0,0-0.01,0.01l-87.93,80.33 c-2.9,2.65-3.11,7.15-0.46,10.05c0,0,0,0,0.01,0.01l65.91,72.16c2.65,2.9,7.15,3.11,10.05,0.46c0,0,0,0,0.01-0.01l87.93-80.33 c2.91-2.64,3.13-7.14,0.5-10.05C553.65,203.84,553.64,203.83,553.63,203.81z"></path> <path class="st5" d="M389.25,221.59l65.91,72.16c2.65,2.9,7.15,3.11,10.05,0.46c0,0,0,0,0.01-0.01l10.55-9.63l-70.71-77.38 c-2.63-2.93-7.14-3.16-10.07-0.53c-0.02,0.02-0.03,0.03-0.05,0.05l-5.28,4.83C386.79,214.21,386.6,218.7,389.25,221.59z"></path> <path class="st4" d="M421.36,230.6c-1.24-1.34-3.33-1.44-4.69-0.21l-5.31,4.82c-1.34,1.25-1.43,3.33-0.21,4.69l51.03,55.92 c1.13-0.29,2.18-0.85,3.04-1.64l7.76-7.03L421.36,230.6z"></path> <path class="st6" d="M392.04,219.04c-1.22-1.36-1.13-3.45,0.21-4.69l5.29-4.82c1.36-1.22,3.44-1.12,4.69,0.21l68.18,74.63 l-7.76,7.09c-1.36,1.22-3.45,1.12-4.69-0.22L392.04,219.04z"></path> <path class="st7" d="M402.26,209.7c-1.25-1.34-3.33-1.43-4.69-0.21l-2.84,2.58c1.37-1.25,2.49-0.23,3.73,1.17l68.18,74.65 l3.83-3.52L402.26,209.7z"></path> <polygon class="st8" points="394.6,237.23 391.77,230.81 385.65,227.41 396.74,217.28 401.22,222.19 405.69,227.09 "></polygon> <polygon class="st6" points="496.03,169.03 518,193.1 516.65,194.33 494.67,170.26 "></polygon> <rect x="491.48" y="156.22" transform="matrix(0.7383 -0.6744 0.6744 0.7383 -1.5308 383.2978)" class="st6" width="3.46" height="74.8"></rect> <rect x="485.43" y="168.59" transform="matrix(0.7383 -0.6744 0.6744 0.7383 -6.8468 380.6662)" class="st6" width="3.46" height="61.14"></rect> <path class="st8" d="M362.22,337.74l-132.48,65.48l197.96,67.01L362.22,337.74z M349.88,374.22l24.28,49.12l-73.4-24.84 L349.88,374.22z"></path> <rect x="354.78" y="347.89" transform="matrix(0.8966 -0.4429 0.4429 0.8966 -117.0502 195.8607)" class="st6" width="12.06" height="1.29"></rect> <rect x="364.86" y="357.28" transform="matrix(0.8964 -0.4432 0.4432 0.8964 -120.4863 200.3333)" class="st6" width="6.94" height="1.29"></rect> <rect x="365.21" y="368.97" transform="matrix(0.8966 -0.4429 0.4429 0.8966 -125.3085 202.662)" class="st6" width="12.06" height="1.29"></rect> <rect x="375.27" y="378.38" transform="matrix(0.8966 -0.4429 0.4429 0.8966 -128.6994 206.9556)" class="st6" width="6.94" height="1.29"></rect> <rect x="375.64" y="390.04" transform="matrix(0.8964 -0.4432 0.4432 0.8964 -133.6251 209.6378)" class="st6" width="12.06" height="1.29"></rect> <rect x="385.71" y="399.47" transform="matrix(0.8966 -0.4429 0.4429 0.8966 -136.9629 213.7582)" class="st6" width="6.94" height="1.29"></rect> <rect x="386.06" y="411.16" transform="matrix(0.8966 -0.4429 0.4429 0.8966 -141.8378 216.2568)" class="st6" width="12.06" height="1.29"></rect> <rect x="396.13" y="420.57" transform="matrix(0.8966 -0.4429 0.4429 0.8966 -145.2276 220.5556)" class="st6" width="6.94" height="1.29"></rect> <rect x="396.47" y="432.24" transform="matrix(0.8966 -0.4429 0.4429 0.8966 -150.0984 223.0508)" class="st6" width="12.06" height="1.29"></rect> <rect x="406.55" y="441.66" transform="matrix(0.8966 -0.4429 0.4429 0.8966 -153.4923 227.3529)" class="st6" width="6.94" height="1.29"></rect> <rect x="406.91" y="453.3" transform="matrix(0.8964 -0.4432 0.4432 0.8964 -158.425 230.052)" class="st6" width="12.06" height="1.29"></rect> <path class="st9" d="M179.31,23.34l14.57-20.69c1.99-2.82,5.89-3.5,8.71-1.51l1.18,0.83c2.82,1.99,3.5,5.89,1.51,8.71l-14.57,20.69 c-1.99,2.82-5.89,3.5-8.71,1.51l-1.18-0.83C178,30.06,177.32,26.16,179.31,23.34z"></path> <path class="st9" d="M287.68,43.76l49.72,4.34c5.07,0.46,8.81,4.93,8.35,10c-0.14,1.59-0.69,3.11-1.6,4.42l-28.62,40.89 l-28.62,40.89c-2.91,4.17-8.65,5.19-12.81,2.28c-1.34-0.93-2.4-2.2-3.08-3.68l-21.1-45.22L222.05,38L287.68,43.76z"></path> <rect x="204.66" y="5.43" transform="matrix(0.5757 -0.8176 0.8176 0.5757 64.1271 192.3957)" class="st9" width="25.57" height="57.96"></rect> <path class="st8" d="M287.68,43.76l49.72,4.34c5.07,0.46,8.81,4.93,8.35,10c-0.14,1.59-0.69,3.11-1.6,4.42l-28.62,40.89 l-28.62,40.89c-2.91,4.17-8.65,5.19-12.81,2.28c-1.34-0.93-2.4-2.2-3.08-3.68l-21.1-45.22L287.68,43.76z"></path> <path class="st10" d="M276.67,68.1c4.85,3.41,6.02,10.11,2.61,14.96c-3.41,4.85-10.11,6.02-14.96,2.61 c-4.85-3.41-6.02-10.09-2.62-14.95c3.4-4.86,10.1-6.04,14.96-2.64C276.66,68.09,276.67,68.09,276.67,68.1z"></path> <path class="st11" d="M268.17,75.25c1.55,1.09,1.92,3.22,0.83,4.77s-3.22,1.92-4.77,0.83c-1.55-1.09-1.92-3.22-0.83-4.77 C264.49,74.54,266.62,74.17,268.17,75.25z"></path> <path class="st10" d="M253.77,62.25c2.61,1.82,3.26,5.41,1.44,8.03c-1.82,2.61-5.41,3.26-8.03,1.44c-2.61-1.82-3.26-5.41-1.44-8.03 C247.56,61.07,251.16,60.43,253.77,62.25C253.77,62.25,253.77,62.25,253.77,62.25z"></path> <path class="st11" d="M249.21,66.09c0.82,0.58,1.02,1.72,0.44,2.55c-0.58,0.82-1.72,1.02-2.55,0.44c-0.82-0.58-1.02-1.72-0.44-2.54 C247.24,65.71,248.38,65.51,249.21,66.09C249.21,66.09,249.21,66.09,249.21,66.09z"></path> <path class="st12" d="M246.46,46.48c2.61,1.83,3.23,5.43,1.4,8.04c-1.83,2.61-5.43,3.23-8.04,1.4c-2.61-1.83-3.23-5.43-1.4-8.04 c0,0,0,0,0.01-0.01C240.26,45.27,243.85,44.65,246.46,46.48z"></path> <path class="st11" d="M241.9,50.32c0.83,0.59,1.03,1.73,0.44,2.57s-1.73,1.03-2.57,0.44c-0.83-0.59-1.03-1.73-0.44-2.56 c0.58-0.83,1.71-1.04,2.55-0.46C241.88,50.31,241.89,50.32,241.9,50.32z"></path> <ellipse transform="matrix(0.9821 -0.1884 0.1884 0.9821 -5.8883 51.323)" class="st12" cx="267.02" cy="56.63" rx="6.95" ry="6.95"></ellipse> <path class="st11" d="M265.51,55.6c1,0.7,1.25,2.08,0.54,3.09c-0.7,1-2.08,1.25-3.09,0.54c-1-0.7-1.25-2.08-0.54-3.09c0,0,0,0,0,0 C263.13,55.14,264.51,54.9,265.51,55.6z"></path> <path class="st4" d="M199.15,21.11c-0.02,0.11-0.06,0.21-0.12,0.3l-6.26,8.89c-0.32,0.26-0.79,0.21-1.06-0.11 c-0.17-0.21-0.22-0.5-0.12-0.75l6.26-8.89c0.23-0.34,0.69-0.42,1.03-0.19c0.24,0.16,0.36,0.46,0.31,0.75L199.15,21.11z"></path> <path class="st4" d="M200.32,27.03c-0.02,0.11-0.06,0.21-0.13,0.3l-3.86,5.48c-0.23,0.34-0.69,0.42-1.03,0.19 c-0.01,0-0.01-0.01-0.02-0.01c-0.33-0.24-0.41-0.7-0.18-1.03l3.86-5.49c0.24-0.34,0.71-0.41,1.05-0.17 C200.25,26.46,200.37,26.75,200.32,27.03z"></path> <path class="st4" d="M206.27,26.17c-0.03,0.11-0.07,0.21-0.13,0.3l-6.26,8.89c-0.23,0.33-0.68,0.42-1.01,0.19 c-0.01,0-0.01-0.01-0.02-0.02c-0.34-0.23-0.42-0.69-0.19-1.03c0,0,0,0,0,0l6.26-8.89c0.23-0.34,0.69-0.42,1.03-0.19c0,0,0,0,0,0 C206.19,25.6,206.31,25.89,206.27,26.17z"></path> <path class="st4" d="M207.43,32.03c-0.02,0.11-0.06,0.21-0.13,0.3l-3.86,5.48c-0.23,0.33-0.68,0.42-1.01,0.19 c-0.01,0-0.01-0.01-0.02-0.02c-0.34-0.23-0.42-0.69-0.19-1.03c0,0,0,0,0,0l3.86-5.48c0.24-0.34,0.7-0.42,1.04-0.19 C207.36,31.47,207.47,31.75,207.43,32.03z"></path> <path class="st4" d="M213.4,31.14c-0.02,0.11-0.06,0.21-0.13,0.3l-6.26,8.89c-0.23,0.34-0.69,0.42-1.03,0.19c0,0,0,0,0,0 c-0.34-0.24-0.42-0.7-0.19-1.04l6.26-8.89c0.23-0.34,0.69-0.42,1.03-0.19c0.01,0,0.01,0.01,0.02,0.01 C213.32,30.58,213.44,30.86,213.4,31.14z"></path> <path class="st4" d="M214.56,37.06c-0.02,0.11-0.06,0.21-0.13,0.3l-3.86,5.48c-0.23,0.34-0.69,0.42-1.03,0.19c0,0,0,0,0,0 c-0.34-0.24-0.42-0.7-0.19-1.04l3.87-5.48c0.24-0.33,0.71-0.41,1.05-0.16c0.22,0.16,0.34,0.44,0.3,0.71H214.56z"></path> <path class="st4" d="M220.52,36.16c-0.02,0.11-0.06,0.21-0.13,0.3l-6.26,8.89c-0.23,0.34-0.69,0.42-1.03,0.19c0,0,0,0,0,0 c-0.34-0.24-0.42-0.7-0.19-1.04l6.26-8.89c0.23-0.34,0.69-0.42,1.03-0.19c0.01,0,0.01,0.01,0.02,0.01 C220.46,35.6,220.57,35.88,220.52,36.16z"></path> <path class="st4" d="M221.69,42.08c-0.02,0.11-0.06,0.21-0.12,0.3l-3.86,5.48c-0.24,0.34-0.7,0.42-1.04,0.19 c-0.34-0.23-0.42-0.69-0.19-1.03c0-0.01,0.01-0.01,0.01-0.02l3.85-5.48c0.24-0.33,0.7-0.4,1.03-0.16c0.02,0.01,0.04,0.03,0.06,0.05 C221.63,41.57,221.72,41.83,221.69,42.08z"></path> <path class="st4" d="M227.65,41.19c-0.02,0.11-0.06,0.22-0.13,0.3l-6.25,8.89c-0.24,0.33-0.7,0.41-1.04,0.18 c-0.34-0.24-0.41-0.71-0.18-1.04l6.25-8.89c0.24-0.33,0.7-0.41,1.04-0.18C227.59,40.62,227.71,40.91,227.65,41.19z"></path> <path class="st4" d="M228.81,47.11c-0.02,0.11-0.06,0.21-0.12,0.29l-3.86,5.49c-0.24,0.33-0.7,0.41-1.04,0.18 c-0.34-0.24-0.41-0.71-0.18-1.04l3.86-5.48c0.24-0.33,0.7-0.41,1.03-0.18C228.75,46.54,228.87,46.83,228.81,47.11z"></path> <path class="st4" d="M234.78,46.21c-0.02,0.11-0.06,0.21-0.12,0.3l-6.2,8.89c-0.24,0.33-0.7,0.41-1.04,0.18 c-0.34-0.24-0.41-0.71-0.18-1.04l6.26-8.89c0.23-0.34,0.69-0.43,1.02-0.2c0.25,0.17,0.37,0.47,0.31,0.77L234.78,46.21z"></path> <path class="st4" d="M235.95,52.13c-0.02,0.11-0.06,0.21-0.13,0.3l-3.85,5.48c-0.23,0.34-0.69,0.42-1.03,0.19 c-0.01,0-0.01-0.01-0.02-0.01c-0.33-0.23-0.42-0.68-0.19-1.01c0-0.01,0.01-0.01,0.02-0.02l3.86-5.49c0.24-0.34,0.71-0.41,1.05-0.17 c0.23,0.17,0.35,0.45,0.3,0.73L235.95,52.13z"></path> <path class="st13" d="M94.74,163.07c-2.77-2.69-7.03-3.09-10.25-0.96l-59.25,41.84l0,0c-2.58,1.68-3.31,5.13-1.63,7.7 c0.22,0.34,0.48,0.65,0.77,0.94l121.84,128.55c1.55,1.55,3.67,2.4,5.86,2.34h4.03c1.81,0.01,3.56-0.61,4.95-1.77l53.34-46.09 c2.36-1.93,2.71-5.41,0.79-7.77c-0.15-0.18-0.3-0.35-0.47-0.51L94.74,163.07z"></path> <polygon class="st0" points="34.17,206.35 91.22,165.84 206.14,284.21 151.54,331.14 "></polygon> <ellipse transform="matrix(0.8352 -0.5499 0.5499 0.8352 -139.1832 154.1284)" class="st0" cx="187.6" cy="309.32" rx="2.52" ry="2.93"></ellipse> </g> </svg> 