<?xml version="1.0" encoding="UTF-8"?> <!-- Generator: Adobe Illustrator 24.2.0, SVG Export Plug-In . SVG Version: 6.00 Build 0) --> <svg xmlns="http://www.w3.org/2000/svg" xmlns:xlink="http://www.w3.org/1999/xlink" version="1.1" id="Layer_2_1_" x="0px" y="0px" viewBox="0 0 570 500" style="enable-background:new 0 0 570 500;" xml:space="preserve"> <style type="text/css"> .st0{fill:#087262;} .st1{fill:#1B81C4;} .st2{fill:#67BD50;} .st3{fill:#FFFFFF;} .st4{fill:#F58457;} .st5{fill:#404040;} .st6{fill:#D6644B;} .st7{fill:#27B0E5;} .st8{fill:#015245;} .st9{fill:#F58458;} .st10{fill:#879BA6;} .st11{fill:#E3F2FA;} .st12{fill:#555554;} .st13{fill:#D6E9BD;} </style> <g> <path class="st0" d="M551.45,126.68c-18.42-26.81-54.71-34.04-86.93-32.23c-48.28,2.73-97.53,4.33-145.69,9.06 C197.81,115.38,87.04,183.58,31.25,294.93c-4.43,8.77-8.29,17.82-11.55,27.08c-8.16,23.42-11.59,48.28-4.04,71.5 c9.03,27.83,32.87,48.86,59.54,60.27c1.45,0.61,2.9,1.18,4.35,1.79c1.08-0.59,2.3-0.9,3.53-0.89h283.8 c31.8-3.37,62.41-12.95,86.86-35.52c40.4-37.26,71.57-84.68,90.62-136.5C560.25,239.33,580.19,168.52,551.45,126.68z"></path> <path class="st1" d="M557.98,315.74c0.02,21.34-17.26,38.65-38.6,38.67c-21.34,0.02-38.65-17.26-38.67-38.6 c-0.02-21.34,17.26-38.65,38.6-38.67c0.01,0,0.02,0,0.04,0C540.67,277.14,557.97,294.42,557.98,315.74z"></path> <polygon class="st2" points="81.53,249.25 76.16,293.33 70.77,337.42 35.39,310.95 0,284.49 40.76,266.87 "></polygon> <path class="st3" d="M229.7,254.62l-0.52-0.53l-39.93-39.92l14.84-55.29l55.35-14.84l40.45,40.45l-14.84,55.29l-0.72,0.2 L229.7,254.62z M192.13,213.41l38.35,38.35l52.42-14.06l14.06-52.42l-38.34-38.37l-52.43,14.06L192.13,213.41z"></path> <rect x="94.5" y="163.69" class="st1" width="36.06" height="38.06"></rect> <path class="st4" d="M157.68,464.13H88.2v-84.42h69.48V464.13z M97.28,455.09h51.36v-66.33H97.28L97.28,455.09z"></path> <path class="st4" d="M257.27,464.13h-69.48V278.38h69.48V464.13z M196.84,455.09h51.39V287.42h-51.39L196.84,455.09z"></path> <path class="st4" d="M356.84,464.13h-69.48V326.2h69.48V464.13z M296.4,455.09h51.39V335.24H296.4L296.4,455.09z"></path> <path class="st4" d="M456.4,464.13h-69.48V237.47h69.48V464.13z M395.99,455.09h51.37V246.52h-51.37L395.99,455.09z"></path> <rect x="415.88" y="455.09" class="st4" width="68.54" height="9.04"></rect> <rect x="73.32" y="455.09" class="st4" width="342.57" height="9.04"></rect> <path class="st5" d="M409.68,162.62c0,0-2.65,10.32,4,5.44c6.65-4.88,16.6-11.23,15.86-12.88 C428.8,153.53,419.04,148.87,409.68,162.62z"></path> <path class="st1" d="M410.64,158.92c0,0,3.53,12.69,4.11,16.29c0.58,3.59-3.53,6.61-7.07,18.23c-3.53,11.62-6.48,18.03-9.3,19.76 c-2.83,1.73-6.67,4.45-3.91,8.82c2.76,4.37,8.53,11.41,10.68,14.71c2.16,3.3,3.53,1.7,3.53,1.7c-0.35-2.7-0.87-5.37-1.54-8.01 c-0.86-2.77-2.65-6.69-1.47-9.61c1.18-2.92,7.83-15.12,12.88-20.93s11.51-18.59,11.61-22.17c0.11-3.58,0.32-17.95-6.41-30.62 C417.04,134.41,409.48,155.34,410.64,158.92z"></path> <path class="st6" d="M423.7,147.05c-6.74-12.69-14.23,8.24-13.06,11.87c0,0,3.53,12.69,4.11,16.29c0.58,3.59-3.53,6.61-7.07,18.23 c-0.8,2.57-1.57,4.88-2.3,6.95c0.24,0.17,0.44,0.39,0.59,0.65c1.75,2.96,3.86,5.71,5.71,8.62c2.01-3.43,4.29-6.7,6.82-9.77 c5.05-5.79,11.51-18.59,11.61-22.17C430.23,174.12,430.43,159.76,423.7,147.05z"></path> <path class="st7" d="M399.88,138.05c0,0,9.81,30.87,9.42,29.28c-0.16-0.71,5.39-8.11,12.62-8.86c5.43-0.57,5.31-2.85,6.58-1.59 c1.27,1.26-1.73-23.41-1.73-23.41S410.02,129.53,399.88,138.05z"></path> <path class="st5" d="M399.88,138.05c0,0,9.81,30.87,9.42,29.28c-0.16-0.71,5.39-8.11,12.62-8.86c5.43-0.57,5.31-2.85,6.58-1.59 c1.27,1.26-1.73-23.41-1.73-23.41S410.02,129.53,399.88,138.05z"></path> <path class="st8" d="M451.8,57.88c0,0-12.06-5.89-9.54-14.93c2.52-9.04-1.35-13.34,3.91-16.58c5.26-3.24,5.89-6.67,7.47-4.71 c1.58,1.95,10.79-8.1,20.62-10.36c13.8-3.18,4.71,4.4,3.6,6.3c-1.33,2.16,7.34,1.98,11.03,3.09c19.81,5.97,15.31,13.66,8.68,15.41 c-6.63,1.75,4.79,3.53,2.19,6.38s2.84,4.04,5.98,3.11s-4.13,12.15-19.74,12.52C470.41,58.47,453.2,61.89,451.8,57.88z"></path> <path class="st9" d="M439.73,67.87c3.59-1.39,6.35-4.33,7.52-8c1.97-6.19-3.23-13.41-1.72-17.08c1.51-3.66,6.48-6.85,6.24-2.59 s0.38,9.01,2.87,6.1s-1.18-11.39,3.36-13.73c4.53-2.34,5.89,3.82,9.54,4.59c3.65,0.78,5.41-0.41,4.97-3.18s2.1-0.62,6.18,1.97 c4.09,2.59,7.74,6.72,8.43,4.27c0.69-2.45,3.91-1.07,4.37,2.43s-3.76,16.02-4.33,20.67c-0.58,4.65-1.34,14.3-13.08,14.13 c-11.74-0.16-11.16-1.35-13.45,0.8c-0.99,0.93-1.81,16.93-17.17,9.03C436.97,84.01,435.66,73.93,439.73,67.87z"></path> <path class="st6" d="M391.91,34.29l-6.84-11.65c0,0-1.87,3.44,2.44,9.34c1.73,2.19,3.3,4.5,4.71,6.91L391.91,34.29z"></path> <path class="st6" d="M392.9,36.55l-9.31-10.6c-0.25,2.39,0.53,4.76,2.13,6.55c2.4,2.74,4.6,5.64,6.58,8.69L392.9,36.55z"></path> <path class="st9" d="M473.69,84.08c0,0,17.06-1.05,20.96-0.16c3.45,0.79,6.81,12,12.57,15.6c0,0,1.9-0.51,4.71-1.47 c1.76-0.71,3.56-1.32,5.38-1.84c2.77-0.42-0.09,0.97-0.98,1.18c-0.69,0.21,4.65-0.82,5.04-0.62c1.18,0.59-1.72,1.59-2.04,1.95 c-0.69,0.77,4.71-1.57,4.71-1.57c0.32,1.99-2.8,2.97-9.13,5.15c-4.3,1.48-8.54,3.87-6.31,4.5c2.23,0.62,3.83,1.79,3.86,2.52 c0.04,0.73-3.65,0.18-6.04-0.73c-2.82-0.97-5.34-2.66-7.29-4.92c-2.56-2.89-5.63-5.66-7.07-6.31c-1.44-0.65-22.37,2.36-22.37,2.36 L473.69,84.08z"></path> <path class="st10" d="M433.04,50.59c0,0-25.99,17.28-16.63,18.21C425.78,69.73,433.84,58.76,433.04,50.59z"></path> <path class="st9" d="M432.02,55.11l-8.86-17.38c0,0-0.35-7.31-10.1-4.26c-6.28,1.91-12.67,3.49-19.12,4.71c0,0-0.94,7.67,4.18,7.42 s14.13,0.33,16.03-0.57s5.17,24.52,5.17,24.52S431.92,66.63,432.02,55.11z"></path> <path class="st11" d="M416.38,80.09c0,0,1.78-10.72-1.42-11.67c-1.58-0.47,6.49,1.3,11.41-5.98c2.62-3.71,4.86-7.68,6.68-11.85 l8.24,14.33C441.28,64.92,437.19,79.64,416.38,80.09z"></path> <path class="st11" d="M461.61,79.99c0,0,12.74,4.71,13.52,3.29c1.07-2.08-3.05,14.61-1.28,20.09l-18.03,1.68L461.61,79.99z"></path> <path class="st1" d="M460.24,78.88c-1.95,2.89-14.43,5.68-13.95,4.52c0.89-2.18-5.75-13.46-3.9-16.7c0.35-0.61-1.1-1.78-1.1-1.78 c-1.33,1.32-4.15,9.67-24.67,14.27l0,0c-5.89,4.89-12.13,9.42-17.56,14.85c-4.1,4.26-7.66,9-10.6,14.13 c3.7-1.3,9.07-0.92,16.49,1.18c10.26,2.87,9.54,20.95,15.1,25.14c5.56,4.19,8.87,4.4,10.36-0.95s3.59-10.29,12.45-15.31 c8.86-5.02,15.98-15.01,15.98-15.01l3.83-22.74C462.67,80.48,460.66,78.27,460.24,78.88z"></path> <path class="st9" d="M397.05,38.44c0,0-5.45-11.45-6.47-16.24c-1.01-4.79-0.57,5.26-0.62,6.14s1.91,8.66,1.04,11.12 c-0.87,2.46-3.53,3.7-5.89,3.76c-2.36,0.06-4.43,2.91,0.59,3.05c5.02,0.14,5-1.18,6.84-0.61c1.84,0.57,5.63,0.49,6.41-1.64 C399.73,41.88,397.05,38.44,397.05,38.44z"></path> <path class="st3" d="M466.48,56.93c0,0,13.93,5.69,16.33,9.97s-10.46,6.45-12.81,3.27C467.65,67,465.47,63.15,466.48,56.93z"></path> <path class="st5" d="M423.24,105.34c0,0,7.12-4.03,6.58-0.33c-0.62,4.13,0.62,15.8,0.37,19.34c-0.26,3.53-0.52,10.45-5.04,9.42 C420.63,132.74,423.24,105.34,423.24,105.34z"></path> <path class="st1" d="M454.05,111.36c1.18-6.01-2.1-7.98-7.54-9.15c-5.44-1.17-31.97,5.36-31.97,5.36 c-6.34,0.75-20.02,24.73-5.13,24.18c9.09-0.38,17.88-3.38,25.32-8.62c-3.53,3.14-9.42,22.08-11.21,25.91 c-1.79,3.83-4.71,11.12-3.89,12.61c1.18,2.03,3.17,1.5,5.56-0.35c2.83-1,6.91-2.47,9.22-3.45c7.16-3.05,7.71-2.83,9.34-5.69 c1.41-2.48,2.18-4.18-1.8-3.21c-4.19,1.02-7.71,3.04-6.37-0.16C442.27,137.63,453.13,116.2,454.05,111.36z"></path> <path class="st12" d="M441.94,148.9c-3.85,0.94-7.12,2.71-6.61,0.52c-3.84,0.92-8.58,1.07-12.32,1.46c-0.12,0.01-0.24,0.01-0.35,0 c-1.72,3.96-3.76,9.42-3.04,10.72c1.18,2.03,3.17,1.5,5.56-0.35c2.83-1,6.91-2.47,9.22-3.45c7.16-3.05,7.71-2.83,9.34-5.69 C445.16,149.63,445.92,147.93,441.94,148.9z"></path> <path class="st9" d="M446.51,102.21c-5.45-1.18-31.97,5.32-31.97,5.32c-6.34,0.75-20.02,24.73-5.13,24.18 c9.09-0.38,17.88-3.38,25.32-8.62c-1.87,1.64-4.35,7.56-6.55,13.4c2.76-1.28,5.68-2.18,8.68-2.66c2.33-0.47,4.73-0.47,7.07,0 c4.99-9.57,9.6-19.35,10.17-22.37C455.19,105.35,451.95,103.37,446.51,102.21z"></path> <path class="st12" d="M428.7,103.36c0,0-9.53,8.04-1.02,30.13c0,0-1.9,0.98-12.55,3.53c-10.66,2.56-18.29,4.82-24.21-0.45 c-5.92-5.26-7.95-17.78-4.6-27.19c1.68-4.71,14.24-2.76,14.24-2.76l8.99-0.55C409.52,106.08,425.6,104.13,428.7,103.36z"></path> <path class="st12" d="M405.24,223.46c-2.3-3.43-4.57-6.85-6.63-10.43l-0.24,0.16c-2.84,1.73-6.67,4.45-3.91,8.82 c2.76,4.37,8.53,11.41,10.68,14.71c2.16,3.3,3.53,1.7,3.53,1.7c-0.35-2.7-0.87-5.37-1.54-8.01 C406.23,228.18,405.6,225.85,405.24,223.46z"></path> <polygon class="st3" points="444.49,85.48 447.33,81.53 443.82,63.56 436.51,66.6 439.55,78.75 444.72,80.57 "></polygon> <polygon class="st3" points="444.49,85.48 446.23,84.52 449.42,82.75 451,82.19 461.72,77.96 461.72,82.75 454.52,86.65 452.72,83.35 "></polygon> <polygon class="st13" points="369.24,260.18 369.56,217.54 326.9,217.22 "></polygon> <polygon class="st13" points="342.33,228.96 209.03,360.33 184,334.94 58.66,458.47 58.43,489.47 127.42,421.49 183.78,365.95 208.79,391.34 357.72,244.59 "></polygon> <path class="st3" d="M528.72,153.75c-3.37,3.37-8.82,3.37-12.19,0c-3.37-3.37-3.37-8.82,0-12.19c3.37-3.37,8.82-3.37,12.19,0 c0,0,0,0,0,0c3.37,3.35,3.38,8.79,0.03,12.16C528.74,153.73,528.73,153.74,528.72,153.75z"></path> <path class="st3" d="M548.07,173.12c-3.37,3.37-8.82,3.37-12.19,0c-3.37-3.37-3.37-8.82,0-12.19c3.37-3.37,8.82-3.37,12.19,0 c0,0,0,0,0,0C551.43,164.3,551.43,169.76,548.07,173.12z"></path> <path class="st3" d="M567.48,192.49c-3.37,3.37-8.82,3.37-12.19,0c-3.37-3.37-3.37-8.82,0-12.19c3.37-3.37,8.82-3.37,12.19,0 c0,0,0,0,0,0C570.84,183.67,570.84,189.13,567.48,192.49z"></path> <path class="st3" d="M509.99,172.5c-3.37,3.37-8.82,3.37-12.19,0c-3.37-3.37-3.37-8.82,0-12.19c3.37-3.37,8.82-3.37,12.19,0 c0,0,0,0,0,0C513.35,163.68,513.35,169.13,509.99,172.5z"></path> <path class="st3" d="M529.36,191.87c-3.37,3.37-8.82,3.37-12.19,0c-3.37-3.37-3.37-8.82,0-12.19c3.37-3.37,8.82-3.37,12.19,0 c0,0,0,0,0,0C532.72,183.05,532.72,188.5,529.36,191.87z"></path> <path class="st3" d="M548.73,211.19c-3.36,3.37-8.82,3.38-12.19,0.01c-3.37-3.36-3.38-8.82-0.01-12.19 c3.36-3.37,8.82-3.38,12.19-0.01c0,0,0.01,0.01,0.01,0.01C552.09,202.38,552.09,207.83,548.73,211.19z"></path> <path class="st3" d="M491.24,191.25c-3.37,3.37-8.82,3.37-12.19,0c-3.37-3.37-3.37-8.82,0-12.19c3.37-3.37,8.82-3.37,12.19,0 c0,0,0,0,0,0C494.6,182.42,494.6,187.88,491.24,191.25z"></path> <path class="st3" d="M510.61,210.62c-3.36,3.37-8.82,3.38-12.19,0.01c-3.37-3.36-3.38-8.82-0.01-12.19 c3.36-3.37,8.82-3.38,12.19-0.01c0,0,0.01,0.01,0.01,0.01C513.97,201.81,513.97,207.25,510.61,210.62z"></path> <path class="st3" d="M529.98,230.04c-3.36,3.37-8.82,3.38-12.19,0.01c-3.37-3.36-3.38-8.82-0.01-12.19 c3.36-3.37,8.82-3.38,12.19-0.01c0,0,0.01,0.01,0.01,0.01C533.34,221.22,533.34,226.67,529.98,230.04z"></path> </g> </svg> 