<?xml version="1.0" encoding="UTF-8"?> <svg xmlns="http://www.w3.org/2000/svg" id="Layer_1" data-name="Layer 1" viewBox="0 0 570 500"><defs><style>.cls-1{fill:#c4d6d3;}.cls-2{fill:#3bafe2;}.cls-3{fill:#ffc639;}.cls-4{fill:#f99b1c;}.cls-5{fill:#1b1b5e;}.cls-6{fill:#0f9cea;}.cls-7{fill:#01c3a2;}.cls-14,.cls-8{fill:#f26522;}.cls-8{fill-rule:evenodd;}.cls-9{fill:#ffa52e;}.cls-10{fill:#d1dbea;}.cls-11{fill:#fff;}.cls-12{fill:#e4eef3;}.cls-13{fill:#b0bfde;}.cls-15{fill:#c5ecfb;}.cls-16{fill:#3595bf;}.cls-17{fill:#63256d;}.cls-18{fill:#ea526f;}.cls-19{fill:#f48257;}.cls-20{fill:#b393e5;}.cls-21{fill:#545454;}.cls-22{fill:#444344;}.cls-23{fill:#f7cb55;}.cls-24{fill:#ffab01;}</style></defs><path class="cls-1" d="M301.41,47.39,518.18,166a66,66,0,0,1,30.48,80.12L488.6,414a66,66,0,0,1-68.46,43.46L146.9,431.15a66,66,0,0,1-59.32-58.93L72.85,229.31a66,66,0,0,1,21.68-56L225.77,56.08A66,66,0,0,1,301.41,47.39Z"></path><path class="cls-2" d="M82,339.48l24.86-10.11a1.71,1.71,0,0,0-1.29-3.17L80.68,336.3A1.72,1.72,0,0,0,82,339.48Z"></path><path class="cls-3" d="M37.62,283.49a33.41,33.41,0,1,1,61.9-25.16c.41,1,5.48,15.61-.07,35.36-1.58,5.92,2.69,14.8,2.72,14.79L88.64,314l-4.4,1.79-13.59,5.52s-3.06-9.37-8.3-12.52C44.57,298.49,38,284.5,37.62,283.49Z"></path><path class="cls-3" d="M86.44,314.87l-15.79,6.42s-3.06-9.37-8.3-12.52C44.57,298.49,38,284.5,37.62,283.49A33.41,33.41,0,0,1,56,240"></path><path class="cls-4" d="M92.94,261l-2.71,1.1a23.41,23.41,0,0,0-30.46-12.84l-1.11-2.71A26.33,26.33,0,0,1,92.94,261Z"></path><polygon class="cls-5" points="94.19 314.54 91.33 315.19 83.61 281.05 86.47 280.4 94.19 314.54 94.19 314.54"></polygon><polygon class="cls-5" points="80.67 320.04 62.37 290.19 64.87 288.66 83.17 318.51 80.67 320.04 80.67 320.04"></polygon><path class="cls-5" d="M86.61,285.08c-1.11.45-2-.44-2.71-1.09-.28-.27-.86-.83-1-.76s-.2.88-.21,1.27c0,.93-.07,2.21-1.18,2.66s-2-.43-2.71-1.08c-.28-.27-.86-.83-1-.76s-.2.88-.22,1.27c0,.93-.07,2.21-1.18,2.66s-2-.44-2.7-1.08c-.28-.27-.87-.84-1-.77s-.2.89-.21,1.27c0,.94-.07,2.21-1.18,2.67s-2-.44-2.71-1.08c-.28-.27-.87-.83-1-.76s-.2.88-.21,1.27c0,.93-.08,2.21-1.19,2.66L65.46,292c.18-.07.21-.88.22-1.27,0-.94.07-2.21,1.19-2.67s2,.44,2.71,1.08c.28.27.86.83,1,.76s.2-.88.21-1.27c0-.93.07-2.21,1.18-2.66s2,.44,2.71,1.08c.28.27.86.84,1,.77s.2-.88.21-1.27c0-.94.08-2.21,1.19-2.67s2,.44,2.7,1.09c.28.26.87.83,1,.76s.2-.88.21-1.27c0-.93.07-2.21,1.18-2.66s2,.43,2.71,1.08c.28.27.86.83,1,.76l.59,1.45Z"></path><path class="cls-6" d="M102.21,308.48l6.57,16.18a2.16,2.16,0,0,1-1.18,2.83L80.13,338.65a2.16,2.16,0,0,1-2.82-1.2l-6.58-16.17Z"></path><path class="cls-2" d="M104.12,311.37,71.34,324.7a1.72,1.72,0,0,1-1.29-3.18l32.78-13.32a1.71,1.71,0,1,1,1.29,3.17Z"></path><line class="cls-5" x1="105.63" y1="315.07" x2="72.85" y2="328.4"></line><path class="cls-2" d="M106.27,316.66,73.49,330a1.72,1.72,0,0,1-1.29-3.18L105,313.48a1.72,1.72,0,0,1,1.29,3.18Z"></path><line class="cls-5" x1="107.78" y1="320.36" x2="75" y2="333.68"></line><path class="cls-2" d="M108.42,322,75.64,335.27a1.71,1.71,0,1,1-1.29-3.17l32.78-13.33a1.72,1.72,0,0,1,1.29,3.18Z"></path><path class="cls-3" d="M51.88,229.87a.87.87,0,0,1-1.14-.48l-6.91-17a.87.87,0,0,1,1.61-.66l6.92,17a.87.87,0,0,1-.48,1.13Z"></path><path class="cls-3" d="M32.57,244.49a.87.87,0,0,1-.86-.12L17.22,233.1a.87.87,0,0,1-.16-1.22.89.89,0,0,1,1.23-.15L32.78,243a.88.88,0,0,1,.15,1.22.86.86,0,0,1-.36.27Z"></path><path class="cls-3" d="M23.16,266.81a.85.85,0,0,1-.45.06L4.53,264.35a.87.87,0,0,1,.24-1.73L23,265.14a.87.87,0,0,1,.21,1.67Z"></path><path class="cls-3" d="M26.17,290.84l-17,6.91a.87.87,0,1,1-.66-1.61l17-6.92a.87.87,0,0,1,1.13.48.86.86,0,0,1-.48,1.14Z"></path><path class="cls-3" d="M29.53,324.64a.87.87,0,0,1-1-1.34l11.27-14.49a.87.87,0,1,1,1.38,1.07L29.89,324.37a1,1,0,0,1-.36.27Z"></path><path class="cls-3" d="M60.59,337.74a1,1,0,0,1-.45.05.86.86,0,0,1-.74-1l2.52-18.18a.88.88,0,0,1,1-.75.89.89,0,0,1,.75,1l-2.52,18.18a.88.88,0,0,1-.54.69Z"></path><path class="cls-3" d="M120.94,313.2a.89.89,0,0,1-.87-.12L105.59,301.8a.87.87,0,0,1-.16-1.22.9.9,0,0,1,1.23-.15l14.48,11.27a.88.88,0,0,1,.15,1.23.92.92,0,0,1-.35.27Z"></path><path class="cls-3" d="M134,282.12a.85.85,0,0,1-.45.06l-18.18-2.52a.87.87,0,1,1,.24-1.72l18.18,2.51a.87.87,0,0,1,.74,1,.85.85,0,0,1-.53.68Z"></path><path class="cls-3" d="M129.85,248.66l-17,6.92a.87.87,0,0,1-.66-1.62l17-6.91a.87.87,0,1,1,.65,1.61Z"></path><path class="cls-3" d="M98.22,236.27a.87.87,0,0,1-1-1.34l11.27-14.49a.87.87,0,0,1,1.22-.16.88.88,0,0,1,.15,1.23L98.58,236a.88.88,0,0,1-.36.27Z"></path><path class="cls-3" d="M75.91,226.86a.85.85,0,0,1-.45.06.87.87,0,0,1-.74-1l2.5-18.19a.89.89,0,0,1,1-.74.86.86,0,0,1,.74,1l-2.51,18.18a.85.85,0,0,1-.53.69Z"></path><path class="cls-3" d="M51.88,229.87a.87.87,0,0,1-1.14-.48l-6.91-17a.87.87,0,0,1,1.61-.66l6.92,17a.87.87,0,0,1-.48,1.13Z"></path><path class="cls-7" d="M351.42,158a12.69,12.69,0,0,0,12.69,12.69h8.48v29.63l29.62-29.63h97.35A12.69,12.69,0,0,0,512.25,158V52.13a12.7,12.7,0,0,0-12.69-12.7H364.11a12.7,12.7,0,0,0-12.69,12.7Z"></path><path class="cls-8" d="M444.25,347.53a8.28,8.28,0,0,0-4.15,1.11l-52.41,30.43a8.34,8.34,0,0,0-4.15,7.22v60.86a8.34,8.34,0,0,0,4.15,7.22L440.1,484.8a8.23,8.23,0,0,0,8.29,0l52.42-30.43a8.35,8.35,0,0,0,4.14-7.22V386.29a8.35,8.35,0,0,0-4.14-7.22l-52.42-30.43a8.27,8.27,0,0,0-4.14-1.11"></path><path class="cls-3" d="M434.74,444.48a16.31,16.31,0,1,1-9.6-28.55,16.31,16.31,0,0,1,15.15,17.38A16.13,16.13,0,0,1,434.74,444.48ZM417.6,424.82A9.78,9.78,0,0,0,423.36,442a10,10,0,0,0,10.43-9.09,9.8,9.8,0,0,0-9.1-10.43A9.68,9.68,0,0,0,417.6,424.82Z"></path><rect class="cls-3" x="427.64" y="401.65" width="55.35" height="6.52" transform="translate(-153.97 398.89) rotate(-41.08)"></rect><rect class="cls-3" x="460.08" y="400.18" width="6.52" height="13.84" transform="translate(-153.43 404.7) rotate(-41.08)"></rect><rect class="cls-3" x="470.51" y="391.09" width="6.52" height="13.84" transform="translate(-144.89 409.31) rotate(-41.08)"></rect><path class="cls-9" d="M368.82,126.55a1.89,1.89,0,0,0,1.33,2.29l104.42,27.28a1.87,1.87,0,0,0,2.28-1.34L496,81.23A1.86,1.86,0,0,0,494.67,79L390.25,51.67A1.86,1.86,0,0,0,388,53Z"></path><rect class="cls-10" x="420.39" y="83.33" width="7.16" height="105.93" transform="translate(184.92 512.04) rotate(-75.36)"></rect><path class="cls-11" d="M423.7,137.42l17.58-67.5a.41.41,0,0,1,0-.22c.05-.19.12-.37.18-.55a6.75,6.75,0,0,0-4.93-7.65L391.76,49.81l-18.3,70.28,44.76,11.69A7.6,7.6,0,0,1,423.7,137.42Z"></path><path class="cls-11" d="M423.66,137.41l17.58-67.5a.45.45,0,0,0,.11-.19c0-.19.08-.38.12-.56a6.73,6.73,0,0,1,8-4.27l44.76,11.7L476,146.87l-44.76-11.7A7.58,7.58,0,0,0,423.66,137.41Z"></path><path class="cls-12" d="M441.47,69.16a6.68,6.68,0,0,1,5-4.34L428.19,135a7.69,7.69,0,0,0-4.53,2.4l17.58-67.5a.45.45,0,0,0,.11-.19C441.4,69.53,441.43,69.34,441.47,69.16Z"></path><polygon class="cls-10" points="439.87 105 477.18 114.75 477.51 113.45 440.21 103.7 439.87 105"></polygon><rect class="cls-10" x="456.73" y="92.43" width="1.34" height="39.55" transform="translate(233.21 526.39) rotate(-75.36)"></rect><rect class="cls-10" x="456.33" y="96.05" width="1.34" height="38.73" transform="matrix(0.25, -0.97, 0.97, 0.25, 229.8, 528.39)"></rect><rect class="cls-10" x="457.72" y="102.02" width="1.34" height="34.17" transform="translate(227.3 532.5) rotate(-75.36)"></rect><rect class="cls-10" x="464.33" y="65.75" width="1.34" height="38.56" transform="translate(265.19 513.43) rotate(-75.36)"></rect><polygon class="cls-10" points="444.41 83.66 482.67 93.66 483.01 92.36 444.75 82.36 444.41 83.66"></polygon><rect class="cls-10" x="462.63" y="71.86" width="1.34" height="38.72" transform="translate(257.93 516.41) rotate(-75.36)"></rect><rect class="cls-10" x="469.22" y="84.54" width="1.34" height="23.43" transform="translate(257.97 526.55) rotate(-75.36)"></rect><rect class="cls-10" x="460.46" y="80.59" width="1.34" height="38.56" transform="translate(247.92 520.77) rotate(-75.36)"></rect><rect class="cls-10" x="459.17" y="83.08" width="1.34" height="39.55" transform="translate(244.07 521.75) rotate(-75.36)"></rect><rect class="cls-10" x="458.76" y="86.71" width="1.34" height="38.72" transform="translate(240.65 523.75) rotate(-75.35)"></rect><polygon class="cls-10" points="435.96 120.03 473.26 129.78 473.6 128.48 436.3 118.74 435.96 120.03"></polygon><rect class="cls-10" x="452.82" y="107.46" width="1.34" height="39.55" transform="translate(215.73 533.83) rotate(-75.36)"></rect><rect class="cls-10" x="452.41" y="111.09" width="1.34" height="38.73" transform="translate(212.33 535.84) rotate(-75.36)"></rect><rect class="cls-10" x="459" y="123.78" width="1.34" height="23.43" transform="translate(212.36 545.97) rotate(-75.35)"></rect><rect class="cls-13" x="475.21" y="72.6" width="2.18" height="18.42" transform="translate(276.76 521.96) rotate(-75.36)"></rect><rect class="cls-10" x="409.64" y="65.1" width="1.34" height="38.56" transform="translate(224.95 460.03) rotate(-75.36)"></rect><rect class="cls-10" x="408.35" y="67.58" width="1.35" height="39.55" transform="translate(221.1 461.01) rotate(-75.36)"></rect><rect class="cls-10" x="407.95" y="71.2" width="1.34" height="38.73" transform="translate(217.7 463.02) rotate(-75.36)"></rect><polygon class="cls-10" points="393.32 90.58 426.37 99.22 426.71 97.92 393.65 89.28 393.32 90.58"></polygon><polygon class="cls-10" points="393.93 70.8 431.23 80.55 431.57 79.25 394.27 69.5 393.93 70.8"></polygon><rect class="cls-10" x="410.79" y="58.23" width="1.34" height="39.55" transform="translate(231.97 456.38) rotate(-75.36)"></rect><rect class="cls-10" x="410.38" y="61.85" width="1.34" height="38.73" transform="translate(228.55 458.38) rotate(-75.36)"></rect><rect class="cls-10" x="401.37" y="96.85" width="1.34" height="38.56" transform="translate(188.07 475.77) rotate(-75.36)"></rect><rect class="cls-10" x="411.95" y="114.7" width="1.34" height="15.02" transform="matrix(0.25, -0.97, 0.97, 0.25, 190.08, 490.54)"></rect><rect class="cls-10" x="402.11" y="93.61" width="1.34" height="38.73" transform="translate(191.66 474.12) rotate(-75.36)"></rect><polygon class="cls-10" points="387.79 94.39 425.09 104.14 425.43 102.84 388.12 93.09 387.79 94.39"></polygon><rect class="cls-10" x="404.65" y="81.82" width="1.34" height="39.55" transform="translate(204.55 468.06) rotate(-75.36)"></rect><rect class="cls-10" x="404.24" y="85.44" width="1.34" height="38.73" transform="matrix(0.25, -0.97, 0.97, 0.25, 201.14, 470.06)"></rect><polygon class="cls-10" points="400 107.53 422.67 113.46 423 112.16 400.33 106.24 400 107.53"></polygon><polygon class="cls-10" points="396.39 61.35 433.7 71.1 434.03 69.8 396.73 60.05 396.39 61.35"></polygon><polygon class="cls-10" points="394.62 64.2 432.89 74.2 433.22 72.9 394.96 62.91 394.62 64.2"></polygon><rect class="cls-10" x="412.84" y="52.4" width="1.34" height="38.73" transform="matrix(0.25, -0.97, 0.97, 0.25, 239.55, 453.71)"></rect><polygon class="cls-14" points="427.69 147.34 431.57 145.67 434.15 149.03 456.02 65.04 452.79 64.19 449.56 63.35 427.69 147.34"></polygon><polygon class="cls-15" points="467.28 270.26 487.08 283.19 566.22 240.16 467.28 270.26"></polygon><path class="cls-2" d="M485.76,282.61c1.32.58,10,26.46,10,26.46l-2.47-22.94,72.43-45.69Z"></path><polygon class="cls-16" points="524.46 288.01 495.76 309.07 493.29 286.13 536.27 273.08 524.46 288.01"></polygon><path class="cls-15" d="M493.29,286.13c.54,0,16.87,20.07,16.87,20.07l56.06-66Z"></path><path class="cls-17" d="M473.2,308.53a1.06,1.06,0,0,0,.19-1.35A1,1,0,0,0,472,307c-1.13.86-2.28,1.7-3.43,2.51a1.09,1.09,0,0,0-.36,1.44,1,1,0,0,0,1.4.21c1.18-.84,2.35-1.69,3.51-2.58Z"></path><path class="cls-17" d="M462.2,315.93c-2.48,1.46-5.06,2.84-7.68,4.1a.92.92,0,0,1-1.31-.45,1.12,1.12,0,0,1,.6-1.38c2.56-1.24,5.09-2.59,7.52-4a1,1,0,0,1,1.36.33,1.1,1.1,0,0,1-.26,1.25A1.06,1.06,0,0,1,462.2,315.93Zm-15.6,7.58c-2.65,1-5.38,2-8.1,2.85a.91.91,0,0,1-1.2-.67,1.16,1.16,0,0,1,.8-1.29c2.67-.83,5.34-1.77,7.94-2.8a.93.93,0,0,1,1.27.57,1.1,1.1,0,0,1-.32,1.08A1.16,1.16,0,0,1,446.6,323.51Zm-16.32,5.09c-2.74.65-5.52,1.2-8.3,1.65a.9.9,0,0,1-1.07-.85,1.17,1.17,0,0,1,1-1.18c2.72-.44,5.46-1,8.15-1.62a.9.9,0,0,1,1.14.76,1.14,1.14,0,0,1-.35.94A1.11,1.11,0,0,1,430.28,328.6Zm-16.62,2.71c-2.77.26-5.57.42-8.31.48a.89.89,0,0,1-.93-1,1.17,1.17,0,0,1,1.11-1.05c2.7-.07,5.45-.23,8.17-.48a.9.9,0,0,1,1,.93,1.16,1.16,0,0,1-.35.8A1.2,1.2,0,0,1,413.66,331.31Zm-16.57.4c-2.69-.11-5.44-.32-8.17-.61a.9.9,0,0,1-.79-1.12,1.17,1.17,0,0,1,1.22-.92c2.69.28,5.4.48,8,.6a.9.9,0,0,1,.86,1.07,1.16,1.16,0,0,1-.35.65A1.06,1.06,0,0,1,397.09,331.71ZM380.85,330c-2.62-.44-5.29-1-7.94-1.57a.92.92,0,0,1-.64-1.22,1.14,1.14,0,0,1,1.3-.78c2.62.59,5.25,1.11,7.83,1.54a.91.91,0,0,1,.71,1.18,1.18,1.18,0,0,1-1.26.85Zm-15.73-3.57c-2.52-.71-5.09-1.52-7.63-2.39a.93.93,0,0,1-.51-1.3,1.13,1.13,0,0,1,1.35-.66c2.52.86,5.06,1.66,7.55,2.37a.93.93,0,0,1,.57,1.26,1.15,1.15,0,0,1-.28.43A1.09,1.09,0,0,1,365.12,326.43ZM350,321.28c-2.44-1-4.9-2-7.31-3.1a1,1,0,0,1-.39-1.35,1.12,1.12,0,0,1,1.39-.55c2.39,1.08,4.83,2.11,7.24,3.07a1,1,0,0,1,.44,1.33,1,1,0,0,1-.24.33A1.07,1.07,0,0,1,350,321.28Zm-10.34-4.49a1,1,0,0,1-1.42-.06,1.06,1.06,0,0,1,.22-1.45c1.44-1.21,2.83-2.47,4.15-3.76.72-.72,1.41-1.4,2.09-2.12a1,1,0,0,1,1.45-.12,1,1,0,0,1,0,1.44c-.69.74-1.4,1.45-2.12,2.15C342.59,314.21,341.17,315.53,339.67,316.79Zm10.69-12.55a1,1,0,0,1-.16-1.42c1.14-1.56,2.21-3.19,3.18-4.82.47-.78.91-1.57,1.33-2.38a1.12,1.12,0,0,1,1.39-.55,1,1,0,0,1,.4,1.35c-.44.84-.91,1.67-1.39,2.48-1,1.7-2.13,3.39-3.31,5a1.07,1.07,0,0,1-.14.16A1,1,0,0,1,350.36,304.24Zm-17.71,17.88c-2.36,1.61-4.87,3.17-7.45,4.61a1,1,0,0,1-1.35-.37,1.12,1.12,0,0,1,.52-1.41c2.52-1.4,5-2.92,7.27-4.49a1,1,0,0,1,1.39.22,1.08,1.08,0,0,1-.22,1.31Zm2.91-7.36-1.73-.89q-2.64-1.37-5.24-2.85a1,1,0,0,1-.26-1.39,1.09,1.09,0,0,1,1.42-.42c1.71,1,3.44,1.91,5.17,2.81l1.71.88a1,1,0,0,1,.34,1.37,1.71,1.71,0,0,1-.21.26A1.07,1.07,0,0,1,335.56,314.76Zm-18.12,15.89c-1.76.81-3.58,1.58-5.41,2.31l-2.57,1a.92.92,0,0,1-1.25-.59A1.16,1.16,0,0,1,309,332l2.52-1c1.79-.71,3.58-1.47,5.31-2.25a.93.93,0,0,1,1.3.48,1.11,1.11,0,0,1-.3,1.14A1,1,0,0,1,317.44,330.65Zm41.19-41.53a.91.91,0,0,1-.64-1.22,51.23,51.23,0,0,0,2-8,1.17,1.17,0,0,1,1.17-1A.9.9,0,0,1,362,280a52.35,52.35,0,0,1-2.05,8.39,1.22,1.22,0,0,1-.3.47A1.08,1.08,0,0,1,358.63,289.12Zm-57.29,47.53c-2.65.8-5.41,1.54-8.22,2.21a.89.89,0,0,1-1.14-.75,1.18,1.18,0,0,1,.89-1.25c2.76-.66,5.49-1.39,8.09-2.17a.9.9,0,0,1,1.19.68,1.12,1.12,0,0,1-.34,1A1.08,1.08,0,0,1,301.34,336.65Zm60.24-64a.89.89,0,0,1-1-.88,39.42,39.42,0,0,0-.92-7.87,1.16,1.16,0,0,1,.78-1.31.92.92,0,0,1,1.22.65,41.68,41.68,0,0,1,1,8.26,1.16,1.16,0,0,1-.36.83A1.12,1.12,0,0,1,361.58,272.64Zm-39.69,34.19a69.07,69.07,0,0,1-6.26-4.82,1,1,0,0,1,0-1.45,1.08,1.08,0,0,1,1.45-.17,69.23,69.23,0,0,0,6.1,4.7,1,1,0,0,1,.16,1.42.64.64,0,0,1-.13.15A1,1,0,0,1,321.89,306.83Zm-37,33.79c-2.64.5-5.42,1-8.28,1.39a.91.91,0,0,1-1.06-.87,1.19,1.19,0,0,1,1-1.17c2.83-.41,5.59-.88,8.2-1.37a.9.9,0,0,1,1.09.82,1.11,1.11,0,0,1-.35.89A1.09,1.09,0,0,1,284.86,340.62Zm73.57-83.69a1,1,0,0,1-1.36-.34,28,28,0,0,0-4.22-6.3,1,1,0,0,1,.13-1.43l0,0a1,1,0,0,1,1.43,0,29.93,29.93,0,0,1,4.48,6.7,1.12,1.12,0,0,1-.49,1.41Zm-90.14,86.15c-2.75.31-5.51.58-8.28.83a.89.89,0,0,1-1-.94,1.16,1.16,0,0,1,1-1.11q4.13-.36,8.23-.82a.89.89,0,0,1,1,.9,1.18,1.18,0,0,1-1,1.14Zm43.19-46.67a1,1,0,0,1-1.44,0,44.72,44.72,0,0,1-4.59-6.5,1.09,1.09,0,0,1,.38-1.43,1,1,0,0,1,1.4.21l.1.18a42.24,42.24,0,0,0,4.33,6.11,1,1,0,0,1-.14,1.41Zm-59.73,48.15c-2.75.19-5.51.37-8.26.54a.9.9,0,0,1-1-1A1.19,1.19,0,0,1,243.6,343q4.11-.24,8.23-.53a.89.89,0,0,1,1,.95,1.17,1.17,0,0,1-.35.77A1.12,1.12,0,0,1,251.75,344.56Zm95.27-99a27.88,27.88,0,0,0-7.1-2.83.93.93,0,0,1-.61-1.25,1.13,1.13,0,0,1,1.31-.75,29.58,29.58,0,0,1,7.56,3,1,1,0,0,1,.26,1.39,1.84,1.84,0,0,1-.17.22A1.06,1.06,0,0,1,347,245.57ZM303.51,283a.92.92,0,0,1-1.27-.55,37.64,37.64,0,0,1-1.5-8.15,1.16,1.16,0,0,1,.94-1.2.91.91,0,0,1,1.1.83,35.62,35.62,0,0,0,1.43,7.72,1.12,1.12,0,0,1-.32,1.1A1,1,0,0,1,303.51,283Zm-68.26,62.63-8.24.51a.89.89,0,0,1-1-1,1.18,1.18,0,0,1,1.07-1.1q4.13-.27,8.25-.51a.88.88,0,0,1,1,1,1.17,1.17,0,0,1-1.07,1.09ZM332.14,241.8a32.38,32.38,0,0,0-8,1,.9.9,0,0,1-1.16-.73,1.16,1.16,0,0,1,.86-1.26,34.2,34.2,0,0,1,8.49-1.09.9.9,0,0,1,.91,1,1.15,1.15,0,0,1-.35.7A1.11,1.11,0,0,1,332.14,241.8Zm-30.18,25a.9.9,0,0,1-.84-1.08,32.94,32.94,0,0,1,2.59-8.4,1.13,1.13,0,0,1,1.37-.62.94.94,0,0,1,.47,1.31,30.25,30.25,0,0,0-2.41,7.82,1.18,1.18,0,0,1-.34.64A1.11,1.11,0,0,1,302,266.84Zm-83.18,79.88c-2.74.22-5.49.47-8.23.76a.89.89,0,0,1-1-.91,1.16,1.16,0,0,1,1-1.13q4.14-.44,8.28-.77a.89.89,0,0,1,1,.94,1.09,1.09,0,0,1-.35.78A1.21,1.21,0,0,1,218.78,346.72Zm97.79-100.79a27.6,27.6,0,0,0-5.33,4c-.38.4-.76.76-1.12,1.17a1.06,1.06,0,0,1-1.45.15,1,1,0,0,1,0-1.45c.39-.43.81-.84,1.23-1.27a29.82,29.82,0,0,1,5.79-4.39.94.94,0,0,1,1.36.34,1.12,1.12,0,0,1-.49,1.41ZM202.33,348.47c-2.81.39-5.58.81-8.21,1.28a.91.91,0,0,1-1.09-.84,1.18,1.18,0,0,1,1-1.19c2.66-.47,5.45-.9,8.29-1.29a.91.91,0,0,1,1.05.88,1.2,1.2,0,0,1-.36.84A1.12,1.12,0,0,1,202.33,348.47Zm-16.39,2.9c-2.77.62-5.5,1.3-8.11,2a.91.91,0,0,1-1.18-.71,1.18,1.18,0,0,1,.84-1.27c2.65-.74,5.42-1.44,8.23-2.07a.91.91,0,0,1,1.13.78,1.14,1.14,0,0,1-.35.93A1.22,1.22,0,0,1,185.94,351.37Zm-16.13,4.55c-2.69.94-5.34,2-7.89,3.05a.93.93,0,0,1-1.28-.53,1.13,1.13,0,0,1,.67-1.35c2.59-1.11,5.29-2.15,8-3.1a.91.91,0,0,1,1.23.62,1.11,1.11,0,0,1-.33,1A1.21,1.21,0,0,1,169.81,355.92ZM112.2,405.68a.92.92,0,0,1-.55-1.27,67.29,67.29,0,0,1,3.8-7.91,1.08,1.08,0,0,1,1.4-.5,1,1,0,0,1,.35,1.36,66.45,66.45,0,0,0-3.66,7.63,1.25,1.25,0,0,1-.28.41A1.08,1.08,0,0,1,112.2,405.68Zm42.05-43.07c-2.5,1.32-5,2.76-7.38,4.3a1,1,0,0,1-1.38-.27,1.1,1.1,0,0,1,.43-1.43c2.45-1.57,5-3,7.55-4.4a.92.92,0,0,1,1.33.4,1.09,1.09,0,0,1-.27,1.2A2,2,0,0,1,154.25,362.61ZM120.37,390.5a1,1,0,0,1-.17-1.42c1.7-2.33,3.57-4.65,5.56-6.87a1,1,0,0,1,1.45-.17,1,1,0,0,1,0,1.45,81.36,81.36,0,0,0-5.4,6.68l-.14.16A1.05,1.05,0,0,1,120.37,390.5Zm19.48-18.66c-2.29,1.75-4.5,3.62-6.58,5.53a1,1,0,0,1-1.44,0,1,1,0,0,1,.15-1.45c2.13-2,4.4-3.87,6.75-5.68a1,1,0,0,1,1.42.14,1.06,1.06,0,0,1-.19,1.35A.52.52,0,0,1,139.85,371.84Z"></path><path class="cls-17" d="M109.78,417.78a1.12,1.12,0,0,0,.34-.64c.22-1.33.49-2.68.81-4a.9.9,0,0,0-.74-1.15,1.15,1.15,0,0,0-1.24.89c-.34,1.38-.62,2.79-.85,4.17a.9.9,0,0,0,.85,1.08A1.09,1.09,0,0,0,109.78,417.78Z"></path><path class="cls-18" d="M190.63,257.22s28.05,46.23-6.15,93.82C159,386.43,213.52,421.39,256,391c22.85-16.35,30.54,10.54,44.68.92,28-19.07,22.61-31.86,69.78-54.89,32-15.64,37.38-78.55,23.27-99.9-18-27.28-31,28.86-54.34-9.72-12-19.84-48.54,21.4-65.13,2.41S192.18,226.83,190.63,257.22Z"></path><path class="cls-18" d="M213.33,202s31.65-8.9,47.47-3.85,15.44,22.41,18.26,42.48,40,12.54,54.58,35.12,3.3,63.68-16.63,87.64c-38.1,45.79-102.26,17.26-101.56.44,2.43-57.88-26.66-87.2-27.73-103.37S179,229.65,213.33,202Z"></path><path class="cls-19" d="M224.07,219.15s20.15-6.3,28.5,3.9,13,11.73,15.48,11.17,13.91,27.06,2.18,40.08-15.2,12.94-12.78,23.62,12.86,18.67,15.88,20.57,51.12,12.4,5,44.76c-13.59,9.54-36.74,44.84-40.28,39.3-58.79-91.75-10.92-67.94-10.92-67.94s27-16.95,14.41-30.51-26.22-24.28-30.47-35.4-1.73-22.92-1.73-22.92S224,241.61,224.07,219.15Z"></path><path class="cls-19" d="M213.37,354.62s-49.56-85.56-60.18-107.56c-4.76-9.88,2.94-15.6,21.38,6.11s46.65,59.81,55.69,85.21S225,368.16,213.37,354.62Z"></path><path class="cls-19" d="M299.23,334.49s11.23-117.65,11.32-142.07c.05-11-9.37-12.82-16.65,14.72s-11.4,75.6-13.78,92.55C276.37,326.38,294.59,351.71,299.23,334.49Z"></path><path class="cls-19" d="M305.87,208.35s-7.92-.44-9.08-5.77c-3.21-14.81-7.77-37.84-6.63-58.85,1.84-34.3,4.11-57.68,4.11-57.68l5.55,1s9.43,82.86,9.82,97.27c.16,5.88.07,9.11-.64,12.27C308,201.15,310.64,196.08,305.87,208.35Z"></path><path class="cls-20" d="M247.15,440.21c15.73,2.77,89.68,8.05,110.46,10.5-9.39-28.49-39.34-111.59-64.51-132.78-15-12.61-22.74-14-22.74-14s24.85,14.31,10.59,26.35c-8.87,7.5-9.17,12.06-9.67,11.47-16.87-20.21-43.53-9.48-43.53-9.48s9.07,3.5,6.12,22.09c-2.76,17.39-17.94,9.65-17.94,9.65,6.94,19.15,20.36,36.43,24.54,45.7C246.49,423.05,247.4,431.36,247.15,440.21Z"></path><path class="cls-19" d="M304.15,80.44s1.59-7.63,4.44-10.3c2-1.87,12.81-9,12.81-9a15.28,15.28,0,0,1-5.71,7.52C309.35,72.86,304.15,80.44,304.15,80.44Z"></path><path class="cls-19" d="M309.52,73.38c.52-4.87,4.44-9,10.22-12.67,5.47-3.53,5.76-7.72,5.76-7.72s-3.78,1.89-11.7,8.25c-2.22,1.78-4.4,3.7-6.48,5.62C300.5,73.21,308.21,85.9,309.52,73.38Z"></path><path class="cls-19" d="M295.59,83.05c2.26-2.58,5.3-7.93,5.55-10.06.76-6.45.6-11.92.67-11.88,5.94,4.09,2.1,14.43,2.89,18.78S289.75,89.74,295.59,83.05Z"></path><path class="cls-19" d="M297,92.72c5.06-9.38,11.8-12,12.56-19.34a20.68,20.68,0,0,1,.53-2.36c.5-2.11.68-4.57,1-5.41s1.69-3.55.75-2.74c-8.41,7.25-17.1,16.19-18,18.71-1.07,3,.42,10.71,1.69,19C296.42,106.76,293.4,99.31,297,92.72Z"></path><path class="cls-19" d="M308.44,73.34s-2.63-.31-2.5-2.37c.2-3.39,3.35-9.48,4.56-11.59C311.86,57,320.08,47,320.08,47a15.33,15.33,0,0,1-3.24,8.88C312,61.77,308.44,73.34,308.44,73.34Z"></path><path class="cls-11" d="M248.28,255.54q5.81-1.32,11.51-2.29c1,7.32-4.06,14.41-11.82,16.17-7.6,1.72-15.08-2.28-17.48-9.05C236.21,258.55,242.15,256.92,248.28,255.54Z"></path><path class="cls-20" d="M218.86,313.5s19.89,20,19.87,40.6S236.37,410,212,363.46c-4.34-8.3-9.78-27.3-9.78-27.3S214.55,349.3,218.86,313.5Z"></path><path class="cls-20" d="M280.53,282.66s6.86,22.7,23.26,21.06c.6-.06,1,19.36-1.07,26.54s-23.65-14.21-24.45-22.84S280.53,282.66,280.53,282.66Z"></path><polygon class="cls-11" points="276.05 335.77 294.3 352.03 287.95 320.29 278.43 317.12 276.05 335.77"></polygon><path class="cls-18" d="M255.77,292.1s.14,18.66,16.74,26.15c30.8,13.9,10.86,25.24,18.29,27.1,13.73,3.44,32.49-16.1,14.47-26.92-24.95-15-19.34-22.57-23.59-33.69S263.28,275.72,255.77,292.1Z"></path><path class="cls-19" d="M166.29,253.39s4.05,2.58,1.58-5.95c-4.17-14.51-12-37.44-23.64-55.63-18.55-28.91-26.83-50.09-26.83-50.09l-8.17,3.08s31.32,79.18,38.1,91.9c4.39,8.22,6,10.34,11.27,14.61C161.48,253.65,164.89,257.06,166.29,253.39Z"></path><path class="cls-19" d="M82.28,127.55,79.94,117s4.07,2.6,4.91,6.41c.72,3.29,1.61,7.31,1.61,7.31Z"></path><path class="cls-19" d="M91.5,133.74l-3.17-6.49,3-6.07s2,.44,1.36,6.21c-.14,1.31,3.6,8.33,3.6,8.33Z"></path><path class="cls-19" d="M117.69,149.42a107.21,107.21,0,0,1-27.81-11.16c-14-8.17-12.17-11.58-14.86-15.88s-7-10-2-6.93,10,11.7,12.57,13.42,7,2.23,11.26,3.49,7.13,2.6,3.81-.56-4.43-4.21-5.18-5.66-2.11-3.59-.62-4.77,3.08,2.07,4.19,3.12,8.39,4.38,9.93,5.41,4.9,6.41,7.36,9.61,9.55,17.05,7,19.35C123.41,158.86,121.91,150.68,117.69,149.42Z"></path><polygon class="cls-11" points="237.96 322.67 276.05 335.77 272.87 362.35 231.61 331.4 237.96 322.67"></polygon><path class="cls-21" d="M176.16,68.84l-18,18c-7.56,7.86-9.39,18.48-4.16,23.63l16,15.94c5.21,5.13,11.68,6.49,27.59.77a122.39,122.39,0,0,0,25.1-12Z"></path><path class="cls-22" d="M176.12,68.88l18-18c7.83-7.58,18.44-9.46,23.61-4.24l16,15.93c5.15,5.19,6.53,11.66.87,27.59a121.66,121.66,0,0,1-11.89,25.14Z"></path><path class="cls-22" d="M207,99.59,124,136.52l-2.25-2.84L241.19,14.08l2.43,2.42Z"></path><path class="cls-21" d="M204.55,97.17l-83,36.93L158.23,51l83-36.93Z"></path><path class="cls-23" d="M243.73,61.48a1.7,1.7,0,0,1-2.2-.17L227.6,47.43,175.81,70.48a1.7,1.7,0,0,1-1.38-3.1l52.86-23.53a1.72,1.72,0,0,1,1.89.35l14.75,14.7a1.71,1.71,0,0,1,0,2.41Z"></path><path class="cls-24" d="M228.34,48a1.11,1.11,0,0,1-.3.17l-49.43,22a1.59,1.59,0,0,1-1.29-2.9l49.43-22a1.6,1.6,0,0,1,2.1.81A1.58,1.58,0,0,1,228.34,48Z"></path><path class="cls-22" d="M183.87,61.15c2.44,2.42,1.52,7.29-2,10.87S173.4,76.53,171,74.1s-1.52-7.3,2-10.87S181.44,58.72,183.87,61.15Z"></path><path class="cls-21" d="M181.86,61.37c1.84,1.84.39,6.27-3.23,9.9s-8,5.08-9.87,3.25-.4-6.25,3.22-9.88S180,59.54,181.86,61.37Z"></path><path class="cls-23" d="M242.88,53.26a5,5,0,1,1-7.07,0A5,5,0,0,1,242.88,53.26Z"></path><path class="cls-23" d="M248.23,61.8a2.72,2.72,0,0,1,0,3.86h0a2.72,2.72,0,0,1-3.86,0l-6.9-6.87a2.73,2.73,0,0,1,0-3.86h0a2.73,2.73,0,0,1,3.86,0Z"></path><path class="cls-23" d="M266.37,71.13c-2.84.17-6.19-2.47-15.13-9.68-2.23-1.64-5.28-1.75-7.08.06a.1.1,0,0,0,0,.05l-.05,0c-1.8,1.81-1.67,4.86,0,7.08,7.23,8.92,9.89,12.25,9.73,15.1,1.36,2.37,6.29,1.73,10.3-2.24l.05-.06,0,0C268.13,77.42,268.75,72.48,266.37,71.13Z"></path><path class="cls-24" d="M247.74,67.92a6.91,6.91,0,0,1-1.3-5L243.53,60a5.49,5.49,0,0,1-5-1.42,5.61,5.61,0,0,1-1.13-6.31,5.09,5.09,0,0,0-1.55,1,5,5,0,0,0,0,7.06,4.92,4.92,0,0,0,4.49,1.27l2.59,2.58a6.12,6.12,0,0,0,1.15,4.48c7.23,8.92,9.89,12.25,9.73,15.1.76,1.34,2.67,1.68,4.9,1C258.8,81.63,255.81,77.87,247.74,67.92Z"></path></svg> 