<?xml version="1.0" encoding="UTF-8"?> <!-- Generator: Adobe Illustrator 24.2.0, SVG Export Plug-In . SVG Version: 6.00 Build 0) --> <svg xmlns="http://www.w3.org/2000/svg" xmlns:xlink="http://www.w3.org/1999/xlink" version="1.1" id="Layer_1" x="0px" y="0px" viewBox="0 0 570 500" style="enable-background:new 0 0 570 500;" xml:space="preserve"> <style type="text/css"> .st0{fill:#D6EBBD;} .st1{fill:#5FAD6E;} .st2{fill:#59A43C;} .st3{fill:#FDB9C2;} .st4{fill:#1A81C4;} .st5{fill:#015245;} .st6{fill:#754C28;} .st7{fill:#AD5E28;} .st8{fill:#FFFFFF;} .st9{fill:#CDD5D7;} .st10{fill:#4F5D67;} .st11{fill:#EAF4FE;} .st12{fill:#DBE3E9;} .st13{fill:#BACCE6;} .st14{fill:#95CA59;} .st15{fill:#103754;} .st16{fill:#D1ECFB;} .st17{fill:#087262;} .st18{fill:#F68457;} .st19{fill:#D6634A;} </style> <g> <path class="st0" d="M564.39,337.46c31.05-97.8-70.01-217.15-225.71-266.57S13.56,56.7,0.55,158.48 c-6.13,47.94,38.56,185.66,176.08,273.85S533.36,435.26,564.39,337.46z"></path> <path class="st1" d="M238.15,220.16c0,0,4.98,6.18,11.9,6.98c2.52,0.28,7.14-1.68,7.51-4.73c0.38-3.05-2.56-5.89-6.21-6.31 C244.39,215.29,238.15,220.16,238.15,220.16z"></path> <path class="st1" d="M237.24,219.52c0,0,2.15-7.28-0.59-14.19c-0.98-2.5-4.59-6.08-6.95-5.15c-2.36,0.93-3.05,4.85-1.62,8.5 C230.76,215.58,237.24,219.52,237.24,219.52z"></path> <path class="st1" d="M428.13,367.09c-1.82,14.36-8.59,26.11-16.85,31.12c-6.77-6.91-10.37-19.98-8.59-34.34 c1.78-14.36,8.59-26.11,16.86-31.12C426.36,339.66,429.97,352.73,428.13,367.09z"></path> <path class="st2" d="M402.73,414.62l-0.83-0.64c6.31-8.07,11.03-20.52,14.04-37.01c1.93-10.72,2.96-21.58,3.08-32.47h1.07 c-0.12,10.95-1.16,21.88-3.1,32.66C413.93,393.8,409.14,406.42,402.73,414.62z"></path> <path class="st3" d="M505.52,347.83c0.35-0.53,1.07-0.68,1.61-0.33c0.53,0.35,0.68,1.07,0.33,1.61c-0.35,0.53-1.07,0.68-1.61,0.33 c0,0-0.01,0-0.01-0.01C505.31,349.07,505.17,348.36,505.52,347.83z"></path> <path class="st4" d="M464.67,249.01c0,0,17.28,6.99,30.26,26.74c12.99,19.76-3.65,29.9-39.26,70.19s-54.47,114.69-54.47,114.69 l-83.21-66.67c0,0,64.39-113.48,76.36-133.99S444.17,237.12,464.67,249.01z"></path> <path class="st5" d="M530.46,176.39c0.99-8.39,2.09-16.8,2.47-25.21c0.97-21.89-7.72-64.98-42.51-58.1 c-12.38,2.45-22.31,13.11-34.96,13.11c-15.23,0-26.35-10.73-41.71-2.28c-17.68,9.66-25.47,24.28-28.69,42 c-2.83,15.58,4.96,38.27-6.91,51.42c-5.58,6.16-14.61,8.79-21,14.25c-22.68,19.32,1.78,41.85,24.5,44.69 c13.95,1.72,28.19-1.18,41.97-4.42c6.76-1.6,13.67-3.29,20.55-2.74c18.85,1.56,31.12,14.12,50.44,5.37 c24.77-11.28,33.58-34.74,34.15-57.63C528.96,190.01,529.67,183.2,530.46,176.39z"></path> <path class="st6" d="M460.75,226.28c-2.36,5.66-1.52,12.16,2.21,17.03c6.32,8.59,19.25,14.22,3.22,23.61 c-20.39,11.92-38.01-7.51-38.01-7.51s13.89-8.27,9.24-20.07c-4.65-11.79-21.86-21.79-6.55-18.95 C446.17,223.22,462.24,217.45,460.75,226.28z"></path> <path class="st7" d="M481.91,176.95c1.24,0.89,2.54,1.76,3.88,2.64c19.69,12.77,11.8,27.14,3.22,45.59 c-12.73,27.28-53.37,18.52-53.38,18.52c-17.94-4.86-27.71-21.31-24.88-37.27c1.52-8.59,1.23-13.7,10.91-19.46 c12.04-7.16,34.05-15.55,37.56-28.64c0.46-1.71,0.35-5.85,3.35-6.14l0,0l0,0C465.89,162.92,472.57,170.29,481.91,176.95z"></path> <path class="st8" d="M450.87,210.38c-4.69,0.19-9.34,0.52-13.95,0.97c0,9.07,7.2,15.92,16.62,15.53 c9.32-0.54,17.12-7.27,19.03-16.41C465.58,210.14,458.32,210.08,450.87,210.38z"></path> <path class="st9" d="M99.6,236.54h287.81c5.86,0,10.61,4.75,10.61,10.61v196.96c0,5.86-4.75,10.61-10.61,10.61H99.6 c-5.86,0-10.61-4.75-10.61-10.61V247.15C88.99,241.29,93.74,236.54,99.6,236.54z"></path> <path class="st10" d="M99.6,237.54h287.82c5.31,0,9.62,4.31,9.62,9.62v196.97c0,5.31-4.31,9.62-9.62,9.62H99.6 c-5.31,0-9.62-4.31-9.62-9.62V247.15C89.98,241.84,94.29,237.54,99.6,237.54z"></path> <rect x="105.03" y="251.34" class="st11" width="276.93" height="176.76"></rect> <rect x="37.23" y="442.85" class="st12" width="412.54" height="12.07"></rect> <path class="st13" d="M37.83,454.97c4.88,5.15,13.85,7.18,20.04,7.18h371.32c6.19,0,15.16-2.03,20.04-7.18H37.83z"></path> <path class="st13" d="M215.48,442.85v1.3c0,2.37,1.92,4.29,4.29,4.29h47.43c2.37,0,4.29-1.92,4.29-4.29v-1.3H215.48z"></path> <path class="st4" d="M503.52,288.03c0,0-38.51,57.62-62.03,63.47c-23.52,5.85,2.15-26-6.3-27.25c-8.45-1.24,25.25-35.59,37.56-40.1 S495.87,274.56,503.52,288.03z"></path> <path class="st7" d="M424.83,355.64c0,0-11.73-62.44-11.74-69.31s-4.49-20.49,6.44-5.97c10.73,14.34,21.76,51.18,25.53,62.24 S428.96,360.83,424.83,355.64z"></path> <path class="st7" d="M422.89,296.87c-0.13-4.9-0.96-9.75-2.45-14.42c-2.5-8.04-13.5-12.06-15.95-16.03 c-2.45-3.97-17.17-16.95-18.89-18.24s-2.34,0.71,2.6,6.44s11.02,13.79,11.02,13.79l-11.71-7.51l-10.99-1.92 c0.3,2.35,1.93,4.31,4.17,5.05c2.11,0.84,4.3,1.48,6.54,1.9l9.73,7.62l-11.93-1.81l-13.08-3c0,0-0.4,6.19,10.53,7.15 c5.89,0.52,12.81,6.54,12.81,6.54l-9.14-0.2l-6.91-0.56c0,0-2.05,3.69,3.08,4.7c7.96,1.57,13.69,2.84,13.69,2.84 s9.66,8.75,17.17,9.77"></path> <path class="st1" d="M284.1,30.77h70.09c9.85,0,17.84,7.99,17.84,17.84v70.09c0,9.85-7.99,17.84-17.84,17.84H284.1 c-9.85,0-17.84-7.99-17.84-17.84V48.6C266.27,38.75,274.25,30.77,284.1,30.77z"></path> <polygon class="st1" points="349.08,154.69 349.08,127.61 319.23,127.61 "></polygon> <path class="st8" d="M302.1,70.58c3.93-3.94,10.31-3.95,14.25-0.02c0.01,0.01,0.01,0.01,0.02,0.02l2.37,2.34l2.34-2.34 c3.84-4.03,10.23-4.19,14.26-0.34s4.19,10.23,0.34,14.26c-0.11,0.11-0.22,0.22-0.33,0.33l-2.38,2.39l0,0l-14.27,14.26l-14.22-14.26 l0,0l-2.38-2.39C298.16,80.9,298.16,74.52,302.1,70.58C302.1,70.58,302.1,70.58,302.1,70.58z"></path> <path class="st5" d="M85.87,286.99c12.07,6.24,19.09,19.24,17.69,32.76c13.68-12.08,14.97-32.96,2.89-46.64 s-32.96-14.97-46.64-2.89c-6.19,5.47-10.11,13.05-10.98,21.26C59.07,282.49,73.78,280.7,85.87,286.99z"></path> <path class="st5" d="M103.9,270.48l-11.04,21.37c7.82,7.06,11.8,17.42,10.73,27.9c13.72-12.01,15.1-32.87,3.09-46.58 c-0.86-0.98-1.78-1.91-2.75-2.78L103.9,270.48z"></path> <path class="st14" d="M83.91,290.78c3.52,1.81,6.73,4.16,9.53,6.95c9.93-7.31,19.39-18.46,26.55-32.29 c11.36-21.98,13.82-44.83,7.89-59.72c-15.58,3.78-32.8,19-44.15,40.97c-7.16,13.83-10.73,28.01-11,40.34 C76.63,287.69,80.4,288.95,83.91,290.78z"></path> <path class="st1" d="M127.91,205.74l-0.15,0.05l-43.97,84.99h0.11c3.52,1.81,6.73,4.16,9.53,6.95 c9.93-7.31,19.39-18.46,26.55-32.29C131.34,243.48,133.8,220.63,127.91,205.74z"></path> <path class="st5" d="M117.11,226.55c4.56,2.36,8.95,4.82,13.15,7.37c1.48-10.73,0.67-20.5-2.39-28.18 c-8.04,1.95-16.49,6.95-24.37,14.35C108,222.04,112.54,224.19,117.11,226.55z"></path> <path class="st5" d="M127.72,205.78l-10.73,20.71l0.11,0.05c4.56,2.36,8.95,4.82,13.15,7.37c1.48-10.73,0.67-20.5-2.39-28.18 L127.72,205.78z"></path> <path class="st5" d="M97.86,263.85c-4.29,2.69-9.99,9.79-14.71,18.93c-4.72,9.14-7.23,17.88-6.93,22.96 c4.29-2.69,9.99-9.79,14.71-18.93C95.65,277.66,98.13,268.94,97.86,263.85z"></path> <path class="st15" d="M97.63,263.95l-21.46,41.5c0,0.08,0,0.17,0,0.25c4.29-2.69,9.99-9.79,14.71-18.93s7.23-17.87,6.93-22.96 L97.63,263.95z"></path> <path class="st5" d="M101.84,256.08c-5.63-2.91-7.83-9.83-4.92-15.46c2.91-5.63,9.83-7.83,15.46-4.92 c5.63,2.91,7.83,9.83,4.92,15.46c0,0,0,0.01,0,0.01C114.38,256.78,107.47,258.97,101.84,256.08z"></path> <path class="st8" d="M110.74,238.81c-3.91-2.02-8.72-0.5-10.75,3.42c-2.02,3.91-0.5,8.72,3.42,10.75s8.72,0.5,10.75-3.42 c0,0,0.01-0.01,0.01-0.01C116.17,245.63,114.64,240.84,110.74,238.81z"></path> <path class="st5" d="M112.38,235.7h-0.11l-1.61,3.11h0.11c3.88,2.09,5.33,6.93,3.24,10.8c-2.04,3.78-6.7,5.27-10.56,3.36l-0.1-0.06 l-1.61,3.11h0.1c5.63,2.91,12.55,0.7,15.46-4.93s0.7-12.55-4.93-15.46V235.7z"></path> <path class="st16" d="M114.2,249.55c2-3.91,0.47-8.7-3.42-10.73h-0.11l-7.31,14.14l0.1,0.06 C107.38,255.04,112.19,253.48,114.2,249.55z"></path> <path class="st17" d="M388.95,404.96l-15.02-8.59c-6.44-3.57-13.76-2.92-16.22,1.42l-7.65,13.25c-2.45,4.29-2.21,8.8,4.29,18.24 c3.52,5.24,7.64,10.06,12.26,14.36L388.95,404.96z"></path> <path class="st5" d="M388.92,404.95l15.02,8.59c6.34,3.8,9.44,10.43,6.92,14.73l-7.64,13.29c-2.5,4.29-6.5,6.33-17.94,5.37 c-6.3-0.42-12.53-1.55-18.57-3.38L388.92,404.95z"></path> <path class="st5" d="M374.18,430.57l-38.77-47.93l1.47-1.97l99.39,57.34l-1.16,2.02L374.18,430.57z"></path> <path class="st17" d="M375.34,428.56l-38.77-47.93l60.92,9.44l38.77,47.93L375.34,428.56z"></path> <path class="st18" d="M405.86,448.03c-0.52-0.29-0.7-0.95-0.41-1.46c0-0.01,0.01-0.01,0.01-0.02l6.68-11.61l-24.23-29.95 c-0.38-0.46-0.31-1.14,0.16-1.52c0.46-0.38,1.14-0.31,1.52,0.16l24.68,30.54c0.28,0.35,0.32,0.83,0.1,1.21l-7.05,12.26 c-0.29,0.51-0.95,0.69-1.46,0.4c0,0,0,0-0.01,0H405.86z"></path> <path class="st19" d="M411.91,435.57c-0.11-0.06-0.2-0.14-0.28-0.24l-23.11-28.56c-0.31-0.47-0.18-1.1,0.29-1.41 c0.41-0.27,0.95-0.21,1.29,0.14l23.11,28.56c0.36,0.42,0.31,1.06-0.11,1.42C412.76,435.77,412.28,435.8,411.91,435.57z"></path> <path class="st5" d="M395.35,408.68c-1.17,2.02-4.52,2.28-7.51,0.57c-2.99-1.71-4.43-4.74-3.27-6.76c1.16-2.02,4.52-2.29,7.51-0.57 C395.07,403.63,396.51,406.68,395.35,408.68z"></path> <path class="st5" d="M394.84,407.39c-0.88,1.53-4.04,1.36-7.05-0.38c-3.02-1.74-4.74-4.38-3.87-5.9s4.04-1.36,7.05,0.38 C393.98,403.22,395.72,405.86,394.84,407.39z"></path> <path class="st18" d="M410.87,445.99c-0.94,1.62-3.01,2.18-4.63,1.24s-2.18-3.01-1.24-4.63c0.94-1.62,3.01-2.18,4.63-1.24 C411.24,442.29,411.8,444.36,410.87,445.99C410.87,445.99,410.87,445.99,410.87,445.99z"></path> <path class="st18" d="M406.22,451c-0.51,0.88-1.65,1.19-2.53,0.68l0,0c-0.89-0.51-1.2-1.64-0.69-2.53l3.29-5.73 c0.51-0.88,1.65-1.19,2.53-0.68l0,0c0.89,0.51,1.2,1.64,0.69,2.53L406.22,451z"></path> <path class="st18" d="M403.28,464.53c-0.61-1.85,0.53-4.5,3.68-11.62c0.77-1.65,0.24-3.61-1.27-4.64l0,0l0,0 c-1.64-0.78-3.61-0.27-4.65,1.22c-4.58,6.31-6.3,8.64-8.2,9.04c-1.31,1.31,0,4.43,3.28,6.36l0,0l0,0 C399.43,466.78,402.81,466.33,403.28,464.53z"></path> <path class="st19" d="M402.11,451.75c0.76-0.95,1.87-1.57,3.08-1.73l1.4-2.43c-0.59-1.12-0.57-2.45,0.05-3.55 c0.79-1.38,2.36-2.12,3.93-1.85c-0.26-0.33-0.58-0.62-0.94-0.84c-1.62-0.93-3.69-0.37-4.63,1.24c-0.55,0.98-0.57,2.17-0.05,3.17 l-1.23,2.15c-1.08,0.13-2.06,0.68-2.74,1.53c-4.58,6.31-6.3,8.64-8.2,9.04c-0.74,0.73-0.63,2.04,0.17,3.39 C395.06,461.41,397,458.78,402.11,451.75z"></path> <path class="st18" d="M214.31,297.03c-41.31-0.05-74.79-33.52-74.83-74.83v-31.95c0.01-5.64,4.58-10.21,10.22-10.22h20.39 c5.64,0.01,10.21,4.58,10.22,10.22v4.63c0.05,2.61,2.2,4.7,4.81,4.68h45.4v95.78l-2.25,0.42 C223.66,296.62,218.99,297.04,214.31,297.03z M149.66,185.6c-2.57,0-4.66,2.09-4.66,4.66v31.95c0.05,38.24,31.04,69.23,69.28,69.27 c3.56,0,7.12-0.28,10.65-0.83v-85.59h-39.83c-5.67,0.04-10.3-4.53-10.35-10.2v-4.63c0-2.57-2.09-4.66-4.66-4.66L149.66,185.6z"></path> <path class="st18" d="M282.07,297.03c-4.68,0-9.35-0.44-13.95-1.32l-2.26-0.42v-95.74h45.4c2.59,0.01,4.72-2.05,4.8-4.64v-4.63 c0.01-5.64,4.57-10.2,10.21-10.22h20.44c5.64,0.01,10.21,4.58,10.22,10.22v31.95C356.85,263.54,323.37,296.99,282.07,297.03z M271.43,290.65c37.79,5.89,73.2-19.97,79.09-57.76c0.55-3.54,0.83-7.11,0.83-10.69v-31.95c0-2.57-2.09-4.66-4.66-4.66h-20.42 c-2.57,0-4.65,2.08-4.65,4.65c0,0,0,0.01,0,0.01v4.63c-0.05,5.67-4.68,10.23-10.36,10.2h-39.84L271.43,290.65z"></path> <rect x="240.32" y="309.45" class="st18" width="15.75" height="95.43"></rect> <rect x="240.32" y="326.74" class="st19" width="15.75" height="8.95"></rect> <rect x="237.58" y="307.38" class="st19" width="21.23" height="24.22"></rect> <rect x="237.58" y="325.9" class="st18" width="21.23" height="5.69"></rect> <path class="st18" d="M283.85,414.19c-7.23-0.01-13.16-5.74-13.4-12.97h-44.52c-0.24,7.23-6.18,12.97-13.41,12.97h-13.44v13.84 h98.21v-13.84H283.85z"></path> <path class="st18" d="M200.48,211.24v76.79c0,18.98,15.37,34.37,34.34,34.4h26.64c18.97,0,34.34-15.38,34.34-34.34 c0-0.02,0-0.04,0-0.05v-76.79H200.48z"></path> <rect x="193.06" y="197.34" class="st18" width="110.25" height="14.82"></rect> <polygon class="st19" points="248.19,231.53 254.48,244.27 268.54,246.32 258.37,256.24 260.77,270.26 248.19,263.64 235.6,270.26 238.01,256.24 227.83,246.32 241.9,244.27 "></polygon> <rect x="200.48" y="211.24" class="st19" width="95.43" height="7.1"></rect> <polygon class="st19" points="205.35,416.46 205.35,428.04 245.41,428.04 250.97,428.04 297.29,428.04 297.29,416.46 "></polygon> </g> </svg> 