<?xml version="1.0" encoding="UTF-8"?> <svg xmlns="http://www.w3.org/2000/svg" viewBox="0 0 570 500"><defs><style>.cls-1{isolation:isolate;}.cls-2{fill:#c5ecfb;}.cls-3{fill:#2e2e2e;}.cls-4{fill:#ffa52e;}.cls-5{fill:#dbe3e9;}.cls-6,.cls-9{fill:#eef2f5;}.cls-6,.cls-7{mix-blend-mode:multiply;}.cls-8{fill:#24aee4;opacity:0.1;}.cls-10{fill:#01c3a2;}.cls-11{fill:#ffc639;}.cls-12{fill:#3bafe2;}.cls-13{fill:#ea526f;}.cls-14{fill:#b393e5;}.cls-15{fill:#3595bf;}</style></defs><g class="cls-1"><g id="Layer_1" data-name="Layer 1"><path class="cls-2" d="M519.19,186.4,373.48,31.62A84,84,0,0,0,271.08,16L115.2,104a84,84,0,0,0-40.61,54.38L33.5,337.58a84,84,0,0,0,45.89,94.65L194.3,486.7a83.94,83.94,0,0,0,77.26-2.76L492.83,359a84,84,0,0,0,41.7-60.23l6.5-41.9A84,84,0,0,0,519.19,186.4Z"></path><path class="cls-3" d="M471.24,357V132.83a10.57,10.57,0,0,0-10.56-10.55h-364a10.56,10.56,0,0,0-10.55,10.55V357Z"></path><rect class="cls-4" x="104.04" y="140.36" width="349.3" height="196.7"></rect><path class="cls-5" d="M85.39,357.4v32.41a11.3,11.3,0,0,0,11.3,11.3h364a11.3,11.3,0,0,0,11.3-11.3V357.4Z"></path><path class="cls-5" d="M345.28,448.86s-2.8-1.39-6-2.6c-3.44-1.29-7.57-2.91-10-4.08-4.26-2-4.62-3.39-6.22-10.36-1.74-7.62-3.37-23.7-4-30.71H238.38c-.66,7-2.29,23.09-4,30.71-1.6,7-1.95,8.32-6.22,10.36-2.4,1.16-6.47,2.75-9.88,4h0c-3.27,1.24-5.94,2.19-5.94,2.19s-2.59,1.44,1.57,1.64H343.52C347.42,450.12,345.28,448.86,345.28,448.86Z"></path><path class="cls-6" d="M319.86,409.58c-.36-3.34-.65-6.33-.85-8.47H238.37c-.2,2.14-.49,5.13-.85,8.47Z"></path><g class="cls-7"><polygon class="cls-8" points="221.08 213.72 221.08 170.26 221.08 132.87 198.57 132.87 135.8 132.87 135.8 149 135.8 170.26 135.8 213.72 221.08 213.72"></polygon></g><polygon class="cls-9" points="218.3 213.72 218.3 157.34 218.3 129.07 197.71 108.82 140.28 108.82 140.28 129.74 140.28 157.34 140.28 213.72 218.3 213.72"></polygon><polygon class="cls-5" points="197.71 129.07 218.3 129.07 197.71 108.82 197.71 129.07"></polygon><polygon class="cls-8" points="218.3 129.07 197.71 129.07 218.3 149.32 218.3 129.07"></polygon><rect class="cls-5" x="155.05" y="156.13" width="48.47" height="1.92"></rect><rect class="cls-5" x="155.05" y="162.16" width="48.47" height="1.92"></rect><rect class="cls-5" x="155.05" y="168.18" width="48.47" height="1.92"></rect><rect class="cls-5" x="155.05" y="174.2" width="48.47" height="1.92"></rect><rect class="cls-5" x="155.05" y="180.22" width="48.47" height="1.92"></rect><rect class="cls-5" x="155.05" y="186.25" width="48.47" height="1.92"></rect><rect class="cls-5" x="155.05" y="192.27" width="48.47" height="1.92"></rect><rect class="cls-10" x="148.12" y="120.37" width="23.87" height="5.48"></rect><g class="cls-7"><polygon class="cls-8" points="320.09 213.72 320.09 170.26 320.09 132.87 297.59 132.87 234.81 132.87 234.81 149 234.81 170.26 234.81 213.72 320.09 213.72"></polygon></g><polygon class="cls-9" points="317.31 213.72 317.31 157.34 317.31 129.07 296.73 108.82 239.3 108.82 239.3 129.74 239.3 157.34 239.3 213.72 317.31 213.72"></polygon><polygon class="cls-5" points="296.73 129.07 317.31 129.07 296.73 108.82 296.73 129.07"></polygon><polygon class="cls-8" points="317.31 129.07 296.73 129.07 317.31 149.32 317.31 129.07"></polygon><rect class="cls-5" x="254.07" y="156.13" width="48.47" height="1.92"></rect><rect class="cls-5" x="254.07" y="162.16" width="48.47" height="1.92"></rect><rect class="cls-5" x="254.07" y="168.18" width="48.47" height="1.92"></rect><rect class="cls-5" x="254.07" y="174.2" width="48.47" height="1.92"></rect><rect class="cls-5" x="254.07" y="180.22" width="48.47" height="1.92"></rect><rect class="cls-5" x="254.07" y="186.25" width="48.47" height="1.92"></rect><rect class="cls-5" x="254.07" y="192.27" width="48.47" height="1.92"></rect><rect class="cls-10" x="247.14" y="120.37" width="23.87" height="5.48"></rect><g class="cls-7"><polygon class="cls-8" points="419.11 213.72 419.11 170.26 419.11 132.87 396.61 132.87 333.83 132.87 333.83 149 333.83 170.26 333.83 213.72 419.11 213.72"></polygon></g><polygon class="cls-9" points="416.33 213.72 416.33 157.34 416.33 129.07 395.75 108.82 338.31 108.82 338.31 129.74 338.31 157.34 338.31 213.72 416.33 213.72"></polygon><polygon class="cls-5" points="395.75 129.07 416.33 129.07 395.75 108.82 395.75 129.07"></polygon><polygon class="cls-8" points="416.33 129.07 395.75 129.07 416.33 149.32 416.33 129.07"></polygon><rect class="cls-5" x="353.09" y="156.13" width="48.47" height="1.92"></rect><rect class="cls-5" x="353.09" y="162.16" width="48.47" height="1.92"></rect><rect class="cls-5" x="353.09" y="168.18" width="48.47" height="1.92"></rect><rect class="cls-5" x="353.09" y="174.2" width="48.47" height="1.92"></rect><rect class="cls-5" x="353.09" y="180.22" width="48.47" height="1.92"></rect><rect class="cls-5" x="353.09" y="186.25" width="48.47" height="1.92"></rect><rect class="cls-5" x="353.09" y="192.27" width="48.47" height="1.92"></rect><rect class="cls-10" x="346.16" y="120.37" width="23.87" height="5.48"></rect><g class="cls-7"><polygon class="cls-8" points="221.08 336.41 221.08 292.96 221.08 255.56 198.57 255.56 135.8 255.56 135.8 271.69 135.8 292.96 135.8 336.41 221.08 336.41"></polygon></g><polygon class="cls-9" points="218.3 336.41 218.3 280.03 218.3 251.76 197.71 231.51 140.28 231.51 140.28 252.44 140.28 280.03 140.28 336.41 218.3 336.41"></polygon><polygon class="cls-5" points="197.71 251.76 218.3 251.76 197.71 231.51 197.71 251.76"></polygon><polygon class="cls-8" points="218.3 251.76 197.71 251.76 218.3 272.02 218.3 251.76"></polygon><rect class="cls-5" x="155.05" y="278.83" width="48.47" height="1.92"></rect><rect class="cls-5" x="155.05" y="284.85" width="48.47" height="1.92"></rect><rect class="cls-5" x="155.05" y="290.87" width="48.47" height="1.92"></rect><rect class="cls-5" x="155.05" y="296.9" width="48.47" height="1.92"></rect><rect class="cls-5" x="155.05" y="302.92" width="48.47" height="1.92"></rect><rect class="cls-5" x="155.05" y="308.94" width="48.47" height="1.92"></rect><rect class="cls-5" x="155.05" y="314.97" width="48.47" height="1.92"></rect><rect class="cls-10" x="148.12" y="243.06" width="23.87" height="5.48"></rect><g class="cls-7"><polygon class="cls-8" points="320.09 336.41 320.09 292.96 320.09 255.56 297.59 255.56 234.81 255.56 234.81 271.69 234.81 292.96 234.81 336.41 320.09 336.41"></polygon></g><polygon class="cls-9" points="317.31 336.41 317.31 280.03 317.31 251.76 296.73 231.51 239.3 231.51 239.3 252.44 239.3 280.03 239.3 336.41 317.31 336.41"></polygon><polygon class="cls-5" points="296.73 251.76 317.31 251.76 296.73 231.51 296.73 251.76"></polygon><polygon class="cls-8" points="317.31 251.76 296.73 251.76 317.31 272.02 317.31 251.76"></polygon><rect class="cls-5" x="254.07" y="278.83" width="48.47" height="1.92"></rect><rect class="cls-5" x="254.07" y="284.85" width="48.47" height="1.92"></rect><rect class="cls-5" x="254.07" y="290.87" width="48.47" height="1.92"></rect><rect class="cls-5" x="254.07" y="296.9" width="48.47" height="1.92"></rect><rect class="cls-5" x="254.07" y="302.92" width="48.47" height="1.92"></rect><rect class="cls-5" x="254.07" y="308.94" width="48.47" height="1.92"></rect><rect class="cls-5" x="254.07" y="314.97" width="48.47" height="1.92"></rect><rect class="cls-10" x="247.14" y="243.06" width="23.87" height="5.48"></rect><g class="cls-7"><polygon class="cls-8" points="419.11 336.41 419.11 292.96 419.11 255.56 396.61 255.56 333.83 255.56 333.83 271.69 333.83 292.96 333.83 336.41 419.11 336.41"></polygon></g><polygon class="cls-9" points="416.33 336.41 416.33 280.03 416.33 251.76 395.75 231.51 338.31 231.51 338.31 252.44 338.31 280.03 338.31 336.41 416.33 336.41"></polygon><polygon class="cls-5" points="395.75 251.76 416.33 251.76 395.75 231.51 395.75 251.76"></polygon><polygon class="cls-8" points="416.33 251.76 395.75 251.76 416.33 272.02 416.33 251.76"></polygon><rect class="cls-5" x="353.09" y="278.83" width="48.47" height="1.92"></rect><rect class="cls-5" x="353.09" y="284.85" width="48.47" height="1.92"></rect><rect class="cls-5" x="353.09" y="290.87" width="48.47" height="1.92"></rect><rect class="cls-5" x="353.09" y="296.9" width="48.47" height="1.92"></rect><rect class="cls-5" x="353.09" y="302.92" width="48.47" height="1.92"></rect><rect class="cls-5" x="353.09" y="308.94" width="48.47" height="1.92"></rect><rect class="cls-5" x="353.09" y="314.97" width="48.47" height="1.92"></rect><rect class="cls-10" x="346.16" y="243.06" width="23.87" height="5.48"></rect><path class="cls-10" d="M195.32,396.59a79.53,79.53,0,1,0-79.53,79.52A79.53,79.53,0,0,0,195.32,396.59Z"></path><path class="cls-11" d="M76,439v0a7.54,7.54,0,0,0,10.63,0l22.92-23a7.51,7.51,0,0,0,0-10.62h0a7.51,7.51,0,0,0-10.63,0L76,428.35A7.52,7.52,0,0,0,76,439Z"></path><path class="cls-3" d="M112.71,402h0a29.32,29.32,0,1,0-8.61-20.7,29.23,29.23,0,0,0,8.61,20.7Z"></path><path class="cls-10" d="M148.92,365.81A21.85,21.85,0,1,1,118,396.7h0a21.85,21.85,0,1,1,30.9-30.89Z"></path><path class="cls-3" d="M106.57,408.39a3.76,3.76,0,0,0,5.32,0l4.68-4.83a3.76,3.76,0,0,0,0-5.31h0a3.77,3.77,0,0,0-5.32,0l-4.68,4.83a3.78,3.78,0,0,0,0,5.32Z"></path><path class="cls-12" d="M514.42,231.27v27.14h-9.51v-3.68a8.08,8.08,0,0,1-3.42,3,11.09,11.09,0,0,1-4.92,1.09,11.17,11.17,0,0,1-10.45-6.6,16.89,16.89,0,0,1-1.52-7.34,17.32,17.32,0,0,1,1.55-7.49,12.22,12.22,0,0,1,4.28-5.07,10.81,10.81,0,0,1,6.14-1.82,10.55,10.55,0,0,1,4.89,1.15,8.82,8.82,0,0,1,3.45,3.07v-3.47Zm-10.9,18.6a8.11,8.11,0,0,0,1.39-5.08,8.32,8.32,0,0,0-1.39-5.16,5.21,5.21,0,0,0-7.91.06,8.26,8.26,0,0,0-1.44,5.21,7.87,7.87,0,0,0,1.38,5,4.84,4.84,0,0,0,4,1.74A4.77,4.77,0,0,0,503.52,249.87Z"></path><path class="cls-13" d="M304.46,381.78H323a28.79,28.79,0,0,1,13,2.71,19.19,19.19,0,0,1,8.35,7.81,24,24,0,0,1,2.9,12.11,24.55,24.55,0,0,1-2.87,12.21,18.88,18.88,0,0,1-8.32,7.85,29.07,29.07,0,0,1-13,2.7H304.46Zm17.73,35.83q6.63,0,9.91-3.28t3.28-9.92q0-13.07-13.19-13.07h-5.74v26.27Z"></path><path class="cls-13" d="M388.94,379.74v46.92H377.59v-4.39a9.47,9.47,0,0,1-4.08,3.6,13.89,13.89,0,0,1-13.26-.83,14.18,14.18,0,0,1-5.07-6,20.72,20.72,0,0,1-1.82-8.9,20.32,20.32,0,0,1,1.82-8.8,13.78,13.78,0,0,1,5.07-5.89,13.49,13.49,0,0,1,7.4-2.08,12.56,12.56,0,0,1,5.64,1.28,10.78,10.78,0,0,1,4.11,3.44V379.74Zm-13,36.69a9.82,9.82,0,0,0,1.66-6.15,9.51,9.51,0,0,0-1.69-6,5.64,5.64,0,0,0-4.68-2.13,5.78,5.78,0,0,0-4.79,2.07,9.38,9.38,0,0,0-1.65,6,10,10,0,0,0,1.69,6.22,5.65,5.65,0,0,0,4.75,2.2A5.59,5.59,0,0,0,375.93,416.43Z"></path><path class="cls-14" d="M31.87,150.39V107h31v8.77H43V124H61.54v8.77H43v8.89h19.8v8.77Z"></path><polygon class="cls-13" points="441.47 299.22 449.53 304.88 458.24 299.86 466.83 306.84 474.45 298.63 484.51 306.1 492.46 299.41 503.32 305.01 501.2 309.12 493.08 304.93 484.69 311.99 475.02 304.82 467.27 313.16 457.79 305.45 449.29 310.36 441.81 305.11 436.91 309.5 433.82 306.05 441.47 299.22"></polygon><path class="cls-15" d="M49,279.45a21,21,0,1,1,21-21A21.07,21.07,0,0,1,49,279.45Zm0-36.4a15.37,15.37,0,1,0,15.36,15.36A15.39,15.39,0,0,0,49,243.05Z"></path><path class="cls-11" d="M61,196.43c-4.33-.1-6.53-2.48-8.29-4.39-1.62-1.76-2.8-3-5.4-3.09l.1-4.07c4.33.1,6.53,2.48,8.29,4.39,1.62,1.76,2.79,3,5.39,3.09s3.83-1.15,5.54-2.83,4.16-4.1,8.49-4,6.52,2.48,8.29,4.39c1.62,1.76,2.79,3,5.39,3.09s3.84-1.15,5.54-2.83c1.85-1.82,4.16-4.1,8.49-4s6.53,2.48,8.3,4.39c1.62,1.76,2.79,3,5.4,3.09l-.1,4.07c-4.33-.1-6.53-2.48-8.3-4.39s-2.79-3-5.4-3.09-3.83,1.15-5.53,2.83c-1.86,1.82-4.17,4.1-8.49,4s-6.53-2.48-8.3-4.39c-1.62-1.76-2.79-3-5.39-3.09s-3.83,1.15-5.53,2.83C67.62,194.26,65.31,196.54,61,196.43Z"></path><rect class="cls-10" x="458.23" y="112.39" width="27.53" height="27.53"></rect><polygon class="cls-2" points="454.68 335.18 458.17 356.93 537.43 384.53 454.68 335.18"></polygon><path class="cls-15" d="M457.75,355.66c.42,1.27-12,23.47-12,23.47L460,363.05l76.88,21.31Z"></path><polygon class="cls-12" points="478.26 385.73 445.76 379.13 460.04 363.05 495.96 384.51 478.26 385.73"></polygon><path class="cls-2" d="M460,363.05c.35.36-3.28,24.22-3.28,24.22l80.67-2.74Z"></path><path class="cls-13" d="M439.24,363.51a1.09,1.09,0,0,0,1.16-.8,1,1,0,0,0-.87-1.17c-1.44-.26-2.88-.55-4.3-.87a1.14,1.14,0,0,0-1.35.73,1,1,0,0,0,.82,1.21c1.45.32,2.92.61,4.39.88Z"></path><path class="cls-13" d="M426,360.28c-2.83-.88-5.67-1.88-8.44-3A1,1,0,0,1,417,356a1.16,1.16,0,0,1,1.47-.5c2.72,1.09,5.5,2.07,8.27,2.93a1,1,0,0,1,.68,1.27,1.13,1.13,0,0,1-1.12.67A1.5,1.5,0,0,1,426,360.28Zm-16.58-6.61c-2.63-1.29-5.24-2.7-7.77-4.18a.93.93,0,0,1-.32-1.38,1.18,1.18,0,0,1,1.54-.28c2.48,1.45,5,2.83,7.63,4.1a1,1,0,0,1,.44,1.35,1.15,1.15,0,0,1-1.05.51A1.31,1.31,0,0,1,409.41,353.67Zm-15.17-8.88c-2.38-1.63-4.73-3.37-7-5.17a.92.92,0,0,1-.09-1.4,1.2,1.2,0,0,1,1.57-.08c2.22,1.76,4.53,3.47,6.87,5.07a.93.93,0,0,1,.2,1.4,1.18,1.18,0,0,1-.95.39A1.21,1.21,0,0,1,394.24,344.79ZM380.69,334c-2.11-1.93-4.17-3.94-6.12-6a.92.92,0,0,1,.13-1.4,1.21,1.21,0,0,1,1.57.11c1.91,2,3.93,4,6,5.89a.93.93,0,0,1,0,1.41,1.2,1.2,0,0,1-.85.28A1.22,1.22,0,0,1,380.69,334Zm-11.77-12.32c-1.77-2.13-3.51-4.37-5.18-6.64a.94.94,0,0,1,.32-1.38,1.2,1.2,0,0,1,1.54.29c1.65,2.24,3.37,4.44,5.11,6.54a.92.92,0,0,1-.23,1.39,1.13,1.13,0,0,1-.73.19A1.15,1.15,0,0,1,368.92,321.71ZM359,308.16c-1.48-2.29-2.92-4.69-4.29-7.12a1,1,0,0,1,.49-1.34,1.17,1.17,0,0,1,1.49.45c1.36,2.4,2.78,4.76,4.24,7a.94.94,0,0,1-.41,1.35,1.19,1.19,0,0,1-1.52-.37Zm-8.15-14.43c-1.2-2.42-2.36-4.93-3.46-7.47A1,1,0,0,1,348,285a1.16,1.16,0,0,1,1.44.57c1.09,2.51,2.24,5,3.41,7.39a1,1,0,0,1-.56,1.31,1.37,1.37,0,0,1-.53.08A1.1,1.1,0,0,1,350.86,293.73Zm-6.51-15.08c-1-2.52-1.85-5.12-2.69-7.71a1,1,0,0,1,.76-1.23,1.14,1.14,0,0,1,1.38.68c.83,2.57,1.72,5.14,2.66,7.63a1,1,0,0,1-.71,1.26,1.21,1.21,0,0,1-.42.05A1.09,1.09,0,0,1,344.35,278.65Zm-3.72-11a1,1,0,0,1-.94-1.13,1.1,1.1,0,0,1,1.26-.84c1.92.25,3.85.44,5.74.55,1.05.05,2.05.1,3.07.12a1,1,0,1,1,0,2c-1,0-2.07-.06-3.11-.12C344.62,268.1,342.62,268,340.63,267.68Zm17-.58a1,1,0,0,1,1-1.11c2-.22,4-.53,5.89-.93.91-.18,1.82-.4,2.72-.63a1.14,1.14,0,0,1,1.39.67,1,1,0,0,1-.76,1.24c-.94.24-1.89.47-2.85.66-2,.41-4.06.74-6.12,1h-.21A1.07,1.07,0,0,1,357.6,267.1ZM331.7,266c-2.86-.67-5.78-1.5-8.66-2.47a1,1,0,0,1-.66-1.28,1.15,1.15,0,0,1,1.43-.58c2.82.94,5.66,1.75,8.46,2.41a1,1,0,0,1,.79,1.21,1.08,1.08,0,0,1-1.14.74A.78.78,0,0,1,331.7,266Zm7.64-2.89c-.18-.65-.35-1.29-.52-1.93-.52-2-1-4-1.45-6a1,1,0,0,1,.88-1.17,1.13,1.13,0,0,1,1.31.79c.43,2,.91,3.94,1.43,5.88.16.64.33,1.28.51,1.91a1,1,0,0,1-.82,1.21,1.22,1.22,0,0,1-.33,0A1.08,1.08,0,0,1,339.34,263.14Zm-24.67-2.75c-1.83-.78-3.68-1.63-5.49-2.52-.85-.42-1.69-.84-2.53-1.28a.94.94,0,0,1-.41-1.36,1.2,1.2,0,0,1,1.52-.36c.82.43,1.65.84,2.49,1.25,1.77.87,3.59,1.7,5.38,2.47a1,1,0,0,1,.53,1.33,1.13,1.13,0,0,1-1.08.56A1.16,1.16,0,0,1,314.67,260.39Zm60.18,2.51a1,1,0,0,1,.5-1.34,53,53,0,0,0,7.5-4.08,1.21,1.21,0,0,1,1.56.21.92.92,0,0,1-.24,1.39,54,54,0,0,1-7.82,4.26,1.26,1.26,0,0,1-.57.11A1.19,1.19,0,0,1,374.85,262.9ZM299,252.3c-2.43-1.46-4.91-3-7.36-4.71a.94.94,0,0,1-.22-1.4,1.21,1.21,0,0,1,1.56-.19c2.42,1.65,4.86,3.21,7.26,4.65a.92.92,0,0,1,.3,1.38,1.16,1.16,0,0,1-1,.44A1.22,1.22,0,0,1,299,252.3Zm90.52,1.41a.92.92,0,0,1,0-1.41,40.66,40.66,0,0,0,5.37-6.17,1.21,1.21,0,0,1,1.54-.31,1,1,0,0,1,.35,1.38,43.08,43.08,0,0,1-5.64,6.47,1.22,1.22,0,0,1-.89.31A1.26,1.26,0,0,1,389.48,253.71Zm-53.54-6.47a68.94,68.94,0,0,1-.64-8.11,1,1,0,0,1,1.09-1,1.09,1.09,0,0,1,1.13,1,70.17,70.17,0,0,0,.63,7.91,1,1,0,0,1-1,1.11H337A1.06,1.06,0,0,1,335.94,247.24Zm-51.4-4.72c-2.2-1.66-4.49-3.45-6.78-5.34a.92.92,0,0,1-.07-1.4,1.2,1.2,0,0,1,1.57-.06c2.28,1.86,4.54,3.64,6.72,5.28a.93.93,0,0,1,.13,1.41,1.18,1.18,0,0,1-.92.35A1.2,1.2,0,0,1,284.54,242.52ZM399.3,240.4a1,1,0,0,1-.68-1.27,29.17,29.17,0,0,0,1.9-7.58,1.07,1.07,0,0,1,1.18-.89h0a1,1,0,0,1,1,1.09,30.86,30.86,0,0,1-2,8.05,1.11,1.11,0,0,1-1.12.66A1.07,1.07,0,0,1,399.3,240.4Zm-128.09-8.77q-3.21-2.82-6.35-5.73a.91.91,0,0,1,0-1.4,1.21,1.21,0,0,1,1.58,0q3.12,2.88,6.31,5.69a.91.91,0,0,1,0,1.4,1.18,1.18,0,0,1-.87.3A1.23,1.23,0,0,1,271.21,231.63Zm65.49.46a1,1,0,0,1-1-1.11,46.61,46.61,0,0,1,1.79-8,1.13,1.13,0,0,1,1.36-.71,1,1,0,0,1,.8,1.22s-.06.19-.07.2a44.35,44.35,0,0,0-1.67,7.53,1.07,1.07,0,0,1-1.17.87Zm-78.05-12q-3.09-2.94-6.12-5.91a.93.93,0,0,1,.06-1.41,1.21,1.21,0,0,1,1.58.07q3,3,6.1,5.89a.91.91,0,0,1,0,1.4,1.16,1.16,0,0,1-.83.27A1.18,1.18,0,0,1,258.65,220.07Zm141.43,3.77a28.42,28.42,0,0,0-2.73-7.36,1,1,0,0,1,.52-1.33,1.19,1.19,0,0,1,1.49.47,30.59,30.59,0,0,1,2.91,7.85,1,1,0,0,1-.88,1.16,1.42,1.42,0,0,1-.29,0A1.08,1.08,0,0,1,400.08,223.84Zm-58.62-7.14a1,1,0,0,1-.45-1.35,39,39,0,0,1,5.17-6.8,1.2,1.2,0,0,1,1.57-.11.92.92,0,0,1,.13,1.4,37.61,37.61,0,0,0-4.91,6.45,1.12,1.12,0,0,1-1.05.52A1.47,1.47,0,0,1,341.46,216.7Zm-95-8.47q-3-3-6.09-5.91a.92.92,0,0,1,.06-1.4A1.23,1.23,0,0,1,242,201q3.06,3,6.09,5.92a.92.92,0,0,1-.06,1.4,1.2,1.2,0,0,1-.83.26A1.15,1.15,0,0,1,246.45,208.23Zm146.23,1.68a33.44,33.44,0,0,0-6.29-5.35.93.93,0,0,1-.25-1.39,1.2,1.2,0,0,1,1.56-.22,35.42,35.42,0,0,1,6.7,5.7.93.93,0,0,1-.15,1.4,1.23,1.23,0,0,1-.78.23A1.18,1.18,0,0,1,392.68,209.91Zm-40-5.58a.93.93,0,0,1,.25-1.39,33.69,33.69,0,0,1,8.2-3.86,1.16,1.16,0,0,1,1.42.61,1,1,0,0,1-.68,1.27,31.83,31.83,0,0,0-7.64,3.59,1.24,1.24,0,0,1-.72.19A1.15,1.15,0,0,1,352.7,204.33Zm-118.49-7.84c-2.07-1.93-4.16-3.85-6.28-5.73a.92.92,0,0,1,0-1.41,1.2,1.2,0,0,1,1.57,0q3.19,2.85,6.32,5.76a.93.93,0,0,1,0,1.41,1.22,1.22,0,0,1-1.57,0Zm144.55,4.44a28.75,28.75,0,0,0-6.76-1.25c-.58,0-1.11-.05-1.67-.05a1.08,1.08,0,0,1-1.12-1,1.06,1.06,0,0,1,1.11-1c.61,0,1.2,0,1.82.05a30.71,30.71,0,0,1,7.36,1.37,1,1,0,0,1,.68,1.27,1.1,1.1,0,0,1-1.12.66A1.07,1.07,0,0,1,378.76,200.93ZM221.49,185.19c-2.23-1.87-4.47-3.67-6.64-5.36a.92.92,0,0,1-.12-1.4,1.2,1.2,0,0,1,1.57-.1c2.2,1.7,4.46,3.52,6.71,5.41a.93.93,0,0,1,.06,1.41,1.22,1.22,0,0,1-.89.31A1.26,1.26,0,0,1,221.49,185.19ZM208,174.74c-2.39-1.68-4.8-3.28-7.17-4.76a.93.93,0,0,1-.28-1.38,1.21,1.21,0,0,1,1.55-.25c2.41,1.5,4.85,3.13,7.27,4.83a.91.91,0,0,1,.19,1.39,1.17,1.17,0,0,1-1,.38A1.15,1.15,0,0,1,208,174.74Zm-14.64-9.12c-2.57-1.39-5.18-2.7-7.77-3.88a.94.94,0,0,1-.48-1.34,1.17,1.17,0,0,1,1.49-.43c2.64,1.2,5.3,2.53,7.92,3.95a.94.94,0,0,1,.37,1.37,1.15,1.15,0,0,1-1,.48A1.2,1.2,0,0,1,193.32,165.62Zm-77.81-9.28a1,1,0,0,1,.59-1.3,68.46,68.46,0,0,1,8.66-2.6,1.13,1.13,0,0,1,1.36.71,1,1,0,0,1-.8,1.21,69.29,69.29,0,0,0-8.36,2.51,1.22,1.22,0,0,1-.5.08A1.11,1.11,0,0,1,115.51,156.34Zm62,2.09c-2.74-1-5.56-1.87-8.39-2.63a1,1,0,0,1-.75-1.24,1.15,1.15,0,0,1,1.39-.67c2.89.78,5.78,1.68,8.58,2.69a1,1,0,0,1,.62,1.3,1.13,1.13,0,0,1-1.11.62A1.28,1.28,0,0,1,177.47,158.43ZM132.75,152a1,1,0,0,1,1-1.11,84.88,84.88,0,0,1,9.1-.54,1,1,0,0,1,1.12,1,1.06,1.06,0,0,1-1.1,1,85.13,85.13,0,0,0-8.83.52h-.22A1.08,1.08,0,0,1,132.75,152Zm27.71,1.86c-2.92-.52-5.87-.91-8.77-1.17a1,1,0,1,1,.21-2c3,.26,6,.66,9,1.2a1,1,0,0,1,.87,1.17,1.09,1.09,0,0,1-1.16.8Z"></path><path class="cls-13" d="M104.59,162.89a1.17,1.17,0,0,0,.73-.18c1.17-.76,2.39-1.49,3.63-2.18a.93.93,0,0,0,.36-1.36,1.19,1.19,0,0,0-1.53-.33c-1.29.71-2.56,1.47-3.77,2.25a.93.93,0,0,0-.24,1.39A1.15,1.15,0,0,0,104.59,162.89Z"></path></g></g></svg> 