<?xml version="1.0" encoding="UTF-8"?> <svg xmlns="http://www.w3.org/2000/svg" viewBox="0 0 570 500"><defs><style>.cls-1{isolation:isolate;}.cls-2{fill:#e7f8fe;}.cls-3{fill:#1981c4;}.cls-4{fill:#f68457;}.cls-5{fill:#4e5c67;}.cls-6{fill:#1ca6df;}.cls-7{fill:#fbd542;}.cls-8{fill:#303171;}.cls-9{fill:#d6634a;}.cls-10{fill:#fff;}.cls-11{fill:#7cd55e;}.cls-12,.cls-13{fill:#dbe3e9;}.cls-13{mix-blend-mode:multiply;}.cls-14{fill:#eef2f5;}.cls-15{fill:#f5bc23;}</style></defs><g class="cls-1"><g id="Layer_1" data-name="Layer 1"><path class="cls-2" d="M411.88,402.49c-56.73,22.45-107.15,57.4-162.87,81.63-62.09,27-125.67,16.46-165.82-41.49C51.08,396.3,38,332.52,31.05,277.47c-4.45-35.1-4.63-74.44,18.42-101.3,68.45-79.8,193.75-42.55,276.3-9.68,62.38,24.84,255.47,100.35,170.33,191.26-11.21,12-26.05,19.82-41,26.66C440.94,390.94,426.42,396.73,411.88,402.49Z"></path><rect class="cls-3" x="326.34" y="280.68" width="51.02" height="10.02" transform="translate(-1.7 2.11) rotate(-0.34)"></rect><path class="cls-4" d="M136,295.66l-.48-.15c-9.41-3.38-18.59-7.74-28.49-9.52l0,.21c.64,4,1.13,12.53,2.25,15.58,2,5.28,7.64,8.78,8.8,5.8s-2.62-13.25-2.62-13.25c3.88,5.1,12.17,14.68,19,17.79,13.19,6,17.52-1.89,17.52-1.89C162.25,305.34,139.73,302.32,136,295.66Z"></path><path class="cls-5" d="M112.52,287.24c-1.81-.49-3.64-.92-5.49-1.25l0,.21c.64,4,1.13,12.53,2.25,15.58,2,5.28,7.64,8.78,8.8,5.8.52-1.32,0-4.09-.62-6.76A76.79,76.79,0,0,1,112.52,287.24Z"></path><path class="cls-4" d="M161.09,339.25c2.82-6.86-5.49-13-9.58-10.61,0,0-4,6.38-15,36.66a58.42,58.42,0,0,1-3.82,8.18,161.22,161.22,0,0,1-8.94,17.4c6.65.17,13.29.48,19.92,1h12.5l-20.37-10.18-.15-.19,0,0C136.82,378.76,158.26,346.11,161.09,339.25Z"></path><path class="cls-6" d="M177.93,292.1c-.59-6.46-2.84-12.36-5.63-19.76-4-10.59-15.37-53.84-28-57-7.59-1.89-17,20.78-17,20.78.07,10.33,21.62,50,24.62,64.34,1.72,8.23-3,27.49-6.53,40.64,2,.62,7.62,11.37,7.62,11.37,9.53-14.71,19.29-29.56,23.63-46.79A40.07,40.07,0,0,0,177.93,292.1Z"></path><path class="cls-6" d="M127.5,228.08s19.64,37.53,24.29,54.33c5.19,18.74,3.52,26.37,2.2,27.64s-10.08,2.07-15.46-.6-7-11.13-7.17-13.12-37.7-41.63-35.45-64.22S114.44,219.23,127.5,228.08Z"></path><path class="cls-4" d="M172.82,127.33l.41-.28c5.3-3.83,8.83-19.31,11.36-25.12l20.49-47.05-6.46-2.94L178.8,89.7c-3.4,6.48-7.13,12.88-10.23,19.5C166.7,113.19,163.23,133.77,172.82,127.33Z"></path><path class="cls-7" d="M167.58,124c3.23-1.72,11-1.94,14.45,2.38,4.61,5.85,3.12,9.07.11,13s3.35,6,9.67,1.46c0,0-14.91,14.61-16.07,1.15-1.14-13.13-6.2-14.55-10.23-15.89A12.4,12.4,0,0,1,167.58,124Z"></path><path class="cls-8" d="M97.48,240.63C120.72,236,134.7,230,152.36,226.49c2.13-5.91-2.67-14.42-4-24.64-1.24-9.45,4.11-19.11,11.57-37.8s2.54-16,6.5-19.72,10.39-11.9,9.84-14.67-11-13.11-11-13.11c-9.94-11-33.7,1.33-42.71,7.81-7.07,5.08-12,9.78-12.61,18.52s4,15.52,1.85,24.59-8.32,16.66-11.88,25.13c-5.8,13.87-7.86,31.56-3.31,46A11.69,11.69,0,0,0,97.48,240.63Z"></path><path class="cls-4" d="M106.39,113.6a22.24,22.24,0,0,1-1.53-3c-3.15-8.24-10.48-16.48-15.22-23.94-2.86-4.49-21-26.52-16.36-32.06,2.07-2.48,3.61-6.06,4.53-7,0,0-1.5-.73-3.06,1.13s-4.25,3.7-5.52,2.38-6-7.93-8.42-10.58c-2.06-2.29-1.9-2-2.06-.53s3.48,5.14,5,7.44c.47.72.8,2.51-1.94.75a43.2,43.2,0,0,1-8.1-7c-.49-.51-3.49-.54-.67,2.07s8.83,8.82,7.8,10.06-3.23.87-7.37-.48-1.74,1.24.78,2.23c2.68,1,5,1.69,5,1.69s.57,1.53-2.3,1.5c-2,0-3.3,1.59.85,1.5,10-.2,9.3,4.39,13,11.8,3,6.18,6.74,12.12,10.1,18.14,5.24,9.42,11.73,18.89,15.77,28.88,2.19-.47,6.16-.64,7.85-2.21S106.65,114.27,106.39,113.6Z"></path><path class="cls-7" d="M150.31,70.13s10.59-1.89,18.46,5.73c6.25,6,10.26,27.77,2.57,37.93s-11.1,16.8-6.89,19,10.3,9.11,3.8,13.43-8.93,6-11.25,5.62,10.32-3.24,4-9.84-12,.51-15.45-5.78-8.93,12.29-12.58,13.2-11.62,2.81-16.2-4.56c-.67-1.09,7.45,6.21,7.35-4.4s1.43-3.28-3.07-2.3-9.4,15.29-21.69,7.7c-6.09-3.75-6.34-6.6-6.34-6.6s7.16,6.24,7.92-1.29-.86-9.4-.86-9.4-1.83,7.59-8.85,6.83c-4.35-.46-7.89-4.73-5.95-8.64,0,0-1,1.81,2.12,4.4.93.77,5.15,3,4.09-2.38s-5.69-12.12,6.19-17.21,16.83-1.24,16.57-13.56S116.19,59.72,150.31,70.13Z"></path><path class="cls-4" d="M151.53,83.59s5.39,12,11.72,20,3.1,19.95-4.24,24.5-7.85,8.46-4.27,9.85-3.16,17.51-9.48,18.95-20.45-5.49-15.29-16.7c2.76-6,1-8.27,1-8.27,3.29,3,4.7,9,2.72,11s12.22-2.83,2.14-14.4S124,116.65,125.32,107.92s10-8.66,16.54-12.27S151.14,88.79,151.53,83.59Z"></path><path class="cls-4" d="M154.74,138a3.45,3.45,0,0,1-1.84-1.44,22.45,22.45,0,0,1-9,.05,18.27,18.27,0,0,1-4.62-1.57c1.19,6.78-7.23,9.38-5.67,7.89,2-1.91.57-8-2.72-11,0,0,1.79,2.28-1,8.27-5.16,11.21,9,18.13,15.29,16.7S158.31,139.37,154.74,138Z"></path><path class="cls-9" d="M137.27,141.28c.65.39,1.31.76,2,1.1a23.3,23.3,0,0,0,3,.82,24,24,0,0,0,3.06,0,27.5,27.5,0,0,0,4.08-1.16,38.39,38.39,0,0,0,5.95-3.59,1.33,1.33,0,0,0-.58-.47,3.45,3.45,0,0,1-1.84-1.44,22.45,22.45,0,0,1-9,.05,18.27,18.27,0,0,1-4.62-1.57A6.86,6.86,0,0,1,137.27,141.28Z"></path><path class="cls-9" d="M131.37,136l.12.13a40.35,40.35,0,0,0,3,3.11,12.12,12.12,0,0,0-3.57-7.26S131.85,133.12,131.37,136Z"></path><path class="cls-4" d="M199.53,57.43c-3.55-4.42-.4-8.27-1.28-10.94-1.18-3.62-5.48-5.42-6-5.77-1.23-.9,2.38-2.23,4-.65s3.47,1.84,3.83,1.09c1.36-2.85,2.88-13.61,4-15.58.62-1.06,2-.61,1,4.65s-2.31,9.39-1.13,9.71c2.22.62,8.09-9.82,9.86-11.51.66-.63,3.41-1,.59,3.39-3.38,5.33-6.34,9.18-6.21,10.61s3.64,1.84,7.24.78c4.9-1.45,5.68-.8,4.07.49-1.2,1-8.63,2.94-8,3.88,1.28,1.84,4.74,1.58,6.76,1.68s1.86,1.56-2.43,1.66S213,50.33,210,52,203.23,62,199.53,57.43Z"></path><path class="cls-10" d="M149.58,116.36c2.64.56,5.22,1.19,7.74,1.87a10.35,10.35,0,0,1-20.08-4C141.29,114.79,145.41,115.47,149.58,116.36Z"></path><rect class="cls-11" x="89.08" y="391.08" width="93.68" height="94.71" rx="11.63"></rect><polygon class="cls-10" points="132.22 468.4 105.68 451.27 114.04 438.31 128.86 447.87 155.95 413.92 168.01 423.54 132.22 468.4"></polygon><rect class="cls-11" x="201.08" y="362.1" width="93.68" height="94.71" rx="11.63"></rect><polygon class="cls-10" points="244.22 439.43 217.67 422.29 226.04 409.33 240.86 418.9 267.94 384.94 280 394.56 244.22 439.43"></polygon><rect class="cls-11" x="313.08" y="333.12" width="93.68" height="94.71" rx="11.63"></rect><polygon class="cls-10" points="356.21 410.45 329.67 393.31 338.04 380.35 352.86 389.92 379.94 355.96 392 365.58 356.21 410.45"></polygon><path class="cls-12" d="M333.82,232.12A8.72,8.72,0,0,1,328.14,243l-71.92,22.69a8.7,8.7,0,0,1-10.92-5.68L212.14,154.94A8.7,8.7,0,0,1,217.82,144l49.79-15.71,40,20.83Z"></path><polygon class="cls-13" points="279.47 155.51 315.75 174.08 308.01 149.55 304.37 147.65 279.47 155.51"></polygon><path class="cls-14" d="M267,128.34l7,22.12a8.7,8.7,0,0,0,10.92,5.68l22.13-7Z"></path><path class="cls-15" d="M258.31,311.44l-59.25.43,34.52-41.49a34.9,34.9,0,0,0,4.64-6.84,13,13,0,0,0,1.47-5.71,9,9,0,0,0-2.62-6.63,9.16,9.16,0,0,0-6.78-2.52,9.44,9.44,0,0,0-7.63,3.23q-2.66,3.21-2.61,9.24v1l-18.66.13v-.53q-.1-13.19,7.56-20.83t21-7.73q13-.09,20.82,6.58t7.87,17.86a24.76,24.76,0,0,1-2.36,10.64,47.47,47.47,0,0,1-8,11.37l-13.88,15.53,23.74-.18Z"></path><path class="cls-15" d="M540.46,349.48c-5.44,32.45-36.16,58.76-68.61,58.76S417.52,381.93,423,349.48s36.16-58.75,68.61-58.75S545.91,317,540.46,349.48Z"></path><path class="cls-10" d="M496.52,365.17q9.39,1.75,14.56,8.31t5.13,16.68q0,13.68-9.78,21.33t-27.08,7.59q-17.3-.06-26.92-7.79t-9.59-21.41q0-10.12,5.26-16.64t14.63-8.2A20.69,20.69,0,0,1,451,358a19.8,19.8,0,0,1-4.1-12.8q.06-12.29,8.72-19.13t24.13-6.78q15.51.06,24.16,7t8.61,19.16a19.82,19.82,0,0,1-4.19,12.78A20.8,20.8,0,0,1,496.52,365.17Zm-17.09,34.65q6.17,0,9.77-3.38t3.62-9.39a12.09,12.09,0,0,0-3.55-9.25q-3.57-3.41-9.75-3.42t-9.67,3.34q-3.57,3.38-3.59,9.23a12.38,12.38,0,0,0,3.55,9.38Q473.38,399.79,479.43,399.82Zm.16-42.54a11.57,11.57,0,0,0,8.36-2.92,10.66,10.66,0,0,0,3.12-8.08c0-3.42-1-6.09-3-8s-4.81-2.91-8.41-2.93a11.43,11.43,0,0,0-8.29,2.9,10.59,10.59,0,0,0-3.06,8,10.77,10.77,0,0,0,3,8.07A11.29,11.29,0,0,0,479.59,357.28Z"></path><path class="cls-5" d="M360.22,252.91,388,195.27l-31.63.23-.12-16.79,57.23-.42,0,3.58-32.09,70.89Z"></path><rect class="cls-8" x="461.72" y="235.34" width="37.97" height="40.08"></rect><path class="cls-5" d="M129.5,380.1s21.93,7,26.63,11.75l-32.42-1Z"></path><rect class="cls-8" x="203.06" y="-35.52" width="24.24" height="146.91" transform="translate(106.88 227.71) rotate(-70.29)"></rect><rect class="cls-10" x="152.01" y="9.23" width="11.65" height="2.94" transform="translate(94.51 155.68) rotate(-70.28)"></rect><rect class="cls-10" x="165.29" y="10.17" width="6.27" height="2.94" transform="translate(100.65 166.26) rotate(-70.28)"></rect><rect class="cls-10" x="171.37" y="16.17" width="11.65" height="2.94" transform="translate(100.81 178.5) rotate(-70.28)"></rect><rect class="cls-10" x="184.65" y="17.11" width="6.27" height="2.94" transform="matrix(0.34, -0.94, 0.94, 0.34, 106.95, 189.09)"></rect><rect class="cls-10" x="190.73" y="23.11" width="11.65" height="2.94" transform="translate(107.11 201.32) rotate(-70.28)"></rect><rect class="cls-10" x="204.01" y="24.05" width="6.27" height="2.94" transform="translate(113.24 211.91) rotate(-70.28)"></rect><rect class="cls-10" x="210.09" y="30.05" width="11.65" height="2.94" transform="translate(113.41 224.15) rotate(-70.28)"></rect><rect class="cls-10" x="223.37" y="30.98" width="6.27" height="2.94" transform="matrix(0.34, -0.94, 0.94, 0.34, 119.54, 234.74)"></rect><rect class="cls-10" x="229.46" y="36.99" width="11.65" height="2.94" transform="translate(119.71 246.97) rotate(-70.28)"></rect><rect class="cls-10" x="242.73" y="37.92" width="6.27" height="2.94" transform="translate(125.84 257.56) rotate(-70.28)"></rect><rect class="cls-10" x="248.82" y="43.92" width="11.65" height="2.94" transform="translate(126.01 269.8) rotate(-70.28)"></rect><rect class="cls-10" x="262.1" y="44.86" width="6.27" height="2.94" transform="translate(132.14 280.38) rotate(-70.28)"></rect><rect class="cls-10" x="268.18" y="50.86" width="11.65" height="2.94" transform="translate(132.3 292.62) rotate(-70.28)"></rect><path class="cls-10" d="M141.42,254.47a.14.14,0,0,0-.09,0s-.05,0,0,.07l.2,0Z"></path><path class="cls-10" d="M141.32,255.12a.42.42,0,0,0,.46-.06c-.21,0-.15-.06-.4-.06a.11.11,0,0,1,.07-.18c-.06,0,0-.14-.15-.13a.25.25,0,0,0,.14.38S141.36,255.11,141.32,255.12Z"></path><path class="cls-10" d="M145.34,262.66v-.06A.13.13,0,0,0,145.34,262.66Z"></path><path class="cls-10" d="M148.05,267.22s-.05,0-.07,0S148,267.23,148.05,267.22Z"></path><path class="cls-10" d="M148.34,268.1s0,0,0-.06S148.32,268.09,148.34,268.1Z"></path><path class="cls-10" d="M145.34,262.66l0,.16C145.42,262.79,145.36,262.73,145.34,262.66Z"></path><path class="cls-10" d="M142.28,255.94a.14.14,0,0,0-.08-.05l.05.06Z"></path><path class="cls-10" d="M144,260.75l0,0h-.09Z"></path><path class="cls-10" d="M143.05,259.22s.16,0,.23-.05a.19.19,0,0,1-.14,0A.28.28,0,0,0,143.05,259.22Z"></path><path class="cls-10" d="M141.88,256.61l0,0Z"></path><path class="cls-10" d="M144.62,261.87l0,0Z"></path><path class="cls-10" d="M153.5,309.11h0Z"></path><path class="cls-10" d="M151.88,310.67v0l-.08-.05Z"></path><path class="cls-10" d="M149,269.61h0S149,269.59,149,269.61Z"></path><path class="cls-10" d="M154.46,283.43c.11-.19.24.24.35-.05C154.75,283.42,154.51,283.21,154.46,283.43Z"></path><path class="cls-10" d="M142.28,256a.21.21,0,0,1,0,.06A.09.09,0,0,0,142.28,256Z"></path><path class="cls-10" d="M154.81,283.38h0v0Z"></path><path class="cls-10" d="M150.84,272.87l0-.06S150.86,272.83,150.84,272.87Z"></path><path class="cls-10" d="M149.76,270.27v.08A.17.17,0,0,0,149.76,270.27Z"></path><path class="cls-10" d="M151.67,274.09s0,.06,0,.1v0A.08.08,0,0,1,151.67,274.09Z"></path><path class="cls-10" d="M152.26,275.49s0,0,0,0l0,0Z"></path><path class="cls-10" d="M155,304.6a.45.45,0,0,1-.16,0C154.94,304.64,154.91,304.87,155,304.6Z"></path><path class="cls-10" d="M142.2,256s.07,0,.08,0l0,0A.05.05,0,0,0,142.2,256Z"></path><path class="cls-10" d="M152.89,273.61l.08.24A1,1,0,0,0,152.89,273.61Z"></path><path class="cls-10" d="M156.67,293.59l0,.05A0,0,0,0,0,156.67,293.59Z"></path><path class="cls-10" d="M153.27,274.52a.45.45,0,0,0-.05.18h.05Z"></path><path class="cls-10" d="M154.82,304.63Z"></path><path class="cls-10" d="M154.71,306.3c.08-.22-.17-.17-.27-.25,0-.29.19-.08.33-.14s-.15-.37-.1-.49.05,0,.09,0c-.12-.23.14-.53,0-.8h.06a.81.81,0,0,1-.3-.05c0-.1-.08-.23.07-.23,0,.06,0,.09.07.13l0-.13c.22,0,0,.17.17.21,0-.23-.1-.51,0-.66.21,0,0,.39.2.23l-.14.22c.36-.1-.07.15.31.07.14-.31,0-.4.14-.71-.09-.1-.16,0-.25-.11-.08-.51.58-.24.41-.65-.11-.12-.35-.21-.16-.42l.2.13c.09-.31-.28-.25-.05-.55.07.08,0,.26.05.22.23-.17-.09-.18-.05-.34h.2c0-.35,0-.76,0-1.14.05,0,.1.11.18,0a3.71,3.71,0,0,1,.41-1.45l-.14-.21s.09-.06.11,0c.1-.17-.1,0-.16-.12a.09.09,0,0,1,.16-.05,1.66,1.66,0,0,1,.05-1.26l0,.07c.11-.25-.32-.34-.13-.56l0,.05c.13-.56.05-1.2.33-1.61-.24-.11.15-.56-.19-.62.19-.32.25-.22.39-.67,0-.13-.21-.2-.24-.35h.19l-.19-.21.22-.1,0-.15a.14.14,0,0,1-.14.11.53.53,0,0,1,.24-.54c0-.18-.09-.36-.14-.53.07,0,.1.1.15.17-.19-.28.19-.05,0-.31,0,0-.11,0-.15,0a.82.82,0,0,0,.06-.63l.13,0a11.39,11.39,0,0,0-.08-1.27.16.16,0,0,1-.3,0l.19,0c-.12-.08-.06.13-.22,0,0-.17.22-.12.28,0l-.07-.19c.06,0,.09,0,.16,0-.12-.08.18-.36,0-.47h.06c0-.44-.1-.64-.14-1-.16,0-.14-.14-.28-.24a3.43,3.43,0,0,0,.1-.88c-.1-.21-.15-.05-.26-.14.16,0,.1-.34.23-.19a3.8,3.8,0,0,0-.27-.94c0,.06-.07.12-.13.1s0-.21.11-.21l0,0a1.35,1.35,0,0,1,0-.89c0-.31.08-.6-.11-.79l0,0-.23-.41c0-.2.13.1.2-.06a.93.93,0,0,1-.2-.59,1.06,1.06,0,0,0-.15-.52c.37-.39-.26-1.06-.07-1.53l-.09.05c-.13-.08,0-.14,0-.22s-.06.14-.13.08a16.42,16.42,0,0,1-.51-2.76c-.08-.34-.58,0-.47-.51l.23.06c-.42-.59-.45-1.34-.86-1.9,0,0,.11,0,.13.06.09-.18-.17-.49-.28-.45s.09-.06.12-.14-.29-.27-.19-.39.06,0,.08,0-.15-.41-.27-.27c0-.26-.25-.41-.24-.63-.22-.05-.08-.44-.34-.37.26-.09,0-.5-.15-.59.1,0,0-.16.15-.15-.07-.17-.19-.29-.3-.21.14-.44-.52-.5-.23-.84a15,15,0,0,1-.94-1.23c.12-.06.19.06.26.17s.12.22.24.15c-.29-.37-.63-.49-.79-.92,0-.12.14,0,.2,0-.32-.36-.4-.8-.72-1.09,0,0,.07,0,.1,0s0-.18-.15-.11l.06.05c-.09.2-.47-.1-.56-.07.38-.05-.13-.38.37-.42a.18.18,0,0,0-.2,0c0-.08,0-.12.13-.1-.2-.21-.26-.06-.39-.29,0,0,.09,0,.17,0-.17-.06-.34-.11-.41-.33,0,0,.07,0,.1,0-.21-.32-.59-.4-.71-.81.28,0,0-.16.18-.3l-.18-.15,0,.13c-.1-.17-.33-.23-.35-.4l.15.07-.23-.29,0,.22c-.2-.1-.22.17-.31-.08,0,0-.1-.17,0-.32h0c-.11,0-.23-.09-.26-.24s.22-.1.25-.15c-.2,0-.28-.35-.51-.35a.25.25,0,0,0,.17-.07h-.17c0-.1,0-.13.09-.16-.12-.25-.19.22-.26-.12,0,0,0,0,.09,0-.12-.31-.41-.48-.5-.77.14-.19.18.19.28,0-.26-.34-.69-.61-.86-1l0,.07c-.3.12,0-.34-.26-.44,0,0,.18,0,.14,0-.1-.26-.37-.45-.67-.76H146a3.18,3.18,0,0,0-.25-.57c-.1,0-.14-.1-.21,0,.1-.71-.76-.78-.68-1.4,0,.05.13.09.1.05l-.27-.32c-.1.1,0,.09-.09.22a.38.38,0,0,1-.27-.16c.18.11.19-.12.21-.23,0,0-.08,0-.11.06.09-.31-.26.11-.27-.23l.07,0c-.09-.08-.22-.12-.27-.23.11-.12.13.06.24,0-.09-.14-.43-.13-.37-.34.08,0,.13.13.2.17a.36.36,0,0,0,0-.36v0l-.07-.29V259c-.46,0-.28-.34-.66-.44.36.11.15,0,.32-.11,0-.09,0-.21.06-.21-.19,0,0-.25-.29-.31,0,0-.07-.13.07-.17-.13-.13-.07.08-.14.11-.3-.14-.11-.67-.53-.87-.26-.24-.46-.2-.7-.42,0-.14.23,0,.23,0a.48.48,0,0,0-.22-.4c.06,0,.08,0,.12-.12s-.23,0-.23-.16a1.13,1.13,0,0,1,.26,0c-.12-.1-.28-.18-.4-.3.07-.08.18,0,.26,0-.12-.13-.29-.35-.45-.33v.13c0-.06.1-.09.15-.07s.05.22,0,.25l-.08-.08c-.25.26.26.37.34.58l-.26,0,.29.11c0,.07-.13.16-.22.08,0,.2.15.09.09.27s0,0,0,0l.14.1c-.06,0-.13.11-.15,0,0,.31.38.3.27.49l0,0c.26.3.17-.05.5.1l-.29.39.18-.06s0,.12,0,.14c.18.07.06-.06.2,0-.05.25.33.42.11.6.15,0,0-.21.18-.08-.23.21.17.18.13.41-.16,0-.17-.16-.21.07.29-.05.13.32.25.43.19-.1.24.23.43.41-.07,0,.14.47.19.71h0c.21-.07.3.16.43.28a.26.26,0,0,1-.28,0l.09.14a.28.28,0,0,1,.21.1l-.16.05c.12.19.39.28.45.58.13-.07.24-.41.48-.21-.06,0-.18.14-.24.09s.1,0,.1.1l-.18,0c0,.14.13,0,.17.09s0,.11-.11.15,0-.1-.07-.11a.43.43,0,0,1,0,.35c.06-.05.14-.09.2,0s-.08.14-.07.28.1.16.25.08,0,.1-.06.15c.13.06.3.44.39.23v0h0c.34.23.32.71.58,1l0,0c.17.15.29.4.48.46,0,.06,0,.19-.09.2.13.12.2.11.24.36-.17-.09,0,.1-.15-.11.07.22,0,.31.28.42-.17,0-.07.24,0,.31V265a.88.88,0,0,1,.16.28l-.19.05c0,.51.77.47.61,1,.18,0,0-.25.15-.25.09.19,0,.52,0,.58.06.29.39.07.48.36a.22.22,0,0,1,.35,0c.09.19-.11.37-.23.29s0-.07,0-.08-.13-.1-.15,0l.07,0c0,.13.15.36,0,.37.14.09.13,0,.1-.12.06.27.22.35.3.61,0-.05.06-.13.08-.09.13.38.21.08.37.29,0,.19-.25.09,0,.27,0,.18-.14.13-.22.1.24.14.16.44.21.57l-.12-.08a.38.38,0,0,1,.13.16l.09-.14c0,.08,0,.14,0,.16.11,0,.16-.17.35-.1,0,.13.23.23.08.35-.1-.3-.14.13-.3-.09a.34.34,0,0,1,.09.17s0,0-.06,0c0,.34.26,0,.42.28a.14.14,0,0,0-.1.2c-.05-.12.13-.14.25-.08,0,.22.16.17.2.26l0-.12c.11,0,.14.08.24.19-.07.05-.11-.09-.12,0,.24.05,0,.41.21.54,0,.12-.16.1-.17.2.24.15,0,.3.22.48.09-.13.06-.13.26,0l-.28-.33.31.14c-.06-.11-.21-.19-.23-.27.17.06.13.06.2-.05-.1.26.28.25.25.5l-.32.15a.55.55,0,0,0,.23.38.84.84,0,0,1,.28.41v-.14c.14,0,.12.21.22.3-.11.05-.11.14-.15.22s.11.26.34.19l-.06.23c.08.31.45.18.55.48-.16,0-.17.13-.34,0,0,.09.06.18.14.15s.26.19.19.33.18,0,.22.09a.08.08,0,0,1-.05,0c.05,0,.14.14.22,0-.21.44.36.81.18,1.18.12.19.26.43.35.61,0,0-.06,0-.06,0,0,.3.37,0,.37.39s-.15-.13-.19,0c-.34.18.18.35.05.62l0,0c-.07.2.27.33.34.59a.1.1,0,0,0-.06,0,1.35,1.35,0,0,1,.56.64c-.17,0-.11-.09-.24,0,0,.1.22-.11.33.09-.06.1-.07.28-.22.35l-.08-.2c-.16.17.09.26.09.38l-.09,0c.13.31.35.24.44.59l.06-.06c.28.12-.08.2.15.33l-.21.13a2.65,2.65,0,0,1,.44.58c-.2-.08-.35-.32-.5-.45,0,.12.13.41.26.45,0-.05-.11-.09-.08-.15a.75.75,0,0,1,.41.52c-.45.08.06.68-.23.94.28.39.12.88.26,1.38.31-.25,0,.15.39,0,.05.11.05.16,0,.17l-.13.41c-.09.1-.1-.1-.18-.07,0,.26-.13.13-.19.32.12-.06.2.06.18.22l.13-.24c.25.33-.25.37,0,.7l-.13-.09c.1.17.11.69.43.83,0,0-.12.1-.16,0,0,.46.44,1,.31,1.35l-.09,0c0,.08.18.12.11.24s-.09,0-.1,0,.19.21.15.32l-.11-.08c-.06.45.31.66.4,1-.26,0-.31.38-.34.56h0a6.18,6.18,0,0,0,.4,1.35c-.27.31-.07,1-.24,1.5,0-.07.21,0,.23.1s.18.31-.06.3v-.05c-.23.09-.17.32-.18.5l.31,0c-.45.46.13,1.25-.28,1.49.07.12.07.26.14.38h-.17a3.18,3.18,0,0,0-.08.86l-.11-.09c0,.22.46.31.45.52l-.25,0c0,.39-.29.75-.11,1.16,0,0-.1,0-.11-.1,0,.18-.24.68.11.66-.22,0-.08.39,0,.61l-.16-.06c.19.21.24.22.26.48,0,.05-.13,0-.08,0-.11.18.13.17,0,.39l-.09-.1c0,.19,0,.19.12.32a.34.34,0,0,1-.26.37c.09,0,.19.17.13.28a.09.09,0,0,1-.1-.07c-.17.31.1.53-.1.73a.1.1,0,0,0-.1,0,2.58,2.58,0,0,1,.1-.45c-.15,0-.21.18-.39,0,.09.19.28.53.16.72l0,0,0,0a.22.22,0,0,0,0,.14.48.48,0,0,0-.08.16c-.12,0-.11.22-.14.33.16,0,.11.15.27.05,0,0,0,0,0-.09a.07.07,0,0,0,0-.05h0l0-.26c.07.1.12.2,0,.3a1.25,1.25,0,0,1,.23.2c-.25.1-.43.35-.58.35,0,.34-.12.76.14,1,0,.1-.12.08-.17.1s0-.12,0-.16c0,.2-.11.54.09.64-.15.21-.16-.18-.2.15l-.06-.06c-.49.51.26,1.15-.37,1.7,0,0,.06-.06.1-.06-.43.7-.34,1.64-.91,2.27-.14.19,0,.27,0,.43l-.18,0,.1.3c0,.37-.62.37-.52.86h.13c-.08.13-.13.47-.24.39s.09.1,0,.12l-.09,0v.4c-.18.23-.31-.19-.51.17,0,.16.05.51.13.49a.19.19,0,0,1,.21-.08l0,.15c.23.16.43.4.77.15l0-.31h.16l-.09.2c.17-.06.1-.18.07-.29a.27.27,0,0,0,.18,0l-.13-.34c.11,0,.14.19.27.07-.07-.16-.27,0-.26-.21.16-.06.24,0,.2-.16a.13.13,0,0,1,.11.12c0-.15.1-.32,0-.44.19-.05.13-.4.36-.29a.7.7,0,0,1-.07-.4c.21.32.18-.39.47-.22-.2-.24.09-.57,0-.88,0,0,.05.06,0,.08.08-.14.18-.15.26-.23-.21-.09-.18-.34-.27-.51.27-.11.22.2.44.21-.18,0-.07-.37-.24-.36.18-.09.11-.1.31-.11-.26-.11,0-.14-.13-.31.2-.16.27,0,.26-.22C154.68,306.08,154.71,306.3,154.71,306.3Zm.91-5.45h0v0Zm.08-.45a.9.9,0,0,0,0,.19c-.06,0-.11,0-.1-.06S155.64,300.46,155.7,300.4Zm-1.31.72c0-.08,0-.09.06-.09a.41.41,0,0,0,0,.12h0S154.4,301.14,154.39,301.12Z"></path><path class="cls-10" d="M154.57,301.29v0l0,0,0,0Z"></path><path class="cls-10" d="M145.33,262.59h0a0,0,0,0,1,0,0Z"></path><polygon class="cls-10" points="156.74 294.1 156.69 294.1 156.73 294.14 156.74 294.1"></polygon><path class="cls-10" d="M144.51,260.15a.06.06,0,0,0,0,0S144.52,260.13,144.51,260.15Z"></path><path class="cls-10" d="M144,259.2l0-.16A.91.91,0,0,0,144,259.2Z"></path><path class="cls-10" d="M143.64,258.45l-.07,0h0Z"></path><path class="cls-10" d="M150.7,269.68l0,0Z"></path><path class="cls-10" d="M148.33,266.48l.13.06C148.43,266.48,148.41,266.43,148.33,266.48Z"></path><polygon class="cls-10" points="152.89 273.59 152.88 273.59 152.89 273.62 152.89 273.59"></polygon><path class="cls-10" d="M148.56,266.7a.23.23,0,0,0-.1-.16A.25.25,0,0,0,148.56,266.7Z"></path><path class="cls-10" d="M142,255.28v0h0Z"></path><path class="cls-10" d="M141.91,255.25l0,0A0,0,0,0,0,141.91,255.25Z"></path><path class="cls-10" d="M141.8,255.16l.08.06S141.85,255.15,141.8,255.16Z"></path><path class="cls-10" d="M142.4,256.28l.06,0Z"></path><path class="cls-10" d="M142.58,256.56c0-.08,0-.24-.07-.31h0C142.56,256.26,142.45,256.54,142.58,256.56Z"></path><path class="cls-10" d="M142.62,258.14l-.1-.26c0,.07-.07.17-.15.07C142.38,258.35,142.46,257.81,142.62,258.14Z"></path><path class="cls-10" d="M143,258.94c-.1-.11-.08.05-.11.06S143,259.07,143,258.94Z"></path><path class="cls-10" d="M146.25,264.34l-.14.07C146.19,264.49,146.16,264.38,146.25,264.34Z"></path><polygon class="cls-10" points="147.55 264.95 147.57 264.8 147.42 264.83 147.55 264.95"></polygon><polygon class="cls-10" points="147.01 266.12 146.97 266.09 147.12 266.23 147.01 266.12"></polygon><path class="cls-10" d="M152,275.3l.16-.11C152.12,275.13,151.92,275.2,152,275.3Z"></path><path class="cls-10" d="M153.72,279.48a.16.16,0,0,0,0,.26C153.72,279.64,153.76,279.52,153.72,279.48Z"></path><path class="cls-10" d="M155.29,292.85l-.06-.09a1.54,1.54,0,0,0,.05.17Z"></path></g></g></svg> 