<?xml version="1.0" encoding="UTF-8"?> <svg xmlns="http://www.w3.org/2000/svg" id="Layer_1" data-name="Layer 1" viewBox="0 0 570 500"><defs><style>.cls-1{fill:#dbe3e9;}.cls-2{fill:#1981c4;}.cls-3{fill:#303171;}.cls-4{fill:#f48257;}.cls-5{fill:#21bbf7;}.cls-6{fill:#fff;}.cls-7{fill:#f5bc23;}.cls-8{isolation:isolate;}.cls-9{fill:#545454;}.cls-10{fill:#444344;}.cls-11{fill:#f7cb55;}.cls-12{fill:#ffab01;}.cls-13{fill:#eaf4fe;}.cls-14{fill:#c5e1f9;}</style></defs><path class="cls-1" d="M105.75,415.73C196.26,454.42,312,504.54,412.11,473,490.42,448.27,521.48,354,516.51,279.47c-4.6-69.13-47.4-122.07-95.91-149-50.51-27-95.46-30.23-135.27-19.4-40.38,10.79-75.62,35.65-120,63.61-43.37,28.67-87.34,47.31-118.66,66-31,19.41-49.32,38.85-33.74,85.69C28.64,373.7,64.29,398,105.75,415.73Z"></path><rect class="cls-2" x="43.27" y="210.35" width="36.2" height="36.2" transform="translate(-143.56 110.3) rotate(-45)"></rect><path class="cls-3" d="M184.26,276.49s29.93,49.32-6.56,100.1c-27.15,37.77,31,75.06,76.32,42.62,24.38-17.45,32.59,11.24,47.67,1,29.89-20.35,24.13-34,74.46-58.57C410.31,344.94,416,277.81,401,255c-19.24-29.11-33.09,30.79-58-10.37-12.79-21.17-51.8,22.83-69.49,2.57S185.91,244.06,184.26,276.49Z"></path><path class="cls-3" d="M208.48,217.59s33.77-9.49,50.65-4.1,16.47,23.9,19.48,45.32,42.64,13.37,58.24,37.47,3.52,67.94-17.75,93.5c-40.64,48.87-109.1,18.43-108.35.48,2.59-61.75-28.45-93.05-29.59-110.29S171.87,247.08,208.48,217.59Z"></path><path class="cls-4" d="M219.94,235.86s21.5-6.71,30.41,4.17,13.89,12.51,16.52,11.91,14.84,28.88,2.32,42.77-16.22,13.81-13.63,25.2,13.72,19.92,16.94,21.95,54.55,13.23,5.37,47.76c-14.5,10.18-39.19,47.85-43,41.94-62.73-97.9-11.66-72.5-11.66-72.5S252,341,238.63,326.51s-28-25.91-32.51-37.78-1.85-24.45-1.85-24.45S219.84,259.83,219.94,235.86Z"></path><path class="cls-4" d="M208.52,380.41s-52.87-91.29-64.2-114.76c-5.08-10.55,3.13-16.65,22.81,6.51s49.78,63.82,59.42,90.92S220.92,394.85,208.52,380.41Z"></path><path class="cls-4" d="M300.14,358.93s12-125.53,12.08-151.58c0-11.72-10-13.69-17.77,15.71s-12.16,80.66-14.7,98.74C275.75,350.28,295.18,377.31,300.14,358.93Z"></path><path class="cls-4" d="M307.22,224.35s-8.45-.48-9.69-6.16c-3.42-15.8-8.29-40.38-7.08-62.8,2-36.59,4.39-61.54,4.39-61.54l5.93,1s10.06,88.42,10.47,103.79c.17,6.27.08,9.72-.68,13.09C309.47,216.66,312.31,211.25,307.22,224.35Z"></path><path class="cls-5" d="M244.57,471.73c16.78,3,33.8,5.57,50.84,8.2,22.28.91,44.84.39,67,3-10-30.39-42-119.06-68.83-141.67-16-13.46-24.27-15-24.27-15s26.51,15.27,11.31,28.12c-9.48,8-9.8,12.86-10.32,12.23-18-21.56-46.45-10.11-46.45-10.11s9.68,3.73,6.53,23.57c-3,18.55-19.14,10.3-19.14,10.3,7.4,20.43,21.72,38.86,26.17,48.76C243.87,453.43,244.83,462.29,244.57,471.73Z"></path><path class="cls-4" d="M305.39,87.86s1.69-8.13,4.73-11c2.13-2,13.67-9.63,13.67-9.63a16.31,16.31,0,0,1-6.09,8C310.93,79.77,305.39,87.86,305.39,87.86Z"></path><path class="cls-4" d="M311.12,80.33c.55-5.19,4.73-9.57,10.89-13.52,5.85-3.76,6.16-8.24,6.16-8.24s-4,2-12.48,8.81c-2.38,1.9-4.71,4-6.92,6C301.49,80.15,309.72,93.7,311.12,80.33Z"></path><path class="cls-4" d="M296.25,90.65c2.41-2.75,5.66-8.46,5.92-10.74.81-6.88.65-12.71.72-12.66,6.34,4.36,2.24,15.38,3.08,20S290,97.79,296.25,90.65Z"></path><path class="cls-4" d="M297.72,101c5.39-10,12.58-12.79,13.4-20.63a19.9,19.9,0,0,1,.56-2.52c.53-2.25.73-4.87,1.06-5.77s1.8-3.79.79-2.92c-9,7.74-18.24,17.27-19.21,20-1.14,3.16.45,11.43,1.8,20.23C297.14,116,293.92,108,297.72,101Z"></path><path class="cls-4" d="M310,80.29s-2.8-.33-2.67-2.53c.22-3.61,3.58-10.11,4.87-12.36,1.45-2.52,10.22-13.24,10.22-13.24a16.24,16.24,0,0,1-3.46,9.46C313.79,67.94,310,80.29,310,80.29Z"></path><path class="cls-6" d="M245.77,274.69c4.13-.94,8.22-1.74,12.28-2.43,1.08,7.8-4.33,15.36-12.61,17.25-8.1,1.83-16.08-2.44-18.65-9.66C232.9,277.91,239.23,276.17,245.77,274.69Z"></path><path class="cls-5" d="M214.38,336.54s21.23,21.34,21.21,43.31-2.53,59.61-28.49,10c-4.63-8.86-10.44-29.12-10.44-29.12S209.78,374.73,214.38,336.54Z"></path><path class="cls-5" d="M280.18,303.64s7.33,24.22,24.82,22.46c.64-.07,1.12,20.66-1.14,28.31s-25.23-15.16-26.09-24.36S280.18,303.64,280.18,303.64Z"></path><polygon class="cls-6" points="275.4 360.29 294.87 377.65 288.1 343.78 277.94 340.4 275.4 360.29"></polygon><path class="cls-3" d="M253.76,313.7s.15,19.91,17.87,27.9c32.86,14.84,11.58,26.94,19.51,28.92,14.66,3.67,34.67-17.17,15.44-28.72-26.62-16-20.63-24.08-25.17-35.95S261.78,296.23,253.76,313.7Z"></path><path class="cls-4" d="M158.29,272.4s4.32,2.75,1.69-6.35c-4.45-15.48-12.77-40-25.23-59.36-19.79-30.85-28.62-53.44-28.62-53.44l-8.72,3.29S130.83,241,138.06,254.6c4.68,8.76,6.41,11,12,15.58C153.16,272.67,156.79,276.31,158.29,272.4Z"></path><path class="cls-4" d="M68.65,138.13l-2.5-11.31s4.35,2.77,5.24,6.84l1.73,7.8Z"></path><path class="cls-4" d="M78.5,144.74l-3.39-6.93,3.23-6.47s2.17.46,1.46,6.62c-.15,1.39,3.83,8.89,3.83,8.89Z"></path><path class="cls-4" d="M106.44,161.47a114.62,114.62,0,0,1-29.67-11.91c-15-8.72-13-12.36-15.86-16.95s-7.49-10.67-2.1-7.39,10.67,12.48,13.41,14.32,7.52,2.38,12,3.73,7.61,2.77,4.07-.61-4.73-4.49-5.53-6-2.25-3.83-.66-5.09,3.29,2.2,4.47,3.33,9,4.67,10.59,5.77,5.24,6.83,7.86,10.25,10.19,18.19,7.51,20.65C112.54,171.54,110.94,162.81,106.44,161.47Z"></path><polygon class="cls-6" points="234.76 346.32 275.4 360.29 272.01 388.66 227.98 355.64 234.76 346.32"></polygon><path class="cls-2" d="M103.12,377.69h-51v-51h51Zm-46.39-4.63H98.49V331.3H56.73Z"></path><rect class="cls-2" x="65.83" y="356.32" width="23.56" height="4.63"></rect><rect class="cls-2" x="65.83" y="343.41" width="23.56" height="4.63"></rect><path class="cls-2" d="M103.12,377.79H7.33V282h95.79ZM12,373.16H98.49V286.63H12Z"></path><path class="cls-2" d="M103.12,377.79H7.33V282h95.79ZM12,373.16H98.49V286.63H12Z"></path><rect class="cls-2" x="53.13" y="284.31" width="4.63" height="90.72"></rect><rect class="cls-2" x="10.09" y="327.36" width="90.72" height="4.63"></rect><rect class="cls-2" x="20.1" y="304.98" width="23.56" height="4.63"></rect><rect class="cls-2" x="29.57" y="295.51" width="4.63" height="23.56"></rect><rect class="cls-2" x="66.64" y="304.98" width="23.56" height="4.63"></rect><rect class="cls-2" x="29.57" y="341.45" width="4.63" height="23.57" transform="translate(-240.43 126) rotate(-45)"></rect><rect class="cls-2" x="20.1" y="350.92" width="23.56" height="4.63" transform="translate(-240.43 126.01) rotate(-45)"></rect><path class="cls-7" d="M351,90.14h56.83a14.47,14.47,0,0,1,14.47,14.47v56.83a14.46,14.46,0,0,1-14.46,14.46H351a14.47,14.47,0,0,1-14.47-14.47V104.6A14.46,14.46,0,0,1,351,90.14Z"></path><polygon class="cls-7" points="355.13 190.62 355.12 168.66 379.33 168.66 355.13 190.62"></polygon><path class="cls-6" d="M393.23,122.42a8.18,8.18,0,0,0-11.58,0l-1.93,1.93-1.92-1.93A8.18,8.18,0,1,0,366.22,134l1.93,1.94h0l11.57,11.56,11.57-11.56h0l1.94-1.94A8.18,8.18,0,0,0,393.23,122.42Z"></path><g class="cls-8"><path class="cls-6" d="M426.76,406.64l-51.82-11.9,54.62-37.91,51.83,11.9ZM382.5,393.29l43.62,10,47.72-33.11-43.63-10Z"></path><path class="cls-6" d="M447.87,465.24,396.6,453.47l-20.22-61.59,51.26,11.77ZM399,450.83,443.2,461l-18-54.68-44.19-10.14Z"></path><path class="cls-6" d="M444.71,465.57,424.6,404.36,478.44,367l20.11,61.21Zm-16.43-60,18.08,55.05L494.87,427l-18.08-55.05Z"></path></g><rect class="cls-9" x="484.41" y="313.86" width="51.12" height="10.04"></rect><rect class="cls-9" x="114.78" y="408.46" width="7.57" height="38.54" transform="translate(-267.7 209.09) rotate(-45)"></rect><rect class="cls-9" x="99.31" y="423.94" width="38.53" height="7.57" transform="translate(-267.73 209.15) rotate(-45)"></rect><path class="cls-9" d="M168.82,75.49,149.66,94.72c-8.06,8.38-10,19.71-4.44,25.21l17.06,17c5.56,5.48,12.46,6.93,29.44.83A130.33,130.33,0,0,0,218.5,125Z"></path><path class="cls-10" d="M168.78,75.53,188,56.3c8.35-8.09,19.67-10.09,25.19-4.53l17.06,17c5.5,5.54,7,12.44.93,29.43A129.67,129.67,0,0,1,218.45,125Z"></path><path class="cls-10" d="M201.7,108.3l-88.51,39.4-2.41-3L238.21,17.07l2.59,2.57Z"></path><path class="cls-9" d="M199.11,105.72l-88.51,39.4,39.09-88.65,88.52-39.4Z"></path><path class="cls-11" d="M240.92,67.63a1.82,1.82,0,0,1-2.35-.17L223.71,52.64l-55.26,24.6A1.81,1.81,0,1,1,167,73.93l56.39-25.1a1.8,1.8,0,0,1,2,.37l15.74,15.69a1.8,1.8,0,0,1,0,2.56A1.18,1.18,0,0,1,240.92,67.63Z"></path><path class="cls-12" d="M224.5,53.3a1.65,1.65,0,0,1-.32.18L171.44,77a1.69,1.69,0,1,1-1.38-3.09L222.8,50.39a1.69,1.69,0,0,1,1.7,2.91Z"></path><path class="cls-10" d="M177.05,67.28c2.6,2.59,1.63,7.79-2.18,11.6s-9,4.81-11.59,2.22-1.63-7.78,2.18-11.6S174.45,64.69,177.05,67.28Z"></path><path class="cls-9" d="M174.9,67.52c2,2,.42,6.69-3.44,10.56s-8.57,5.42-10.54,3.47-.42-6.67,3.44-10.55S172.94,65.57,174.9,67.52Z"></path><path class="cls-11" d="M240,58.87a5.33,5.33,0,1,1-7.54,0A5.32,5.32,0,0,1,240,58.87Z"></path><path class="cls-11" d="M245.72,68a2.91,2.91,0,0,1,0,4.12h0a2.9,2.9,0,0,1-4.12,0l-7.36-7.33a2.92,2.92,0,0,1,0-4.12h0a2.92,2.92,0,0,1,4.12,0Z"></path><path class="cls-11" d="M265.08,77.93c-3,.18-6.61-2.63-16.15-10.32-2.37-1.76-5.63-1.88-7.55,0l0,.06-.05,0c-1.93,1.94-1.79,5.19,0,7.55,7.72,9.53,10.55,13.08,10.38,16.12,1.45,2.53,6.71,1.85,11-2.4l.06-.06,0,0C267,84.64,267.61,79.38,265.08,77.93Z"></path><path class="cls-12" d="M245.2,74.5a7.3,7.3,0,0,1-1.39-5.37l-3.1-3.1a5.88,5.88,0,0,1-5.38-1.52,6,6,0,0,1-1.21-6.73,5.24,5.24,0,0,0-1.65,1.1,5.33,5.33,0,0,0,0,7.54,5.22,5.22,0,0,0,4.79,1.35L240,70.53a6.49,6.49,0,0,0,1.23,4.78c7.72,9.52,10.55,13.07,10.38,16.11.82,1.42,2.85,1.79,5.23,1.12C257,89.14,253.81,85.12,245.2,74.5Z"></path><path class="cls-2" d="M384.55,201.74l147,60.45a4.84,4.84,0,0,1-5.3,2.35L383,205.6Z"></path><path class="cls-5" d="M379.3,214.78,383,205.6,526.2,264.54h0l0,0h0a5,5,0,0,1-3.66,9.14l0,0h-.05Z"></path><path class="cls-2" d="M522.52,273.72a4.82,4.82,0,0,1,2.19,5.36l-147-60.45,1.55-3.85Z"></path><path class="cls-13" d="M524.71,279.09a4.86,4.86,0,0,0-2.19-5.37h.05l0,0a5,5,0,0,0,3.66-9.14h0l0,0h0a4.8,4.8,0,0,0,5.3-2.36l31.28,22.4Z"></path><path class="cls-14" d="M524.71,279.09a4.86,4.86,0,0,0-2.19-5.37h.05l0,0c2.24.58,40.25,10.88,40.25,10.88Z"></path><path class="cls-9" d="M551.3,282.92a20.13,20.13,0,0,1,.77-2.47,18.52,18.52,0,0,1,1.32-2.59l9.39,6.72Z"></path></svg> 