<?xml version="1.0" encoding="UTF-8"?> <!-- Generator: Adobe Illustrator 24.2.0, SVG Export Plug-In . SVG Version: 6.00 Build 0) --> <svg xmlns="http://www.w3.org/2000/svg" xmlns:xlink="http://www.w3.org/1999/xlink" version="1.1" id="home" x="0px" y="0px" viewBox="0 0 770 440" style="enable-background:new 0 0 770 440;" xml:space="preserve"> <style type="text/css"> .st0{fill:#D6E9BD;} .st1{fill:#F58457;} .st2{fill:#FFFFFF;} .st3{fill:#1B81C4;} .st4{fill:#4F5E67;} .st5{fill:#F58458;} .st6{fill:#D6644B;} .st7{fill:#D6644B;stroke:#212B54;stroke-width:2.0486;stroke-miterlimit:10;} .st8{fill:#67BD50;stroke:#60AD6E;stroke-width:0.4478;stroke-miterlimit:10;} .st9{fill:#96CA59;} .st10{fill:#1F81C5;} .st11{fill:#345AA9;} .st12{fill:#015245;} .st13{fill:#95CA59;} .st14{fill:#67BD50;} .st15{fill:#94C460;} .st16{fill:#CBE3AD;} .st17{fill:#7CAD45;} .st18{fill:#EDF3FB;} </style> <g> <path class="st0" d="M588,178c-35.4-17.8-85.9-20.6-137.6-79.9c-96.6-111-235.4-145.8-308.8,4.3S100,389,245.9,420.3 c107.1,23,153.2-34.7,213.3-5.2c111.9,54.9,194.7,5.2,205.4-85.7C675.4,238.5,635,201.8,588,178z"></path> <path class="st1" d="M508.1,48.1H595c12.2,0,22.1,9.9,22.1,22.1v86.9c0,12.2-9.9,22.1-22.1,22.1h-86.9c-12.2,0-22.1-9.9-22.1-22.1 V70.2C485.9,58,495.8,48.1,508.1,48.1z"></path> <polygon class="st1" points="519.8,201.8 519.8,168.2 551.6,168.2 "></polygon> <path class="st2" d="M530.4,97.5c4.9-4.9,12.8-4.9,17.7,0c0,0,0,0,0,0l3,2.9l2.9-2.9c4.9-4.8,12.9-4.8,17.7,0.2 c4.8,4.9,4.8,12.6,0,17.5l-3,3l0,0L551,135.8l-17.7-17.7l0,0l-3-3C525.5,110.3,525.5,102.4,530.4,97.5z"></path> <path class="st3" d="M392.4,379.7c5.7-15.5,8.4-35.1,7.2-62.6c-5.4-128.4-65.2-122-65.7-118.7c-1.1,7.3-36.4-5.5-38.6-3.1 c-13,14.6-40.8,22-63.5,56c-17.9,26.8-19.1,98.6-18.9,128.4L392.4,379.7z"></path> <path class="st4" d="M337.8,150.6c0,0-49.7-11.9-62.9-24.3c-13.1-12.4,11.9-11.9,14.2-34.8s17.7-81,30.2-46.5 c12.5,34.5-5.2,46.9-4.1,30.5c1.1-16.4-7.5-60.5,38.9-54.1s60.3,37.3,20.5,49s48.9-37.4,44.8-6.9s-31.2,25-40.6,24 c-9.4-1,39.2-20.4,31.7,11.5C403.1,131.1,374.4,143.2,337.8,150.6z"></path> <path class="st5" d="M309.9,151.6c0,0-1.2,32.3-11.4,41.2c-18.8,16.4-23,61.6,43.8,39.8c11.2-3.7-17.9-39-1.2-58.4 C357.7,154.7,309.9,151.6,309.9,151.6z"></path> <path class="st6" d="M304.4,151.5c0,0,8,9.8-5.2,44.8c0,0,20.8,10.7,35.3-4.1c-0.3-6.7,2-13.2,6.5-18.1 C357.7,154.8,304.4,151.5,304.4,151.5z"></path> <path class="st5" d="M376.1,84.2c0,0,6.5,24-2,60.5s-27.7,44.9-57.8,35.7s-29.8-46.3-28-55.2s-27.7-5.6-18.6-25.4s20.7-10.2,21-1.9 s4.3,19.4,11.7,13.7S301.2,72,315.2,79C329.3,86,354,96.2,376.1,84.2z"></path> <path class="st7" d="M328.3,148.4"></path> <path class="st4" d="M409.2,158.4c0,0-46.5,8.1-50,35.9c-3.4,27.8-1,31.9-15.2,42.5c-14.2,10.6-35.3,45,6.9,59.2 c42.1,14.2,63.7-9.1,84.7-0.5s55.4-0.5,62.7-14.2c7.3-13.7,10.8-45-14.2-57.2c-25-12.1-17.4-34-20.1-40 C455.8,166,438.2,155.9,409.2,158.4z"></path> <path class="st8" d="M323.3,377.3c0,0,19.2-84.7,27.7-87.1c8.6-2.4,21.2-14.3,54,0.5s27.2,9.5,53,16.2c25.7,6.7,36.3,5.2,40.8,26.2 c4.5,20.9,5,41.4,3,45.2S323.3,377.3,323.3,377.3z"></path> <path class="st0" d="M446.1,303.5c-9-1.7-12.4-1.9-30.9-10.6c-3.4,1.2-4.7,3.8-4.5,7.8c0,0,6.6,42.3,6.7,78.5 c15.8,0.3,31.7,0.5,45.3,0.5c4.2-19.1,6.3-42.1-1.8-57.6C457.2,315,452.2,308.7,446.1,303.5z"></path> <path class="st5" d="M411.7,279.8l-2.4,11.4l4.3,35.2c0,0,13,13.4,30,10c9.3-1.9,15.3-6.1,16.2-12.4c1.2-8.6-9.5-16.7-14.3-23.3 c-4.8-6.7-1.4-18.1,3.8-30C454.5,258.8,439.8,281.7,411.7,279.8z"></path> <path class="st6" d="M449.3,270.7c10.7-24.8-9.5,10.9-37.6,9l-2.4,11.4l0.1,0.6c14.7-1.6,28.5-8.2,38.9-18.8 C448.6,272.3,449,271.5,449.3,270.7z"></path> <path class="st9" d="M466.4,345.9c-0.1-2.1-0.2-4.1-0.4-6.1c-23.3,11.7-43.4,6.2-50.2,3.7c0.2,2,0.3,4.1,0.5,6.2 c6.5,2.1,13.2,3.1,20,3.1C446.7,352.8,457,350.4,466.4,345.9z"></path> <path class="st9" d="M465.2,365.8c0.3-2,0.5-4.1,0.7-6.2c-19,5.8-42.3,2.7-49,1.4c0.1,1.9,0.2,3.9,0.3,5.9c7.5,1.3,15.1,2,22.7,1.9 C448.4,368.9,456.9,367.9,465.2,365.8z"></path> <path class="st5" d="M382.9,185.1c0,0,10,17.1-3.4,32.8l-8.1,9.5c0,0,16.6,54.2,43.3,53.3c26.7-1,41.9-14.3,46.6-35.7 c4.8-21.4-8.1-41.9-8.1-41.9s-31.9,12.4-42.8,10C399.6,210.8,400,182.2,382.9,185.1z"></path> <path class="st10" d="M658.8,254.2H537.9c-3.3,0.2-6.2,2.3-7.4,5.4l-40.9,112.2h131.8l40.8-112.2 C663.2,256.6,661.7,254.2,658.8,254.2z"></path> <path class="st11" d="M384.6,371.1v3.4c0,2.9,2.4,5.3,5.3,5.3H617c2.9,0,5.3-2.4,5.3-5.3v-3.4H384.6z"></path> <path class="st10" d="M489.5,374.4v-3.4H384.6v3.4c0,2.9,2.4,5.3,5.3,5.3h94.3C487.1,379.8,489.5,377.4,489.5,374.4z"></path> <path class="st2" d="M332.8,156.9c3.4,0,6.7,0.1,9.9,0.3c-1,7.1-7.6,12-14.7,11c-5.6-0.8-10-5.1-10.9-10.7 C322.3,157.1,327.5,156.8,332.8,156.9z"></path> <path class="st2" d="M425.8,256.2c3.4,0,6.7,0.1,10,0.3c-1,7.1-7.6,12-14.7,11c-5.6-0.8-10-5.1-10.9-10.7 C415.3,256.4,420.5,256.2,425.8,256.2z"></path> <path class="st12" d="M124.5,263.8c0.3,4.6-0.6,22,17.7,30.4s30.7-8.7,50.5,15.9s39.6,28,60.2-0.4c20.6-28.4,26.2-11.2,48.1-18.9 c21.9-7.7,41.4-61.5,4.1-89.4c-23-17.3-30.3-24.6-75,3.9c-45.5,29-39.9-10.6-64.4-11.9C141.2,192,122.4,235,124.5,263.8z"></path> <path class="st5" d="M265.5,333.6c-7.3,6.6-15.4,9.6-22.5,7.3c-9.6-3.1-15-14.9-15.2-29.9l0.6,0.2c12.9,4.9,15.9-20.8,16.6-32.7 s24,17.7,24,17.7s-11.9,6.1-13.4,17.8C254.9,320.1,259.8,326.2,265.5,333.6z"></path> <path class="st6" d="M255.9,317.6c-5.5-5.7-10.2-12.1-13.9-19c1.6-6.6,2.6-13.4,3-20.2c0.8-11.9,24,17.7,24,17.7 s-11.9,6.1-13.4,17.8C255.5,315.2,255.6,316.4,255.9,317.6z"></path> <path class="st5" d="M297.6,214.6c0,0,26,109.7-34.9,82.5c-24.6-11-23.2-22.7-23.5-31.2c-0.3-8.5-13.3,1.1-10.5-14.8 s7.4-13.6,12.1-4.5c4.7,9.1,8.6,6.6,12.8-4.3c4.2-10.8-5.2-16.9,15.5-10.2C289.8,238.8,299.8,233.6,297.6,214.6z"></path> <path class="st5" d="M252.4,381.8c0-6-0.4-11.1-0.4-11.1s-8.6-4.8-10.4-2c-1,1.5-2.5,7.1-3.7,13.1H252.4z"></path> <path class="st13" d="M249.5,316.1c0,0,17.3,18.2,12.7,29.6c-4.6,11.4-6.3,28.6-6.3,28.6l-20.5-3.6 C235.5,370.7,247.5,317.3,249.5,316.1z"></path> <path class="st14" d="M246.9,381.8c0.8-17.9,2.5-34.9,6.7-38.7c8.6-7.7-1.8-33.5-17-34.1c0,0-22.8-5.2-45.2,28.6 c-9.2,14-17.1,28.8-23.5,44.2H246.9z"></path> <path class="st5" d="M325.3,356.8c0,0,6-5,9.6-6c3.4-0.7,6.8-1.2,10.2-1.4l7.6,1.9c-1.9,1.7-4.6,2.3-7,1.5 c-1.9-0.5-6.4,0.9-6.4,0.9l3.8,3.9c0,0,0.6,6-3.5,9.3c-1.2,0.8-2.7,1.2-4.1,1.1c0,0-3.9,0.1-2.2-1.3c1.4-1.1-3.7-1.3-3.7-1.3 s-7.8-0.1-11.8-1.8C313.8,361.9,322.8,358,325.3,356.8z"></path> <path class="st5" d="M255.5,322.6c0,0,21.9,17.2,24,17.7c12.8,4,25.3,8.7,37.5,14.1c18.3,8,7,11.2-2.9,11.3 c-9.9,0.1-35.8-3.7-44.7-9.8s-27-10.2-31.1-15.7C234.3,334.7,255.5,322.6,255.5,322.6z"></path> <path class="st13" d="M261.8,325.9c0,0-15.8-23.8-28.9-17.9c-13.1,6-12.3,13.8-11.5,19c0.8,5.2,17.2,24.7,17.2,24.7 S244.2,327.9,261.8,325.9z"></path> <path class="st2" d="M281.2,277.7c3.4,0,6.7,0.1,10,0.3c-1,7.1-7.6,12-14.7,11c-5.6-0.8-10-5.1-10.9-10.7 C270.7,277.9,275.9,277.7,281.2,277.7z"></path> <circle class="st15" cx="187.4" cy="113.9" r="59.8"></circle> <path class="st16" d="M232.2,74.4l-103.4,27.7c-0.8,3.9-1.1,7.8-1.1,11.8c0,5.2,0.7,10.4,2,15.5l115.4-30.9 C242.7,89.5,238.3,81.3,232.2,74.4z"></path> <path class="st16" d="M142.6,153.4L246,125.7c0.8-3.9,1.2-7.8,1.2-11.8c0-0.8,0-1.5-0.1-2.2l-112.5,30.2 C136.8,145.9,139.5,149.8,142.6,153.4z"></path> <circle class="st17" cx="187.4" cy="113.9" r="55.3"></circle> <circle class="st18" cx="187.4" cy="113.9" r="52.3"></circle> <path class="st15" d="M191.1,67c0,2.1-1.7,3.7-3.7,3.8c-2.1,0-3.7-1.7-3.8-3.7c0-2.1,1.7-3.7,3.7-3.8c0,0,0,0,0,0 C189.4,63.3,191.1,64.9,191.1,67z"></path> <path class="st15" d="M191.1,160.8c0,2.1-1.7,3.7-3.7,3.7c-2.1,0-3.7-1.7-3.7-3.7c0-2.1,1.7-3.7,3.7-3.7l0,0 C189.5,157,191.1,158.7,191.1,160.8z"></path> <path class="st15" d="M165.9,72.2c0.6,1.1,0.3,2.4-0.8,3.1c-1.1,0.6-2.4,0.3-3.1-0.8s-0.3-2.4,0.8-3.1c0,0,0,0,0,0 C163.9,70.7,165.3,71.1,165.9,72.2z"></path> <path class="st15" d="M212.8,153.4c0.6,1.1,0.2,2.4-0.8,3.1c-1.1,0.6-2.4,0.2-3.1-0.8c-0.6-1.1-0.3-2.4,0.8-3.1 C210.8,151.9,212.1,152.3,212.8,153.4C212.8,153.4,212.8,153.4,212.8,153.4z"></path> <path class="st15" d="M147.9,88.5c1.1,0.6,1.4,2,0.8,3.1s-2,1.4-3.1,0.8c-1.1-0.6-1.4-2-0.8-3.1c0,0,0,0,0,0 C145.5,88.2,146.8,87.9,147.9,88.5z"></path> <path class="st15" d="M229.1,135.4c1.1,0.6,1.4,2,0.8,3.1c-0.6,1.1-2,1.4-3.1,0.8c-1.1-0.6-1.4-2-0.8-3.1c0,0,0,0,0,0 C226.7,135.1,228,134.8,229.1,135.4z"></path> <path class="st15" d="M140.5,110.1c2.1,0,3.7,1.7,3.7,3.7c0,2.1-1.7,3.7-3.7,3.7c-2.1,0-3.7-1.7-3.7-3.7l0,0 C136.8,111.8,138.5,110.1,140.5,110.1z"></path> <path class="st15" d="M234.3,110.1c2.1,0,3.7,1.7,3.7,3.7s-1.7,3.7-3.7,3.7c-2.1,0-3.7-1.7-3.7-3.7l0,0 C230.5,111.8,232.2,110.1,234.3,110.1z"></path> <path class="st15" d="M145.7,135.4c1.1-0.6,2.4-0.3,3.1,0.8c0.6,1.1,0.3,2.4-0.8,3.1c-1.1,0.6-2.4,0.3-3.1-0.8c0,0,0,0,0,0 C144.2,137.4,144.6,136,145.7,135.4z"></path> <path class="st15" d="M226.9,88.5c1.1-0.6,2.4-0.2,3.1,0.8c0.6,1.1,0.2,2.4-0.8,3.1c-1.1,0.6-2.4,0.3-3.1-0.8 C225.4,90.5,225.8,89.1,226.9,88.5C226.9,88.5,226.9,88.5,226.9,88.5z"></path> <path class="st15" d="M162,153.4c0.6-1.1,2-1.4,3.1-0.8c1.1,0.6,1.4,2,0.8,3.1c-0.6,1.1-2,1.4-3.1,0.8 C161.8,155.8,161.4,154.4,162,153.4C162,153.4,162,153.4,162,153.4z"></path> <path class="st15" d="M208.9,72.2c0.6-1.1,2-1.4,3.1-0.8c1.1,0.6,1.4,2,0.8,3.1c-0.6,1.1-2,1.4-3.1,0.8c0,0,0,0,0,0 C208.6,74.6,208.3,73.2,208.9,72.2z"></path> <circle class="st17" cx="187.4" cy="113.9" r="7.5"></circle> <path class="st15" d="M191.9,113.9c0,2.5-2,4.5-4.5,4.5s-4.5-2-4.5-4.5s2-4.5,4.5-4.5S191.9,111.4,191.9,113.9z"></path> <path class="st15" d="M186.1,116.7c0.8-1,2.2-1.2,3.1-0.4c0.5,0.4,0.8,0.9,0.9,1.5l3.7,33.4c0.1,1.2-0.8,2.3-2,2.5 c-1.2,0.1-2.3-0.8-2.5-2l0,0l-3.7-33.4C185.6,117.7,185.7,117.1,186.1,116.7z"></path> <path class="st15" d="M169,90.2c0.6,0.1,1.2,0.4,1.6,0.9l16.2,17.6c1.1,1.2,1,3.1-0.2,4.2c-1.2,1.1-3.1,1-4.2-0.2l-16.2-17.7 c-1.1-1.2-1-3.1,0.2-4.2c0,0,0,0,0,0C167.1,90.3,168.1,90,169,90.2z"></path> <path class="st17" d="M188.9,113.9c0,0.8-0.7,1.5-1.5,1.5c-0.8,0-1.5-0.7-1.5-1.5c0-0.8,0.7-1.5,1.5-1.5l0,0 C188.2,112.4,188.9,113,188.9,113.9C188.9,113.9,188.9,113.9,188.9,113.9z"></path> </g> </svg> 