<?xml version="1.0" encoding="UTF-8"?> <!-- Generator: Adobe Illustrator 24.2.0, SVG Export Plug-In . SVG Version: 6.00 Build 0) --> <svg xmlns="http://www.w3.org/2000/svg" xmlns:xlink="http://www.w3.org/1999/xlink" version="1.1" id="Layer_12" x="0px" y="0px" viewBox="0 0 770 440" style="enable-background:new 0 0 770 440;" xml:space="preserve"> <style type="text/css"> .st0{fill:#D6E9BD;} .st1{fill:#FFFFFF;} .st2{fill:#67BD50;} .st3{fill:#055245;} .st4{fill:#00A063;} .st5{fill:#23A6DE;} .st6{fill:#5A969C;} .st7{fill:#1B81C4;} .st8{fill:#F58457;} .st9{fill:#D6634A;} .st10{clip-path:url(#SVGID_2_);} .st11{fill:#4F5E67;} .st12{fill:#F58258;} .st13{fill:#95CA59;} .st14{fill:none;stroke:#D6E9BD;stroke-width:2.154;stroke-miterlimit:10;} .st15{fill:none;stroke:#FFFFFF;stroke-width:2.154;stroke-miterlimit:10;stroke-dasharray:6.7628;} .st16{fill-rule:evenodd;clip-rule:evenodd;fill:#1B81C4;} </style> <g> <path class="st0" d="M540.8,96.4c-39.1-7.2-88.6,4.5-155.2-38C261-21.1,117.4-15.4,89.3,150s41.1,288,190.5,276.8 c109.7-8.2,137.8-76.8,204.1-65.5c123.3,21.1,189-50.2,173.7-140.8C642.2,130,592.8,106,540.8,96.4z"></path> <path class="st0" d="M540.8,96.4c-39.1-7.2-88.6,4.5-155.2-38C261-21.1,117.4-15.4,89.3,150s41.1,288,190.5,276.8 c109.7-8.2,137.8-76.8,204.1-65.5c123.3,21.1,189-50.2,173.7-140.8C642.2,130,592.8,106,540.8,96.4z"></path> <rect x="161.2" y="89.2" class="st1" width="400.1" height="220.8"></rect> <rect x="161.2" y="278.4" class="st1" width="400" height="31.6"></rect> <rect x="161.9" y="278.4" class="st1" width="399.6" height="4.2"></rect> <rect x="161.9" y="278.4" class="st1" width="186.7" height="4.2"></rect> <path class="st2" d="M562.1,311.8H160.2V89.2h401.9V311.8z M162.1,309.9h398.1V91.1H162.1V309.9z"></path> <rect x="161.2" y="279.3" class="st3" width="400" height="31.6"></rect> <rect x="161.9" y="279.3" class="st4" width="399.6" height="4.2"></rect> <rect x="161.9" y="279.3" class="st4" width="186.7" height="4.2"></rect> <path class="st5" d="M243,281.9"></path> <path class="st2" d="M94.9,440l229.1-1.9L93,210.9L94.9,440z M136.8,397.4l-0.7-84.9l85.7,84.2L136.8,397.4z"></path> <rect x="95.6" y="424.5" transform="matrix(0.9999 -9.999500e-03 9.999500e-03 0.9999 -4.2499 1.071)" class="st1" width="18.7" height="2"></rect> <rect x="94.7" y="406.7" transform="matrix(1 -8.552009e-03 8.552009e-03 1 -3.4829 0.8704)" class="st1" width="10.8" height="2"></rect> <rect x="94.5" y="388.4" transform="matrix(1 -8.202955e-03 8.202955e-03 1 -3.191 0.8649)" class="st1" width="18.7" height="2"></rect> <rect x="94.3" y="370.2" transform="matrix(1 -8.202955e-03 8.202955e-03 1 -3.0419 0.8304)" class="st1" width="10.8" height="2"></rect> <rect x="94.2" y="352" transform="matrix(1 -8.552009e-03 8.552009e-03 1 -3.0146 0.8984)" class="st1" width="18.7" height="2"></rect> <rect x="94" y="333.8" transform="matrix(1 -8.202955e-03 8.202955e-03 1 -2.7427 0.8266)" class="st1" width="10.8" height="2"></rect> <rect x="93.9" y="315.5" transform="matrix(1 -8.202955e-03 8.202955e-03 1 -2.5927 0.8575)" class="st1" width="18.7" height="2"></rect> <rect x="93.7" y="297.3" transform="matrix(1 -8.202955e-03 8.202955e-03 1 -2.4435 0.823)" class="st1" width="10.8" height="2"></rect> <rect x="93.6" y="279" transform="matrix(1 -8.202955e-03 8.202955e-03 1 -2.2936 0.8537)" class="st1" width="18.7" height="2"></rect> <rect x="93.4" y="260.8" transform="matrix(1 -8.202955e-03 8.202955e-03 1 -2.1444 0.8193)" class="st1" width="10.8" height="2"></rect> <rect x="93.3" y="242.6" transform="matrix(1 -8.552009e-03 8.552009e-03 1 -2.0791 0.8866)" class="st1" width="18.7" height="2"></rect> <g> <polygon class="st2" points="372,31.7 332.8,34.1 310.6,12.5 349.9,10.2 "></polygon> <polygon class="st6" points="301.9,50.1 310.6,12.5 332.8,34.1 324,71.7 "></polygon> <polygon class="st7" points="324,71.7 332.8,34.1 372,31.7 363.3,69.4 "></polygon> </g> <path class="st7" d="M276.1,118.9h8.2V136h16.6v8h-16.6V161h-8.2v-17.1h-16.6v-8h16.6V118.9z"></path> <path class="st8" d="M223.4,309.7v-92h-25.8l14.2-27.3h41.6v119.3H223.4z"></path> <path class="st9" d="M370.1,372.5h-90L333,310c2.8-3.2,5.2-6.6,7.1-10.3c1.4-2.7,2.2-5.6,2.3-8.7c0.1-3.8-1.3-7.4-3.9-10.1 c-2.7-2.7-6.4-4.1-10.3-3.9c-5,0-8.9,1.6-11.6,4.8c-2.7,3.2-4.1,7.9-4.1,14v1.5h-28.3v-0.8c0-13.4,3.9-23.9,11.7-31.5 c7.8-7.7,18.5-11.5,32-11.5c13.2,0,23.7,3.4,31.5,10.2c7.8,6.8,11.7,15.9,11.7,27.2c0,5.6-1.3,11.1-3.7,16.1 c-3.2,6.3-7.3,12.1-12.2,17.2l-21.3,23.4h36.1L370.1,372.5z"></path> <path class="st8" d="M394.9,394h28.7v1.9c0,4.9,1.2,8.7,3.5,11.2c2.3,2.6,5.7,3.8,10.3,3.8c4.7,0,8.4-1.2,10.9-3.7 c2.5-2.4,3.8-6,3.8-10.6c0-5.2-1.4-9-4.1-11.5c-2.7-2.4-6.9-3.7-12.7-3.7c-0.9,0-1.6,0-2.1,0h-1.3v-18.1h1.6c5.2,0,9.2-1.1,12-3.4 c2.8-2.3,4.2-5.6,4.2-9.9c0.1-3.2-1.2-6.3-3.5-8.4c-2.5-2.2-5.7-3.4-9-3.2c-3.9,0-6.9,1.1-9.1,3.2c-2.3,2.4-3.5,5.6-3.4,9h-27.3 c0.2-10.5,3.9-18.8,11.1-24.6c7.2-5.9,17.2-8.8,30.2-8.8c11.5,0,20.6,2.6,27.2,7.8c6.6,5.2,9.9,12.3,9.9,21.3 c0.2,5.2-1.4,10.4-4.6,14.6c-3.4,4.2-8,7.3-13.2,8.7c7.1,1.3,12.5,4.4,16.4,9.2c3.9,4.9,5.8,11.1,5.8,18.7c0,11-3.9,19.9-11.7,26.7 c-7.8,6.9-18,10.3-30.6,10.3c-13.2,0-23.6-3.5-31.3-10.6c-7.7-7.1-11.5-16.7-11.5-28.8L394.9,394z"></path> <g> <path class="st2" d="M378.5,165.9l-60.6-13.9l64.3-44.6l60.6,13.9L378.5,165.9z M323.4,150.9l54.6,12.5l59.3-41.1l-54.6-12.5 L323.4,150.9z"></path> <path class="st2" d="M403,236.4l-60.2-13.8L319,149.9l60.2,13.8L403,236.4z M344.5,220.6l55,12.6l-22.2-67.7l-55-12.6L344.5,220.6 z"></path> <path class="st2" d="M400.7,236.6l-23.8-72.4l63.8-44.2l23.8,72.5L400.7,236.6z M379.6,165.1l22.3,67.9l59.8-41.5l-22.3-67.9 L379.6,165.1z"></path> </g> <path class="st2" d="M461.1,212.5c0-1.8,0.7-3.6,2-4.9c1.3-1.3,3-2,4.8-2c3.8,0,6.9,3.1,6.9,6.9c0,3.8-3.1,6.9-6.9,6.9 c-1.8,0-3.6-0.7-4.8-2C461.7,216.1,461,214.3,461.1,212.5z"></path> <path class="st2" d="M448.7,240v-12.4h38.6V240H448.7z"></path> <path class="st2" d="M461.1,254.7c0-1.8,0.7-3.6,2-4.9c1.3-1.3,3-2,4.8-2c1.8-0.1,3.6,0.7,4.9,2c1.3,1.3,2,3.1,2,4.9 c0,3.8-3,6.9-6.8,6.9c0,0-0.1,0-0.1,0c-1.8,0-3.6-0.7-4.8-2C461.7,258.3,461,256.5,461.1,254.7z"></path> <g> <defs> <path id="SVGID_1_" d="M540.8,96.4c-39.1-7.2-88.6,4.5-155.2-38C261-21.1,117.4-15.4,89.3,150s41.1,288,190.5,276.8 c109.7-8.2,137.8-76.8,204.1-65.5C607.2,382.5,739.4,270.7,724,180C708.6,89.4,592.8,106,540.8,96.4z"></path> </defs> <clipPath id="SVGID_2_"> <use xlink:href="#SVGID_1_" style="overflow:visible;"></use> </clipPath> <g class="st10"> <path class="st11" d="M612.6,264.9c0,0-19.3,31.8,4.2,64.5c17.5,24.3-20,48.4-49.2,27.4c-15.6-11.2-21,7.2-30.7,0.6 c-19.3-13.1-15.5-21.9-48-37.7c-22-10.7-25.7-54-16-68.6c12.4-18.7,21.3,19.8,37.3-6.7c8.2-13.6,33.4,14.7,44.8,1.7 C566.5,233,611.6,244,612.6,264.9z"></path> <path class="st11" d="M597,226.9c0,0-21.8-6.1-32.6-2.6c-10.9,3.5-10.6,15.4-12.6,29.2c-1.9,13.8-27.5,8.6-37.5,24.1 c-10,15.5-2.3,43.8,11.4,60.2c26.2,31.5,70.3,11.9,69.8,0.3c-1.7-39.8,18.3-59.9,19-71C615.3,256,620.6,245.9,597,226.9z"></path> <path class="st12" d="M589.6,238.7c0,0-13.9-4.3-19.6,2.7s-9,8.1-10.6,7.7s-9.6,18.6-1.5,27.5c8.1,9,10.4,8.9,8.8,16.2 c-1.7,7.3-8.8,12.8-10.9,14.1s-35.1,8.5-3.5,30.8c9.3,6.6,25.3,30.8,27.7,27c40.4-63.1,7.5-46.7,7.5-46.7s-18.5-11.6-9.9-21 c8.6-9.3,18.1-16.7,20.9-24.3c1.7-5.1,2.2-10.5,1.2-15.8C599.7,257,589.7,254.1,589.6,238.7z"></path> <path class="st12" d="M597,331.8c0,0,34.1-58.8,41.3-73.9c3.3-6.8-2-10.7-14.7,4.2c-12.7,14.9-32.1,41.1-38.3,58.6 C579.2,338.1,589,341.1,597,331.8z"></path> <path class="st12" d="M538,318c0,0-7.7-80.9-7.8-97.6c0-7.5,6.4-8.8,11.4,10.1s7.8,51.9,9.5,63.6 C553.7,312.4,541.2,329.8,538,318z"></path> <path class="st12" d="M533.4,231.3c0,0,5.4-0.3,6.2-4c2.2-10.2,5.3-26,4.6-40.4c-1.3-23.6-2.8-39.6-2.8-39.6l-3.8,0.7 c0,0-6.5,56.9-6.7,66.8c-0.2,2.8-0.1,5.6,0.4,8.4C532,226.3,530.1,222.8,533.4,231.3z"></path> <path class="st13" d="M573,386.5l0.2-0.1c0.2-0.1,0.4,0,0.6,0c0.3-4.7,1.4-9.6,4.5-16.7c2.9-6.4,12-18.2,16.8-31.4 c0,0-10.4,5.3-12.3-6.6c-2-12.8,4.2-15.2,4.2-15.2s-18.3-7.4-29.9,6.5c-0.3,0.4-0.5-2.7-6.6-7.9c-9.8-8.3,7.2-18.1,7.2-18.1 s-5.3,1-15.6,9.6c-11.3,9.5-25.2,38.5-35.2,62.8C529,374.8,551,380.5,573,386.5z"></path> <path class="st12" d="M534.6,143.4c0,0-1.1-5.2-3-7.1c-1.4-1.3-8.8-6.2-8.8-6.2c0.7,2.1,2.1,3.9,3.9,5.2 C529.7,137.5,532.4,140.3,534.6,143.4z"></path> <path class="st12" d="M530.9,138.5c-0.3-3.3-3-6.2-7-8.7c-3.8-2.4-4-5.3-4-5.3c2.8,1.6,5.5,3.5,8,5.7c1.5,1.2,3,2.6,4.5,3.9 C537.1,138.4,531.8,147.1,530.9,138.5z"></path> <path class="st12" d="M540.5,145.2c-1.6-1.8-3.6-5.5-3.8-6.9c-0.5-4.4-0.4-8.2-0.5-8.2c-4.1,2.8-1.4,9.9-2,12.9 C533.7,146,544.5,149.8,540.5,145.2z"></path> <path class="st12" d="M539.5,151.8c-3.5-6.4-8.1-8.2-8.6-13.2c-0.1-0.5-0.2-1.1-0.4-1.6c-0.3-1.5-0.5-3.1-0.7-3.7 s-1.2-2.4-0.5-1.9c5.8,5,11.8,11.1,12.4,12.9c0.7,2-0.3,7.4-1.2,13C539.9,161.5,542,156.3,539.5,151.8z"></path> <path class="st12" d="M531.6,138.5c0,0,1.8-0.2,1.7-1.6c-0.1-2.3-2.3-6.5-3.1-8c-0.8-1.5-6.6-8.5-6.6-8.5 c0.1,2.2,0.9,4.4,2.2,6.1C529.2,130.5,531.6,138.5,531.6,138.5z"></path> <path class="st1" d="M573,263.7c-2.7-0.6-5.3-1.1-7.9-1.6c-0.5,5.8,3.8,10.8,9.6,11.3c4.6,0.4,8.8-2.2,10.6-6.4 C581.3,265.8,577.2,264.6,573,263.7z"></path> <path class="st13" d="M593.2,303.5c0,0-13.7,13.8-13.7,27.9s1.6,38.4,18.4,6.4c3-5.7,6.7-18.7,6.7-18.7S596.2,328.1,593.2,303.5z "></path> <path class="st13" d="M550.8,282.3c0,0-4.7,15.6-16,14.4c-0.4,0-0.7,13.3,0.7,18.2c1.5,4.9,16.2-9.8,16.8-15.6 C553,293.5,550.8,282.3,550.8,282.3z"></path> <polygon class="st1" points="553.9,318.8 541.4,330 545.7,308.2 552.3,306 "></polygon> <path class="st11" d="M567.9,288.8c0,0-0.1,12.8-11.5,18c-21.2,9.6-7.5,17.3-12.6,18.6c-9.4,2.4-22.3-11.1-10-18.5 c17.1-10.3,13.2-15.5,16.2-23.2C553,276.1,562.7,277.6,567.9,288.8z"></path> <path class="st12" d="M629.3,262.2c0,0-2.8,1.8-1.1-4.1c2.9-10,8.2-25.7,16.2-38.2c12.7-19.9,18.4-34.4,18.4-34.4l5.6,2.1 c0,0-21.5,54.4-26.2,63.2c-3,5.6-4.1,7.1-7.7,10C632.6,262.4,630.3,264.7,629.3,262.2z"></path> <path class="st12" d="M687.1,175.7l1.6-7.3c-1.6,1-2.8,2.6-3.4,4.4c-0.5,2.3-1.1,5-1.1,5L687.1,175.7z"></path> <path class="st12" d="M680.7,180l2.2-4.5l-2.1-4.1c0,0-1.4,0.3-0.9,4.3c0.1,0.9-2.5,5.7-2.5,5.7L680.7,180z"></path> <path class="st12" d="M662.7,190.8c6.7-1.6,13.1-4.2,19.1-7.7c9.6-5.6,8.4-8,10.2-10.9c1.8-2.9,4.8-6.9,1.4-4.8 c-3.5,2.1-6.9,8-8.6,9.2c-1.8,1.2-4.8,1.5-7.7,2.4c-2.9,0.9-4.9,1.8-2.6-0.4c2.3-2.2,3-2.9,3.6-3.9s1.5-2.4,0.4-3.3 c-1-0.9-2.1,1.4-2.9,2.1c-0.8,0.7-5.8,3-6.8,3.7c-1.1,0.7-3.4,4.4-5.1,6.6c-1.7,2.2-6.6,11.7-4.8,13.3 C658.8,197.3,659.8,191.6,662.7,190.8z"></path> <polygon class="st1" points="580.1,309.8 553.9,318.8 556.1,337.1 584.5,315.8 "></polygon> </g> </g> <path class="st6" d="M148.5,29.7c-42.4-2.8-79,29.2-81.8,71.6c-2.8,42.4,29.2,79,71.6,81.8s79-29.2,81.8-71.6c0,0,0,0,0-0.1 C222.8,69.1,190.8,32.6,148.5,29.7z"></path> <path class="st2" d="M218.3,89.6l-7.2,11.5l-12.5,21.8l-6.2-14.4l-11,6.4l-6.3-13.2l-6.5,7.2l-3-1l-9.5-4.4l1.2,10.3l7.2,3.4 l-15,31.2l-6,3.3l-4.5-12.2l-2.2-20.1l-9.8-1l-3.7-7.6l6.5-14.8l8.4-1.4l4.9,3.7l12.2-2.2l-12.8-8.1l-11-2.6l-0.4-3.4l11.1-5.5 l-4.1-7.2l11.5-9.1l11.3,4.8l19.6-4.7c0,0,8.1-3.6,17.2-7.7C208,62.6,215.1,75.5,218.3,89.6z"></path> <path class="st2" d="M99.2,43.7l-4.8,7.2l-8.5,13.4c-0.2,0.4-0.2,0.8,0,1.2l4.8,8.9c0.2,0.3,0.6,0.6,1,0.6c0.4,0,0.8-0.2,1-0.5 l5-7.1l8.3,11.6L87.5,93.4l-10,0.3c-0.5,0-0.9,0.3-1,0.7l-2.5,5.9c-0.2,0.4-0.1,0.8,0.1,1.1l6.1,8.9l-10.4-5.6l-2.8-3.9 C68.5,77.9,80.4,56.9,99.2,43.7z"></path> <path class="st2" d="M90.9,137.2L85,123.6l8.1-15.5l19.6,20.2l-19.9,34.9l-3.1-8.4l1.2-17C91,137.6,91,137.4,90.9,137.2z"></path> <path class="st2" d="M113.3,66.1l-7.5-18.6c12.9-5.5,21.4-6.4,24.7-6.5l-4.8,16.4L113.3,66.1z"></path> <rect x="237.8" y="106.6" transform="matrix(0.891 -0.454 0.454 0.891 -25.8003 121.1113)" class="st7" width="3" height="15.3"></rect> <rect x="231.7" y="112.8" transform="matrix(0.8909 -0.4541 0.4541 0.8909 -25.7972 121.155)" class="st7" width="15.3" height="3"></rect> <circle class="st14" cx="143.4" cy="106.4" r="77.1"></circle> <ellipse class="st14" cx="143.5" cy="106.4" rx="77.1" ry="34.8"></ellipse> <ellipse class="st14" cx="143.5" cy="106.4" rx="34.8" ry="77.1"></ellipse> <line class="st15" x1="66.3" y1="106.4" x2="220.6" y2="106.4"></line> <line class="st15" x1="143.5" y1="183.5" x2="143.5" y2="29.3"></line> <rect x="32.5" y="73.4" transform="matrix(0.2421 -0.9703 0.9703 0.2421 -34.2712 108.383)" class="st13" width="39.4" height="5.5"></rect> <polygon class="st11" points="45.1,104.6 45.7,94.8 49.2,95.7 "></polygon> <rect x="70.8" y="52.3" transform="matrix(0.8083 -0.5888 0.5888 0.8083 -28.2937 57.0732)" class="st13" width="5.5" height="39.4"></rect> <polygon class="st11" points="90.8,95.7 86.6,86.8 83.7,89 "></polygon> <rect x="56.8" y="40.2" transform="matrix(0.9815 -0.1913 0.1913 0.9815 -8.0291 11.9309)" class="st13" width="1.9" height="14.7"></rect> <ellipse transform="matrix(0.9181 -0.3963 0.3963 0.9181 -17.972 28.3803)" class="st6" cx="59.7" cy="57.7" rx="7.4" ry="7.4"></ellipse> <circle class="st8" cx="59.7" cy="57.7" r="3"></circle> <path class="st6" d="M63,74.5c-5.9,1.2-12-0.9-16-5.3l1.7-1.6c5.5,6.1,14.9,6.5,21,1c1.6-1.4,2.9-3.2,3.7-5.2l2.1,0.9 C73.3,69.6,68.6,73.5,63,74.5z"></path> <path class="st6" d="M59,38.5v-0.1l0,0c-0.3-1.6-1.9-2.7-3.5-2.3c-1.6,0.3-2.7,1.9-2.3,3.5l0,0v0.1l0,0l0,0l1.7,8.5l5.8-1.2 L59,38.5L59,38.5z"></path> <path class="st7" d="M197.6,72.6l52.4-14.4l-66.9-37.9L197.6,72.6z M204.6,60.3l-5.4-19.4L224,55L204.6,60.3z"></path> <rect x="196.6" y="68.6" transform="matrix(0.9639 -0.2664 0.2664 0.9639 -11.1573 55.4524)" class="st1" width="4.4" height="0.5"></rect> <rect x="195.5" y="64.7" transform="matrix(0.9638 -0.2667 0.2667 0.9638 -10.188 54.8319)" class="st1" width="2.6" height="0.5"></rect> <rect x="193.5" y="58.8" transform="matrix(0.9627 -0.2707 0.2707 0.9627 -8.6826 55.1852)" class="st1" width="4.4" height="0.5"></rect> <rect x="193.2" y="56.4" transform="matrix(0.9639 -0.2664 0.2664 0.9639 -8.054 53.8445)" class="st1" width="2.6" height="0.5"></rect> <rect x="192" y="51.9" transform="matrix(0.9638 -0.2667 0.2667 0.9638 -6.8774 53.6906)" class="st1" width="4.4" height="0.5"></rect> <rect x="190.9" y="48" transform="matrix(0.9639 -0.2664 0.2664 0.9639 -5.9152 52.9318)" class="st1" width="2.6" height="0.5"></rect> <rect x="189.7" y="43.6" transform="matrix(0.9639 -0.2664 0.2664 0.9639 -4.7437 52.705)" class="st1" width="4.4" height="0.5"></rect> <rect x="188.6" y="39.7" transform="matrix(0.9639 -0.2664 0.2664 0.9639 -3.7776 52.0161)" class="st1" width="2.6" height="0.5"></rect> <rect x="186.5" y="33.9" transform="matrix(0.9627 -0.2707 0.2707 0.9627 -2.207 52.3661)" class="st1" width="4.4" height="0.5"></rect> <rect x="186.2" y="31.4" transform="matrix(0.9639 -0.2664 0.2664 0.9639 -1.6405 51.0972)" class="st1" width="2.6" height="0.5"></rect> <rect x="185.1" y="26.9" transform="matrix(0.9638 -0.2667 0.2667 0.9638 -0.4569 50.9408)" class="st1" width="4.4" height="0.5"></rect> <path class="st16" d="M130.4,4.4c0.4,1.3,2,7.4,2.9,7.8c1.6,0.6,1.6-1.1,1.4-2.2l1.5-0.6c2.2,7.2-5,8.5-6.4,4 c-0.8-2.6-1.6-5.4-2.3-8l-2,0.8c0.9,2.7,2.8,9,2.2,11.1c-0.7,2.6-5.3,2.6-4.1-1.8c0.9-3.1,0.4-5.5-0.5-8.4c-1.9,0.7-2,1.2-2.3,3.2 l-1.5,0.5c-0.3-3.8-0.3-5.7,3.6-7.2l9.6-3.6l1.2,3.1L130.4,4.4z"></path> </g> </svg> 