<?xml version="1.0" encoding="UTF-8"?> <!-- Generator: Adobe Illustrator 24.2.0, SVG Export Plug-In . SVG Version: 6.00 Build 0) --> <svg xmlns="http://www.w3.org/2000/svg" xmlns:xlink="http://www.w3.org/1999/xlink" version="1.1" id="Layer_1" x="0px" y="0px" viewBox="0 0 770 440" style="enable-background:new 0 0 770 440;" xml:space="preserve"> <style type="text/css"> .st0{fill:#D6E9BD;} .st1{fill:#2E2E2E;} .st2{fill:#3CAFE1;} .st3{fill:#EBF4FB;} .st4{fill:#DCE3EA;} .st5{fill:#BACBE5;} .st6{clip-path:url(#SVGID_2_);} .st7{fill:#02B28D;} .st8{fill:#32BA9F;} .st9{fill:#AFC4DB;} .st10{fill:#BCD0E1;} .st11{fill:#CEE0EF;} .st12{fill:#E4EDF2;} .st13{fill:#FFFFFF;} .st14{fill:#F58457;} .st15{fill:#D6634A;} .st16{fill:#67BD50;} .st17{fill:#1B81C4;} .st18{fill:#087262;} .st19{fill:#D6644B;} .st20{fill:#F58458;} .st21{fill:#F99B1F;} .st22{fill:#4F5E67;} .st23{fill:#5A969C;} .st24{fill:#5FAD6E;} .st25{fill:#055245;} .st26{fill:#FFC73B;} .st27{fill:#1A82C5;} </style> <g> <g id="Layer_11"> <path class="st0" d="M529,50.8c-39.7-0.1-86.2,20.1-159.1-9.7C233.6-14.8,93.6,16.4,95.5,183.7S187,459,331.7,421.5 c106.2-27.5,121.6-99.9,188.6-100.6c124.8-1.2,176.6-82.9,145.3-169.1C634.4,65.6,581.7,50.9,529,50.8z"></path> <path class="st1" d="M243.7,247.7"></path> <path class="st2" d="M566.2,289.7V61.3c0-6-4.8-10.8-10.8-10.8H184.5c-6,0-10.8,4.8-10.8,10.8v228.4H566.2z"></path> <rect x="192" y="69" class="st3" width="356" height="200.5"></rect> <path class="st4" d="M172.9,289.8v33c0,6.4,5.2,11.5,11.5,11.5c0,0,0,0,0,0h371c6.4,0,11.5-5.1,11.5-11.5c0,0,0,0,0,0v-33H172.9z"></path> <path class="st4" d="M437.9,383c0,0-2.9-1.4-6.1-2.7c-3.5-1.3-7.7-3-10.2-4.2c-4.3-2.1-4.7-3.5-6.3-10.6 c-1.8-7.8-3.4-24.2-4.1-31.3h-82.2c-0.7,7.2-2.4,23.5-4.1,31.3c-1.6,7.1-2,8.5-6.3,10.6c-2.4,1.2-6.6,2.8-10.1,4.1l0,0 c-3.3,1.3-6,2.2-6,2.2s-2.7,1.5,1.6,1.7h132.1C440,384.3,437.9,383,437.9,383z"></path> <path class="st5" d="M411.9,343c-0.4-3.4-0.7-6.5-0.9-8.6h-82.1c-0.2,2.2-0.5,5.2-0.9,8.6H411.9z"></path> <g> <defs> <rect id="SVGID_1_" x="194.9" y="19.6" width="347.8" height="249.1"></rect> </defs> <clipPath id="SVGID_2_"> <use xlink:href="#SVGID_1_" style="overflow:visible;"></use> </clipPath> <g class="st6"> <path class="st7" d="M358.8,76.4c0-1.4,1.2-2.6,2.7-2.6c0,0,0,0,0,0L527,74.5c1.5,0,2.6,1.2,2.7,2.6c0,0,0,0,0,0l-1,254.7 c0,1.4-1.2,2.6-2.7,2.6l-165.6-0.6c-1.4,0-2.6-1.2-2.7-2.6L358.8,76.4z"></path> <path class="st7" d="M352.3,74.6c0.2-1.6,1.6-2.8,3.2-2.6h13.9c1.6-0.1,3,1,3.2,2.6l-1,258.2c-0.2,1.6-1.6,2.8-3.2,2.6h-13.9 c-1.6,0.1-3-1-3.2-2.7L352.3,74.6z"></path> <path class="st7" d="M355.2,79.7c-0.3-1.4-1.3-2.6-2.6-3.1L220.1,27.5c-1.5-0.6-8.5,0-8.5,1.5l-1.4,335.9c0,1.5,7.1,2.2,8.5,1.6 l132.9-35.3c1.4-0.5,2.4-1.6,2.7-3L355.2,79.7z"></path> <path class="st8" d="M361.1,79.7c-0.3-1.4-1.3-2.6-2.6-3.1L220.1,27.5c-1.5-0.6-2.7,0-2.7,1.5L216,364.9c0,1.5,1.2,2.2,2.7,1.6 l138.8-35.2c1.4-0.5,2.4-1.6,2.7-3L361.1,79.7z"></path> <polygon class="st9" points="222.7,33.4 366.4,84.3 365.4,326.4 221.4,359.6 "></polygon> <polygon class="st10" points="238,33.4 366.4,78 365.4,328.2 236.7,359.6 "></polygon> <polygon class="st11" points="253.3,33.5 366.4,78 365.4,328.2 252,359.7 "></polygon> <polygon class="st9" points="265.7,38.7 362.6,81.2 361.6,318.3 264.4,347.9 "></polygon> <polygon class="st12" points="269.2,33.6 366.4,78 365.4,328.2 267.9,359.8 "></polygon> <rect x="318.7" y="125" transform="matrix(3.839736e-03 -1 1 3.839736e-03 239.0032 646.3196)" class="st13" width="250.5" height="156.3"></rect> <rect x="391" y="117" class="st4" width="67.3" height="2.9"></rect> <rect x="391" y="125.6" class="st4" width="88.8" height="4.3"></rect> <rect x="391" y="142.7" class="st4" width="97.3" height="4.3"></rect> <rect x="391" y="152.8" class="st4" width="97.3" height="4.3"></rect> <rect x="391" y="161.4" class="st4" width="97.3" height="2.9"></rect> <rect x="391" y="169.9" class="st4" width="97.3" height="4.3"></rect> <rect x="391" y="188.6" class="st4" width="73" height="2.9"></rect> <rect x="391" y="205.7" class="st4" width="97.3" height="4.3"></rect> <rect x="391" y="215.8" class="st4" width="97.3" height="1.4"></rect> <rect x="391" y="222.9" class="st4" width="97.3" height="4.3"></rect> <rect x="391" y="232.9" class="st4" width="97.3" height="4.3"></rect> <rect x="391" y="241.5" class="st4" width="97.3" height="2.9"></rect> <rect x="391" y="250.1" class="st4" width="97.3" height="4.3"></rect> <rect x="391" y="258.7" class="st4" width="97.3" height="4.3"></rect> <rect x="391" y="268.7" class="st4" width="97.3" height="2.9"></rect> <rect x="391" y="277.3" class="st4" width="97.3" height="2.9"></rect> <rect x="391" y="285.9" class="st4" width="97.3" height="4.3"></rect> <rect x="391" y="295.9" class="st4" width="97.3" height="1.4"></rect> <g> <polygon class="st4" points="354.9,120.3 286.7,95.1 286.7,90.1 354.9,116.3 "></polygon> <polygon class="st4" points="354.9,129.7 286.7,106.9 286.7,101.9 354.9,125.7 "></polygon> <polygon class="st4" points="354.9,147 286.7,128.8 286.7,123.8 354.9,143 "></polygon> <polygon class="st4" points="354.9,156.4 286.7,140.6 286.7,135.5 354.9,152.4 "></polygon> <polygon class="st4" points="354.9,164.4 286.7,150.7 286.7,147.3 354.9,161.7 "></polygon> <polygon class="st4" points="354.9,173.7 286.7,162.5 286.7,157.4 354.9,169.7 "></polygon> <polygon class="st4" points="354.9,191.1 286.7,184.4 286.7,181 354.9,188.4 "></polygon> <polygon class="st4" points="354.9,200.5 286.7,196.1 286.7,191.1 354.9,196.5 "></polygon> <polygon class="st4" points="354.9,183.1 286.7,174.3 286.7,169.2 354.9,179.1 "></polygon> <polygon class="st4" points="354.9,137.7 286.7,117 286.7,113.7 354.9,135 "></polygon> <polygon class="st4" points="354.9,209.8 286.7,207.9 286.7,202.9 354.9,205.8 "></polygon> <polygon class="st4" points="354.9,217.8 286.7,218 286.7,214.7 354.9,215.2 "></polygon> <polygon class="st4" points="341.5,227.7 286.7,229.8 286.7,224.8 341.5,223.5 "></polygon> <polygon class="st4" points="354.9,244.5 286.7,251.7 286.7,248.3 354.9,241.9 "></polygon> <polygon class="st4" points="354.9,253.9 286.7,263.5 286.7,258.4 354.9,249.9 "></polygon> <polygon class="st4" points="354.9,263.2 286.7,275.3 286.7,270.2 354.9,259.2 "></polygon> <polygon class="st4" points="354.9,271.3 286.7,285.4 286.7,282 354.9,268.6 "></polygon> <polygon class="st4" points="354.9,280.6 286.7,297.2 286.7,292.1 354.9,276.6 "></polygon> <polygon class="st4" points="354.9,290 286.7,308.9 286.7,303.9 354.9,286 "></polygon> <polygon class="st4" points="334.8,304.2 286.7,319 286.7,315.7 334.8,301.3 "></polygon> </g> </g> </g> <path class="st14" d="M182.9,202.6c3.5-9.5,11.6-17.2,22.2-17.2c11,0,18.7,7.2,22.2,17.2L268,315.4c1,2.4,1.5,5,1.7,7.7 c0,8.1-6.6,13.7-14.3,13.7c-8.7,0-13.1-4.6-15.1-10.8l-6.2-19.5h-57.7l-6.2,19.3c-2.1,6.4-6.4,11-14.9,11 c-8.3,0-15.3-6.2-15.3-14.5c0-2.4,0.5-4.7,1.5-6.8L182.9,202.6z M185.2,277.9h39.4l-19.3-60.1h-0.4L185.2,277.9z"></path> <path class="st15" d="M295.9,254.1c0-10,6.9-15.6,16.4-15.6h39.8c21.6,0,39,14.5,39,36.5c0,14.5-6,24.3-19.3,30.5v0.4 c17.6,2.6,31.5,17.3,31.5,35.3c0,29.2-19.5,45-48.1,45h-42.7c-9.5,0-16.6-6-16.6-15.8V254.1z M327,297.1h16.2 c10.2,0,16.8-6,16.8-16.4c0-9.7-7.7-14.7-16.8-14.7H327V297.1z M327,358.9h24.5c11.2,0,19.5-6.4,19.5-18.1c0-9.7-7.5-16.4-22-16.4 h-22V358.9z"></path> <path class="st14" d="M497,287.4c15.1,0,44.6,5,44.6,23.2c0,7.5-5.2,13.9-12.9,13.9c-8.5,0-14.3-7.3-31.7-7.3 c-25.7,0-39,21.8-39,47.1c0,24.7,13.5,45.8,39,45.8c17.4,0,24.5-8.7,33-8.7c9.3,0,13.7,9.3,13.7,14.1c0,19.9-31.3,24.5-46.7,24.5 c-42.1,0-71.3-33.4-71.3-76.3C425.7,320.5,454.7,287.4,497,287.4z"></path> <path class="st16" d="M443.3,81.1c12.7-7.5,30-0.2,41.8,27.1c2.8,6.5,42.8,90.2,42.9,108.4c-17,1.6-80.8-0.7-97.7,1.2 C445.9,186.1,419.2,95.3,443.3,81.1z"></path> <path class="st17" d="M507.2,116.3c0.7,0.6,5.2-0.4,5.2,9.8c0,5,2.7,6,0.8,7.8c-1.9,1.8-7.5,0.8-7.5,0.8l-5.9-15.9L507.2,116.3z"></path> <path class="st18" d="M493.1,105c2.2-0.8,4.5-1.3,6.9-1.6c2.2,0,9.7,11.2,9.7,11.2l-8.3,5L493.1,105z"></path> <path class="st18" d="M495.2,94.8c0,0-3.2,9.7,6.8,19.3c11.8,11.4,13,23.5,3.4,27.5c-9.6,4-14.8,4.9-17.6,2.2 c-1.5-1.4-10.7-19-19-35.3L495.2,94.8z"></path> <path class="st17" d="M485.8,75.4c2.9,0.8,15.4,20.1,15.4,20.1l-32.5,13.1c-7.4-14.4-22.6-30.8-22.6-30.8S478.7,73.3,485.8,75.4z"></path> <path class="st19" d="M435.4,177.3l8.6,44.9l20.8,60.5c0,0,6.7,7.5,8.3,6.8s-0.7-5.1-0.8-7.1l-0.9-55.6l-2.5-64.6L435.4,177.3z"></path> <path class="st20" d="M470.3,165.6c32.5,8,12.4,59.6,17.3,60.5c17.5,3.5,22.7,22.5,36.5,33.8c-0.8,4.1,0.6,8.2-5.3,6.7 c-8.8-8.5-46.5-30.3-49.9-32c-4.4-2.2-9.6-49.1-9.6-49.1L470.3,165.6z"></path> <path class="st16" d="M443.6,80.5c12.7-7.5,30-0.2,41.8,27.1c2.8,6.5,42.8,90.2,42.9,108.4c-17,1.6-80.8-0.7-97.7,1.2 C446.1,185.7,419.4,94.8,443.6,80.5z"></path> <path class="st16" d="M435.3,174.2c0.2,4.9,0.2,9.7,0.1,14.3h84.6c-1.7-4.6-3.6-9.4-5.7-14.3H435.3z"></path> <path class="st16" d="M505.2,152.5c-9.6-21.9-18.8-41.3-20.1-44.3c-11.8-27.3-29.1-34.7-41.8-27.1c-13.4,7.9-11.1,39.5-9.1,71.4 H505.2z"></path> <path class="st16" d="M434.5,157.7c0.2,3.8,0.4,7.5,0.6,11.2h77.1c-1.6-3.7-3.2-7.5-4.8-11.2H434.5z"></path> <path class="st21" d="M435.3,193.8c-0.5,9.6-1.9,17.9-4.9,24c17-1.8,80.7,0.5,97.7-1.2c0-4.4-2.4-12.7-6.1-22.8H435.3z"></path> <path class="st18" d="M498.4,126.1l-1.1-2.6c-0.3,4.3-3.5,7.8-7.7,8.6c-4.3,0.6-6-0.2-9-3.1c-11.3-11.2-23.3-42.5-17.7-44.7 c2.6-1.1,5.5-1.3,8.3-0.7l-0.3-0.3c-0.4-0.5-0.7-1.2-0.6-1.9c-3.4-0.7-6.8-0.6-9.2,0.9c-9.6,5.9,9.7,49.7,23.2,52.9 C490.7,136.8,498.9,134.5,498.4,126.1z"></path> <path class="st13" d="M471.3,282.4c-0.9,0.9-2.1,1.4-3.4,1.5c-2.4,0.3-3.8-1.5-4.5-0.4c-0.1,0.2-0.3,0.6-0.6,1.1l-0.4-0.3 l-2.9,5.6c-0.9,1.2-2,2.1-3.4,2.6c-3.7,1.1-5.6,3.2-3.3,4.3c2.3,1.1,6.7-0.1,10.2-0.6s12.9-1.2,13.4-1.9s0.3-2.3-0.8-5.7 C474.7,286.3,473.2,284.2,471.3,282.4z"></path> <path class="st13" d="M530,262.1c-2.2-1.5-4.7-2.3-7.4-2.5c0.1,1.5-0.3,3.1-1.1,4.4c-1.3,2.3-3.7,1.8-3.3,3.3 c0.1,0.5,0.3,1,0.5,1.4l-0.5,0.1l2.5,6.4l0,0c0.3,1.3,0.3,2.7-0.1,4c-1.3,3.1-0.9,5.4,1,4.5c2.9-1.6,5.2-4.2,6.5-7.3 c0.9-3.2,5.8-9.2,5.7-10.1S532.7,264.1,530,262.1z"></path> <path class="st22" d="M416.2,55c0,0,11.4,6.2,14-5.7c2.6-11.9-0.4-20.7,5.8-24.3c6.1-3.6,14.6-6.8,22.7-4.6 c1.8,0.5-6.8,2.6-6.8,2.6s31.5,46.1,32.1,53.5s-30.3,2.9-35.2,2.9s-22.3-3.6-22.3-3.6l-1.2-5.4c0,0,4.1,0.9,5.2-0.1 c-3-0.3-5.9-1.1-8.5-2.5C418.3,65.5,416.2,55,416.2,55z"></path> <path class="st20" d="M441.8,64.6c0,0,3.7,14-0.6,18.3c-4.2,4.2,16.2,6.1,16.2-4.4c0-3.7-2.7-19.7-2.7-19.7L441.8,64.6z"></path> <path class="st19" d="M456.8,71.6c-4.4,1.5-8.9,2.2-13.5,2.2c-0.2-3.1-0.7-6.2-1.4-9.2l12.9-5.8C454.7,58.8,456,65.8,456.8,71.6z"></path> <path class="st20" d="M441.3,25.8c-3.4,1.8-5.7,5.3-5.7,11c0,8.7-7.9,22.8,1.2,28.8c3.6,2.4,9.9,3.3,14,1.7 c5.4-2.2,9.3-6.3,12.3-11.2c3.7-6,12.5-6.4,3.2-21.8C461.5,26.3,448.8,21.8,441.3,25.8z"></path> <path class="st22" d="M451.8,22.9c0,0,11.8,20.6,4.1,39.3c-2.9,7-10.4,17.4-10.4,17.4s19.1,0.4,23.3,1.6l2-17.6l2.5,17 c0,0,3.9,1.4,14.8-3.6c10.9-5,10.5-18,10.5-18s-17.7-3.6-19.7-15.9C477,31,464.2,13.8,451.8,22.9z"></path> <path class="st23" d="M463.9,37.3L463.9,37.3c0.9-0.4,1.9-0.3,2.6,0.4l0,0c0.9,0.9,2.3,0.9,3.1,0c0.4-0.4,0.6-0.9,0.7-1.4l0,0 c0.1-1,0.7-1.8,1.7-2l0,0c1.2-0.3,1.9-1.5,1.6-2.7c-0.1-0.5-0.5-1-0.9-1.3l0,0c-0.8-0.5-1.2-1.5-0.9-2.4l0,0 c0.3-1.2-0.4-2.4-1.5-2.7c-0.5-0.1-1.1-0.1-1.6,0.2l0,0c-0.9,0.4-1.9,0.3-2.6-0.4l0,0c-0.8-0.9-2.2-1-3.1-0.1 c-0.4,0.4-0.7,0.9-0.7,1.5l0,0c-0.1,1-0.7,1.8-1.7,2l0,0c-1.2,0.3-1.9,1.5-1.6,2.7c0.1,0.5,0.5,1,0.9,1.3l0,0 c0.8,0.5,1.2,1.5,0.9,2.4l0,0c-0.4,1.1,0.2,2.4,1.3,2.8C462.7,37.7,463.3,37.7,463.9,37.3z"></path> <path class="st0" d="M466.8,34.6L466.8,34.6c0.3-0.4,0.8-0.6,1.3-0.5l0,0c0.7,0.1,1.3-0.3,1.4-1c0-0.2,0-0.4-0.1-0.6l0,0 c-0.2-0.4-0.2-1,0.2-1.3l0,0c0.4-0.5,0.4-1.3-0.2-1.7c-0.2-0.1-0.4-0.2-0.6-0.3l0,0c-0.5,0-0.9-0.4-1.1-0.8l0,0 c-0.2-0.6-0.9-0.9-1.5-0.7c-0.2,0.1-0.4,0.2-0.5,0.4l0,0c-0.3,0.4-0.8,0.6-1.3,0.5l0,0c-0.7-0.1-1.3,0.3-1.4,1 c0,0.2,0,0.4,0.1,0.6l0,0c0.2,0.4,0.1,1-0.2,1.3l0,0c-0.4,0.5-0.4,1.3,0.2,1.7c0.2,0.1,0.4,0.2,0.6,0.3l0,0c0.5,0,0.9,0.4,1.1,0.8 l0,0c0.2,0.6,0.9,0.9,1.6,0.7C466.5,34.9,466.6,34.8,466.8,34.6z"></path> <path class="st20" d="M421.7,135.4c-4.1,3.4-8.2,6.5-12,9.3c-1,0.7-2,1.4-2.9,2.1c-0.6,0.5-1.2,0.9-1.8,1.3 c-1,0.9-2.2,1.6-3.4,2.1c0,0-7.5,5.3-6.1,6.9c0.6,0.6,3.5-2.7,4.3-2.4s-4.5,7.7-3.3,8.3c1.2,0.6,4.5-6.2,5.6-6.7 c1.1-0.4-5.6,7.3-5,8.4c0.5,1.1,7.1-7.8,6.9-7.1c-0.2,0.5-5,7.7-4,7.8c1.8,0.3,4.7-7.1,6-7.6c1.3-0.5-3.7,6.9-2.7,6.9 c2,0.1,4.9-9,8.5-11.3c3.8-2.4,35.5-19.1,45.5-26.4L445.3,115C440.3,120.1,426.5,131.4,421.7,135.4z"></path> <path class="st24" d="M477.2,86.3c-3.2-4.1-7-4.2-11.1-2c-2.8,5.7-6.1,11.2-9.9,16.4c-4.2,5.8-8.6,11.5-13.2,17 c4.5,5.1,9.3,9.9,14.4,14.4c8.4-8.2,17.2-19.8,20.2-25C481.3,100.7,481.2,92.6,477.2,86.3z"></path> <path class="st13" d="M435.1,51.5l14,0.8C449.1,52.3,440.5,72.1,435.1,51.5z"></path> <path class="st25" d="M210.7,125.8c-25.7,11.4-65.2,19.7-89.8,1.5C101.3,112.8,96.7,84,105,61.2c13.5-37,54.4-69.5,95-59.3 c33.4,8.4,65.6,44.5,54.3,80.5C248.1,102.4,230.9,116.8,210.7,125.8z"></path> <rect x="174.8" y="96" transform="matrix(0.9868 -0.1621 0.1621 0.9868 -13.5608 30.86)" class="st21" width="14.9" height="5.1"></rect> <path class="st21" d="M159.2,53.5c-0.4,2.9-0.3,5.9,0.1,8.8c1.8,11.3,9.9,20.4,20.9,23.6c9.4-6.5,14.2-17.8,12.3-29 c-0.5-2.9-1.4-5.8-2.7-8.4L159.2,53.5z"></path> <path class="st21" d="M176.3,81.5l-1.8,0.1c-12.3,0.7-23.2-8.7-25.3-21.9c-0.1-0.5-0.1-0.9-0.2-1.5l-0.1-1.5l22.8-3.7L176.3,81.5 L176.3,81.5z M152.4,59.4c1.9,10.8,10.3,18.6,20.2,19L169,56.7L152.4,59.4L152.4,59.4z"></path> <path class="st21" d="M182.5,80.5l-4.7-28.5l22.8-3.7l0.3,1.5c0.1,0.5,0.2,1,0.3,1.5c2.2,13.2-5.1,25.5-17,28.8L182.5,80.5z M181.5,54.7l3.6,21.7c9.2-3.5,14.7-13.6,13-24.5L181.5,54.7L181.5,54.7z"></path> <rect x="178.5" y="79.6" transform="matrix(0.9868 -0.1621 0.1621 0.9868 -12.1413 30.5075)" class="st21" width="4.8" height="20"></rect> <path class="st21" d="M195.6,99l-0.3-1.6c-0.1-1-0.9-1.7-1.9-1.6l-22.6,3.7c-0.9,0.3-1.5,1.2-1.3,2.2l0.3,1.6L195.6,99z"></path> <path class="st26" d="M159.2,53.5c-0.4,2.9-0.3,5.9,0.1,8.8C161,72.6,168,81.2,177.7,85l1.9,11.4l2.2-0.4l-2.7-16.3L174.3,51 L159.2,53.5z"></path> <path class="st26" d="M174.8,98.9l-3.9,0.6c-0.9,0.3-1.5,1.2-1.3,2.2l0.3,1.6l12.7-2.1l-0.6-3.5l-2.2,0.4L174.8,98.9z"></path> <rect x="167.7" y="100.9" transform="matrix(0.9868 -0.1621 0.1621 0.9868 -15.2249 31.2751)" class="st21" width="32.7" height="16.1"></rect> <rect x="171.5" y="104.7" transform="matrix(0.9868 -0.1621 0.1621 0.9868 -15.2247 31.276)" class="st13" width="25" height="8.4"></rect> <rect x="168.4" y="117.3" transform="matrix(0.9872 -0.1595 0.1595 0.9872 -16.6401 31.2208)" class="st27" width="35.4" height="3.9"></rect> <path class="st26" d="M167.3,28.6c-0.4,0.1-0.7-0.1-0.8-0.5l-2.8-13.7c-0.1-0.4,0.2-0.7,0.5-0.8c0.4-0.1,0.7,0.2,0.8,0.5l2.8,13.6 C167.9,28.1,167.7,28.4,167.3,28.6L167.3,28.6z"></path> <path class="st26" d="M150.9,36.8c-0.2,0-0.5,0-0.6-0.2L141,26.2c-0.2-0.3-0.1-0.7,0.2-0.9c0.3-0.2,0.6-0.2,0.8,0l9.3,10.4 c0.3,0.3,0.3,0.7,0,0.9c0,0,0,0,0,0C151.2,36.7,151.1,36.8,150.9,36.8L150.9,36.8z"></path> <path class="st26" d="M140.8,52.2c-0.1,0-0.2,0-0.3,0l-13.2-4.4c-0.4,0-0.6-0.3-0.6-0.7c0-0.4,0.3-0.6,0.7-0.6 c0.1,0,0.2,0,0.3,0.1l13.2,4.4c0.3,0.1,0.5,0.5,0.4,0.8C141.2,52.1,141,52.2,140.8,52.2L140.8,52.2z"></path> <path class="st26" d="M139.7,70.6L126,73.3c-0.4,0.1-0.7-0.2-0.8-0.5c-0.1-0.4,0.2-0.7,0.5-0.8l13.7-2.8c0.4-0.1,0.7,0.2,0.8,0.5 C140.3,70.1,140,70.5,139.7,70.6L139.7,70.6z"></path> <path class="st26" d="M137.5,96.3c-0.2,0-0.5,0-0.6-0.2c-0.3-0.3-0.3-0.7,0-0.9l10.4-9.3c0.3-0.3,0.7-0.3,0.9,0c0,0,0,0,0,0 c0.3,0.2,0.3,0.6,0,0.9c0,0,0,0,0,0l-10.4,9.3C137.7,96.2,137.6,96.3,137.5,96.3L137.5,96.3z"></path> <path class="st26" d="M158.9,110.4c-0.1,0-0.2,0-0.3,0c-0.3-0.1-0.5-0.5-0.4-0.8l4.4-13.2c0.1-0.3,0.5-0.5,0.8-0.4 c0.3,0.1,0.5,0.5,0.4,0.8c0,0,0,0,0,0l-4.4,13.2C159.3,110.2,159.1,110.3,158.9,110.4L158.9,110.4z"></path> <path class="st26" d="M207.4,100.4c-0.2,0-0.5,0-0.6-0.2l-9.3-10.4c-0.2-0.3-0.2-0.7,0.1-0.9c0.3-0.2,0.7-0.2,0.9,0.1l9.3,10.4 c0.3,0.3,0.3,0.7,0,0.9c0,0,0,0,0,0C207.6,100.3,207.5,100.4,207.4,100.4L207.4,100.4z"></path> <path class="st26" d="M221.5,79c-0.1,0-0.2,0-0.3,0l-13.2-4.4c-0.4,0-0.6-0.3-0.6-0.7c0-0.4,0.3-0.6,0.7-0.6c0.1,0,0.2,0,0.3,0.1 l13.2,4.4c0.3,0.1,0.5,0.5,0.4,0.8C221.9,78.9,221.7,79,221.5,79L221.5,79z"></path> <path class="st26" d="M223,53.4l-13.7,2.8c-0.4,0.1-0.7-0.2-0.8-0.5c-0.1-0.4,0.2-0.7,0.5-0.8l13.7-2.8c0.4-0.1,0.7,0.2,0.8,0.5 C223.6,53,223.3,53.3,223,53.4z"></path> <path class="st26" d="M201.1,39.7c-0.2,0-0.5,0-0.6-0.2c-0.2-0.3-0.2-0.7,0.1-0.9c0,0,0,0,0,0l10.4-9.3c0.3-0.2,0.7-0.2,0.9,0.1 c0.2,0.3,0.2,0.6-0.1,0.9l-10.4,9.3C201.3,39.7,201.2,39.8,201.1,39.7L201.1,39.7z"></path> <path class="st26" d="M185.7,29.7c-0.1,0-0.2,0-0.3,0c-0.3-0.1-0.5-0.5-0.4-0.8l4.4-13.2c0.1-0.3,0.5-0.5,0.8-0.4 c0.3,0.1,0.5,0.5,0.4,0.8l0,0l-4.4,13.2C186.1,29.5,185.9,29.6,185.7,29.7L185.7,29.7z"></path> <path class="st26" d="M167.3,28.6c-0.4,0.1-0.7-0.1-0.8-0.5l-2.8-13.7c-0.1-0.4,0.2-0.7,0.5-0.8c0.4-0.1,0.7,0.2,0.8,0.5l2.8,13.6 C167.9,28.1,167.7,28.4,167.3,28.6L167.3,28.6z"></path> </g> </g> </svg> 