<?xml version="1.0" encoding="UTF-8"?> <!-- Generator: Adobe Illustrator 24.2.0, SVG Export Plug-In . SVG Version: 6.00 Build 0) --> <svg xmlns="http://www.w3.org/2000/svg" xmlns:xlink="http://www.w3.org/1999/xlink" version="1.1" id="Layer_6" x="0px" y="0px" viewBox="0 0 770 440" style="enable-background:new 0 0 770 440;" xml:space="preserve"> <style type="text/css"> .st0{fill:#5B979D;} .st1{clip-path:url(#SVGID_2_);} .st2{fill:#D6E9BD;} .st3{fill:#96CA59;} .st4{fill:#1C81C5;} .st5{fill:#FFFFFF;} .st6{fill:#097363;} .st7{fill:#085346;} .st8{fill:#505E68;} .st9{fill:#F58458;} </style> <g> <path class="st0" d="M503.19,11.56c-39.59,7.5-82.07,36.56-160.45,20.67C196.12,2.56,62.59,60.38,96.39,226.87 s143.8,256.98,280.92,191.93c100.66-47.74,102.12-122.85,168.78-136.28c124.18-25.04,160.2-116.35,112.6-196.33 C611.08,6.21,555.82,1.57,503.19,11.56z"></path> <g> <defs> <path id="SVGID_1_" d="M595.21,84.24C584.4,41.17,556.97,7.05,502.13,2.72c-84.87-6.66-215.43,2.63-276.27,71.69 c-39.04,44.36-41.33,108.8-54.65,166.39c-6.2,26.81-15.21,54.73-7.67,81.2c11.4,39.98,57.12,66.44,93.29,80.86 c46.6,18.59,98.94,22.96,147.85,11.57c51.45-12.06,98.46-41.52,132.45-81.89c26.41-31.41,39.19-71.02,50.72-109.74 C599.94,182.28,606.34,128.53,595.21,84.24z"></path> </defs> <clipPath id="SVGID_2_"> <use xlink:href="#SVGID_1_" style="overflow:visible;"></use> </clipPath> <g class="st1"> <rect x="42.26" y="-31.49" transform="matrix(0.8972 -0.4417 0.4417 0.8972 -44.7605 188.3359)" class="st2" width="679.73" height="443.6"></rect> <polygon class="st3" points="394.8,369.82 377.05,440.02 308,474.01 207.77,430.63 240.06,302.87 "></polygon> <polygon class="st3" points="748.3,164.65 640.05,310.56 580.69,339.79 490.46,300.74 547.53,74.92 746.51,161.02 "></polygon> <polygon class="st3" points="323.73,-28.15 253.43,249.98 150.04,201.83 167.72,118.58 197.39,119.67 222.11,21.87 "></polygon> <path class="st4" d="M752.15,172.53l23.14,46.99c-9.89,12.71-20.16,25.95-30.62,39.53l-94.54,46.53 C684.54,259.65,720.8,212.66,752.15,172.53z"></path> <path class="st5" d="M746.66,161.3l6.26,12.72c-5.32,6.8-10.63,13.6-15.92,20.41c-28.28,36.38-56.51,72.88-84.23,109.87 l-24.97,12.3c38.66-52.26,78.36-103.55,118.26-154.57L746.66,161.3z"></path> <path class="st5" d="M775.11,219.01l6.26,12.73c-3.94,5-7.86,10.02-11.77,15.05l-26.02,12.8 C754.03,246.02,764.54,232.49,775.11,219.01z"></path> <path class="st5" d="M604.79-126.9l-8.26-16.77L571.42-44.3l-57.14-24.72c5.08-20.15,10.17-40.3,15.27-60.45l-14.27,7.04 L503-73.89l-45.93-19.83l-14.27,7.03l43.31,18.73l13.93,6.03c-1.42,5.47-2.82,10.95-4.21,16.44c-0.13,0.53-0.26,1.06-0.39,1.57 c-24.79-10.72-49.57-21.43-74.34-32.15l-14.26,7.02l71.68,31l13.92,6.02c-12.16,48.07-24.31,96.15-36.44,144.23 c-0.48,1.85-0.94,3.72-1.42,5.57L322.93,60.82l-13.96-6.03c7.29-28.82,14.57-57.64,21.81-86.45l-14.27,7.03l-17.36,68.98 c-9.95,39.38-19.9,78.77-29.85,118.18c-1.47,5.88-2.95,11.76-4.45,17.66c-3.06,12.02-6.1,24.04-9.12,36.06 c-0.76,2.99-1.5,5.97-2.3,8.96c-1.38,5.42-3.03,10.83-4.34,16.32l-42.48-18.37l-34.81-15.06c-6.89-3-18.04-5.59-16.4-16.26 c0.77-4.97,2.49-9.85,3.71-14.65c2.72-10.77,5.44-21.55,8.17-32.34c4.06-16.07,8.13-32.15,12.2-48.22 c1.93-7.67-9.32-12.55-11.26-4.88c-4.44,17.57-9,35.1-13.49,52.67c-24.9-17.53-49.81-35.05-74.72-52.56l-11.98,5.9l37.82,26.59 l-23.53,93.22L65.02,286l-18.55-8.04l8.26,16.77l7.29,3.15l-1.94,7.7l8.24,16.76l1.62-6.4l3.34-13.2l3.51,1.53L196.3,356 l21.7,9.38l-14.36,56.87l-9.76-4.23c-6.53-2.82-13.62-6.81-20.44-6.29c-9.55,0.72-15.28,7.81-17.77,17.22 c-1.84,6.89-2.43,17.81-9.81,19.78c-3.79,1.01-7.31-0.93-10.98-2.51l-7.1-3.08l8.24,16.75c7.29,2.85,14.71,2.68,20.55-1.95 c6.41-5.1,7.73-13.78,9.78-21.94c1.92-7.59,5.55-13.64,14.17-10.59c1.68,0.59,3.33,1.44,4.97,2.15l15.12,6.54 c-5.74,22.75-11.48,45.49-17.22,68.22c-3.01,11.83-6,23.68-8.99,35.53l0.75,1.5l12.99-6.4l1.7-6.72 c7.35-29.09,14.7-58.17,22.06-87.26l1.86,0.83c26.31,11.37,52.61,22.74,78.9,34.13l-2.2,8.68l24.67-12.15l-89.1-38.55 l-11.14-4.82c4.81-19.07,9.63-38.15,14.46-57.22l0.98-3.87c0.58-1.05,0.88-2.24,0.86-3.44c4.34-17.13,8.67-34.26,13-51.39 l145.55,62.99c-5.72,22.68-11.46,45.35-17.22,68l14.27-7.02l1.15-4.34l4.1,1.78l14.27-7.03l-15.36-6.65 c2.51-9.95,5.03-19.92,7.55-29.91l4.03-15.92c0.71-3.41-0.99-6.87-4.13-8.38l-137.28-59.35l-13.92-6.03 c3.44-13.66,6.89-27.31,10.33-40.97l131.63,56.96c6.51,2.82,13.01,5.64,19.52,8.46l2.54,1.15l65.86,28.5 c2.56,1.19,5.6,0.08,6.79-2.48c0.15-0.33,0.27-0.68,0.35-1.04c2.22-8.75,4.43-17.49,6.64-26.24l3.66-14.51 c26.32,11.37,52.64,22.77,78.97,34.18l14.26-7.03l-81.09-35.11l-9.19-3.94l37.36-147.82c5.56-22.03,11.14-44.07,16.72-66.11 l175.15,75.78l22.86,9.87c0.3,0.13,0.6,0.24,0.92,0.32l-8.2-16.66c-13.43-5.81-26.86-11.62-40.29-17.43 c3.58-14.19,7.17-28.37,10.76-42.55l-8.42-17.11c-4.8,18.15-9.58,36.34-13.71,54.72l-54.74-23.67 c9.48-37.46,18.94-74.93,28.4-112.4l-8.13-16.76l-3.44,13.46L582.67-39.4c5.61-22.2,11.22-44.39,16.82-66.59 C601.26-112.94,603.03-119.93,604.79-126.9z M222.92,346.01c-0.64,2.51-1.27,5.02-1.91,7.53L76.29,290.9 c10.98-43.51,21.98-87.03,32.99-130.53c2.41-9.54,4.83-19.09,7.24-28.62l19.85,13.97l15.3,10.77 c-2.39,9.53-4.76,19.06-7.04,28.62c-3.44,14.12,3.87,26.09,16.56,31.57l26.54,11.48l58.56,25.33 C238.5,284.31,230.71,315.15,222.92,346.01z M305.58,68.3l0.4-1.57l131.63,56.96l13.93,6.03c-1.53,6.03-3.06,12.06-4.59,18.08 c-43.87-19.01-87.74-37.99-131.63-56.96c-4.64-2.02-9.28-4.03-13.93-6.03c1.44-5.53,2.81-11.05,4.21-16.54L305.58,68.3z M405.65,309.27l-89.36-38.67l-41.77-18.11l-13.93-6.03c1.05-4.11,2.09-8.23,3.12-12.35c3.06-12.01,6.1-24.02,9.12-36.04 l2.15-8.53c1.78-7,4.05-14.02,5.37-21.22l18.11-71.67l131.65,56.98l13.92,6c-7.44,29.46-14.88,58.93-22.33,88.41 c-3.83,15.01-7.62,30.02-11.39,45.03C408.97,298.18,406.85,303.75,405.65,309.27z M503.62,223.96 c-6.8,26.85-13.59,53.7-20.37,80.54c-2.14,8.49-4.29,16.97-6.44,25.44c-0.75,2.95-1.75,5.96-2.5,9l-56.94-24.63 c4.07-16.13,8.15-32.26,12.24-48.39c10.93-43.27,21.87-86.54,32.81-129.82l0.39-1.57l57.14,24.72 c-5.45,21.58-10.9,43.14-16.34,64.7L503.62,223.96z M531.42,113.94c-2.82,11.14-5.63,22.3-8.45,33.46l-57.14-24.72 c12.15-48.08,24.3-96.16,36.45-144.24l8.99-35.59l57.18,24.75c-1.61,6.35-3.21,12.73-4.82,19.08L531.42,113.94z M649.68,2.8 c-0.42,1.7-0.85,3.44-1.29,5.1c-7.87,31.27-15.76,62.54-23.69,93.83L554.67,71.4c3.88-15.31,7.75-30.62,11.62-45.93 c4.46-17.64,8.92-35.3,13.39-52.98L649.68,2.8z M34.09,169.28c1.93-7.65-9.33-12.53-11.26-4.87 c-3.66,14.47-7.31,28.93-10.96,43.39l8.26,16.77l3.36-13.31c3.56-13.99,7.11-27.99,10.67-42L34.09,169.28z"></path> <path class="st5" d="M344.15,350.11c-4.08,4.1-8.15,8.17-12.2,12.27c-3.73,3.75-7.46,7.49-11.21,11.24 c12.72,13.13,25.44,26.27,38.14,39.42c0.98,1.17,1.35,2.73,1,4.21c-2.02,8.01-4.05,16.02-6.07,24.03l11.01,4.75l-9.51,4.68 l-3.5-1.52l-0.94,3.7l-9.52,4.68c3.47-13.66,6.91-27.34,10.33-41.03l-18.86-19.52c-6.24,24.62-12.47,49.25-18.69,73.91 l-8.77,4.33c-0.23-0.8-0.23-1.64,0-2.43c6.97-27.56,13.94-55.11,20.9-82.67l-10.86-11.22l-69.85,70.17 c-3.44,3.44-8.92-3.33-5.47-6.8c4.06-4.1,8.13-8.17,12.2-12.27l16.68-16.76l-51.23-22.16c-4.83-2.09-2.81-10.02,2.01-7.93 c18.45,7.99,36.9,15.97,55.34,23.94l20.84-20.92c-2.17-10.77-4.66-21.6-6.37-32.38c-0.65-4.13,0.54-7.28,1.49-11.1 c1.36-5.36,2.72-10.72,4.08-16.07c1.3-5.12,8.81-1.86,7.51,3.25c-1.3,5.11-2.61,10.33-3.92,15.49c-0.54,2.15-0.83,4.97-1.71,6.98 c0.08,0.46,0.16,0.92,0.25,1.37c1.96,8.61,3.54,17.31,5.17,25.97l36.27-36.43C342.14,339.84,347.6,346.63,344.15,350.11z"></path> <path class="st5" d="M280.41-6.83l-8.19,4.03c-2.49,30.9-4.99,61.8-7.51,92.69c-0.72,8.97-1.45,17.94-2.18,26.91l-5.84,1.88 c-4.03,1.29-8.85,1.87-12.51,4.02l-42.26-4.59c8.23-32.52,16.45-65.05,24.67-97.59h0.06l0.26-1.01l-9.6,4.72l-6.82,26.98 l-16.67,65.95l-26.07-2.84c-4.98-0.54-4.95,7.96,0.07,8.51l70.42,7.67l-33.55,64.59c-4.12,7.95-8.24,15.89-12.37,23.84 c-2.3,4.49,4.36,9.75,6.69,5.25c9.78-18.87,19.57-37.72,29.36-56.55l16.57-31.87c0.16-0.33,2.14-3.54,2.88-5.19 c2.3-0.54,4.59-1.42,6.89-2.14l34.38-10.78c4.59-1.44,2.57-9.94-2.06-8.5l-16.34,5.12c2.02-24.92,4.04-49.85,6.06-74.79 C277.95,24.05,279.17,8.61,280.41-6.83z M248,129.96c0-0.14,0.07-0.24,0-0.3C247.93,129.6,248.12,129.85,248,129.96z"></path> <path class="st5" d="M478.12,49.28c4.83,2.09,6.89-5.83,2.01-7.92l-40.46-17.51c6.48-25.63,12.95-51.27,19.44-76.93 c1.29-5.1-6.22-8.36-7.51-3.24c-6.48,25.63-12.95,51.27-19.44,76.93l-89.3-38.66l-19.52-8.46c-4.83-2.09-6.89,5.84-2.01,7.93 l39.62,17.14c-6.62,26.15-13.23,52.28-19.84,78.41c-1.29,5.11,6.22,8.37,7.51,3.25c6.61-26.13,13.22-52.27,19.82-78.41 l90.14,39.04L478.12,49.28z"></path> <path class="st5" d="M403.12,135.39c-6.6,26.14-13.2,52.27-19.82,78.41l-89.26-38.63l-19.52-8.46c-4.83-2.09-6.89,5.83-2.01,7.92 l39.62,17.15l-19.43,76.93c-1.3,5.11,6.21,8.36,7.51,3.25l19.43-76.93l90.14,39.04l19.52,8.46c4.83,2.09,6.89-5.84,2.01-7.93 l-40.46-17.51l19.82-78.41C411.95,133.54,404.45,130.28,403.12,135.39z"></path> <polygon class="st5" points="203.64,235.04 211.15,238.28 185.87,338.31 178.36,335.06 "></polygon> <polygon class="st5" points="128.36,318.53 135.86,321.78 112.84,412.84 107.34,401.65 "></polygon> <polygon class="st5" points="408.21,317.67 415.71,320.92 390.44,420.93 382.93,417.68 "></polygon> <path class="st5" d="M692.24,135.31c-18.93,18.6-35.88,39.71-52.11,61.33c-3.43-7.19-6.85-14.39-10.26-21.6 c-2.66-5.57-5.3-11.14-7.93-16.69c-0.26-0.53-0.49-1.03-0.71-1.5c3.79-15.04,7.59-30.08,11.39-45.12c1.3-5.1-6.21-8.35-7.5-3.24 l-10.74,42.41c-5.9-2.97-12.49-5.03-18.37-7.57l-36.74-15.89l-22.58-9.77c-4.82-2.09-6.89,5.83-2,7.93l52.98,22.93 c8.61,3.74,17.29,8.16,26.03,11.26c0.11,0,0.45,0.23,0.8,0.42c1.53,4.59,4.43,9.3,6.52,13.69c4.68,9.85,9.36,19.71,14.04,29.58 c-4.29,5.79-8.55,11.58-12.78,17.39c-6.05,8.29-12.04,16.63-17.98,25.03l-1.34-0.57l-15.09-6.52l-73.7-31.88 c-4.83-2.09-6.89,5.83-2,7.93l67.24,29.08c1.15,0.48,12.92,6.05,19.91,9.01c-12.63,18-25.04,36.2-37.22,54.58 c-3.95,5.96-7.91,11.94-11.79,17.96c-2.73,4.21,3.98,9.43,6.69,5.25c15.53-24.06,31.47-47.84,47.83-71.31 c0.31,0.72,0.62,1.44,0.9,2.14l8.85,22.12l13.17,32.96l6.73-3.31c-3.77-9.42-7.53-18.84-11.29-28.27 c-3.11-7.76-6.22-15.53-9.33-23.3c-1.15-3.01-2.22-6.77-3.67-9.95c15.99-22.6,32.46-44.78,49.52-66.25 c4.23-5.36,8.53-10.64,12.88-15.84c10.59,17.6,21.17,35.24,31.76,52.92c2.89,4.81,9.64,1.55,6.72-3.32 c-11.13-18.53-22.25-37.07-33.38-55.63c6.43-7.47,13.05-14.71,20.04-21.56C701.2,138.7,695.73,131.88,692.24,135.31z M615.26,160.57c0.17,0.09,0.36,0.14,0.55,0.14C615.64,160.79,615.52,160.72,615.26,160.57z"></path> <polygon class="st5" points="643.03,60.44 641.03,68.37 495.47,5.38 497.47,-2.55 "></polygon> <polygon class="st5" points="498.88,263.8 496.87,271.73 351.31,208.74 353.32,200.81 "></polygon> </g> </g> <path class="st6" d="M404.53,40.99c-11.95,0.02-21.62,9.72-21.6,21.67c0,0,0,0.01,0,0.01c0,11.96,21.71,30.37,21.71,30.37 s21.61-18.5,21.59-30.45c-0.03-11.95-9.74-21.62-21.69-21.6C404.54,40.99,404.53,40.99,404.53,40.99z M404.6,73.37 c-5.94,0.01-10.76-4.79-10.77-10.72c-0.01-5.94,4.79-10.76,10.72-10.77c5.94-0.01,10.76,4.79,10.77,10.72c0,0,0,0.01,0,0.01 C415.33,68.54,410.53,73.35,404.6,73.37z"></path> <path class="st7" d="M404.53,40.99h-0.4v9.85h0.4c6.51-0.2,11.95,4.91,12.15,11.42c0.2,6.51-4.91,11.95-11.42,12.15 c-0.25,0.01-0.49,0.01-0.74,0h-0.4v18.28l0.4,0.36c0,0,21.61-18.5,21.58-30.45C426.09,50.68,416.45,41.02,404.53,40.99z"></path> <path class="st5" d="M404.6,73.37c-5.94,0.01-10.76-4.79-10.77-10.72c-0.01-5.94,4.79-10.76,10.72-10.77 c5.94-0.01,10.76,4.79,10.77,10.72c0,0,0,0.01,0,0.01C415.33,68.54,410.53,73.35,404.6,73.37z"></path> <path class="st5" d="M404.55,51.88c5.93-0.19,10.9,4.46,11.09,10.39s-4.46,10.9-10.39,11.09c-0.23,0.01-0.47,0.01-0.7,0V51.88z"></path> <path class="st6" d="M260.31,326.75c-11.95,0.01-21.62,9.71-21.61,21.65c0,0.01,0,0.02,0,0.02c0,11.96,21.71,30.37,21.71,30.37 s21.61-18.5,21.58-30.45c-0.02-11.95-9.72-21.62-21.67-21.6C260.33,326.75,260.32,326.75,260.31,326.75z M260.38,359.13 c-5.94,0.01-10.76-4.79-10.77-10.72c-0.01-5.94,4.79-10.76,10.72-10.77c5.94-0.01,10.76,4.79,10.77,10.72c0,0,0,0.01,0,0.01 C271.11,354.3,266.31,359.11,260.38,359.13z"></path> <path class="st7" d="M260.31,326.75h-0.4v9.85h0.4c6.51-0.2,11.95,4.91,12.15,11.42c0.2,6.51-4.91,11.95-11.42,12.15 c-0.25,0.01-0.49,0.01-0.74,0h-0.4v18.28l0.4,0.36c0,0,21.61-18.5,21.59-30.45C281.88,336.44,272.23,326.77,260.31,326.75z"></path> <path class="st5" d="M260.38,359.13c-5.94,0.01-10.76-4.79-10.77-10.72c-0.01-5.94,4.79-10.76,10.72-10.77 c5.94-0.01,10.76,4.79,10.77,10.72c0,0,0,0.01,0,0.01C271.11,354.3,266.31,359.11,260.38,359.13z"></path> <path class="st5" d="M260.33,337.64c5.93-0.19,10.9,4.46,11.09,10.39c0.19,5.93-4.46,10.9-10.39,11.09c-0.23,0.01-0.47,0.01-0.7,0 V337.64z"></path> <path class="st6" d="M469.03,296.29c-11.95,0.02-21.63,9.72-21.61,21.68c0,0,0,0.01,0,0.01c0.02,11.96,21.71,30.33,21.71,30.33 s21.61-18.5,21.59-30.45C490.68,305.92,480.98,296.26,469.03,296.29z M469.1,328.67c-5.94,0.01-10.76-4.79-10.77-10.72 c-0.01-5.94,4.79-10.76,10.72-10.77c5.94-0.01,10.76,4.79,10.77,10.72c0,0,0,0.01,0,0.01c0.01,5.93-4.78,10.75-10.71,10.76 C469.11,328.67,469.1,328.67,469.1,328.67z"></path> <path class="st7" d="M469.03,296.29h-0.4v9.85h0.4c6.51-0.2,11.95,4.91,12.15,11.42c0.2,6.51-4.91,11.95-11.42,12.15 c-0.25,0.01-0.49,0.01-0.74,0h-0.4v18.28l0.4,0.36c0,0,21.61-18.5,21.58-30.45C490.6,305.98,480.95,296.32,469.03,296.29z"></path> <path class="st5" d="M469.1,328.67c-5.94,0.01-10.76-4.79-10.77-10.72c-0.01-5.94,4.79-10.76,10.72-10.77 c5.94-0.01,10.76,4.79,10.77,10.72c0,0,0,0.01,0,0.01c0.01,5.93-4.78,10.75-10.71,10.76C469.11,328.67,469.1,328.67,469.1,328.67z"></path> <path class="st5" d="M469.05,307.18c5.93-0.19,10.9,4.46,11.09,10.39c0.19,5.93-4.46,10.9-10.39,11.09c-0.23,0.01-0.47,0.01-0.7,0 V307.18z"></path> <path class="st6" d="M210.15,248.81c-11.95,0.01-21.62,9.71-21.61,21.65c0,0.01,0,0.02,0,0.02c0,11.96,21.71,30.37,21.71,30.37 s21.61-18.5,21.59-30.45C231.81,258.46,222.1,248.79,210.15,248.81C210.15,248.81,210.15,248.81,210.15,248.81z M210.15,281.19 c-5.94,0.01-10.75-4.8-10.76-10.74c-0.01-5.94,4.8-10.75,10.74-10.76c5.94-0.01,10.75,4.8,10.76,10.74 c0.01,5.91-4.75,10.71-10.65,10.76H210.15z"></path> <path class="st7" d="M210.15,248.81h-0.4v9.85h0.4c6.51-0.22,11.96,4.88,12.18,11.39c0.22,6.51-4.88,11.96-11.39,12.18 c-0.24,0.01-0.49,0.01-0.73,0h-0.4v18.28l0.4,0.36c0,0,21.61-18.5,21.59-30.45C231.77,258.48,222.09,248.81,210.15,248.81z"></path> <path class="st5" d="M210.23,281.19c-5.94,0.01-10.75-4.8-10.76-10.74c-0.01-5.94,4.8-10.75,10.74-10.76 c5.94-0.01,10.75,4.8,10.76,10.74c0.01,5.93-4.78,10.75-10.71,10.76C210.24,281.19,210.24,281.19,210.23,281.19z"></path> <path class="st5" d="M210.23,259.71c5.93-0.19,10.9,4.46,11.09,10.39c0.19,5.93-4.46,10.9-10.39,11.09c-0.23,0.01-0.47,0.01-0.7,0 V259.71z"></path> <path class="st6" d="M363.32,202.23c-11.95,0.02-21.62,9.72-21.6,21.67c0,0,0,0.01,0,0.01c0,11.96,21.71,30.37,21.71,30.37 s21.61-18.5,21.59-30.45c-0.02-11.95-9.72-21.62-21.67-21.6C363.35,202.23,363.33,202.23,363.32,202.23z M363.39,234.61 c-5.94,0.01-10.76-4.79-10.77-10.72s4.79-10.76,10.72-10.77c5.94-0.01,10.76,4.79,10.77,10.72c0.03,5.94-4.75,10.77-10.69,10.8 c-0.01,0-0.02,0-0.03,0V234.61z"></path> <path class="st7" d="M363.32,202.23h-0.4v9.85h0.4c6.51-0.2,11.95,4.91,12.15,11.42c0.2,6.51-4.91,11.95-11.42,12.15 c-0.25,0.01-0.49,0.01-0.74,0h-0.4v18.28l0.4,0.36c0,0,21.61-18.5,21.59-30.45C384.89,211.92,375.24,202.26,363.32,202.23z"></path> <path class="st5" d="M363.39,234.65c-5.94,0.01-10.76-4.79-10.77-10.72c-0.01-5.94,4.79-10.76,10.72-10.77 c5.94-0.01,10.76,4.79,10.77,10.72C374.13,229.81,369.33,234.63,363.39,234.65L363.39,234.65z"></path> <path class="st5" d="M363.34,213.13c5.93-0.19,10.9,4.46,11.09,10.39s-4.46,10.9-10.39,11.09c-0.23,0.01-0.47,0.01-0.7,0V213.13z"></path> <path class="st6" d="M361.53,123.4c-11.94,0.04-21.59,9.75-21.56,21.69c0,11.96,21.71,30.37,21.71,30.37s21.61-18.5,21.59-30.45 c-0.02-11.95-9.72-21.63-21.68-21.61C361.57,123.4,361.55,123.4,361.53,123.4z M361.6,155.78c-5.94,0.01-10.76-4.79-10.77-10.72 c-0.01-5.94,4.79-10.76,10.72-10.77c5.94-0.01,10.76,4.79,10.77,10.72c0,0,0,0.01,0,0.01C372.33,150.95,367.53,155.77,361.6,155.78 z"></path> <path class="st7" d="M361.53,123.4h-0.4v9.85h0.4c6.51-0.2,11.95,4.91,12.15,11.42c0.2,6.51-4.91,11.95-11.42,12.15 c-0.25,0.01-0.49,0.01-0.74,0h-0.4v18.28l0.41,0.36c0,0,21.61-18.5,21.58-30.45C383.11,133.09,373.45,123.43,361.53,123.4z"></path> <path class="st5" d="M361.6,155.78c-5.94,0.01-10.76-4.79-10.77-10.72c-0.01-5.94,4.79-10.76,10.72-10.77 c5.94-0.01,10.76,4.79,10.77,10.72c0,0,0,0.01,0,0.01C372.33,150.95,367.53,155.77,361.6,155.78z"></path> <path class="st5" d="M361.55,134.3c5.93-0.19,10.9,4.46,11.09,10.39c0.19,5.93-4.46,10.9-10.39,11.09c-0.23,0.01-0.47,0.01-0.7,0 V134.3z"></path> <path class="st6" d="M299.78,137.73c-11.95,0.02-21.63,9.72-21.61,21.68c0,0,0,0.01,0,0.01c0,11.95,21.71,30.36,21.71,30.36 s21.61-18.5,21.59-30.45C321.45,147.37,311.74,137.71,299.78,137.73C299.78,137.73,299.78,137.73,299.78,137.73z M299.78,170.12 c-5.94,0.01-10.76-4.79-10.77-10.72c-0.01-5.94,4.79-10.76,10.72-10.77c5.94-0.01,10.76,4.79,10.77,10.72 C310.52,165.29,305.72,170.11,299.78,170.12L299.78,170.12z"></path> <path class="st7" d="M299.78,137.73h-0.4v9.85h0.4c6.51-0.01,11.8,5.27,11.8,11.78c0.01,6.51-5.27,11.8-11.78,11.8 c-0.01,0-0.01,0-0.02,0h-0.4v18.28l0.4,0.36c0,0,21.61-18.5,21.58-30.45C321.36,147.43,311.71,137.76,299.78,137.73z"></path> <path class="st5" d="M299.78,170.12c-5.94,0.01-10.76-4.79-10.77-10.72c-0.01-5.94,4.79-10.76,10.72-10.77 c5.94-0.01,10.76,4.79,10.77,10.72C310.52,165.29,305.72,170.11,299.78,170.12L299.78,170.12z"></path> <path class="st5" d="M299.78,148.64c5.93-0.19,10.9,4.46,11.09,10.39c0.19,5.93-4.46,10.9-10.39,11.09c-0.23,0.01-0.47,0.01-0.7,0 V148.64z"></path> <path class="st8" d="M334.97,279.93h75.12c3.82,0,6.91,3.09,6.91,6.91v82.72c0,3.82-3.09,6.91-6.91,6.91h-75.12 c-3.82,0-6.91-3.09-6.91-6.91v-82.72C328.06,283.02,331.16,279.93,334.97,279.93z"></path> <g id="_0"> <path class="st5" d="M395.16,294.92H364.3c-1.43,0-2.8,0.6-3.77,1.66l-14.52,14.93c-0.93,1.04-1.46,2.39-1.48,3.79v38.06 c-0.06,3.02,2.35,5.52,5.37,5.58c0,0,0,0,0,0h45.18c3.03-0.09,5.45-2.55,5.49-5.58v-52.81c0.09-3.02-2.28-5.53-5.3-5.62 C395.23,294.92,395.2,294.92,395.16,294.92z M363.62,299.91L363.62,299.91l0.1,14.1c-0.02,0.37-0.31,0.68-0.68,0.71h-13.78 L363.62,299.91z M395.85,353.36c0.02,0.44-0.33,0.82-0.77,0.84c-0.01,0-0.02,0-0.04,0H349.9c-0.44,0-0.8-0.36-0.8-0.8 c0-0.01,0-0.02,0-0.04v-35.67h13.84c1.97-0.09,3.53-1.71,3.54-3.69v-14.34h28.61c0.44-0.01,0.8,0.34,0.8,0.78 c0,0.02,0,0.03,0,0.05L395.85,353.36z"></path> <path class="st9" d="M386.71,326.58c0.79,0,1.42-0.64,1.42-1.42c0-0.79-0.64-1.42-1.42-1.42h-28.23 c-0.75,0.06-1.34,0.67-1.38,1.42c0,0.77,0.61,1.4,1.38,1.42L386.71,326.58"></path> <path class="st9" d="M386.71,335.68c0.79,0,1.42-0.64,1.42-1.42c0-0.79-0.64-1.42-1.42-1.42h-28.23 c-0.75,0.06-1.34,0.67-1.38,1.42c0,0.77,0.61,1.4,1.38,1.42L386.71,335.68"></path> <path class="st9" d="M386.71,344.87c0.79,0,1.42-0.64,1.42-1.42c0-0.79-0.64-1.42-1.42-1.42h-28.23 c-0.75,0.06-1.34,0.67-1.38,1.42c0,0.77,0.61,1.4,1.38,1.42L386.71,344.87"></path> </g> <path class="st8" d="M362.52,376.03l7.02,17.13c0.57,1.38,2.15,2.03,3.52,1.46c0.71-0.29,1.26-0.88,1.52-1.6l6.29-18.07"></path> <path class="st8" d="M202.01,0h75.12c3.82,0,6.91,3.09,6.91,6.91v82.72c0,3.82-3.09,6.91-6.91,6.91h-75.12 c-3.82,0-6.91-3.09-6.91-6.91V6.91C195.1,3.09,198.19,0,202.01,0z"></path> <path class="st9" d="M239.35,38.73l8.91,9.19c2.18-2.36,3.41-5.44,3.44-8.66c-0.25-6.63-5.82-11.8-12.45-11.55 c-6.63,0.25-11.8,5.82-11.55,12.45c0.24,6.37,5.41,11.44,11.77,11.56V38.73H239.35z"></path> <path class="st5" d="M240.94,53.42V42.91l7.18,7.44l-0.23,0.23c-1.7,1.78-4.05,2.81-6.51,2.85H240.94z"></path> <path class="st5" d="M236.26,63.26c0.85-0.01,1.53-0.69,1.53-1.54c0.02-0.71-0.54-1.3-1.25-1.32c-0.08,0-0.16,0-0.23,0.01h-13.77 c-0.75,0.06-1.33,0.67-1.37,1.42c-0.01,0.77,0.6,1.4,1.37,1.42L236.26,63.26"></path> <path class="st5" d="M236.26,69.67c0.83-0.01,1.5-0.67,1.53-1.5c0.01-0.71-0.55-1.3-1.26-1.31c-0.07,0-0.15,0-0.22,0.01h-13.77 c-0.75,0.06-1.33,0.67-1.37,1.42c-0.01,0.77,0.6,1.4,1.37,1.42h13.72"></path> <path class="st5" d="M256.49,63.26c0.83-0.03,1.48-0.71,1.48-1.54c0.02-0.71-0.54-1.3-1.25-1.32c-0.08,0-0.16,0-0.23,0.01h-13.78 c-0.75,0.06-1.33,0.67-1.37,1.42c0,0.76,0.6,1.39,1.37,1.42H256.49"></path> <path class="st5" d="M256.49,69.67c0.81-0.03,1.46-0.69,1.48-1.5c0.02-0.7-0.53-1.29-1.23-1.31c-0.08,0-0.17,0-0.25,0.02h-13.78 c-0.75,0.06-1.33,0.67-1.37,1.42c0,0.76,0.6,1.39,1.37,1.42h13.78"></path> <path class="st5" d="M260.6,15.49h-42.06c-3.9,0.04-7.03,3.24-6.98,7.14c0,0.03,0,0.06,0,0.09v49.55c-0.1,3.9,2.99,7.14,6.89,7.23 c0.03,0,0.06,0,0.09,0h42.06c3.9-0.04,7.03-3.24,6.98-7.14c0-0.03,0-0.06,0-0.09V22.72c0.1-3.9-2.99-7.14-6.89-7.23 C260.66,15.49,260.63,15.49,260.6,15.49z M263.04,72.28c0.06,1.32-0.96,2.43-2.28,2.49c-0.04,0-0.08,0-0.12,0h-42.1 c-1.33,0.01-2.41-1.06-2.41-2.39c0-0.04,0-0.07,0-0.11V22.72c-0.05-1.32,0.98-2.44,2.31-2.49c0.04,0,0.07,0,0.11,0h42.06 c1.32-0.03,2.41,1.01,2.45,2.33c0,0.05,0,0.11,0,0.16V72.28z"></path> <path class="st8" d="M229.02,96.46l7.02,17.14c0.57,1.38,2.15,2.03,3.52,1.46c0.71-0.29,1.26-0.88,1.52-1.6l6.29-18.07"></path> </g> </svg> 