<?xml version="1.0" encoding="UTF-8"?> <!-- Generator: Adobe Illustrator 24.2.0, SVG Export Plug-In . SVG Version: 6.00 Build 0) --> <svg xmlns="http://www.w3.org/2000/svg" xmlns:xlink="http://www.w3.org/1999/xlink" version="1.1" id="Layer_1" x="0px" y="0px" viewBox="0 0 770 500" style="enable-background:new 0 0 770 500;" xml:space="preserve"> <style type="text/css"> .st0{fill:#087262;} .st1{fill:#D6E9BD;} .st2{fill:#EFF2F5;} .st3{fill:#DBE3E9;} .st4{fill:#4F5E67;} .st5{fill:#95CA59;} .st6{fill:#69B345;} .st7{fill:#555554;} .st8{fill:#F58458;} .st9{fill:#D6644B;} .st10{fill:#1B81C4;} .st11{fill:#FFFFFF;} .st12{fill:#5FAD6E;} .st13{fill:#E5EEF9;} .st14{fill:#9AA896;} .st15{fill:#F37256;} .st16{fill:#D5E8BD;} .st17{fill:#2C75A5;} .st18{fill:#93CEF1;} .st19{fill:#F58357;} .st20{fill:#00A063;} .st21{fill:#D1EBFA;} .st22{fill:#67BD50;} .st23{fill:none;stroke:#6F7271;stroke-width:3.0312;} .st24{fill:none;stroke:#FFFFFF;stroke-width:3.0312;} </style> <g> <g id="Layer_3"> <path class="st0" d="M570.6,347.5V161c0-4.9-3.9-8.8-8.8-8.8H258.9c-4.9,0-8.8,3.9-8.8,8.8v186.5H570.6z"></path> <rect x="265" y="167.2" class="st1" width="290.7" height="163.7"></rect> <path class="st2" d="M249.5,347.8v27c0,5.2,4.2,9.4,9.4,9.4h302.9c5.2,0,9.4-4.2,9.4-9.4v-27H249.5z"></path> <path class="st2" d="M465.8,423.9c0,0-2.3-1.1-5-2.2c-2.9-1.1-6.3-2.4-8.3-3.4c-3.5-1.7-3.9-2.8-5.2-8.6 c-1.5-6.3-2.8-19.7-3.4-25.6h-67.1c-0.5,5.8-1.9,19.2-3.4,25.6c-1.3,5.8-1.6,6.9-5.2,8.6c-2,1-5.4,2.3-8.2,3.4l0,0 c-2.7,1-4.9,1.9-4.9,1.9s-2.2,1.2,1.3,1.4h107.9C467.6,425,465.8,423.9,465.8,423.9z"></path> <path class="st3" d="M444.6,391.2c-0.3-2.8-0.5-5.3-0.7-7h-67.1c-0.2,1.8-0.4,4.3-0.7,7H444.6z"></path> <rect x="334.7" y="140.7" class="st2" width="281.7" height="167.1"></rect> <rect x="334.7" y="140" class="st4" width="281.7" height="33.9"></rect> <rect x="345.7" y="151.5" class="st1" width="9.8" height="11.6"></rect> <rect x="364.8" y="151.5" class="st1" width="9.8" height="11.6"></rect> <rect x="384" y="151.5" class="st1" width="9.8" height="11.6"></rect> <rect x="324.4" y="199" class="st5" width="54.9" height="7.8"></rect> <rect x="324.4" y="214.7" class="st4" width="31.4" height="7.8"></rect> <rect x="297" y="202.9" class="st6" width="15.7" height="15.7"></rect> <rect x="324.4" y="234.3" class="st5" width="54.9" height="7.8"></rect> <rect x="324.4" y="249.9" class="st4" width="31.4" height="7.8"></rect> <rect x="296.9" y="238.2" class="st6" width="15.7" height="15.7"></rect> <rect x="324.4" y="269.5" class="st5" width="54.9" height="7.8"></rect> <rect x="324.4" y="285.2" class="st4" width="31.4" height="7.8"></rect> <rect x="296.9" y="273.5" class="st6" width="15.7" height="15.7"></rect> <path class="st5" d="M454,126h80.5c11.3,0,20.5,9.2,20.5,20.5v80.5c0,11.3-9.2,20.5-20.5,20.5H454c-11.3,0-20.5-9.2-20.5-20.5 v-80.5C433.5,135.1,442.7,126,454,126z"></path> <polygon class="st5" points="460.5,267.9 460.5,236.8 494.8,236.8 "></polygon> <path class="st7" d="M452.4,105.9c2.2-3.8,5.6-7.4,9.9-8.2c7.6-1.4,22.2,2.4,31.1,8.9c9.2-5.8,23.6-1.8,31.1,5 c21.4,19.6-5.3,47.4-20.6,63c-0.7,0.1-1.5,0.3-2.1,0.6c0-0.1,0-0.2,0-0.2c-11.1,3.3-4.7-9.8-8.8-13.9c-5.7-5.6-13.9-4.6-21.1-5.9 c-8.1-1.5-11-6.2-15.6-12.6C448.5,132.1,445.8,117.7,452.4,105.9z"></path> <path class="st8" d="M464.7,234.5h56.2c6.5-40.8-8.9-37.7-18.7-51c-9.8-13.3-5.5-19.5-5.5-19.5s-20.2-4.6-14.9,1 c5.3,5.6,6.7,7.5,4,17.1s-17.2,9.4-21.9,19.9C459.6,211.4,457.3,229.2,464.7,234.5z"></path> <path class="st9" d="M503,187.3c-5.7-1.1-11.1-3.1-16-6.1c1.3-7.9-0.4-10.3-5.2-15.9c-5.4-6.5,15-0.7,15-0.7s-3.2,5.6,7,21.1 C503.8,185.8,502.9,187.2,503,187.3z"></path> <path class="st10" d="M464.7,234.5h56.2c5.9-36.5-5.9-37.9-15.5-47.3c-0.2,1.3-3.3,2.2-4.6,2.8c-16.2,7.6-11.3,14-13.8,8.4 c-0.9-2.1-4.9-5.3-5.1-10.7c-5.3,3.2-15.2,7.7-18,14.2C459.6,211.4,457.3,229.2,464.7,234.5z"></path> <path class="st8" d="M512.6,137.7c0,0-9.1,6.4-17.7-5.6l-8.5-12c0,0-10.2,6.6-14.8,1.5s-8.8,20.9-4,39.5s23.6,26.9,39.1,11 c5-5.2,9-6.1,14.1-8.9c11.3-6.3,3.6-16.8-1.8-13.7c-5.4,3.1-4.7,7.3-7.2,5C509.2,152.3,507.9,143.2,512.6,137.7z"></path> <path class="st10" d="M520.9,234.5c3.5-21.7,0.7-31-4.1-36.9c-3.8,2.4-7.4,6.3-10.1,12.6c-4.6,10.8-7.4,18.1-9.5,24.4H520.9z"></path> <path class="st10" d="M464.7,234.5h0.2c-0.5-20.3,3-33.4,5.2-39.7c-2.6,1.8-4.9,4-6.3,7.1C459.6,211.4,457.3,229.2,464.7,234.5z"></path> <path class="st11" d="M488.5,158.6l-17.6-2.5C470.9,156.1,476.6,176,488.5,158.6z"></path> <path class="st12" d="M583.2,221.2c0,21.3-17.3,38.6-38.6,38.6S506,242.6,506,221.2s17.3-38.6,38.6-38.6 C565.9,182.7,583.2,199.9,583.2,221.2z"></path> <polygon class="st11" points="536.2,237.7 525.9,227.4 529.8,223.5 536.2,229.9 559.3,206.7 563.3,210.7 "></polygon> <path class="st13" d="M487.9,197c0,0.6,0.4,6.4,0.4,6.4l2.1-5.8l3.7,3.9c0,0,15-11.1,14.2-11.5s-5.3-5.7-5.3-5.7L487.9,197z"></path> <path class="st13" d="M487.6,196.4c0,0,0.4,8.2,0.4,7.6s-2.7-7.4-2.7-7.4l-4.3,5.1l-1.6-12.4c0,0,4.5-3.7,4.5-3.1 S487.6,196.4,487.6,196.4z"></path> <polygon class="st3" points="517.9,434.5 347.8,434.5 306.8,459.9 500.2,459.9 "></polygon> <polygon class="st2" points="516.6,432.6 346.5,432.6 305.5,458 498.9,458 "></polygon> <path class="st4" d="M251.9,265.1c0,12.1,0,24.2,0,36.3c0,0.1,0,0.3,0.1,0.4c0,0.2-0.1,0.5-0.1,0.7c-0.1,6.9,0.3,13.9-0.4,20.8 c-0.3,2.6-0.5,5.3-0.9,7.9c-1,6.9-3.2,13.7-6.3,20c-3.2,6.2-7.2,11.9-12.6,16.4c-5.6,4.8-11.8,8.7-19,10.6 c-6.1,1.6-12.2,2-18.2-0.4c-3.7-1.4-7.1-3.7-9.7-6.7c-4-4.7-6.4-10.2-8.2-16c-2-6.7-3.2-13.6-3.6-20.6c-0.3-5.1-0.5-10.3-0.6-15.5 c-0.1-5.2-0.1-10.4-0.1-15.6v-0.3l0.1-86.6c0-4-0.1-8.1,0-12.1c0.1-3.1,0.4-6.1,0.6-9.1c0.2-2.5,0.5-5,0.9-7.5 c0.3-2.2,0.8-4.4,1.3-6.5c0.5-2.4,1.1-4.8,1.9-7.1c4.4-11.7,10.9-21.8,22.1-28.1c4.2-2.4,8.8-3.9,13.6-4.6 c4.6-0.7,9.3-1.4,13.9-1.2c2.9,0.1,5.9,0.5,8.8,0.8c8.7,1.1,17,4,24.5,8.5c10.7,6.4,18.9,15.2,24.1,26.6c1.5,3.2,2.3,6.8,3.2,10.3 c0.7,2.5,1.2,5.1,1.5,7.7c0.3,3,0.4,6.1,0.4,9.2c0,0.3-0.5,0.8-0.9,0.9c-2,0.6-4,1.1-6,1.6l-1.5,0.4c-2.4,0.4-4.8,0.8-7.2,1.1 c-4.2,0.5-8.4,1-12.6,1.4c-2.6,0.2-5.3,0.1-8,0.2c-0.3,0-0.5,0.1-0.9,0.1v1.2c0,15.3,0,30.6,0,46 C251.9,259.1,251.9,262.2,251.9,265.1"></path> <path class="st10" d="M143.4,381.7c2.2,13.2,5.9,26.2,9.9,39c1.9,5.7,3.7,11.5,5.9,17.1c3,7.8,6.1,15.5,9.7,23.1 c3.9,8.2,8.1,16.2,13.7,23.3c2.9,3.7,6.4,6.8,10.1,9.7c0.4,0.3,0.7,0.7,1.1,1c0.4,0.2,0.8,0.4,1.2,0.6c1.1,0.7,2.1,1.4,3.2,2 c2.1,1.1,4.3,2,6.6,2.6h77.9c3.9-1.2,7.6-2.7,11.2-4.5c1.8-0.9,3.6-1.7,5.5-2.5c-0.2-0.7-0.5-1.3-0.8-1.9 c-3.5-5.8-6.6-11.9-9.4-18.1c-3.3-7.8-6.2-15.8-8.6-23.9c-3.4-11.2-6.2-22.6-8.4-34.1c-0.7-3.4-1.3-6.9-1.8-10.3 c-0.4-3.2-0.5-6.5-0.9-9.7c-1-8.7-0.8-17.5-0.5-26.2c0.2-5.3,0.7-10.6,1.4-15.9c0.6-4.3,1.4-8.6,2.4-12.8c1-4.3,2.7-8.4,5.7-11.7 c3.1-3.5,7.3-5.8,12-6.6c1.6-0.3,3.4-0.3,5.1-0.5c0.3,0,0.6-0.1,0.9-0.2c-0.3-0.2-0.6-0.4-0.9-0.6c-6.2-2.7-12.4-5.6-18.5-8.2 c-8.3-3.5-16.7-6.9-25.1-10.3c0,0.2-0.1,0.5-0.1,0.7c-0.1,6.9,0.3,13.9-0.4,20.8c-0.3,2.6-0.5,5.3-0.9,7.9c-1,7-3.2,13.7-6.3,20 c-3.2,6.2-7.2,11.9-12.6,16.4c-5.6,4.8-11.8,8.7-19,10.6c-6.1,1.6-12.2,2-18.2-0.4c-3.7-1.4-7.1-3.7-9.7-6.7 c-4-4.7-6.4-10.2-8.2-16c-2-6.7-3.2-13.6-3.6-20.6c-0.3-5.1-0.5-10.3-0.7-15.5c-0.1-5.2-0.1-10.4-0.1-15.6l-0.2-0.2 c-6.3,5-12.6,10-18.3,15.7l-0.2,0.2l-0.7,0.8c-0.8,1.3-1.6,2.6-2.2,3.9c-1.5,3.3-3,6.6-4.3,9.9c-2,5.4-3.4,11-4.1,16.7 c-0.7,4.4-0.9,8.9-0.8,13.3C141.7,369.9,142.3,375.8,143.4,381.7z"></path> <path class="st10" d="M386.7,304.4l-1.9,25.8c0,13.4-11.7,24.2-26,24.2s-26-10.9-28.1-24.2l-1.6-25.8H386.7z"></path> <path class="st14" d="M353.2,323.2l-0.2,0.5c0,0,0.3-0.2,0.7-0.5H353.2z"></path> <path class="st15" d="M325.6,334.2c-0.1-2,0.1-4,0.6-5.9c-2.4,0.9-4.8,1.8-7.1,2.6c-0.2-0.9,2.1-3.6,3.7-5.5 c2.3-2.7-4.1-3.6-7.7-0.3c-1,0.9-16.7,13.7-16.7,13.7l20.5,8l8.7-4C326.4,340.1,325.8,337.2,325.6,334.2z"></path> <path class="st10" d="M331.9,343.3c2.8,0,5.5-1.4,7.2-3.6l-3.8-3.2c-1.4,1.7-3.1,2.2-5.1,1.5c-4.2-1.5-8.3-7.6-8.3-12.4 c-0.1-1.2,0.4-2.3,1.3-3.1c2.5-2.1,7.9-1.9,9.7-1.7l0.7-4.9c-0.9-0.1-9.1-1.2-13.7,2.8c-2,1.7-3.1,4.3-3,6.9 c0,7,5.3,14.8,11.5,17.1C329.5,343.1,330.7,343.3,331.9,343.3"></path> <polygon class="st15" points="328,320.3 321.2,323.3 316.8,349.4 330.4,342.1 331.6,324.1 "></polygon> <path class="st16" d="M270.6,404.7c0.5,3.5,1.1,6.9,1.8,10.3c2.1,11.5,4.9,22.9,8.4,34.1c2.5,8.1,5.3,16.1,8.6,23.9 c2.7,6.2,5.8,12.3,9.3,18.1c0.3,0.6,0.6,1.3,0.8,1.9c1.9,2.3,4,4.3,6.7,5.6c1.1,0.5,2.3,1,3.5,1.4h22c4.3-1.1,8.4-2.8,12.3-5 c6.3-3.6,10.6-9,13.2-15.7c2.1-5.4,2.2-11.1,1.5-16.8c-0.8-6.8-2-13.6-3.5-20.2c-3.1-12.9-6.9-25.6-11.3-38.1 c-2.9-8.4-6-16.7-9.3-24.9c-3-7.5-6.3-14.9-9.8-22.2c-3.2-6.9-6.7-13.6-10.3-20.2c-3.8-7.1-9.8-12-17-15.5c-0.3-0.1-0.7-0.2-1-0.2 c-0.3,0.1-0.6,0.2-0.9,0.2c-1.7,0.2-3.4,0.1-5.1,0.5c-4.6,0.8-8.8,3.1-12,6.6c-3,3.4-4.7,7.4-5.7,11.7c-1,4.2-1.8,8.5-2.4,12.8 c-0.8,5.3-1.2,10.6-1.4,15.9c-0.2,8.7-0.4,17.5,0.5,26.2C270,398.2,270.2,401.5,270.6,404.7z"></path> <path class="st16" d="M148.8,492.4c0.9,0.4,1.8,0.7,2.8,1c11.6,3.9,28.9,5.2,40.5,1.4c-2-3.8-6.4-6.9-9.4-10.7 c-5.7-7.1-9.9-15.2-13.7-23.3c-3.6-7.5-6.6-15.3-9.7-23.1c-2.2-5.6-4.1-11.3-5.9-17.1c-4.1-12.8-7.7-25.7-9.9-39 c-1.1-5.9-1.7-11.8-2-17.8c-0.1-4.5,0.1-8.9,0.8-13.3c0.7-5.7,2.1-11.3,4.1-16.7c1.3-3.4,2.8-6.6,4.3-9.9c0.6-1.4,1.5-2.6,2.2-3.9 c-0.4,0.1-0.7,0.4-1.1,0.6c-1.5,1.7-3,3.5-4.6,5.2c-3.9,4.2-7,9.1-9,14.5c-1.7,4.7-3.1,9.6-4.2,14.5c-1.4,5.6-2.5,11.4-3.8,17.1 c-1.3,6-2.8,11.9-3.9,17.9c-1.3,6.7-2.4,13.5-3.4,20.3c-0.8,5.3-1.6,10.5-2.1,15.8c-0.4,4.6-0.6,9.3-0.6,13.9 c-0.1,3.9-0.1,7.8,0.2,11.7c0.2,3.3,0.6,6.5,1.2,9.8c1.4,7,4.6,13.5,9.3,18.9C135.9,485.7,141.9,489.6,148.8,492.4"></path> <path class="st17" d="M172.2,303.4l-0.2-0.2l0.1-0.2L172.2,303.4"></path> <path class="st18" d="M153.7,318.9l-0.2,0.2L153.7,318.9"></path> <path class="st15" d="M373.5,455.1l17.2,8l12.7-8.2c0,0,27.5-10.5,13.6-11.9c-29.3-3-15.6-5.7-26.1,4.2c1.5-1.4,3-2.9,4.2-4.5 c1.9-2.7-4.9-1-8,2.3C386.3,445.9,373.5,455.1,373.5,455.1"></path> <path class="st16" d="M327.6,499.4c4.8-0.2,9.5-0.7,14.2-1.5c16.7-9.4,34.9-25.2,51.4-35c0,0-3.2-5.6-5.1-7 c-2-1.5-10.2-4.5-10.2-4.5l-91.4-4l-0.3,1.5C286.3,457.3,288.1,501.3,327.6,499.4z"></path> <path class="st19" d="M292.7,228.7c-0.7-1.1-1.3-2.4-2.1-3.5c-3.3-4.7-6.5-9.3-9.9-14c-0.6-0.9-1-1.6-0.6-2.7 c0.2-0.8,0.4-1.6,0.5-2.4c-2.4,0.4-4.8,0.8-7.2,1.1c-4.2,0.5-8.4,1-12.6,1.4c-2.6,0.2-5.3,0.1-8,0.2c-0.3,0-0.5,0.1-0.9,0.1v1.2 c0,15.3,0,30.6,0,46c0,3,0,6,0,9c6.7,1.8,13.5,3.6,20.2,5.4c0.4,0.2,0.9,0,1.1-0.4c0-0.1,0.1-0.2,0.1-0.2c1.5-5.1,3.3-10.7,5-16.4 c-3.3-3.7-7.4-11.3-7.4-11.3l10,1.7c0.7-3.1,1.2-6.2,1.6-9.4c0-0.7,0.5-1.3,1.1-1.5c2.9-1,5.8-2,8.7-3 C292.9,229.7,293,229.3,292.7,228.7z"></path> <path class="st20" d="M89.6,471.6c0.8,4.5,2,9,5.1,12.4c2.6,2.9,6.3,4.5,10,6c10.3,4,20.9,7.4,31.6,10.1h185.6 c0.3-34.1-4.4-68.1-13.9-100.9c-2-6.8-4.5-14-10.2-18.1c-5.1-3.7-11.7-4.2-18-4.6c-54.1-3.4-108.3-5.5-162.5-6.2 c-7.3-0.1-13.8,0.2-19.4,1.3c-4.2,2-8.3,4.4-12.1,7c-2.5,2.1-4.8,4.5-7,6.9c0,0.1-0.1,0.1-0.1,0.2c-0.1,0.4-0.3,0.9-0.4,1.3 c0.9,9.1,2,18.1,3.2,27.2C84.1,433.2,87,452.4,89.6,471.6z"></path> <path class="st0" d="M92.9,499.1c0.8,0.3,1.6,0.6,2.4,0.9h197.3c-0.4-31.5-4.7-62.8-12.9-93.1c-1.9-6.8-4.1-14-9.5-18.1 c-4.7-3.7-10.9-4.2-16.8-4.6c-50.5-3.4-101.1-5.5-151.7-6.2c-5.5-0.2-11,0.2-16.4,1c-2.3,2-4.4,4.1-6.4,6.4 c-0.2,0.3-0.4,0.6-0.6,0.9c1,9.3,2.1,18.5,3.3,27.8C85.4,442.3,89.8,470.6,92.9,499.1z"></path> <path class="st10" d="M426.1,260h6.1v12.6h12.3v5.9h-12.3v12.7h-6.1v-12.7h-12.3v-5.9h12.3V260z"></path> <path class="st10" d="M652.7,59.1c0,32.7-26.5,59.1-59.1,59.1c-32.7,0-59.1-26.5-59.1-59.1c0-32.6,26.5-59.1,59.1-59.1 c0,0,0,0,0,0C626.2,0,652.7,26.5,652.7,59.1z"></path> <path class="st10" d="M593.5,0c32.6,0,59.1,26.4,59.1,59.1s-26.4,59.1-59.1,59.1c0,0,0,0,0,0"></path> <path class="st11" d="M639.5,59.1c0,25.4-20.6,46-46,46c-25.4,0-46-20.6-46-46s20.6-46,46-46l0,0 C618.9,13.1,639.5,33.7,639.5,59.1C639.5,59.1,639.5,59.1,639.5,59.1z"></path> <path class="st21" d="M552.5,62.4c0-25.4,20.6-46,46-46c8.1,0,16,2.1,23,6.2c-20.2-15.4-49-11.5-64.4,8.7 c-15.4,20.2-11.5,49,8.7,64.4c1.6,1.2,3.2,2.3,4.9,3.3C559.2,90.2,552.5,76.7,552.5,62.4z"></path> <path class="st7" d="M601.8,59.1c0,4.5-3.7,8.2-8.2,8.2s-8.2-3.7-8.2-8.2s3.7-8.2,8.2-8.2S601.8,54.6,601.8,59.1 C601.8,59.1,601.8,59.1,601.8,59.1z"></path> <path class="st7" d="M613.1,25.9c-0.1,0-0.2,0-0.3-0.1c-0.3-0.2-0.4-0.6-0.2-0.9c0,0,0,0,0,0l1.2-2.2c0.2-0.3,0.6-0.4,0.9-0.2 c0.3,0.2,0.3,0.5,0.2,0.8l-1.2,2.2C613.6,25.8,613.3,25.9,613.1,25.9L613.1,25.9z"></path> <path class="st7" d="M572.7,95.8c-0.1,0-0.2,0-0.3-0.1c-0.3-0.2-0.4-0.6-0.2-0.9l1.2-2.2c0.2-0.3,0.6-0.4,0.9-0.2s0.4,0.6,0.2,0.9 l0,0l-1.2,2.2C573.2,95.7,573,95.8,572.7,95.8L572.7,95.8z"></path> <path class="st7" d="M629.6,80.6c-0.1,0-0.2,0-0.3-0.1l-2.2-1.2c-0.3-0.2-0.4-0.6-0.2-0.9l0,0c0.2-0.3,0.6-0.4,0.9-0.2l2.2,1.2 c0.3,0.2,0.4,0.6,0.2,0.9C630.1,80.5,629.8,80.6,629.6,80.6L629.6,80.6z"></path> <path class="st7" d="M559.7,40.2c-0.1,0-0.2,0-0.3-0.1l-2.2-1.2c-0.3-0.2-0.4-0.6-0.2-0.9c0.2-0.3,0.5-0.4,0.8-0.2L560,39 c0.3,0.2,0.4,0.6,0.2,0.9C560.1,40.1,559.9,40.2,559.7,40.2L559.7,40.2z"></path> <path class="st7" d="M574,25.9c-0.2,0-0.5-0.1-0.6-0.3l-1.2-2.2c-0.2-0.3-0.1-0.7,0.2-0.9c0.3-0.2,0.7-0.1,0.9,0.2l1.2,2.2 c0.2,0.3,0.1,0.7-0.2,0.9C574.2,25.9,574.1,25.9,574,25.9z"></path> <path class="st7" d="M614.4,95.8c-0.2,0-0.5-0.1-0.6-0.3l-1.3-2.2c-0.2-0.3,0-0.7,0.3-0.9c0.3-0.2,0.7-0.1,0.8,0.2l1.3,2.2 c0.2,0.3,0.1,0.7-0.2,0.9C614.6,95.8,614.5,95.8,614.4,95.8L614.4,95.8z"></path> <path class="st7" d="M557.5,80.6c-0.2,0-0.5-0.1-0.6-0.3c-0.2-0.3-0.1-0.7,0.2-0.9h0l2.2-1.2c0.3-0.2,0.7-0.1,0.9,0.2v0 c0.2,0.3,0.1,0.7-0.2,0.9l-2.2,1.2C557.7,80.6,557.6,80.6,557.5,80.6L557.5,80.6z"></path> <path class="st7" d="M627.4,40.2c-0.4,0-0.7-0.3-0.7-0.7c0-0.2,0.1-0.5,0.3-0.6l2.2-1.2c0.3-0.2,0.7-0.1,0.9,0.2c0,0,0,0,0,0 c0.2,0.3,0.1,0.7-0.2,0.9l-2.2,1.2C627.7,40.2,627.5,40.2,627.4,40.2L627.4,40.2z"></path> <path class="st7" d="M554.4,59.8h-2.5c-0.4,0-0.6-0.4-0.6-0.7c0-0.3,0.3-0.6,0.6-0.6h2.5c0.4,0,0.7,0.3,0.7,0.7 C555.1,59.5,554.8,59.8,554.4,59.8C554.5,59.8,554.5,59.8,554.4,59.8L554.4,59.8z"></path> <path class="st7" d="M632.7,59.8c-0.4,0-0.7-0.3-0.7-0.7s0.3-0.7,0.7-0.7h0h2.5c0.4,0,0.7,0.3,0.7,0.7s-0.3,0.7-0.7,0.7l0,0H632.7 z"></path> <path class="st7" d="M593.5,101.4L593.5,101.4c-0.4,0-0.7-0.3-0.7-0.7v0v-2.5c0-0.4,0.3-0.7,0.7-0.7l0,0c0.4,0,0.7,0.3,0.7,0.7v0 v2.5C594.2,101.1,593.9,101.4,593.5,101.4L593.5,101.4L593.5,101.4z"></path> <path class="st7" d="M593.5,20.7c-0.4,0-0.7-0.3-0.7-0.7v-2.5c0-0.4,0.4-0.6,0.7-0.6c0.3,0,0.6,0.3,0.6,0.6V20 C594.2,20.4,593.9,20.7,593.5,20.7L593.5,20.7L593.5,20.7z"></path> <path class="st7" d="M593.6,61.3c-1.2,0-2.2-1-2.2-2.2v0V26.5c0.1-1.2,1.1-2.1,2.3-2.1c1.1,0.1,2,1,2.1,2.1v32.6 C595.8,60.3,594.8,61.3,593.6,61.3L593.6,61.3L593.6,61.3z"></path> <path class="st7" d="M579.3,75.6c-1.2,0-2.2-1-2.2-2.2c0-0.6,0.2-1.1,0.6-1.5l13.7-13.7c0.8-0.9,2.2-1,3.1-0.3 c0.9,0.8,1,2.2,0.3,3.1c-0.1,0.1-0.2,0.2-0.3,0.3l-13.7,13.7C580.4,75.3,579.9,75.5,579.3,75.6L579.3,75.6z"></path> <path class="st11" d="M598.6,59.1c0,2.8-2.3,5.1-5.1,5.1c-2.8,0-5.1-2.3-5.1-5.1s2.3-5.1,5.1-5.1C596.3,54,598.6,56.3,598.6,59.1 C598.6,59.1,598.6,59.1,598.6,59.1z"></path> <path class="st6" d="M596,59.1c0,1.4-1.1,2.5-2.5,2.5c-1.4,0-2.5-1.1-2.5-2.5c0-1.4,1.1-2.5,2.5-2.5C594.9,56.6,596,57.7,596,59.1 L596,59.1z"></path> <path class="st6" d="M593.6,60.2c-0.6,0-1.1-0.5-1.1-1.1c0-0.5,0.3-0.9,0.8-1.1l28.4-8.6c0.6-0.1,1.2,0.3,1.3,0.9 c0.1,0.5-0.2,1-0.7,1.2l-28.4,8.6C593.8,60.2,593.7,60.2,593.6,60.2L593.6,60.2z"></path> <path class="st1" d="M764.8,227.7c0,2.4-1.9,4.3-4.3,4.3H641.7c-2.4,0-4.3-1.9-4.3-4.3v-99.3c0-2.4,1.9-4.3,4.3-4.3l0,0h118.7 c2.4,0,4.3,1.9,4.3,4.3l0,0V227.7z"></path> <path class="st10" d="M637.4,139.7v-11.3c0-2.4,1.9-4.3,4.3-4.3l0,0h118.7c2.4,0,4.3,1.9,4.3,4.3l0,0v11.3"></path> <rect x="687.1" y="156.4" class="st12" width="8.6" height="8.6"></rect> <rect x="704.4" y="156.4" class="st12" width="8.6" height="8.6"></rect> <rect x="721.7" y="156.4" class="st12" width="8.6" height="8.6"></rect> <rect x="738.9" y="156.4" class="st11" width="8.6" height="8.6"></rect> <rect x="652.6" y="173.7" class="st12" width="8.6" height="8.6"></rect> <rect x="669.9" y="173.7" class="st12" width="8.6" height="8.6"></rect> <rect x="687.1" y="173.7" class="st10" width="8.6" height="8.6"></rect> <rect x="704.4" y="173.7" class="st10" width="8.6" height="8.6"></rect> <rect x="721.7" y="173.7" class="st12" width="8.6" height="8.6"></rect> <rect x="738.9" y="173.7" class="st11" width="8.6" height="8.6"></rect> <rect x="652.6" y="191" class="st22" width="8.6" height="8.6"></rect> <rect x="669.9" y="191" class="st22" width="8.6" height="8.6"></rect> <rect x="687.1" y="191" class="st22" width="8.6" height="8.6"></rect> <rect x="704.4" y="191" class="st12" width="8.6" height="8.6"></rect> <rect x="721.7" y="191" class="st12" width="8.6" height="8.6"></rect> <rect x="738.9" y="191" class="st11" width="8.6" height="8.6"></rect> <rect x="652.6" y="208.2" class="st12" width="8.6" height="8.6"></rect> <rect x="669.9" y="208.2" class="st12" width="8.6" height="8.6"></rect> <rect x="687.1" y="208.2" class="st12" width="8.6" height="8.6"></rect> <line class="st23" x1="654.8" y1="160.8" x2="659.1" y2="160.8"></line> <line class="st23" x1="672" y1="160.8" x2="676.3" y2="160.8"></line> <line class="st23" x1="741.1" y1="212.6" x2="745.4" y2="212.6"></line> <line class="st23" x1="723.8" y1="212.6" x2="728.1" y2="212.6"></line> <line class="st23" x1="706.5" y1="212.6" x2="710.9" y2="212.6"></line> <line class="st24" x1="684.9" y1="132.7" x2="723.8" y2="132.7"></line> <line class="st24" x1="646.1" y1="132.7" x2="650.4" y2="132.7"></line> <line class="st24" x1="751.8" y1="132.7" x2="756.1" y2="132.7"></line> <rect x="637.4" y="139.8" class="st5" width="127.3" height="3"></rect> <polygon class="st12" points="674.3,344.6 670.5,344.6 670.5,332.4 599.4,332.4 599.4,344.6 595.5,344.6 595.5,328.5 674.3,328.5 "></polygon> <path class="st12" d="M649.8,319.6h-65.5v-25.8h65.5V319.6z M588.1,315.7h57.8v-18.1h-57.8V315.7z"></path> <path class="st12" d="M685.6,319.6h-25.8v-25.8h25.8V319.6z M663.6,315.7h18.1v-18.1h-18.1V315.7z"></path> <rect x="633" y="282.1" class="st12" width="3.8" height="13.7"></rect> <rect x="670.5" y="282.1" class="st12" width="3.8" height="13.7"></rect> <rect x="633" y="318.2" class="st12" width="3.8" height="25.5"></rect> <path class="st12" d="M685.6,284.2H584.3v-25.8h101.3V284.2z M588.1,280.4h93.6v-18.1h-93.6V280.4z"></path> <path class="st12" d="M647.9,367.9H622v-25.8h25.8V367.9z M625.9,364.1H644v-18.1h-18.1V364.1z"></path> <path class="st12" d="M685.6,367.9h-25.8v-25.8h25.8V367.9z M663.6,364.1h18.1v-18.1h-18.1V364.1z"></path> <path class="st12" d="M610.1,367.9h-25.8v-25.8h25.8V367.9z M588.1,364.1h18.1v-18.1h-18.1V364.1z"></path> </g> </g> </svg> 