<?xml version="1.0" encoding="utf-8"?>
<!-- Generator: Adobe Illustrator 25.2.0, SVG Export Plug-In . SVG Version: 6.00 Build 0)  -->
<svg version="1.1" id="Layer_1" xmlns="http://www.w3.org/2000/svg" xmlns:xlink="http://www.w3.org/1999/xlink" x="0px" y="0px"
	 viewBox="0 0 750 500" style="enable-background:new 0 0 750 500;" xml:space="preserve">
<style type="text/css">
	.st0{opacity:0.25;fill:#82D302;enable-background:new    ;}
	.st1{opacity:0.3;fill:#5EB9EC;enable-background:new    ;}
	.st2{fill:#FFFFFF;}
	.st3{fill:#263238;}
	.st4{fill:#5EB9EC;}
	.st5{fill:#82D302;}
	.st6{opacity:0.25;}
	.st7{fill-rule:evenodd;clip-rule:evenodd;fill:#82D302;}
	.st8{fill-rule:evenodd;clip-rule:evenodd;fill:#F300F0;}
	.st9{fill:#16120F;}
	.st10{fill-rule:evenodd;clip-rule:evenodd;fill:#815B40;}
	.st11{fill-rule:evenodd;clip-rule:evenodd;fill:#623414;}
	.st12{fill-rule:evenodd;clip-rule:evenodd;fill:#FFCC00;}
	.st13{fill-rule:evenodd;clip-rule:evenodd;fill:#342A23;}
	.st14{fill-rule:evenodd;clip-rule:evenodd;fill:#4C4C4C;}
	.st15{fill-rule:evenodd;clip-rule:evenodd;fill:#16120F;}
	.st16{fill-rule:evenodd;clip-rule:evenodd;fill:#5EB9EC;}
	.st17{fill-rule:evenodd;clip-rule:evenodd;fill:#EDE3DB;}
	.st18{fill-rule:evenodd;clip-rule:evenodd;fill:#EDECEB;}
	.st19{fill-rule:evenodd;clip-rule:evenodd;fill:#FFFFFF;}
</style>
<g id="freepik--background-simple--inject-2">
	<path class="st0" d="M280.8,130.2c97.5-48,197.7-110.7,311-85.1c35.1,8,67.1,27.9,88.7,56.8c57.8,77.4,53.1,195.9,21.7,283
		c-4,11.4-9.3,22.3-15.8,32.5c-31.8,49.1-85.5,51.5-137.3,37.3c-43.8-12-82.6-24.4-127.9-12.2c-25.1,6.8-49.4,16.1-74.3,23.2
		c-34,9.6-69,16.2-104.4,16.9c-93.7,1.8-200.7-46-209-150.6c-0.5-6.8-0.6-13.6-0.3-20.4C35,269.8,48.8,228,87,206.3
		c38.5-21.8,84.1-30.4,125.2-45.9C235.7,151.7,258.4,141.2,280.8,130.2z"/>
</g>
<g id="freepik--high-school-building--inject-2">
	<rect x="9.6" y="202.3" class="st1" width="730.9" height="144.8"/>
	<rect x="9.6" y="290.9" class="st2" width="730.9" height="56.2"/>
	<rect x="9.6" y="202.3" class="st3" width="730.9" height="12"/>
	<path class="st3" d="M740.5,214.8H9.6c-0.3,0-0.5-0.2-0.5-0.5v-12c0-0.3,0.2-0.5,0.5-0.5h730.9c0.3,0,0.5,0.2,0.5,0.5v12
		C741,214.6,740.7,214.8,740.5,214.8z M10,213.8h730v-11H10V213.8z"/>
	<rect x="9.6" y="190.2" class="st4" width="730.9" height="17.6"/>
	<rect x="284.8" y="65.1" class="st3" width="180.3" height="144.8"/>
	<path class="st3" d="M465.2,210.4H284.8c-0.3,0-0.5-0.2-0.5-0.5V65.1c0-0.3,0.2-0.5,0.5-0.5h180.3c0.3,0,0.5,0.2,0.5,0.5v144.8
		C465.7,210.2,465.4,210.4,465.2,210.4z M285.3,209.4h179.3V65.6H285.3V209.4z"/>
	<rect x="272.1" y="72.8" class="st4" width="19.7" height="137.2"/>
	<rect x="263.9" y="75.9" class="st4" width="36.2" height="10.2"/>
	<rect x="451.2" y="72.8" class="st4" width="19.7" height="137.2"/>
	<rect x="442.9" y="75.9" class="st4" width="36.2" height="10.2"/>
	<path class="st2" d="M482.3,87.4c-74.2-20.3-152.5-20.3-226.7,0c-1.8-6.5-3.6-15.1-5.4-21.7c77.7-21.3,159.7-21.3,237.4,0
		C485.9,72.2,484.1,80.8,482.3,87.4z"/>
	<rect x="322.9" y="255.4" class="st3" width="104.3" height="91.6"/>
	<rect x="272.1" y="209.9" class="st4" width="19.7" height="137.2"/>
	<rect x="263.9" y="213.1" class="st4" width="36.2" height="10.2"/>
	<rect x="451.2" y="209.9" class="st4" width="19.7" height="137.2"/>
	<rect x="442.9" y="213.1" class="st4" width="36.2" height="10.2"/>
	<path class="st2" d="M482.3,224.5c-74.2-20.3-152.5-20.3-226.7,0c-1.8-6.5-3.6-15.1-5.4-21.7c77.7-21.3,159.7-21.3,237.4,0
		C485.9,209.4,484.1,218,482.3,224.5z"/>
	<path class="st1" d="M482.3,85.3C408.1,65,329.8,65,255.6,85.3c-1.8-6.5-3.6-13.1-5.4-19.6c77.7-21.3,159.7-21.3,237.4,0
		C485.9,72.2,484.1,78.8,482.3,85.3z"/>
	<path class="st1" d="M482.3,222.4c-74.2-20.3-152.5-20.3-226.7,0c-1.8-6.5-3.6-13.1-5.4-19.6c77.7-21.3,159.7-21.3,237.4,0
		C485.9,209.4,484.1,215.9,482.3,222.4z"/>
	<path class="st3" d="M352.1,342.5h-21.6c-0.3,0-0.5-0.2-0.5-0.5v-76.8c0-0.3,0.2-0.5,0.5-0.5h21.6c0.3,0,0.5,0.2,0.5,0.5V342
		C352.6,342.3,352.4,342.5,352.1,342.5z M331.1,341.5h20.6v-75.8H331L331.1,341.5z"/>
	<path class="st3" d="M418.2,342.5h-21.6c-0.3,0-0.5-0.2-0.5-0.5v-76.8c0-0.3,0.2-0.5,0.5-0.5h21.6c0.3,0,0.5,0.2,0.5,0.5V342
		C418.7,342.3,418.4,342.5,418.2,342.5z M397.1,341.5h20.6v-75.8h-20.6V341.5z"/>
	<rect x="263.9" y="328.6" class="st4" width="31.9" height="18.5"/>
	<rect x="447.3" y="328.6" class="st4" width="31.9" height="18.5"/>
	<rect x="144.4" y="235.5" class="st3" width="75.4" height="71"/>
	<path class="st3" d="M219.7,307h-75.4c-0.3,0-0.5-0.2-0.5-0.5v-71c0-0.3,0.2-0.5,0.5-0.5h75.4c0.3,0,0.5,0.2,0.5,0.5v71
		C220.2,306.8,220,307,219.7,307z M144.9,306h74.4v-70h-74.4V306z"/>
	<path class="st3" d="M185.7,307h-7.3c-0.3,0-0.5-0.2-0.5-0.5v-71c0-0.3,0.2-0.5,0.5-0.5h7.3c0.3,0,0.5,0.2,0.5,0.5v71
		C186.2,306.8,186,307,185.7,307z M178.9,306h6.3v-70h-6.3V306z"/>
	<rect x="41.3" y="235.5" class="st3" width="75.4" height="71"/>
	<path class="st3" d="M116.6,307H41.3c-0.3,0-0.5-0.2-0.5-0.5v-71c0-0.3,0.2-0.5,0.5-0.5h75.4c0.3,0,0.5,0.2,0.5,0.5v71
		C117.1,306.8,116.9,307,116.6,307z M41.8,306h74.4v-70H41.8V306z"/>
	<rect x="628.6" y="235.5" class="st3" width="75.4" height="71"/>
	<path class="st3" d="M703.9,307h-75.4c-0.3,0-0.5-0.2-0.5-0.5v-71c0-0.3,0.2-0.5,0.5-0.5h75.4c0.3,0,0.5,0.2,0.5,0.5v71
		C704.4,306.8,704.2,307,703.9,307z M629.1,306h74.4v-70h-74.4V306z"/>
	<rect x="525.5" y="235.5" class="st3" width="75.4" height="71"/>
	<path class="st3" d="M600.8,307h-75.4c-0.3,0-0.5-0.2-0.5-0.5v-71c0-0.3,0.2-0.5,0.5-0.5h75.4c0.3,0,0.5,0.2,0.5,0.5v71
		C601.3,306.8,601.1,307,600.8,307z M526,306h74.4v-70H526V306z"/>
</g>
<g id="freepik--Trees--inject-2">
	<path class="st5" d="M130.7,50.8C77.3,50.9,34,92,34,142.7v0.8c0.3,27.4,22.7,49.4,50.1,49.1c0.2,0,0.4,0,0.6,0
		c4.5-0.1,9,0.2,13.4,0.9c9.1,1.5,16.2,6.8,21,13c2.6,3.5,6.7,5.5,11,5.6h1c4.3-0.1,8.4-2.1,11-5.6c4.8-6.2,11.9-11.6,21-13
		c4.4-0.7,8.9-1,13.4-0.9c27.4,0.6,50.1-21.1,50.7-48.4c0-0.2,0-0.4,0-0.6v-0.8C227.4,92.1,184.1,50.9,130.7,50.8z"/>
	<polygon class="st3" points="164.2,163.8 142.8,168.4 168.3,136.6 133.4,169.1 133.2,171.4 131.7,137.2 129.2,191.2 94.9,159.1 
		120.4,190.9 99,186.3 126,198 128.8,201.4 124,379.8 139.4,379.8 133.6,179.9 137.1,175.5 	"/>
	<path class="st5" d="M603.4,113.9c-42.3,0.1-76.5,32.6-76.5,72.7v0.6c0.2,21.7,18,39.1,39.7,38.8c0.2,0,0.3,0,0.5,0
		c3.6-0.1,7.1,0.1,10.6,0.7c6.7,1.2,12.6,4.9,16.6,10.3c2.1,2.7,5.3,4.4,8.7,4.4h0.8c3.4-0.1,6.6-1.7,8.7-4.4
		c4-5.4,10-9.1,16.6-10.3c3.5-0.6,7.1-0.8,10.6-0.7c21.7,0.5,39.7-16.7,40.2-38.3c0-0.2,0-0.3,0-0.5v-0.6
		C679.9,146.5,645.7,114,603.4,113.9z"/>
	<polygon class="st3" points="629.9,203.3 612.9,207 633.1,181.8 605.5,207.5 605.4,209.3 604.2,182.3 602.2,225 575,199.6 
		595.2,224.8 578.3,221.1 599.7,230.4 601.8,233 598.1,374.2 610.2,374.2 605.7,216 608.5,212.6 	"/>
</g>
<g id="freepik--Plants--inject-2">
	<path class="st5" d="M659.4-80.5c-0.1,0-0.1-0.1-0.1-0.2c2.9-8.8,10.1-15.4,19.1-17.6c0.1,0,0.2,0,0.3,0.2c0,0.1,0,0.2-0.2,0.2
		c-8.9,2.1-16,8.7-18.8,17.3C659.7-80.5,659.6-80.5,659.4-80.5L659.4-80.5L659.4-80.5z"/>
	<path class="st5" d="M666.5-86.1c-2-1.6-5.1,1.1-5.1,1.2c-0.2,0.4-0.4,0.8-0.6,1.2c0.4-0.4,1.9-0.6,3.8-0.2S668.4-84.6,666.5-86.1z
		"/>
	<path class="st5" d="M660.5-90.6c-2-1.5-3,1.8-1.7,3.4s1.9,2.8,1.9,3.4c0.2-0.4,0.4-0.8,0.5-1.2C661.2-85,662.4-89,660.5-90.6z"/>
	<path class="st5" d="M669-88.9c-1.7-1.9-5.2,0.2-5.2,0.3c-0.3,0.3-0.5,0.7-0.8,1c0.5-0.3,1.9-0.3,3.7,0.5S670.7-87.1,669-88.9z"/>
	<path class="st5" d="M663.9-94.3c-1.7-1.8-3.2,1.2-2.2,3s1.4,3.1,1.3,3.7c0.2-0.4,0.5-0.7,0.7-1.1
		C663.6-88.8,665.5-92.5,663.9-94.3z"/>
	<path class="st5" d="M672-91.3c-1.3-2.2-5.1-0.7-5.1-0.6c-0.3,0.3-0.7,0.6-1,0.9c0.5-0.2,2,0,3.6,1.1S673.3-89.3,672-91.3z"/>
	<path class="st5" d="M667.8-97.5c-1.4-2.1-3.4,0.7-2.6,2.6s0.9,3.3,0.6,3.8c0.3-0.3,0.6-0.6,0.9-0.9
		C666.7-92,669.1-95.4,667.8-97.5z"/>
	<path class="st5" d="M675.3-93.1c-1-2.4-5-1.5-5-1.5c-0.4,0.2-0.7,0.5-1.1,0.7c0.6-0.1,1.9,0.4,3.3,1.7S676.2-90.9,675.3-93.1z"/>
	<path class="st5" d="M672.2-99.9c-1-2.3-3.5,0.1-3,2.1s0.3,3.4,0,3.9c0.3-0.3,0.7-0.5,1-0.8C670.2-94.7,673.1-97.7,672.2-99.9z"/>
	<path class="st5" d="M678.9-94.4c-0.5-2.5-4.7-2.4-4.7-2.2c-0.4,0.1-0.8,0.3-1.2,0.5c0.6,0,1.8,0.7,3,2.2S679.5-92,678.9-94.4z"/>
	<path class="st5" d="M677-101.6c-0.6-2.4-3.5-0.5-3.4,1.6s-0.3,3.4-0.7,3.8l1.2-0.6C674.1-96.8,677.5-99.2,677-101.6z"/>
	<path class="st5" d="M676.6-97.6c1.5-1.1,3.2-2,5.1-2.5c2-0.4,2.7,1,2.4,1.8s-1.7,1-2.9,1S676.6-97.7,676.6-97.6z"/>
	<path class="st5" d="M676.5-97.5L676.5-97.5c-0.1,0-0.1-0.1-0.1-0.1l0,0c0,0,0-0.1,0.1-0.1c1.5-1.1,3.3-2,5.1-2.5
		c0.8-0.2,1.7,0,2.3,0.6c0.3,0.4,0.4,0.9,0.3,1.4c-0.4,1.1-2.4,1.1-3,1.1c-1.1-0.2-4.2-0.4-4.5-0.4
		C676.6-97.5,676.6-97.5,676.5-97.5z M683.1-99.9c-0.5-0.2-0.9-0.2-1.4-0.1c-1.7,0.4-3.3,1.2-4.7,2.2l1.5,0.1
		c0.9,0.1,2.1,0.2,2.7,0.2c1.1,0.1,2.5-0.1,2.7-0.9c0.1-0.4,0-0.8-0.2-1.1C683.5-99.6,683.3-99.8,683.1-99.9L683.1-99.9z"/>
	<path class="st5" d="M659.6-80.7c-0.1,0-0.2,0-0.3-0.1c-4.5-8.1-4.4-17.9,0.2-26c0.1-0.1,0.2-0.1,0.3-0.1l0,0
		c0.1,0.1,0.1,0.2,0.1,0.3l0,0c-4.5,7.9-4.5,17.6-0.1,25.6C659.7-80.9,659.7-80.7,659.6-80.7L659.6-80.7z"/>
	<path class="st5" d="M660.2-89.6c-2.5,0.3-2.7,4.5-2.6,4.5c0.1,0.4,0.3,0.8,0.4,1.3c0-0.6,0.8-1.8,2.4-2.9S662.7-90,660.2-89.6z"/>
	<path class="st5" d="M653-88.3c-2.5,0.4-0.7,3.4,1.3,3.5s3.4,0.5,3.8,1c-0.2-0.4-0.3-0.8-0.5-1.2C657.5-85,655.3-88.6,653-88.3z"/>
	<path class="st5" d="M659.9-93.4c-2.6-0.1-3.4,3.9-3.3,4c0,0.4,0.1,0.9,0.2,1.3c0.1-0.6,1.1-1.6,2.9-2.4S662.4-93.4,659.9-93.4z"/>
	<path class="st5" d="M652.5-93.4c-2.5,0-1.3,3.2,0.7,3.6s3.2,1.1,3.5,1.6c-0.1-0.4-0.2-0.9-0.3-1.3
		C656.4-89.4,654.9-93.3,652.5-93.4z"/>
	<path class="st5" d="M660.2-97.2c-2.5-0.5-4,3.3-3.9,3.3c0,0.4,0,0.9,0,1.3c0.2-0.5,1.4-1.4,3.2-1.9S662.6-96.8,660.2-97.2z"/>
	<path class="st5" d="M652.9-98.4c-2.5-0.4-1.8,2.9,0.1,3.7s3,1.6,3.2,2.1c0-0.4-0.1-0.9-0.1-1.3C656-93.8,655.2-97.9,652.9-98.4z"
		/>
	<path class="st5" d="M661.1-100.9c-2.4-0.9-4.5,2.6-4.4,2.6c-0.1,0.4-0.2,0.8-0.2,1.3c0.3-0.5,1.6-1.1,3.5-1.3
		S663.4-100.1,661.1-100.9z"/>
	<path class="st5" d="M654.1-103.3c-2.4-0.8-2.3,2.6-0.5,3.7s2.7,2.1,2.8,2.6c0-0.4,0.1-0.9,0.2-1.3
		C656.4-98.2,656.3-102.4,654.1-103.3z"/>
	<path class="st5" d="M662.6-104.4c-2.2-1.3-4.9,1.8-4.8,1.9c-0.2,0.4-0.3,0.8-0.5,1.2c0.4-0.5,1.8-0.9,3.7-0.7
		S664.8-103.2,662.6-104.4z"/>
	<path class="st5" d="M656.1-107.9c-2.2-1.2-2.7,2.2-1.2,3.5s2.3,2.5,2.3,3.1c0.1-0.4,0.2-0.8,0.4-1.2
		C657.6-102.5,658.2-106.7,656.1-107.9z"/>
	<path class="st5" d="M658.7-104.9c0.2-1.9,0.8-3.7,1.7-5.4c1.1-1.7,2.6-1.3,3-0.5s-0.4,2-1.2,2.8S658.7-104.9,658.7-104.9z"/>
	<path class="st5" d="M658.8-104.7L658.8-104.7c0,0-0.1,0-0.2,0l0,0v-0.1c0.2-1.9,0.8-3.7,1.7-5.4c0.4-0.8,1.1-1.2,2-1.3
		c0.5,0,1,0.3,1.2,0.8c0.5,1.1-0.8,2.5-1.3,2.9C661.3-107.1,659.1-105,658.8-104.7L658.8-104.7z M661.5-111.2c-0.4,0.2-0.8,0.6-1,1
		c-0.8,1.5-1.4,3.2-1.6,4.9l1.1-1c0.7-0.6,1.6-1.4,2-1.8c0.8-0.8,1.6-1.9,1.2-2.6c-0.2-0.4-0.6-0.6-1-0.6
		C662-111.3,661.7-111.3,661.5-111.2L661.5-111.2z"/>
	<path class="st5" d="M86.3-92.5c-0.1,0-0.1-0.1-0.1-0.2l0,0c1.9-5.7,6.6-10.1,12.5-11.5c0.1,0,0.1,0,0.2,0.1c0,0.1,0,0.1-0.1,0.2
		l0,0c-5.8,1.4-10.4,5.7-12.3,11.3C86.5-92.5,86.4-92.5,86.3-92.5L86.3-92.5z"/>
	<path class="st5" d="M90.9-96.2c-1.3-1.1-3.3,0.7-3.3,0.8l-0.4,0.8c0.8-0.4,1.7-0.4,2.5-0.1C90.9-94.6,92.2-95.2,90.9-96.2z"/>
	<path class="st5" d="M87-99.1c-1.3-1-1.9,1.2-1.1,2.2c0.6,0.6,1,1.4,1.2,2.2c0.1-0.3,0.2-0.5,0.4-0.8C87.5-95.5,88.2-98.1,87-99.1z
		"/>
	<path class="st5" d="M92.6-98.1c-1.1-1.3-3.4,0.1-3.4,0.2c-0.2,0.2-0.4,0.4-0.5,0.7c0.8-0.2,1.7-0.1,2.4,0.3
		C92.3-96.5,93.7-96.9,92.6-98.1z"/>
	<path class="st5" d="M89.2-101.6c-1.1-1.2-2.1,0.8-1.4,2c0.5,0.7,0.8,1.5,0.8,2.4c0.2-0.2,0.3-0.5,0.5-0.7
		C89.1-98,90.2-100.4,89.2-101.6z"/>
	<path class="st5" d="M94.5-99.6c-0.9-1.4-3.4-0.5-3.3-0.4l-0.6,0.6c0.8-0.1,1.7,0.2,2.3,0.7C93.9-98.1,95.4-98.3,94.5-99.6z"/>
	<path class="st5" d="M91.8-103.6c-0.9-1.4-2.2,0.5-1.7,1.7c0.4,0.8,0.5,1.6,0.4,2.5c0.2-0.2,0.4-0.4,0.6-0.6
		C91-100.1,92.6-102.3,91.8-103.6z"/>
	<path class="st5" d="M96.7-100.8c-0.6-1.5-3.2-1-3.2-0.9c-0.2,0.1-0.5,0.3-0.7,0.5c0.8,0.1,1.6,0.5,2.2,1.1
		C95.9-99.4,97.3-99.3,96.7-100.8z"/>
	<path class="st5" d="M94.7-105.2c-0.7-1.5-2.2,0.1-2,1.4c0.2,0.8,0.2,1.7,0,2.5c0.2-0.2,0.5-0.3,0.7-0.5
		C93.3-101.9,95.2-103.8,94.7-105.2z"/>
	<path class="st5" d="M99-101.6c-0.3-1.6-3-1.5-3-1.5l-0.8,0.3c0.8,0.2,1.5,0.7,2,1.4C98-100.4,99.4-100.1,99-101.6z"/>
	<path class="st5" d="M97.8-106.3c-0.4-1.6-2.3-0.3-2.2,1c0.1,0.9-0.1,1.7-0.4,2.5l0.8-0.4C95.9-103.2,98.1-104.8,97.8-106.3z"/>
	<path class="st5" d="M97.5-103.7c1-0.7,2.1-1.3,3.3-1.6c1.3-0.2,1.8,0.7,1.6,1.2s-1.1,0.7-1.9,0.6S97.5-103.8,97.5-103.7z"/>
	<path class="st5" d="M97.5-103.6L97.5-103.6v-0.1l0,0l0,0c1-0.8,2.1-1.3,3.3-1.6c0.5-0.2,1.1,0,1.5,0.4c0.2,0.3,0.3,0.6,0.2,0.9
		c-0.3,0.7-1.6,0.7-2,0.7C99.7-103.5,97.7-103.6,97.5-103.6L97.5-103.6z M101.8-105.2c-0.3-0.1-0.6-0.1-0.9-0.1
		c-1.1,0.3-2.1,0.8-3.1,1.4l1,0.1c0.6,0,1.4,0.1,1.8,0.2c0.7,0,1.6-0.1,1.8-0.6c0.1-0.3,0-0.5-0.2-0.7
		C102.1-105,101.9-105.1,101.8-105.2L101.8-105.2z"/>
	<path class="st5" d="M86.4-92.7c-0.1,0-0.1,0-0.2,0l0,0c-2.9-5.3-2.9-11.7,0.1-17c0-0.1,0.1-0.1,0.2,0c0.1,0,0.1,0.1,0,0.2l0,0
		C83.6-104.3,83.5-98,86.4-92.7C86.5-92.8,86.4-92.7,86.4-92.7L86.4-92.7z"/>
	<path class="st5" d="M86.9-98.5c-1.7,0.2-1.8,2.9-1.7,3c0.1,0.3,0.2,0.5,0.3,0.8c0-0.4,0.5-1.2,1.6-1.9S88.4-98.8,86.9-98.5z"/>
	<path class="st5" d="M82.1-97.7c-1.6,0.3-0.5,2.2,0.9,2.3c0.9,0,1.7,0.2,2.5,0.6c-0.1-0.3-0.2-0.5-0.3-0.8
		C85-95.5,83.6-97.9,82.1-97.7z"/>
	<path class="st5" d="M86.6-101c-1.7-0.1-2.2,2.6-2.2,2.6c0,0.3,0.1,0.6,0.1,0.8c0.1-0.4,0.7-1,1.9-1.6C87.6-99.8,88.2-101,86.6-101
		z"/>
	<path class="st5" d="M81.8-101c-1.6,0-0.8,2.1,0.5,2.4c0.8,0.1,1.6,0.5,2.3,1c-0.1-0.3-0.1-0.6-0.2-0.8
		C84.3-98.4,83.3-100.9,81.8-101z"/>
	<path class="st5" d="M86.8-103.5c-1.6-0.3-2.6,2.2-2.6,2.2c0,0.3,0,0.6,0,0.9c0.5-0.7,1.3-1.1,2.1-1.2
		C87.5-102,88.4-103.2,86.8-103.5z"/>
	<path class="st5" d="M82-104.2c-1.6-0.3-1.2,1.9,0.1,2.4c0.8,0.3,1.5,0.8,2.1,1.4c0-0.3,0-0.6,0-0.9
		C84.1-101.3,83.6-103.9,82-104.2z"/>
	<path class="st5" d="M87.4-105.9c-1.6-0.6-3,1.7-2.9,1.7c-0.1,0.3-0.1,0.5-0.2,0.8c0.6-0.6,1.4-0.9,2.3-0.9
		C87.9-104.3,88.9-105.3,87.4-105.9z"/>
	<path class="st5" d="M82.8-107.4c-1.6-0.5-1.5,1.7-0.3,2.4c0.8,0.4,1.4,1,1.8,1.7c0-0.3,0.1-0.6,0.1-0.8
		C84.4-104.1,84.3-106.9,82.8-107.4z"/>
	<path class="st5" d="M88.4-108.1c-1.4-0.9-3.2,1.2-3.2,1.2c-0.1,0.3-0.2,0.5-0.3,0.8c0.7-0.5,1.6-0.6,2.4-0.5
		C88.6-106.5,89.8-107.4,88.4-108.1z"/>
	<path class="st5" d="M84.2-110.5c-1.4-0.8-1.8,1.5-0.8,2.3c0.7,0.5,1.2,1.2,1.5,2c0.1-0.3,0.2-0.5,0.2-0.8
		C85.1-106.9,85.5-109.6,84.2-110.5z"/>
	<path class="st5" d="M85.8-108.5c0.1-1.2,0.5-2.4,1.1-3.5c0.7-1.1,1.7-0.9,2-0.3c0.3,0.6-0.3,1.3-0.8,1.8S85.8-108.5,85.8-108.5z"
		/>
	<path class="st5" d="M85.9-108.4L85.9-108.4C85.8-108.4,85.8-108.4,85.9-108.4L85.9-108.4C85.8-108.4,85.8-108.4,85.9-108.4
		c0-1.3,0.4-2.5,1-3.6c0.2-0.5,0.8-0.8,1.3-0.8c0.3,0,0.6,0.2,0.8,0.5c0.3,0.7-0.6,1.6-0.8,1.9C87.6-109.9,86.1-108.5,85.9-108.4
		L85.9-108.4z M87.7-112.6c-0.3,0.1-0.5,0.4-0.7,0.6c-0.5,1-0.9,2.1-1,3.2l0.7-0.7c0.4-0.4,1-0.9,1.3-1.2c0.5-0.5,1-1.2,0.8-1.7
		c-0.1-0.2-0.4-0.4-0.6-0.4C88-112.7,87.8-112.7,87.7-112.6z"/>
	<path class="st5" d="M627.6-84c0.1,0,0.2-0.2,0.1-0.3l0,0c-2.9-8.8-10.1-15.4-19.1-17.6c-0.1,0-0.2,0-0.3,0.1l0,0
		c0,0.1,0,0.2,0.2,0.2c8.9,2.1,16,8.6,18.8,17.3C627.3-84.1,627.5-84,627.6-84L627.6-84z"/>
	<path class="st5" d="M620.6-89.6c2-1.6,5.1,1.1,5,1.2c0.2,0.4,0.4,0.8,0.6,1.2c-0.4-0.4-1.9-0.6-3.8-0.2S618.6-88.1,620.6-89.6z"/>
	<path class="st5" d="M626.5-94.1c2-1.5,3,1.8,1.7,3.4s-1.9,2.8-1.9,3.4c-0.2-0.4-0.4-0.8-0.6-1.2C625.8-88.5,624.6-92.6,626.5-94.1
		z"/>
	<path class="st5" d="M618-92.5c1.7-1.9,5.2,0.2,5.2,0.3c0.3,0.3,0.5,0.7,0.8,1c-0.5-0.3-1.9-0.3-3.7,0.5S616.4-90.7,618-92.5z"/>
	<path class="st5" d="M623.1-97.9c1.7-1.9,3.2,1.2,2.2,3s-1.4,3.1-1.3,3.7c-0.2-0.4-0.5-0.7-0.7-1.1C623.4-92.3,621.5-96,623.1-97.9
		z"/>
	<path class="st5" d="M615.1-94.8c1.3-2.2,5.1-0.7,5.1-0.6c0.3,0.3,0.7,0.6,1,0.9c-0.5-0.2-2,0.1-3.6,1.1S613.7-92.8,615.1-94.8z"/>
	<path class="st5" d="M619.2-101c1.4-2.1,3.4,0.7,2.7,2.6s-0.9,3.3-0.7,3.8c-0.3-0.3-0.6-0.6-0.9-0.9C620.4-95.6,617.9-99,619.2-101
		z"/>
	<path class="st5" d="M611.7-96.7c1-2.4,5-1.5,5-1.5c0.4,0.2,0.7,0.5,1.1,0.7c-0.6-0.1-1.9,0.4-3.3,1.7S610.8-94.4,611.7-96.7z"/>
	<path class="st5" d="M614.8-103.4c1-2.3,3.5,0.1,3,2.1s-0.3,3.4,0,3.9c-0.3-0.3-0.7-0.5-1-0.8C616.8-98.3,613.9-101.2,614.8-103.4z
		"/>
	<path class="st5" d="M608.1-97.9c0.5-2.5,4.7-2.4,4.7-2.3l1.2,0.5c-0.6,0-1.8,0.7-3,2.2S607.5-95.6,608.1-97.9z"/>
	<path class="st5" d="M610-105.1c0.6-2.4,3.5-0.5,3.4,1.6s0.3,3.4,0.7,3.8c-0.4-0.2-0.8-0.4-1.2-0.6
		C612.9-100.4,609.5-102.8,610-105.1z"/>
	<path class="st5" d="M610.4-101.1c-1.5-1.1-3.3-1.9-5.1-2.5c-2-0.4-2.7,1-2.4,1.8s1.7,1,2.9,1S610.4-101.2,610.4-101.1z"/>
	<path class="st5" d="M610.5-101L610.5-101c0.1,0,0.1-0.1,0.1-0.1l0,0c0,0,0-0.1-0.1-0.1c-1.5-1.1-3.3-2-5.1-2.5
		c-0.8-0.2-1.7,0-2.3,0.6c-0.3,0.4-0.4,0.9-0.3,1.4c0.4,1.1,2.4,1.1,3,1.1c1.1-0.2,4.2-0.4,4.5-0.4C610.4-101,610.5-101,610.5-101z
		 M603.9-103.4c0.5-0.2,0.9-0.2,1.4-0.1c1.7,0.4,3.3,1.2,4.7,2.2l-1.5,0.1c-0.9,0.1-2.1,0.2-2.7,0.3c-1.1,0.1-2.4-0.1-2.7-0.9
		c-0.1-0.4,0-0.8,0.2-1.1C603.5-103.1,603.7-103.3,603.9-103.4z"/>
	<path class="st5" d="M627.4-84.2c0.1,0.1,0.2,0,0.3-0.1l0,0c4.5-8.1,4.4-17.9-0.1-26c-0.1-0.1-0.2-0.1-0.3-0.1
		c-0.1,0.1-0.1,0.2-0.1,0.3l0,0c4.5,7.9,4.5,17.6,0.1,25.6C627.3-84.4,627.3-84.3,627.4-84.2L627.4-84.2z"/>
	<path class="st5" d="M626.8-93.2c2.5,0.3,2.7,4.5,2.6,4.5c-0.1,0.4-0.3,0.8-0.4,1.3c0-0.6-0.8-1.8-2.4-2.9S624.4-93.6,626.8-93.2z"
		/>
	<path class="st5" d="M634-91.9c2.5,0.4,0.7,3.4-1.3,3.5s-3.4,0.5-3.8,1c0.2-0.4,0.3-0.8,0.5-1.2C629.5-88.6,631.7-92.2,634-91.9z"
		/>
	<path class="st5" d="M627.1-97c2.6-0.1,3.4,3.9,3.3,4c0,0.4-0.1,0.9-0.2,1.3c-0.1-0.6-1.1-1.6-2.9-2.4S624.7-97,627.1-97z"/>
	<path class="st5" d="M634.5-96.9c2.5,0,1.3,3.2-0.7,3.6s-3.2,1.1-3.5,1.6c0.1-0.4,0.2-0.9,0.3-1.3
		C630.6-92.9,632.1-96.8,634.5-96.9z"/>
	<path class="st5" d="M626.8-100.7c2.5-0.5,4,3.3,3.9,3.3c0,0.4,0,0.9,0,1.3c-0.2-0.5-1.4-1.4-3.2-1.9S624.4-100.3,626.8-100.7z"/>
	<path class="st5" d="M634.1-101.9c2.5-0.4,1.8,2.9-0.1,3.7s-3,1.6-3.2,2.1c0-0.4,0.1-0.9,0.1-1.3C631-97.4,631.8-101.4,634.1-101.9
		z"/>
	<path class="st5" d="M625.9-104.4c2.4-0.9,4.5,2.6,4.4,2.6c0.1,0.4,0.2,0.8,0.2,1.3c-0.3-0.5-1.6-1.1-3.5-1.3
		S623.6-103.6,625.9-104.4z"/>
	<path class="st5" d="M632.9-106.8c2.4-0.8,2.3,2.6,0.5,3.7s-2.7,2.1-2.8,2.6c0-0.4-0.1-0.9-0.2-1.3
		C630.6-101.8,630.7-105.9,632.9-106.8z"/>
	<path class="st5" d="M624.4-107.9c2.2-1.3,4.9,1.8,4.8,1.9c0.2,0.4,0.3,0.8,0.5,1.2c-0.4-0.4-1.8-0.9-3.7-0.7
		S622.2-106.7,624.4-107.9z"/>
	<path class="st5" d="M630.9-111.5c2.2-1.2,2.7,2.2,1.2,3.5s-2.3,2.5-2.3,3.1c-0.1-0.4-0.2-0.8-0.4-1.2
		C629.4-106.1,628.9-110.2,630.9-111.5z"/>
	<path class="st5" d="M628.3-108.4c-0.2-1.9-0.8-3.7-1.7-5.4c-1.1-1.7-2.6-1.3-3-0.5s0.4,2,1.2,2.8S628.3-108.5,628.3-108.4z"/>
	<path class="st5" d="M628.2-108.3L628.2-108.3c0.1,0,0.1,0,0.2,0l0,0v-0.1c-0.2-1.9-0.8-3.7-1.7-5.4c-0.4-0.8-1.2-1.2-2-1.3
		c-0.5,0-1,0.3-1.2,0.8c-0.5,1.1,0.8,2.5,1.3,2.9C625.7-110.7,628-108.6,628.2-108.3L628.2-108.3z M625.5-114.7c0.4,0.2,0.8,0.6,1,1
		c0.8,1.5,1.4,3.2,1.6,4.9c-0.2-0.2-0.5-0.5-1.1-1s-1.6-1.4-2-1.8c-0.8-0.8-1.6-1.9-1.2-2.6c0.2-0.4,0.6-0.6,1-0.6
		C625-114.8,625.3-114.8,625.5-114.7L625.5-114.7z"/>
	<path class="st5" d="M145.3-77.4c0.1,0,0.2-0.2,0.1-0.3c-2.9-8.8-10.2-15.5-19.2-17.6c-0.1,0-0.2,0.1-0.2,0.2s0,0.2,0.1,0.2
		c8.9,2.1,16,8.7,18.9,17.3C145-77.4,145.1-77.3,145.3-77.4C145.2-77.4,145.2-77.4,145.3-77.4L145.3-77.4z"/>
	<path class="st5" d="M138.2-83c2-1.6,5.1,1.1,5.1,1.2c0.2,0.4,0.4,0.8,0.6,1.2c-0.4-0.4-1.9-0.6-3.8-0.2
		C138.2-80.4,136.3-81.5,138.2-83z"/>
	<path class="st5" d="M144.2-87.5c2-1.5,3,1.8,1.7,3.4s-1.9,2.8-1.9,3.4c-0.2-0.4-0.4-0.8-0.6-1.2C143.5-81.9,142.3-85.9,144.2-87.5
		z"/>
	<path class="st5" d="M135.7-85.9c1.7-1.9,5.2,0.2,5.2,0.3c0.3,0.3,0.6,0.7,0.8,1c-0.5-0.3-1.9-0.3-3.7,0.5
		C136.2-83.3,134-84.1,135.7-85.9z"/>
	<path class="st5" d="M140.8-91.2c1.7-1.8,3.2,1.2,2.2,3s-1.4,3.1-1.3,3.7c-0.2-0.4-0.5-0.7-0.7-1.1C141-85.7,139.2-89.4,140.8-91.2
		z"/>
	<path class="st5" d="M132.7-88.2c1.3-2.2,5.1-0.7,5.1-0.6c0.3,0.3,0.7,0.6,1,0.9c-0.5-0.2-1.9,0-3.6,1.1S131.4-86.2,132.7-88.2z"/>
	<path class="st5" d="M136.8-94.4c1.4-2.1,3.4,0.7,2.7,2.6c-0.7,1.9-0.9,3.3-0.7,3.8c-0.3-0.3-0.6-0.6-0.9-0.9
		C138-89,135.6-92.3,136.8-94.4z"/>
	<path class="st5" d="M129.4-90c0.9-2.4,5-1.5,5-1.5c0.4,0.2,0.7,0.5,1.1,0.7c-0.6-0.1-1.9,0.4-3.3,1.7
		C130.8-87.8,128.4-87.8,129.4-90z"/>
	<path class="st5" d="M132.4-96.8c1-2.3,3.4,0.1,3,2.1c-0.4,2-0.3,3.4,0,3.9c-0.3-0.3-0.7-0.5-1-0.8
		C134.5-91.6,131.6-94.6,132.4-96.8z"/>
	<path class="st5" d="M125.8-91.3c0.5-2.5,4.7-2.4,4.7-2.2c0.4,0.2,0.8,0.3,1.2,0.5c-0.6,0-1.8,0.7-3,2.2
		C127.5-89.3,125.2-88.9,125.8-91.3z"/>
	<path class="st5" d="M127.6-98.5c0.6-2.5,3.4-0.5,3.4,1.6s0.3,3.4,0.7,3.8l-1.2-0.6C130.6-93.7,127.2-96.1,127.6-98.5z"/>
	<path class="st5" d="M128.1-94.5c-1.5-1.1-3.3-2-5.1-2.5c-2-0.4-2.7,1-2.4,1.8s1.7,1,2.9,1S128.1-94.6,128.1-94.5z"/>
	<path class="st5" d="M128.2-94.4L128.2-94.4c0.1,0,0.1-0.1,0.1-0.1l0,0c0,0,0-0.1-0.1-0.1c-1.5-1.1-3.3-2-5.1-2.5
		c-0.8-0.2-1.7,0-2.3,0.6c-0.3,0.4-0.5,0.9-0.3,1.4c0.4,1.1,2.4,1.1,3,1c1.1-0.2,4.2-0.4,4.6-0.4L128.2-94.4z M121.6-96.7
		c0.5-0.2,0.9-0.2,1.4-0.1c1.7,0.4,3.3,1.2,4.7,2.2l-1.5,0.1c-0.9,0.1-2.1,0.2-2.7,0.2c-1.1,0.1-2.4-0.1-2.7-0.9
		c-0.1-0.4,0-0.8,0.2-1.1C121.2-96.5,121.4-96.7,121.6-96.7L121.6-96.7z"/>
	<path class="st5" d="M145.1-77.6c0.1,0,0.2,0,0.3-0.1c4.5-8.1,4.4-17.9-0.1-26c-0.1-0.1-0.2-0.1-0.3-0.1l0,0
		c-0.1,0.1-0.1,0.2-0.1,0.3c4.5,7.9,4.5,17.6,0.2,25.6C145-77.8,145-77.7,145.1-77.6L145.1-77.6L145.1-77.6z"/>
	<path class="st5" d="M144.4-86.5c2.5,0.3,2.7,4.5,2.6,4.5c-0.1,0.4-0.3,0.8-0.4,1.2c0-0.6-0.8-1.8-2.4-2.9
		C142.6-84.8,142-87,144.4-86.5z"/>
	<path class="st5" d="M151.7-85.2c2.5,0.4,0.7,3.4-1.3,3.5s-3.4,0.5-3.8,1c0.2-0.4,0.3-0.8,0.5-1.2
		C147.2-81.9,149.4-85.5,151.7-85.2z"/>
	<path class="st5" d="M144.8-90.3c2.6-0.1,3.4,3.9,3.3,4c0,0.4-0.1,0.9-0.2,1.3c-0.1-0.6-1.1-1.6-2.9-2.4S142.3-90.3,144.8-90.3z"/>
	<path class="st5" d="M152.2-90.3c2.5,0,1.3,3.2-0.7,3.6s-3.2,1.1-3.6,1.6c0.1-0.4,0.2-0.9,0.3-1.3
		C148.3-86.3,149.8-90.2,152.2-90.3z"/>
	<path class="st5" d="M144.5-94.1c2.5-0.5,4,3.3,3.9,3.3c0,0.4,0,0.9,0,1.3c-0.2-0.5-1.4-1.4-3.2-1.9
		C143.4-91.9,142.1-93.7,144.5-94.1z"/>
	<path class="st5" d="M151.8-95.3c2.5-0.4,1.8,2.9-0.1,3.7c-1.9,0.8-3,1.6-3.2,2.1c0-0.4,0-0.9,0.1-1.3
		C148.6-90.7,149.5-94.8,151.8-95.3z"/>
	<path class="st5" d="M143.6-97.8c2.4-0.9,4.5,2.6,4.4,2.6c0.1,0.4,0.2,0.9,0.2,1.3c-0.3-0.5-1.6-1.1-3.5-1.3
		C142.8-95.4,141.3-97,143.6-97.8z"/>
	<path class="st5" d="M150.6-100.2c2.4-0.8,2.2,2.6,0.5,3.7s-2.7,2.1-2.8,2.6c0-0.4-0.1-0.9-0.2-1.3
		C148.2-95.1,148.4-99.3,150.6-100.2z"/>
	<path class="st5" d="M142-101.3c2.2-1.3,4.9,1.8,4.8,1.9c0.2,0.4,0.3,0.8,0.5,1.2c-0.4-0.5-1.8-0.9-3.7-0.7S139.9-100.1,142-101.3z
		"/>
	<path class="st5" d="M148.6-104.8c2.2-1.2,2.7,2.2,1.2,3.5s-2.3,2.5-2.3,3.1c-0.1-0.4-0.2-0.8-0.4-1.2
		C147.1-99.4,146.5-103.6,148.6-104.8z"/>
	<path class="st5" d="M146-101.8c-0.2-1.9-0.8-3.7-1.7-5.4c-1.1-1.7-2.6-1.3-3-0.5c-0.4,0.8,0.4,2,1.2,2.8
		C143.3-104.1,146-101.8,146-101.8z"/>
	<path class="st5" d="M145.9-101.6L145.9-101.6c0.1,0,0.1,0,0.2,0l0,0v-0.1c-0.2-1.9-0.8-3.7-1.7-5.4c-0.4-0.8-1.2-1.2-2-1.3
		c-0.5,0-1,0.3-1.2,0.8c-0.5,1.1,0.8,2.5,1.3,2.9C143.4-104.1,145.6-101.9,145.9-101.6C145.8-101.7,145.9-101.6,145.9-101.6z
		 M143.2-108.1c0.4,0.2,0.8,0.6,1,1c0.8,1.5,1.4,3.2,1.6,4.9c-0.2-0.2-0.6-0.5-1.1-1c-0.7-0.6-1.6-1.4-2-1.8
		c-0.8-0.8-1.6-1.9-1.2-2.6c0.2-0.4,0.6-0.6,1-0.6C142.7-108.2,143-108.2,143.2-108.1z"/>
	<path class="st5" d="M750.2-85c0.1,0,0.1-0.1,0.1-0.2l0,0c-1.9-5.8-6.7-10.3-12.7-11.7c-0.1,0-0.1,0-0.2,0.1l0,0
		c0,0.1,0,0.2,0.1,0.2c5.9,1.4,10.6,5.8,12.5,11.5C750-85,750.1-85,750.2-85L750.2-85z"/>
	<path class="st5" d="M745.5-88.7c1.3-1.1,3.4,0.7,3.4,0.8c0.1,0.3,0.3,0.5,0.4,0.8c-0.8-0.4-1.7-0.4-2.5-0.1
		C745.5-87.1,744.2-87.7,745.5-88.7z"/>
	<path class="st5" d="M749.4-91.7c1.3-1,2,1.2,1.1,2.2c-0.6,0.6-1,1.4-1.2,2.3c-0.1-0.3-0.2-0.5-0.4-0.8
		C749-88,748.2-90.7,749.4-91.7z"/>
	<path class="st5" d="M743.8-90.6c1.1-1.3,3.5,0.1,3.4,0.2l0.5,0.7c-0.8-0.2-1.7-0.1-2.5,0.3C744.1-89,742.7-89.4,743.8-90.6z"/>
	<path class="st5" d="M747.2-94.2c1.1-1.2,2.1,0.8,1.5,2c-0.5,0.7-0.8,1.6-0.8,2.4c-0.2-0.2-0.3-0.5-0.5-0.7
		C747.4-90.5,746.2-93,747.2-94.2z"/>
	<path class="st5" d="M741.9-92.2c0.9-1.5,3.4-0.5,3.4-0.4c0.2,0.2,0.4,0.4,0.6,0.6c-0.9-0.1-1.7,0.2-2.4,0.7
		C742.4-90.7,741-90.8,741.9-92.2z"/>
	<path class="st5" d="M744.6-96.3c0.9-1.4,2.2,0.5,1.8,1.7c-0.4,0.8-0.5,1.7-0.4,2.5l-0.6-0.6C745.4-92.7,743.8-94.9,744.6-96.3z"/>
	<path class="st5" d="M739.7-93.4c0.6-1.6,3.3-1,3.3-1l0.7,0.5c-0.9,0.1-1.6,0.5-2.2,1.1C740.5-92,739-91.9,739.7-93.4z"/>
	<path class="st5" d="M741.7-97.9c0.7-1.5,2.3,0.1,2,1.4c-0.2,0.8-0.2,1.7,0,2.6l-0.7-0.5C743-94.5,741.1-96.4,741.7-97.9z"/>
	<path class="st5" d="M737.2-94.3c0.3-1.7,3.1-1.6,3.1-1.5l0.8,0.3c-0.8,0.2-1.5,0.7-2,1.5C738.3-93,736.9-92.7,737.2-94.3z"/>
	<path class="st5" d="M738.5-99c0.4-1.6,2.3-0.3,2.2,1c-0.1,0.9,0.1,1.7,0.4,2.5l-0.8-0.4C740.4-95.9,738.2-97.5,738.5-99z"/>
	<path class="st5" d="M738.8-96.4c-1-0.7-2.2-1.3-3.4-1.6c-1.3-0.3-1.8,0.7-1.6,1.2s1.1,0.7,1.9,0.6S738.8-96.4,738.8-96.4z"/>
	<path class="st5" d="M738.8-96.3L738.8-96.3c0,0,0.1-0.1,0-0.1l0,0l0,0c-1-0.8-2.2-1.3-3.4-1.6c-0.5-0.2-1.1,0-1.5,0.4
		c-0.2,0.3-0.3,0.6-0.2,0.9c0.3,0.7,1.6,0.7,2,0.7C736.5-96.1,738.6-96.2,738.8-96.3C738.8-96.2,738.8-96.3,738.8-96.3z M734.4-97.9
		c0.3-0.1,0.7-0.1,1,0c1.1,0.3,2.2,0.8,3.1,1.4l-1,0.1c-0.6,0-1.4,0.1-1.8,0.2c-0.8,0-1.6-0.1-1.8-0.6c-0.1-0.3,0-0.5,0.2-0.8
		C734.2-97.7,734.3-97.8,734.4-97.9z"/>
	<path class="st5" d="M750.1-85.1c0.1,0,0.1,0,0.2-0.1c3-5.4,2.9-11.9-0.1-17.3c0-0.1-0.1-0.1-0.2,0c-0.1,0-0.1,0.1-0.1,0.2
		c3,5.3,3,11.7,0.1,17C750-85.3,750-85.2,750.1-85.1L750.1-85.1z"/>
	<path class="st5" d="M749.6-91.1c1.7,0.2,1.8,3,1.7,3c-0.1,0.3-0.2,0.6-0.3,0.8c0-0.4-0.5-1.2-1.6-1.9S748-91.4,749.6-91.1z"/>
	<path class="st5" d="M754.5-90.2c1.7,0.3,0.5,2.3-0.9,2.3c-0.9,0-1.7,0.2-2.5,0.6c0.1-0.3,0.2-0.5,0.3-0.8
		C751.5-88,752.9-90.4,754.5-90.2z"/>
	<path class="st5" d="M749.9-93.6c1.7-0.1,2.3,2.6,2.2,2.6c0,0.3-0.1,0.6-0.1,0.9c-0.1-0.4-0.7-1.1-1.9-1.6S748.2-93.6,749.9-93.6z"
		/>
	<path class="st5" d="M754.8-93.6c1.7,0,0.8,2.1-0.5,2.4c-0.9,0.1-1.7,0.5-2.4,1c0.1-0.3,0.1-0.6,0.2-0.9
		C752.2-90.9,753.2-93.5,754.8-93.6z"/>
	<path class="st5" d="M749.7-96.1c1.7-0.3,2.7,2.2,2.6,2.2c0,0.3,0,0.6,0,0.9c-0.5-0.7-1.3-1.1-2.2-1.2
		C748.9-94.6,748.1-95.8,749.7-96.1z"/>
	<path class="st5" d="M754.5-96.9c1.7-0.3,1.2,2,0,2.5c-0.8,0.3-1.6,0.8-2.2,1.4c0-0.3,0-0.6,0-0.9C752.4-93.9,753-96.6,754.5-96.9z
		"/>
	<path class="st5" d="M749.1-98.6c1.6-0.6,3,1.7,3,1.8c0.1,0.3,0.1,0.6,0.2,0.8c-0.6-0.6-1.5-0.9-2.3-0.9
		C748.6-97,747.5-98,749.1-98.6z"/>
	<path class="st5" d="M753.7-100.1c1.6-0.5,1.5,1.7,0.3,2.4c-0.8,0.4-1.4,1-1.9,1.8c0-0.3-0.1-0.6-0.1-0.9
		C752.2-96.8,752.3-99.6,753.7-100.1z"/>
	<path class="st5" d="M748-100.9c1.5-0.9,3.2,1.2,3.2,1.2c0.1,0.3,0.2,0.5,0.3,0.8c-0.7-0.5-1.6-0.6-2.4-0.5
		C747.9-99.3,746.6-100.1,748-100.9z"/>
	<path class="st5" d="M752.4-103.2c1.5-0.8,1.8,1.5,0.8,2.4c-0.7,0.5-1.2,1.2-1.6,2c-0.1-0.3-0.2-0.6-0.2-0.8
		C751.4-99.6,751-102.4,752.4-103.2z"/>
	<path class="st5" d="M750.7-101.2c-0.2-1.3-0.5-2.5-1.1-3.6c-0.7-1.1-1.7-0.9-2-0.4s0.3,1.3,0.8,1.9S750.7-101.2,750.7-101.2z"/>
	<path class="st5" d="M750.6-101.1L750.6-101.1C750.7-101.1,750.7-101.1,750.6-101.1L750.6-101.1
		C750.7-101.1,750.7-101.2,750.6-101.1c0-1.3-0.4-2.6-1-3.7c-0.3-0.5-0.8-0.8-1.3-0.8c-0.3,0-0.6,0.2-0.8,0.5
		c-0.3,0.7,0.6,1.7,0.8,2C748.9-102.7,750.4-101.3,750.6-101.1L750.6-101.1z M748.8-105.4c0.3,0.1,0.5,0.4,0.7,0.7
		c0.5,1,0.9,2.1,1,3.3c-0.1-0.1-0.3-0.3-0.7-0.7s-1-1-1.4-1.2c-0.5-0.5-1-1.2-0.8-1.7c0.1-0.2,0.4-0.4,0.7-0.4
		C748.5-105.5,748.7-105.5,748.8-105.4z"/>
	<path class="st5" d="M192.2-85c-0.1,0-0.1-0.1-0.1-0.2c1.9-5.8,6.7-10.3,12.7-11.7c0.1,0,0.1,0,0.2,0.1c0,0.1,0,0.1-0.1,0.2
		c-5.9,1.4-10.6,5.8-12.5,11.5C192.4-85,192.3-85,192.2-85L192.2-85z"/>
	<path class="st5" d="M196.9-88.7c-1.3-1.1-3.4,0.7-3.4,0.8c-0.1,0.3-0.3,0.5-0.4,0.8c0.8-0.4,1.7-0.4,2.5-0.1
		C196.8-87.1,198.2-87.7,196.9-88.7z"/>
	<path class="st5" d="M192.9-91.7c-1.3-1-2,1.2-1.1,2.2c0.6,0.6,1,1.4,1.2,2.3c0.1-0.3,0.2-0.5,0.4-0.8
		C193.4-88,194.2-90.7,192.9-91.7z"/>
	<path class="st5" d="M198.6-90.6c-1.1-1.3-3.4,0.1-3.4,0.2c-0.2,0.2-0.4,0.5-0.5,0.7c0.8-0.2,1.7-0.1,2.5,0.3
		C198.3-89,199.7-89.4,198.6-90.6z"/>
	<path class="st5" d="M195.2-94.2c-1.1-1.2-2.1,0.8-1.5,2c0.5,0.7,0.8,1.6,0.9,2.4c0.2-0.2,0.3-0.5,0.5-0.7
		C195-90.5,196.2-93,195.2-94.2z"/>
	<path class="st5" d="M200.5-92.2c-0.9-1.5-3.4-0.5-3.4-0.4c-0.2,0.2-0.4,0.4-0.6,0.6c0.9-0.1,1.7,0.2,2.4,0.7
		C200-90.7,201.4-90.8,200.5-92.2z"/>
	<path class="st5" d="M197.8-96.3c-0.9-1.4-2.2,0.5-1.8,1.7c0.4,0.8,0.5,1.7,0.4,2.5c0.2-0.2,0.4-0.4,0.6-0.6
		C197-92.7,198.6-94.9,197.8-96.3z"/>
	<path class="st5" d="M202.7-93.4c-0.6-1.6-3.3-1-3.3-1l-0.7,0.5c0.9,0.1,1.6,0.5,2.2,1.1C201.9-92,203.4-91.9,202.7-93.4z"/>
	<path class="st5" d="M200.7-97.9c-0.7-1.5-2.3,0.1-2,1.4c0.2,0.8,0.2,1.7,0,2.6l0.7-0.5C199.3-94.5,201.3-96.4,200.7-97.9z"/>
	<path class="st5" d="M205.1-94.3c-0.4-1.7-3.1-1.6-3.1-1.5l-0.8,0.3c0.8,0.2,1.5,0.7,2,1.5C204.1-93,205.5-92.7,205.1-94.3z"/>
	<path class="st5" d="M203.9-99c-0.4-1.6-2.3-0.3-2.3,1c0.1,0.9-0.1,1.7-0.4,2.5l0.8-0.4C202-95.9,204.2-97.5,203.9-99z"/>
	<path class="st5" d="M203.6-96.4c1-0.7,2.2-1.3,3.4-1.6c1.3-0.3,1.8,0.7,1.6,1.2s-1.1,0.7-1.9,0.6S203.6-96.4,203.6-96.4z"/>
	<path class="st5" d="M203.6-96.3L203.6-96.3v-0.1l0,0l0,0c1-0.8,2.2-1.3,3.4-1.6c0.5-0.2,1.1,0,1.5,0.4c0.2,0.3,0.3,0.6,0.2,0.9
		c-0.3,0.7-1.6,0.7-2,0.7C205.9-96.1,203.9-96.2,203.6-96.3C203.6-96.3,203.6-96.3,203.6-96.3z M207.9-97.9c-0.3-0.1-0.6-0.1-0.9,0
		c-1.1,0.3-2.2,0.8-3.1,1.4l1,0.1c0.6,0,1.4,0.1,1.8,0.2c0.8,0,1.6-0.1,1.8-0.6c0.1-0.3,0-0.5-0.1-0.8
		C208.2-97.7,208.1-97.8,207.9-97.9z"/>
	<path class="st5" d="M192.3-85.1c-0.1,0-0.1,0-0.2-0.1c-3-5.4-2.9-11.9,0.1-17.3c0-0.1,0.1-0.1,0.2-0.1c0.1,0,0.1,0.1,0.1,0.2l0,0
		c-3,5.3-3,11.7-0.1,17C192.4-85.2,192.4-85.2,192.3-85.1L192.3-85.1L192.3-85.1z"/>
	<path class="st5" d="M192.8-91.1c-1.7,0.2-1.8,3-1.7,3c0.1,0.3,0.2,0.6,0.3,0.8c0-0.4,0.5-1.2,1.6-1.9S194.3-91.4,192.8-91.1z"/>
	<path class="st5" d="M187.9-90.2c-1.6,0.3-0.5,2.3,0.9,2.3c0.9,0,1.7,0.2,2.5,0.6c-0.1-0.3-0.2-0.5-0.3-0.8
		C190.9-88,189.5-90.4,187.9-90.2z"/>
	<path class="st5" d="M192.5-93.6c-1.7-0.1-2.3,2.6-2.2,2.6c0,0.3,0.1,0.6,0.1,0.9c0.1-0.4,0.7-1.1,1.9-1.6S194.1-93.6,192.5-93.6z"
		/>
	<path class="st5" d="M187.6-93.6c-1.7,0-0.8,2.1,0.5,2.4c0.9,0.1,1.7,0.5,2.4,1c-0.1-0.3-0.1-0.6-0.2-0.9
		C190.2-90.9,189.2-93.5,187.6-93.6z"/>
	<path class="st5" d="M192.7-96.1c-1.7-0.3-2.7,2.2-2.6,2.2c0,0.3,0,0.6,0,0.9c0.5-0.7,1.3-1.1,2.1-1.2
		C193.4-94.6,194.3-95.8,192.7-96.1z"/>
	<path class="st5" d="M187.8-96.9c-1.6-0.3-1.2,2,0.1,2.5c0.8,0.3,1.6,0.8,2.1,1.4c0-0.3,0-0.6,0-0.9
		C190-93.9,189.4-96.6,187.8-96.9z"/>
	<path class="st5" d="M193.3-98.6c-1.6-0.6-3,1.7-2.9,1.8c-0.1,0.3-0.1,0.6-0.2,0.8c0.6-0.6,1.5-0.9,2.3-0.9
		C193.8-97,194.8-98,193.3-98.6z"/>
	<path class="st5" d="M188.6-100.1c-1.6-0.5-1.5,1.7-0.4,2.4c0.8,0.4,1.4,1,1.9,1.8c0-0.3,0.1-0.6,0.1-0.9
		C190.2-96.8,190.1-99.6,188.6-100.1z"/>
	<path class="st5" d="M194.3-100.9c-1.5-0.9-3.2,1.2-3.2,1.2c-0.1,0.3-0.2,0.5-0.3,0.8c0.7-0.5,1.6-0.6,2.4-0.5
		C194.5-99.3,195.8-100.1,194.3-100.9z"/>
	<path class="st5" d="M190-103.2c-1.5-0.8-1.8,1.5-0.8,2.4c0.7,0.5,1.2,1.2,1.6,2c0.1-0.3,0.2-0.6,0.2-0.8
		C191-99.6,191.4-102.4,190-103.2z"/>
	<path class="st5" d="M191.7-101.2c0.2-1.2,0.5-2.5,1.1-3.6c0.7-1.1,1.7-0.9,2-0.4s-0.3,1.3-0.8,1.9S191.7-101.2,191.7-101.2z"/>
	<path class="st5" d="M191.8-101.1L191.8-101.1h-0.1l0,0c0,0,0,0,0-0.1c0.1-1.3,0.5-2.5,1.1-3.6c0.3-0.5,0.8-0.8,1.3-0.8
		c0.3,0,0.6,0.2,0.8,0.5c0.4,0.7-0.6,1.7-0.9,2C193.5-102.7,192-101.3,191.8-101.1L191.8-101.1z M193.6-105.4
		c-0.3,0.1-0.5,0.4-0.7,0.7c-0.5,1-0.9,2.1-1.1,3.3l0.7-0.7c0.4-0.4,1-1,1.4-1.2c0.6-0.5,1-1.2,0.8-1.7c-0.1-0.2-0.4-0.4-0.6-0.4
		C193.9-105.5,193.7-105.5,193.6-105.4z"/>
</g>
<g>
	<g id="Shape_65" class="st6">
		<path class="st7" d="M1167.2-219.2c-16.1-90.5-174.2-150-212-114.2c-28.8,27.3,15.5,115.1-4.2,125.4
			c-18.4,9.7-61.8-65.9-109.3-60.5c-44.7,5.1-85.3,74.1-80.4,137.9C765.5-76.2,803-26.4,860-2.8l-38.4-95.9
			c28.7,38.2,65.8,65.8,108.9,74C1047.2-2.4,1183.9-125.4,1167.2-219.2z"/>
	</g>
	<g id="Shape_51_copy">
		<path class="st8" d="M1002.4-131.7c-0.5-7.3-0.9-14.6-1.4-21.9l-25.9-2.3c0,2.2,0.2,4.3,0.3,6.4c1.1,13.4,4.1,26.6,9.1,39.1
			c6.2,0.6,12.3,1.1,18.5,1.4h1.2L1002.4-131.7z"/>
	</g>
	<g id="Ellipse_8_copy">
		<ellipse class="st9" cx="984.9" cy="-145.8" rx="3.4" ry="5.4"/>
	</g>
	<g id="Shape_62">
		<path class="st10" d="M1019.9-79.4c0.4,8.8,1.3,24.6,2.7,24.6c1.4,0,3-18,3.7-27.6L1019.9-79.4z"/>
	</g>
	<g id="Shape_62_copy">
		<path class="st10" d="M1013.5-80.3c0.4,8.8,1.3,24.6,2.7,24.6s3-18,3.7-27.6L1013.5-80.3z"/>
	</g>
	<g id="Shape_60">
		<path class="st11" d="M1012.2-139.7c-0.6,0-1.2,2-2.7,4.7c-2.9,5.4-5.5,8.2-4.7,12.1c0.3,1.4,0.9,3,2,3.4c1.9,0.7,4.4-2.2,5-3
			C1016.7-128.7,1014.1-139.6,1012.2-139.7z"/>
	</g>
	<g id="Shape_61">
		<path class="st11" d="M1027.3-153.9c-2.6-2.1-7.5-0.5-9.7,2.7s-2.2,8.3,0.7,10.1c2.6,1.6,6.4-0.1,8.4-2.4
			C1029.3-146.4,1030-151.7,1027.3-153.9z"/>
	</g>
	<g id="Shape_59">
		<path class="st10" d="M980.9-121.5c-0.2-1.6,0.6-2.5,1.1-4.2c0.9-3.3-0.2-8.1-3.1-9.3c-2.6-1-6,0.9-7.4,3.4
			c-2.5,4.4,0.9,11,5.4,13.2c2.2,1.1,5,1.2,5.4,0.3C982.7-119,981.1-120,980.9-121.5z"/>
	</g>
	<g id="Shape_57">
		<path class="st12" d="M1033-112.1c-1.4-11.1-2.8-22-4.4-33l-11.1,1.7c-1.9,0.6-3.6,1.7-5,3l-0.3,0.3c-0.2,4-0.6,7.9-1.4,11.8
			c-0.9,4.3-2,8.6-3.4,12.8c-2.1,6.8-3.6,13.8-4.4,20.9c-0.3,5.2-0.1,10.4,0.7,15.5c10.8,4.8,23.4,3.1,32.6-4.4
			C1035.3-93,1034.2-102.6,1033-112.1z"/>
	</g>
	<g id="Shape_56">
		<path class="st10" d="M1037.8-140.4c-2.3-2.5-5.4-4-8.8-4.4c-1.9,1.8-2.8,3.6-2.7,5.4c0.2,2.4,2.7,3.9,3.4,5.4
			c1.8,4-1,9.7-6.4,16.2l-16.5-5.7l-2.7,7.8l20.2,7.4c4.9-2,9.1-5.4,11.9-9.9C1039.6-123.6,1043.2-134,1037.8-140.4z"/>
	</g>
	<g id="Shape_58">
		<path class="st10" d="M1006.1-131.7c-1.4-2.8-4-4.8-4.7-4.4c-0.7,0.5,0.6,3.5-0.1,3.9c-0.9,0.5-3.7-4.5-8-5.6
			c-2.7-0.5-5.4,0-7.7,1.4l0.3,7.1c-0.5,3.8,0.6,7.5,3,10.5c4.2,4.7,12,6.1,15.8,2.7c1.4-2,2.3-4.3,2.5-6.8
			C1007.8-125.9,1007.4-128.9,1006.1-131.7z"/>
	</g>
	<g id="Shape_54">
		<path class="st10" d="M1040.4-197.7c-9.5-8.3-26-8-35,1c-5,5.2-7.6,12.3-7.1,19.6c0.3,4.4,2.8,8,2.3,13.6c-0.2,2.3-1,3.7-0.5,5.7
			c1.6,6.9,12.6,11.5,22,10.7c6.2-0.7,11.9-3.5,16.2-8C1048.4-165.4,1052.9-186.8,1040.4-197.7z"/>
	</g>
	<g id="Shape_53">
		<path class="st13" d="M1058.6-184.2c-0.7-4.7-3.6-10.7-7.4-11.1c-1.6-0.2-3.5,1-3.7,0.7c-0.2-0.4,1.2-1.4,1.7-2.7
			c1.3-3.7-3-9-7.4-11.5c-2.3-1.4-6.9-3.4-10.4-1.7c-0.5,0.3-3,2.5-4,2c-0.3-0.1-0.5-0.4-0.7-0.7c-0.3-0.7,0.1-1.2,0-1.7
			c-0.5-1.7-7.3-1.7-13.8,0.7c-3.5,1.2-6.6,3.3-9.1,6.1c-2,2.6-5.1,7.8-3.3,10.4c1.8,2.6,8.3,2.4,17.2-1.9c0.5,1.3,1.1,2.5,1.9,3.5
			c1.8,2.1,3.9,3.8,6.4,5.1c2.2,1.1,4.6,1.9,7.1,2.4c-1.8,1.1-3.3,2.6-4.4,4.4c-3.4,6.7-1.4,14.8,4.7,19.1c3.4,2.2,7.6,2.7,11.4,1.5
			c2-0.7,5.4-3.2,8.5-7.8C1058-174.6,1059-181.7,1058.6-184.2z"/>
	</g>
	<g id="Shape_55">
		<path class="st13" d="M1049.5-156.6c-1.7-5.3-3.8-7.9-6.1-8.8c-2.6-0.9-5.4-0.6-7.7,0.7c-3.1,5-4.7,10.7-4.7,16.5
			c0,7.1,1.6,14.7,6.7,16.9c3.4,1.2,7.3,0.6,10.1-1.7C1052.9-137,1052.9-145.6,1049.5-156.6z"/>
	</g>
	<g id="Shape_51">
		<path class="st14" d="M926.5-153.9l-1.4,21.7l-1.8,22.4h1.2c6.2-0.3,12.2-0.7,18.3-1.4c4.9-12.4,7.9-25.4,9-38.6
			c0.2-2.1,0.3-4.2,0.3-6.3L926.5-153.9z"/>
	</g>
	<g id="Ellipse_8">
		<path class="st15" d="M942.5-151.6c-1.8,0-3.3,2.4-3.3,5.3s1.5,5.3,3.3,5.3s3.3-2.4,3.3-5.3S944.3-151.6,942.5-151.6z"/>
	</g>
	<g id="Shape_52">
		<path class="st11" d="M912.2-147.6l-9.7-0.3l0.7,7.7c2,3.1,5.1,4.2,7.3,3.3c1-0.5,1.9-1.3,2.3-2.3L912.2-147.6z"/>
	</g>
	<g id="Shape_50">
		<path class="st15" d="M905.6-52.9c-0.9-0.1-1.7-0.1-2.6,0c-4.3,0.3-8.1,2.5-7.9,3.4s6.1,0.5,10.9,0L905.6-52.9z"/>
	</g>
	<g id="Shape_50_copy">
		<path class="st15" d="M917.4-54c-0.9-0.1-1.7-0.1-2.6,0l-0.5,3.3c4.8,0.6,10.7,1,10.9,0C925.5-51.7,921.7-53.6,917.4-54z"/>
	</g>
	<g id="Shape_50_copy_2">
		<path class="st12" d="M1016.4-56.1c-1.2-0.1-2.5-0.1-3.7,0c-6.2,0.5-11.8,3.6-11.5,4.9s8.9,0.8,15.9,0L1016.4-56.1z"/>
	</g>
	<g id="Shape_50_copy_3">
		<path class="st12" d="M1024.1-55.7c-1.2-0.1-2.5-0.1-3.7,0c-6.2,0.5-11.8,3.6-11.5,4.9s8.9,0.8,15.9,0L1024.1-55.7z"/>
	</g>
	<g id="Shape_49">
		<path class="st16" d="M920.5-98.6h-22l2,20l4.7,25.6l4-39h4c0.2,4.7,0.4,9.3,0.7,14c0.5,8.2,1,16.2,1.7,24.3
			c2.3-8.3,3.9-16.7,4.7-25.3C920.8-85.5,920.9-92.1,920.5-98.6z"/>
	</g>
	<g id="Shape_44">
		<path class="st17" d="M913.6-138.8c-3-1.6-6.4-2.1-9.7-1.4c-3.5,0.7-6.5,2.7-8.5,5.6c-4.5,6.8,0.5,15.3,2.3,28.8
			c0.5,3.3,0.7,6.6,0.7,10l21.8-0.3l2.8-16.5C924.6-125.4,920.4-135.3,913.6-138.8z"/>
	</g>
	<g id="Shape_48">
		<path class="st10" d="M950.5-141c-1.7-0.3-3.6,1.6-4.4,3.3c-0.9,2.3-0.5,4.9,1.1,6.8l-0.3,8.5c2.8-0.1,5.4-1.4,7.2-3.6
			C957.8-131.2,954-140.4,950.5-141z"/>
	</g>
	<g id="Shape_42">
		<path class="st7" d="M918.5-119.2l-15.3,5.7l-5.3-11.7l4.9-14.5c-5.6,0.7-11.9,3.3-14.8,8.6c-4.3,8.1,0.1,21.8,13.5,28.9l19.7-12
			L918.5-119.2z"/>
	</g>
	<g id="Shape_43">
		<path class="st10" d="M938.7-137.7c-1.2-0.5-3.5,0.6-6.8,2.5c-2,1.2-5.1,2.9-6,2c-0.7-0.6,0.3-2.2-0.2-2.7c-0.9-0.8-4.9,1.5-7.4,5
			c-2.7,3.9-3.4,8.8-2,13.3c0.4,1.3,1.1,2.6,2,3.7c3.8,3.5,12.1,1.4,16.9-2.9c3.2-3,5.2-7,5.7-11.3
			C940.9-129.9,941.5-136.5,938.7-137.7z"/>
	</g>
	<g id="Ellipse_5">
		<path class="st10" d="M889.1-167c-1-4.7-4.4-8.3-7.8-8.5c-3.4-0.2-6.4,2.8-6.3,8c0,5.5,3.8,11,8.3,11
			C887.8-156.6,890.1-161.9,889.1-167z"/>
	</g>
	<g id="Ellipse_5_copy">
		<path class="st10" d="M934.4-175.7c-1-4.7-4.4-8.3-7.8-8.5c-3.4-0.2-6.4,2.8-6.3,8c0,5.5,3.8,11,8.3,11S935.4-170.6,934.4-175.7z"
			/>
	</g>
	<g id="Shape_41">
		<path class="st10" d="M928.8-168.2c-0.2-5.6-2.2-8.6-4-14c-2.8-8.3-1.9-14.7-6.3-18.3c-6.5-5.5-18.8-4.3-26,1.7
			c-3,2.5-7.2,14.4-6.9,31c0.1,5.3,0.6,10.5,4.3,15c4.1,4.9,10.9,6.9,17.8,7.1c7.2,0.2,12.5-2.1,14.5-3.8
			C927.9-154.2,929.1-162.2,928.8-168.2z"/>
	</g>
	<g id="Shape_40">
		<path class="st13" d="M925.2-193.9c-0.3-1.6-0.8-3.3-1.4-4.8c-0.7-1.4-1.6-2.6-1.4-4.2c0.2-1.4,1.2-1.8,1.7-3c0.5-1.9,0.2-4-1-5.7
			c-0.5-0.8-2.4-3.3-4.7-3c-1.1,0.1-1.8,1.2-2.7,1c-1.2-0.3-1.2-2.9-2.3-4.3c-1.9-2-4.8-2.7-7.3-1.7c-1.8,0.9-1.9,2.7-3.7,3.3
			s-4.3-1.1-6.3-1.4c-2.6-0.3-6.1,0.5-7.3,2.7c-1,1.7,0.2,4.4-1,5.3c-0.3,0.2-0.7,0.3-1.1,0.3c-1.2,0.1-2.4,0.4-3.6,0.7
			c-3.1,0.8-6.5,3.7-6.7,6.7s3.8,5.9,3,7.3c-0.6,1-3.2,0.1-4.7,1.4c-1.5,1.3-1.9,4.6-0.9,6.8c1.5,3.2,6.4,4.3,6.2,5.2
			c-0.1,0.7-2.6,0.4-3.7,1.7c-1.4,1.7-0.6,5.3,1,6c0.9,0.4,2.2-0.5,2.7,0s0,1.2,0,1.7c0.6,2.1,2.5,3.5,4.7,3.3
			c5.6-1.4,1.7-26,9-28.3c1.9-0.6,5.1,1.5,6.9,2c5.4,1.4,11.3,1.7,14.3-1.4c1.1-1.1,1.6-2.3,2.7-2.3c1.5,0,2.8,2.7,4,6
			c1.4,4,2.5,8.1,3.1,12.3c0.5-1.6,0.8-3.3,1-5C926-188.2,925.8-191,925.2-193.9z"/>
	</g>
	<g id="Ellipse_6">
		<path class="st18" d="M907.5-176.6c-0.2-5.3-1.9-8-3.3-8.7c-2-0.7-4.2-0.3-5.8,1c-1.6,1.8-2.4,4.2-2.2,6.7c0,1.8,0.3,8,4.3,9.6
			c1.5,0.6,3.2,0.5,4.7-0.3C906.4-169,907.7-171.8,907.5-176.6z"/>
	</g>
	<g id="Ellipse_6_copy">
		<path class="st18" d="M923.6-178.3c0.1-2.3-0.7-4.6-2.2-6.5c-1.4-1.4-3.4-1.9-5.3-1.2c-1.4,0.6-2.8,3.4-2.6,8.7
			c0.1,4.7,1.5,7.2,2.7,7.9c1.3,0.7,2.8,0.7,4.1,0C923.6-171,923.7-176.6,923.6-178.3z"/>
	</g>
	<g id="Shape_45_copy">
		<path class="st11" d="M919.5-166.9c-0.4-1-1.1-1.8-2-2.3c-2.5-1.7-4.2-2.6-5.3-2.3c-1.2,0.3-2,1.7-2.7,2.3
			c-1.4,1.1-3.8,1.3-4.3,2.7c-0.6,1.6,1.2,3.5,1.7,4c2.7,2.7,6.6,2.2,8.3,1.7c1.6-0.4,3.1-1.4,4-2.8
			C919.7-164.6,919.8-165.8,919.5-166.9z"/>
	</g>
	<g id="Ellipse_7">
		<path class="st15" d="M904.2-179.6c-1.7,0-3,2.5-3,5.6s1.4,5.6,3,5.6s3-2.5,3-5.6S905.8-179.6,904.2-179.6z"/>
	</g>
	<g id="Ellipse_7_copy">
		<path class="st15" d="M920.2-180.6c-1.7,0-3,2.5-3,5.6s1.4,5.6,3,5.6s3-2.5,3-5.6S921.8-180.6,920.2-180.6z"/>
	</g>
	<g id="Shape_46">
		<path class="st11" d="M921.3-160.4c-0.2-0.3-4.2,3.6-10.1,4.2c-4.5,0.3-8.9-0.9-12.7-3.3c0.9,1.3,2,2.4,3.3,3.3
			c3,1.9,6.5,2.6,10,2C917.8-155.3,921.6-160.1,921.3-160.4z"/>
	</g>
	<g id="Shape_46_copy">
		<path class="st11" d="M1019.5-159.9c-0.2-0.2-2.1,3-5.8,3.6c-2.9,0.5-6.1-0.4-9.6-2.8c0.7,1.2,1.7,2.3,2.8,3.2
			c2.1,1.7,4.8,2.2,7.4,1.4C1016.8-155.4,1018.7-157.4,1019.5-159.9z"/>
	</g>
	<g id="Shape_47">
		<path class="st13" d="M903.2-191.2c-2.4-1.2-6.1-0.4-9.3,3l0.3,2c3.1-2.5,7.1-3.5,11-3C904.7-190.1,904-190.7,903.2-191.2z"/>
	</g>
	<g id="Shape_63">
		<path class="st19" d="M1023.3-184.2c-0.4-0.2-0.9-0.4-1.4-0.3c-3.4,0.1-6.6,1.8-8.4,4.7c-2.7,4.3-2.1,10.9,0.7,12.1
			c2.8,1.2,7.1-2.5,9.1-6.4C1025.1-177.6,1025.5-182.9,1023.3-184.2z"/>
	</g>
	<g id="Ellipse_9">
		<path class="st15" d="M1014.5-177.8c-1.9,0-3.4,2.3-3.4,5.2s1.5,5.2,3.4,5.2s3.4-2.3,3.4-5.2S1016.4-177.8,1014.5-177.8z"/>
	</g>
	<g id="Shape_64">
		<path class="st19" d="M999.8-183.2c-1.5,0.3-1.8,5.2-1,8.8c0.3,1.4,1.2,4.9,2.6,5c1.4,0,2.8-3.1,2.8-6
			C1004.2-179.5,1001.2-183.6,999.8-183.2z"/>
	</g>
	<g id="Ellipse_9_copy">
		<path class="st15" d="M1002.2-177.5c-1.4-0.1-2.5,1.9-2.6,4.4c0,2.5,1.1,4.6,2.4,4.7c1.4,0.1,2.6-1.9,2.6-4.4
			S1003.5-177.4,1002.2-177.5z"/>
	</g>
	<g id="Shape_45">
		<path class="st11" d="M1011.5-165.7c-0.4-1-1.1-1.8-2-2.4c-2.5-1.7-4.2-2.7-5.4-2.4c-1.2,0.3-2,1.8-2.7,2.4
			c-1.4,1.1-3.9,1.3-4.4,2.8s1.2,3.5,1.7,4c2.7,2.8,6.7,2.2,8.4,1.7c1.7-0.4,3.1-1.4,4-2.8C1011.7-163.3,1011.9-164.6,1011.5-165.7z
			"/>
	</g>
	<g id="Shape_47_copy">
		<path class="st13" d="M913.5-191.9c-0.8,0.5-1.5,1.2-2,2c3.9-0.5,7.9,0.6,10.9,3l0.3-2C919.7-192.2,915.9-193.1,913.5-191.9z"/>
	</g>
</g>
</svg>
