<svg id="Group_7" data-name="Group 7" xmlns="http://www.w3.org/2000/svg" viewBox="0 0 240 240"><defs><style>.cls-1{opacity:0.25;}.cls-2{fill:#82d302;}.cls-2,.cls-4{fill-rule:evenodd;}.cls-3{fill:#fff;}.cls-4{fill:#fc0;}</style></defs><g id="Shape_69" data-name="Shape 69" class="cls-1"><path class="cls-2" d="M167.73,116.56c-1.52-9.46,13.36-23.82,38.43-32.08-14.64-27.2-41.06-47.34-72-49.68C115.78,33.41,84.65,41.12,52.32,78c-19.25,22-25.11,43-24,51.6,4.07,31.81,45.59,49.15,68.51,54,46.55,9.89,93.92-14.11,127.33-50.66C191.55,137.35,169.4,126.88,167.73,116.56Z"/></g><g id="Rectangle_5" data-name="Rectangle 5"><rect class="cls-3" x="65.52" y="70.56" width="2.64" height="80.64"/></g><g id="Rectangle_5_copy" data-name="Rectangle 5 copy"><rect class="cls-3" x="66.84" y="148.56" width="118.72" height="2.64"/></g><g id="Shape_67" data-name="Shape 67"><path class="cls-4" d="M91,93.92,72.72,112.16,85.2,148.88l20.16.48Z"/></g><g id="Shape_67_copy" data-name="Shape 67 copy"><path class="cls-4" d="M118.08,57.36,97.44,71.76l17,75.6,20.16.48Z"/></g><g id="Shape_68" data-name="Shape 68"><path class="cls-4" d="M133.68,91.76l8.4,57.6,17.28-.48,1.2-68.64Z"/></g></svg>