<?xml version="1.0" encoding="utf-8"?>
<!-- Generator: Adobe Illustrator 25.2.0, SVG Export Plug-In . SVG Version: 6.00 Build 0)  -->
<svg version="1.1" id="Group_4" xmlns="http://www.w3.org/2000/svg" xmlns:xlink="http://www.w3.org/1999/xlink" x="0px" y="0px"
	 viewBox="0 0 240 240" style="enable-background:new 0 0 240 240;" xml:space="preserve">
<style type="text/css">
	.st0{opacity:0.25;fill:#82D302;enable-background:new    ;}
	.st1{fill:#FFCC00;}
	.st2{fill:none;}
	.st3{fill-rule:evenodd;clip-rule:evenodd;fill:#FFCC00;}
	.st4{fill-rule:evenodd;clip-rule:evenodd;fill:#FFFFFF;}
	.st5{fill:#FFFFFF;}
	.st6{fill-rule:evenodd;clip-rule:evenodd;fill:#82D302;}
	.st7{fill:#382E06;}
	.st8{fill:#82D302;}
	.st9{font-family:'Nunito-Bold';}
	.st10{font-size:8.0515px;}
</style>
<g>
	<path id="SVGID" class="st0" d="M222.5,143.3c-1.4-8.2-20.1-8.1-22.4-18.4c-2.7-12.2,21-21.1,19.8-33.3
		c-1.9-18.5-56.5-34.6-106.3-24.6C68.3,76.1,16.4,109,20.1,138c3.8,30.1,66.6,49.1,116.2,45.4C182.4,179.9,224.7,156.3,222.5,143.3z
		"/>
	<rect x="74.5" y="68.8" class="st1" width="83.4" height="60.7"/>
	<g id="Rounded_Rectangle_2_Layer_11_Clipping_Path">
		<path class="st2" d="M76.7,73.6h80.1c0.8,0,1.5,0.7,1.5,1.5v56.3c0,0.8-0.7,1.5-1.5,1.5H76.7c-0.8,0-1.5-0.7-1.5-1.5V75.2
			C75.1,74.3,75.8,73.6,76.7,73.6z"/>
	</g>
	<g id="Rounded_Rectangle_2_copy">
		<path class="st3" d="M174.6,152.5l-15.2-20c-0.6-0.5-1.3-0.7-2-0.6H77c-0.7,0-1.4,0.2-2,0.6l-14.2,20c-0.5,0.6,0.1,1.2,1.3,1.2
			h111.3C174.6,153.7,175.1,153.2,174.6,152.5z"/>
	</g>
	<g id="Rectangle_2">
		<polygon class="st4" points="159.1,135.3 75.1,135.3 69.3,143.5 165.8,143.5 		"/>
	</g>
	<g id="Rectangle_1">
		<rect x="78.4" y="76.1" class="st5" width="77" height="49.2"/>
	</g>
	<g id="Shape_66">
		<path class="st6" d="M101,97.2l-5.3,8l-1.6-4.7l-2.3,1.6c1.2,2,2.4,4,3.6,6.1l8.7-9.6L101,97.2z"/>
	</g>
	<g id="Rectangle_4">
		<path class="st1" d="M104.8,96v11.3H91.5V96H104.8 M105.6,95.2h-15v13h15V95.2z"/>
	</g>
	<rect x="61" y="153.4" class="st7" width="113" height="2.5"/>
	<rect x="84.6" y="129.7" class="st7" width="65.7" height="2.1"/>
	<text transform="matrix(1 0 0 1 111.0728 104.728)" class="st8 st9 st10">Done</text>
</g>
</svg>
