<?xml version="1.0" encoding="utf-8"?>
<!-- Generator: Adobe Illustrator 25.2.0, SVG Export Plug-In . SVG Version: 6.00 Build 0)  -->
<svg version="1.1" id="Group_6" xmlns="http://www.w3.org/2000/svg" xmlns:xlink="http://www.w3.org/1999/xlink" x="0px" y="0px"
	 viewBox="0 0 240 240" style="enable-background:new 0 0 240 240;" xml:space="preserve">
<style type="text/css">
	.st0{opacity:0.25;}
	.st1{fill-rule:evenodd;clip-rule:evenodd;fill:#82D302;}
	.st2{fill-rule:evenodd;clip-rule:evenodd;fill:#F300F0;}
	.st3{fill:#16120F;}
	.st4{fill-rule:evenodd;clip-rule:evenodd;fill:#815B40;}
	.st5{fill-rule:evenodd;clip-rule:evenodd;fill:#623414;}
	.st6{fill-rule:evenodd;clip-rule:evenodd;fill:#FFCC00;}
	.st7{fill-rule:evenodd;clip-rule:evenodd;fill:#342A23;}
	.st8{fill-rule:evenodd;clip-rule:evenodd;fill:#4C4C4C;}
	.st9{fill-rule:evenodd;clip-rule:evenodd;fill:#16120F;}
	.st10{fill-rule:evenodd;clip-rule:evenodd;fill:#5EB9EC;}
	.st11{fill-rule:evenodd;clip-rule:evenodd;fill:#EDE3DB;}
	.st12{fill-rule:evenodd;clip-rule:evenodd;fill:#EDECEB;}
	.st13{fill-rule:evenodd;clip-rule:evenodd;fill:#FFFFFF;}
</style>
<g>
	<g id="Shape_65" class="st0">
		<path class="st1" d="M217.3,109.6c-8.2-45.9-88.4-76.1-107.6-58c-14.6,13.9,7.8,58.4-2.1,63.6c-9.4,4.9-31.4-33.4-55.5-30.7
			c-22.7,2.6-43.3,37.6-40.8,70c2.1,27.6,21.1,52.9,50.1,64.8l-19.5-48.7c14.6,19.4,33.4,33.4,55.3,37.6
			C156.4,219.7,225.8,157.3,217.3,109.6z"/>
	</g>
	<g id="Shape_51_copy">
		<path class="st2" d="M133.7,154.1c-0.2-3.7-0.5-7.4-0.7-11.1l-13.1-1.2c0,1.1,0.1,2.2,0.2,3.2c0.5,6.8,2.1,13.5,4.6,19.9
			c3.1,0.3,6.2,0.5,9.4,0.7h0.6L133.7,154.1z"/>
	</g>
	<g id="Ellipse_8_copy">
		<ellipse class="st3" cx="124.8" cy="146.9" rx="1.7" ry="2.7"/>
	</g>
	<g id="Shape_62">
		<path class="st4" d="M142.5,180.6c0.2,4.5,0.6,12.5,1.4,12.5c0.7,0,1.5-9.2,1.9-14L142.5,180.6z"/>
	</g>
	<g id="Shape_62_copy">
		<path class="st4" d="M139.3,180.1c0.2,4.5,0.6,12.5,1.4,12.5c0.7,0,1.5-9.2,1.9-14L139.3,180.1z"/>
	</g>
	<g id="Shape_60">
		<path class="st5" d="M138.6,150c-0.3,0-0.6,1-1.4,2.4c-1.5,2.7-2.8,4.1-2.4,6.2c0.1,0.7,0.4,1.5,1,1.7c1,0.3,2.2-1.1,2.6-1.5
			C140.9,155.6,139.6,150.1,138.6,150z"/>
	</g>
	<g id="Shape_61">
		<path class="st5" d="M146.3,142.8c-1.3-1-3.8-0.2-4.9,1.4c-1.1,1.6-1.1,4.2,0.3,5.1c1.3,0.8,3.3-0.1,4.3-1.2
			C147.3,146.6,147.7,143.9,146.3,142.8z"/>
	</g>
	<g id="Shape_59">
		<path class="st4" d="M122.7,159.2c-0.1-0.8,0.3-1.3,0.6-2.1c0.5-1.7-0.1-4.1-1.6-4.7c-1.3-0.5-3,0.5-3.8,1.7
			c-1.3,2.2,0.5,5.6,2.7,6.7c1.1,0.5,2.5,0.6,2.7,0.2C123.6,160.5,122.8,160,122.7,159.2z"/>
	</g>
	<g id="Shape_57">
		<path class="st6" d="M149.2,164c-0.7-5.6-1.4-11.2-2.2-16.8l-5.6,0.9c-1,0.3-1.8,0.8-2.6,1.5l-0.2,0.2c-0.1,2-0.3,4-0.7,6
			c-0.5,2.2-1,4.4-1.7,6.5c-1.1,3.5-1.8,7-2.2,10.6c-0.2,2.6-0.1,5.3,0.3,7.9c5.5,2.4,11.9,1.6,16.6-2.2
			C150.4,173.7,149.8,168.8,149.2,164z"/>
	</g>
	<g id="Shape_56">
		<path class="st4" d="M151.6,149.6c-1.2-1.3-2.7-2-4.4-2.2c-1,0.9-1.4,1.8-1.4,2.7c0.1,1.2,1.3,2,1.7,2.7c0.9,2-0.5,4.9-3.2,8.2
			l-8.4-2.9l-1.4,3.9l10.2,3.8c2.5-1,4.6-2.8,6.1-5C152.5,158.2,154.3,152.9,151.6,149.6z"/>
	</g>
	<g id="Shape_58">
		<path class="st4" d="M135.5,154.1c-0.7-1.4-2-2.5-2.4-2.2s0.3,1.8-0.1,2c-0.5,0.2-1.9-2.3-4-2.8c-1.4-0.3-2.7,0-3.9,0.7l0.2,3.6
			c-0.3,1.9,0.3,3.8,1.5,5.3c2.1,2.4,6.1,3.1,8,1.4c0.7-1,1.2-2.2,1.3-3.5C136.4,157,136.2,155.4,135.5,154.1z"/>
	</g>
	<g id="Shape_54">
		<path class="st4" d="M152.9,120.6c-4.8-4.2-13.2-4-17.8,0.5c-2.5,2.7-3.8,6.3-3.6,9.9c0.2,2.2,1.4,4,1.2,6.9
			c-0.1,1.2-0.5,1.9-0.2,2.9c0.8,3.5,6.4,5.9,11.2,5.4c3.1-0.3,6-1.8,8.2-4.1C157,136.9,159.3,126.1,152.9,120.6z"/>
	</g>
	<g id="Shape_53">
		<path class="st7" d="M162.2,127.4c-0.4-2.4-1.8-5.5-3.8-5.6c-0.8-0.1-1.8,0.5-1.9,0.3c-0.1-0.2,0.6-0.7,0.9-1.4
			c0.6-1.9-1.5-4.5-3.8-5.8c-1.2-0.7-3.5-1.7-5.3-0.9c-0.3,0.1-1.5,1.3-2,1c-0.1-0.1-0.3-0.2-0.3-0.3c-0.2-0.4,0.1-0.6,0-0.9
			c-0.3-0.8-3.7-0.9-7,0.3c-1.8,0.6-3.4,1.7-4.6,3.1c-1,1.3-2.6,4-1.7,5.3c0.9,1.3,4.2,1.2,8.7-1c0.2,0.6,0.6,1.2,1,1.8
			c0.9,1.1,2,1.9,3.2,2.6c1.1,0.6,2.3,1,3.6,1.2c-0.9,0.5-1.7,1.3-2.2,2.2c-1.7,3.4-0.7,7.5,2.4,9.7c1.7,1.1,3.9,1.4,5.8,0.8
			c1-0.3,2.8-1.6,4.3-4C161.8,132.3,162.4,128.7,162.2,127.4z"/>
	</g>
	<g id="Shape_55">
		<path class="st7" d="M157.6,141.4c-0.8-2.7-1.9-4-3.1-4.4c-1.3-0.4-2.7-0.3-3.9,0.3c-1.6,2.5-2.4,5.4-2.4,8.4
			c0,3.6,0.8,7.4,3.4,8.6c1.7,0.6,3.7,0.3,5.1-0.9C159.3,151.4,159.3,147,157.6,141.4z"/>
	</g>
	<g id="Shape_51">
		<path class="st8" d="M95.1,142.8l-0.7,11l-0.9,11.4h0.6c3.1-0.1,6.2-0.4,9.3-0.7c2.5-6.3,4-12.9,4.6-19.6c0.1-1.1,0.1-2.1,0.2-3.2
			L95.1,142.8z"/>
	</g>
	<g id="Ellipse_8">
		<path class="st9" d="M103.2,144c-0.9,0-1.7,1.2-1.7,2.7s0.8,2.7,1.7,2.7s1.7-1.2,1.7-2.7S104.2,144,103.2,144z"/>
	</g>
	<g id="Shape_52">
		<path class="st5" d="M87.8,146l-4.9-0.2l0.3,3.9c1,1.6,2.6,2.1,3.7,1.7c0.5-0.2,0.9-0.7,1.2-1.2L87.8,146z"/>
	</g>
	<g id="Shape_50">
		<path class="st9" d="M84.5,194c-0.4,0-0.9,0-1.3,0c-2.2,0.2-4.1,1.3-4,1.7c0.1,0.5,3.1,0.3,5.6,0L84.5,194z"/>
	</g>
	<g id="Shape_50_copy">
		<path class="st9" d="M90.5,193.5c-0.4,0-0.9,0-1.3,0l-0.2,1.7c2.5,0.3,5.4,0.5,5.6,0C94.6,194.7,92.7,193.7,90.5,193.5z"/>
	</g>
	<g id="Shape_50_copy_2">
		<path class="st6" d="M140.7,192.4c-0.6,0-1.3,0-1.9,0c-3.2,0.2-6,1.8-5.8,2.5c0.2,0.7,4.5,0.4,8.1,0L140.7,192.4z"/>
	</g>
	<g id="Shape_50_copy_3">
		<path class="st6" d="M144.7,192.6c-0.6,0-1.3,0-1.9,0c-3.2,0.2-6,1.8-5.8,2.5s4.5,0.4,8.1,0L144.7,192.6z"/>
	</g>
	<g id="Shape_49">
		<path class="st10" d="M92.1,170.8H80.9l1,10.1l2.4,13l2-19.8h2c0.1,2.4,0.2,4.7,0.3,7.1c0.2,4.1,0.5,8.2,0.8,12.3
			c1.2-4.2,2-8.5,2.4-12.8C92.2,177.5,92.3,174.2,92.1,170.8z"/>
	</g>
	<g id="Shape_44">
		<path class="st11" d="M88.6,150.4c-1.5-0.8-3.3-1-4.9-0.7c-1.8,0.3-3.3,1.4-4.3,2.8c-2.3,3.4,0.2,7.7,1.2,14.6
			c0.2,1.7,0.3,3.4,0.3,5.1l11.1-0.1l1.4-8.4C94.2,157.2,92,152.2,88.6,150.4z"/>
	</g>
	<g id="Shape_48">
		<path class="st4" d="M107.3,149.3c-0.9-0.1-1.8,0.8-2.2,1.7c-0.5,1.2-0.3,2.5,0.6,3.4l-0.2,4.3c1.4-0.1,2.7-0.7,3.6-1.8
			C111,154.3,109.1,149.6,107.3,149.3z"/>
	</g>
	<g id="Shape_42">
		<path class="st1" d="M91.1,160.4l-7.7,2.9l-2.7-5.9l2.5-7.4c-2.9,0.4-6.1,1.7-7.5,4.4c-2.2,4.1,0,11.1,6.8,14.7l10-6.1L91.1,160.4
			z"/>
	</g>
	<g id="Shape_43">
		<path class="st4" d="M101.3,151c-0.6-0.3-1.8,0.3-3.5,1.3c-1,0.6-2.6,1.5-3,1c-0.3-0.3,0.2-1.1-0.1-1.4c-0.5-0.4-2.5,0.8-3.8,2.6
			c-1.4,2-1.7,4.5-1,6.8c0.2,0.7,0.5,1.3,1,1.9c2,1.8,6.1,0.7,8.6-1.5c1.6-1.5,2.7-3.5,2.9-5.7C102.4,155,102.7,151.6,101.3,151z"/>
	</g>
	<g id="Ellipse_5">
		<path class="st4" d="M76.1,136.1c-0.5-2.4-2.2-4.2-3.9-4.3s-3.2,1.4-3.2,4.1c0,2.8,1.9,5.6,4.2,5.6
			C75.5,141.4,76.6,138.7,76.1,136.1z"/>
	</g>
	<g id="Ellipse_5_copy">
		<path class="st4" d="M99.1,131.7c-0.5-2.4-2.2-4.2-3.9-4.3s-3.2,1.4-3.2,4.1c0,2.8,1.9,5.6,4.2,5.6S99.6,134.3,99.1,131.7z"/>
	</g>
	<g id="Shape_41">
		<path class="st4" d="M96.3,135.5c-0.1-2.8-1.1-4.3-2-7.1c-1.4-4.2-1-7.4-3.2-9.3c-3.3-2.8-9.5-2.2-13.2,0.8
			c-1.5,1.3-3.7,7.3-3.5,15.7c0,2.7,0.3,5.3,2.2,7.6c2.1,2.5,5.5,3.5,9,3.6c3.7,0.1,6.3-1.1,7.4-1.9
			C95.8,142.6,96.4,138.6,96.3,135.5z"/>
	</g>
	<g id="Shape_40">
		<path class="st7" d="M94.5,122.5c-0.2-0.8-0.4-1.7-0.7-2.4c-0.4-0.7-0.8-1.3-0.7-2.1c0.1-0.7,0.6-0.9,0.8-1.5c0.3-1,0.1-2-0.5-2.9
			c-0.3-0.4-1.2-1.7-2.4-1.5c-0.5,0.1-0.9,0.6-1.4,0.5c-0.6-0.2-0.6-1.5-1.2-2.2c-1-1-2.4-1.4-3.7-0.8c-0.9,0.4-0.9,1.4-1.9,1.7
			c-0.9,0.3-2.2-0.6-3.2-0.7c-1.3-0.1-3.1,0.2-3.7,1.4c-0.5,0.9,0.1,2.2-0.5,2.7c-0.2,0.1-0.4,0.2-0.6,0.2c-0.6,0.1-1.2,0.2-1.8,0.4
			c-1.6,0.4-3.3,1.9-3.4,3.4s1.9,3,1.5,3.7c-0.3,0.5-1.6,0-2.4,0.7c-0.8,0.7-1,2.3-0.4,3.4c0.8,1.6,3.2,2.2,3.1,2.7
			c-0.1,0.3-1.3,0.2-1.9,0.8c-0.7,0.8-0.3,2.7,0.5,3c0.5,0.2,1.1-0.3,1.4,0c0.2,0.3,0,0.6,0,0.8c0.3,1.1,1.3,1.8,2.4,1.7
			c2.8-0.7,0.8-13.2,4.6-14.4c0.9-0.3,2.6,0.8,3.5,1c2.7,0.7,5.7,0.9,7.3-0.7c0.5-0.5,0.8-1.2,1.4-1.2c0.8,0,1.4,1.3,2,3
			c0.7,2,1.2,4.1,1.6,6.2c0.3-0.8,0.4-1.7,0.5-2.5C94.9,125.4,94.8,123.9,94.5,122.5z"/>
	</g>
	<g id="Ellipse_6">
		<path class="st12" d="M85.5,131.3c-0.1-2.7-1-4.1-1.7-4.4c-1-0.4-2.1-0.2-2.9,0.5c-0.8,0.9-1.2,2.2-1.1,3.4c0,0.9,0.2,4.1,2.2,4.9
			c0.8,0.3,1.6,0.3,2.4-0.2C84.9,135.1,85.6,133.7,85.5,131.3z"/>
	</g>
	<g id="Ellipse_6_copy">
		<path class="st12" d="M93.7,130.4c0-1.2-0.4-2.3-1.1-3.3c-0.7-0.7-1.7-1-2.7-0.6c-0.7,0.3-1.4,1.7-1.3,4.4c0.1,2.4,0.8,3.7,1.4,4
			c0.6,0.3,1.4,0.3,2.1,0C93.7,134.1,93.7,131.2,93.7,130.4z"/>
	</g>
	<g id="Shape_45_copy">
		<path class="st5" d="M91.6,136.2c-0.2-0.5-0.6-0.9-1-1.2c-1.3-0.9-2.1-1.3-2.7-1.2c-0.6,0.2-1,0.9-1.4,1.2
			c-0.7,0.6-1.9,0.6-2.2,1.4c-0.3,0.8,0.6,1.8,0.8,2c1.4,1.4,3.4,1.1,4.2,0.8c0.8-0.2,1.6-0.7,2-1.4
			C91.7,137.3,91.7,136.7,91.6,136.2z"/>
	</g>
	<g id="Ellipse_7">
		<path class="st9" d="M83.8,129.8c-0.8,0-1.5,1.2-1.5,2.8c0,1.6,0.7,2.8,1.5,2.8c0.8,0,1.5-1.2,1.5-2.8
			C85.3,131,84.6,129.8,83.8,129.8z"/>
	</g>
	<g id="Ellipse_7_copy">
		<path class="st9" d="M91.9,129.3c-0.8,0-1.5,1.2-1.5,2.8c0,1.6,0.7,2.8,1.5,2.8c0.8,0,1.5-1.2,1.5-2.8
			C93.4,130.5,92.7,129.3,91.9,129.3z"/>
	</g>
	<g id="Shape_46">
		<path class="st5" d="M92.5,139.5c-0.1-0.2-2.1,1.8-5.1,2.1c-2.3,0.1-4.5-0.5-6.4-1.7c0.5,0.7,1,1.2,1.7,1.7c1.5,1,3.3,1.3,5.1,1
			C90.7,142.1,92.6,139.7,92.5,139.5z"/>
	</g>
	<g id="Shape_46_copy">
		<path class="st5" d="M142.3,139.7c-0.1-0.1-1,1.5-2.9,1.8c-1.5,0.3-3.1-0.2-4.9-1.4c0.4,0.6,0.8,1.2,1.4,1.6
			c1.1,0.8,2.5,1.1,3.7,0.7C140.9,142,141.9,141,142.3,139.7z"/>
	</g>
	<g id="Shape_47">
		<path class="st7" d="M83.3,123.8c-1.2-0.6-3.1-0.2-4.7,1.5l0.2,1c1.6-1.2,3.6-1.8,5.6-1.5C84.1,124.4,83.7,124.1,83.3,123.8z"/>
	</g>
	<g id="Shape_63">
		<path class="st13" d="M144.2,127.4c-0.2-0.1-0.5-0.2-0.7-0.2c-1.7,0-3.3,0.9-4.3,2.4c-1.4,2.2-1.1,5.5,0.3,6.2
			c1.4,0.6,3.6-1.3,4.6-3.3C145.1,130.7,145.4,128.1,144.2,127.4z"/>
	</g>
	<g id="Ellipse_9">
		<path class="st9" d="M139.8,130.6c-0.9,0-1.7,1.2-1.7,2.7s0.8,2.6,1.7,2.6c0.9,0,1.7-1.2,1.7-2.6S140.7,130.6,139.8,130.6z"/>
	</g>
	<g id="Shape_64">
		<path class="st13" d="M132.3,127.9c-0.8,0.2-0.9,2.6-0.5,4.4c0.1,0.7,0.6,2.5,1.3,2.5c0.7,0,1.4-1.6,1.4-3
			C134.5,129.8,133.1,127.7,132.3,127.9z"/>
	</g>
	<g id="Ellipse_9_copy">
		<path class="st9" d="M133.5,130.8c-0.7,0-1.3,1-1.3,2.2s0.5,2.3,1.2,2.4s1.3-1,1.3-2.2C134.8,131.9,134.2,130.9,133.5,130.8z"/>
	</g>
	<g id="Shape_45">
		<path class="st5" d="M138.3,136.8c-0.2-0.5-0.6-0.9-1-1.2c-1.3-0.9-2.1-1.4-2.7-1.2c-0.6,0.2-1,0.9-1.4,1.2
			c-0.7,0.6-2,0.7-2.2,1.4s0.6,1.8,0.9,2c1.4,1.4,3.4,1.1,4.3,0.9c0.8-0.2,1.6-0.7,2-1.4C138.4,138,138.4,137.4,138.3,136.8z"/>
	</g>
	<g id="Shape_47_copy">
		<path class="st7" d="M88.5,123.5c-0.4,0.2-0.8,0.6-1,1c2-0.3,4,0.3,5.6,1.5l0.2-1C91.7,123.3,89.7,122.9,88.5,123.5z"/>
	</g>
</g>
</svg>
