<svg id="Group_2" data-name="Group 2" xmlns="http://www.w3.org/2000/svg" xmlns:xlink="http://www.w3.org/1999/xlink" viewBox="0 0 240 240"><defs><style>.cls-1{fill:none;}.cls-2{isolation:isolate;}.cls-3{clip-path:url(#clip-path);}.cls-4,.cls-5{fill:#82d302;}.cls-4{opacity:0.25;}.cls-6{fill:#fefefe;}.cls-7{fill:#2e2e2e;stroke:#2e2e2e;}.cls-10,.cls-12,.cls-14,.cls-7{stroke-miterlimit:10;}.cls-8{fill:#e2bf46;}.cls-9{fill:#362b24;}.cls-10{fill:#444f55;stroke:#444f55;}.cls-11{fill:#e1be46;}.cls-12{fill:#520708;stroke:#520708;}.cls-13{fill:#362b25;}.cls-14,.cls-18{fill:#774625;}.cls-14{stroke:#774625;}.cls-15{fill:#110e0e;}.cls-16{fill:#e7c8a4;}.cls-17{fill:#dfbd46;}.cls-19{fill:#242c2e;}.cls-20{fill:#eff9fd;}</style><clipPath id="clip-path"><path id="SVGID" class="cls-1" d="M215.29,143.66c-1.32-7.76-19-7.63-21.13-17.34-2.52-11.52,19.84-19.9,18.65-31.44C211,77.45,159.44,62.24,112.49,71.67c-42.78,8.57-91.78,39.59-88.33,66.94C27.75,167,87.08,185,133.89,181.46,177.44,178.21,217.39,155.89,215.29,143.66Z"/></clipPath></defs><g id="Shape_13_Shape_12_Shape_12_copy_Shape_9_Shape_8_Rounded_Rectangle_1_Shape_11_Rounded_Rectangle_1_copy_Shape_7_Shape_4_Shape_3_Shape_2_Shape_1_Shape_5_Shape_6_Shap-2" data-name="Shape 13 Shape 12 Shape 12 copy Shape 9 Shape 8 Rounded Rectangle 1 Shape 11 Rounded Rectangle 1 copy Shape 7 Shape 4 Shape 3 Shape 2 Shape 1 Shape 5 Shape 6 Shap"><g class="cls-3"><path class="cls-4" d="M78.09,182.64H24.28V71c0-1.77-.22-1.55,1.58-1.55H215.44V181.61c0,.91-.16,1.06-1.06,1.06H113.72a22.47,22.47,0,0,0,.38-5c-.25-2.61-.69-5.18-1.16-7.75-.75-4.19-1.83-8.28-3-12.37a38.32,38.32,0,0,0,.72-5.22l5.66.17a3.34,3.34,0,0,1,1.27.58,22.91,22.91,0,0,0,10.65,4.15c.6.08.81-.1,1-.64.42-1.11.51-2.34,1.28-3.32l4.36.28,42.25,2.15c1.24.06,1.24.06.82,1.29l-4.91,14.46c-.23.67-.44,1.36-.72,2.19,1.32-.31,2.47-.61,3.65-.84a1.47,1.47,0,0,0,1.27-1.12c1.66-4.81,3.42-9.6,5-14.42.37-1.08.83-1.33,1.93-1.26,6.22.39,12.44.68,18.66,1,.78,0,1.1-.19,1.25-.91a8.62,8.62,0,0,0,.07-4.1,1.76,1.76,0,0,0-.09-.2l-15.61-24.08a1.41,1.41,0,0,0-1.39-.62l-22.94-.38-18.12-.29a2.57,2.57,0,0,0,1.74-2.74c.07-9.21.19-18.42.27-27.63a2.32,2.32,0,0,0-1.94-2.65,2.29,2.29,0,0,0-.64,0q-16,.1-32,.23a2,2,0,0,0-2.15,1.74,2,2,0,0,0,0,.35q-.34,11.61-.64,23.24c-1,0-1.77-.65-2.68-.91l-5.2-1.44c-1.83-1.33-3.75-2.61-5.71-3.8l1.24-.36a6.48,6.48,0,0,0,4.93-6.94,1.84,1.84,0,0,0-1-1.83,2.13,2.13,0,0,1-1.3-1.82,7.68,7.68,0,0,1,.06-2.62c.59-3,.34-5.79-1.61-8.28a4.59,4.59,0,0,0-1.5-2.83,14.4,14.4,0,0,0-6.81-3.71,7.32,7.32,0,0,0-3.44-.31,13.69,13.69,0,0,0-10.06,16.55v.06a17.43,17.43,0,0,0,3.66,6.63l0,1.12A4.37,4.37,0,0,0,79,112.27c-.06.83,0,1.67-.07,2.5a41.42,41.42,0,0,0-11.61,4,2.08,2.08,0,0,0-.91,1c-.91,1.83-1.63,3.66-2.36,5.48-1.9,0-3.79,0-5.69-.11a4.28,4.28,0,0,0-2.64.77q-13.24,8.48-26.45,16.87c-.35.23-.81.35-1,.81.49,1.21,1,2.4,1.46,3.65a1.35,1.35,0,0,0,1.41,1c7.17.32,14.34.73,21.5,1.06a1.6,1.6,0,0,1,1.69,1.25c2.43,7,4.92,14.06,7.4,21.08.14.39.11.92.65,1.07,1.38.35,2.74.67,4.3,1l-8.12-24h2.65c-.2,6.9,1.9,13.17,5.22,19.12A47.48,47.48,0,0,0,78.09,182.64ZM162.44,97a5.14,5.14,0,1,0-5.18-5.11h0A5.14,5.14,0,0,0,162.44,97ZM183,97a5.14,5.14,0,1,0-5.16-5.13v0A5.15,5.15,0,0,0,183,97Zm-8.22.68a3,3,0,0,0-2.9-3.09h-.18a3.12,3.12,0,0,0,.05,6.24,3.07,3.07,0,0,0,3.07-3.07v-.08Z"/><path class="cls-5" d="M78.09,182.05a47.36,47.36,0,0,1-11.68-13.83C63.1,162.28,61,156,61.22,149.14c.22-1.52.44-3,.65-4.57l1-2.56a17.86,17.86,0,0,1,8.33-8.63c9.13-4.42,17.93-3.59,26.05,2.56,4.08,3.09,6.77,7.3,9,11.87a92.85,92.85,0,0,1,3.72,9.13c1.11,4.09,2.23,8.21,3,12.36.47,2.58.92,5.15,1.16,7.76a21.84,21.84,0,0,1-.38,5Z"/><path class="cls-6" d="M215.44,68.86H25.87c-1.83,0-1.58-.21-1.58,1.56V182.05c-.54-.12-.19-.54-.19-.76V69.66c0-.91.22-1,1.07-1H214.52C214.78,68.66,215.2,68.4,215.44,68.86Z"/><path class="cls-7" d="M110,157a92.33,92.33,0,0,0-3.71-9.13c-2.29-4.56-5-8.77-9.06-11.86-8.12-6.15-16.88-7-26-2.56A17.86,17.86,0,0,0,62.84,142a21,21,0,0,1-.74-4.38,34,34,0,0,1,1.83-12.93c.73-1.83,1.46-3.72,2.36-5.48a2,2,0,0,1,.91-1,41.11,41.11,0,0,1,11.61-4,1.12,1.12,0,0,0,.78.32l11.48.91c2.53.19,5.05.45,7.57.57a17.42,17.42,0,0,0,4.08.12l5.21,1.44c.91.25,1.69.91,2.67.91a32.81,32.81,0,0,1,3.89,3.93l2.29,3.12c2.61,4,5.11,8.13,7.42,12.34.23.44.42.75.91.22,1.82-2,3.72-3.9,5.59-5.84l.2-.26h0c.68.09,1.33-.25,2-.1,1.77.36,2.74,1.61,2.92,4l-4,12.06c-.36,1.62-1.26,3.09-1.35,4.79-.76,1-.85,2.21-1.27,3.32-.21.54-.42.72-1,.63a22.86,22.86,0,0,1-10.64-4.14,3,3,0,0,0-1.28-.58c-.06-.52-.46-.81-.79-1.13a22.36,22.36,0,0,1-3.22-3.78l-1.18-1.77a5.62,5.62,0,0,0,0,1.83c-.14,1.57-.3,3.14-.45,4.71A37.56,37.56,0,0,1,110,157Zm-3-34.77c-2,2.26-2.91,8.67-1.82,13.19.91,3.91,4.29,8.86,6.12,9.35A46.08,46.08,0,0,1,107,122.18Z"/><path class="cls-8" d="M131.92,147.89l4-12.06a13.87,13.87,0,0,0,3.73-1.13c1-.52,2.24-1,2.27-2.39s-1.07-2.06-2.11-2.67a7.37,7.37,0,0,0-6.39-.46,10.08,10.08,0,0,0-.21-3.46l11.63.14h1.24l18.12.29,22.94.38a1.42,1.42,0,0,1,1.39.61q7.77,12.06,15.61,24.09a.72.72,0,0,1,.09.2c-.8,0-1.61,0-2.4-.05-7-.34-14-.71-20.94-1-5.09-.25-10.18-.46-15.27-.71-7-.33-14-.65-20.94-1C140.43,148.36,136.16,148.31,131.92,147.89Z"/><path class="cls-9" d="M131.92,147.89c4.24.42,8.51.47,12.78.7,7,.38,14,.71,20.94,1,5.09.25,10.18.46,15.27.71,7,.34,14,.71,20.94,1,.79.05,1.6,0,2.4.05a8.74,8.74,0,0,1-.07,4.1c-.15.75-.47,1-1.26.91-6.21-.35-12.44-.65-18.65-1-1.1-.07-1.57.17-1.93,1.26-1.62,4.82-3.37,9.6-5,14.41a1.48,1.48,0,0,1-1.27,1.13c-1.17.22-2.32.53-3.65.84.27-.84.49-1.52.72-2.19l4.9-14.43c.42-1.22.41-1.23-.82-1.29L134.94,153c-1.46-.07-2.91-.17-4.36-.26C130.67,151,131.56,149.51,131.92,147.89Z"/><path class="cls-10" d="M146.07,125.87h-1.24c-.32-.06-.63-.14-.92-.17l-11.08-1.32c-.39-1.18-1.34-1.44-2.44-1.52-1.82-.14-3.65-.23-5.47-.51-1-.14-1.83-.18-2.49.74a13.38,13.38,0,0,1-1.4,0c-2.14-.21-4.25-.64-6.39-.65a33.58,33.58,0,0,0-3.89-3.93q.31-11.62.64-23.26a1.94,1.94,0,0,1,1.79-2.08,2.16,2.16,0,0,1,.36,0q16-.14,32-.23a2.33,2.33,0,0,1,2.6,2,2.73,2.73,0,0,1,0,.64c-.08,9.21-.2,18.42-.26,27.64A2.59,2.59,0,0,1,146.07,125.87ZM129.57,96.3v.09h-.65c-3.94,0-7.87,0-11.81.08-1.38,0-2,.52-2.06,1.71q-.28,9.6-.54,19.17a1.73,1.73,0,0,0,1.45,2l.24,0c.36.06.72.11,1.09.15L129.76,121l11.72,1.36c1.82.2,2.43-.41,2.45-2.17q.12-10.7.23-21.4c0-1.92-.56-2.5-2.45-2.5Z"/><path class="cls-11" d="M64,124.68a34.2,34.2,0,0,0-1.82,12.93,21,21,0,0,0,.74,4.38c-.33.86-.66,1.71-1,2.57-2.9-.13-5.8-.23-8.71-.38l-24.84-1.24c.19-.46.64-.58,1-.81l26.35-16.79a4.3,4.3,0,0,1,2.64-.77C60.18,124.66,62.07,124.65,64,124.68Z"/><path class="cls-12" d="M81.17,106.84a17.23,17.23,0,0,1-3.65-6.62,13.7,13.7,0,0,1,10-16.6l.06,0a7.29,7.29,0,0,1,3.44.31,14.35,14.35,0,0,1,6.81,3.71,4.54,4.54,0,0,1,1.5,2.84,4.63,4.63,0,0,1-1.83,3.37,7.43,7.43,0,0,0-2.11,6.47A10.32,10.32,0,0,1,94.3,106a1,1,0,0,1-1,.66C89.31,106.57,85.24,107,81.17,106.84Z"/><path class="cls-13" d="M28.3,142.94l24.84,1.24c2.9.15,5.8.25,8.71.38-.21,1.51-.43,3-.65,4.56H58.59l8.11,24c-1.53-.36-2.92-.69-4.3-1-.54-.13-.51-.67-.65-1.06-2.48-7-5-14-7.4-21.07a1.57,1.57,0,0,0-1.69-1.25c-7.16-.34-14.33-.74-21.5-1.07a1.34,1.34,0,0,1-1.41-1C29.32,145.34,28.79,144.15,28.3,142.94Z"/><path class="cls-14" d="M81.17,106.84c4.07.2,8.14-.27,12.22-.18a1,1,0,0,0,1-.66,10.24,10.24,0,0,0,1.07-5.7,7.38,7.38,0,0,1,2.12-6.47,4.65,4.65,0,0,0,1.82-3.37c2,2.48,2.2,5.29,1.62,8.28a7.57,7.57,0,0,0-.07,2.6,2.15,2.15,0,0,0,1.31,1.83,1.81,1.81,0,0,1,1,1.82,6.48,6.48,0,0,1-4.92,6.94c-.41.11-.82.25-1.24.36a39.77,39.77,0,0,0-9.13-4.2,10.58,10.58,0,0,0-6.72-.13Z"/><path class="cls-15" d="M81.22,108a10.52,10.52,0,0,1,6.72.13,39.89,39.89,0,0,1,9.12,4.2c2,1.19,3.86,2.47,5.71,3.8a17.41,17.41,0,0,1-4.08-.12c-2.53-.12-5-.38-7.58-.57l-11.47-.92a1.06,1.06,0,0,1-.79-.32c0-.84,0-1.67.08-2.5A4.31,4.31,0,0,1,81.22,108Z"/><path class="cls-16" d="M162.44,96.39a5.14,5.14,0,1,1,5.1-5.17h0A5.14,5.14,0,0,1,162.44,96.39Z"/><path class="cls-16" d="M183,96.39a5.14,5.14,0,1,1,5.11-5.17h0A5.14,5.14,0,0,1,183,96.39Z"/><path class="cls-16" d="M174.81,97.1a3.07,3.07,0,0,1-3,3.15h-.07a3.12,3.12,0,0,1-.06-6.23,3,3,0,0,1,3.12,2.85Z"/><path class="cls-9" d="M112.35,147a22.3,22.3,0,0,0,3.21,3.78c.34.32.73.6.79,1.13l-5.66-.18c.16-1.57.31-3.14.46-4.71Z"/><path class="cls-17" d="M130.77,132.21c-1.83,1.95-3.74,3.88-5.59,5.85-.5.53-.68.22-.91-.22-2.31-4.21-4.8-8.32-7.41-12.35h4.56c-.06.54-.17,1.08-.19,1.62,0,1.83.73,2.88,2.42,3,2.6.27,5.21.38,7.82.57,0,.47-.45.74-.46,1.18h0C130.91,132,130.83,132.12,130.77,132.21Z"/><path class="cls-15" d="M107,122.18a46,46,0,0,0,4.32,22.54c-1.82-.49-5.16-5.48-6.12-9.35C104.13,130.88,105,124.49,107,122.18Z"/><path class="cls-18" d="M131,132c0-.45.5-.71.47-1.19a11.17,11.17,0,0,0,2-1.58,7.36,7.36,0,0,1,6.39.46c1,.61,2.16,1.29,2.12,2.67s-1.24,1.82-2.28,2.39a13.87,13.87,0,0,1-3.73,1.13c-.21-2.37-1.15-3.65-2.92-4C132.29,131.7,131.65,132,131,132Z"/><path class="cls-5" d="M121.38,125.53h-4.57l-2.29-3.11c2.15,0,4.26.44,6.39.65a13.57,13.57,0,0,1,1.41.05Z"/><path class="cls-17" d="M112.35,147h-1.2a5.56,5.56,0,0,1,0-1.82Z"/><path class="cls-18" d="M130.77,132.21c.06-.09.14-.17.2-.25C130.91,132,130.83,132.12,130.77,132.21Z"/><path class="cls-19" d="M121.38,125.53l1-2.45c.63-.91,1.47-.91,2.48-.73,1.83.27,3.66.36,5.48.5,1.1.08,2.05.34,2.44,1.52a2.91,2.91,0,0,0,.4,1.35,9.61,9.61,0,0,1,.21,3.46,11.17,11.17,0,0,1-2,1.58c-2.61-.18-5.22-.29-7.82-.56-1.69-.18-2.46-1.25-2.42-3C121.2,126.61,121.31,126.07,121.38,125.53Z"/><path class="cls-5" d="M133.2,125.72a2.69,2.69,0,0,1-.4-1.35l11.08,1.32a5.06,5.06,0,0,1,.91.17Z"/><path class="cls-20" d="M129.57,96.3h12.14c1.89,0,2.47.58,2.45,2.49q-.1,10.71-.23,21.41c0,1.75-.67,2.36-2.45,2.16-3.91-.43-7.82-.91-11.72-1.36l-12.47-1.46a7.92,7.92,0,0,1-1.09-.14,1.75,1.75,0,0,1-1.71-1.76,1.94,1.94,0,0,1,0-.24q.26-9.62.54-19.17c0-1.19.68-1.7,2.06-1.71,3.94,0,7.87-.06,11.81-.08h.65Z"/></g></g></svg>