<svg id="Group_3" data-name="Group 3" xmlns="http://www.w3.org/2000/svg" viewBox="0 0 240 240"><defs><style>.cls-1{opacity:0.25;}.cls-2{fill:#82d302;}.cls-10,.cls-11,.cls-13,.cls-2,.cls-3,.cls-4,.cls-5,.cls-6,.cls-7,.cls-8,.cls-9{fill-rule:evenodd;}.cls-3{fill:#342a23;}.cls-4{fill:#173540;}.cls-5{fill:#815b40;}.cls-6{fill:#422612;}.cls-7{fill:#fc0;}.cls-8{fill:#623414;}.cls-9{fill:#16120f;}.cls-10{fill:#730c18;}.cls-11{fill:#ede3db;}.cls-12{opacity:0.4;}.cls-13,.cls-14{fill:#65041b;}</style></defs><g class="cls-1"><g id="Shape_39" data-name="Shape 39"><path class="cls-2" d="M176.7,96c-1-2.55,1.49-5.81,2.75-7.35C193.74,71.2,231.06,39,227.25,26.35c-2.67-8.87-27.15-13.26-46.42-5-10.35,4.45-18.34,12.21-24,19.55C156,50.8,147.57,59.63,147,59.23s2.78-9,9.91-18.29a17.31,17.31,0,0,0-.12-4.31C155,25.89,142.19,16,133.44,18.24c-11.27,2.89-15.32,25.84-16.7,36.46-.17,1.85-.37,3.34-.51,4.28a7.83,7.83,0,0,1-.14,1.08,9.4,9.4,0,0,1,.14-1.08c.1-.92.26-2.41.51-4.28a53.06,53.06,0,0,0-.12-11.43c-2.51-18.76-19-36.9-30.05-34.52-6.31,1.37-11.29,9.59-15,26.77-2.94,13.41-.32,36.77-5,38.53C61.59,75.91,53.59,58.26,40.11,56.1c-11.48-1.84-26.27,5.79-30.7,18.79-5.17,15.16,5.94,31.17,17.47,36.47,10,4.61,23.43-.28,25.3,3.37,3,5.79-24.38,24.33-21.71,29.4,2.36,4.49,26.14-5.66,30.14.35,5,7.48-25,32.16-20.51,39.35,3.3,5.24,23.27-1.24,41.64-8.47l-46.88,61.1c47.08-33.82,124-89,157.61-111,15.71-10.3,25.49-20,23.58-24.37C213,93.88,179.91,103.76,176.7,96Z"/></g><polygon class="cls-2" points="34.16 232.1 34.86 236.46 75.63 203.5 34.16 232.1"/></g><g id="Shape_31" data-name="Shape 31"><path class="cls-3" d="M125,74.93A11.44,11.44,0,0,0,120.72,67L110.64,84.29a8.84,8.84,0,0,0,6.35,2C121.88,85.67,125.39,80,125,74.93Z"/></g><g id="Shape_30" data-name="Shape 30"><path class="cls-4" d="M63.56,49.87Q67.28,69.7,71,89.54c3,.66,5.9,1.45,8.79,2.39,2.44.8,4.82,1.68,7.19,2.67q2.52-24,5.06-47.93Z"/></g><g id="Shape_29" data-name="Shape 29"><path class="cls-5" d="M84.59,90.87c-1-1.67-5-1.22-7.72.27-1.69.94-2.34,2-2.4,2.66A2.08,2.08,0,0,0,75,95.4c.88.87,2.58.24,5.59-.54,1.93-.5,3.43-.84,4-2.13A2.11,2.11,0,0,0,84.59,90.87Z"/></g><g id="Shape_28" data-name="Shape 28"><path class="cls-5" d="M92.84,82.06c-.52-1.07-3.26-.7-4.79-.51-3.42.44-7.45.7-11.45.8L76.19,88c5,1.35,9.87,1.18,13.46-1.42C91.36,85.37,93.39,83.17,92.84,82.06Z"/></g><g id="Shape_25" data-name="Shape 25"><path class="cls-5" d="M68.88,64.25c-1-1.1-2.89-2.08-4.13-1.47-2.48,1.23-1.53,8.46.14,15.84A5.41,5.41,0,0,0,68,77.29c1.47-1.36,1.61-3.23,1.72-4.79C70,68.31,70.21,65.67,68.88,64.25Z"/></g><g id="Shape_27" data-name="Shape 27"><path class="cls-5" d="M94.87,74.56c-1.66-3-8.82-1.8-11.34-1.26a24.65,24.65,0,0,0-10.39,5.06l2.67,3.46c4.76-.67,14.25-2,16.5-1.87a2.57,2.57,0,0,0,1.21-.25C95,78.91,95.76,76.17,94.87,74.56Z"/></g><g id="Ellipse_4_copy" data-name="Ellipse 4 copy"><path class="cls-5" d="M96.79,72.13c-2.08-.46-3.36,1.54-3,4.19.35,2.39,2,4.62,3.7,5.2s3.34-.71,3.34-3.2C100.85,75.55,99,72.63,96.79,72.13Z"/></g><g id="Shape_26" data-name="Shape 26"><path class="cls-5" d="M87.25,62.38c-3.11-1.92-9.52,2.76-13,6.92A23.92,23.92,0,0,0,70,76.76l1.6,2.13L89.12,66.64C89,64.53,88.36,63.07,87.25,62.38Z"/></g><g id="Shape_24" data-name="Shape 24"><path class="cls-5" d="M79.8,83.68c-2-6.13-9.46-9.84-13.85-7.72-1.54.75-3.38,6-4.25,13.84-.37,3.28-.44,6.36,1.59,8.26,2.56,2.39,6.79,1.3,8,.89C76.82,97.18,82,90.35,79.8,83.68Z"/></g><g id="Shape_19" data-name="Shape 19"><path class="cls-5" d="M195.61,35.23a12.44,12.44,0,0,0-10.55-9.73c-6.84-.78-11.06,4.74-12.35,6.8-4.67,7.46.48,16.38,2.13,18.9,2,3,4.24,4.35,5.33,4.53,2.38.38,6.29-1.88,10.77-8C194.92,42.22,195.93,36.91,195.61,35.23Z"/></g><g id="Shape_20" data-name="Shape 20"><path class="cls-6" d="M182.13,38.12a5.71,5.71,0,0,0-5-.91,3.91,3.91,0,0,0-1.77,1.47,5.63,5.63,0,0,1,3.59-.42,6.58,6.58,0,0,1,2.85,1.46,8.71,8.71,0,0,1,2.81,5.34A6.42,6.42,0,0,0,182.13,38.12Z"/></g><g id="Shape_23" data-name="Shape 23"><path class="cls-5" d="M79.8,113.77c-.08,5-.36,11.85-1.6,12-1,.1-2.23-4.13-4-10.92-1.06-4.08-2.17-9.26-3.2-14.11-.26-1.24-.53-2.48-.8-3.73l-7.72-1.06a61,61,0,0,0,2.67,24.49c1.41,4.34,7.84,22,14.91,21.57C86,141.6,91,128.52,93.34,109.68Z"/></g><g id="Shape_21" data-name="Shape 21"><path class="cls-6" d="M186.82,40a18.3,18.3,0,0,1-7.72-7.72,10,10,0,0,0,1.6,5.32,11.16,11.16,0,0,0,7.46,4.53c2.92.56,5.58.05,5.59-.27S190.19,41.68,186.82,40Z"/></g><g id="Shape_18" data-name="Shape 18"><path class="cls-5" d="M181.5,49.34A5.12,5.12,0,0,0,177,48.17c-3.1.66-4.69,4.48-5.11,5.43-3.93,8.75-21.39,25-36.26,38l9.1,11C163.21,81.78,186,54.51,181.5,49.34Z"/></g><g id="Shape_17" data-name="Shape 17"><path class="cls-7" d="M94.27,98.42c-2.71-1.48-6.8.84-8.88,2.3-2.7,1.89-8.71,7.48-6.32,13.44,2.07,5.16,9.26,7.2,13.5,5.19C99.64,116,99.26,101.13,94.27,98.42Z"/></g><g id="Shape_16" data-name="Shape 16"><path class="cls-7" d="M144.67,99.3c-1.43-5.23-7.3-9.63-12.16-8.16-3.21,1-4.94,4.37-5.59,6.12a12.24,12.24,0,0,0,1.33,10.91c.87,1.33,4,5.54,8.19,5.27C141.81,113.1,146.37,105.52,144.67,99.3Z"/></g><g id="Shape_15" data-name="Shape 15"><path class="cls-7" d="M129.58,97.53l-12.24.79q-.27-2.79-.53-5.59l-9.32-.53-.27,6.66-15.71-.27a172.52,172.52,0,0,1,.8,33.55c-1.26,16.73-4.46,28,2.13,33.81,7.57,6.65,24.11,2.57,33.28-5.86C140.46,148.38,143.37,124.05,129.58,97.53Z"/></g><g id="Shape_38" data-name="Shape 38"><path class="cls-8" d="M116.81,92.47l-9.49.59a9.37,9.37,0,0,0,.17,4.47c.6,2.06,2.39,5.39,4.79,5.32,1.81,0,3.21-2.12,4-3.73A9.52,9.52,0,0,0,116.81,92.47Z"/></g><g id="Ellipse_2" data-name="Ellipse 2"><path class="cls-5" d="M126.12,70.1a22.79,22.79,0,0,0-5.32-8.25c-3.81-3.16-10.26-5.3-15.44-2.66-1.45.74-4.81,4.49-6.92,10.11-1.79,4.75-2.16,9.53-1.87,11.19,1.3,7.32,8.13,14.93,15.71,14.37,3-.21,8.21-3.09,12.78-10.91a15.23,15.23,0,0,0,2.39-7.46A17.59,17.59,0,0,0,126.12,70.1Z"/></g><g id="Shape_14" data-name="Shape 14"><path class="cls-3" d="M136.62,62.91c-.17-.75-1-3.64-3-4.25a11.21,11.21,0,0,0-1.19-.21c-.89-.13-1.43-.21-1.64-.56-.42-.69.65-1.89.7-3,.1-2.29-2.42-4.92-4.79-5.06-1.71-.1-3.36,1.56-4,1.06-.46-.36.08-1.69-.06-2.51-.62-3.71-9.64-6.85-13.25-3.87-1.92,1.58-1.82,5.22-2.76,5.27-.72,0-1-2-2.21-2.52-2.71-1.08-9.07,4.45-8.61,9.23.2,2,2.15,3.42,1.7,5.24-.58,2.41-4.27,2.55-4.83,4.75-.51,2,1.8,4.5,5.26,7a14.6,14.6,0,0,1,2.4-7.18c3.38-5,10.92-8.95,17.57-5.86,4.54,2.11,7.62,7,7.72,12.78l2.13,2.93C133.34,72.5,137.6,67.29,136.62,62.91Z"/></g><g id="Shape_32" data-name="Shape 32"><path class="cls-9" d="M102.06,65.78c-1.47.52-2.7,2.25-3,4.68,1-1.89,2.13-3,3.43-3.43,2.24-.67,4.82,1.32,4.9,1.12S104.67,64.86,102.06,65.78Z"/></g><g id="Shape_32_copy" data-name="Shape 32 copy"><path class="cls-9" d="M115.52,65.21A5.46,5.46,0,0,0,112.14,69a5.93,5.93,0,0,1,3.54-2.53c2.79-.5,5.91,2.28,6.11,2.06S118.78,64.26,115.52,65.21Z"/></g><g id="Shape_33" data-name="Shape 33"><path class="cls-9" d="M119,71.21c-1.18-.12-2.77-1.3-4.08-.84a3,3,0,0,0-1.6,1.6l4.53.8a9.24,9.24,0,0,0,2.93-.8c1.58-.74,2.72-1.83,2.61-2S121.37,71.44,119,71.21Z"/></g><g id="Shape_33_copy" data-name="Shape 33 copy"><path class="cls-9" d="M104.29,70.37c-1.3-.46-2.9.72-4.08.84-2.35.23-4.26-1.44-4.39-1.24s1,1.26,2.62,2a9.18,9.18,0,0,0,2.92.8l4.53-.8A3,3,0,0,0,104.29,70.37Z"/></g><g id="Shape_35" data-name="Shape 35"><path class="cls-10" d="M104,80v.27c.19,6.09,3.29,10.23,5.85,10.38,2.78.16,6.86-4.26,6.93-11.44Z"/></g><g id="Shape_36" data-name="Shape 36"><path class="cls-11" d="M105.16,79.8l1.58,2.29a11.57,11.57,0,0,0,7.68-.47c.26-.63.57-1.35.92-2.21Z"/></g><g id="Ellipse_3" data-name="Ellipse 3" class="cls-12"><path class="cls-13" d="M101.63,73c-1.32,0-2.4.36-2.4.8s1.08.8,2.4.8,2.4-.36,2.4-.8S103,73,101.63,73Z"/></g><g id="Ellipse_3_copy" data-name="Ellipse 3 copy" class="cls-12"><ellipse class="cls-14" cx="119.47" cy="73.56" rx="2.4" ry="0.8"/></g><g id="Ellipse_4" data-name="Ellipse 4"><path class="cls-5" d="M127.5,72.13c-2.2.5-4.06,3.42-4.06,6.19,0,2.49,1.53,3.8,3.34,3.2s3.36-2.81,3.7-5.2C130.86,73.67,129.59,71.67,127.5,72.13Z"/></g><g id="Shape_37" data-name="Shape 37"><path class="cls-8" d="M127.72,74.1c-.94-.14-1.88,1.19-1.6,1.86.19.45.86.52,1.07.53.6,0,1.48-.27,1.6-1A1.32,1.32,0,0,0,127.72,74.1Z"/></g><g id="Shape_37_copy" data-name="Shape 37 copy"><path class="cls-8" d="M96,73.83A1.33,1.33,0,0,0,95,75.23c.12.72,1,1,1.6,1,.21,0,.88-.09,1.07-.54C97.92,75,97,73.69,96,73.83Z"/></g><g id="Shape_34" data-name="Shape 34"><path class="cls-8" d="M111.8,72.73a10.67,10.67,0,0,1-1.74-3.27,32.1,32.1,0,0,1-3,3.25c-1.41,1.31-2.49,2.1-2.26,3.11.32,1.41,3,2.3,5,2.2,1.87-.09,4.08-1,4.19-2.33C114.05,74.76,112.92,74.17,111.8,72.73Z"/></g></svg>