<?xml version="1.0" encoding="UTF-8"?> <!-- Generator: Adobe Illustrator 24.2.0, SVG Export Plug-In . SVG Version: 6.00 Build 0) --> <svg xmlns="http://www.w3.org/2000/svg" xmlns:xlink="http://www.w3.org/1999/xlink" version="1.1" id="Layer_1" x="0px" y="0px" viewBox="0 0 570 500" style="enable-background:new 0 0 570 500;" xml:space="preserve"> <style type="text/css"> .st0{fill:#95CA59;} .st1{fill:#DBE3E9;} .st2{fill:#055245;} .st3{fill:#D6EBBD;} .st4{fill:#E5E8EC;} .st5{fill:#758088;} .st6{fill:#5FAD6E;} .st7{fill:#F68457;} .st8{fill:#EEF2F5;} .st9{fill:#67BD50;} .st10{fill:#1A81C4;} .st11{fill:#087262;} </style> <g> <path class="st0" d="M468.3,408.6c-66.7,62.8-149.5,79.9-224.7,56.5c-72-22.4-147.2-70.7-196.5-135.7c-28.5-37.6-49.2-89-46.9-145 C2.5,126.3,47.7,72.9,90.3,49.2c37.3-20.7,77.8-25.7,116.5-24c112,4.9,223.9,28.8,305.2,116.6c16.8,18.2,32.5,39.3,38.9,66.4 c13,55.8-16.9,122.2-51.3,166.1C490,386.5,479.5,398,468.3,408.6z"></path> <path class="st1" d="M123.5,375.6c-7.2,0-13-5.8-13-13V122.1c0-7.2,5.8-13,13-13H475c7.2,0,13,5.8,13,13v240.5c0,7.2-5.8,13-13,13 L123.5,375.6z"></path> <path class="st2" d="M123.5,110.4H475c6.5,0,11.7,5.3,11.7,11.7v240.5c0,6.5-5.3,11.7-11.7,11.7H123.5c-6.5,0-11.7-5.3-11.7-11.7 V122.1C111.8,115.6,117.1,110.4,123.5,110.4z"></path> <rect x="130.2" y="127.2" class="st3" width="338.2" height="215.8"></rect> <rect x="47.4" y="361.1" class="st4" width="503.8" height="14.7"></rect> <path class="st5" d="M48.1,375.8c6,6.3,16.9,8.8,24.5,8.8h453.3c7.6,0,18.5-2.5,24.5-8.8H48.1z"></path> <path class="st1" d="M265.1,361.1v1.6c0,2.9,2.4,5.3,5.3,5.3h57.9c2.9,0,5.3-2.4,5.3-5.3v-1.6H265.1z"></path> <polygon class="st3" points="484.1,284.3 487.8,306.9 570,335.5 "></polygon> <path class="st6" d="M487.3,305.6c0.4,1.3-12.4,24.4-12.4,24.4l14.8-16.7l79.8,22.1L487.3,305.6z"></path> <polygon class="st0" points="508.6,336.8 474.9,329.9 489.7,313.2 527,335.5 "></polygon> <path class="st3" d="M489.7,313.2c0.4,0.4-3.4,25.1-3.4,25.1l83.7-2.8L489.7,313.2z"></path> <rect x="406.7" y="265.6" class="st7" width="25" height="77.7"></rect> <rect x="358.7" y="240.6" class="st0" width="25" height="102.7"></rect> <rect x="310.7" y="281.1" class="st7" width="25" height="62.2"></rect> <rect x="262.8" y="198.7" class="st0" width="25" height="144.6"></rect> <rect x="214.8" y="224.8" class="st7" width="25" height="118.4"></rect> <rect x="166.9" y="182.8" class="st0" width="25" height="160.5"></rect> <path class="st8" d="M205,325.8c0,2-1.5,4.6-3.1,4.6H35.4c-1.6,0-1.5-2.5-1.5-4.6V143.9c0-2-0.1-3.4,1.5-3.4h166.5 c1.8,0,3.2,1.5,3.1,3.3c0,0,0,0.1,0,0.1V325.8z"></path> <rect x="64.4" y="269.4" class="st5" width="89.1" height="4.7"></rect> <rect x="64.4" y="283.5" class="st5" width="128.9" height="4.7"></rect> <rect x="64.4" y="297.6" class="st5" width="89.1" height="4.7"></rect> <path class="st9" d="M137.7,210.1c0,21.4-17.3,38.7-38.7,38.7c-21.4,0-38.7-17.3-38.7-38.7c0-21.4,17.3-38.7,38.7-38.7c0,0,0,0,0,0 C120.4,171.4,137.7,188.8,137.7,210.1L137.7,210.1z"></path> <path class="st10" d="M122.5,168l-25.1,42.8h49.3c0,0,0-0.9,0-1.5C146.7,192.2,137.4,176.4,122.5,168z"></path> <path class="st11" d="M468.1,313.7c0.5,0.1,1.1-0.3,1.2-0.8c0.1-0.6-0.3-1.1-0.8-1.2c0,0-0.1,0-0.1,0c-1.5-0.3-3-0.6-4.5-0.9 c-0.6-0.2-1.2,0.2-1.4,0.7c-0.1,0.5,0.2,1.1,0.7,1.2c0,0,0.1,0,0.1,0c1.5,0.3,3.1,0.6,4.6,0.9L468.1,313.7z"></path> <path class="st11" d="M454.4,310.4c-2.9-0.9-5.9-2-8.8-3.1c-0.5-0.2-0.8-0.8-0.6-1.3c0,0,0,0,0-0.1c0.3-0.5,1-0.8,1.5-0.5 c2.8,1.1,5.7,2.1,8.6,3.1c0.5,0.1,0.9,0.7,0.7,1.3c0,0,0,0,0,0.1c-0.2,0.5-0.7,0.7-1.2,0.7C454.6,310.4,454.5,310.4,454.4,310.4z M437.2,303.5c-2.7-1.3-5.4-2.8-8.1-4.3c-0.5-0.3-0.6-0.9-0.4-1.4c0,0,0,0,0,0c0.4-0.5,1.1-0.6,1.6-0.3c2.6,1.5,5.2,2.9,7.9,4.3 c0.5,0.2,0.7,0.9,0.5,1.4c0,0,0,0,0,0c-0.2,0.4-0.7,0.6-1.1,0.5C437.5,303.6,437.3,303.6,437.2,303.5z M421.4,294.3 c-2.5-1.7-4.9-3.5-7.3-5.4c-0.4-0.3-0.5-0.9-0.2-1.3c0,0,0.1-0.1,0.1-0.1c0.4-0.4,1.1-0.5,1.6-0.1c2.3,1.8,4.7,3.6,7.2,5.3 c0.5,0.3,0.6,0.9,0.3,1.3c0,0-0.1,0.1-0.1,0.1c-0.3,0.3-0.6,0.4-1,0.4C421.8,294.5,421.6,294.4,421.4,294.3L421.4,294.3z M407.4,283.1c-2.2-2-4.3-4.1-6.3-6.2c-0.4-0.4-0.4-1,0-1.3c0,0,0.1-0.1,0.1-0.1c0.5-0.4,1.2-0.3,1.6,0.1c2,2,4.1,4.1,6.2,6.1 c0.4,0.3,0.5,0.9,0.1,1.3c0,0-0.1,0.1-0.1,0.1C408.5,283.6,407.8,283.6,407.4,283.1L407.4,283.1z M395.2,270.3 c-1.8-2.2-3.7-4.5-5.4-6.9c-0.3-0.5-0.2-1.1,0.3-1.4c0,0,0,0,0,0c0.5-0.3,1.2-0.2,1.6,0.3c1.7,2.3,3.5,4.6,5.3,6.8 c0.3,0.4,0.3,1-0.1,1.4c0,0-0.1,0.1-0.1,0.1C396.3,270.9,395.6,270.8,395.2,270.3L395.2,270.3z M384.9,256.3 c-1.5-2.4-3.1-4.9-4.5-7.4c-0.2-0.5,0-1.1,0.5-1.4c0,0,0,0,0,0c0.6-0.3,1.2-0.1,1.6,0.5c1.4,2.5,2.9,4.9,4.4,7.3 c0.3,0.5,0.1,1.1-0.4,1.4c0,0,0,0,0,0c-0.2,0.1-0.4,0.1-0.6,0.1C385.4,256.8,385.1,256.6,384.9,256.3L384.9,256.3z M376.4,241.3 c-1.2-2.5-2.4-5.1-3.6-7.8c-0.2-0.5,0.1-1.1,0.6-1.3c0,0,0,0,0.1,0c0.6-0.2,1.2,0,1.5,0.6c1.1,2.6,2.3,5.2,3.5,7.7 c0.2,0.5,0,1.1-0.5,1.3c0,0,0,0,0,0c-0.2,0.1-0.4,0.1-0.5,0.1C377,241.9,376.6,241.7,376.4,241.3L376.4,241.3z M369.7,225.7 c-1-2.6-1.9-5.3-2.8-8c-0.2-0.5,0.2-1.1,0.7-1.3c0,0,0.1,0,0.1,0c0.6-0.2,1.2,0.1,1.4,0.7c0.9,2.7,1.8,5.3,2.8,7.9 c0.2,0.5-0.1,1.1-0.7,1.3c0,0,0,0-0.1,0c-0.1,0-0.3,0.1-0.4,0.1C370.2,226.4,369.8,226.1,369.7,225.7L369.7,225.7z M365.8,214.3 c-0.6,0-1-0.4-1-1c0-0.1,0-0.1,0-0.2c0.1-0.6,0.7-1,1.3-0.9c2,0.3,4,0.5,6,0.6c1.1,0.1,2.1,0.1,3.2,0.1c0.6,0,1,0.5,1,1s-0.5,1-1,1 c-1.1,0-2.1,0-3.2-0.1C369.9,214.7,367.9,214.6,365.8,214.3z M383.4,213.7c0-0.6,0.4-1.1,1-1.2c0,0,0,0,0,0c2-0.2,4.1-0.5,6.1-1 c1-0.2,1.9-0.4,2.8-0.7c0.6-0.2,1.2,0.1,1.4,0.7c0.2,0.5-0.2,1.1-0.7,1.3c0,0-0.1,0-0.1,0c-1,0.3-2,0.5-3,0.7c-2,0.4-4.2,0.8-6.4,1 h-0.2C384,214.6,383.5,214.2,383.4,213.7L383.4,213.7z M356.6,212.6c-3-0.7-6-1.6-9-2.6c-0.5-0.2-0.9-0.7-0.7-1.3c0,0,0,0,0-0.1 c0.3-0.6,0.9-0.8,1.5-0.6c2.9,1,5.9,1.8,8.8,2.5c0.6,0.1,0.9,0.6,0.8,1.2c0,0,0,0.1,0,0.1c-0.2,0.5-0.7,0.8-1.2,0.8 C356.7,212.6,356.6,212.6,356.6,212.6L356.6,212.6z M364.5,209.6c-0.2-0.7-0.4-1.3-0.5-2c-0.5-2-1-4.1-1.5-6.2 c-0.1-0.6,0.3-1.1,0.8-1.2c0,0,0.1,0,0.1,0c0.6-0.1,1.2,0.2,1.4,0.8c0.4,2,0.9,4.1,1.5,6.1l0.5,2c0.1,0.5-0.2,1.1-0.8,1.2 c0,0-0.1,0-0.1,0c-0.1,0-0.2,0-0.4,0C365,210.3,364.6,210,364.5,209.6L364.5,209.6z M338.9,206.7c-1.9-0.8-3.8-1.7-5.7-2.6 c-0.9-0.4-1.7-0.9-2.6-1.3c-0.5-0.3-0.7-0.9-0.4-1.4c0,0,0,0,0,0c0.4-0.5,1-0.7,1.6-0.4l2.6,1.3c1.9,0.9,3.7,1.8,5.6,2.6 c0.5,0.2,0.8,0.8,0.6,1.3c0,0,0,0,0,0c-0.2,0.4-0.7,0.6-1.1,0.6C339.2,206.8,339,206.8,338.9,206.7L338.9,206.7z M401.3,209.3 c-0.2-0.5,0-1.1,0.5-1.4c0,0,0,0,0.1,0c2.7-1.2,5.3-2.6,7.8-4.2c0.5-0.3,1.2-0.2,1.6,0.2c0.3,0.4,0.3,1-0.1,1.4 c0,0-0.1,0.1-0.1,0.1c-2.6,1.7-5.3,3.2-8.1,4.4c-0.2,0.1-0.4,0.1-0.6,0.1C401.9,209.9,401.5,209.7,401.3,209.3L401.3,209.3z M322.5,198.3c-2.5-1.5-5.1-3.2-7.6-4.9c-0.5-0.3-0.6-0.9-0.3-1.3c0,0,0.1-0.1,0.1-0.1c0.4-0.5,1.1-0.6,1.6-0.2 c2.5,1.7,5,3.3,7.5,4.8c0.5,0.3,0.6,0.9,0.3,1.4c0,0,0,0,0,0c-0.2,0.3-0.6,0.5-1,0.5C322.9,198.5,322.7,198.4,322.5,198.3 L322.5,198.3z M416.5,199.8c-0.4-0.3-0.5-1-0.1-1.4c0,0,0.1-0.1,0.1-0.1c2.1-1.9,3.9-4.1,5.6-6.4c0.4-0.5,1-0.6,1.6-0.3 c0.5,0.3,0.7,0.9,0.4,1.4c0,0,0,0,0,0c-1.7,2.4-3.7,4.7-5.9,6.7c-0.2,0.2-0.6,0.3-0.9,0.3C417,200,416.7,200,416.5,199.8 L416.5,199.8z M360.9,193.1c-0.4-2.8-0.6-5.6-0.7-8.4c0-0.6,0.5-1,1.1-1c0.6,0,1.1,0.4,1.2,1c0.1,2.7,0.3,5.5,0.7,8.2 c0,0.6-0.4,1.1-1,1.2c0,0,0,0,0,0H362C361.4,194,361,193.6,360.9,193.1L360.9,193.1z M307.6,188.2c-2.3-1.7-4.7-3.6-7-5.5 c-0.4-0.3-0.5-0.9-0.2-1.3c0,0,0.1-0.1,0.1-0.1c0.5-0.4,1.1-0.4,1.6-0.1c2.4,1.9,4.7,3.8,7,5.5c0.4,0.3,0.5,0.9,0.2,1.3 c0,0-0.1,0.1-0.1,0.1c-0.3,0.3-0.6,0.4-1,0.4C308,188.4,307.8,188.3,307.6,188.2L307.6,188.2z M426.7,186c-0.5-0.1-0.9-0.7-0.7-1.3 c0,0,0,0,0-0.1c1-2.5,1.7-5.2,2-7.9c0.1-0.6,0.6-1,1.2-0.9l0,0c0.6,0,1.1,0.5,1,1.1c0,0,0,0,0,0c-0.3,2.9-1,5.7-2,8.3 c-0.2,0.5-0.7,0.7-1.2,0.7C426.9,186,426.8,186,426.7,186L426.7,186z M293.8,176.9c-2.2-2-4.4-3.9-6.6-5.9c-0.4-0.3-0.5-1-0.1-1.4 c0,0,0.1-0.1,0.1-0.1c0.5-0.4,1.2-0.4,1.6,0c2.2,2,4.3,4,6.6,5.9c0.4,0.3,0.5,1,0.1,1.4c0,0-0.1,0.1-0.1,0.1 C294.9,177.2,294.2,177.2,293.8,176.9L293.8,176.9z M361.7,177.4c-0.6,0-1-0.5-1-1c0,0,0-0.1,0-0.1c0.4-2.8,1-5.6,1.9-8.3 c0.2-0.6,0.8-0.9,1.4-0.7c0.6,0.1,0.9,0.6,0.9,1.2c0,0,0,0.1,0,0.1c0,0.1-0.1,0.1-0.1,0.2c-0.8,2.5-1.4,5.2-1.7,7.8 C362.9,177,362.4,177.4,361.7,177.4L361.7,177.4z M280.7,164.9c-2.1-2-4.2-4.1-6.4-6.1c-0.4-0.4-0.4-1,0-1.4c0,0,0.1-0.1,0.1-0.1 c0.5-0.4,1.2-0.4,1.6,0.1c2.1,2,4.2,4.1,6.3,6.1c0.4,0.4,0.4,1,0.1,1.3c0,0-0.1,0.1-0.1,0.1C281.9,165.4,281.2,165.4,280.7,164.9 L280.7,164.9z M427.5,168.8c-0.6-2.7-1.5-5.2-2.8-7.6c-0.2-0.5,0-1.1,0.5-1.4c0,0,0,0,0,0c0.6-0.2,1.2,0,1.5,0.5 c1.4,2.6,2.4,5.3,3,8.2c0.1,0.6-0.3,1.1-0.8,1.2c0,0-0.1,0-0.1,0c-0.1,0-0.2,0-0.3,0C428,169.7,427.6,169.3,427.5,168.8 L427.5,168.8z M366.7,161.4c-0.5-0.2-0.7-0.8-0.5-1.4c0,0,0,0,0,0c1.5-2.5,3.3-4.9,5.4-7c0.4-0.4,1.1-0.5,1.6-0.1 c0.4,0.3,0.5,0.9,0.2,1.3c0,0-0.1,0.1-0.1,0.1c-1.9,2-3.7,4.3-5.1,6.7c-0.2,0.4-0.7,0.6-1.1,0.5C367,161.5,366.8,161.5,366.7,161.4 L366.7,161.4z M268.1,152.6c-2.1-2-4.2-4.1-6.3-6.1c-0.4-0.3-0.4-0.9-0.1-1.3c0,0,0.1-0.1,0.1-0.1c0.5-0.4,1.2-0.4,1.6,0 c2.1,2,4.2,4.1,6.3,6.1c0.4,0.4,0.4,1,0,1.4c0,0-0.1,0.1-0.1,0.1C269.2,153,268.5,153,268.1,152.6L268.1,152.6z M419.8,154.4 c-1.9-2.1-4.1-4-6.5-5.6c-0.5-0.3-0.6-1-0.3-1.4c0,0,0,0,0,0c0.4-0.5,1.1-0.6,1.6-0.2c2.6,1.7,4.9,3.7,7,5.9c0.4,0.4,0.4,1,0,1.3 c0,0-0.1,0.1-0.1,0.1c-0.2,0.2-0.5,0.3-0.8,0.2C420.3,154.7,420,154.6,419.8,154.4L419.8,154.4z M378.3,148.6 c-0.3-0.4-0.3-1,0.1-1.4c0,0,0.1-0.1,0.1-0.1c2.6-1.7,5.5-3.1,8.5-4c0.6-0.2,1.2,0.1,1.5,0.6c0.2,0.5-0.1,1.1-0.6,1.3 c0,0,0,0-0.1,0c-2.8,0.9-5.5,2.1-7.9,3.7c-0.2,0.1-0.5,0.2-0.8,0.2C378.9,149,378.5,148.8,378.3,148.6L378.3,148.6z M255.3,140.4 c-2.1-2-4.3-4-6.5-5.9c-0.4-0.3-0.5-0.9-0.1-1.3c0,0,0.1-0.1,0.1-0.1c0.5-0.4,1.2-0.4,1.6,0c2.2,2,4.4,4,6.5,6 c0.4,0.3,0.5,0.9,0.1,1.3c0,0-0.1,0.1-0.1,0.1c-0.2,0.2-0.6,0.3-0.9,0.3C255.8,140.7,255.6,140.6,255.3,140.4z M405.3,145 c-2.3-0.7-4.6-1.1-7-1.3c-0.6,0-1.2-0.1-1.7-0.1c-0.6,0-1.1-0.4-1.2-1c0-0.6,0.6-1,1.1-1c0.6,0,1.3,0,1.9,0.1 c2.6,0.2,5.2,0.6,7.6,1.4c0.5,0.1,0.9,0.7,0.7,1.3c0,0,0,0,0,0.1c-0.2,0.5-0.7,0.7-1.2,0.7C405.5,145.1,405.5,145.1,405.3,145 L405.3,145z M242.1,128.6c-2.3-1.9-4.6-3.8-6.9-5.6c-0.4-0.3-0.5-0.9-0.2-1.3c0,0,0.1-0.1,0.1-0.1c0.4-0.4,1.1-0.5,1.6-0.1 c2.3,1.8,4.6,3.7,7,5.6c0.4,0.3,0.5,0.9,0.2,1.4c0,0-0.1,0.1-0.1,0.1c-0.3,0.2-0.6,0.3-0.9,0.3 C242.6,128.9,242.4,128.8,242.1,128.6L242.1,128.6z M228.1,117.8c-2.5-1.7-5-3.4-7.4-4.9c-0.5-0.3-0.6-0.9-0.3-1.4c0,0,0,0,0,0 c0.4-0.5,1.1-0.6,1.6-0.3c2.5,1.6,5,3.2,7.5,5c0.4,0.3,0.6,0.9,0.3,1.3c0,0-0.1,0.1-0.1,0.1c-0.3,0.3-0.6,0.4-1,0.4 C228.5,118,228.3,118,228.1,117.8L228.1,117.8z M212.9,108.4c-2.7-1.5-5.4-2.8-8.1-4c-0.5-0.2-0.7-0.8-0.5-1.3c0,0,0,0,0,0 c0.3-0.5,1-0.7,1.6-0.5c2.7,1.2,5.5,2.6,8.2,4.1c0.5,0.3,0.7,0.9,0.4,1.4c0,0,0,0,0,0c-0.2,0.3-0.6,0.5-1,0.5 C213.3,108.5,213.1,108.5,212.9,108.4L212.9,108.4z M132.2,98.7c-0.2-0.5,0-1.1,0.6-1.3c0,0,0,0,0,0c2.9-1.1,5.9-2,9-2.7 c0.6-0.2,1.2,0.2,1.4,0.7c0.1,0.5-0.2,1.1-0.7,1.2c0,0-0.1,0-0.1,0c-2.9,0.7-5.8,1.5-8.7,2.6c-0.2,0.1-0.3,0.1-0.5,0.1 C132.8,99.4,132.4,99.1,132.2,98.7L132.2,98.7z M196.5,100.9c-2.8-1-5.8-1.9-8.7-2.7c-0.6-0.1-0.9-0.7-0.8-1.2c0,0,0-0.1,0-0.1 c0.2-0.6,0.8-0.9,1.4-0.7c3,0.8,6,1.7,8.9,2.8c0.5,0.2,0.8,0.8,0.7,1.3c0,0,0,0,0,0.1c-0.2,0.4-0.7,0.7-1.1,0.6 C196.7,101,196.6,100.9,196.5,100.9L196.5,100.9z M150.1,94.2c-0.1-0.6,0.3-1.1,0.9-1.1c0,0,0.1,0,0.1,0c3.1-0.3,6.3-0.5,9.4-0.6 c0.6,0,1.1,0.4,1.2,1c0,0.6-0.5,1.1-1.1,1c-3.1,0-6.2,0.2-9.2,0.5h-0.2C150.6,95.1,150.2,94.7,150.1,94.2L150.1,94.2z M178.8,96.2 c-3.1-0.5-6.1-1-9.1-1.2c-0.6,0-1.1-0.5-1-1.1c0,0,0,0,0,0c0-0.6,0.5-1,1.1-0.9c0.1,0,0.1,0,0.2,0c3.1,0.3,6.2,0.7,9.3,1.2 c0.6,0.1,1,0.5,0.9,1.1c0,0,0,0.1,0,0.1c-0.2,0.5-0.7,0.9-1.2,0.8L178.8,96.2z"></path> <path class="st11" d="M120.9,105.5c0.3,0,0.5-0.1,0.8-0.2c1.2-0.8,2.5-1.5,3.8-2.3c0.5-0.3,0.7-0.9,0.4-1.4c0,0,0,0,0,0 c-0.4-0.5-1.1-0.6-1.6-0.3c-1.3,0.7-2.6,1.5-3.9,2.3c-0.5,0.3-0.6,1-0.3,1.4c0,0,0,0,0,0C120.2,105.4,120.6,105.5,120.9,105.5z"></path> <circle class="st9" cx="456" cy="114" r="77.4"></circle> <path class="st2" d="M450,119.8L450,119.8c12.2,12.1,31.8,12.1,44-0.1c12.1-12.2,12.1-31.8-0.1-44c-12.2-12.1-31.8-12.1-44,0.1 c-5.8,5.8-9.1,13.8-9.1,22C440.9,106.1,444.2,114,450,119.8z"></path> <path class="st2" d="M472.1,127.2c16.2-0.3,29.1-13.7,28.8-29.9c-0.3-15.8-13-28.5-28.8-28.8H472v3.9h0.1c14,0,25.4,11.4,25.5,25.4 c0,14.1-11.4,25.5-25.4,25.5L472.1,127.2z"></path> <path class="st9" d="M488.4,81.4c9.4,8.6,10.1,23.3,1.5,32.7s-23.3,10.1-32.7,1.5c-0.5-0.5-1-1-1.5-1.5l0,0 c-9.4-8.6-10.1-23.3-1.5-32.7c8.6-9.4,23.3-10.1,32.7-1.5C487.5,80.4,487.9,80.9,488.4,81.4z"></path> <path class="st2" d="M443.5,126.6c1.6,1.6,4.1,1.6,5.6,0l5-5.1c1.6-1.5,1.6-4.1,0-5.6c0,0,0,0,0,0l0,0c-1.6-1.6-4.1-1.6-5.6,0 c0,0,0,0,0,0l-5,5.1C442,122.5,442,125,443.5,126.6L443.5,126.6z"></path> <path class="st11" d="M411.1,159L411.1,159c3.1,3.1,8.1,3.1,11.3,0l24.3-24.4c3.1-3.1,3.1-8.1,0-11.3l0,0c-3.1-3.1-8.1-3.1-11.3,0 l-24.3,24.4C408,150.8,408,155.9,411.1,159L411.1,159z"></path> </g> </svg> 