<?xml version="1.0" encoding="UTF-8"?> <!-- Generator: Adobe Illustrator 24.2.0, SVG Export Plug-In . SVG Version: 6.00 Build 0) --> <svg xmlns="http://www.w3.org/2000/svg" xmlns:xlink="http://www.w3.org/1999/xlink" version="1.1" id="Layer_1" x="0px" y="0px" viewBox="0 0 570 500" style="enable-background:new 0 0 570 500;" xml:space="preserve"> <style type="text/css"> .st0{fill:#D6EBBD;} .st1{fill:#EEF2F5;} .st2{fill:#087262;} .st3{fill:#D5634B;} .st4{fill:#95CA59;} .st5{fill:#D6E8BC;} .st6{fill:#F48257;} .st7{fill:#FFFFFF;} .st8{fill:#055245;} .st9{fill:#94C959;} .st10{fill:#D6634A;} .st11{fill:#60AC6E;} .st12{fill:#DAE2E9;} .st13{fill:none;} </style> <g> <path class="st0" d="M58,268c9.6-21.9,20.3-43.2,32.2-63.9c27.2-48.1,55.8-118.5,112.6-137.3c109.8-36.4,206.7,21.6,275.1,104.4 c22.3,27,43,56.7,50.7,90.8c11,48.7-13,92.3-51.4,121c-54.2,40.6-123,56.8-188.7,66.8c-39,5.9-77.9,12.8-117.4,14.5 c-44.5,1.9-101.8,3.5-129.4-38.6C11.7,380.1,38.8,312.7,58,268z"></path> <rect x="235.2" y="120.5" class="st1" width="298.4" height="181.9"></rect> <rect x="235.2" y="104.6" class="st2" width="298.4" height="16.4"></rect> <path class="st3" d="M247.3,112.1c0,1.8-1.5,3.3-3.3,3.3c-1.8,0-3.3-1.5-3.3-3.3c0-1.8,1.5-3.3,3.3-3.3 C245.8,108.8,247.3,110.2,247.3,112.1C247.3,112.1,247.3,112.1,247.3,112.1z"></path> <path class="st4" d="M257.7,112.1c0,1.8-1.5,3.3-3.3,3.3c-1.8,0-3.3-1.5-3.3-3.3c0-1.8,1.5-3.3,3.3-3.3 C256.2,108.8,257.7,110.2,257.7,112.1C257.7,112.1,257.7,112.1,257.7,112.1z"></path> <path class="st5" d="M268.1,112.1c0,1.8-1.5,3.3-3.3,3.3c-1.8,0-3.3-1.5-3.3-3.3c0-1.8,1.5-3.3,3.3-3.3 C266.6,108.8,268.1,110.2,268.1,112.1C268.1,112,268.1,112.1,268.1,112.1z"></path> <path class="st6" d="M128.1,296.1l-0.5-0.1c-9.1-3.3-17.9-7.5-27.4-9.2c0,0.1,0,0.1,0,0.2c0.6,3.8,1.1,12.1,2.2,15 c1.9,5.1,7.3,8.4,8.5,5.6c1.1-2.9-2.5-12.8-2.5-12.8c3.7,4.9,11.7,14.1,18.3,17.1c12.7,5.8,16.9-1.8,16.9-1.8 C153.4,305.4,131.7,302.5,128.1,296.1z"></path> <path class="st7" d="M105.5,288c-1.7-0.5-3.5-0.9-5.3-1.2c0,0.1,0,0.1,0,0.2c0.6,3.8,1.1,12.1,2.2,15c1.9,5.1,7.3,8.4,8.5,5.6 c0.5-1.3,0.1-3.9-0.6-6.5C108.3,296.8,106.7,292.5,105.5,288z"></path> <path class="st6" d="M152.3,338c2.7-6.6-5.3-12.5-9.2-10.2c0,0-3.9,6.2-14.5,35.3c-1,2.7-2.2,5.3-3.7,7.9 c-2.5,5.8-5.4,11.3-8.6,16.8c6.4,0.2,12.8,0.5,19.2,0.9h12l-19.6-9.8l-0.1-0.2l0,0C128.9,376,149.6,344.6,152.3,338z"></path> <path class="st8" d="M168.5,292.7c-0.6-6.2-2.7-11.9-5.4-19c-3.8-10.2-14.8-51.8-26.9-54.8c-7.3-1.8-16.3,20-16.3,20 c0.1,9.9,20.8,48.1,23.7,61.9c1.7,7.9-2.8,26.4-6.3,39.1c1.9,0.6,7.3,10.9,7.3,10.9c9.2-14.1,18.6-28.4,22.7-45 C168.5,301.5,168.9,297,168.5,292.7z"></path> <path class="st8" d="M120,231.1c0,0,18.9,36.1,23.4,52.3c5,18,3.4,25.4,2.1,26.6c-1.3,1.2-9.7,2-14.9-0.6 c-5.2-2.6-6.7-10.7-6.9-12.6c-0.2-1.9-36.3-40-34.1-61.8C91.7,213.2,107.4,222.5,120,231.1z"></path> <path class="st6" d="M163.6,134.1l0.4-0.3c5.2-3.7,8.5-18.6,10.9-24.2l19.7-45.3l-6.2-2.8l-19.1,36.3c-3.3,6.2-6.9,12.4-9.9,18.8 C157.7,120.5,154.3,140.3,163.6,134.1z"></path> <path class="st8" d="M158.5,130.9c3.1-1.7,10.6-1.9,13.9,2.3c4.4,5.6,3,8.7,0.1,12.6s3.2,5.8,9.3,1.4c0,0-14.3,14.1-15.5,1.1 c-1.1-12.6-6-14-9.8-15.3C157.1,132.2,157.8,131.5,158.5,130.9z"></path> <path class="st4" d="M91.1,243.1c22.4-4.5,35.8-10.2,52.8-13.6c2.1-5.7-2.6-13.9-3.9-23.7c-1.2-9.1,3.9-18.4,11.1-36.4 c7.2-18,2.4-15.4,6.2-19c3.8-3.6,10-11.5,9.5-14.1c-0.5-2.7-10.6-12.6-10.6-12.6c-9.6-10.6-32.4,1.3-41.1,7.5 c-6.8,4.9-11.6,9.4-12.1,17.8c-0.6,8.4,3.8,14.9,1.8,23.7s-8,16-11.4,24.2c-5.6,13.3-7.6,30.4-3.2,44.3 C90.5,241.9,90.7,242.5,91.1,243.1z"></path> <path class="st6" d="M99.6,120.9c-0.6-0.9-1-1.9-1.5-2.8c-3-7.9-10.1-15.9-14.6-23c-2.8-4.3-20.2-25.5-15.7-30.8 c2-2.4,3.5-5.8,4.4-6.7c0,0-1.4-0.7-2.9,1.1c-1.5,1.8-4.1,3.5-5.3,2.3c-1.2-1.3-5.8-7.6-8.1-10.2c-2-2.2-1.8-1.9-2-0.5 s3.4,4.9,4.8,7.2c0.5,0.7,0.8,2.4-1.9,0.7c-2.9-1.9-5.5-4.2-7.8-6.8c-0.5-0.5-3.4-0.5-0.6,2c2.7,2.5,8.5,8.5,7.5,9.7 s-3.1,0.8-7.1-0.5s-1.7,1.2,0.7,2.1s4.8,1.6,4.8,1.6s0.5,1.5-2.2,1.4c-1.9,0-3.2,1.5,0.8,1.4c9.6-0.2,9,4.2,12.5,11.3 c2.9,5.9,6.5,11.7,9.7,17.5c5.1,9.1,11.3,18.2,15.2,27.8c2.1-0.4,5.9-0.6,7.6-2.1C99.4,122.1,99.9,121.6,99.6,120.9z"></path> <path class="st8" d="M141.9,79.1c0,0,10.2-1.8,17.8,5.5c6,5.8,9.9,26.7,2.5,36.5s-10.7,16.2-6.6,18.3s9.9,8.8,3.7,12.9 c-6.2,4.2-8.6,5.8-10.8,5.4c-2.2-0.4,9.9-3.1,3.8-9.5c-6.1-6.4-11.6,0.5-14.9-5.6c-3.3-6.1-8.6,11.8-12.1,12.7s-11.2,2.7-15.6-4.4 c-0.6-1,7.2,6,7.1-4.2c-0.1-10.2,1.4-3.2-3-2.2c-4.3,0.9-9,14.7-20.9,7.4c-5.9-3.6-6.1-6.3-6.1-6.3s6.9,6,7.6-1.2 c0.7-7.2-0.8-9-0.8-9s-1.8,7.3-8.5,6.6c-4.2-0.5-7.6-4.6-5.7-8.3c0,0-0.9,1.7,2.1,4.2c0.9,0.8,5,2.9,3.9-2.3 c-1-5.1-5.5-11.7,5.9-16.6s16.2-1.2,15.9-13C106.9,94.1,109.1,69.1,141.9,79.1z"></path> <path class="st6" d="M143.1,92.1c0,0,5.2,11.5,11.3,19.3s3,19.2-4.1,23.6c-7.1,4.4-7.5,8.1-4.1,9.5s-3,16.8-9.1,18.2 c-6.1,1.4-19.7-5.3-14.7-16.1c2.6-5.8,0.9-8,0.9-8c3.2,2.9,4.5,8.7,2.6,10.5c-1.9,1.8,11.8-2.7,2.1-13.9 c-9.7-11.1-11.3-11.4-10.1-19.8c1.3-8.4,9.6-8.3,15.9-11.8C140,100.2,142.7,97.1,143.1,92.1z"></path> <path class="st6" d="M146.2,144.4c-0.7-0.2-1.4-0.7-1.8-1.4c-2.8,0.6-5.8,0.6-8.6,0c-1.5-0.3-3-0.8-4.4-1.5c1.1,6.5-7,9-5.5,7.6 c1.9-1.8,0.5-7.6-2.6-10.5c0,0,1.7,2.2-0.9,8c-5,10.8,8.6,17.4,14.7,16.1C143.1,161.2,149.6,145.7,146.2,144.4z"></path> <path class="st3" d="M129.3,147.6c0.6,0.4,1.3,0.7,1.9,1c0.9,0.3,1.9,0.6,2.9,0.8c1,0.1,2,0.1,2.9,0c1.3-0.3,2.6-0.6,3.9-1.1 c2-1,3.9-2.1,5.7-3.5c-0.1-0.2-0.3-0.4-0.6-0.4c-0.7-0.2-1.4-0.7-1.8-1.4c-2.8,0.6-5.8,0.6-8.6,0c-1.5-0.3-3-0.8-4.4-1.5 C131.8,143.7,131,146,129.3,147.6z"></path> <path class="st3" d="M123.7,142.4l0.1,0.1c0.9,1,1.9,2,2.9,3c-0.3-2.7-1.5-5.1-3.4-7C123.3,138.6,124.2,139.7,123.7,142.4z"></path> <path class="st6" d="M189.3,66.9c-3.4-4.2-0.4-7.9-1.2-10.5c-1.1-3.5-5.3-5.2-5.7-5.5c-1.2-0.9,2.3-2.1,3.8-0.6 c1.5,1.5,3.3,1.8,3.7,1c1.3-2.7,2.8-13.1,3.9-15c0.6-1,1.9-0.6,1,4.5c-0.9,5.1-2.2,9-1.1,9.3c2.1,0.6,7.8-9.5,9.5-11.1 c0.6-0.6,3.3-1,0.6,3.3c-3.3,5.2-6.1,8.8-6,10.2c0.1,1.4,3.5,1.8,7,0.8c4.7-1.4,5.5-0.8,3.9,0.5c-1.2,0.9-8.3,2.8-7.7,3.7 c1.2,1.8,4.6,1.5,6.5,1.6c1.9,0.1,1.8,1.5-2.3,1.6c-4.1,0.1-2.8-0.6-5.7,1C196.4,63.2,192.8,71.3,189.3,66.9z"></path> <path class="st7" d="M141.2,123.6c2.5,0.5,5,1.2,7.4,1.8c-1.9,5.2-7.6,7.8-12.8,6c-4.1-1.5-6.7-5.4-6.5-9.8 C133.2,122.1,137.2,122.7,141.2,123.6z"></path> <path class="st7" d="M123.2,377.4c0,0,20.3,6.5,23.3,10.9l-30.1-0.9L123.2,377.4z"></path> <path class="st7" d="M133.9,251.3C133.9,251.3,133.9,251.3,133.9,251.3C133.9,251.3,133.9,251.3,133.9,251.3L133.9,251.3 C134,251.3,134,251.3,133.9,251.3z"></path> <path class="st7" d="M133.9,252c0.1,0.1,0.3,0.1,0.4-0.1c-0.2,0-0.1-0.1-0.4-0.1c-0.1-0.1-0.1-0.1,0-0.2c0,0,0,0,0,0 c0,0,0-0.1-0.1-0.1C133.7,251.6,133.7,251.8,133.9,252C133.9,251.9,133.9,251.9,133.9,252C133.9,251.9,133.9,251.9,133.9,252z"></path> <path class="st7" d="M137.4,259.8L137.4,259.8C137.4,259.8,137.4,259.8,137.4,259.8z"></path> <path class="st7" d="M139.7,264.6C139.7,264.5,139.7,264.5,139.7,264.6C139.7,264.6,139.7,264.6,139.7,264.6z"></path> <path class="st7" d="M140,265.4L140,265.4C140,265.4,140,265.4,140,265.4z"></path> <path class="st7" d="M137.4,259.8v0.2C137.4,259.9,137.4,259.9,137.4,259.8z"></path> <path class="st7" d="M134.7,252.8L134.7,252.8L134.7,252.8L134.7,252.8z"></path> <path class="st7" d="M136.2,257.8L136.2,257.8L136.2,257.8L136.2,257.8z"></path> <path class="st7" d="M135.4,256.2c0,0,0.1,0,0.2-0.1C135.5,256.2,135.5,256.2,135.4,256.2L135.4,256.2z"></path> <path class="st7" d="M134.3,253.5L134.3,253.5z"></path> <path class="st7" d="M136.7,259L136.7,259z"></path> <path class="st7" d="M144.5,308.2L144.5,308.2C144.5,308.2,144.5,308.2,144.5,308.2z"></path> <path class="st7" d="M143.1,309.8L143.1,309.8L143.1,309.8L143.1,309.8z"></path> <path class="st7" d="M140.6,267L140.6,267C140.6,267,140.6,267,140.6,267z"></path> <path class="st7" d="M145.4,281.4c0.1-0.2,0.2,0.2,0.3,0C145.6,281.4,145.4,281.2,145.4,281.4z"></path> <path class="st7" d="M134.7,252.9L134.7,252.9L134.7,252.9z"></path> <path class="st7" d="M145.7,281.4L145.7,281.4L145.7,281.4z"></path> <path class="st7" d="M142.2,270.4C142.2,270.4,142.2,270.4,142.2,270.4C142.2,270.4,142.2,270.4,142.2,270.4z"></path> <path class="st7" d="M141.3,267.7L141.3,267.7C141.3,267.8,141.3,267.8,141.3,267.7z"></path> <path class="st7" d="M142.9,271.7c0,0,0,0.1,0,0.1l0,0C142.9,271.8,142.9,271.8,142.9,271.7z"></path> <path class="st7" d="M143.4,273.2L143.4,273.2L143.4,273.2z"></path> <path class="st7" d="M145.8,303.5h-0.1C145.8,303.6,145.8,303.8,145.8,303.5z"></path> <path class="st7" d="M134.6,252.9L134.6,252.9L134.6,252.9C134.7,252.8,134.6,252.8,134.6,252.9z"></path> <path class="st7" d="M144,271.2l0.1,0.2C144,271.4,144,271.3,144,271.2z"></path> <path class="st7" d="M147.3,292L147.3,292C147.3,292.1,147.3,292,147.3,292z"></path> <path class="st7" d="M144.3,272.2c0,0.1,0,0.1,0,0.2l0,0V272.2z"></path> <path class="st7" d="M145.7,303.6"></path> <path class="st7" d="M145.6,305.3c0.1-0.2-0.1-0.2-0.2-0.3c0-0.3,0.2-0.1,0.3-0.1c0.1-0.1-0.1-0.4-0.1-0.5c0-0.1,0.1,0,0.1,0 c-0.1-0.2,0.1-0.6,0-0.8l0,0c-0.1,0-0.2,0-0.3-0.1c0-0.1-0.1-0.2,0.1-0.2s0,0.1,0.1,0.1v-0.1c0.2,0,0,0.2,0.1,0.2 c0-0.2-0.1-0.5,0-0.7c0.2,0,0,0.4,0.2,0.2l-0.1,0.2c0.3-0.1-0.1,0.2,0.3,0.1c0.1-0.3,0-0.4,0.1-0.7c-0.1-0.1-0.1,0-0.2-0.1 c-0.1-0.5,0.5-0.2,0.4-0.7c-0.1-0.1-0.3-0.2-0.1-0.4l0.2,0.1c0.1-0.3-0.2-0.3-0.1-0.6c0.1,0.1,0,0.3,0.1,0.2c0.2-0.2-0.1-0.2,0-0.4 h0.2c0-0.4,0-0.8,0-1.2c0.1,0,0.1,0.1,0.2,0c0-0.5,0.1-1,0.4-1.5l-0.1-0.2c0,0,0.1-0.1,0.1,0c0.1-0.2-0.1,0-0.1-0.1 s0.1-0.1,0.1-0.1c-0.1-0.4-0.1-0.9,0-1.3v0.1c0.1-0.3-0.3-0.4-0.1-0.6v0.1c0-0.6,0.1-1.1,0.3-1.7c-0.2-0.1,0.1-0.6-0.2-0.6 c0.2-0.3,0.2-0.2,0.3-0.7c0-0.1-0.2-0.2-0.2-0.4h0.2l-0.2-0.2l0.2-0.1V292c0,0.1-0.1,0.1-0.1,0.1c-0.1-0.2,0.1-0.6,0.2-0.6 l-0.1-0.6c0.1,0,0.1,0.1,0.1,0.2c-0.2-0.3,0.2-0.1,0-0.3c0,0-0.1,0-0.1,0c0.1-0.2,0.1-0.4,0.1-0.7l0.1,0.1c0-0.4-0.1-0.9-0.1-1.3 c0,0.1-0.1,0.1-0.1,0.1c-0.1,0-0.1-0.1-0.1-0.1l0.2-0.1c-0.1-0.1-0.1,0.1-0.2,0c-0.1-0.1,0.2-0.1,0.2,0l-0.1-0.2c0.1,0,0.1,0,0.1,0 c-0.1-0.1,0.2-0.4,0-0.5l0,0c0-0.5-0.1-0.7-0.1-1c-0.1,0-0.1-0.1-0.2-0.2c0.1-0.3,0.1-0.6,0.1-0.9c-0.1-0.2-0.1-0.1-0.2-0.2 c0.1,0,0.1-0.4,0.2-0.2c0-0.3-0.1-0.7-0.2-1c-0.1,0.1-0.1,0.1-0.1,0.1c-0.1,0,0-0.2,0.1-0.2l0,0c-0.1-0.3-0.1-0.6,0-0.9 c0.1-0.3,0-0.6-0.1-0.8l0,0l-0.2-0.4c0-0.2,0.1,0.1,0.2-0.1c-0.1-0.2-0.2-0.4-0.2-0.6c0-0.2,0-0.4-0.1-0.6c0.3-0.4-0.2-1.1-0.1-1.6 l-0.1,0.1c-0.1-0.1,0-0.1,0-0.2c0-0.1-0.1,0.1-0.1,0.1c-0.2-0.9-0.4-1.9-0.4-2.9c-0.1-0.4-0.5,0-0.4-0.5l0.2,0.1 c-0.4-0.6-0.4-1.4-0.8-2c0.1,0,0.1,0,0.1,0.1c0.1-0.2-0.1-0.5-0.2-0.5c-0.1,0,0.1-0.1,0.1-0.1c0-0.1-0.3-0.3-0.2-0.4 c0.1-0.1,0,0,0.1,0s-0.1-0.4-0.2-0.3c0-0.3-0.2-0.4-0.2-0.7c-0.2-0.1-0.1-0.4-0.3-0.4c0.2-0.1,0-0.5-0.1-0.6c0.1,0,0-0.2,0.1-0.2 c-0.1-0.2-0.2-0.3-0.3-0.2c0.1-0.5-0.5-0.5-0.2-0.9c-0.3-0.4-0.6-0.8-0.8-1.3c0.1-0.1,0.2,0.1,0.2,0.2c0.1,0.1,0.1,0.2,0.2,0.2 c-0.3-0.4-0.6-0.5-0.7-1c0-0.1,0.1,0,0.2,0c-0.3-0.4-0.4-0.8-0.6-1.1c0,0,0.1,0,0.1,0.1c0,0.1,0-0.2-0.1-0.1l0.1,0.1 c-0.1,0.2-0.4-0.1-0.5-0.1c0.3-0.1-0.1-0.4,0.3-0.4c0,0-0.1-0.1-0.2,0c-0.1,0.1,0-0.1,0.1-0.1c-0.2-0.2-0.2-0.1-0.4-0.3 c0,0,0.1,0,0.2,0c-0.2,0-0.3-0.2-0.4-0.3c0,0,0,0,0.1,0c-0.2-0.3-0.5-0.4-0.6-0.8c0.2,0,0-0.2,0.1-0.3l-0.1-0.2v0.1 c-0.1-0.2-0.3-0.2-0.3-0.4l0.1,0.1l-0.2-0.3v0.2c-0.2-0.1-0.2,0.2-0.3-0.1c0,0-0.1-0.2,0-0.3l0,0c-0.1,0-0.2-0.1-0.2-0.2 c0-0.2,0.2-0.1,0.2-0.2c-0.2,0-0.3-0.4-0.5-0.4c0.1,0,0.1,0,0.1-0.1h-0.1c0-0.1,0-0.1,0.1-0.2c-0.1-0.3-0.2,0.2-0.2-0.1 c0,0,0,0,0.1,0c-0.1-0.3-0.4-0.5-0.4-0.8c0.1-0.2,0.2,0.2,0.3,0c-0.3-0.3-0.5-0.7-0.8-1v0.1c-0.3,0.1,0-0.4-0.2-0.5 c0,0,0.2,0,0.1,0c-0.1-0.3-0.3-0.6-0.6-0.8h0.1c-0.1-0.2-0.1-0.4-0.2-0.6c-0.1,0-0.1-0.1-0.2,0c0.1-0.7-0.7-0.8-0.6-1.5 c0,0.1,0.1,0.1,0.1,0l-0.2-0.3c-0.1,0.1,0,0.1-0.1,0.2c-0.1,0-0.2-0.1-0.2-0.2c0.2,0.1,0.2-0.1,0.2-0.2s-0.1,0-0.1,0.1 c0.1-0.3-0.2,0.1-0.2-0.2h0.1c-0.1-0.1-0.2-0.1-0.2-0.2s0.1,0.1,0.2,0c-0.1-0.1-0.4-0.1-0.3-0.4c0.1,0,0.1,0.1,0.2,0.2 c0.1-0.2,0-0.2,0-0.4l0,0l-0.1-0.3v0.1c-0.4,0-0.2-0.4-0.6-0.5c0.3,0.1,0.1,0,0.3-0.1s0-0.2,0-0.2c-0.2,0,0-0.3-0.2-0.3 c0,0-0.1-0.1,0.1-0.2c-0.1-0.1-0.1,0.1-0.1,0.1c-0.3-0.1-0.1-0.7-0.5-0.9s-0.4-0.2-0.6-0.4c0-0.1,0.2,0,0.2,0c0-0.1,0-0.2,0-0.3 c0.1,0,0.1,0,0.1-0.1c0-0.1-0.2,0-0.2-0.2c0.1,0,0.2,0,0.2,0c-0.1-0.1-0.2-0.2-0.4-0.3c0.1-0.1,0.2,0,0.2,0 c-0.1-0.1-0.2-0.4-0.4-0.4v0.1c0-0.1,0.1-0.1,0.1-0.1c0,0,0,0.2,0,0.3l-0.1-0.1c-0.2,0.3,0.2,0.4,0.3,0.6h-0.2l0.3,0.1 c0,0.1-0.1,0.2-0.2,0.1c0,0.2,0.1,0.1,0.1,0.3l0,0l0.1,0.1c-0.1,0-0.1,0.1-0.1,0c0,0.3,0.3,0.3,0.2,0.5l0,0c0.2,0.3,0.2,0,0.4,0.1 l-0.3,0.4l0.2-0.1c0,0,0,0.1,0,0.1c0.2,0.1,0-0.1,0.2-0.1c0,0.3,0.3,0.4,0.1,0.6c0.1,0,0-0.2,0.2-0.1c-0.2,0.2,0.1,0.2,0.1,0.4 c-0.1,0-0.2-0.2-0.2,0.1c0.3,0,0.1,0.4,0.2,0.5c0.2-0.1,0.2,0.2,0.4,0.4c-0.1,0,0.1,0.5,0.2,0.7l0,0c0.2-0.1,0.3,0.2,0.4,0.3 c-0.1,0.1-0.2,0.1-0.2,0l0.1,0.1c0.1,0,0.2,0,0.2,0.1l-0.1,0.1c0.1,0.2,0.3,0.3,0.4,0.6c0.1-0.1,0.2-0.4,0.4-0.2 c-0.1,0-0.2,0.1-0.2,0.1c-0.1-0.1,0.1,0,0.1,0.1h-0.2c0,0.1,0.1,0,0.1,0.1c0,0.1,0,0.1-0.1,0.1s0-0.1,0-0.1c0,0.1,0,0.3,0,0.4 c0-0.1,0.1-0.1,0.2,0c0,0.1-0.1,0.1-0.1,0.3c0,0.1,0.1,0.2,0.2,0.1c0,0.1,0,0.1-0.1,0.2c-0.1,0.1,0.3,0.5,0.3,0.2l0,0l0,0 c0.3,0.2,0.3,0.7,0.5,1l0,0c0.1,0.2,0.3,0.4,0.4,0.5c0.2,0.1,0,0.2-0.1,0.2c0.1,0.1,0.2,0.1,0.2,0.4c-0.2-0.1,0,0.1-0.1-0.1 c0.1,0.2,0,0.3,0.2,0.4c-0.2,0-0.1,0.2,0,0.3v-0.2c0.1,0.1,0.1,0.2,0.1,0.3l-0.2,0.1c0,0.5,0.7,0.5,0.5,1c0.2,0,0-0.3,0.1-0.3 c0.1,0.2,0,0.5,0,0.6c0.1,0.3,0.3,0.1,0.4,0.4c0-0.1,0.2-0.2,0.3-0.1c0.1,0.2-0.1,0.4-0.2,0.3c0,0,0-0.1,0-0.1c0,0-0.1-0.1-0.1,0 h-0.1c0,0.1,0.1,0.4,0,0.4c0.1,0.1,0.1,0,0.1-0.1c0.1,0.3,0.2,0.4,0.3,0.6c0-0.1,0-0.1,0.1-0.1c0.1,0.4,0.2,0.1,0.3,0.3 c0,0.2-0.2,0.1,0,0.3c0,0.2-0.1,0.1-0.2,0.1c0.2,0.1,0.1,0.5,0.2,0.6l-0.1-0.1c0.1,0,0.1,0.1,0.1,0.2l0.1-0.1c0,0.1,0.1,0.1,0,0.2 c0.1,0,0.2-0.2,0.3-0.1c0,0.1,0.2,0.2,0.1,0.4c-0.1-0.3-0.1,0.1-0.3-0.1c0,0.1,0.1,0.1,0.1,0.2l0,0c0,0.4,0.2,0,0.4,0.3 c-0.1,0-0.1,0.2-0.1,0.2c0,0,0.1-0.1,0.2-0.1c0.1,0.1,0.1,0.2,0.2,0.3v-0.1c0.1,0,0.1,0.1,0.2,0.2c0.1,0.1-0.1-0.1-0.1,0 c0.2,0.1,0,0.4,0.2,0.6c0,0.1-0.2,0.1-0.2,0.2c0.2,0.2,0,0.3,0.2,0.5c0.1-0.1,0-0.1,0.2,0l-0.3-0.3l0.3,0.1c0-0.1-0.2-0.2-0.2-0.3 c0.1,0.1,0.1,0.1,0.2-0.1c-0.1,0.3,0.2,0.3,0.2,0.5l-0.3,0.2c0,0.1,0.1,0.3,0.2,0.4c0.1,0.1,0.2,0.3,0.2,0.4v-0.2 c0.1,0,0.1,0.2,0.2,0.3c-0.1,0-0.1,0.1-0.1,0.2s0.1,0.3,0.3,0.2l-0.1,0.2c0.1,0.3,0.4,0.2,0.5,0.5c-0.1,0-0.1,0.1-0.3,0 c0,0.1,0.1,0.2,0.1,0.2c0.1,0,0.2,0.2,0.2,0.3s0.2,0,0.2,0.1c0,0.1,0,0,0,0s0.1,0.1,0.2,0c-0.2,0.5,0.3,0.8,0.2,1.2 c0.1,0.2,0.2,0.4,0.3,0.6h-0.1c0,0.3,0.3,0,0.3,0.4s-0.1-0.1-0.2,0c-0.3,0.2,0.2,0.4,0,0.6l0,0c-0.1,0.2,0.2,0.3,0.3,0.6l0,0 c0.2,0.2,0.4,0.4,0.5,0.7c-0.1,0-0.1-0.1-0.2,0s0.2-0.1,0.3,0.1s-0.1,0.3-0.2,0.4l-0.1-0.2c-0.1,0.2,0.1,0.3,0.1,0.4h-0.1 c0.1,0.3,0.3,0.2,0.4,0.6l0.1-0.1c0.2,0.1-0.1,0.2,0.1,0.3l-0.4,0.1c0.2,0.2,0.3,0.4,0.4,0.6c-0.2-0.1-0.3-0.3-0.4-0.5 c0,0.1,0.1,0.4,0.2,0.5c0.1,0-0.1-0.1-0.1-0.2c0.2,0.1,0.3,0.3,0.4,0.6c-0.4,0.1,0,0.7-0.2,1c0.2,0.4,0.1,0.9,0.2,1.4 c0.3-0.3,0,0.2,0.3,0c0,0.1,0,0.2,0,0.2l-0.1,0.4c-0.1,0.1-0.1-0.1-0.2-0.1c0,0.3-0.1,0.1-0.2,0.3c0.1-0.1,0.2,0.1,0.2,0.2l0.1-0.3 c0.2,0.4-0.2,0.4,0,0.7l-0.1-0.1c0.1,0.2,0.1,0.7,0.4,0.9c0,0-0.1,0.1-0.2,0c0,0.5,0.4,1,0.3,1.4h-0.1c0,0.1,0.2,0.1,0.1,0.3 c-0.1,0.1-0.1,0-0.1,0s0.2,0.2,0.1,0.3l-0.1-0.1c-0.1,0.5,0.3,0.7,0.4,1c-0.2,0-0.3,0.4-0.3,0.6l0,0c0.1,0.5,0.2,0.9,0.3,1.4 c-0.2,0.3,0,1-0.2,1.6c0-0.1,0.2,0,0.2,0.1c0,0.1,0.2,0.3,0,0.3l0,0c-0.2,0.1-0.1,0.3-0.2,0.5h0.3c-0.4,0.5,0.1,1.3-0.2,1.6 c0.1,0.1,0,0.3,0.1,0.4h-0.1c-0.1,0.3-0.1,0.6-0.1,0.9l-0.1-0.1c0,0.2,0.4,0.3,0.4,0.5h-0.2c0,0.4-0.3,0.8-0.1,1.2 c-0.1,0-0.1-0.1-0.1-0.1c0,0.2-0.2,0.7,0.1,0.7c-0.2,0-0.1,0.4,0,0.6h-0.1c0.2,0.2,0.2,0.2,0.2,0.5c0,0.1-0.1,0-0.1,0 c-0.1,0.2,0.1,0.2,0,0.4l-0.1-0.1c0,0.2,0,0.2,0.1,0.3s-0.1,0.4-0.2,0.4c0.1,0.1,0.1,0.2,0.1,0.3c0,0-0.1,0-0.1-0.1 c-0.1,0.3,0.1,0.6-0.1,0.8c0,0-0.1,0-0.1,0c0-0.2,0.1-0.3,0.1-0.5c-0.1,0-0.2,0.2-0.3,0c0.1,0.2,0.2,0.5,0.1,0.7l0,0l0,0 c0,0,0,0.1,0,0.1c0,0-0.1,0.1-0.1,0.2c-0.1,0-0.1,0.2-0.1,0.3c0.1,0,0.1,0.2,0.2,0.1c0,0,0,0,0-0.1c0,0,0,0,0-0.1l0,0v-0.3 c0.1,0.1,0.1,0.2,0,0.3l0.2,0.2c-0.2,0.1-0.4,0.4-0.5,0.4c0,0.4-0.1,0.8,0.1,1.1c0,0.1-0.1,0.1-0.2,0.1c-0.1,0,0-0.1,0-0.2 c0,0.2-0.1,0.6,0.1,0.7c-0.1,0.2-0.1-0.2-0.2,0.2v-0.1c-0.4,0.5,0.2,1.2-0.3,1.8c0,0,0.1-0.1,0.1-0.1c-0.4,0.7-0.3,1.7-0.8,2.4 c-0.1,0.2,0,0.3,0,0.4h-0.2l0.1,0.3c0,0.4-0.5,0.4-0.5,0.9h0.1c-0.1,0.1-0.1,0.5-0.2,0.4c-0.1-0.1,0.1,0.1,0,0.1h-0.1v0.4 c-0.2,0.2-0.3-0.2-0.4,0.2c0,0.2,0,0.5,0.1,0.5s0.1-0.1,0.2-0.1v0.2c0.2,0.2,0.4,0.4,0.7,0.2v-0.3h0.1l-0.1,0.2 c0.1-0.1,0.1-0.2,0.1-0.3c0,0,0.1,0,0.2,0l-0.1-0.4c0.1,0,0.1,0.2,0.2,0.1c-0.1-0.2-0.2,0-0.2-0.2s0.2,0,0.2-0.2 c0.1,0,0.1,0.1,0.1,0.1c0,0,0,0,0,0c0-0.2,0.1-0.3,0-0.5c0.2-0.1,0.1-0.4,0.3-0.3c-0.1-0.1-0.1-0.3-0.1-0.4 c0.2,0.3,0.2-0.4,0.4-0.2c-0.2-0.3,0.1-0.6,0-0.9c0,0,0,0.1,0,0.1c0.1-0.1,0.1-0.2,0.2-0.2c-0.2-0.1-0.2-0.4-0.2-0.5 c0.2-0.1,0.2,0.2,0.4,0.2c-0.2-0.1-0.1-0.4-0.2-0.4c0.2-0.1,0.1-0.1,0.3-0.1c-0.2-0.1,0-0.2-0.1-0.3 C145.5,305.3,145.6,305.5,145.6,305.3C145.6,305,145.6,305.3,145.6,305.3z M146.4,299.6L146.4,299.6L146.4,299.6z M146.5,299.1 c0,0.1,0,0.1,0,0.2c-0.1,0-0.1,0-0.1-0.1C146.4,299.2,146.4,299.2,146.5,299.1z M145.3,299.9C145.3,299.8,145.3,299.8,145.3,299.9 L145.3,299.9L145.3,299.9L145.3,299.9z"></path> <path class="st7" d="M145.5,300.1L145.5,300.1L145.5,300.1L145.5,300.1z"></path> <path class="st7" d="M137.4,259.7L137.4,259.7L137.4,259.7z"></path> <polygon class="st7" points="147.4,292.6 147.3,292.6 147.4,292.6 "></polygon> <path class="st7" d="M136.7,257.2C136.7,257.2,136.7,257.1,136.7,257.2C136.7,257.1,136.7,257.2,136.7,257.2z"></path> <path class="st7" d="M136.2,256.2V256C136.2,256.1,136.2,256.2,136.2,256.2z"></path> <path class="st7" d="M135.9,255.4L135.9,255.4L135.9,255.4L135.9,255.4z"></path> <path class="st7" d="M142.1,267.1L142.1,267.1C142.1,267.1,142.1,267.2,142.1,267.1z"></path> <path class="st7" d="M140,263.8l0.1,0.1C140.1,263.8,140.1,263.7,140,263.8z"></path> <polygon class="st7" points="144,271.2 144,271.2 144,271.2 "></polygon> <path class="st7" d="M140.2,264c0-0.1,0-0.1-0.1-0.2C140.1,263.9,140.1,264,140.2,264z"></path> <path class="st7" d="M134.4,252.1L134.4,252.1L134.4,252.1z"></path> <path class="st7" d="M134.4,252.1L134.4,252.1C134.4,252.1,134.4,252.1,134.4,252.1z"></path> <path class="st7" d="M134.3,252L134.3,252C134.3,252.1,134.3,252,134.3,252z"></path> <path class="st7" d="M134.8,253.2L134.8,253.2L134.8,253.2z"></path> <path class="st7" d="M135,253.4c0-0.1,0-0.2-0.1-0.3l0,0C134.9,253.1,134.8,253.4,135,253.4z"></path> <path class="st7" d="M135,255.1l-0.1-0.3c0,0.1-0.1,0.2-0.1,0.1C134.8,255.3,134.9,254.8,135,255.1z"></path> <path class="st7" d="M135.3,255.9C135.2,255.8,135.2,256,135.3,255.9C135.2,256,135.3,256.1,135.3,255.9z"></path> <path class="st7" d="M138.2,261.6l-0.1,0.1C138.1,261.7,138.1,261.6,138.2,261.6z"></path> <polygon class="st7" points="139.3,262.2 139.3,262 139.2,262.1 "></polygon> <polygon class="st7" points="138.8,263.4 138.8,263.4 138.9,263.5 "></polygon> <path class="st7" d="M143.2,273l0.1-0.1C143.3,272.8,143.1,272.9,143.2,273z"></path> <path class="st7" d="M144.7,277.3c-0.1,0.1-0.1,0.2,0,0.3C144.7,277.5,144.8,277.4,144.7,277.3z"></path> <path class="st7" d="M146.1,291.3l-0.1-0.1C146,291.2,146,291.3,146.1,291.3L146.1,291.3z"></path> <path class="st8" d="M456.8,52.1c-4.4-4.1-10.1-6.3-14.2-11.1c-4.1-4.8-8.5-10.3-9.2-16.9c-1.8-16.5,13.2-25.5,28.4-23.9 s27.5,8.8,31.6,23.9c3.2,11.9,3.8,24.1,10.9,34.8c3.7,5.5,9,9.8,14,14.3c1.7,1.5,3.3,3,4.8,4.6c7.2,8.1,13,17,16.1,26.9 c0.8,2.5,1.4,5,1.8,7.6c3.9,18.7-6.9,37.1-21,49c-10.8,8.6-24.8,9.7-35.6,3.2C466,152.7,467,130,461.1,112.2 c-1-3.3-2.1-6.5-3.1-9.6c-0.3-2.3-0.4-4.5-0.3-6.8c0.6-12.2,7.2-23.8,3.4-36.3C460,55.9,457.9,54.1,456.8,52.1z"></path> <path class="st9" d="M440.3,116.4L440.3,116.4c0,0.3,0,0.6,0,0.9l0,0c-0.1,2.2-0.2,4.3-0.4,6.2l0,0c-1.8,21-7.9,22.7-7.7,25.3 c0.7,6.5,0.9,13,1.3,19.4c0,0.4,0,0.9,0.1,1.3c0.3,4.9,0.6,9.8,1.2,14.7c0.8,6.1,1.6,11.9,2.1,17.7c0.1,0.9,0.2,1.8,0.2,2.7 c0.4,4.5,0.5,8.9,0.3,13.4c-0.1,2.4-0.2,4.8-0.2,7.2c0,3.7,0,7.5,0.1,11.2c0,1.8,0.1,3.6,0.1,5.5c0,0.2,0,0.5,0,0.7 c0,0.4,0,0.8,0,1.2l0,0c0,1.2,0.1,2.4,0.1,3.6l0,0c0,0.3,0,0.6,0,0.9c0,2.1,0.1,4.3,0.1,6.5c0.1,6.1-0.2,12.2-0.8,18.3 c0,0.4-0.1,0.8-0.1,1.2c-0.5,6-1.5,11.9-3,17.6l0,0c-1.1,4.2-2.9,8.2-5.3,11.8h-43.1c-1.4-1.9-2.5-4-3.3-6.2 c-0.2-0.6-0.4-1.2-0.5-1.8c-0.2-0.6-0.3-1.3-0.4-1.9c-1.5-8.5-0.4-17.3,3.1-25.3c0.1-0.4,0.3-0.8,0.5-1.1c0.2-0.4,0.3-0.6,0.4-1 c0.3-0.6,0.5-1.2,0.8-1.8c1.5-3,3.2-5.9,5-8.7c4.5-6.7,7.8-14.2,9.7-22c0,0,0,0,0-0.1l0,0c0.4-1.7,0.7-3.5,1-5.3 c0.4-3,0.6-6.1,0.4-9.2c0-0.4-0.5-2.5-1.1-5.7c-0.1-0.5,0.8-1.4,0.7-1.9c-0.6-2.9-1-5.9-1.2-8.9c-0.8-9.7-0.4-20.4-0.4-21.3 c0.9-0.3,0-0.7-0.5-1.8l-0.1-0.2c-0.4-1.1-0.2-2.3,0.5-3.3l0,0l0.8-1.3l0.5-0.8l0,0c0.5-0.9,1-1.8,1.5-2.8l0,0 c6.6-12.8,14.4-33.1,18.9-45.1l0,0c2.2-5.9,3.6-9.8,3.6-9.8c3.3-0.8,6.5-2,9.6-3.6l0,0c0.9-0.5,1.7-1,2.5-1.6l0,0 c0.1-0.1,0.3-0.2,0.4-0.3l0,0c0.4-0.4,0.8-0.8,1.2-1.2l0,0c0.4-0.5,0.7-1,1-1.5C440.4,111,440.4,113.8,440.3,116.4z"></path> <path class="st8" d="M440.6,23.1c-14.4-4.6-38.1,6.4-36.1,23.9c1.4,12.4,11.9,24.6,7.6,37.3c-2.8,8.5-11.7,12.9-16.5,20.2 c-5.5,8.4-5.5,17.6,1.2,25.4c9.7,13,23.8,4.3,32.1-2.8c1.4-1,2.9-1.8,4.4-2.5c8.2-3.7,16.7-11,19.4-19.9c3.2-10.4,1-19.7-1.3-30 C449,64,447.1,51.5,440.6,23.1z"></path> <path class="st8" d="M438.5,278.8c2.6,8.1,4.6,16.4,6,24.7h-34.3c5.8-19.1,12.6-38,13.8-57.9c0.1-0.8,0.1-1.6,0.1-2.5l0,0 c0-0.1,0-0.2,0-0.3c0-1,0-2.1,0-3.2l0.7,1.7v0.1l0.5,1.2c0.2,0.6,0.5,1.2,0.7,1.8l0,0l1.7,4.1c3.1,7.9,5.7,14.9,7.8,21l1.5,4.5 C437.6,275.8,438.1,277.4,438.5,278.8z"></path> <path class="st8" d="M494.5,303.6h-60c0-0.4,0-0.8-0.1-1.2c-0.2-3.5-0.3-7-0.4-10.5c-0.3-7-0.7-14.1-1.5-21 c-0.5-5.6-1.7-11.1-3.4-16.4c-1-3.1-2.9-6.8-3.8-10.3c-0.1-0.4-0.2-0.9-0.3-1.3s-0.1-0.9-0.2-1.3c0-0.6,0-1.2,0-1.7 c1.9,1,3.9,1.7,6,2.4c1.7,0.5,3.4,0.9,5.1,1.3c0.6,0.1,1.2,0.2,1.8,0.3l1.6,0.3c0.8,0.1,1.5,0.2,2.2,0.3l0.6,0.1 c2.8,0.4,5.6,0.6,8.2,0.9l0.9,0.5C488.3,264.1,495.3,284.7,494.5,303.6z"></path> <path class="st9" d="M440.3,105.4c-17,41-29.1,58.2-31.9,76.1c-0.9,6.4-2.4,12.8-4.5,18.9l-2.3,1.8l-9,7l-7,5.4l0,0 c-1.2,0.9-2.5,1.8-3.9,2.4c-3,1.5-6.4,2.4-9.7,2.5c-13.1,0.4-25.8-19.1-25.8-19.1l-14-23.8l-6.8-11.7l11.2-4.4l27.7,21.3 c0,0,3-1,3.1-1l0,0c0.6-0.6,1.3-1.2,1.9-1.8c1-1,2-2.2,2.8-3.3l15.7-20.5c2.2-3,4.2-6.2,5.8-9.5c4-7.7,8.9-14.8,14.7-21.3 C414.4,117.2,429.7,104.4,440.3,105.4z"></path> <path class="st6" d="M436.2,119.5c3.2,9,17.4,2.8,21.5-1.9c5.4-6.2,4.7-11.6,5.6-19.4c0.5-4.4,0.8-7.9,1-10.5 c0.8-13.6-3.9-6.3-23.4-5.8c2.4,4.7,3,11.5,1.9,17.1c0,0.2-0.1,0.4-0.1,0.7C441.4,104.9,434.4,114.5,436.2,119.5z"></path> <path class="st7" d="M462.3,106.4c0,0-23.8,30.2-22.9,1c0,0-35.1,35-21,125.9c0.8,5.7,4.7,10.4,10.1,12.3c5,1.7,12.4,2.8,22.8,1 L462.3,106.4z"></path> <path class="st10" d="M442.7,99c11.8,1.2,18.2-5.6,21.5-11.3c0.8-13.6-3.9-6.3-23.4-5.8C443.2,86.6,443.9,93.4,442.7,99z"></path> <path class="st6" d="M426.2,54.8c0,1.3,0,2.6,0.1,4.1c-0.1,15.4,11.3,35.7,28.6,29.9c1.4-0.3,2.8-0.8,4.2-1.5 c4.1-1.8,7.5-5.1,9.5-9.1c0.9-1.4,1.7-2.8,2.4-4.3c1-2.4,1.8-4.8,2.3-7.3c0.7-2.8,0.5-5.8-0.4-8.5c-2.2-5.8-8.9-11.4-23.6-19.6 c-4.1-2.3-8.8-4.7-14.1-7.4c-3.5,6.6-6.9,11.1-8.2,17.7C426.4,50.6,426.2,52.7,426.2,54.8z"></path> <path class="st9" d="M441.5,240.7c0.2-2,1.2-2.6,1.2-4.6c0.1-3.3,0.1-6.5,0-9.8c-0.1-4.4-0.5-8.8-0.9-13.2 c-0.3-2.8-0.4-5.6-0.6-8.3c-0.5-11.9-0.1-23.7-0.1-35.6v-0.2c0-0.7,0-1.4,0-2.1c0.3-7.6,1.9-15,4.5-22.1c0.7-2.1,5.2-14.5,9.5-24.7 c1.4-3.3,2.7-6.3,4-8.8c0.6-1.1,1.2-2.3,1.9-3.3c0.4-0.6,0.9-1.2,1.4-1.8c0.4-0.3,0.7-0.4,0.9-0.3c6,2.6,11.8,5.6,17.3,9.1l0.1,0.1 l0.8,0.5c8.2,5.7,8.6,9.4,8.7,12c0.2,3.5,0.3,8.6,0.4,14.5c0,0.8,0,1.6,0.1,2.4c0.1,2.7,0.1,5.5,0.2,8.4c0,0.8,0,1.5,0.1,2.3v1.1 c0.1,3.3,0.2,6.7,0.3,10.1c0.1,3,0.2,5.9,0.4,8.8c0.6,12.1,1.5,23.1,3.1,29.1c1.4,5.3,2.3,10.8,3.6,16.2c0.4,1.8,0.9,3.5,1.5,5.2 c0.5,1.5,1,3,1.7,4.4c1.3,3.3,2.8,6.5,4.3,9.7c1.2,2.6,2.5,5.3,3.6,7.9c5.4,12.3,8.4,27.1,7.1,40.5c-0.5,5.5-1.9,10.9-4.1,15.9 h-57.1c-2-2.5-6.5-5.8-8.1-8.8c-3.9-7.9-6.3-16.5-7-25.3c-0.5-6.3-0.5-16.2,0.7-22.4C441.3,246.2,441.4,241.5,441.5,240.7z"></path> <path class="st11" d="M464.4,226.9c13.2,18.3,33.1,15.3,41.7,12.9c-2.1-4.6-4.3-9.3-5.9-14.1c-0.6-1.7-1.1-3.5-1.5-5.2 C481.1,212.2,453.1,211.3,464.4,226.9z"></path> <path class="st8" d="M482.9,93.9c5.4-9.4-3.2-24.2-11.2-29.8c-3.8-2.7-8.4-4.3-12.6-6.5c-4.5-2.3-8.8-5.1-12.7-8.2 c-8.4-6.9-19.8-23.7-9.3-33.7c9.5-9.1,26.9,4.3,33.9,10.9c6.5,5.9,11.7,13.1,15.3,21.2C489.8,56,488.4,63.6,482.9,93.9z"></path> <path class="st12" d="M424.3,170.5c0,0,25.6-3.8,61.7-0.9c0,0-20,48-22.4,74.6c0,0-25.3-5.3-45.4,0 C418.3,244.2,417.2,201.6,424.3,170.5z"></path> <path class="st11" d="M401.6,202.2l-9,7l-7,5.4l0,0c-1.2,0.9-2.5,1.8-3.9,2.4c-3,1.5-6.4,2.4-9.7,2.5 c-13.1,0.4-25.8-19.1-25.8-19.1l-14-23.8c11.4,6.4,28.5,33.3,36.4,32.7c12.4-0.8,29.3-15.2,33.1-36.8 C399.8,182.4,399.8,192.4,401.6,202.2z"></path> <path class="st7" d="M440.3,72.1h16.5c0,0-1.8,9.8-8.6,9.3C441.3,80.9,440.3,72.1,440.3,72.1z"></path> <path class="st7" d="M433.7,167.5c0,0,25.6-3.6,61.7-0.8c0,0-20,46-22.4,71.5c0,0-25.3-5.1-45.4,0 C427.7,238.1,426.6,197.3,433.7,167.5z"></path> <path class="st6" d="M414.9,220.2c4.2,1.5,11-1,14.1-4.2c0.3-0.3,0.6-0.7,0.9-1c3.9-4.5-0.2-6.8-6.1-12.9c-4.8,1.2-6.7-7.5-7.9-7.1 c-0.2,0-0.4,0.1-0.5,0.1C404.5,197.2,405.1,216.8,414.9,220.2z"></path> <path class="st10" d="M414.9,220.2c4.2,1.5,11-1,14.1-4.2c0.3-0.3,0.6-0.7,0.9-1c-0.1-1-0.4-2-1.1-2.7c0,0-17.3-5.5-13.4-17.2 C404.5,197.2,405.1,216.8,414.9,220.2z"></path> <path class="st6" d="M425.6,204.9c-1-1.4-1.8-2.8-2.5-4.4c-0.5-1.6-0.8-3.2-1-4.8c-0.6-2.8-2.3-1.7-2.8,0.5c-0.3,1.5-0.5,3-0.5,4.5 C418.8,201.8,419.2,205.1,425.6,204.9z"></path> <path class="st9" d="M462.3,108.6c6.1,4.1,13.9,4.8,20.8,6.9c8.8,2.7,13.3,12.4,15.6,20.6c4.4,15.6,10.9,29.7,13.3,45.8 c1.2,8.2,2.1,16.6,2.9,24.9c0.9,9.2,0.9,15.3-7.6,20.6c-12.8,8-32.9,4.4-46.7,1.6c-8.6-1.8-18-2.2-26.3-4.7c-4-1.2-8.3-2.6-9.3-6.8 c-0.7-3.2,0.4-6.7,0.8-10.1c0.2-1.5,1.4-2.6,2.9-2.7c14.8-0.5,29.8,0.5,44.7,0c0.7-14.4-4.4-27.1-5.5-41.1 c-1-12.1-1.9-27.2,3.8-38.1c1.9-3.7,5.2-5.3,1.8-8.9C471.7,114.9,467.1,112.1,462.3,108.6z"></path> <polygon class="st7" points="461.5,165.7 487.8,166.1 479.1,204.9 469.3,205.8 458.5,193.2 "></polygon> <path class="st5" d="M459.7,150.7l0.1,1.1c0,0.2,0,0.4,0.1,0.6l0.1,0.6c0.3,1.4,0.7,2.8,1.1,4.2c0.8,2.5,1.7,5,2.8,7.4 c0.7-0.1,1.4-0.1,2.1-0.2c-0.4-1.3-0.8-2.6-1.1-3.9c-0.3-1.3-0.7-2.7-1-4.1s-0.7-2.7-1-4.1l-0.1-0.5c0-0.1-0.1-0.3-0.1-0.5l-0.1-1 c-0.1-0.7-0.2-1.3-0.3-2.1c-0.4-2.7-0.5-5.5-0.3-8.2c0.2-2.7,0.7-5.5,1.6-8.1c0.9-2.6,2.2-5,4-7.2c3.6-4.3,8.6-7.3,14.2-8.2v-0.3 c-4.3,0.5-8.5,2.1-12,4.6c-1.2,0.9-2.3,1.8-3.3,2.9c-2,2.2-3.6,4.7-4.6,7.4c-1.1,2.7-1.8,5.6-2.1,8.5l-0.1,1l-0.1,1.1 c0,0.7-0.1,1.5-0.1,2.2v2.2l0.1,2.2C459.5,149.2,459.7,149.9,459.7,150.7z"></path> <path class="st5" d="M416.3,128c-4.5,9.5-7.9,19.5-10.4,29.7l-0.9,3.9l-0.4,1.9l-0.4,1.9l-0.7,3.9l-0.6,3.9l-0.3,2 c-0.1,0.6-0.1,1.3-0.2,2l-0.4,3.9l-0.1,1v1l-0.1,2c0,1.3-0.1,2.6-0.1,4l0.1,4c0,1.3,0,2.6,0.1,4c0.1,2.7,0.3,5.3,0.4,8 c0.2,5.3,0.3,10.7,0.1,16.1c-0.1,5.4-0.7,10.7-1.7,16c-0.6,2.6-1.4,5.2-2.4,7.6c-1.1,2.4-2.3,4.7-3.7,7l-0.2-0.1 c1.3-2.3,2.4-4.7,3.4-7.1c1-2.5,1.7-5,2.2-7.6c0.9-5.2,1.3-10.5,1.2-15.8c0-5.3-0.2-10.6-0.5-16c-0.1-2.6-0.4-5.3-0.6-8 c-0.2-2.7-0.3-5.4-0.4-8.1c-0.2-10.8,1-21.6,3.8-32c1.4-5.2,3.2-10.2,5.3-15.2c1-2.4,2.2-4.8,3.4-7.2l0.9-1.7l1-1.7 c0.7-1.1,1.4-2.3,2.1-3.3L416.3,128z"></path> <path class="st11" d="M375.5,192c-0.8-7.3-7-10.5-8.1-11c0.6-0.6,1.3-1.2,1.9-1.8C376.7,184.4,375.5,192,375.5,192z"></path> <path class="st5" d="M457.1,303.6h-3.5c-0.3-0.3-0.5-0.5-0.8-0.8c-1-0.9-1.9-2-2.8-3c-0.5-0.5-0.9-1.1-1.3-1.6l-0.6-0.8 c-0.2-0.3-0.4-0.6-0.6-0.9c-0.4-0.6-0.8-1.1-1.2-1.7l-1-1.8c-2.7-4.8-4.5-10-5.5-15.4c-0.5-2.7-0.8-5.4-1-8.1 c-0.2-2.7-0.2-5.4-0.1-8.1c0.1-2.7,0.3-5.4,0.7-8.1c0.4-2.7,0.9-5.3,1.6-7.9l0.3,0.1c-0.3,2.6-0.5,5.3-0.6,8 c-0.1,2.6-0.1,5.3,0,7.9c0.2,5.3,0.8,10.5,1.9,15.6c1.1,5.1,2.8,10,5.2,14.7l0.9,1.7c0.3,0.6,0.7,1.1,1,1.6 c0.2,0.3,0.3,0.6,0.5,0.8l0.6,0.8c0.4,0.5,0.7,1,1.1,1.6c0.8,1,1.6,2.1,2.6,2.9c0.5,0.5,0.9,0.9,1.4,1.4L457.1,303.6z"></path> <path class="st5" d="M452.7,205.2c3-0.3,6-0.5,9-0.6c3-0.1,6-0.1,9.1-0.1c1.5,0,3,0.1,4.6,0.2c1.5,0.1,3,0.3,4.5,0.5 c1.5,0.3,2.9,0.7,4.4,1.2c1.4,0.5,2.6,1.1,3.8,2l-0.2,0.2c-2.9-0.6-5.7-1-8.6-1.3c-1.4-0.2-2.9-0.3-4.3-0.5s-2.9-0.4-4.4-0.5 c-1.5-0.1-2.9-0.2-4.4-0.3c-1.5-0.1-3-0.2-4.5-0.2c-3-0.1-6-0.2-9-0.2L452.7,205.2z"></path> <path class="st5" d="M477.7,204.6c0.7-0.1,1.2-0.1,1.9-0.2c0.6,0,1.2-0.1,1.8-0.1c1.2,0,2.4,0,3.6,0.1c1.2,0.1,2.3,0.3,3.4,0.5 c1.1,0.2,2.1,0.5,3.1,0.9c-1.1-0.2-2.2-0.4-3.3-0.4c-1.1,0-2.2,0-3.3,0.1c-1,0.1-2.1,0.2-3.2,0.4c-0.5,0.1-1,0.2-1.5,0.3 c-0.5,0.1-1,0.2-1.4,0.4L477.7,204.6z"></path> <path class="st6" d="M310.5,146c4,11.4,16.1,18.6,16.1,18.6l10-3.9l-1.1-15.8c0-0.3,0-0.7,0-1l-0.7-11.6c0-0.8-0.7-1.3-1.4-1.3 c-0.1,0-0.3,0-0.4,0.1l-0.5,0.2c-0.9,0.3-1.7,1.1-2,2.1l-2.1,6.5c-0.2,0.6-0.8,1-1.5,0.8c-0.2-0.1-0.4-0.2-0.6-0.4l-10.6-12.5 c-0.4-0.5-1.2-0.5-1.7-0.1c-0.2,0.1-0.3,0.3-0.3,0.5l-0.1,0.1c-0.1,0.4-0.1,0.9,0.2,1.3l9.4,13l-10.6-12.4 c-0.3-0.4-0.8-0.6-1.2-0.6l-0.8-0.1c-0.6-0.1-1.2,0.3-1.5,0.9l-1.7,4.1c-0.6,1.4-0.6,3,0,4.5L310.5,146z"></path> <path class="st2" d="M348.6,320.4h80.6c7.4,0,13.3,6,13.3,13.3v81.8c0,7.4-6,13.3-13.3,13.3h-80.6c-7.4,0-13.3-6-13.3-13.3v-81.8 C335.3,326.4,341.2,320.4,348.6,320.4z"></path> <rect x="386" y="381" transform="matrix(2.618018e-03 -1 1 2.618018e-03 -1.4832 776.9886)" class="st11" width="5.6" height="16.5"></rect> <path class="st11" d="M371.8,336.1c-1,3.1-1.5,6.3-1.5,9.6c-0.1,12.5,7.1,24,18.4,29.4c11.4-5.3,18.6-16.7,18.6-29.3 c0-3.3-0.5-6.5-1.4-9.6L371.8,336.1z"></path> <path class="st5" d="M385.4,369.7l-1.9-0.2c-13.5-1.5-23.6-13.7-23.5-28.3c0-0.5,0-1,0.1-1.6l0.1-1.7l25.4,0.1L385.4,369.7 L385.4,369.7z M363.4,341.4c0.1,12,7.8,22.1,18.4,24.3l0.1-24.3L363.4,341.4L363.4,341.4z"></path> <path class="st11" d="M392.3,369.7l0.1-31.8l25.4,0.1l0.1,1.7c0,0.6,0,1.1,0,1.6c0,14.7-10.2,26.8-23.7,28.2L392.3,369.7 L392.3,369.7z M395.9,341.4l-0.1,24.3c10.6-2.1,18.5-12.2,18.6-24.2L395.9,341.4L395.9,341.4z"></path> <rect x="377.8" y="376.7" transform="matrix(2.618018e-03 -1 1 2.618018e-03 8.4542 767.1083)" class="st11" width="22" height="5.3"></rect> <path class="st11" d="M403.1,392.2v-1.8c0.1-1.1-0.7-2-1.8-2.1l-25.2-0.1c-1.1,0.1-1.9,1-1.8,2.1v1.8L403.1,392.2z"></path> <path class="st5" d="M371.8,336.1c-1,3.1-1.5,6.3-1.5,9.6c-0.1,11.5,5.9,22.1,15.8,28v12.8h2.4v-18.1l0.1-32.2L371.8,336.1z"></path> <path class="st5" d="M380.5,388.3h-4.4c-1.1,0.1-1.9,1-1.8,2.1v1.8h14.2v-3.9L380.5,388.3L380.5,388.3z"></path> <rect x="379.9" y="382.8" transform="matrix(2.618018e-03 -1 1 2.618018e-03 -13.1206 788.5234)" class="st4" width="17.7" height="36"></rect> <rect x="384.1" y="387.1" transform="matrix(2.618018e-03 -1 1 2.618018e-03 -13.1257 788.5079)" class="st7" width="9.3" height="27.5"></rect> <rect x="386.6" y="391.6" transform="matrix(2.618018e-03 -1 1 2.618018e-03 -23.3524 798.6872)" class="st11" width="4.3" height="38.8"></rect> <path class="st2" d="M219.6,356h80.6c7.4,0,13.3,6,13.3,13.3v81.8c0,7.4-6,13.3-13.3,13.3h-80.6c-7.4,0-13.3-6-13.3-13.3v-81.8 C206.3,362,212.2,356,219.6,356z"></path> <polygon class="st4" points="266.6,410.8 256.1,450.4 248.4,442.6 237.9,445.6 248.4,406 "></polygon> <polygon class="st11" points="266.6,410.8 256.1,450.4 248.4,442.6 257.5,408.4 "></polygon> <polygon class="st11" points="253.2,410.8 263.8,450.4 271.4,442.6 282,445.6 271.4,406 "></polygon> <polygon class="st4" points="253.2,410.8 263.8,450.4 271.4,442.6 262.3,408.4 "></polygon> <path class="st5" d="M280.6,419.9c-0.9,0.9-4.1-0.7-5.2,0.1c-1,0.8-0.4,4.3-1.5,4.9s-3.7-1.8-5-1.4c-1.2,0.5-1.6,4-2.8,4.3 s-3.1-2.8-4.4-2.7s-2.6,3.4-3.9,3.3s-2.1-3.6-3.4-3.8c-1.3-0.3-3.5,2.5-4.7,2.1c-1.2-0.5-1-4-2.2-4.6c-1.2-0.6-4.1,1.5-5.2,0.6 c-1.1-0.8,0.1-4.1-0.8-5.1s-4.3,0.2-5.1-0.8s1.3-4,0.6-5.2c-0.6-1.2-4.2-1-4.6-2.2c-0.5-1.2,2.4-3.4,2.1-4.7 c-0.3-1.3-3.7-2.1-3.8-3.4s3.2-2.6,3.3-3.9c0.1-1.3-3-3.1-2.7-4.4c0.3-1.3,3.8-1.6,4.3-2.8s-2.1-3.8-1.4-5s4.1-0.5,4.9-1.5 s-0.9-4.2,0.1-5.2c0.9-1,4.1,0.7,5.2-0.1c1-0.8,0.4-4.3,1.5-4.9c1.1-0.6,3.7,1.8,5,1.4c1.2-0.5,1.6-4,2.8-4.3 c1.3-0.3,3.1,2.8,4.4,2.7c1.3-0.1,2.6-3.4,3.9-3.3c1.3,0.1,2.1,3.6,3.4,3.8c1.3,0.3,3.5-2.5,4.7-2.1c1.2,0.5,1,4,2.2,4.6 c1.2,0.6,4-1.5,5.1-0.7c1.1,0.8-0.1,4.1,0.8,5.1c0.9,1,4.3-0.2,5.1,0.8c0.8,1-1.3,4-0.7,5.2c0.6,1.2,4.2,1,4.6,2.2 c0.5,1.2-2.4,3.4-2.1,4.7c0.3,1.3,3.8,2.1,3.8,3.4c0.1,1.3-3.2,2.6-3.3,3.9c-0.1,1.3,3,3.1,2.7,4.4c-0.3,1.3-3.8,1.6-4.3,2.9 c-0.5,1.2,2.1,3.8,1.4,5c-0.7,1.2-4.1,0.5-4.9,1.5S281.6,419,280.6,419.9z"></path> <path class="st4" d="M275.3,414.6c-8.5,8.5-22.3,8.5-30.8,0c-8.5-8.5-8.5-22.3,0-30.8c8.5-8.5,22.3-8.5,30.8,0 C283.8,392.3,283.8,406.1,275.3,414.6C275.3,414.6,275.3,414.6,275.3,414.6z"></path> <path class="st5" d="M273.7,413.1c-7.6,7.7-20,7.7-27.7,0.1c-7.7-7.6-7.7-20-0.1-27.7c7.6-7.7,20-7.7,27.7-0.1c0,0,0,0,0.1,0.1 C281.4,393.1,281.4,405.4,273.7,413.1z"></path> <path class="st4" d="M273.7,385.4c7.2,8.1,6.4,20.5-1.7,27.6c-7.4,6.6-18.5,6.6-26,0"></path> <path class="st7" d="M253,400.7c-2.1,0-3.9-1.7-3.9-3.9v-4c0-2.1,1.7-3.9,3.9-3.9s3.9,1.7,3.9,3.9v4 C256.9,399,255.2,400.7,253,400.7z M253,390.9c-1.1,0-2,0.9-2,2l0,0v4c0,1.1,0.9,2,2,2s2-0.9,2-2v-4 C255,391.8,254.1,390.9,253,390.9L253,390.9z"></path> <path class="st7" d="M265.2,410.7c-2.1,0-3.9-1.7-3.9-3.9v-4c-0.1-2.1,1.5-3.9,3.7-4.1c2.1-0.1,3.9,1.5,4.1,3.7c0,0.1,0,0.3,0,0.4 v4C269.1,408.9,267.4,410.7,265.2,410.7z M265.2,400.9c-1.1,0-2,0.9-2,1.9c0,0,0,0,0,0v4c0,1.1,0.9,2,2,2c1.1,0,2-0.9,2-2l0,0v-4 C267.2,401.7,266.3,400.9,265.2,400.9L265.2,400.9z"></path> <path class="st7" d="M269.1,396.8c-0.5,0-0.9-0.4-0.9-0.9V391h-4.9c-0.5,0.1-1-0.3-1-0.8s0.3-1,0.8-1c0.1,0,0.1,0,0.2,0h5.8 c0.5,0,0.9,0.4,0.9,0.9v0v5.8C270.1,396.4,269.6,396.8,269.1,396.8L269.1,396.8L269.1,396.8z"></path> <path class="st7" d="M249.2,411c-0.2,0-0.5-0.1-0.7-0.3c-0.4-0.4-0.4-1,0-1.3c0,0,0,0,0,0l19.2-19.2c0.4-0.4,1-0.4,1.3-0.1 c0.4,0.4,0.4,1,0.1,1.3c0,0,0,0-0.1,0.1l-19.2,19.2C249.7,410.9,249.4,411,249.2,411L249.2,411z"></path> <path class="st2" d="M90.6,391.5h80.6c7.4,0,13.3,6,13.3,13.3v81.8c0,7.4-6,13.3-13.3,13.3H90.6c-7.4,0-13.3-6-13.3-13.3v-81.8 C77.3,397.5,83.3,391.5,90.6,391.5z"></path> <path class="st4" d="M120.1,483.1c-0.5-0.2-1.1,0.2-1.3,0.7s0.2,1.1,0.7,1.3c0.2,0.1,0.4,0.1,0.6,0l20.8,0.2 c0.5,0.1,1.1-0.2,1.3-0.7c0.1-0.5-0.2-1.1-0.7-1.3c-0.2,0-0.4,0-0.5,0L120.1,483.1z"></path> <path class="st5" d="M105,432c0.1-14.3,11.8-25.8,26.2-25.7c14.3,0.1,25.8,11.8,25.7,26.2c0,0.8-0.7,12.8-10.6,25.3 c-2.9,3.8-2.5,11.4-2.5,11.4l-11.3-0.1h-3.7l-11.3-0.1c0,0,0.6-7.6-2.2-11.5C105.5,444.8,105,432.9,105,432z"></path> <path class="st5" d="M130.6,469.1l-13.2-0.1c0,0,0.6-7.6-2.2-11.5c-9.7-12.7-10.2-24.7-10.2-25.5c0.1-14.3,11.8-25.8,26.2-25.7"></path> <path class="st4" d="M151.4,432.4h-2.3c0.1-10-7.9-18.2-18-18.3c0,0,0,0,0,0v-2.3C142.4,411.9,151.5,421.1,151.4,432.4L151.4,432.4 z"></path> <polygon class="st4" points="136.3,471.2 134,470.8 138.7,444 140.9,444.4 136.3,471.2 "></polygon> <polygon class="st4" points="124.9,471.1 120.7,444.2 123,443.9 127.2,470.7 124.9,471.1 "></polygon> <path class="st4" d="M139.7,447.8c-0.9,0-1.3-0.9-1.6-1.6c-0.1-0.3-0.4-0.9-0.5-0.9s-0.3,0.5-0.4,0.7c-0.3,0.7-0.7,1.7-1.8,1.7 c-0.6,0-1-0.7-1.5-1.4c-0.2-0.3-0.4-0.7-0.6-1c-0.2,0.3-0.4,0.5-0.5,0.8c-0.5,0.8-0.9,1.5-1.6,1.5s-1.1-0.7-1.6-1.5 c-0.2-0.3-0.3-0.6-0.6-0.9c-0.2,0.3-0.4,0.6-0.6,0.9c-0.5,0.8-0.9,1.5-1.6,1.5s-1.2-0.8-1.7-1.6c-0.1-0.3-0.3-0.5-0.5-0.8 c-0.2,0.1-0.3,0.3-0.5,0.9c-0.2,0.6-0.6,1.5-1.5,1.5v-1.2c0.1-0.1,0.3-0.5,0.4-0.7c0.3-0.7,0.7-1.7,1.8-1.7c0.6,0,1,0.7,1.5,1.4 c0.2,0.3,0.4,0.7,0.6,1c0.2-0.3,0.4-0.5,0.5-0.8c0.5-0.8,0.9-1.5,1.7-1.5s1.1,0.7,1.6,1.5c0.2,0.3,0.4,0.6,0.6,0.9 c0.2-0.3,0.4-0.6,0.6-0.9c0.5-0.8,0.9-1.5,1.6-1.5c0.7,0,1.2,0.8,1.7,1.6c0.1,0.3,0.3,0.5,0.5,0.8c0.2-0.1,0.3-0.3,0.5-0.9 c0.2-0.5,0.6-1.5,1.5-1.5s1.3,0.9,1.6,1.6c0.1,0.3,0.4,0.8,0.5,0.9L139.7,447.8L139.7,447.8z"></path> <path class="st11" d="M143.8,469.2l-0.1,13.6c0,0.9-0.8,1.7-1.7,1.7c0,0,0,0,0,0l-23-0.2c-0.9,0-1.7-0.8-1.7-1.7c0,0,0,0,0,0 l0.1-13.6L143.8,469.2z"></path> <line class="st13" x1="144.4" y1="470.5" x2="116.9" y2="470.3"></line> <path class="st4" d="M144.3,471.9l-27.5-0.3c-0.7,0-1.3-0.6-1.3-1.3c0-0.7,0.6-1.3,1.3-1.3l27.5,0.2c0.7,0,1.3,0.6,1.3,1.3 C145.7,471.2,145.1,471.8,144.3,471.9C144.4,471.8,144.3,471.8,144.3,471.9L144.3,471.9z"></path> <line class="st13" x1="144.3" y1="475" x2="116.8" y2="474.7"></line> <path class="st4" d="M144.3,476.3l-27.5-0.2c-0.7,0-1.3-0.6-1.3-1.3c0-0.7,0.6-1.3,1.3-1.3c0,0,0,0,0,0l27.5,0.2 c0.7,0,1.3,0.6,1.3,1.3C145.6,475.7,145,476.3,144.3,476.3C144.3,476.3,144.3,476.3,144.3,476.3z"></path> <line class="st13" x1="144.3" y1="479.4" x2="116.8" y2="479.2"></line> <path class="st4" d="M144.3,480.7l-27.5-0.2c-0.7,0-1.3-0.6-1.3-1.3c0-0.7,0.6-1.3,1.3-1.3c0,0,0,0,0,0l27.5,0.2 c0.7,0,1.3,0.6,1.3,1.3C145.6,480.1,145,480.7,144.3,480.7L144.3,480.7z"></path> </g> </svg> 