<?xml version="1.0" encoding="UTF-8"?> <!-- Generator: Adobe Illustrator 24.2.0, SVG Export Plug-In . SVG Version: 6.00 Build 0) --> <svg xmlns="http://www.w3.org/2000/svg" xmlns:xlink="http://www.w3.org/1999/xlink" version="1.1" id="Layer_1" x="0px" y="0px" viewBox="0 0 120 120" style="enable-background:new 0 0 120 120;" xml:space="preserve"> <style type="text/css"> .st0{fill:#94d341;} </style> <g id="Layer_1_15_"> <g> <path class="st0" d="M50,66.4l-5.5-14c-0.1-0.3-0.4-0.5-0.7-0.7c-0.8-0.4-1.7-0.1-2.1,0.7l-5.5,14c-0.2,0.7,0.2,1.4,0.8,1.7 c0.8,0.3,1.6,0,1.9-0.7l1.3-3.3h6l1.3,3.3c0.3,0.7,1.1,1.1,1.8,0.8C50,68,50.4,67.2,50,66.4z M41.2,61.3l2-4.9l1.9,4.9H41.2z"></path> </g> <g> <path class="st0" d="M62.7,55.7c0-2.3-1.9-4.2-4.2-4.2h-4.2c-0.8,0-1.4,0.6-1.4,1.4v14c0,0.8,0.6,1.4,1.4,1.4h4.2 c2.3,0,4.2-1.9,4.2-4.2v-1.4c0-1-0.4-2-1.1-2.8c0.7-0.8,1.1-1.8,1.1-2.8V55.7z M60,64.1c0,0.8-0.6,1.4-1.4,1.4h-2.8v-4.2h2.8 c0.8,0,1.4,0.6,1.4,1.4V64.1z M60,57.1c0,0.8-0.6,1.4-1.4,1.4h-2.8v-4.2h2.8c0.8,0,1.4,0.6,1.4,1.4V57.1z"></path> </g> <path class="st0" d="M69.9,65.5h5.5c0.8,0.1,1.4,0.7,1.3,1.5c-0.1,0.7-0.6,1.2-1.3,1.3h-5.5c-2.4,0-4.3-1.9-4.3-4.2v-8.4 c0-2.4,2-4.2,4.3-4.2h5.5c0.8,0.1,1.4,0.7,1.3,1.5c-0.1,0.7-0.6,1.2-1.3,1.3h-5.5c-0.8,0-1.5,0.6-1.5,1.4v8.4 C68.4,64.9,69.2,65.6,69.9,65.5z"></path> <path class="st0" d="M64.8,75.4H48.1c-0.8-0.1-1.5,0.5-1.5,1.3s0.5,1.5,1.3,1.5c0.1,0,0.2,0,0.2,0h16.8c0.8-0.1,1.4-0.7,1.3-1.5 C66.2,76,65.6,75.4,64.8,75.4z"></path> <path class="st0" d="M64.8,81H48.1c-0.8-0.1-1.5,0.5-1.5,1.3s0.5,1.5,1.3,1.5c0.1,0,0.2,0,0.2,0h16.8c0.8-0.1,1.4-0.7,1.3-1.5 C66.2,81.6,65.6,81,64.8,81z"></path> <path class="st0" d="M106.8,102H86.4c0.2-0.4,0.2-0.9,0.2-1.4h2.8c2.3,0,4.2-1.9,4.2-4.2V25.5c0-2.3-1.9-4.2-4.2-4.2l0,0H57.9 c-0.8-0.1-1.5,0.5-1.5,1.3c-0.1,0.8,0.5,1.5,1.3,1.5c0.1,0,0.2,0,0.2,0h31.6c0.8,0,1.4,0.6,1.4,1.4l0,0v70.9c0,0.8-0.6,1.4-1.4,1.4 h-2.8V29c0-0.8-0.6-1.4-1.4-1.4H34.1c-2.7,0.1-5-2-5.1-4.7s2-5,4.7-5.1c0.1,0,0.3,0,0.4,0h51.2c0.8,0,1.4-0.6,1.4-1.4 S86.1,15,85.2,15H34.1c-4.3,0-7.7,3.4-7.8,7.7v76.9c0,0.9,0.2,1.7,0.6,2.5H13.2c-0.8-0.1-1.5,0.4-1.6,1.2c-0.1,0.8,0.4,1.5,1.2,1.6 c0.1,0,0.3,0,0.4,0h93.7c0.8,0.1,1.5-0.4,1.6-1.2c0.1-0.8-0.4-1.5-1.2-1.6C107.1,102,106.9,102,106.8,102z M31.5,102 c-1.4,0-2.4-1.1-2.4-2.5V28.6c1.4,1.1,3.1,1.8,4.9,1.8h21v6.3c-0.1,0.8,0.5,1.5,1.3,1.5c0.8,0.1,1.5-0.5,1.5-1.3c0-0.1,0-0.2,0-0.2 v-6.3h26v70.2c0,0.8-0.6,1.4-1.4,1.4H31.5z"></path> </g> </svg> 