<?xml version="1.0" encoding="UTF-8"?> <svg xmlns="http://www.w3.org/2000/svg" xmlns:xlink="http://www.w3.org/1999/xlink" id="Layer_1" data-name="Layer 1" viewBox="0 0 708 200"><defs><style>.cls-1{fill:none;}.cls-2{fill:#fff;}.cls-3{fill:#5b5e88;}.cls-4{fill:#00a9e1;}.cls-5{clip-path:url(#clip-path);}.cls-6{fill:url(#linear-gradient);}.cls-7{clip-path:url(#clip-path-2);}.cls-8{fill:url(#linear-gradient-2);}.cls-9{clip-path:url(#clip-path-3);}.cls-10{fill:url(#linear-gradient-3);}.cls-11{clip-path:url(#clip-path-4);}.cls-12{fill:url(#linear-gradient-4);}.cls-13{clip-path:url(#clip-path-5);}.cls-14{fill:url(#linear-gradient-5);}.cls-15{clip-path:url(#clip-path-6);}.cls-16{fill:url(#linear-gradient-6);}.cls-17{clip-path:url(#clip-path-7);}.cls-18{fill:url(#linear-gradient-7);}.cls-19{clip-path:url(#clip-path-8);}.cls-20{fill:url(#linear-gradient-8);}.cls-21{clip-path:url(#clip-path-9);}.cls-22{fill:url(#linear-gradient-9);}.cls-23{clip-path:url(#clip-path-10);}.cls-24{fill:url(#linear-gradient-10);}.cls-25{clip-path:url(#clip-path-11);}.cls-26{fill:url(#linear-gradient-11);}.cls-27{clip-path:url(#clip-path-12);}.cls-28{fill:url(#linear-gradient-12);}.cls-29{fill:#76b751;}.cls-30{fill:#bad649;}.cls-31{fill:#9acb51;}.cls-32{fill:#95633b;}.cls-33{clip-path:url(#clip-path-13);}.cls-34{fill:url(#linear-gradient-13);}.cls-35{clip-path:url(#clip-path-14);}.cls-36{fill:url(#linear-gradient-14);}.cls-37{clip-path:url(#clip-path-15);}.cls-38{fill:url(#linear-gradient-15);}</style><clipPath id="clip-path"><polygon class="cls-1" points="23.77 135.13 49.74 109.66 78.42 112.86 53.29 70.02 23.77 135.13"></polygon></clipPath><linearGradient id="linear-gradient" x2="1" gradientTransform="matrix(0, 75.38, 75.38, 0, 43.11, 77.78)" gradientUnits="userSpaceOnUse"><stop offset="0" stop-color="#fff"></stop><stop offset="0.07" stop-color="#c6ecf8"></stop><stop offset="0.18" stop-color="#72cfee"></stop><stop offset="0.27" stop-color="#35bae7"></stop><stop offset="0.34" stop-color="#0eade3"></stop><stop offset="0.38" stop-color="#00a8e1"></stop><stop offset="1" stop-color="#00a8e1"></stop></linearGradient><clipPath id="clip-path-2"><polygon class="cls-1" points="69.99 121.81 124.98 117.59 120.26 80.3 69.99 121.81"></polygon></clipPath><linearGradient id="linear-gradient-2" gradientTransform="matrix(0, 47.08, 47.08, 0, 95.49, 90.35)" xlink:href="#linear-gradient"></linearGradient><clipPath id="clip-path-3"><path class="cls-1" d="M160.28,124.67c-9.54,2.72-16.2,8.7-14.87,13.36s10.14,6.24,19.68,3.51,16.21-8.7,14.87-13.36c-.88-3.11-5.1-4.84-10.65-4.84a33.52,33.52,0,0,0-9,1.33"></path></clipPath><linearGradient id="linear-gradient-3" gradientTransform="matrix(0, 33.54, 33.54, 0, 163.2, 117.43)" xlink:href="#linear-gradient"></linearGradient><clipPath id="clip-path-4"><polygon class="cls-1" points="209.16 82 214.73 113.37 254.04 72.88 209.16 82"></polygon></clipPath><linearGradient id="linear-gradient-4" gradientTransform="matrix(0, 50.25, 50.25, 0, 233.94, 70.63)" xlink:href="#linear-gradient"></linearGradient><clipPath id="clip-path-5"><polygon class="cls-1" points="271.75 67.49 267.37 170.73 280.86 63.43 271.75 67.49"></polygon></clipPath><linearGradient id="linear-gradient-5" x2="1" gradientTransform="matrix(0, 17.79, 17.79, 0, 274.12, 105.9)" gradientUnits="userSpaceOnUse"><stop offset="0" stop-color="#fff"></stop><stop offset="0.11" stop-color="#c6ecf8"></stop><stop offset="0.28" stop-color="#72cfee"></stop><stop offset="0.43" stop-color="#35bae7"></stop><stop offset="0.53" stop-color="#0eade3"></stop><stop offset="0.58" stop-color="#00a8e1"></stop><stop offset="0.64" stop-color="#00a8e1"></stop><stop offset="1" stop-color="#00a8e1"></stop></linearGradient><clipPath id="clip-path-6"><path class="cls-1" d="M310.9,105.44c-4.85.24-6.38,10.9-6.79,20.82s3.19,18.11,8,18.31,9.09-7.68,9.5-17.6c.4-9.71-.26-21.55-10.12-21.55l-.62,0"></path></clipPath><linearGradient id="linear-gradient-6" gradientTransform="matrix(0, 40.38, 40.38, 0, 312.83, 104.67)" xlink:href="#linear-gradient"></linearGradient><clipPath id="clip-path-7"><path class="cls-1" d="M340.94,90.92c-5.14,1.85-9.62,9.14-8.12,16.93s7.06,13.27,12.42,12.24,7.81-10,6.32-17.83c-1.2-6.21,1.14-12.73-4.52-12.73a19.09,19.09,0,0,0-6.1,1.39"></path></clipPath><linearGradient id="linear-gradient-7" gradientTransform="matrix(0, 33.14, 33.14, 0, 344.02, 91.23)" xlink:href="#linear-gradient"></linearGradient><clipPath id="clip-path-8"><polygon class="cls-1" points="340.36 171.47 370.45 176.11 349.66 162.01 340.36 171.47"></polygon></clipPath><linearGradient id="linear-gradient-8" gradientTransform="matrix(0, 20.94, 20.94, 0, 355.31, 161.39)" xlink:href="#linear-gradient"></linearGradient><clipPath id="clip-path-9"><path class="cls-1" d="M414.07,107.48c-8.41,5.26-13.15,12.86-10.57,17s11.47,3.16,19.88-2.1,13.14-12.87,10.57-17c-1.07-1.73-3.27-2.56-6.07-2.56-3.88,0-8.93,1.6-13.81,4.66"></path></clipPath><linearGradient id="linear-gradient-9" gradientTransform="matrix(0, 42.18, 42.18, 0, 419.14, 100.14)" xlink:href="#linear-gradient"></linearGradient><clipPath id="clip-path-10"><path class="cls-1" d="M500.88,104.5c-8.94,3.74-14.81,10.1-13.09,14.21s10.36,4.39,19.31.64,14.81-10.1,13.09-14.2c-.91-2.17-3.76-3.28-7.58-3.28a31.48,31.48,0,0,0-11.73,2.63"></path></clipPath><linearGradient id="linear-gradient-10" gradientTransform="matrix(15.4, 35.51, 37.84, -16.35, 498.55, 99.39)" xlink:href="#linear-gradient"></linearGradient><clipPath id="clip-path-11"><path class="cls-1" d="M649.48,96.85c-4.74,1.7-8.88,8.43-7.49,15.62s6.51,12.24,11.46,11.29,7.2-9.26,5.82-16.45c-1.1-5.73,1.06-11.75-4.17-11.75a17.69,17.69,0,0,0-5.62,1.29"></path></clipPath><linearGradient id="linear-gradient-11" gradientTransform="matrix(0, 30.58, 30.58, 0, 652.32, 97.13)" xlink:href="#linear-gradient"></linearGradient><clipPath id="clip-path-12"><polygon class="cls-1" points="649.39 168.41 677.15 172.7 657.97 159.69 649.39 168.41"></polygon></clipPath><linearGradient id="linear-gradient-12" gradientTransform="matrix(0, 19.33, 19.33, 0, 663.18, 159.11)" xlink:href="#linear-gradient"></linearGradient><clipPath id="clip-path-13"><path class="cls-1" d="M538.44,17.79c-8.94,3.74-14.88,9.92-13.25,13.81s10.19,4,19.14.26,14.89-9.93,13.25-13.81c-.82-2-3.48-3-7.07-3a32.52,32.52,0,0,0-12.07,2.74"></path></clipPath><linearGradient id="linear-gradient-13" x1="378.45" y1="779.04" x2="383" y2="779.04" gradientTransform="matrix(2.51, 5.8, 6.13, -2.64, -5185.97, -121.07)" gradientUnits="userSpaceOnUse"><stop offset="0" stop-color="#afd24d"></stop><stop offset="0.11" stop-color="#afd24d"></stop><stop offset="0.21" stop-color="#a4cd4e"></stop><stop offset="0.39" stop-color="#86bf50"></stop><stop offset="0.47" stop-color="#76b751"></stop><stop offset="1" stop-color="#76b751"></stop></linearGradient><clipPath id="clip-path-14"><path class="cls-1" d="M557.92,110.43c-5.21,8.22-4.6,16.9,1.37,19.4s15-2.12,20.23-10.33,4.6-16.89-1.36-19.4a9.23,9.23,0,0,0-3.57-.68c-5.61,0-12.42,4.31-16.67,11"></path></clipPath><linearGradient id="linear-gradient-14" x1="385.55" y1="767.31" x2="390.1" y2="767.31" gradientTransform="matrix(0, 4.88, 4.88, 0, -3175.44, -1779.98)" gradientUnits="userSpaceOnUse"><stop offset="0" stop-color="#bd7c39"></stop><stop offset="0.07" stop-color="#bd7c39"></stop><stop offset="0.6" stop-color="#95633b"></stop><stop offset="1" stop-color="#95633b"></stop></linearGradient><clipPath id="clip-path-15"><path class="cls-1" d="M570.23,119.13c-6.3,5.85-5,17.45,2.86,25.92s19.35,10.59,25.64,4.74,5-17.45-2.86-25.92c-4.87-5.23-11.11-8-16.66-8a12.93,12.93,0,0,0-9,3.3"></path></clipPath><linearGradient id="linear-gradient-15" x1="396.65" y1="798.18" x2="401.2" y2="798.18" gradientTransform="matrix(-14.2, 0, 0, 14.2, 6241.33, -11201.43)" gradientUnits="userSpaceOnUse"><stop offset="0" stop-color="#c48839"></stop><stop offset="0.07" stop-color="#c48839"></stop><stop offset="0.47" stop-color="#a9733a"></stop><stop offset="0.73" stop-color="#95633b"></stop><stop offset="1" stop-color="#95633b"></stop></linearGradient></defs><path class="cls-2" d="M706.7,164.2l-.21-.45a45.74,45.74,0,0,0-3.44-5.47c-2.16-3.68-6-8.7-11.61-15.36-9.72-11.37-17.67-20.58-23.57-27.3a8.37,8.37,0,0,1-.43-1.28q0-.51-.06-1a2.75,2.75,0,0,1,.92-.65,8.23,8.23,0,0,1,1.84-.2c1.52,0,5.91,1,13.65,10.37l4,4.84,8.78-10.55L694.78,114a30.72,30.72,0,0,0-2.44-3.67l-.17-.3a27.69,27.69,0,0,0-3.14-4.52c-5-5.93-10.18-10.37-15.45-13.19a31.05,31.05,0,0,0-14.71-3.39A36.78,36.78,0,0,0,648,90.39a20,20,0,0,0-9.39,6.66A85.51,85.51,0,0,0,627,73.33c-.85-1.37-1.75-2.74-2.74-4.16,1.72-3.5,4.26-4,9.12-4.57a28.12,28.12,0,0,0,7.06-1.51C655,57.3,656.41,40.9,657.08,33c.25-3,1.43-4.44,3.5-4.44,1.8,0,3.92,1,6,2.76l11.17,9.56-2.66-14.46a27,27,0,0,0-5.32-11.31C665.74,7.8,657.21,0,645.28,0a30.8,30.8,0,0,0-12.52,2.8C618.89,9,610.91,21.21,609.46,38.46a45.61,45.61,0,0,0-3.86-6.22c-8.69-14.76-24.55-23.55-43.51-24.13-.84,0-1.67,0-2.49,0-41.7,0-49.07,32.86-49.14,33.19l-2.77,17.27S522,46,530.12,46.64a20.64,20.64,0,0,1,5.69,1.11,14.91,14.91,0,0,1,7.25,5.88c.88,1.4,1.8,2.85,2.83,4.32,2.81,4.46,6.66,10.57,14.55,15.77A38.29,38.29,0,0,0,581.89,80a50.64,50.64,0,0,0,20.62-4.67l5.39-2.83A150.43,150.43,0,0,1,615,109.78a60,60,0,0,0-6.12-7.2c-6.63-6.69-17.47-10.68-29-10.68-13.72,0-28.6,6.1-33.49,19.57a19.18,19.18,0,0,0-3.07-5c-4-8.07-13.12-12.69-25.07-12.69-12.59,0-25.9,5.25-34.71,13.71-11.72,11.23-16.45,28.12-12.42,42.7l-5-4.6L463,147.09c-5.17,2.39-9.34,4.2-12.39,5.39l-1.51.59c.94-.92,1.81-1.84,2.63-2.77a56.07,56.07,0,0,0,11.21-18.63c3.1-8.91,2.36-16.78-2.18-23.41-.35-.52-.74-1-1.18-1.57a22.68,22.68,0,0,0-1.42-2.4c-5.44-7.94-14-11.42-25.45-10.3a51.57,51.57,0,0,0-24.23,9.09A56.12,56.12,0,0,0,391,121.41a39,39,0,0,0-4.59,22.5l-10.12-12.78L392.6,114l-1.73-3.31a30.62,30.62,0,0,0-3.13-4.94,27.56,27.56,0,0,0-2.75-4.13c-5.27-6.81-10.81-11.94-16.48-15.25a33.07,33.07,0,0,0-15.91-4.18,38.6,38.6,0,0,0-11.91,1.34,21.75,21.75,0,0,0-10.63,7.52,21.11,21.11,0,0,0-4.85,10.41c-2.12-3.27-6.26-4.93-12.34-4.93a22.21,22.21,0,0,0-15.55,6.36c-2.9,2.8-4.95,4.79-6.24,6.08-.59.57-1.19,1.18-1.8,1.84l1.56-56.9-2.76,1.63.16-5.59L263.79,64.55l.08-1.31L200,76.26,206.12,108a49.73,49.73,0,0,0-6-6.11c-9.62-8.11-23-14.35-39.71-18.56-6-1.49-8-1.79-9.27-1.79h-6.52l5.48,24.15,1.77.3.83,3.66,3.43.58c5.65,1,10.12,1.82,13.27,2.56.91.21,1.79.42,2.66.64a51,51,0,0,0-7.51,1.31,56,56,0,0,0-19.77,9,30.38,30.38,0,0,0-8,8.43L129.47,68.5l-2,1.7-.64-5.66L82.79,102.72c-5-8.55-10.14-17.79-15.46-27.49-1.61-2.9-3.84-7.14-6.62-12.59l-5-9.73-.27.61-2.33-4.58L.08,168.3l3.57,1.79-1,2.17,4.49,2.25L19.27,180l2.42-3.79c7-10.93,17.06-27.37,23.07-37.23L74,181l37.78-30.7L123.42,196l1.51-.32L126,200l18-3.8-3.94-34.45a32,32,0,0,0,11,9.38,51.67,51.67,0,0,0,25.13,6.2,59.58,59.58,0,0,0,18.66-2.71l-.86,3.13,3.93-.88-1.33,4.85,24.13-5.43V142.13l0-.47a60.25,60.25,0,0,0-3.79-15.9l7-.29-.31,60.94,2.62-.53,0,4.49,6.27-1.25c1.87-.38,13.67-2.92,15.84-3.64l4-1.33-6.44-60.75L262,122.07l-3.23,64.17,2.88-1.6-.28,5.56,25.15-13.91,7.07-40.18,3.59-3.87v56.54l2.6-1.28v5.24l28.5-14,1.53-21.3c.87-12.28,1.31-23,1.31-31.77,0-2.13-.05-4.1-.16-5.94q.28.42.6.84a53.73,53.73,0,0,0,4.54,6.51c1.65,2.06,5.09,5.79,10.51,11.39L358,150.25c7.72,8.08,13.17,14,16.2,17.63a11,11,0,0,1,.52,1.53h-.19a7.11,7.11,0,0,1-1.27-.11l-.25-.06c-.67-.3-3.14-1.55-10.71-6.6-2.9-1.89-6.41-4.31-10.46-7.2L348,152.65l-17.62,21,3.59,2.78-1,1.18,4.28,3.32c6,4.66,23.3,11.12,40.07,11.12a52.43,52.43,0,0,0,9.92-.89c7.51-1.44,15.48-6.77,16.37-15.39a16.66,16.66,0,0,0-.33-5.37A50.83,50.83,0,0,0,429.62,181c12.54,1.25,27.06-1.15,43.25-7.14,5.75-2.13,7.62-3.05,8.67-3.76l.82-.56a33.77,33.77,0,0,0,8.43,6.44c5.3,2.85,11.88,4.29,19.54,4.29,14.31,0,30.69-5.18,41.71-13.22l2.7-2L551,146.57a71.94,71.94,0,0,0,5.8,9.75c9.21,15.1,22.28,24.48,34.1,24.48a22.09,22.09,0,0,0,8.45-1.65,25.34,25.34,0,0,0,8.14-5.05c16.42-1.58,28.46-13,32.25-30.53A109.87,109.87,0,0,0,642,127c.84,1.15,1.78,2.32,2.8,3.49,1.53,1.77,4.75,5,9.83,9.84l10.6,10.12c7,6.72,11.94,11.72,14.81,14.86l-.34,0-.18,0c-.63-.26-2.9-1.32-9.78-5.54-2.67-1.6-5.91-3.65-9.63-6.1L656.18,151l-17.77,21.18L647.1,178c6.09,4.36,21.75,9,35.35,9A51,51,0,0,0,693,186c7-1.48,14.26-6.53,14.89-14.48a16.08,16.08,0,0,0-1.17-7.27"></path><path class="cls-3" d="M83.87,114.88Q73.9,98,62.78,77.75,60.32,73.34,56.07,65L9.46,169.83l1.31.66,6.53,2.92c10.27-16.06,27.16-44,27.16-44l30.59,44,41-33.36,13.75,53.8,8.5-1.79L125.42,78.9Z"></path><path class="cls-3" d="M199.34,109.81q-13.58-11.44-37.62-17.5a50.68,50.68,0,0,0-8-1.63L157,105.07q8.66,1.47,13.57,2.61Q184.62,111,192,115.37q8.82,5.23,12.1,12.1a20.28,20.28,0,0,0-8-3.1,61.78,61.78,0,0,0-14.71-2.13,52.13,52.13,0,0,0-12.93,1.47,50.79,50.79,0,0,0-18,8.18q-9.33,6.87-9.33,16.35,0,11.46,12.47,18.33a46.42,46.42,0,0,0,22.62,5.56q13.44,0,22.46-4.75a38.31,38.31,0,0,0,9-6.38l-3.76,13.74,11.61-2.61V142.19q-2.13-20.44-16.19-32.38m-5.89,54.3a27.28,27.28,0,0,1-13.08,3.43q-12.76,0-12.76-8.83a11.46,11.46,0,0,1,4.41-9,22.62,22.62,0,0,1,9.33-4.42,26.39,26.39,0,0,1,3.59-.65h2.46q11.61,0,13.41,7a9.1,9.1,0,0,1,.33,2.12q0,6.22-7.69,10.31"></path><path class="cls-3" d="M215.71,120.61l16-.68L231.4,184c2.72-.55,13.6-2.93,15.23-3.48l-6.55-61.89,18-1.47,2.78-43.5L208.67,84.3Z"></path><path class="cls-3" d="M315.47,105.72a17,17,0,0,0-11.94,4.91q-4.25,4.09-6.21,6.05-6.22,6.06-13.9,18.16l2-71.64-12.75,7.52-5.57,110.4,14.78-8.18,6.91-39.25L305,116.19v68.2l18.31-9,1.31-18.32q1.31-18.32,1.31-31.4,0-11.13-2.13-16.68-1.31-3.28-8.34-3.28"></path><path class="cls-3" d="M385.12,151.32q-15.56-19.68-25.35-31.81-4.54-5.87-4.42-10.69c.08-2.84,1.75-5,5-6.37a14.94,14.94,0,0,1,4-.45c5.53.14,12.7,7.35,13.67,19.77l8.23-8.65a25,25,0,0,0-2.78-4.33q-7.34-9.47-15-13.92a27.76,27.76,0,0,0-13.44-3.49,33.5,33.5,0,0,0-10.3,1.13,16.58,16.58,0,0,0-8.08,5.83,15.23,15.23,0,0,0-3.85,9.36,10.79,10.79,0,0,0,.46,3.35q.94,5.42,6.89,12.79,2.28,2.84,10.18,11l11.42,11.79q15.65,16.35,18.78,20.88c1.94,3.77,2.54,6.5,1.77,8.21-.89,2-2.66,2.9-5.3,2.84a11.41,11.41,0,0,1-2.33-.25q-1.63,0-12.62-7.37c-3-1.92-6.51-4.37-10.64-7.32l-11,13.16c6.54,5.06,29,12.48,45.82,9.24,5.79-1.12,11.57-5,12.17-10.83a12.79,12.79,0,0,0-.76-5.58q-2.75-5.82-12.52-18.31"></path><path class="cls-3" d="M701.87,166.14q-2.62-5.07-11.78-15.87-14.55-17-23.71-27.47c-2.37-2.82-3.73-5.45-4.12-7.88,0-.58-.06-1.15-.12-1.72.11-2.37,1.57-4.19,4.4-5.45a13.52,13.52,0,0,1,3.6-.49q7.51,0,17.66,12.27l2.46-3a23.23,23.23,0,0,0-2.62-3.76q-6.87-8.17-13.9-11.94a25.83,25.83,0,0,0-12.27-2.78,31.33,31.33,0,0,0-9.32,1.23,15.18,15.18,0,0,0-7.2,5.31,13.29,13.29,0,0,0-3.27,8.34,9.55,9.55,0,0,0,.49,3q1,4.74,6.54,11.12,2.13,2.46,9.49,9.48l10.63,10.14q14.55,14.07,17.5,18,2.77,4.92,1.8,7.2c-.76,1.75-2.35,2.61-4.74,2.61a11.2,11.2,0,0,1-2.13-.16c-1,0-4.85-2.06-11.61-6.21q-4.1-2.46-9.81-6.22l-9.72,11.84c6,4.32,26.6,10.36,41.77,7.14,5.22-1.12,10.39-4.72,10.79-9.81a11,11,0,0,0-.81-4.91"></path><path class="cls-3" d="M493.36,159.64s50.39-8.63,49.49-40.14c-.6-21.26-35.39-21.26-53.13-4.25S474,161,493.26,171.39c14.68,7.9,41,2.16,55.71-8.55l-2.82-13.76c-17,17.8-45.21,20.89-52.79,10.56m-.79-13.35a10.28,10.28,0,0,1-.5-9,20.32,20.32,0,0,1,5.38-7.59,22.44,22.44,0,0,1,2.55-2.1l1.93-1.08a25.54,25.54,0,0,1,3.9-1.81c.45-.13.9-.28,1.36-.43q5.28-1.4,8.39,1.85a9.36,9.36,0,0,1,1.2,1.53q2.75,4.89-1.51,11.5a24.49,24.49,0,0,1-8.78,8.47q-10,5.63-13.92-1.32"></path><path class="cls-3" d="M455.08,161.29q-13.45,5.27-22,5.78-10.26.68-16.83-3.14a20.26,20.26,0,0,0,8.37-2A62.49,62.49,0,0,0,438,155.39a52,52,0,0,0,9.83-8.52A50.74,50.74,0,0,0,458,130q3.81-10.94-1.55-18.76-6.48-9.45-20.64-8.07A46.32,46.32,0,0,0,414,111.34,50.54,50.54,0,0,0,398.15,128c-4.06,7.13-7,20.9.32,30.31a45.6,45.6,0,0,0,31.67,17.55q17.67,1.78,40.92-6.82a49.44,49.44,0,0,0,7.53-3.19l-10.83-10q-8,3.69-12.68,5.51m-37.94-22A27.32,27.32,0,0,1,426,129q10.53-7.2,15.52.08A11.47,11.47,0,0,1,443,139a22.49,22.49,0,0,1-5.19,8.91,27.83,27.83,0,0,1-2.6,2.57l-2,1.39q-9.58,6.56-15,1.78a8.71,8.71,0,0,1-1.47-1.57q-3.51-5.13.51-12.84"></path><path class="cls-3" d="M537.63,42.88c12.45,4.64,11.31,17,25.68,26.5,14.11,9.3,31.25,5.15,41.9-1.35h0l.46-.3.11-.06s0,0,0,0l.17-.11.56-1c8.32-13.92-4.61-48.13-42-49.27-40-1.22-46.38,29-46.38,29s7-8.07,19.47-3.42"></path><path class="cls-3" d="M651.89,32.58c.83-9.74,9.89-12.21,18.08-5.19-1.73-9.41-14.28-23.94-32.5-15.87-15.33,6.8-22,22.08-20.17,43.49v.06h0a2.64,2.64,0,0,0,0,.28,49.85,49.85,0,0,0,.54,5l.33,2c0,.15,0,.3.07.45l.35,2.1.51,2.42c0,.14,0,.27.07.41,4.19-9.92,13.51-7.2,19.34-9.52,10.65-4.24,12.53-15.94,13.35-25.67"></path><path class="cls-3" d="M620.71,136.65c0-8.18-4.4-17.81-13-26.44C593,95.31,554.88,98,552.63,122.88s24.28,59.83,44.69,51.45c3.89-1.59,6.2-3.38,7.68-5.28,11.9-.5,25.41-7.17,29.6-26.58,9.41-43.71-11.18-66.72-24.45-81.76,11.75,27.09,15.66,58.7,10.56,75.94"></path><path class="cls-4" d="M127.23,189.91,113.49,136.1l-41,33.37-30.58-44S25,153.39,14.7,169.45l-6.54-2.92-1.31-.66L53.47,61q4.24,8.34,6.71,12.76Q71.3,94.07,81.27,110.92l41.54-36,12.93,113.17Z"></path><path class="cls-4" d="M173.6,168.16A46.35,46.35,0,0,1,151,162.6q-12.47-6.87-12.46-18.32,0-9.48,9.33-16.35a50.61,50.61,0,0,1,18-8.18,52,52,0,0,1,12.92-1.47,61.78,61.78,0,0,1,14.72,2.12,20.3,20.3,0,0,1,8,3.11q-3.27-6.87-12.1-12.1Q182,107,168,103.72c-3.27-.76-7.8-1.64-13.58-2.61l-3.27-14.4a51,51,0,0,1,8,1.64q24,6,37.61,17.5,14.07,11.94,16.2,32.38v29.93l-11.62,2.61L205.08,157a38.6,38.6,0,0,1-9,6.38q-9,4.74-22.46,4.74m5.14-26.82a22.5,22.5,0,0,0-9.32,4.41,11.48,11.48,0,0,0-4.42,9q0,8.83,12.76,8.83a27.32,27.32,0,0,0,13.09-3.43q7.68-4.1,7.68-10.31a9.55,9.55,0,0,0-.32-2.12q-1.8-7-13.41-7h-2.45a25.27,25.27,0,0,0-3.61.66"></path><path class="cls-4" d="M255.46,113.21l-18,1.47L244,176.57c-1.64.54-12.51,2.93-15.23,3.48l.33-64.08-16,.67-7-36.31L258.24,69.7Z"></path><path class="cls-4" d="M320.72,171.43l-18.32,9v-68.2l-16.26,17.51L279.24,169l-14.78,8.18L270,66.76l12.75-7.52-2,71.63q7.69-12.11,13.91-18.15,2-2,6.21-6.06a17,17,0,0,1,11.94-4.9q7,0,8.34,3.27,2.13,5.56,2.12,16.68,0,13.1-1.3,31.4Z"></path><path class="cls-4" d="M383.63,182.08c-16.82,3.24-39.29-4.18-45.82-9.25l11-13.15q6.19,4.42,10.63,7.32,11,7.32,12.62,7.37a11.62,11.62,0,0,0,2.34.24c2.64.07,4.41-.88,5.3-2.83q1.14-2.58-1.78-8.21-3.13-4.53-18.77-20.88L347.77,130.9q-7.92-8.18-10.18-11-6-7.39-6.89-12.8a10.43,10.43,0,0,1-.46-3.35,15.29,15.29,0,0,1,3.84-9.36,16.8,16.8,0,0,1,8.08-5.83,33.87,33.87,0,0,1,10.31-1.13A27.84,27.84,0,0,1,365.9,90.9q7.65,4.45,15,13.93a25,25,0,0,1,2.78,4.33l-8.23,8.65c-1-12.43-8.15-19.64-13.67-19.78a14.67,14.67,0,0,0-4,.46c-3.28,1.4-5,3.53-5,6.37q-.12,4.83,4.42,10.69,9.79,12.11,25.35,31.8,9.78,12.5,12.52,18.32a12.77,12.77,0,0,1,.76,5.58c-.6,5.77-6.38,9.71-12.17,10.83"></path><path class="cls-4" d="M689.29,176.89c-15.18,3.23-35.72-2.82-41.77-7.13l9.71-11.84q5.73,3.77,9.82,6.21c6.76,4.15,10.62,6.22,11.61,6.22a11.08,11.08,0,0,0,2.12.16q3.6,0,4.75-2.62,1-2.28-1.81-7.19-2.93-3.93-17.49-18L655.6,132.57q-7.36-7-9.49-9.49-5.57-6.37-6.54-11.12a9.16,9.16,0,0,1-.49-2.94,13.19,13.19,0,0,1,3.27-8.34,15.14,15.14,0,0,1,7.2-5.32,31.28,31.28,0,0,1,9.32-1.23,25.68,25.68,0,0,1,12.26,2.79q7,3.77,13.91,11.93a22.74,22.74,0,0,1,2.61,3.77l-2.45,2.94q-10.14-12.27-17.66-12.27a13.48,13.48,0,0,0-3.6.5q-4.43,2-4.42,5.72,0,4.26,4.26,9.32,9.15,10.47,23.71,27.47,9.15,10.81,11.77,15.87a11,11,0,0,1,.82,4.91c-.41,5.1-5.57,8.7-10.79,9.81"></path><path class="cls-4" d="M543.55,145.12c-17,17.79-45.21,20.88-52.8,10.55,0,0,50.4-8.62,49.5-40.14-.6-21.25-35.39-21.25-53.13-4.25s-15.77,45.76,3.54,56.15c14.68,7.89,41,2.16,55.71-8.55ZM490,142.33a10.34,10.34,0,0,1-.49-9,20.29,20.29,0,0,1,5.38-7.58,21.53,21.53,0,0,1,2.55-2.1l1.92-1.09q9.14-5.11,13.65-.38a8.14,8.14,0,0,1,1.2,1.53q2.75,4.89-1.5,11.49a24.6,24.6,0,0,1-8.78,8.48q-10,5.63-13.93-1.32"></path><path class="cls-4" d="M411.39,107.37a46.37,46.37,0,0,1,21.81-8.2q14.16-1.38,20.63,8.07,5.35,7.8,1.56,18.75a50.87,50.87,0,0,1-10.21,16.92,52.32,52.32,0,0,1-9.83,8.52A62.36,62.36,0,0,1,422,158a20.18,20.18,0,0,1-8.37,2q6.6,3.82,16.83,3.15,8.57-.53,22-5.78,4.69-1.83,12.68-5.52l10.83,10a52.13,52.13,0,0,1-7.53,3.18q-23.26,8.59-40.92,6.83a45.64,45.64,0,0,1-31.67-17.56c-7.33-9.4-4.38-23.18-.32-30.31a50.73,50.73,0,0,1,15.84-16.61M435.16,144a22.61,22.61,0,0,0,5.19-8.91,11.51,11.51,0,0,0-1.44-9.92q-5-7.29-15.52-.07a27.2,27.2,0,0,0-8.85,10.23q-4,7.71-.52,12.84a8.86,8.86,0,0,0,1.48,1.58q5.46,4.77,15-1.79l2-1.38a27.16,27.16,0,0,0,2.6-2.58"></path><g class="cls-5"><rect class="cls-6" x="8.59" y="60.78" width="85.01" height="83.58" transform="translate(-60.57 76.83) rotate(-50.54)"></rect></g><g class="cls-7"><rect class="cls-8" x="63.16" y="68.83" width="68.66" height="64.45" transform="translate(-38.89 67.65) rotate(-32.27)"></rect></g><g class="cls-9"><rect class="cls-10" x="142.48" y="112.95" width="40.42" height="41.69" transform="translate(-45.51 165.83) rotate(-48.18)"></rect></g><g class="cls-11"><rect class="cls-12" x="201.76" y="63.94" width="59.67" height="58.38" transform="translate(-13.4 140.92) rotate(-32.94)"></rect></g><g class="cls-13"><rect class="cls-14" x="220.07" y="105.28" width="108.09" height="23.6" transform="translate(131.58 378.86) rotate(-84.56)"></rect></g><g class="cls-15"><rect class="cls-16" x="291.2" y="107.71" width="43.34" height="34.76" transform="translate(54.67 341.59) rotate(-61.77)"></rect></g><g class="cls-17"><rect class="cls-18" x="323.11" y="88.19" width="38.15" height="34.27" transform="translate(84.95 354.35) rotate(-61.18)"></rect></g><g class="cls-19"><rect class="cls-20" x="340.22" y="161.7" width="30.38" height="14.72" transform="translate(-3.44 7.44) rotate(-1.19)"></rect></g><g class="cls-21"><rect class="cls-22" x="396.79" y="95.23" width="43.86" height="40.91" transform="matrix(0.84, -0.54, 0.54, 0.84, 4, 244.98)"></rect></g><g class="cls-23"><polygon class="cls-24" points="516.25 88.84 529.66 119.75 491.73 136.13 478.32 105.22 516.25 88.84"></polygon></g><g class="cls-25"><rect class="cls-26" x="633.03" y="94.33" width="35.2" height="31.62" transform="translate(240.47 627.07) rotate(-61.18)"></rect></g><g class="cls-27"><rect class="cls-28" x="649.25" y="159.4" width="28.03" height="13.59" transform="matrix(1, -0.02, 0.02, 1, -3.32, 13.84)"></rect></g><path class="cls-29" d="M603.18,63.71c-10.59,6.7-28.11,11.17-42.47,1.7S547.48,43.55,535,38.91s-19.48,3.42-19.48,3.42,6.34-30.23,46.38-29c38.42,1.17,51,37.3,41.25,50.4"></path><path class="cls-29" d="M616.6,63.81c-6-28.13,0-48.17,18.27-56.25s30.76,6.45,32.5,15.86c-8.2-7-17.25-4.55-18.08,5.19s-2.7,21.44-13.35,25.67c-5.84,2.33-15.15-.39-19.34,9.53"></path><path class="cls-30" d="M618.16,41c2.63-9.25,8.43-18.91,20.8-23.86l-.31-.39c-21.8,8.74-24.22,25.18-24,34,0,.14,0,.28,0,.39h0a50.32,50.32,0,0,0,.55,5.31L616,61l.58,2.81a57.54,57.54,0,0,1-.29-12.37l.24-1.42c0-.48,1-13.62,18.2-19.54l-.15-.23c-8.75,2.67-13.68,6.83-16.44,10.77"></path><path class="cls-30" d="M595.33,48.07c-.67-3-2-8.62-2.36-9.41l-.49,0a46.12,46.12,0,0,1,.83,7A42.33,42.33,0,0,0,585,38.52c-7-13.74-12.35-16.16-12.57-16.26l-.12.13a37.53,37.53,0,0,1,9.82,14.43c-7.57-4.11-17.53-6.61-31.74-7.52l0,.2C565,31,575.23,34.42,583,39.73l0,.12.08,0a50.57,50.57,0,0,1,13.06,13.34c-9.6-4.15-22.21-1-23.92,0l.43.24c1-.53,16.78-2.71,25.87,3.47,1.25,2,2.46,4.17,3.67,6.42l.35.85.75-.49.82-1.47a91.4,91.4,0,0,0-8.85-14"></path><path class="cls-31" d="M607.55,56.74c13.26,15.05,33.86,38.05,24.44,81.77-7,32.55-40.3,29.3-48.15,21.08-11-12.48,3.89-12.15,22.6-14.11s17.9-50,1.11-88.74"></path><path class="cls-32" d="M611.18,147.28c-10,7.48-1.15,16.8-16.46,23.09-20.41,8.37-46.94-26.59-44.69-51.46s40.36-27.56,55.12-12.67,17.12,32.79,6,41"></path><g class="cls-33"><polygon class="cls-34" points="553.6 2.09 566.71 32.36 529.18 48.56 516.07 18.29 553.6 2.09"></polygon></g><g class="cls-35"><rect class="cls-36" x="546.53" y="93.53" width="44.39" height="44.69" transform="translate(21.28 308.7) rotate(-30.92)"></rect></g><g class="cls-37"><rect class="cls-38" x="558.85" y="109.72" width="51.25" height="52.02" transform="translate(261.09 641.16) rotate(-70.46)"></rect></g></svg> 