<?xml version="1.0" encoding="UTF-8"?> <svg xmlns="http://www.w3.org/2000/svg" id="Layer_1" data-name="Layer 1" viewBox="0 0 536 200"><defs><style>.cls-1{fill:#fff;}.cls-2{fill:#00b2ea;}</style></defs><path class="cls-1" d="M528,17.07A35.16,35.16,0,0,0,517.63,7C508.17.9,497.42,0,491.81,0c-1.68,0-2.85.08-3.34.12L243.36,11.67c-107.93,5.08-209.88,9.88-212.95,10-3.52.14-14.24.57-22.82,12.41C-2.82,48.43.36,65.14,1.12,68.42L9,120.16l3.3,21.49c.61,3.93,2.05,13.13,11,23.71,10.12,12,22.37,13.44,24,13.58l212.81,11.82,32,1.77C426.51,200,427.79,200,428.5,200l2,0c11.45,0,23.41-3.61,35.53-10.74a69.44,69.44,0,0,0,27.69-30.84c13.38-34.17,38.93-99.35,39.8-101.49.09-.19,8-19.58-5.54-39.86"></path><path class="cls-2" d="M520.94,21.27a27,27,0,0,0-8-7.8c-7.77-5-16.89-5.66-21.4-5.66h0c-1.74,0-2.78.11-2.78.11L253.64,19l-4.8.22-1.77.09C138.43,24.42,33.57,29.35,30.69,29.47s-10.37.17-16.83,9.08c-9.2,12.66-5.06,28-5.06,28L10.55,78l6.22,40.64,3.14,20.53c.49,2.62,1,10.87,9.29,20.65S47.46,170.5,47.46,170.5s110.76,6.16,212.81,11.81l22.4,1.24,9.57.53c73.13,4,134.58,7.42,136,7.44l2,0c5.08,0,16.23-.7,31.4-9.62a61.13,61.13,0,0,0,24.24-26.79S525,55.21,525.75,53.45s5.58-16.64-4.81-32.18"></path><path class="cls-1" d="M109.89,60.17a3,3,0,0,1,2.94-2,2.93,2.93,0,0,1,3,3.06v65.66a2.92,2.92,0,0,1-3,3,3,3,0,0,1-2.94-3V73.22L84.32,128a3.23,3.23,0,0,1-5.89,0L52.85,73.22v53.67a3,3,0,0,1-2.94,3,2.93,2.93,0,0,1-3-3V61.23a3.1,3.1,0,0,1,6-1.06L81.37,121.1Z"></path><path class="cls-1" d="M110.79,69.16v57.72a2.08,2.08,0,0,0,2,2.16,2,2,0,0,0,2.16-2.16V61.22a2,2,0,0,0-2.16-2.15c-1.06,0-1.56.35-2.14,1.5L81.38,123.22,52,60.55c-.56-1.13-1.07-1.48-2.13-1.48a2,2,0,0,0-2.15,2.15v65.66A2,2,0,0,0,49.91,129,2.09,2.09,0,0,0,52,126.88V69.16l27.28,58.5a2.34,2.34,0,0,0,4.26,0Zm2,61.68a3.86,3.86,0,0,1-3.84-4V77.28L85.13,128.42a4.13,4.13,0,0,1-7.52,0L53.75,77.28v49.6a3.9,3.9,0,1,1-7.79,0V61.22a3.82,3.82,0,0,1,3.95-3.95,3.87,3.87,0,0,1,3.75,2.5L81.38,119l27.69-59.18a3.9,3.9,0,0,1,3.76-2.52,3.83,3.83,0,0,1,4,3.95v65.66a3.83,3.83,0,0,1-4,4"></path><path class="cls-1" d="M151.24,87.64c-10.74,0-17.89,8-17.89,18.62s7.05,18.62,17.89,18.62c10.2,0,17.57-8.52,17.57-18.62,0-10.73-7.26-18.62-17.57-18.62m23.88,39.14a3.16,3.16,0,1,1-6.31,0v-5.47c-3.79,5.57-9.89,9-17.79,9-15.36,0-23.88-11.25-23.88-24.09,0-14.63,10.73-24.1,24.1-24.1,13.57,0,23.88,9.69,23.88,24.21Z"></path><path class="cls-1" d="M151.24,88.54c-10,0-17,7.28-17,17.72s7,17.73,17,17.73c9.35,0,16.67-7.79,16.67-17.73,0-10.27-7-17.72-16.67-17.72m0,37.25c-11.06,0-18.79-8-18.79-19.53,0-11.31,7.9-19.52,18.79-19.52,10.7,0,18.47,8.21,18.47,19.52,0,10.95-8.12,19.53-18.47,19.53m0-42.72c-13.44,0-23.2,9.75-23.2,23.19,0,11.17,7.2,23.2,23,23.2,7.19,0,13.24-3.08,17-8.66l1.65-2.42v8.4a2.26,2.26,0,1,0,4.51,0V106.37c0-13.72-9.45-23.3-23-23.3M151,131.26c-17,0-24.79-13-24.79-25,0-14.48,10.51-25,25-25S176,91.82,176,106.37v20.41a4.06,4.06,0,0,1-8.11,0v-2.84A21.81,21.81,0,0,1,151,131.26"></path><path class="cls-1" d="M208,83.43a2.63,2.63,0,1,1,0,5.26H197.32v38.09a3.16,3.16,0,1,1-6.31,0V88.69h-9.37a2.63,2.63,0,0,1,0-5.26H191V68.7a3.16,3.16,0,1,1,6.31,0V83.43Z"></path><path class="cls-1" d="M181.64,84.32a1.74,1.74,0,0,0,0,3.47h10.27v39a2.26,2.26,0,1,0,4.52,0v-39H208a1.74,1.74,0,0,0,0-3.47H196.43V68.7a2.26,2.26,0,0,0-4.52,0V84.32Zm12.53,46.52a4,4,0,0,1-4.06-4.06V89.59h-8.47a3.53,3.53,0,0,1,0-7.06h8.47V68.7a4.06,4.06,0,1,1,8.11,0V82.53H208a3.53,3.53,0,0,1,0,7.06h-9.73v37.19a4,4,0,0,1-4.05,4.06"></path><path class="cls-1" d="M258.46,126.78a3.16,3.16,0,1,1-6.31,0V103.42c0-9.47-5-15.47-14.74-15.47-8.94,0-15.78,6.53-15.78,16.84v22a3.16,3.16,0,1,1-6.31,0V61.33a3.16,3.16,0,1,1,6.31,0V91.21c3.37-5.78,9.47-9,17.15-9,12.21,0,19.68,9,19.68,21.16Z"></path><path class="cls-1" d="M237.41,87.05c9.94,0,15.63,6,15.63,16.37v23.36a2.26,2.26,0,1,0,4.52,0V103.32c0-12.12-7.55-20.26-18.78-20.26-7.33,0-13.15,3.06-16.37,8.61l-1.68,2.88V61.33a2.26,2.26,0,1,0-4.51,0v65.45a2.26,2.26,0,1,0,4.51,0v-22c0-10.44,6.86-17.74,16.68-17.74m17.89,43.79a4,4,0,0,1-4.06-4.06V103.42c0-9.39-4.91-14.57-13.83-14.57-8.76,0-14.88,6.55-14.88,15.94v22a4.06,4.06,0,1,1-8.11,0V61.33a4.06,4.06,0,1,1,8.11,0v27c3.72-4.58,9.38-7.06,16.25-7.06,12.31,0,20.58,8.86,20.58,22v23.46a4,4,0,0,1-4.06,4.06"></path><path class="cls-1" d="M273.71,129.94a3.1,3.1,0,0,1-3.16-3.16V61.33a3.16,3.16,0,0,1,6.32,0v65.45a3.1,3.1,0,0,1-3.16,3.16"></path><path class="cls-1" d="M273.71,59.07a2.21,2.21,0,0,0-2.26,2.26v65.45a2.26,2.26,0,1,0,4.52,0V61.33a2.21,2.21,0,0,0-2.26-2.26m0,71.77a4,4,0,0,1-4.06-4.06V61.33a4.06,4.06,0,0,1,8.12,0v65.45a4,4,0,0,1-4.06,4.06"></path><path class="cls-1" d="M310,87.43c-9.26,0-16,7-16.84,15.67h33.15c-.84-8.83-7.26-15.67-16.31-15.67m22.1,18.31a2.67,2.67,0,0,1-2.63,2.63H293c.32,8.41,6.64,16.62,17.68,16.62A17.54,17.54,0,0,0,325,118.36a3.17,3.17,0,0,1,2.43-1.37,2.55,2.55,0,0,1,2.63,2.64,3.17,3.17,0,0,1-.64,1.89c-3.57,5-10.41,8.84-18.73,8.84-15.05,0-24.09-11.37-24.09-24.1s9.57-24.1,23.46-24.1c12.94,0,22.1,10.11,22.1,23.58"></path><path class="cls-1" d="M294.19,102.2h31.12c-1.2-8.21-7.37-13.88-15.3-13.88a15.92,15.92,0,0,0-15.82,13.88m33.12,1.8H292.18l.1-1c.93-9.56,8.39-16.49,17.73-16.49s16.28,6.78,17.21,16.49ZM310,83.07c-12.65,0-22.56,10.18-22.56,23.19,0,11.53,8,23.2,23.19,23.2,7.33,0,14.23-3.24,18-8.47a2.15,2.15,0,0,0,.46-1.37,1.64,1.64,0,0,0-1.73-1.73,2.24,2.24,0,0,0-1.72,1,18.55,18.55,0,0,1-15,7c-11.76,0-18.25-8.8-18.57-17.49l0-.94h37.45a1.77,1.77,0,0,0,1.73-1.72c0-13.14-8.92-22.67-21.2-22.67m.63,48.19c-16.41,0-25-12.58-25-25,0-14,10.7-25,24.36-25,13.33,0,23,10.29,23,24.48a3.57,3.57,0,0,1-3.53,3.52H293.92c.71,7.52,6.52,14.83,16.72,14.83a16.58,16.58,0,0,0,13.62-6.31,4,4,0,0,1,3.11-1.69,3.46,3.46,0,0,1,3.53,3.53,4,4,0,0,1-.78,2.4c-4.13,5.71-11.58,9.24-19.48,9.24"></path><path class="cls-1" d="M363.25,83.43a2.63,2.63,0,0,1,0,5.26H352.62v38.09a3.16,3.16,0,1,1-6.31,0V88.69H337a2.63,2.63,0,0,1,0-5.26h9.36V68.7a3.16,3.16,0,1,1,6.31,0V83.43Z"></path><path class="cls-1" d="M337,84.32a1.74,1.74,0,1,0,0,3.47h10.26v39a2.26,2.26,0,1,0,4.52,0v-39h11.52a1.74,1.74,0,0,0,0-3.47H351.73V68.7a2.26,2.26,0,1,0-4.52,0V84.32Zm12.52,46.52a4,4,0,0,1-4.06-4.06V89.59H337a3.53,3.53,0,1,1,0-7.06h8.46V68.7a4.06,4.06,0,1,1,8.12,0V82.53h9.72a3.53,3.53,0,0,1,0,7.06h-9.72v37.19a4,4,0,0,1-4.06,4.06"></path><path class="cls-1" d="M373.77,129.94a3.1,3.1,0,0,1-3.15-3.16v-41a3.16,3.16,0,0,1,6.31,0v41a3.1,3.1,0,0,1-3.16,3.16m0-64.4a4,4,0,1,1-4,4,4,4,0,0,1,4-4"></path><path class="cls-1" d="M373.77,66.44a3.1,3.1,0,1,0,3.1,3.09,3.09,3.09,0,0,0-3.1-3.09m0,8a4.9,4.9,0,1,1,4.9-4.91,4.9,4.9,0,0,1-4.9,4.91m0,9a2.2,2.2,0,0,0-2.25,2.25v41a2.26,2.26,0,1,0,4.51,0v-41a2.21,2.21,0,0,0-2.26-2.25m0,47.35a4,4,0,0,1-4-4.06v-41a4.06,4.06,0,0,1,8.11,0v41a4,4,0,0,1-4.06,4.06"></path><path class="cls-1" d="M429.33,91a3.19,3.19,0,0,1,.63,1.9,2.78,2.78,0,0,1-3,2.63,2.85,2.85,0,0,1-2.21-1.26c-3.79-4.53-7.68-6.63-13.89-6.63C400.5,87.64,393,96,393,106.26s7.47,18.62,17.78,18.62c6.21,0,10.1-2.1,13.89-6.63a2.83,2.83,0,0,1,2.21-1.26,2.79,2.79,0,0,1,3,2.64,3.16,3.16,0,0,1-.63,1.89c-3.15,4.74-9.89,8.83-18.52,8.83-13.78,0-24.09-10.3-24.09-24.09s10.31-24.1,24.09-24.1c8.63,0,15.37,4.11,18.52,8.84"></path><path class="cls-1" d="M410.81,83.07c-13.22,0-23.2,10-23.2,23.19a22.69,22.69,0,0,0,23.2,23.2c9,0,15.18-4.55,17.77-8.44a2.26,2.26,0,0,0,.48-1.4,1.93,1.93,0,0,0-2.15-1.73c-.62,0-1,.33-1.52.94-4.13,4.94-8.36,7-14.58,7-10.65,0-18.68-8.4-18.68-19.53s8-19.52,18.68-19.52c6.22,0,10.45,2,14.58,7,.51.61.9.94,1.52.94,1.07,0,2.15-.59,2.15-1.73a2.28,2.28,0,0,0-.48-1.4c-2.59-3.89-8.8-8.43-17.77-8.43m0,48.19c-14.25,0-25-10.75-25-25s10.74-25,25-25c9.66,0,16.29,4.78,19.27,9.24a4.08,4.08,0,0,1,.78,2.4A3.78,3.78,0,0,1,424,94.84c-3.8-4.54-7.5-6.3-13.2-6.3-9.63,0-16.88,7.62-16.88,17.72S401.18,124,410.81,124c5.7,0,9.4-1.78,13.2-6.31a3.78,3.78,0,0,1,6.85,1.94,4.08,4.08,0,0,1-.78,2.4c-3,4.46-9.61,9.24-19.27,9.24"></path><path class="cls-1" d="M456.05,130.36a27.35,27.35,0,0,1-17.67-6,3.07,3.07,0,0,1-1.26-2.42,2.29,2.29,0,0,1,2.41-2.32,3.6,3.6,0,0,1,2.42.95,23.65,23.65,0,0,0,14.42,5c7.36,0,11.79-3,11.79-7.58,0-5.26-5.37-6.84-12.11-8.73-14-3.9-18.41-8.21-18.41-14.84,0-8.21,7.26-12.21,18.1-12.21a30.09,30.09,0,0,1,14.2,3.69c1.68.84,2.84,1.79,2.84,3.15a2.38,2.38,0,0,1-2.62,2.42,5.42,5.42,0,0,1-2.53-.94,26.74,26.74,0,0,0-12-3.16c-6.84,0-11.89,2-11.89,6.84,0,4.31,2.95,6.52,12.84,9.36,10.42,3.06,17.68,5.79,17.68,14.11,0,7.36-6.52,12.73-18.21,12.73"></path><path class="cls-1" d="M439.53,120.52a1.39,1.39,0,0,0-1.52,1.42,2.19,2.19,0,0,0,.91,1.7,26.59,26.59,0,0,0,17.13,5.82c10.68,0,17.31-4.54,17.31-11.83,0-7.68-6.75-10.23-17-13.24-8.94-2.57-13.48-4.86-13.48-10.23,0-5,4.54-7.74,12.78-7.74a27.5,27.5,0,0,1,12.42,3.26l.09,0a4.54,4.54,0,0,0,2,.79c1.08,0,1.72-.56,1.72-1.51,0-.56-.26-1.32-2.34-2.36a29.2,29.2,0,0,0-13.8-3.58c-10.94,0-17.2,4.11-17.2,11.3,0,5.42,3,9.87,17.76,14,6.56,1.85,12.75,3.59,12.75,9.6,0,5.23-4.86,8.48-12.68,8.48a24.59,24.59,0,0,1-15-5.14,2.74,2.74,0,0,0-1.87-.76m16.52,10.74a28.35,28.35,0,0,1-18.25-6.21,4,4,0,0,1-1.59-3.11,3.2,3.2,0,0,1,3.32-3.21,4.52,4.52,0,0,1,3,1.15,22.78,22.78,0,0,0,13.84,4.74c6.71,0,10.88-2.56,10.88-6.68,0-4.42-4.34-5.87-11.44-7.87-13.72-3.82-19.07-8.22-19.07-15.7,0-8.33,6.93-13.11,19-13.11a31,31,0,0,1,14.64,3.8c1.52.77,3.3,1.91,3.3,4a3.27,3.27,0,0,1-3.52,3.31,5.91,5.91,0,0,1-2.9-1,25.67,25.67,0,0,0-11.63-3.08c-4.1,0-11,.77-11,5.94,0,3.39,1.82,5.53,12.19,8.5,10.73,3.15,18.33,6.06,18.33,15,0,8.27-7.5,13.63-19.11,13.63"></path></svg> 