<?xml version="1.0" encoding="UTF-8"?> <!-- Generator: Adobe Illustrator 24.2.0, SVG Export Plug-In . SVG Version: 6.00 Build 0) --> <svg xmlns="http://www.w3.org/2000/svg" xmlns:xlink="http://www.w3.org/1999/xlink" version="1.1" id="Layer_1" x="0px" y="0px" viewBox="0 0 890 970" style="enable-background:new 0 0 890 970;" xml:space="preserve"> <style type="text/css"> .st0{fill:none;stroke:#D6E9BD;stroke-width:2.5932;stroke-miterlimit:10;stroke-dasharray:10.3726,10.3726,10.3726,10.3726,10.3726,10.3726;} .st1{fill:#D6E9BD;} .st2{fill:#087262;} .st3{fill:#EFF2F5;} .st4{fill:#DBE3E9;} .st5{fill:#4F5E67;} .st6{fill:#95CA59;} .st7{fill:#69B345;} .st8{fill:#555554;} .st9{fill:#F58458;} .st10{fill:#D6644B;} .st11{fill:#1B81C4;} .st12{fill:#FFFFFF;} .st13{fill:#5FAD6E;} .st14{fill:#E5EEF9;} .st15{fill:#1F81C5;} .st16{fill:#F58457;} .st17{fill:none;stroke:#FFFFFF;stroke-width:1.7288;} .st18{fill:#404C54;} .st19{fill:#301A3B;} .st20{fill:none;stroke:#4F5E67;stroke-width:1.7288;} .st21{fill:none;stroke:#4F5E67;stroke-width:1.7288;stroke-dasharray:2.2656,2.2656;} .st22{fill:none;stroke:#4F5E67;stroke-width:1.7288;stroke-miterlimit:10;} </style> <g> <path class="st0" d="M270.48,541.75c0,0-155.76,74.16-15.04,200.8s370.04,55.15,370.04,55.15"></path> <g> <path class="st1" d="M856.97,482.2c0.09-23.34-18.76-42.27-42.1-42.35c-0.26,0-0.43,0-0.69,0c-2.59-20.75-20.31-36.82-41.75-36.91 c-18.58-0.09-34.32,11.84-40.02,28.44c-16.6,1.38-29.73,14.78-30.77,31.46c-1.73-0.26-3.46-0.35-5.27-0.35 c-16.25-0.09-30.43,9.08-37.51,22.56l197.94,0.52C856.97,484.53,856.97,483.32,856.97,482.2z"></path> </g> <g> <path class="st1" d="M345.51,571.57c0.09-21-16.94-38.03-37.86-38.12c-0.17,0-0.43,0-0.61,0c-2.33-18.67-18.24-33.19-37.6-33.19 c-16.68-0.09-30.86,10.63-36.04,25.59c-14.87,1.21-26.71,13.31-27.66,28.27c-1.56-0.17-3.11-0.35-4.67-0.35 c-14.61,0-27.31,8.21-33.71,20.31l177.98,0.52C345.51,573.65,345.51,572.61,345.51,571.57z"></path> </g> <g> <g> <path class="st2" d="M687.98,596.64V352.28c0-6.31-5.19-11.5-11.5-11.5H279.73c-6.31,0-11.5,5.19-11.5,11.5v244.36H687.98z"></path> <rect x="287.68" y="360.58" class="st1" width="380.76" height="214.37"></rect> <path class="st3" d="M267.37,597.16v35.35c0,6.83,5.53,12.36,12.36,12.36h396.75c6.83,0,12.36-5.53,12.36-12.36v-35.35H267.37z"></path> <path class="st3" d="M550.71,696.82c0,0-3.03-1.47-6.57-2.85c-3.72-1.38-8.21-3.2-10.89-4.41c-4.67-2.25-5.01-3.72-6.74-11.32 c-1.9-8.3-3.63-25.85-4.41-33.45H434.2c-0.69,7.61-2.51,25.15-4.41,33.45c-1.73,7.61-2.16,9.08-6.74,11.32 c-2.59,1.3-7.09,3.03-10.8,4.41l0,0c-3.54,1.38-6.48,2.42-6.48,2.42s-2.85,1.56,1.73,1.82h141.33 C553.05,698.21,550.71,696.82,550.71,696.82z"></path> <path class="st4" d="M522.97,654.04c-0.43-3.63-0.69-6.92-0.95-9.25h-87.91c-0.26,2.33-0.52,5.62-0.95,9.25H522.97z"></path> </g> </g> <g> <g> <rect x="378.96" y="299.74" class="st3" width="369.01" height="218.86"></rect> <rect x="378.96" y="298.96" class="st5" width="369.01" height="44.34"></rect> <rect x="393.31" y="313.92" class="st1" width="12.88" height="15.21"></rect> <rect x="418.46" y="313.92" class="st1" width="12.88" height="15.21"></rect> <rect x="443.62" y="313.92" class="st1" width="12.88" height="15.21"></rect> </g> </g> <g> <rect x="365.48" y="402.15" class="st6" width="71.83" height="10.29"></rect> <rect x="365.48" y="422.73" class="st5" width="41.06" height="10.29"></rect> <rect x="329.52" y="407.34" class="st7" width="20.57" height="20.57"></rect> <rect x="365.48" y="448.4" class="st6" width="71.83" height="10.29"></rect> <rect x="365.48" y="468.89" class="st5" width="41.06" height="10.29"></rect> <rect x="329.52" y="453.5" class="st7" width="20.57" height="20.57"></rect> <rect x="365.48" y="494.56" class="st6" width="71.83" height="10.29"></rect> <rect x="365.48" y="515.13" class="st5" width="41.06" height="10.29"></rect> <rect x="329.52" y="499.74" class="st7" width="20.57" height="20.57"></rect> </g> <g> <g> <g> <g> <g> <path class="st6" d="M647.49,386.8c0,14.78-12.02,26.8-26.8,26.8H515.24c-14.78,0-26.8-12.01-26.8-26.8V281.35 c0-14.78,12.01-26.8,26.8-26.8H620.7c14.78,0,26.8,12.01,26.8,26.8V386.8z"></path> <polygon class="st6" points="523.71,440.4 523.71,399.6 568.66,399.6 "></polygon> </g> </g> <g> <g> <path class="st8" d="M513.17,228.28c2.85-5.01,7.26-9.68,12.97-10.72c10.03-1.82,29.04,3.11,40.71,11.76 c12.02-7.61,30.95-2.51,40.8,6.57c28.01,25.67-6.92,62.15-26.97,82.46c-0.95,0.17-1.9,0.43-2.85,0.78c0-0.17,0-0.26-0.09-0.26 c-14.61,4.41-6.14-12.88-11.5-18.24c-7.43-7.35-18.24-5.96-27.66-7.78c-10.63-1.99-14.44-8.21-20.49-16.51 C507.98,262.51,504.44,243.66,513.17,228.28z"></path> <path class="st9" d="M529.24,396.75h73.65c8.56-53.51-11.76-49.44-24.55-66.82c-12.88-17.55-7.26-25.59-7.26-25.59 s-26.45-6.05-19.54,1.21s8.73,9.77,5.27,22.39c-3.46,12.62-22.56,12.36-28.7,26.1C522.68,366.41,519.65,389.83,529.24,396.75z "></path> <path class="st10" d="M579.38,334.86c-7.52-1.47-14.61-4.15-21-7.95c1.73-10.29-0.52-13.4-6.74-20.83 c-7.09-8.47,19.62-0.95,19.62-0.95s-4.24,7.35,9.16,27.66C580.5,332.87,579.29,334.68,579.38,334.86z"></path> <g> <path class="st11" d="M529.24,396.75h73.65c7.69-47.89-7.78-49.62-20.31-61.98c-0.26,1.73-4.24,2.85-5.96,3.63 c-21.26,10.03-14.87,18.32-18.07,11.06c-1.21-2.77-6.4-6.92-6.74-14c-6.92,4.15-19.88,10.11-23.68,18.58 C522.68,366.41,519.65,389.83,529.24,396.75z"></path> </g> <path class="st9" d="M592,269.94c0,0-11.93,8.38-23.17-7.26c-11.15-15.73-11.15-15.73-11.15-15.73s-13.31,8.64-19.45,1.9 s-11.5,27.4-5.19,51.69c6.31,24.29,30.95,35.27,51.17,14.44c6.57-6.74,11.76-7.95,18.5-11.67 c14.78-8.21,4.67-21.96-2.42-17.98c-7.09,4.06-6.14,9.51-9.42,6.57C587.5,289.04,585.86,277.11,592,269.94z"></path> <path class="st11" d="M602.89,396.75c4.58-28.44,0.95-40.63-5.36-48.41c-4.93,3.11-9.68,8.3-13.14,16.51 c-6.05,14.18-9.77,23.6-12.45,31.9H602.89z"></path> <path class="st11" d="M529.24,396.75h0.26c-0.61-26.62,3.89-43.74,6.83-52.04c-3.46,2.33-6.48,5.19-8.3,9.34 C522.68,366.41,519.65,389.83,529.24,396.75z"></path> </g> <path class="st12" d="M560.45,297.25l-23.08-3.28C537.37,293.97,544.89,320.07,560.45,297.25z"></path> </g> </g> <g> <path class="st13" d="M684.49,379.28c0,27.92-22.65,50.57-50.57,50.57c-27.92,0-50.57-22.65-50.57-50.57 s22.65-50.57,50.57-50.57C661.84,328.8,684.49,351.36,684.49,379.28z"></path> <polygon class="st12" points="622.94,400.89 609.46,387.41 614.56,382.22 622.94,390.61 653.2,360.35 658.38,365.45 "></polygon> </g> </g> <path class="st14" d="M559.58,347.56c0,0.78,0.52,8.38,0.52,8.38l2.68-7.52l4.84,5.1c0,0,19.71-14.61,18.58-15.13 c-1.04-0.52-6.92-7.43-6.92-7.43L559.58,347.56z"></path> <path class="st14" d="M559.33,346.78c0,0,0.52,10.8,0.52,10.03c0-0.78-3.54-9.68-3.54-9.68l-5.7,6.74l-2.16-16.16 c0,0,5.96-4.84,5.96-4.06C554.48,334.34,559.33,346.78,559.33,346.78z"></path> </g> <path class="st11" d="M498.76,482.02h7.95v16.51h16.08v7.69h-16.08v16.6h-7.95v-16.6h-16.08v-7.69h16.08V482.02z"></path> <g> <polyline class="st6" points="33.03,923.64 93.37,903.59 93.89,899.78 "></polyline> <polygon class="st1" points="33.03,923.64 64.58,903.24 81.09,898.74 93.89,899.78 "></polygon> <polygon class="st1" points="107.2,907.65 97.95,901.08 33.38,923.55 89.91,917.93 "></polygon> <polygon class="st6" points="95.87,914.04 95.79,914.13 93.89,923.9 33.21,923.64 "></polygon> </g> <g> <polyline class="st6" points="536.01,165.71 599.54,163.9 601.18,160.35 "></polyline> <polygon class="st1" points="536.01,165.71 572.14,155.25 589.25,155.77 601.18,160.35 "></polygon> <polygon class="st1" points="611.64,171.76 604.64,162.86 536.44,165.63 592.1,176.6 "></polygon> <polygon class="st6" points="598.93,174.62 598.85,174.7 594.18,183.43 536.18,165.71 "></polygon> </g> <path class="st0" d="M748.83,431.54"></path> <path class="st0" d="M601.53,160.4c27.33,0.88,107-41,172.89,38.9c18.52,22.46,38.1,80.95,12.71,110.1 c-12.75,14.63-26.45,28.9-40.3,42.33c-13.65,13.23-35.97,30.35-40.05,50.12c-0.05,0.27-0.1,0.54-0.15,0.81 c-3.43,22.48,0.06,47.54,17.97,62.3"></path> <g> <path class="st9" d="M745.09,240.02l68.81-25.76l-94.56-43.05L745.09,240.02z M752.96,222.56l-9.51-25.5l35.09,15.99 L752.96,222.56z"></path> <g> <rect x="743.27" y="233.96" transform="matrix(0.9365 -0.3506 0.3506 0.9365 -34.9456 276.5448)" class="st12" width="5.96" height="1.64"></rect> </g> <g> <rect x="741.3" y="228.86" transform="matrix(0.9366 -0.3504 0.3504 0.9366 -33.3739 274.9181)" class="st12" width="3.46" height="1.64"></rect> </g> <g> <rect x="739.2" y="222.9" transform="matrix(0.9366 -0.3504 0.3504 0.9366 -31.3382 274.2439)" class="st12" width="5.96" height="1.64"></rect> </g> <g> <rect x="737.19" y="217.88" transform="matrix(0.9365 -0.3506 0.3506 0.9365 -29.7746 272.9554)" class="st12" width="3.46" height="1.64"></rect> </g> <g> <rect x="735.05" y="212.01" transform="matrix(0.9365 -0.3506 0.3506 0.9365 -27.7703 272.2708)" class="st12" width="5.96" height="1.64"></rect> </g> <g> <rect x="733.13" y="206.91" transform="matrix(0.9365 -0.3506 0.3506 0.9365 -26.1849 270.8344)" class="st12" width="3.46" height="1.64"></rect> </g> <g> <rect x="730.99" y="201.02" transform="matrix(0.9365 -0.3506 0.3506 0.9365 -24.1775 270.1504)" class="st12" width="5.96" height="1.64"></rect> </g> <g> <rect x="729.05" y="196.03" transform="matrix(0.9366 -0.3505 0.3505 0.9366 -22.6372 268.6147)" class="st12" width="3.46" height="1.64"></rect> </g> <g> <rect x="726.91" y="190.05" transform="matrix(0.9365 -0.3506 0.3506 0.9365 -20.5892 268.0222)" class="st12" width="5.96" height="1.64"></rect> </g> <g> <rect x="725" y="185.04" transform="matrix(0.9365 -0.3508 0.3508 0.9365 -19.0192 266.7354)" class="st12" width="3.46" height="1.64"></rect> </g> <g> <rect x="722.84" y="179.17" transform="matrix(0.9365 -0.3508 0.3508 0.9365 -17.0174 266.0434)" class="st12" width="5.96" height="1.64"></rect> </g> </g> <path class="st0" d="M767.16,465c0,0,151.27,144.87-26.62,350.25S300.99,906.7,300.99,906.7s-85.83-45.21-203.22-4.93"></path> <g> <path class="st1" d="M594.45,903.07c-8.13-16.86-24.81-25.67-43.22-16.86c-18.41,8.82-22.04,27.4-13.92,44.26 c6.31,13.14,17.72,13.31,30.77,20.49c2.59,1.38,5.1,10.63,5.1,10.63l22.99-11.06c0,0-5.62-7.69-5.1-10.63 C593.67,925.28,600.76,916.29,594.45,903.07z"></path> <path class="st6" d="M580.1,951.39c-18.07-9.85-33.8-10.11-42.53-28.27c-1.9-3.89-3.28-7.87-4.24-11.84 c-0.43,6.22,0.95,12.88,3.98,19.28c6.31,13.14,17.72,13.31,30.77,20.49c2.59,1.38,5.1,10.63,5.1,10.63l10.55-5.1 C582.7,954.15,581.4,952.08,580.1,951.39z"></path> <path class="st15" d="M572.84,961.76l1.56,3.2c2.51,5.27,8.82,7.52,14.09,4.93l4.75-2.25c5.27-2.51,7.43-8.82,4.93-14.09 l-1.56-3.2L572.84,961.76z"></path> <g> <polygon class="st6" points="582.61,906.7 581.4,909.03 576.99,906.78 575.61,913.27 569.73,910.33 568.35,916.81 562.38,913.78 561,920.27 555.12,917.33 554.09,922.08 551.49,921.56 553.22,913.35 559.19,916.38 560.48,909.9 566.45,912.92 567.83,906.35 573.71,909.38 575.09,902.89 "></polygon> </g> <g> <polygon class="st6" points="582.61,956.57 580.19,957.7 570.77,937.99 558.06,924.94 559.96,923.03 572.93,936.43 "></polygon> </g> <g> <polygon class="st6" points="589.87,953.11 587.54,954.24 577.86,934.1 575.52,915.6 578.2,915.25 580.45,933.32 "></polygon> </g> <rect x="579.83" y="956.55" transform="matrix(0.9017 -0.4323 0.4323 0.9017 -356.3295 348.3764)" class="st3" width="16.51" height="2.77"></rect> <rect x="582.23" y="962.01" transform="matrix(0.9017 -0.4323 0.4323 0.9017 -358.6855 348.9423)" class="st3" width="11.84" height="2.77"></rect> </g> <g> <path class="st1" d="M444.39,925.37c-3.11,1.38-6.92,0.17-10.89,1.9c-7.09,3.11-7.69,10.89-4.93,17.29 c2.68,6.14,9.16,10.89,15.9,7.95c3.11-1.38,6.66-5.96,8.13-6.66c2.94-1.3,6.48,0.17,7.78,3.11c2.77,6.4-7,13.23-11.5,15.21 c-13.4,5.88-27.06-1.21-32.76-14.18c-5.53-12.62-1.38-28.09,11.76-33.88c4.93-2.16,15.99-4.84,18.67,1.21 C447.68,919.92,447.33,924.16,444.39,925.37z"></path> </g> <g> <path class="st1" d="M315.17,851.46l-13.48-7c-1.9-0.95-2.68-3.37-1.64-5.27l0.35-0.61c0.95-1.9,3.37-2.68,5.27-1.64l13.48,7 c1.9,0.95,2.68,3.37,1.64,5.27l-0.35,0.61C319.49,851.72,317.07,852.5,315.17,851.46z"></path> <path class="st1" d="M302.2,903.84l1.47,30.25c0.17,4.32-4.32,7.26-8.13,5.27l-26.97-13.83l-26.97-13.83 c-3.8-1.99-4.06-7.35-0.52-9.68l25.5-16.42l33.62-21.7L302.2,903.84z"></path> <rect x="284.44" y="853.02" transform="matrix(0.4593 -0.8883 0.8883 0.4593 -601.3282 733.7327)" class="st1" width="35.18" height="15.56"></rect> <path class="st6" d="M302.2,903.84l1.47,30.25c0.17,4.32-4.32,7.26-8.13,5.27l-26.97-13.83l-26.97-13.83 c-3.8-1.99-4.06-7.35-0.52-9.68l25.5-16.42L302.2,903.84z"></path> <g> <path class="st6" d="M286.64,899.18c-1.64,3.2-5.62,4.49-8.82,2.77c-3.2-1.64-4.49-5.62-2.77-8.82c1.64-3.2,5.62-4.49,8.82-2.77 S288.29,895.98,286.64,899.18z"></path> <path class="st1" d="M281.63,894.68c-0.52,1.04-1.82,1.38-2.77,0.86c-1.04-0.52-1.38-1.82-0.86-2.77 c0.52-1.04,1.82-1.38,2.77-0.86C281.72,892.43,282.15,893.64,281.63,894.68z"></path> </g> <g> <path class="st6" d="M288.29,884.91c-0.86,1.73-3.03,2.42-4.75,1.47c-1.73-0.86-2.42-3.03-1.47-4.75 c0.86-1.73,3.03-2.42,4.75-1.47C288.46,881.11,289.15,883.27,288.29,884.91z"></path> <path class="st1" d="M285.61,882.49c-0.26,0.52-0.95,0.78-1.47,0.52c-0.52-0.26-0.78-0.95-0.52-1.47 c0.26-0.52,0.95-0.78,1.47-0.52C285.61,881.28,285.87,881.98,285.61,882.49z"></path> </g> <g> <path class="st6" d="M297.19,879.21c-0.86,1.73-3.03,2.42-4.75,1.47s-2.42-3.03-1.47-4.75c0.86-1.73,3.03-2.42,4.75-1.47 C297.36,875.41,298.05,877.57,297.19,879.21z"></path> <path class="st1" d="M294.42,876.79c-0.26,0.52-0.95,0.78-1.47,0.52c-0.52-0.26-0.78-0.95-0.52-1.47 c0.26-0.52,0.95-0.78,1.47-0.52C294.51,875.58,294.77,876.27,294.42,876.79z"></path> </g> <g> <ellipse class="st6" cx="292.7" cy="892.52" rx="4.24" ry="4.24"></ellipse> <path class="st1" d="M293.21,891.48c-0.35,0.69-1.12,0.95-1.82,0.61s-0.95-1.12-0.61-1.82c0.35-0.69,1.12-0.95,1.82-0.61 C293.3,890.01,293.56,890.79,293.21,891.48z"></path> </g> <g> <g> <path class="st12" d="M308.51,848.7c-0.09,0-0.17,0-0.17-0.09l-5.88-3.03c-0.26-0.09-0.35-0.35-0.17-0.61 c0.09-0.26,0.35-0.35,0.61-0.17l5.88,3.03c0.26,0.09,0.35,0.35,0.17,0.61C308.86,848.61,308.69,848.7,308.51,848.7z"></path> </g> <g> <path class="st12" d="M305.06,849.91c-0.09,0-0.17,0-0.17-0.09l-3.63-1.9c-0.26-0.09-0.35-0.35-0.17-0.61 c0.09-0.26,0.43-0.35,0.61-0.17l3.63,1.9c0.26,0.09,0.35,0.35,0.17,0.61C305.4,849.82,305.23,849.91,305.06,849.91z"></path> </g> <g> <path class="st12" d="M306.09,853.36c-0.09,0-0.17,0-0.17-0.09l-5.88-3.03c-0.26-0.09-0.35-0.35-0.17-0.61 c0.09-0.26,0.35-0.35,0.61-0.17l5.88,3.03c0.26,0.09,0.35,0.35,0.17,0.61C306.44,853.28,306.27,853.36,306.09,853.36z"></path> </g> <g> <path class="st12" d="M302.64,854.57c-0.09,0-0.17,0-0.17-0.09l-3.63-1.9c-0.26-0.09-0.35-0.35-0.17-0.61 c0.09-0.26,0.35-0.35,0.61-0.17l3.63,1.9c0.26,0.09,0.35,0.35,0.17,0.61C302.98,854.49,302.81,854.57,302.64,854.57z"></path> </g> <g> <path class="st12" d="M303.67,858.12c-0.09,0-0.17,0-0.17-0.09l-5.88-3.03c-0.26-0.09-0.35-0.35-0.17-0.61 c0.09-0.26,0.43-0.35,0.61-0.17l5.88,3.03c0.26,0.09,0.35,0.35,0.17,0.61C304.02,858.03,303.85,858.12,303.67,858.12z"></path> </g> <g> <path class="st12" d="M300.22,859.24c-0.09,0-0.17,0-0.17-0.09l-3.63-1.9c-0.26-0.09-0.35-0.35-0.17-0.61 c0.09-0.26,0.43-0.35,0.61-0.17l3.63,1.9c0.26,0.09,0.35,0.35,0.17,0.61C300.47,859.16,300.39,859.33,300.22,859.24z"></path> </g> <g> <path class="st12" d="M301.25,862.79c-0.09,0-0.17,0-0.17-0.09l-5.88-3.03c-0.26-0.09-0.35-0.35-0.17-0.61 c0.09-0.26,0.43-0.35,0.61-0.17l5.88,3.03c0.26,0.09,0.35,0.35,0.17,0.61C301.51,862.7,301.43,862.79,301.25,862.79z"></path> </g> <g> <path class="st12" d="M297.71,864c-0.09,0-0.17,0-0.17-0.09l-3.63-1.9c-0.26-0.09-0.35-0.35-0.17-0.61 c0.09-0.26,0.35-0.35,0.61-0.17l3.63,1.9c0.26,0.09,0.35,0.35,0.17,0.61C298.05,863.91,297.88,864,297.71,864z"></path> </g> <g> <path class="st12" d="M298.75,867.54c-0.09,0-0.17,0-0.17-0.09l-5.88-3.03c-0.26-0.09-0.35-0.35-0.17-0.61 c0.09-0.26,0.43-0.35,0.61-0.17l5.88,3.03c0.26,0.09,0.35,0.35,0.17,0.61C299.09,867.45,298.92,867.54,298.75,867.54z"></path> </g> <g> <path class="st12" d="M295.29,868.66c-0.09,0-0.17,0-0.17-0.09l-3.63-1.9c-0.26-0.09-0.35-0.35-0.17-0.61 c0.09-0.26,0.43-0.35,0.61-0.17l3.63,1.9c0.26,0.09,0.35,0.35,0.17,0.61C295.63,868.58,295.46,868.66,295.29,868.66z"></path> </g> <g> <path class="st12" d="M296.33,872.21c-0.09,0-0.17,0-0.17-0.09l-5.88-3.03c-0.26-0.09-0.35-0.35-0.17-0.61 c0.09-0.26,0.43-0.35,0.61-0.17l5.88,3.03c0.26,0.09,0.35,0.35,0.17,0.61C296.67,872.12,296.5,872.21,296.33,872.21z"></path> </g> <g> <path class="st12" d="M292.87,873.42c-0.09,0-0.17,0-0.17-0.09l-3.63-1.9c-0.26-0.09-0.35-0.35-0.17-0.61 c0.09-0.26,0.35-0.35,0.61-0.17l3.63,1.9c0.26,0.09,0.35,0.35,0.17,0.61C293.21,873.33,293.04,873.42,292.87,873.42z"></path> </g> </g> </g> <g> <rect x="307.1" y="722.39" transform="matrix(0.7583 -0.6519 0.6519 0.7583 -398.262 378.1958)" class="st6" width="7.61" height="7.61"></rect> <rect x="315.74" y="714.97" transform="matrix(0.7583 -0.6519 0.6519 0.7583 -391.3382 382.036)" class="st6" width="7.61" height="7.61"></rect> <rect x="324.44" y="707.62" transform="matrix(0.7583 -0.6519 0.6519 0.7583 -384.4435 385.9286)" class="st6" width="7.61" height="7.61"></rect> <rect x="333.14" y="700.11" transform="matrix(0.7583 -0.6519 0.6519 0.7583 -377.4446 389.7867)" class="st6" width="7.61" height="7.61"></rect> <rect x="314.54" y="731.15" transform="matrix(0.7583 -0.6519 0.6519 0.7583 -402.1727 385.1659)" class="st6" width="7.61" height="7.61"></rect> <rect x="323.21" y="723.68" transform="matrix(0.7583 -0.6519 0.6519 0.7583 -395.2075 389.0123)" class="st6" width="7.61" height="7.61"></rect> <rect x="331.91" y="716.17" transform="matrix(0.7583 -0.6519 0.6519 0.7583 -388.2083 392.8703)" class="st6" width="7.61" height="7.61"></rect> <rect x="322.02" y="739.85" transform="matrix(0.7583 -0.6519 0.6519 0.7583 -406.0421 392.1421)" class="st6" width="7.61" height="7.61"></rect> <rect x="330.66" y="732.44" transform="matrix(0.7583 -0.6519 0.6519 0.7583 -399.1182 395.9823)" class="st6" width="7.61" height="7.61"></rect> <rect x="339.36" y="724.93" transform="matrix(0.7583 -0.6519 0.6519 0.7583 -392.119 399.8402)" class="st6" width="7.61" height="7.61"></rect> <polygon class="st6" points="341.45,715.06 343.95,717.91 351.39,726.65 357.18,721.63 349.74,712.99 347.24,710.05 344.82,707.2 339.03,712.12 "></polygon> <polygon class="st6" points="301.34,709.36 327.36,686.97 322.43,681.18 290.62,708.49 300.56,720.08 306.35,715.06 "></polygon> <path class="st6" d="M274.11,712.64l44.69,52.04c2.77,3.2,7.61,3.54,10.72,0.78l43.39-37.26c3.2-2.77,3.54-7.61,0.78-10.72 L329,665.45c-2.77-3.2-7.61-3.54-10.72-0.78l-43.39,37.26C271.69,704.69,271.34,709.44,274.11,712.64z M367.98,722.41 l-43.39,37.26l-44.69-51.95l43.39-37.26L367.98,722.41z"></path> </g> <g> <g> <path class="st11" d="M735.61,834.52c8.3,16.42,1.73,36.56-14.69,44.86c-16.42,8.3-36.56,1.73-44.86-14.69 c-8.3-16.42-1.73-36.56,14.69-44.86C707.17,811.53,727.31,818.1,735.61,834.52z"></path> </g> <g> <g> <path class="st12" d="M710.89,859.59c-6.74,3.37-14.95,0.69-18.41-6.05l-1.12-2.25c-0.43-0.78-0.09-1.82,0.69-2.25 c0.78-0.43,1.82-0.09,2.25,0.69l1.12,2.25c2.59,5.1,8.82,7.17,13.92,4.58c5.1-2.59,7.17-8.82,4.58-13.92l-1.12-2.25 c-0.43-0.78-0.09-1.82,0.69-2.25c0.78-0.43,1.82-0.09,2.25,0.69l1.12,2.25C720.31,847.92,717.54,856.13,710.89,859.59z"></path> </g> <path class="st12" d="M707.86,853.62c-3.46,1.73-7.69,0.35-9.42-3.11l-5.27-10.37c-1.73-3.46-0.35-7.69,3.11-9.51 c3.46-1.73,7.69-0.35,9.51,3.11l5.27,10.37C712.7,847.66,711.32,851.89,707.86,853.62z"></path> <g> <path class="st12" d="M714.26,866.16c-0.78,0.43-1.82,0.09-2.25-0.69l-3.2-6.31c-0.43-0.78-0.09-1.82,0.69-2.25 c0.78-0.43,1.82-0.09,2.25,0.69l3.2,6.31C715.38,864.77,715.03,865.81,714.26,866.16z"></path> </g> <g> <path class="st12" d="M721.26,862.61l-14,7.09c-0.78,0.43-1.82,0.09-2.25-0.69c-0.43-0.78-0.09-1.82,0.69-2.25l14-7.09 c0.78-0.43,1.82-0.09,2.25,0.69C722.38,861.23,722.04,862.27,721.26,862.61z"></path> </g> </g> </g> <g> <path class="st6" d="M238.58,715.41c0.86,3.37,2.33,8.64-4.06,10.29c-3.89,1.04-5.96-0.69-7.78-3.89 c-2.33,4.93-5.88,8.13-10.98,9.51c-12.36,3.28-24.64-4.75-28.61-19.62c-3.89-14.52,2.94-28.18,15.04-31.46 c4.84-1.3,10.11-0.61,14.18,2.77c-0.52-3.28,1.64-6.31,4.84-7.17c6.31-1.64,7.69,3.54,8.64,6.92L238.58,715.41z M214.38,718.69 c6.92-1.82,8.3-9.68,6.66-15.99c-1.64-6.31-6.83-12.62-13.74-10.8c-7.26,1.9-8.56,9.94-6.92,16.25 C202.11,714.54,207.29,720.59,214.38,718.69z"></path> </g> <g> <path class="st16" d="M382.68,837.81c-0.78,4.06-3.8,6.31-7.35,5.7c-3.37-0.61-5.01-2.85-5.19-6.22 c-2.94,3.28-8.04,4.32-12.27,3.54c-12.27-2.25-18.07-15.13-15.9-26.71c2.16-11.93,10.98-22.99,24.12-20.57 c4.24,0.78,8.13,3.03,10.89,6.4l3.03-16.68c0.78-4.06,3.8-6.31,7.35-5.7c3.54,0.69,5.62,3.8,4.84,7.95L382.68,837.81z M366.08,805.13c-6.4-1.12-10.72,5.01-11.84,10.72c-1.04,5.7,0.86,12.88,7.26,14.09c6.74,1.21,10.8-5.01,11.93-10.98 C374.55,813,372.56,806.34,366.08,805.13z"></path> </g> <g> <polyline class="st17" points="794.73,646.95 789.11,631.65 799.14,620.5 "></polyline> <polyline class="st17" points="764.3,621.36 758.69,606.15 768.63,594.91 "></polyline> <polyline class="st17" points="801.39,607.79 795.77,592.49 805.36,580.3 "></polyline> <polyline class="st17" points="742.95,644.01 757.56,626.55 779.95,630.44 787.82,651.79 773.21,669.34 "></polyline> <polygon class="st17" points="780.04,630.44 794.64,612.89 817.03,616.78 824.9,638.22 810.29,655.68 787.9,651.79 "></polygon> <polyline class="st17" points="847.37,642.02 824.98,638.13 817.12,616.78 831.73,599.32 854.11,603.21 "></polyline> <polyline class="st17" points="727.05,600.96 749.52,604.85 757.3,626.29 742.78,643.75 "></polyline> <polygon class="st17" points="749.52,604.85 764.13,587.39 786.61,591.28 794.47,612.63 779.86,630.09 757.39,626.2 "></polygon> <polygon class="st17" points="786.61,591.2 801.21,573.74 823.69,577.63 831.55,598.98 816.95,616.52 794.47,612.63 "></polygon> <polyline class="st17" points="854.03,602.87 831.55,598.98 823.69,577.63 838.3,560.08 "></polyline> <polyline class="st17" points="758.86,573.22 763.96,587.05 749.35,604.59 726.88,600.7 "></polyline> <polyline class="st17" points="795.94,559.56 801.04,573.48 786.43,590.94 763.96,587.05 758.94,573.22 "></polyline> <polyline class="st17" points="838.12,559.82 823.51,577.28 801.04,573.39 796.03,559.56 "></polyline> </g> <g> <path class="st18" d="M602.58,778.77c-3.03-1.9-4.24-6.05-2.59-9.85c22.13-49.88,44.17-99.84,66.3-149.71 c1.73-3.8,5.45-6.14,9.42-6.22c22.47-0.35,65.09-1.64,87.13-1.82c6.83-0.09,11.41,6.92,8.64,13.14l-84.8,192.67 c-2.59,5.88-9.77,8.13-15.3,4.75C654.35,811.18,620.56,789.75,602.58,778.77"></path> <path class="st5" d="M670.69,820.26c-23.94-14.61-47.89-29.22-71.83-43.74c-2.94-1.82-4.06-6.31-2.33-10.11 c21.61-48.84,43.22-97.59,64.83-146.43c1.64-3.72,6.05-6.83,9.94-6.92c30.6-0.52,61.28-1.04,91.88-1.56 c3.8-0.09,5.1,3.89,2.94,8.9c-28.61,64.66-57.31,129.4-85.92,194.05C677.87,819.57,673.72,822.07,670.69,820.26"></path> <path class="st1" d="M678.04,800.81c-24.03-12.97-48.06-25.93-72.09-38.81c20.4-45.99,40.71-92.06,61.11-138.04 c29.56,0.43,59.12,0.95,88.69,1.38C729.82,683.86,703.88,742.29,678.04,800.81"></path> <path class="st19" d="M726.96,618.51c-0.52,1.21-1.73,2.16-2.59,2.16c-0.95,0-1.21-0.95-0.69-2.16s1.73-2.16,2.59-2.16 C727.14,616.35,727.48,617.3,726.96,618.51"></path> <path class="st19" d="M733.53,618.51c-0.52,1.21-1.73,2.16-2.59,2.16c-0.95,0-1.21-0.95-0.69-2.16s1.73-2.16,2.59-2.16 C733.79,616.35,734.05,617.3,733.53,618.51"></path> <path class="st6" d="M752.89,631.56c-29.39-0.95-58.69-1.82-88.08-2.77c0.69-1.64,1.47-3.28,2.16-4.93 c29.56,0.43,59.12,0.95,88.69,1.38C754.8,627.41,753.85,629.49,752.89,631.56"></path> <path class="st11" d="M672.59,634.07c-3.28-0.17-6.57-0.35-9.85-0.43c0.69-1.56,1.38-3.2,2.16-4.75c3.28,0.09,6.66,0.17,9.94,0.35 C674.06,630.78,673.37,632.43,672.59,634.07"></path> <path class="st12" d="M750.21,637.7c-25.93-1.21-51.95-2.42-77.88-3.63c0.69-1.64,1.47-3.28,2.16-4.93 c26.1,0.78,52.3,1.64,78.4,2.42C752.03,633.64,751.17,635.63,750.21,637.7"></path> <path class="st6" d="M744.25,651.18c-28.78-2.33-57.48-4.58-86.27-6.92c1.56-3.54,3.11-7.09,4.67-10.63 c29.13,1.38,58.35,2.68,87.48,4.06C748.23,642.19,746.24,646.69,744.25,651.18"></path> <path class="st6" d="M678.21,791.39c-9.59-4.93-19.19-9.77-28.78-14.69c0.52-1.3,1.12-2.51,1.64-3.8 c9.68,4.75,19.28,9.59,28.96,14.35C679.42,788.62,678.82,790,678.21,791.39"></path> <path class="st6" d="M631.36,767.44c-4.84-2.51-9.68-4.93-14.52-7.43c0.52-1.12,1.04-2.25,1.47-3.37 c4.84,2.42,9.68,4.84,14.61,7.26C632.4,765.02,631.88,766.23,631.36,767.44"></path> <path class="st6" d="M704.57,731.83c-22.04-6.83-44.17-13.66-66.21-20.57c0.52-1.12,1.04-2.25,1.47-3.37 c22.21,6.57,44.34,13.23,66.56,19.79C705.79,729.07,705.18,730.45,704.57,731.83"></path> <path class="st6" d="M701.2,739.44c-21.87-7.35-43.74-14.61-65.61-21.96c0.52-1.12,1.04-2.25,1.47-3.37 c21.96,7.09,44,14.09,65.95,21.18C702.41,736.67,701.81,738.06,701.2,739.44"></path> <path class="st6" d="M697.83,746.96c-21.7-7.78-43.31-15.56-65-23.34c0.52-1.12,1.04-2.25,1.47-3.37 c21.78,7.52,43.57,15.04,65.35,22.56C699.04,744.19,698.44,745.58,697.83,746.96"></path> <path class="st11" d="M637.41,709.1c-0.61,1.38-1.99,2.16-3.03,1.82c-1.04-0.35-1.47-1.64-0.86-3.03c0.61-1.3,1.9-2.16,3.03-1.82 C637.59,706.42,638.02,707.72,637.41,709.1"></path> <path class="st6" d="M692.73,758.97c-21.35-8.47-42.7-16.94-64.05-25.41c0.52-1.12,1.04-2.25,1.47-3.37 c21.44,8.21,42.87,16.51,64.4,24.72C693.94,756.21,693.34,757.59,692.73,758.97"></path> <path class="st6" d="M689.36,766.49c-21.18-8.9-42.27-17.89-63.45-26.8c0.52-1.12,1.04-2.25,1.47-3.37 c21.26,8.73,42.53,17.37,63.79,26.1C690.57,763.73,689.97,765.11,689.36,766.49"></path> <path class="st6" d="M685.99,774.1c-20.92-9.42-41.92-18.84-62.84-28.18c0.52-1.12,1.04-2.25,1.47-3.37 c21.09,9.16,42.1,18.32,63.19,27.49C687.2,771.33,686.6,772.72,685.99,774.1"></path> <path class="st6" d="M682.01,782.66c-20.75-9.94-41.4-19.88-62.15-29.73c0.52-1.12,1.04-2.25,1.47-3.37 c20.83,9.68,41.66,19.36,62.5,29.04C683.22,779.89,682.62,781.27,682.01,782.66"></path> <path class="st11" d="M627.82,731.14c-0.61,1.38-1.9,2.07-2.94,1.73c-1.04-0.35-1.38-1.82-0.78-3.2c0.61-1.3,1.9-2.07,2.94-1.73 C627.99,728.37,628.34,729.84,627.82,731.14"></path> </g> <g> <g> <g> <g> <g> <g> <path class="st11" d="M603.37,14.03c-24.29-21.7-61.8-19.62-83.5,4.75c-21.7,24.29-19.62,61.72,4.75,83.5 c24.29,21.7,61.8,19.62,83.5-4.75C629.83,73.16,627.75,35.73,603.37,14.03z"></path> </g> <g> <path class="st1" d="M617.38,83.36l-9.77,3.54l-17.98,7.26l3.11-11.76l-9.68-1.3l2.42-10.98l-7.35,1.3l-1.38-1.99l-3.63-7.17 l-4.15,6.83l2.77,5.53l-23.86,11.76l-5.19-0.86l3.03-9.51l8.21-13.23l-5.45-5.27l1.38-6.4l10.98-5.96l5.7,3.11l1.21,4.49 l8.47,4.49l-3.89-10.98l-5.36-6.74l1.38-2.25l9.34,1.9l0.95-6.31l11.24-0.09l4.58,8.3l14.09,6.4c0,0,6.66,1.64,14.09,3.46 C623.86,62.01,622.22,73.16,617.38,83.36z"></path> <path class="st1" d="M566.9-0.84l-6.4,2.07l-11.5,4.06c-0.35,0.09-0.52,0.35-0.61,0.69l-1.3,7.61 c-0.09,0.35,0.09,0.69,0.26,0.86c0.26,0.17,0.52,0.26,0.86,0.17l6.31-1.99l-0.43,10.98h-18.07l-6.22-4.58 c-0.26-0.17-0.69-0.26-0.95-0.09l-4.32,2.42c-0.26,0.17-0.43,0.43-0.43,0.78l-0.52,8.21l-3.63-8.3l0.17-3.72 C532.5,4.87,549.87-1.7,566.9-0.84z"></path> <path class="st1" d="M517.63,51.89l2.85-11.06l12.27-5.53l2.33,21.52l-28.61,11.76l2.16-6.57l8.82-9.68 C517.45,52.24,517.54,52.06,517.63,51.89z"></path> <path class="st1" d="M564.82,19.39l4.32-14.87c10.46,2.77,15.99,6.22,18.07,7.69l-10.72,7.69L564.82,19.39z"></path> </g> </g> </g> </g> <g> <g> <path class="st20" d="M649.27,16.62c0.43,0.95,0.78,1.9,1.04,2.94"></path> <path class="st21" d="M650.4,25.96c-3.03,18.76-33.11,45.99-74.77,66.04c-49.27,23.68-96.21,28.35-104.85,10.46 c-4.93-10.29,3.89-25.85,21.61-41.66"></path> <path class="st20" d="M494.89,58.63c0.78-0.69,1.56-1.38,2.42-1.99"></path> </g> <path class="st22" d="M601.39,7.81c24.38-4.41,42.87-1.73,47.97,8.82c8.64,17.89-24.38,51.6-73.65,75.29 s-96.21,28.35-104.85,10.46"></path> </g> </g> </g> <g> <polygon class="st12" points="523.31,731.92 520.89,719.82 518.47,731.92 519.68,731.92 519.68,789.66 522.1,789.66 522.1,731.92 "></polygon> <polygon class="st12" points="572.06,764.07 559.96,761.74 559.96,762.86 404.55,762.86 404.55,765.28 559.96,765.28 559.96,766.49 "></polygon> <g> <path class="st12" d="M518.56,781.62c-3.46,0-6.83-0.69-9.85-1.99c-7.17-3.11-12.36-9.51-16.08-14.69 c-0.95-1.3-1.9-2.68-2.85-4.06c-3.03-4.41-6.22-8.99-10.11-12.62c-5.7-5.27-12.53-7.69-18.41-6.48 c-5.19,1.04-10.03,4.84-14.69,11.5c-1.12,1.64-2.25,3.46-3.37,5.1c-2.51,3.89-5.01,7.95-8.38,11.32 c-4.41,4.32-12.1,8.47-19.36,5.88l0.78-2.25c6.22,2.25,12.97-1.47,16.86-5.36c3.2-3.2,5.62-7.09,8.04-10.89 c1.12-1.73,2.25-3.54,3.37-5.19c5.01-7.17,10.29-11.32,16.16-12.45c6.57-1.3,14.26,1.3,20.49,7.09 c4.15,3.8,7.35,8.56,10.46,13.05c0.95,1.3,1.82,2.68,2.77,3.98c3.54,4.93,8.47,10.98,15.13,13.83c9.08,3.89,21,1.12,29.13-6.66 c8.82-8.47,11.93-20.31,12.97-28.87l2.42,0.26c-1.12,8.9-4.41,21.35-13.66,30.25c-4.15,3.98-9.42,6.92-14.95,8.21 C523.14,781.36,520.89,781.62,518.56,781.62"></path> <path class="st12" d="M571.55,773.49c-1.21-0.26-2.25-0.95-3.2-1.73c1.04-1.3,1.9-2.85,2.33-4.49l-1.12-0.35 c-0.43,1.38-1.12,2.77-2.07,3.98c-0.69-0.78-1.12-1.73-1.47-2.77l-1.21,0.35c0.35,1.21,0.95,2.42,1.82,3.37 c-0.43,0.43-0.86,0.86-1.38,1.3l0.78,0.95c0.52-0.43,1.04-0.86,1.47-1.38c1.04,0.95,2.33,1.64,3.72,1.99L571.55,773.49z"></path> <path class="st12" d="M516.23,722.06l-1.21,0.26c0.26,1.04,0.43,2.33,0.35,3.72c-0.69,0.09-1.47-0.17-1.99-0.69 c-0.52-0.61-0.78-1.47-0.52-2.25l-1.12-0.43c-0.43,1.21-0.09,2.59,0.78,3.46c0.69,0.69,1.56,1.04,2.51,1.04c0.09,0,0.17,0,0.17,0 c-0.09,0.78-0.35,1.56-0.69,2.33c-1.12,2.25-3.46,3.72-5.62,3.54l-0.17,1.21c0.17,0,0.43,0,0.61,0c2.51,0,5.01-1.64,6.22-4.24 C516.74,727.86,516.92,725.09,516.23,722.06"></path> </g> <path class="st12" d="M518.56,781.62c-3.46,0-6.83-0.69-9.85-1.99c-7.17-3.11-12.36-9.51-16.08-14.69 c-0.95-1.3-1.9-2.68-2.85-4.06c-3.03-4.41-6.22-8.99-10.11-12.62c-5.7-5.27-12.53-7.69-18.41-6.48 c-5.19,1.04-10.03,4.84-14.69,11.5c-1.12,1.64-2.25,3.46-3.37,5.1c-2.51,3.89-5.01,7.95-8.38,11.32 c-4.41,4.32-12.1,8.47-19.36,5.88l0.78-2.25c6.22,2.25,12.97-1.47,16.86-5.36c3.2-3.2,5.62-7.09,8.04-10.89 c1.12-1.73,2.25-3.54,3.37-5.19c5.01-7.17,10.29-11.32,16.16-12.45c6.57-1.3,14.26,1.3,20.49,7.09c4.15,3.8,7.35,8.56,10.46,13.05 c0.95,1.3,1.82,2.68,2.77,3.98c3.54,4.93,8.47,10.98,15.13,13.83c9.08,3.89,21,1.12,29.13-6.66c8.82-8.47,11.93-20.31,12.97-28.87 l2.42,0.26c-1.12,8.9-4.41,21.35-13.66,30.25c-4.15,3.98-9.42,6.92-14.95,8.21C523.14,781.36,520.89,781.62,518.56,781.62"></path> </g> </g> </svg> 