<?xml version="1.0" encoding="UTF-8"?> <!-- Generator: Adobe Illustrator 24.2.0, SVG Export Plug-In . SVG Version: 6.00 Build 0) --> <svg xmlns="http://www.w3.org/2000/svg" xmlns:xlink="http://www.w3.org/1999/xlink" version="1.1" id="Layer_1" x="0px" y="0px" viewBox="0 0 120 120" style="enable-background:new 0 0 120 120;" xml:space="preserve"> <style type="text/css"> .st0{fill:#94d341;} </style> <g id="Layer_1_16_"> <path class="st0" d="M107.3,19.2H12.6c-2.7,0-4.9,2.2-4.9,4.9v50.1c0.9-1.3,2-2.4,3.3-3.4V24.1c0-0.9,0.7-1.6,1.6-1.6h94.7 c0.9,0,1.6,0.7,1.6,1.6l0,0v60.4c0,0.9-0.7,1.6-1.6,1.6H59.9v3.3h47.4c2.7,0,4.9-2.2,4.9-4.9l0,0V24.1 C112.2,21.4,110,19.2,107.3,19.2L107.3,19.2z"></path> <path class="st0" d="M45.2,53.5c0-7.2-5.8-13.1-13.1-13.1S19,46.2,19,53.5s5.8,13.1,13.1,13.1l0,0C39.4,66.6,45.2,60.7,45.2,53.5z M22.4,53.5c0-5.4,4.4-9.8,9.8-9.8s9.8,4.4,9.8,9.8s-4.4,9.8-9.8,9.8S22.4,58.9,22.4,53.5z"></path> <path class="st0" d="M68.1,29.8c-0.9,0-1.6,0.7-1.6,1.6V33h-1.7c-0.9,0.1-1.6,0.9-1.5,1.8c0.1,0.8,0.7,1.4,1.5,1.5h1.6V38 c0.1,0.9,0.9,1.6,1.8,1.5c0.8-0.1,1.4-0.7,1.5-1.5v-1.6h1.6c0.9,0.1,1.7-0.6,1.8-1.5s-0.6-1.7-1.5-1.8c-0.1,0-0.2,0-0.3,0h-1.6 v-1.6C69.7,30.6,69,29.8,68.1,29.8z"></path> <path class="st0" d="M91,69v0.8h-0.8c-0.9,0-1.6,0.7-1.6,1.6s0.7,1.6,1.6,1.6H91v0.8c0,0.9,0.7,1.6,1.6,1.6s1.6-0.7,1.6-1.6V73H95 c0.9,0,1.6-0.7,1.6-1.6s-0.7-1.6-1.6-1.6h-0.8V69c0-0.9-0.7-1.6-1.6-1.6S91,68.1,91,69L91,69z"></path> <path class="st0" d="M86,33.9h3.3c0.9,0.1,1.7-0.6,1.8-1.5c0.1-0.9-0.6-1.7-1.5-1.8c-0.1,0-0.2,0-0.3,0H86 c-0.9,0.1-1.6,0.9-1.5,1.8C84.6,33.2,85.2,33.8,86,33.9z"></path> <path class="st0" d="M86,38.8h3.3c0.9,0,1.6-0.7,1.6-1.6c0-0.9-0.7-1.6-1.6-1.6l0,0H86c-0.9,0-1.6,0.7-1.6,1.6S85.2,38.8,86,38.8z"></path> <path class="st0" d="M64.6,59.4c0.3,0.3,0.7,0.5,1.2,0.5c0.4,0,0.8-0.2,1.2-0.5l1.2-1.2l1.2,1.2c0.6,0.6,1.7,0.6,2.3,0 c0.6-0.6,0.6-1.7,0-2.3L70.4,56l1.2-1.2c0.6-0.6,0.6-1.7,0-2.3s-1.6-0.6-2.3,0l-1.2,1.2l-1.2-1.2c-0.6-0.6-1.7-0.7-2.3,0 c-0.6,0.6-0.7,1.7,0,2.3l0,0l1.2,1.2l-1.2,1.1C64,57.7,64,58.8,64.6,59.4z"></path> <path class="st0" d="M91.8,50.2h-3.3c-0.9-0.1-1.7,0.6-1.8,1.5s0.6,1.7,1.5,1.8c0.1,0,0.2,0,0.3,0h3.3c0.9,0.1,1.7-0.6,1.8-1.5 s-0.6-1.7-1.5-1.8C92,50.2,91.9,50.2,91.8,50.2z"></path> <path class="st0" d="M93.4,56.8c0-0.9-0.7-1.6-1.6-1.6h-3.3c-0.9-0.1-1.7,0.6-1.8,1.5s0.6,1.7,1.5,1.8c0.1,0,0.2,0,0.3,0h3.3 C92.7,58.4,93.4,57.7,93.4,56.8z"></path> <path class="st0" d="M83.6,67.4h-6.5c-0.9,0-1.6,0.7-1.6,1.6s0.7,1.6,1.6,1.6h6.5c0.9,0,1.6-0.7,1.6-1.6S84.5,67.4,83.6,67.4z"></path> <path class="st0" d="M83.6,72.3h-6.5c-0.9,0-1.6,0.7-1.6,1.6s0.7,1.6,1.6,1.6h6.5c0.9,0,1.6-0.7,1.6-1.6S84.5,72.3,83.6,72.3z"></path> <path class="st0" d="M71.7,67.9c-0.6-0.6-1.7-0.6-2.3,0l0,0l-1.3,1.3l-1.3-1.3c-0.6-0.6-1.7-0.6-2.3,0l0,0c-0.6,0.6-0.6,1.7,0,2.3 l1.3,1.3l-1.3,1.3c-0.6,0.6-0.6,1.7,0,2.3c0.3,0.3,0.7,0.5,1.2,0.5c0.4,0,0.8-0.2,1.1-0.5l1.3-1.3l1.3,1.3c0.6,0.6,1.7,0.6,2.3,0 l0,0c0.6-0.6,0.6-1.7,0-2.3l0,0l-1.3-1.3l1.3-1.3C72.3,69.5,72.3,68.5,71.7,67.9L71.7,67.9z"></path> <path class="st0" d="M58.3,42.1c0.9,0,1.6-0.7,1.6-1.6l0,0V29c0-0.6-0.4-1.2-1-1.5s-1.3-0.2-1.8,0.2l-3.3,2.8 c-0.7,0.6-0.8,1.6-0.2,2.3s1.6,0.8,2.3,0.2l0.6-0.5v7.9C56.7,41.3,57.4,42.1,58.3,42.1L58.3,42.1z"></path> <path class="st0" d="M79.5,42.1c0.9,0,1.6-0.7,1.6-1.6V29c0-0.6-0.4-1.2-0.9-1.5c-0.6-0.3-1.3-0.2-1.8,0.2l-3.3,2.8 c-0.7,0.6-0.8,1.6-0.2,2.3c0.6,0.7,1.6,0.8,2.3,0.2l0.6-0.5v7.9C77.9,41.3,78.6,42.1,79.5,42.1L79.5,42.1z"></path> <path class="st0" d="M101.2,28.7c-1.1-1.2-2.8-1.7-4.4-1.2c-1.7,0.4-3,1.7-3.4,3.4c-0.2,0.9,0.3,1.8,1.2,2s1.8-0.3,2-1.2 c0.1-0.5,0.5-0.9,1-1c0.4-0.2,0.9,0,1.2,0.3c0.2,0.2,0.4,0.9-0.7,3l-3.5,5.7c-0.5,0.8-0.2,1.8,0.5,2.2c0.3,0.2,0.6,0.2,0.9,0.2h6.4 c0.9-0.1,1.6-0.9,1.5-1.8c-0.1-0.8-0.7-1.4-1.5-1.5h-3.5l2-3.2C101.5,34.5,103.4,31.1,101.2,28.7z"></path> <path class="st0" d="M59.9,48.6c0-0.6-0.4-1.2-1-1.5s-1.3-0.2-1.8,0.2l-3.3,2.8c-0.7,0.6-0.8,1.6-0.2,2.3s1.6,0.8,2.3,0.2l0,0 l0.6-0.5V60c0,0.9,0.7,1.6,1.6,1.6c0.9,0,1.6-0.7,1.6-1.6l0,0V48.6H59.9z"></path> <path class="st0" d="M75.9,52.5c0.9,0.2,1.8-0.3,2-1.2l0,0c0.1-0.5,0.5-0.9,1-1c0.4-0.1,0.9,0,1.2,0.3c0.2,0.2,0.4,0.9-0.7,3 l-3.6,5.6c-0.5,0.8-0.2,1.8,0.5,2.2c0.3,0.2,0.6,0.2,0.9,0.2h6.4c0.9,0,1.6-0.7,1.6-1.6c0-0.9-0.7-1.6-1.6-1.6l0,0h-3.5l2-3.2 c0.6-1.1,2.5-4.5,0.3-6.9c-1.1-1.2-2.8-1.6-4.3-1.2c-1.7,0.4-3,1.7-3.4,3.4C74.5,51.4,75,52.3,75.9,52.5L75.9,52.5z"></path> <path class="st0" d="M114.4,97.6H56.6V86c0.1-4.8-1.2-8.8-3.8-11.7s-6.3-4.4-10.9-4.5H24.7c-10-0.2-16.9,5.8-17,14.9v12.8H5.5 c-0.9-0.1-1.7,0.5-1.8,1.4s0.5,1.7,1.4,1.8c0.1,0,0.2,0,0.4,0h108.9c0.9,0.1,1.7-0.5,1.9-1.4c0.1-0.9-0.5-1.7-1.4-1.9 C114.7,97.6,114.6,97.6,114.4,97.6z M10.9,84.8C11.1,76,18.1,73,24.7,73.1H42c3.7,0.1,6.5,1.2,8.5,3.4s3,5.4,2.9,9.5v11.6h-6.5 v-3.3c0-0.9-0.7-1.6-1.6-1.6c-0.9,0-1.6,0.7-1.6,1.6v3.3h-23v-3.3c-0.1-0.9-0.9-1.6-1.8-1.5c-0.8,0.1-1.4,0.7-1.5,1.5v3.3h-6.5 C10.9,97.6,10.9,84.8,10.9,84.8z"></path> </g> </svg> 