<svg width="192" height="90" viewBox="0 0 192 90" fill="none" xmlns="http://www.w3.org/2000/svg">
<path d="M0 49.4842L26.4207 62.6997V89.1305L0 75.9151V49.4842ZM26.4205 0V26.4308L52.8413 39.6463V13.2152L26.4205 0ZM0 44.5652L52.8415 70.996V44.5652L0 18.1344V44.5652Z" fill="url(#paint0_linear_864_11)"/>
<path d="M62.5486 51.7849V32.4264H69.334C71.37 36.7863 74.3178 42.6768 75.1311 45.0611H75.2267C75.0117 43.0511 74.9626 39.6318 74.9626 36.5442V32.4263H80.1305V51.7849H73.6656C72.0242 48.2803 68.5229 41.0165 67.614 38.4616H67.5379C67.7179 40.2824 67.7348 44.0296 67.7348 47.4375V51.7849H62.5486Z" fill="#42AD4E"/>
<path d="M92.9506 48.0197L91.8305 51.7848H86.3071L92.4231 32.4264H99.7633L106.121 51.7849H100.199L99.0241 48.0197L92.9506 48.0197ZM98.0293 43.8157C97.1201 40.7745 96.3759 38.0699 95.9377 36.1821H95.86C95.4118 38.2683 94.6721 41.0306 93.8879 43.8157H98.0293Z" fill="#42AD4E"/>
<path d="M116.643 45.9224C116.966 47.6098 118.147 48.3192 119.978 48.3192C121.693 48.3192 122.484 47.7183 122.484 46.5947C122.484 45.3221 121.626 44.8404 118.57 44.1096C112.86 42.7262 111.722 40.6417 111.722 38.0359C111.722 34.7875 114.109 32.0665 119.495 32.0665C125.094 32.0665 127.381 34.9086 127.653 37.9614H122.174C122.026 36.9231 121.493 35.8655 119.481 35.8655C118.182 35.8655 117.385 36.3556 117.385 37.4034C117.385 38.4526 118.095 38.8598 121.078 39.5919C127.042 41.0809 128.226 43.2298 128.226 45.9828C128.226 49.6188 125.423 52.1447 119.741 52.1447C114.39 52.1447 111.554 49.6455 111.126 45.9223L116.643 45.9224Z" fill="#42AD4E"/>
<path d="M140.476 32.4264V51.7849H134.789V32.4264H140.476Z" fill="#42AD4E"/>
<path d="M148.416 32.4264H156.729C162.888 32.4264 166.461 36.3243 166.461 41.892C166.461 47.4744 162.981 51.7848 156.641 51.7848H148.416V32.4264ZM154.093 47.6767H156.265C159.343 47.6767 160.604 45.5182 160.604 41.892C160.604 38.6873 159.428 36.5346 156.333 36.5346H154.093L154.093 47.6767Z" fill="#42AD4E"/>
<path d="M177.976 48.0197L176.856 51.7848H171.332L177.448 32.4264H184.789L191.145 51.7849H185.224L184.049 48.0197L177.976 48.0197ZM183.054 43.8157C182.145 40.7745 181.401 38.0699 180.963 36.1821H180.886C180.437 38.2683 179.698 41.0306 178.913 43.8157H183.054Z" fill="#42AD4E"/>
<defs>
<linearGradient id="paint0_linear_864_11" x1="-5.9286" y1="28.3574" x2="88.9935" y2="75.8794" gradientUnits="userSpaceOnUse">
<stop stop-color="#CDEF06"/>
<stop offset="0.3247" stop-color="#42AD4E"/>
<stop offset="0.4164" stop-color="#37965D"/>
<stop offset="0.5765" stop-color="#287474"/>
<stop offset="0.7283" stop-color="#1C5B84"/>
<stop offset="0.8673" stop-color="#154C8E"/>
<stop offset="0.9813" stop-color="#134791"/>
</linearGradient>
</defs>
</svg>
