<?xml version="1.0" encoding="UTF-8"?> <!-- Generator: Adobe Illustrator 24.2.0, SVG Export Plug-In . SVG Version: 6.00 Build 0) --> <svg xmlns="http://www.w3.org/2000/svg" xmlns:xlink="http://www.w3.org/1999/xlink" version="1.1" id="Trial_Thank_You_Resources" x="0px" y="0px" viewBox="0 0 250 200" style="enable-background:new 0 0 250 200;" xml:space="preserve"> <style type="text/css"> .st0{fill:#D6E9BD;} .st1{fill:#FFFFFF;stroke:#D6E9BD;stroke-width:0.5423;stroke-miterlimit:10;} .st2{fill:#96CA59;} .st3{fill:none;stroke:#FFFFFF;stroke-width:3.7206;} .st4{fill:#EBF4FB;} .st5{fill:#1FA7E0;} .st6{fill:#20A7E0;} .st7{fill:#7BB343;} .st8{fill:#9D6636;} .st9{fill:#21A7E0;} .st10{fill:#A2CC3B;} .st11{fill:#23ACE3;} .st12{fill:#24ADE3;} .st13{fill:#5BC5ED;} .st14{fill:#646188;} .st15{fill:#605F8B;} .st16{fill:#60618C;} .st17{fill:#A2C73E;} .st18{fill:#626088;} .st19{fill:#5F5F8B;} .st20{fill:#61618B;} .st21{fill:#60608B;} .st22{fill:#5F608B;} .st23{fill:#5E618C;} .st24{fill:#615F8A;} .st25{fill:#605F8A;} .st26{fill:#65C9EF;} .st27{fill:#625F88;} .st28{fill:#64658F;} .st29{fill:#62648E;} .st30{fill:#1FA8E1;} .st31{fill:#56C2EC;} .st32{fill:#B97932;} .st33{fill:#80D2F1;} .st34{fill:#5C6793;} .st35{fill:#5F5C88;} .st36{fill:#B6CF35;} .st37{fill:#616A95;} .st38{fill:#9EDCF3;} .st39{fill:#68668C;} .st40{fill:#81D3F1;} .st41{fill:#5F5B87;} .st42{fill:#5D638E;} .st43{fill:#6E6D8D;} .st44{fill:#615E89;} .st45{fill:#45B6E7;} .st46{fill:#686B94;} .st47{fill:#6B6A92;} .st48{fill:#63608A;} .st49{fill:#6A6A93;} .st50{fill:#516694;} .st51{fill:#ACE0F5;} .st52{fill:#42BAEA;} .st53{fill:#76798F;} .st54{fill:#50BDEA;} .st55{fill:#35B6E8;} .st56{fill:#59608D;} .st57{fill:#5C628E;} .st58{fill:#C2E8F6;} .st59{fill:#5A618D;} .st60{fill:#5A608D;} .st61{fill:#707096;} .st62{fill:#67638D;} .st63{fill:#4EBEEB;} .st64{fill:#4177A8;} .st65{fill:#617FAB;} .st66{fill:#62618C;} .st67{fill:#4274A5;} .st68{fill:#5C5D89;} .st69{fill:#61618C;} .st70{fill:#6380AB;} .st71{fill:#7281A9;} .st72{fill:#4472A3;} .st73{fill:#88BB4E;} .st74{fill:#7B789C;} .st75{fill:#75789E;} .st76{fill:#46BEEC;} .st77{fill:#60C8EF;} .st78{fill:#78D0F0;} .st79{fill:#92D8F2;} .st80{fill:#ABE0F4;} .st81{fill:#9CDBF3;} .st82{fill:#FBFCFD;} .st83{fill:#5E628E;} .st84{fill:#9FDCF3;} .st85{fill:#5E618D;} .st86{fill:#4CC0ED;} .st87{fill:#B8D034;} .st88{fill:#A6C839;} .st89{fill:#94C03E;} .st90{fill:#FAFAFC;} .st91{fill:#5D618D;} .st92{fill:#39B8EA;} .st93{fill:#73CFF0;} .st94{fill:#C3852D;} .st95{fill:#BB7F30;} .st96{fill:#B47932;} .st97{fill:#AD7332;} .st98{fill:#AB7033;} .st99{fill:#91BE3F;} .st100{fill:#94BF3E;} .st101{fill:#9DC33C;} .st102{fill:#AAE0F4;} .st103{fill:#8ED7F2;} .st104{fill:#96D9F3;} .st105{fill:#8CD6F2;} .st106{fill:#CCEBF8;} .st107{fill:#30BA9D;} .st108{fill:#18B2E7;} .st109{fill:#FFFFFF;} .st110{fill:#FEFFFF;} .st111{fill:#FBFDFD;} .st112{fill:#FAFDFC;} .st113{fill:#F8FCFB;} .st114{fill:#FCFEFF;} .st115{fill:#FEFEFF;} .st116{fill:#FBFDFE;} .st117{fill:#31BA9D;} .st118{fill:#31BA9E;} .st119{fill:#19B2E8;} .st120{fill:#ADCA37;} .st121{fill:#35AEE4;} .st122{fill:#CA368C;} .st123{fill:#FFCB14;} .st124{fill:#484442;} .st125{fill:#494442;} .st126{fill:#4B4745;} .st127{fill:#474240;} .st128{fill:#423E3C;} .st129{fill:#514C49;} .st130{fill:#C9368D;} .st131{fill:#3E3B38;} .st132{fill:#403C39;} .st133{fill:#3D3836;} .st134{fill:#373331;} .st135{fill:#24A3DC;} .st136{fill:#3D3937;} .st137{fill:#3F3B39;} .st138{fill:#3B3735;} .st139{fill:#26A4DD;} .st140{fill:#C42B81;} .st141{fill:#C63583;} .st142{fill:#C3277F;} .st143{fill:#21A1DB;} .st144{fill:#44403E;} .st145{fill:#45403E;} .st146{fill:#3B3736;} .st147{fill:#3A3634;} .st148{fill:#C01F7A;} .st149{fill:#C73886;} .st150{fill:#C13A8E;} .st151{fill:#C3297D;} .st152{fill:#3A3739;} .st153{fill:#3B383A;} .st154{fill:#373339;} .st155{fill:#36313A;} .st156{fill:#3A3839;} .st157{fill:#383734;} .st158{fill:#44423F;} .st159{fill:#211A28;} .st160{fill:#1C1328;} .st161{fill:#BCD63C;} .st162{fill:#BDD63B;} .st163{fill:#BDD73C;} .st164{fill:#484540;} .st165{fill:#3A2D28;} .st166{fill:#49B5E1;} .st167{fill:#49BBEC;} .st168{fill:#4CBCEC;} .st169{fill:#4DBCEC;} .st170{fill:#361E14;} .st171{fill:#373732;} .st172{fill:#343630;} .st173{fill:#CC388B;} .st174{fill:#3E3C39;} .st175{fill:#F9CD1E;} .st176{fill:#D73891;} .st177{fill:#D1378E;} .st178{fill:#CF378D;} .st179{fill:#483D40;} .st180{fill:#D93794;} .st181{fill:#D93793;} .st182{fill:#D63891;} .st183{fill:#DA3893;} .st184{fill:#2F2E39;} .st185{fill:#2D2C37;} .st186{fill:#7F6E33;} .st187{fill:#978131;} .st188{fill:#FEDF01;} .st189{fill:#FEDC03;} .st190{fill:#FEFEFE;} .st191{fill:#3E3A38;} .st192{fill:#F9F9F8;} .st193{fill:#FBFAFA;} .st194{fill:#3A3633;} .st195{fill:#353131;} .st196{fill:#656B40;} .st197{fill:#302C2F;} .st198{fill:#474443;} .st199{fill:#3C3735;} .st200{fill:#484543;} .st201{fill:#FEFEFD;} .st202{fill:#49464A;} .st203{fill:#4E4942;} .st204{fill:#353135;} .st205{fill:#413E3D;} .st206{fill:#3D3633;} .st207{fill:#48ABD2;} .st208{fill:#474544;} .st209{fill:#383834;} .st210{fill:#393634;} .st211{fill:#322F2C;} .st212{fill:#363732;} .st213{fill:#242A21;} .st214{fill:#2A2725;} .st215{fill:#AEC938;} .st216{fill:#4AB6E0;} .st217{fill:#C63789;} .st218{fill:#DE3995;} .st219{fill:#6A4055;} .st220{fill-rule:evenodd;clip-rule:evenodd;fill:url(#SVGID_1_);} .st221{fill-rule:evenodd;clip-rule:evenodd;fill:#0091CF;} .st222{fill-rule:evenodd;clip-rule:evenodd;fill:#F68B36;} .st223{fill-rule:evenodd;clip-rule:evenodd;fill:url(#SVGID_2_);} .st224{fill-rule:evenodd;clip-rule:evenodd;fill:url(#SVGID_3_);} .st225{fill-rule:evenodd;clip-rule:evenodd;fill:url(#SVGID_4_);} .st226{fill:#767C80;} .st227{clip-path:url(#SVGID_6_);} .st228{fill:url(#SVGID_7_);} .st229{fill:#F58458;} .st230{fill:url(#SVGID_8_);} .st231{fill:url(#SVGID_9_);} .st232{fill:url(#SVGID_10_);} .st233{fill:url(#SVGID_11_);} .st234{fill:url(#SVGID_12_);} .st235{fill:url(#SVGID_13_);} .st236{fill:url(#SVGID_14_);} .st237{fill:#8193CA;} .st238{fill:#505E68;} .st239{fill:#95CA59;} .st240{fill:#D6644B;} </style> <g> <path class="st0" d="M215.75,82.49c-15.26-8.4-37.39-10.46-59.19-37.39C115.91-5.29,55.52-22.82,20.86,41.97 s-23,125.31,40.59,141.5c46.72,11.86,67.92-12.73,93.85,1.2c48.26,25.93,85.45,5.47,91.71-34.33 C253.21,110.49,236.08,93.69,215.75,82.49z"></path> <path class="st1" d="M113.04,114.29c0,2-1.6,3.6-3.6,3.6H10.6c-2,0-3.6-1.6-3.6-3.6l0,0V31.64c0-2,1.6-3.6,3.6-3.6h98.85 c2,0,3.6,1.6,3.6,3.6L113.04,114.29L113.04,114.29z"></path> <path class="st2" d="M7,40.97v-9.4c0-2,1.6-3.6,3.6-3.6h98.85c2,0,3.6,1.6,3.6,3.6v9.4"></path> <line class="st3" x1="46.52" y1="35.17" x2="78.92" y2="35.17"></line> <line class="st3" x1="14.2" y1="35.17" x2="17.8" y2="35.17"></line> <line class="st3" x1="102.25" y1="35.17" x2="105.85" y2="35.17"></line> <rect x="7" y="41.1" class="st4" width="106.04" height="2.53"></rect> <path class="st5" d="M50.72,86.82c-0.2-0.2-0.2-0.47-0.27-0.67c-0.13-0.47-0.27-0.93-0.33-1.33c-0.13-0.07-0.2,0-0.27,0.07 c-0.4,0.27-0.73,0.6-1.07,0.87c-0.07,0.07-0.13,0.2-0.27,0.13l-1.13-1.6c-0.2-0.07-0.2,0.07-0.27,0.2c-0.27,0.4-0.53,0.87-0.8,1.27 c-0.07,0.13-0.2,0.27-0.33,0.07c-0.13-0.07-0.13-0.13-0.07-0.27c0.6-1.33,1.2-2.73,1.8-4.07c0.2,0.07,0.2,0.2,0.27,0.33 c0.27,0.47,0.47,0.87,0.73,1.33c0.07,0.13,0.07,0.27,0.2,0.27c0.07,0.2-0.13,0.27-0.2,0.33l1.53-1c0.13-0.07,0.2-0.27,0.13-0.4 l-0.07-0.07v-0.07c0.27-0.33,0.2,0.07,0.33,0.13c0,0.13,0,0.27,0,0.4s0,0.2,0.07,0.33c0,0.13,0,0.27,0,0.4 c0,0.13,0.07,0.2,0.07,0.27c0,0.07,0,0.33,0.07,0.47v0.13c0.07,0.13,0,0.27,0,0.4c0,0.07,0.07,0.2,0.07,0.27c0,0.2,0,0.33,0,0.53 v0.07c0.07,0.2,0,0.4,0.07,0.53v0.07C50.99,86.42,51.19,86.69,50.72,86.82z"></path> <path class="st6" d="M51.59,85.69c-0.73-0.6-0.6-1.27,0.2-1.67c0.4-0.2,0.87-0.27,1.33-0.13l0.27,0.07c0-0.13-0.13-0.2-0.2-0.2 c-0.27-0.2-0.6-0.33-0.93-0.4c-0.13,0-0.27-0.07-0.4-0.13c-0.2-0.13-0.13-0.4-0.2-0.6c1,0.07,2.2,0.67,2.47,1.6 c0,0.13,0.07,0.27,0.07,0.4c0,0.33,0,0.67,0,1.07s-0.07,0.4-0.4,0.4c-0.07,0-0.13,0-0.13-0.13s0-0.2-0.13-0.13 C52.86,86.02,52.19,86.02,51.59,85.69z"></path> <path class="st5" d="M62.12,85.89c-0.4-0.2-0.73-0.6-0.8-1.07c-0.07-0.53,0.2-1.07,0.6-1.33l0.07,0.07c0,0.07,0,0.13-0.07,0.2 c0,0.07,0,0.07,0.07,0.07c0.27-0.13,0.53-0.33,0.8-0.53c0.07,0,0-0.07,0,0h-0.07c-0.07,0-0.13,0-0.2-0.07 c0.47-0.33,1.07-0.2,1.4,0.2c0.07,0.07,0.13,0.13,0.13,0.27c0,0.8-0.53,1.53-1.33,1.8c-0.07,0-0.07,0.07-0.07,0.07 s0.07,0,0.07,0.07c0.4,0.07,0.8,0,1.2-0.2c0.53-0.2,0.53-0.2,0.87,0.27c-0.07,0.13-0.2,0.2-0.33,0.2 C63.65,86.16,62.85,86.16,62.12,85.89z"></path> <path class="st7" d="M68.19,81.69c-0.27-0.13-0.33-0.4-0.53-0.6c-0.2-0.2-0.2-0.33-0.4-0.4c-0.2-0.27-0.53-0.07-0.8-0.13 c-0.07,0-0.13,0.13-0.13-0.07c0.07-0.13,0.13-0.33,0.27-0.4c0.47-0.07,0.87-0.27,1.27-0.53c0.2-0.13,0.4-0.07,0.6,0 c0.67,0.07,1.27,0.53,1.47,1.2c0.07,0.13,0,0.27,0.07,0.4c0,0.07,0,0.2-0.07,0.27c-0.27,0-0.33-0.27-0.4-0.47 c-0.13-0.2-0.07-0.27-0.27-0.33c-0.07,0-0.2-0.13-0.27-0.2c0,0,0-0.07-0.07-0.07c-0.2,0.13-0.4-0.07-0.53-0.07 c-0.2,0-0.4-0.07-0.47-0.07c-0.13-0.07-0.07,0.07-0.07,0c0.2,0.07,0.33,0,0.53,0.07c0.2,0.07,0.4,0.13,0.6,0.2 c0.13,0.07,0.27,0.2,0.4,0.33c0.07,0.07,0.2,0.13,0.13,0.27s-0.13,0.07-0.27,0c-0.07,0-0.2,0-0.27-0.07c-0.07-0.07,0,0.07,0,0.07 c0-0.07,0,0,0,0c0.33,0,0.67,0,0.8,0.4c0,0.07,0,0.07,0,0.13C69.32,82.03,68.65,82.09,68.19,81.69z"></path> <path class="st5" d="M65.12,85.76c-0.6-0.6-0.67-1.53-0.07-2.13c0.07-0.07,0.13-0.13,0.2-0.2c0.07,0.07,0.07,0.13,0.07,0.2 c0.2,0.07,0.4-0.13,0.6-0.2l0.07-0.07c0.07-0.07,0.27,0,0.27-0.2c-0.07-0.07-0.2,0-0.2-0.2c0.73-0.13,1,0,1.27,0.53 c0.07,0.93-0.6,1.33-1.33,1.6c-0.13,0.07-0.4,0-0.47,0.27c0.6,0.2,1.27,0,1.67-0.4c0.13-0.13,0.2-0.13,0.27,0.07 c0.07,0.13-0.07,0.27,0.07,0.33c0,0,0,0,0,0.07c-0.4,0.33-0.87,0.53-1.4,0.6C65.85,86.09,65.45,85.96,65.12,85.76z"></path> <path class="st6" d="M56.99,84.09c0.2-0.27,0.47-0.53,0.67-0.73c0.33-0.27,0.67-0.27,0.87,0.07c0.07,0.13,0.07,0.2,0.07,0.33v0.87 c-0.07,0.33-0.07,0.67-0.07,1c-0.07,0.47-0.2,0.67-0.73,0.73c-0.13-0.07-0.07-0.2-0.07-0.33c0-0.6,0-1.2,0-1.73 c0-0.13,0.07-0.2-0.07-0.33c-0.33,0.07-0.53,0.4-0.6,0.73c-0.07,0.33-0.13,0.67-0.2,1c-0.07,0.33-0.2,0.53-0.6,0.6 c-0.2-0.13-0.07-0.27-0.07-0.4c0.07-0.4,0.13-0.8,0.13-1.2c0.13-1,0.2-2,0.33-3c0.13-0.13,0.2-0.07,0.27,0.07c0,0.2,0,0.33,0,0.53 c-0.07,0.4-0.07,0.87,0,1.27C56.92,83.63,56.79,83.89,56.99,84.09z"></path> <path class="st8" d="M68.72,85.89c-0.6-0.47-1-1.2-1.07-1.93c-0.07-0.47,0.27-0.87,0.73-0.93c0,0.27-0.33,0.33-0.33,0.53 c0,0.07-0.07,0.2,0,0.13c0.27-0.07,0.53-0.27,0.73-0.47c0.07-0.07,0-0.07-0.07-0.07s-0.27,0-0.27-0.13c1-0.2,1.6,0.2,2,1.2 c0.13,0.27,0.07,0.6-0.13,0.73c-0.2,0.2-0.33,0.53-0.33,0.8C69.59,86.09,69.12,86.16,68.72,85.89z"></path> <path class="st6" d="M59.86,85.69c0.2,0.13,0.33,0.2,0.53,0.33s0.27,0.13,0.4,0c0.13-0.13,0-0.27-0.07-0.4 c-0.27-0.33-0.6-0.67-0.87-0.93c-0.33-0.27-0.6-0.6-0.8-1c0.13-0.27,0.27-0.53,0.4-0.73c0.07-0.13,0.07-0.27,0-0.33 c0.8-0.13,1.2,0.27,1.6,0.87c0,0.13-0.13,0.27-0.27,0.27c-0.2-0.13-0.13-0.47-0.4-0.6c-0.07-0.13-0.2-0.13-0.33-0.13 c0,0,0,0-0.07,0c-0.13,0.07-0.2,0.2-0.13,0.4c0.4,0.67,0.93,1.27,1.4,1.93c0.13,0.13,0.2,0.33,0.27,0.47 c0.07,0.33-0.2,0.6-0.53,0.67c-0.07,0-0.07,0-0.13,0c-0.4,0-0.8,0-1.2-0.2c-0.13-0.07-0.27-0.07-0.33-0.13 c-0.27-0.27-0.07-0.4,0.13-0.53C59.59,85.69,59.72,85.76,59.86,85.69z"></path> <path class="st9" d="M54.19,83.76c-0.2-0.13-0.13-0.33-0.13-0.53s0.2-0.27,0.33-0.33c0.47-0.27,0.93-0.6,1.4-1 c0.13-0.07,0.2-0.07,0.2,0.13c0,0.53,0,1-0.07,1.53c0,0.2-0.2,0.2-0.27,0.2c-0.47,0.07-0.47,0.07-0.4,0.53v0.13 c0.07,0.13,0,0.2,0,0.33c0,0.2,0,0.33,0,0.47v0.07c0.07,0.13,0.07,0.27,0,0.4c0,0.13,0.07,0.2,0.07,0.33 c-0.07,0.33-0.13,0.4-0.53,0.33c-0.2-0.07-0.13-0.2-0.13-0.33c0-0.73,0-1.4,0-2.13C54.59,83.76,54.32,83.89,54.19,83.76z"></path> <path class="st9" d="M71.65,82.89c0.6-0.2,1.33,0.07,1.53,0.67c0,0.13-0.07,0.13-0.13,0.07l-0.27-0.27 c-0.13-0.13-0.27-0.2-0.47-0.13c-0.13,0.07-0.2,0.13-0.13,0.27c0.07,0.47,0.47,0.73,0.73,1.07c0.27,0.33,0.53,0.67,0.8,1.07 c0,0.4-0.2,0.6-0.6,0.6c-0.47,0-0.87-0.07-1.33-0.2c-0.27-0.2-0.13-0.33,0.07-0.47c0.13-0.07,0.2,0.07,0.33,0s0.27,0.13,0.4,0.2 s0.33,0.2,0.47,0c0.13-0.13-0.07-0.27-0.13-0.4c-0.4-0.4-0.8-0.8-1.2-1.2c-0.2-0.2-0.33-0.4-0.4-0.6c-0.13-0.2-0.07-0.47,0.13-0.6 l0,0c0.07,0.07,0,0.2,0,0.33C71.52,83.23,71.72,83.09,71.65,82.89z"></path> <path class="st7" d="M70.32,80.23c0.07-0.53,0.47-1,1.07-1.07c0.4-0.07,0.8,0.2,0.93,0.6c-0.07,0.07-0.13,0.07-0.2,0.07 c-0.2,0.07-0.33,0.13-0.33,0.33c0,0.13-0.07,0.27-0.07,0.47c-0.07,0.33-0.27,0.6-0.6,0.67c-0.2,0.07-0.47,0.13-0.67,0.27 l-0.07-0.07c-0.07-0.33-0.07-0.6,0.13-0.87c0.07-0.07,0.13-0.07,0.2-0.13c0.07-0.07,0.13-0.07,0.2-0.13c0.07,0,0,0,0,0 s-0.2,0.13-0.27,0.2s-0.13,0-0.13-0.07c0-0.07,0.07-0.13,0.07-0.2v-0.07l-0.07,0.07c-0.13,0.07-0.07,0.27-0.27,0.2 C70.32,80.36,70.32,80.29,70.32,80.23z"></path> <path class="st10" d="M69.92,85.69c-0.07-0.2,0-0.47,0.13-0.6c0.27-0.2,0.4-0.53,0.4-0.93c0.13-0.93,0-1.87-0.4-2.73v-0.07 c0.53,0.53,0.93,1.27,1.07,2c0,0.27,0,0.47,0,0.73c0,0.4-0.13,0.8-0.33,1.13C70.65,85.62,70.25,85.82,69.92,85.69z"></path> <path class="st11" d="M56.72,81.56c0.07,0.4,0.07,0.8,0,1.2c-0.07,0.8-0.2,1.6-0.27,2.4c0,0.2-0.07,0.4-0.07,0.6 c0,0.07-0.07,0-0.13,0c0-0.27,0-0.6,0.07-0.87c0.07-0.2,0.07-0.33,0-0.53c-0.07-0.6,0.07-1.13,0.07-1.73c0.2,0,0.13,0.2,0.13,0.27 c0,0.33-0.07,0.67-0.07,1c0-0.73,0.07-1.47,0.13-2.2c0-0.07,0-0.07,0-0.13L56.72,81.56z"></path> <path class="st12" d="M55.72,81.89c0.07,0.13-0.07,0.2-0.13,0.27l-1.53,1.07c-0.07-0.13-0.07-0.27-0.07-0.33s0.07-0.07,0.07-0.13 c0.33-0.2,0.67-0.4,0.93-0.67c0.07-0.07,0.13,0,0.2-0.07C55.32,81.96,55.52,81.89,55.72,81.89z"></path> <path class="st13" d="M50.32,82.29c0.13,0.13,0.13,0.4-0.07,0.53c-0.07,0-0.07,0.07-0.13,0.07c-0.47,0.27-0.87,0.6-1.33,0.87 c-0.13,0.07-0.27,0.13-0.4,0.2c0.07-0.27,0.4-0.27,0.47-0.53c0.13-0.2,0.33-0.33,0.53-0.47h0.07c0.27-0.07,0.53-0.27,0.73-0.47 C50.26,82.36,50.32,82.36,50.32,82.29z"></path> <path class="st14" d="M69.92,85.69c0.67-0.13,0.93-0.47,1.07-1.2c0-0.13,0.07-0.27,0.07-0.4c0.13,0.07,0.07,0.13,0.07,0.2 c0.07,0.73-0.4,1.33-1.13,1.47c-0.07,0.07-0.2,0.07-0.27,0.13c-0.33,0.2-0.73,0.13-1-0.13C69.12,86.02,69.59,85.96,69.92,85.69z"></path> <path class="st15" d="M65.59,85.49c-0.07,0-0.13,0-0.2-0.07c0-0.07,0.07-0.07,0.13-0.13c0.4-0.13,0.8-0.27,1.13-0.47 c0.4-0.27,0.67-0.73,0.67-1.2c0.13,0.53-0.07,1.07-0.53,1.33C66.39,85.16,65.99,85.36,65.59,85.49z"></path> <path class="st16" d="M56.26,86.16c0.67-0.2,0.6-0.8,0.67-1.33c0.07-0.47,0.33-0.93,0.73-1.27c0.07,0.07,0,0.2,0,0.27 c-0.6,0.4-0.6,1.07-0.67,1.67c0,0.33-0.2,0.6-0.53,0.73C56.32,86.36,56.26,86.29,56.26,86.16z"></path> <path class="st17" d="M68.45,79.56c-0.47-0.13-0.67,0.27-1.07,0.4c-0.2,0.07-0.4,0.13-0.6,0.27c-0.13,0.07-0.2,0-0.27-0.07 C67.05,79.56,67.79,79.36,68.45,79.56z"></path> <path class="st18" d="M70.39,81.56c0.07-0.2,0.2-0.27,0.4-0.27c0.47,0,0.87-0.4,0.87-0.93c0.07-0.53,0.07-0.53,0.67-0.53 c0.13,0.13,0.07,0.13-0.07,0.13c-0.33,0-0.4,0.2-0.47,0.47c0,0.2-0.07,0.47-0.13,0.67s-0.27,0.33-0.47,0.4 c-0.2,0-0.47,0.07-0.6,0.27C70.45,81.69,70.45,81.56,70.39,81.56z"></path> <path class="st19" d="M62.65,85.56c-0.13,0.07-0.27,0.07-0.33-0.07c0.87-0.2,1.53-0.93,1.67-1.87c0.2,0.6-0.4,1.47-0.93,1.73 C62.92,85.49,62.79,85.49,62.65,85.56z"></path> <path class="st20" d="M62.12,85.89c0.4,0.07,0.8,0.07,1.13,0.13c0.47-0.07,0.93-0.2,1.4-0.4c0.07,0.07,0.13,0.13,0,0.2 C63.85,86.09,62.99,86.42,62.12,85.89z"></path> <path class="st21" d="M65.12,85.76c0.87,0.4,1.67,0.13,2.47-0.33c0,0.07,0.07,0.13-0.07,0.2c-0.53,0.4-1.6,0.67-2.2,0.27 C65.25,85.89,65.19,85.82,65.12,85.76z"></path> <path class="st19" d="M48.46,85.89l1.47-1.2c0.13-0.13,0.2-0.13,0.2,0.07l-1.4,1.13C48.66,86.02,48.52,86.09,48.46,85.89z"></path> <path class="st22" d="M45.92,85.82c0.2,0.13,0.27-0.07,0.33-0.13l0.8-1.33c0.07-0.13,0.13-0.27,0.27,0l-1,1.6 C46.19,86.09,46.06,86.09,45.92,85.82z"></path> <path class="st23" d="M51.59,85.69c0.27,0,0.53,0.13,0.87,0.13c0.47,0.07,0.93-0.13,1.27-0.4c0,0.13,0,0.27-0.07,0.4 c-0.4,0.13-0.87,0.2-1.27,0.13C52.06,85.96,51.79,85.89,51.59,85.69z"></path> <path class="st24" d="M59.32,86.29c0.27,0,0.53,0.07,0.8,0.13c0.27,0.07,0.47,0.07,0.73,0c0.33,0,0.6-0.27,0.67-0.6 c0.13,0.4-0.07,0.67-0.53,0.73C60.39,86.62,59.86,86.56,59.32,86.29z"></path> <path class="st25" d="M71.79,86.09c0.4,0,0.8,0.2,1.2,0.13c0.4,0,0.6-0.13,0.73-0.53c0.13,0.4,0,0.67-0.47,0.67 C72.79,86.42,72.25,86.36,71.79,86.09z"></path> <path class="st26" d="M56.52,81.63c0.13,0,0.13,0.07,0.13,0.2c-0.07,0.73-0.13,1.4-0.2,2.2c-0.07-0.53,0.07-1-0.07-1.4 c-0.07-0.2,0-0.47,0.07-0.67c0.07,0.07,0.07,0.13,0.07,0.2c0-0.13,0-0.27,0-0.47C56.52,81.69,56.52,81.69,56.52,81.63z"></path> <path class="st27" d="M69.85,81.43c0.07-0.07,0.07-0.13,0.07-0.2c0.13,0.07,0.07,0.13,0.07,0.2c0,0.13-0.07,0.27-0.13,0.27 c-0.53,0.33-1.4,0.33-1.73-0.07c0.53,0.2,1.13,0.2,1.6-0.13C69.85,81.56,69.79,81.49,69.85,81.43z"></path> <path class="st28" d="M57.79,86.36c0.67-0.2,0.73-0.67,0.73-1.2c-0.07-0.13,0-0.33,0.07-0.47c0.07,0.07,0,0.13,0.07,0.2 c0,0.4-0.07,0.73-0.07,1.07c-0.13,0.27-0.4,0.47-0.73,0.47C57.86,86.42,57.79,86.36,57.79,86.36z"></path> <path class="st29" d="M55.26,84.23c-0.2-0.53-0.2-0.6,0.33-0.6c0.2,0,0.27-0.07,0.33-0.33c0-0.47,0.07-0.87,0.07-1.33 c0.2,0.27,0,0.53,0.07,0.8c-0.07,0.13,0,0.33-0.07,0.53c0,0.27,0.07,0.53-0.33,0.53C55.19,83.76,55.19,83.96,55.26,84.23z"></path> <path class="st30" d="M59.39,82.56c0.07,0.07,0.2,0.07,0.13,0.2c-0.13,0.33-0.33,0.6-0.53,0.87c-0.2-0.4-0.2-0.6,0.07-0.93 c0.13,0.13-0.07,0.27,0,0.4c0-0.13,0.4-0.27,0-0.4C59.12,82.63,59.26,82.56,59.39,82.56z"></path> <path class="st31" d="M65.19,83.76l0.07-0.33c0.2-0.2,0.47-0.33,0.8-0.4l0.33,0.13c-0.07,0.2-0.27,0.2-0.4,0.27 C65.72,83.56,65.45,83.76,65.19,83.76z"></path> <path class="st32" d="M67.99,83.56c0.07-0.27,0.33-0.33,0.4-0.47l0.07-0.07c0.13,0.07,0.2,0,0.33,0.07c0,0.07,0.07,0.07,0,0.13 c-0.2,0.27-0.47,0.4-0.8,0.47C68.05,83.69,67.99,83.63,67.99,83.56L67.99,83.56z"></path> <path class="st33" d="M62.45,83.16h0.27c-0.2,0.33-0.53,0.53-0.93,0.67c0,0-0.07-0.07,0-0.07l0.07-0.13 c0.07-0.13,0.2-0.2,0.27-0.33C62.25,83.23,62.39,83.16,62.45,83.16z"></path> <path class="st34" d="M51.79,83.09c0.4,0.07,0.73,0.13,1.07,0.27c0.13,0.07,0.27,0.07,0.27,0.27c-0.33-0.2-0.73-0.27-1.07-0.33 C51.99,83.29,51.86,83.29,51.79,83.09z"></path> <path class="st35" d="M53.79,85.96c0.27-0.07,0.4-0.27,0.33-0.53c0-0.33,0-0.6,0-0.93c0-0.07,0-0.07,0.07,0 c0.07,0.47,0.07,0.87,0,1.33c0,0.07,0,0.2-0.13,0.2S53.86,86.16,53.79,85.96z"></path> <path class="st36" d="M70.59,80.56c-0.2,0.27-0.27,0.6-0.2,0.93c-0.07-0.27-0.07-0.53-0.07-0.73c0.07-0.07,0-0.2,0.07-0.27 c0.07-0.07,0.13-0.2,0.27-0.27l0,0l-0.07,0.2C70.52,80.43,70.59,80.49,70.59,80.56z"></path> <path class="st37" d="M72.19,83.56c-0.13-0.13-0.13-0.33,0.13-0.33c0.2-0.07,0.4,0,0.47,0.2l0,0 C72.59,83.36,72.32,83.29,72.19,83.56z"></path> <path class="st38" d="M71.65,82.89c0.07,0,0.13,0,0.07,0.13l-0.27,0.6c-0.13-0.2,0-0.4,0-0.53L71.65,82.89z"></path> <path class="st39" d="M66.45,80.56c0.27-0.13,0.6-0.2,0.8,0.13c-0.2-0.07-0.4-0.07-0.6,0C66.52,80.76,66.45,80.69,66.45,80.56z"></path> <path class="st40" d="M50.32,82.49c-0.2,0.27-0.47,0.47-0.8,0.47c0.07-0.13,0.27-0.27,0.33-0.4c0,0,0,0,0.07,0h0.07 C50.12,82.56,50.19,82.36,50.32,82.49z"></path> <path class="st41" d="M56.92,83.56v-1.47c0.13,0,0.07,0.07,0.07,0.13v1.6C56.79,83.76,56.86,83.63,56.92,83.56z"></path> <path class="st42" d="M59.86,83.49c-0.13-0.2-0.13-0.33,0.07-0.47c0.2-0.07,0.33-0.07,0.4,0.13c-0.13-0.07-0.33,0-0.47,0.13 C59.86,83.36,59.86,83.43,59.86,83.49z"></path> <path class="st43" d="M71.12,84.36c0-0.07,0-0.13-0.07-0.2c0-0.27,0-0.53,0.07-0.8C71.25,83.69,71.25,84.09,71.12,84.36z"></path> <path class="st44" d="M54.86,86.36c0.2-0.13,0.53,0,0.53-0.33c0-0.07,0-0.07,0.07-0.07c0.07,0.47,0,0.53-0.4,0.53 C54.92,86.49,54.86,86.42,54.86,86.36z"></path> <path class="st45" d="M54.06,82.76l-0.07,0.07c-0.07-0.13-0.13-0.27-0.13-0.47c0-0.33,0.27-0.13,0.4-0.2l0.07,0.07 c0,0,0,0.07-0.07,0.07c-0.07,0.07-0.2,0.07-0.13,0.2C54.12,82.63,54.12,82.69,54.06,82.76z"></path> <path class="st46" d="M50.72,86.82c0.27-0.13,0.2-0.4,0.27-0.6c0.13,0.13,0.13,0.33,0.13,0.53C51.06,86.96,50.92,86.96,50.72,86.82 z"></path> <path class="st47" d="M60.72,83.76c0.07-0.13,0.2-0.2,0.27-0.27c0.13,0.27-0.13,0.33-0.2,0.47C60.79,83.89,60.79,83.83,60.72,83.76 z"></path> <path class="st35" d="M58.66,84.82c-0.07-0.07-0.07-0.13-0.07-0.2c0-0.33,0-0.67,0-0.93l0,0l0,0 C58.66,84.09,58.66,84.49,58.66,84.82z"></path> <path class="st48" d="M54.19,83.76c0.2,0.07,0.4-0.2,0.53,0.13C54.59,83.83,54.32,84.03,54.19,83.76z"></path> <path class="st49" d="M56.92,83.56c0,0.07,0,0.2,0.07,0.27v0.27c0,0.07-0.07,0.07-0.07,0.13c-0.07,0-0.07-0.07-0.07-0.07 C56.86,83.89,56.79,83.69,56.92,83.56z"></path> <path class="st50" d="M56.99,82.23l-0.07-0.13c0-0.13,0-0.33,0.07-0.47C57.12,81.83,56.99,82.03,56.99,82.23z"></path> <path class="st51" d="M59.86,85.69c-0.13,0.2-0.27,0.2-0.33,0l0,0c0.07-0.07,0.13-0.13,0.2-0.07L59.86,85.69z"></path> <path class="st52" d="M56.52,81.63v0.07c-0.07,0.2,0,0.4-0.07,0.6c-0.13-0.07,0-0.27-0.07-0.33 C56.32,81.89,56.32,81.69,56.52,81.63C56.59,81.63,56.59,81.63,56.52,81.63z"></path> <path class="st53" d="M69.99,81.49l-0.07-0.2v-0.47c0.07,0.2,0.13,0.4,0.13,0.6L69.99,81.49L69.99,81.49z"></path> <path class="st54" d="M49.86,82.56c0,0.2-0.2,0.27-0.33,0.4h-0.07L49.86,82.56z"></path> <path class="st6" d="M56.26,84.36c0.13,0.2,0,0.4,0.07,0.6l0,0l-0.07-0.07V84.36z"></path> <path class="st9" d="M55.19,82.03c0,0.07-0.07,0.07-0.13,0.07c-0.07,0.13-0.2,0.13-0.27,0.13l0,0v-0.07 C54.86,82.03,54.99,82.03,55.19,82.03z"></path> <path class="st12" d="M54.66,82.09L54.66,82.09c-0.13,0.27-0.27,0.2-0.4,0.13v-0.07L54.66,82.09z"></path> <path class="st55" d="M49.99,82.56h-0.13c0.13-0.13,0.27-0.27,0.4-0.33v0.07C50.26,82.49,50.19,82.56,49.99,82.56z"></path> <path class="st56" d="M50.92,85.49c-0.13-0.2-0.07-0.33-0.07-0.53h0.07C50.92,85.09,50.92,85.29,50.92,85.49z"></path> <path class="st57" d="M50.99,86.09c-0.07-0.2-0.07-0.33-0.07-0.53C51.06,85.69,50.99,85.89,50.99,86.09z"></path> <path class="st58" d="M72.25,85.62c-0.07,0.07-0.27,0.13-0.33,0l0,0l0,0c0.07-0.07,0.13-0.13,0.27-0.07l0,0L72.25,85.62z"></path> <path class="st59" d="M55.26,85.16c-0.07-0.2-0.07-0.33-0.07-0.53h0.07V85.16z"></path> <path class="st60" d="M50.79,84.16c-0.13-0.13-0.07-0.33-0.07-0.47h0.07l0,0C50.79,83.83,50.79,84.03,50.79,84.16z"></path> <path class="st61" d="M73.05,83.69l0.13-0.07c0.07,0.07,0.13,0.13,0.07,0.2C73.19,83.83,73.12,83.76,73.05,83.69z"></path> <path class="st62" d="M55.92,83.29c0-0.2-0.07-0.33,0.07-0.53C55.99,82.96,55.99,83.09,55.92,83.29z"></path> <path class="st63" d="M62.19,83.29c-0.07,0.13-0.13,0.27-0.27,0.33v-0.07C61.99,83.43,62.05,83.36,62.19,83.29z"></path> <path class="st64" d="M58.66,83.69L58.66,83.69c-0.13-0.07-0.07-0.2-0.07-0.27C58.59,83.43,58.66,83.56,58.66,83.69z"></path> <path class="st65" d="M50.86,84.89L50.86,84.89c-0.13-0.07-0.13-0.13-0.13-0.2c0-0.07,0.07,0,0.07,0 C50.92,84.76,50.92,84.82,50.86,84.89z"></path> <path class="st66" d="M50.59,82.76c0-0.13-0.07-0.27,0.07-0.4L50.59,82.76C50.59,82.83,50.59,82.83,50.59,82.76z"></path> <path class="st67" d="M55.39,85.89l-0.07,0.07c-0.07-0.07-0.07-0.2-0.07-0.27c0-0.13,0.07,0,0.07,0 C55.39,85.76,55.46,85.82,55.39,85.89z"></path> <path class="st68" d="M50.86,84.69L50.86,84.69c-0.07-0.13-0.07-0.27-0.07-0.4C50.92,84.42,50.86,84.56,50.86,84.69z"></path> <path class="st69" d="M50.66,83.49v-0.4h0.07l0.07,0.4C50.72,83.49,50.66,83.49,50.66,83.49L50.66,83.49z"></path> <path class="st70" d="M50.66,83.49h0.07c0.07,0.07,0.07,0.13,0.07,0.2h-0.07C50.59,83.63,50.66,83.56,50.66,83.49z"></path> <path class="st71" d="M54.19,84.49L54.19,84.49c-0.13-0.13-0.13-0.2-0.13-0.33C54.12,84.29,54.19,84.36,54.19,84.49z"></path> <path class="st9" d="M72.19,85.56c-0.07,0-0.2,0-0.27,0.07C71.92,85.42,72.05,85.42,72.19,85.56z"></path> <path class="st72" d="M50.66,83.03L50.66,83.03c-0.13-0.07-0.13-0.2-0.13-0.27h0.07L50.66,83.03z"></path> <path class="st73" d="M70.39,80.43c0,0.07,0,0.2-0.07,0.27c0-0.13,0-0.27,0.07-0.4V80.43z"></path> <path class="st25" d="M55.39,85.69L55.39,85.69c-0.07-0.13-0.07-0.27-0.07-0.4C55.46,85.36,55.32,85.56,55.39,85.69z"></path> <path class="st6" d="M59.66,85.62l-0.2,0.07c0-0.07,0-0.13,0.07-0.13C59.59,85.49,59.66,85.56,59.66,85.62L59.66,85.62z"></path> <path class="st74" d="M55.26,84.62L55.26,84.62c-0.13-0.07-0.07-0.2-0.07-0.27C55.26,84.42,55.32,84.56,55.26,84.62z"></path> <path class="st75" d="M67.59,85.42c-0.13-0.07-0.07-0.2-0.07-0.33C67.65,85.16,67.52,85.29,67.59,85.42z"></path> <path class="st76" d="M47.99,82.43c0.07,0.07,0.13,0.13,0.07,0.2c-0.47,0.53-0.87,1.13-1.47,1.73c0-0.27,0.13-0.47,0.27-0.67 c0.27-0.4,0.53-0.73,0.8-1.07C47.72,82.56,47.86,82.43,47.99,82.43z"></path> <path class="st77" d="M47.99,82.43c-0.4,0.4-0.67,0.93-1.13,1.33c0-0.2,0.07-0.33,0.2-0.47c0.27-0.33,0.53-0.67,0.87-1L47.99,82.43 z"></path> <path class="st78" d="M47.92,82.29c-0.2,0.4-0.53,0.73-0.87,1c0-0.13,0.07-0.2,0.13-0.27c0.13-0.33,0.4-0.6,0.67-0.87L47.92,82.29z "></path> <path class="st79" d="M47.86,82.16c-0.2,0.33-0.4,0.6-0.67,0.87c0.07-0.2,0.13-0.47,0.27-0.67c0.13-0.07,0.2-0.27,0.27-0.33 L47.86,82.16z"></path> <path class="st80" d="M47.72,82.03c0,0.2,0,0.33-0.27,0.33c0.07-0.13,0.07-0.27,0.13-0.4C47.66,81.83,47.72,81.89,47.72,82.03z"></path> <path class="st81" d="M49.99,82.56c0.13-0.07,0.2-0.13,0.27-0.27h0.07c0,0.07,0,0.13,0,0.2C50.19,82.49,50.19,82.69,49.99,82.56z"></path> <path class="st82" d="M53.46,84.96c0.07,0.13,0.07,0.27,0,0.4c-0.27,0.33-0.8,0.4-1.13,0.2c0-0.4,0.33-0.67,0.67-0.67 c0.07,0,0.13,0,0.2,0C53.26,84.82,53.32,84.89,53.46,84.96z"></path> <path class="st83" d="M53.46,84.96c-0.27-0.07-0.53-0.07-0.8,0.07c-0.2,0.07-0.33,0.27-0.33,0.47c-0.07-0.07-0.13-0.13-0.07-0.27 c0.07-0.27,0.27-0.4,0.53-0.47C52.99,84.69,53.26,84.62,53.46,84.96z"></path> <path class="st84" d="M52.06,84.23l-0.47,0.33c-0.07,0.07-0.07,0.07-0.13,0.07c-0.07-0.07-0.07-0.13,0-0.2 c0.13-0.2,0.33-0.27,0.53-0.33L52.06,84.23z"></path> <path class="st82" d="M63.19,84.09c0.13,0.2,0.13,0.47-0.07,0.67c-0.13,0.2-0.4,0.4-0.67,0.4c-0.2,0-0.2-0.13-0.27-0.27 c0.07-0.33,0.27-0.6,0.53-0.73C62.92,84.03,63.05,83.96,63.19,84.09z"></path> <path class="st85" d="M63.19,84.09c-0.33,0-0.6,0.13-0.73,0.47c-0.07,0.07-0.13,0.2-0.2,0.33c0-0.47,0.27-0.87,0.73-0.93 C63.05,83.96,63.12,83.96,63.19,84.09z"></path> <path class="st86" d="M61.85,83.76c0.33-0.07,0.67-0.27,0.93-0.53c0.07,0,0.13,0,0.13,0l-0.07,0.13l-0.8,0.53 c-0.07,0.07-0.13,0.13-0.2,0.07C61.79,83.96,61.79,83.83,61.85,83.76L61.85,83.76z"></path> <path class="st87" d="M69.85,81.43c0,0.07,0,0.13-0.07,0.13c-0.13-0.47-0.6-0.4-0.93-0.53c0.2-0.07,0.4,0,0.6,0 c-0.13-0.27-0.33-0.4-0.53-0.53c0-0.13,0-0.13,0.13-0.13c0.13,0.2,0.13,0.2,0.33,0.2c0.07,0,0.07,0.07,0.07,0.13 C69.59,80.96,69.72,81.23,69.85,81.43z"></path> <path class="st88" d="M69.05,80.43c-0.07,0-0.13,0.07-0.13,0.13c-0.2-0.07-0.33-0.2-0.53-0.2c0-0.07,0-0.07,0.07-0.07 c0.13,0,0.2,0.07,0.33,0.07c0.27,0.07,0.07-0.13,0.13-0.13C68.92,80.16,68.99,80.29,69.05,80.43z"></path> <path class="st89" d="M68.39,80.29L68.39,80.29c-0.27,0-0.47,0-0.6-0.13C67.99,80.16,68.19,80.16,68.39,80.29z"></path> <path class="st90" d="M66.19,84.03c0.13,0.27,0,0.6-0.27,0.73l0,0c-0.2,0.13-0.4,0.33-0.6,0c-0.07-0.33,0.2-0.73,0.53-0.73 C65.99,84.03,66.12,84.03,66.19,84.03z"></path> <path class="st91" d="M66.19,84.03c-0.47,0-0.8,0.33-0.87,0.73c-0.13-0.27-0.07-0.6,0.2-0.73l0,0 C65.79,83.96,65.99,83.69,66.19,84.03z"></path> <path class="st92" d="M65.19,83.76c0.27-0.07,0.47-0.27,0.73-0.27C65.72,83.63,65.52,83.83,65.19,83.76z"></path> <path class="st92" d="M65.99,83.49l0.4-0.27C66.39,83.49,66.12,83.43,65.99,83.49z"></path> <path class="st93" d="M57.86,83.89c-0.07-0.2,0-0.4,0.13-0.53c0,0,0.07-0.07,0.13-0.07c0.07,0,0.07,0.07,0.07,0.13l0,0 C58.06,83.63,57.99,83.76,57.86,83.89z"></path> <path class="st94" d="M68.45,83.89c0.33-0.27,0.8-0.13,1.07,0.2c0,0,0,0,0,0.07c0.07,0.07,0.07,0.2,0.13,0.27 c0,0.07-0.07,0.13-0.07,0.07c-0.4-0.07-0.73-0.2-1.07-0.47C68.45,84.03,68.45,83.96,68.45,83.89z"></path> <path class="st95" d="M68.45,83.89c0.4,0.27,0.8,0.47,1.27,0.47c0.13,0.13,0.07,0.27,0.07,0.4c-0.47-0.07-0.93-0.2-1.33-0.4 c-0.13-0.07-0.13-0.2-0.07-0.33C68.39,83.96,68.45,83.89,68.45,83.89z"></path> <path class="st96" d="M68.39,84.03c-0.07,0.13,0.07,0.27,0.2,0.33l0,0c0.4,0.13,0.8,0.27,1.2,0.47c0,0.13-0.07,0.2-0.13,0.27 c-0.47-0.13-0.87-0.27-1.27-0.47C68.39,84.36,68.25,84.23,68.39,84.03z"></path> <path class="st97" d="M68.39,84.56c0.47,0.07,0.87,0.27,1.27,0.47C69.19,85.36,68.72,85.16,68.39,84.56z"></path> <path class="st98" d="M67.99,83.56c0.33,0,0.67-0.2,0.87-0.47c0.2,0.13,0.2,0.2,0,0.33c-0.27,0.2-0.6,0.4-0.93,0.47 C67.85,83.76,67.92,83.63,67.99,83.56z"></path> <path class="st99" d="M70.72,80.43c0.07-0.13,0.2-0.2,0.4-0.2C70.99,80.29,70.85,80.36,70.72,80.43L70.72,80.43z"></path> <path class="st100" d="M70.92,79.83c0.07-0.13,0.2-0.2,0.33-0.2C71.19,79.76,71.05,79.83,70.92,79.83z"></path> <path class="st101" d="M70.59,80.56c-0.07-0.07-0.07-0.13,0-0.2c0,0.07,0.07,0.07,0.13,0.07l0,0L70.59,80.56z"></path> <path class="st36" d="M70.65,80.09c0-0.07,0-0.2,0.13-0.2C70.79,80.03,70.72,80.09,70.65,80.09L70.65,80.09z"></path> <path class="st102" d="M54.26,82.23c0.13,0,0.27,0.07,0.4-0.07c0.13,0,0.27,0,0.33-0.07c0,0.2-0.2,0.2-0.27,0.33 c-0.2,0.13-0.47,0.27-0.67,0.4l-0.07-0.27C54.06,82.36,54.19,82.43,54.26,82.23L54.26,82.23z"></path> <path class="st103" d="M56.46,82.36c0-0.2-0.07-0.4,0.07-0.6C56.52,81.89,56.59,82.16,56.46,82.36z"></path> <path class="st104" d="M59.06,82.76c0.07,0,0.2-0.07,0.33-0.07c-0.07,0.27-0.2,0.47-0.4,0.67C58.79,83.16,59.06,82.96,59.06,82.76 L59.06,82.76z"></path> <path class="st105" d="M65.32,83.56c0.2-0.2,0.53-0.33,0.8-0.33C65.85,83.36,65.59,83.49,65.32,83.56z"></path> <path class="st106" d="M54.26,82.29c0,0,0.13,0,0.07,0.07c-0.07,0.13-0.2,0.13-0.33,0.13C53.92,82.23,54.12,82.29,54.26,82.29z"></path> <path class="st107" d="M94.85,57.63c0.67-0.07,1.33,0.07,1.87,0.4c0.87,0.67,1.27,1.8,0.87,2.87c-0.93,2.33-1.87,4.6-2.8,6.93 c-0.8,1.73-2.67,2.8-4.6,2.6c-1.13-0.13-2.33-0.13-3.53-0.2l-6.53-0.33l-3.93-0.2l-7.4-0.4c-1.6-0.07-3.13-0.2-4.73-0.27 c-1.27,0-2.27-0.93-2.47-2.2c-0.27-1.73-0.53-3.47-0.8-5.2c-0.2-0.67,0-1.4,0.4-1.93c0.27-0.33,0.73-0.53,1.2-0.53l6.07-0.27 l6.8-0.33l6.6-0.33l6.73-0.33L94.85,57.63z"></path> <path class="st108" d="M51.59,57.3c0.47-0.07,1,0,1.4,0.2c1.2,0.53,1.8,1.87,1.27,3.07c-0.8,2.07-1.6,4.13-2.47,6.2 c-0.27,0.73-0.67,1.4-1.27,1.93c-0.93,0.87-2.13,1.27-3.4,1.2c-0.93-0.07-1.87-0.07-2.73-0.13l-5.2-0.27l-2.73-0.13l-5.13-0.27 l-2.67-0.13l-5.2-0.27c-0.73-0.07-1.47-0.13-2.2-0.13c-1-0.07-1.8-0.8-2.07-1.73c-0.2-0.73-0.27-1.47-0.4-2.2 c-0.2-1.13-0.33-2.27-0.53-3.33c-0.13-0.6,0-1.2,0.33-1.67c0.27-0.47,0.73-0.73,1.27-0.73c1.8-0.07,3.6-0.13,5.4-0.27l5.27-0.27 l5.27-0.27l5.33-0.27l5.33-0.27L51.59,57.3z"></path> <path class="st109" d="M63.32,63.9c0-0.67,0-1.27,0-1.93c0-0.27,0.13-0.4,0.33-0.4c0.4,0,0.8,0,1.2,0.07c0.53,0,1,0.4,1.13,0.93 c0.2,0.53,0.07,1.07-0.33,1.47c-0.4,0.4-0.4,0.4-0.13,0.87c0.2,0.27,0.33,0.6,0.53,0.87c0.07,0.13,0.2,0.27,0,0.4 c-0.13,0.07-0.33,0-0.4-0.13c-0.2-0.27-0.4-0.6-0.53-0.93l-0.2-0.33c-0.2-0.33-0.6-0.47-1-0.33c-0.13,0.07-0.13,0.13-0.13,0.2 c0,0.4,0,0.8,0,1.2c0,0.2-0.07,0.33-0.27,0.33s-0.2-0.2-0.2-0.33V63.9z"></path> <path class="st109" d="M81.72,65.23c0.27-0.6,0.4-1.13,0.6-1.67c0.07-0.13,0.07-0.2,0.13-0.33c0.07-0.13,0.13-0.2,0.27-0.13 c0.13,0,0.2,0.13,0.2,0.27l0,0c0,0.07,0,0.13-0.07,0.2c-0.27,0.8-0.53,1.6-0.8,2.33c-0.07,0.13-0.07,0.33-0.33,0.33 s-0.27-0.2-0.27-0.33l-0.6-1.87c-0.13,0.4-0.27,0.8-0.4,1.2c-0.07,0.27-0.13,0.53-0.27,0.8c-0.07,0.13-0.13,0.27-0.27,0.27 c-0.13,0-0.2-0.13-0.27-0.27c-0.27-0.87-0.6-1.73-0.87-2.6c-0.07-0.13,0-0.27,0.13-0.33c0,0,0,0,0.07,0 c0.2-0.07,0.27,0.13,0.33,0.27c0.2,0.53,0.33,1.07,0.53,1.6c0,0.07,0,0.2,0.2,0.27c0.13-0.47,0.33-1,0.47-1.47 c0.07-0.13,0.07-0.27,0.13-0.4s0.13-0.27,0.27-0.27s0.2,0.13,0.27,0.27c0.13,0.53,0.33,1.07,0.47,1.6 C81.65,64.96,81.65,65.03,81.72,65.23z"></path> <path class="st109" d="M76.32,63.36c0-0.47,0-0.87,0-1.33c0-0.2,0-0.4,0.27-0.4s0.27,0.2,0.27,0.4c0,0.87,0,1.73,0,2.6 c0,0.73-0.47,1.33-1.2,1.53c-0.73,0.2-1.47-0.07-1.87-0.73c-0.4-0.67-0.27-1.53,0.33-2.07c0.53-0.53,1.4-0.53,2-0.07 C76.12,63.36,76.25,63.36,76.32,63.36z"></path> <path class="st110" d="M91.05,64.83c-0.27,0-0.6,0-0.87,0s-0.27,0.07-0.2,0.27c0.27,0.53,0.87,0.8,1.4,0.6h0.07 c0.13-0.07,0.2-0.13,0.27-0.13c0.13-0.07,0.2-0.07,0.27,0.07c0.07,0.13,0.07,0.27-0.07,0.33l0,0c-0.53,0.33-1.13,0.4-1.73,0.2 c-0.53-0.27-0.87-0.8-0.87-1.33c-0.13-0.8,0.33-1.53,1.13-1.73c0.8-0.27,1.6,0.2,1.87,0.93c0.07,0.13,0.07,0.33,0.07,0.53 s-0.13,0.27-0.27,0.27L91.05,64.83L91.05,64.83z"></path> <path class="st109" d="M68.25,64.76c-0.33,0-0.67,0-0.93,0c-0.2,0-0.2,0.07-0.2,0.27c0.13,0.53,0.73,0.87,1.27,0.73h0.07 c0.13-0.07,0.27-0.13,0.47-0.2c0.13-0.07,0.33,0,0.4,0.13c0.07,0.13-0.07,0.2-0.13,0.27c-0.53,0.4-1.27,0.47-1.87,0.13 c-0.53-0.33-0.87-1-0.73-1.6c0.07-0.8,0.73-1.47,1.6-1.4c0.73,0.07,1.4,0.67,1.4,1.4c0,0.27-0.07,0.4-0.33,0.4h-1V64.76z"></path> <path class="st109" d="M72.52,65.83c-0.33,0.27-0.73,0.47-1.2,0.47c-0.87,0-1.53-0.73-1.53-1.6l0,0c0-0.87,0.6-1.53,1.47-1.6 c0.87-0.13,1.67,0.47,1.8,1.33c0,0.07,0,0.13,0,0.27c0,0.47,0,0.93,0,1.33c0,0.13-0.07,0.33-0.27,0.33s-0.27-0.13-0.27-0.27 C72.52,65.96,72.52,65.9,72.52,65.83z"></path> <path class="st109" d="M87.52,64.5c0-0.13,0-0.27,0-0.4c0-0.27,0.07-0.6-0.4-0.53c-0.13,0-0.13-0.07-0.13-0.2 c0-0.13,0.07-0.2,0.2-0.2l0,0c0.47,0.07,0.4-0.27,0.33-0.53c0-0.13,0-0.2,0-0.33c0-0.07,0.07-0.27,0.27-0.27 c0.2,0,0.27,0.13,0.27,0.27c0,0.13,0,0.33,0,0.47c0,0.27,0.07,0.4,0.33,0.33c0.07,0,0.2,0,0.27,0c0.13,0,0.27,0.13,0.27,0.27 s-0.13,0.2-0.27,0.2c-0.53,0-0.53,0-0.53,0.53c0,0.33,0,0.67,0,1.07s0.2,0.53,0.53,0.53c0.2,0,0.4,0,0.4,0.27 c0,0.27-0.27,0.27-0.47,0.27c-0.6-0.07-1-0.53-1-1.13C87.52,64.9,87.52,64.63,87.52,64.5L87.52,64.5z"></path> <path class="st109" d="M92.98,64.63v-1.27c0-0.13,0-0.2,0.13-0.27c0.13-0.07,0.27,0,0.33,0.13c0.07,0.13,0.13,0.13,0.27,0.07 c0.27-0.2,0.67-0.27,1-0.2c0.13,0,0.27,0.07,0.27,0.27c0,0.2-0.13,0.2-0.27,0.2h-0.07c-0.93,0-1.13,0.2-1.13,1.13v1.2 c0,0.2-0.07,0.4-0.27,0.4c-0.2,0-0.2-0.2-0.2-0.33L92.98,64.63z"></path> <path class="st109" d="M83.32,64.63v-1.27c0-0.13,0-0.27,0.13-0.33c0.13-0.07,0.27,0,0.33,0.13c0.07,0.13,0.13,0.07,0.2,0 c0.27-0.2,0.67-0.27,1-0.2c0.13,0,0.33,0.07,0.27,0.27c0,0.2-0.13,0.2-0.33,0.2c-0.13,0-0.27,0-0.4,0c-0.4,0-0.8,0.33-0.8,0.8 c0,0,0,0,0,0.07c0,0.47,0,0.93,0,1.4c0,0.13,0,0.2,0,0.33s-0.13,0.2-0.27,0.2s-0.2-0.13-0.2-0.27L83.32,64.63L83.32,64.63z"></path> <path class="st111" d="M77.78,64.63v-1.27c0-0.2,0.07-0.33,0.27-0.33s0.27,0.2,0.27,0.33c0,0.8,0,1.67,0,2.47 c0,0.2-0.07,0.4-0.27,0.33s-0.27-0.2-0.27-0.33C77.78,65.5,77.78,65.03,77.78,64.63L77.78,64.63z"></path> <path class="st109" d="M86.45,64.63v1.2c0,0.13,0,0.2-0.13,0.33c-0.07,0.07-0.13,0.07-0.27,0.07c-0.07,0-0.13-0.13-0.13-0.2 c0-0.93,0-1.8,0-2.73c0-0.13,0.07-0.27,0.27-0.27s0.27,0.13,0.27,0.27C86.45,63.76,86.45,64.16,86.45,64.63L86.45,64.63z"></path> <path class="st112" d="M78.38,62.1c0,0.27-0.13,0.4-0.33,0.4s-0.33-0.13-0.33-0.27v-0.07c0-0.2,0.07-0.33,0.27-0.33h0.07 C78.18,61.76,78.32,61.9,78.38,62.1L78.38,62.1z"></path> <path class="st113" d="M86.52,62.16c0,0.2-0.13,0.33-0.33,0.33l0,0c-0.2,0-0.33-0.13-0.33-0.4c0-0.2,0.13-0.33,0.27-0.33h0.07 C86.38,61.76,86.52,61.96,86.52,62.16C86.52,62.1,86.52,62.1,86.52,62.16z"></path> <path class="st109" d="M25.33,62.23l-1.53,3.2c-0.07,0.13-0.13,0.33-0.33,0.33c-0.2,0-0.27-0.2-0.33-0.33 c-0.53-1.07-1-2.13-1.53-3.2c0,0.07,0,0.13,0,0.27v2.73c0,0.07,0,0.13,0,0.2c0,0.2-0.07,0.33-0.27,0.33c-0.2,0-0.27-0.13-0.27-0.33 s0-0.27,0-0.4c0-1.27,0-2.6,0-3.87c0-0.2,0-0.4,0.2-0.47c0.27-0.07,0.33,0.13,0.4,0.33c0.6,1.27,1.13,2.47,1.73,3.67 c0,0.07,0.07,0.13,0.13,0.2c0.2-0.47,0.47-0.93,0.67-1.33l1.2-2.53c0.07-0.2,0.13-0.33,0.4-0.27s0.2,0.27,0.2,0.4v4.27 c0,0.2-0.07,0.33-0.27,0.33c-0.2,0-0.27-0.13-0.27-0.33c0-0.47,0-0.93,0-1.47v-1.8L25.33,62.23z"></path> <path class="st109" d="M33.26,62.83c0.4-0.4,0.93-0.53,1.47-0.4c0.67,0.13,1.13,0.8,1.07,1.47c0,0.53,0,1,0,1.53 c0,0.2-0.07,0.4-0.27,0.4s-0.27-0.2-0.27-0.4c0-0.53,0-1.13,0-1.67c0-0.47-0.4-0.8-0.87-0.8l0,0c-0.47-0.07-0.93,0.27-1.07,0.73 c-0.07,0.33-0.07,0.67-0.07,1c0,0.27,0,0.6,0,0.87c0,0.13-0.07,0.27-0.2,0.33c-0.13,0-0.27-0.07-0.33-0.2c0-0.07,0-0.07,0-0.13 c0-0.2,0-0.47,0-0.67v-3.67c0-0.2,0-0.4,0.27-0.4c0.27,0,0.27,0.13,0.27,0.33C33.26,61.63,33.26,62.23,33.26,62.83z"></path> <path class="st109" d="M39.53,64.3c-0.33,0-0.67,0-1.07,0c-0.2,0-0.27,0.07-0.2,0.27c0.27,0.6,0.93,0.93,1.6,0.67 c0.13-0.07,0.27-0.13,0.33-0.2l0.13-0.13c0.07-0.13,0.2-0.13,0.33-0.07l0,0c0.13,0.13,0.07,0.27,0,0.4c-0.6,0.6-1.47,0.73-2.2,0.33 c-0.67-0.4-0.93-1.2-0.73-1.93c0.2-0.73,0.8-1.2,1.53-1.27c0.73-0.07,1.4,0.4,1.6,1.07v0.07c0.13,0.6,0.07,0.73-0.53,0.73 L39.53,64.3z"></path> <path class="st109" d="M29.46,65.3c-0.47,0.47-1.13,0.6-1.73,0.4c-0.8-0.27-1.27-1.13-1.13-1.93c0.13-0.73,0.8-1.33,1.53-1.33 c0.93-0.13,1.73,0.53,1.87,1.47c0,0.13,0,0.2,0,0.33c0,0.4,0,0.8,0,1.13c0,0.2,0,0.4-0.27,0.47C29.53,65.83,29.46,65.56,29.46,65.3 z"></path> <path class="st109" d="M49.52,65.76c-0.4,0-0.8-0.07-1.2-0.33c-0.13-0.07-0.27-0.2-0.2-0.4c0.13-0.2,0.27-0.13,0.4,0 c0.4,0.27,0.87,0.4,1.33,0.27c0.2-0.07,0.33-0.2,0.33-0.4s-0.13-0.33-0.27-0.4c-0.27-0.07-0.53-0.2-0.8-0.27 c-0.27-0.07-0.53-0.2-0.8-0.4c-0.33-0.27-0.33-0.8-0.07-1.13c0.07-0.07,0.13-0.13,0.2-0.2c0.67-0.33,1.4-0.27,2,0.13 c0.13,0.07,0.2,0.2,0.13,0.33c0,0,0,0,0,0.07c-0.07,0.13-0.2,0.13-0.33,0.07c-0.4-0.2-0.8-0.27-1.27-0.2 c-0.2,0.07-0.33,0.13-0.4,0.33c-0.07,0.2,0.07,0.4,0.27,0.4c0.4,0.2,0.87,0.33,1.27,0.47c0.33,0.13,0.53,0.4,0.53,0.8 c0,0.33-0.27,0.67-0.6,0.8c-0.13,0.07-0.33,0.13-0.53,0.13V65.76z"></path> <path class="st109" d="M46.32,65.76c-0.8,0-1.47-0.47-1.6-1.27c-0.2-0.73,0.13-1.53,0.8-1.93c0.67-0.4,1.53-0.27,2.13,0.27 c0.13,0.13,0.27,0.27,0.07,0.47c-0.2,0.13-0.33,0.07-0.47-0.07c-0.4-0.4-1.07-0.47-1.53-0.13c-0.47,0.4-0.67,1-0.4,1.6 c0.27,0.53,0.87,0.8,1.4,0.6c0.2-0.07,0.4-0.2,0.53-0.33c0.07-0.13,0.27-0.2,0.4-0.07l0,0c0.2,0.13,0.07,0.27-0.07,0.4 C47.32,65.63,46.79,65.83,46.32,65.76z"></path> <path class="st110" d="M30.99,64.3c0-0.4,0-0.73,0-1.07c0-0.2-0.07-0.27-0.2-0.2c-0.13,0-0.27,0-0.4,0c-0.13,0-0.27-0.07-0.27-0.27 c0-0.13,0.13-0.2,0.27-0.2l0,0c0.2,0,0.47,0.13,0.53-0.07c0.13-0.2,0-0.33,0-0.53V61.7c0-0.2,0.07-0.33,0.27-0.33 c0.2,0,0.27,0.13,0.27,0.33s0,0.47,0,0.67c0,0.2,0.07,0.27,0.2,0.2c0.13,0,0.27,0,0.47,0c0.13,0,0.27,0.07,0.27,0.2l0,0 c0,0.13-0.13,0.2-0.27,0.27h-0.13c-0.53,0-0.53,0-0.53,0.53c0,0.6,0,1.27,0,1.87c0,0.13-0.07,0.33-0.2,0.4 c-0.2,0.07-0.33-0.07-0.33-0.27C30.99,65.1,30.99,64.7,30.99,64.3L30.99,64.3z"></path> <path class="st109" d="M41.86,64.3c0-0.4,0-0.73,0-1.07c0-0.2-0.07-0.27-0.27-0.27c-0.13,0-0.27,0-0.4,0 c-0.13,0-0.27-0.13-0.27-0.27c0-0.13,0.13-0.27,0.27-0.27l0,0c0.2,0,0.47,0.13,0.53-0.07c0.13-0.2,0-0.4,0-0.6V61.5 c0-0.13,0.07-0.27,0.2-0.27c0,0,0,0,0.07,0c0.13,0,0.27,0.07,0.27,0.2v0.07c0,0.13,0,0.33,0,0.47c0,0.47,0,0.47,0.47,0.47h0.27 c0.13,0,0.27,0.07,0.27,0.2l0,0c0,0.13-0.13,0.2-0.2,0.2l0,0c-0.13,0-0.27,0-0.4,0c-0.2,0-0.27,0.07-0.27,0.27c0,0.67,0,1.4,0,2.07 c0,0.07,0,0.2,0,0.27c0,0.13-0.13,0.27-0.27,0.27l0,0c-0.13,0-0.27-0.13-0.27-0.27v-0.07C41.86,65.1,41.86,64.7,41.86,64.3z"></path> <path class="st114" d="M37.06,63.23c0,0.73,0,1.4,0,2.13c0,0.2,0,0.4-0.27,0.4s-0.33-0.2-0.33-0.4c0-1.47,0-2.87,0-4.33 c0-0.2,0.07-0.33,0.27-0.33c0.2,0,0.27,0.2,0.27,0.4L37.06,63.23z"></path> <path class="st115" d="M44.06,64.1c0,0.4,0,0.87,0,1.27c0,0.2-0.07,0.4-0.27,0.4s-0.27-0.13-0.27-0.33v-2.67 c0-0.2,0.07-0.33,0.27-0.33s0.27,0.2,0.27,0.4V64.1z"></path> <path class="st116" d="M43.79,61.23c0.2,0.07,0.33,0.13,0.33,0.33s-0.13,0.33-0.27,0.33h-0.07c-0.2,0-0.33-0.13-0.33-0.27 c0,0,0,0,0-0.07C43.46,61.36,43.59,61.23,43.79,61.23z"></path> <path class="st117" d="M63.85,63.1c0-0.2,0-0.4,0-0.67c0-0.2,0.07-0.27,0.27-0.27c0.33-0.07,0.67,0,0.93,0.13 c0.47,0.13,0.67,0.67,0.53,1.07c-0.13,0.33-0.4,0.53-0.8,0.6c-0.2,0-0.47,0-0.67,0s-0.27-0.07-0.2-0.27 C63.85,63.5,63.85,63.3,63.85,63.1z"></path> <path class="st107" d="M75.19,65.76c-0.6,0-1.13-0.53-1.07-1.13v-0.07c0-0.6,0.53-1.07,1.13-1.07s1.13,0.53,1.13,1.13 C76.38,65.23,75.85,65.76,75.19,65.76C75.25,65.76,75.19,65.76,75.19,65.76z"></path> <path class="st118" d="M90.92,64.36h-0.8c-0.13,0-0.2,0-0.13-0.2c0.13-0.4,0.47-0.73,0.93-0.67c0.47-0.07,0.87,0.27,0.93,0.67 c0.07,0.2,0,0.2-0.13,0.2H90.92z"></path> <path class="st118" d="M67.99,64.36h-0.73c-0.13,0-0.2-0.07-0.13-0.2c0.13-0.47,0.53-0.73,1-0.67c0.4,0,0.8,0.27,0.87,0.67 c0,0.13,0,0.2-0.13,0.2H67.99z"></path> <path class="st107" d="M70.32,64.63c0-0.6,0.47-1.13,1.07-1.13c0,0,0,0,0.07,0c0.67,0.07,1.13,0.6,1.07,1.2 c0,0.6-0.47,1.07-1.07,1.07c-0.6,0-1.07-0.47-1.13-1.07V64.63z"></path> <path class="st119" d="M39.33,63.83c-0.27,0-0.6,0-0.87,0c-0.13,0-0.2,0-0.13-0.2c0.13-0.47,0.6-0.73,1.07-0.8 c0.47,0,0.87,0.27,1,0.73c0.07,0.2,0.07,0.27-0.2,0.27C39.99,63.76,39.59,63.83,39.33,63.83z"></path> <path class="st108" d="M27.13,64.1c-0.07-0.6,0.4-1.13,1-1.2c0.07,0,0.13,0,0.2,0c0.67,0,1.2,0.53,1.2,1.13l0,0 c0,0.67-0.53,1.2-1.13,1.2c-0.6,0.07-1.13-0.4-1.2-1C27.13,64.23,27.13,64.16,27.13,64.1z"></path> <path class="st120" d="M27.93,87.56c-0.87,1.6-4.2,2-5.2-0.2c-0.2-0.2-0.33-0.53-0.33-0.8c-0.13-0.8-0.07-1.6,0.07-2.33 c0-0.13,0.07-0.27,0.2-0.33c0.2-0.53,0.4-1.07,0.73-1.53c0.87-1.2,2.2-1.33,3.27-0.27c0.6,0.6,1.07,1.33,1.33,2.07 c0.13,0.2,0,0.33-0.07,0.53c-0.2,0.8-0.27,1.6-0.07,2.4C27.86,87.22,28,87.36,27.93,87.56z"></path> <path class="st121" d="M22.6,83.89c-0.27,0.87-0.33,1.8-0.13,2.73c0.07,0.27,0.13,0.53,0.2,0.73c-0.27,0.67-0.93,1.13-1.6,1.2 c-0.4,0-0.73,0-1.07,0c-1.07-0.07-1.87-0.87-2-1.93c-0.13-1.27,0.27-2.6,1.07-3.53c0.2-0.13,0.33-0.27,0.47-0.47 c0.2-0.2,0.53-0.4,0.87-0.4c0.2,0,0.4,0,0.6,0c0.8,0.13,1.13,0.73,1.47,1.4C22.53,83.69,22.6,83.76,22.6,83.89z"></path> <path class="st122" d="M27.93,87.56l-0.13-0.4c-0.13-0.73-0.13-1.4,0-2.13c0.07-0.27,0.13-0.53,0.27-0.8c0-0.13,0.13-0.2,0.13-0.4 c0.33-0.87,0.93-1.53,1.67-2c0.13-0.07,0.27-0.13,0.4-0.13c0.2,0.07,0.4,0.07,0.6,0c0.07,0,0.13,0,0.2,0.07 c0.13,0.13,0.4,0.2,0.53,0.33c0.13,0.13,0.33,0.33,0.53,0.53c0.33,0.4,0.6,0.87,0.73,1.4c0.07,0.13,0.07,0.27,0.07,0.33 c0,0.07,0,0.13-0.07,0.13c-0.13,0.13-0.07,0.27-0.07,0.4c0,0.07,0,0.07,0,0.13c0,0,0,0.07-0.07,0.07h-0.07v-0.07l0,0 c0-0.07,0-0.07,0,0c0,0.13,0.07,0.27,0.07,0.4c0,0.07,0,0.13,0,0.2v0.47c0,0.13,0,0.33,0,0.47v0.07c0,0.27,0.2,0.47,0.13,0.73 c-0.6,1.13-1.93,1.73-3.13,1.4c0.07-0.07,0.13-0.07,0.2-0.07c-0.13,0-0.2,0-0.33,0c-0.4-0.07-0.73-0.2-1.07-0.47 c-0.13-0.2-0.27-0.33-0.47-0.47L27.93,87.56z"></path> <path class="st123" d="M32.73,85.09v-0.13c0-0.13,0-0.27,0.07-0.4c0.07-0.07,0.07-0.07,0.07-0.13c0-0.07,0-0.2,0.07-0.27 c0.13-0.33,0.47-0.47,0.67-0.67c0.13-0.13,0.2,0,0.27,0.07c0.2,0.13,0.33,0.47,0.53,0.47c0.2,0,0.33-0.33,0.47-0.47 c0.13-0.2,0.27-0.27,0.4,0l0,0c0.4,0.47,0.4,0.47,0.8,0c0.13-0.13,0.13-0.13,0.27,0c1,0.87,1.47,2.27,1.07,3.53 c-0.33,1.47-1.73,1.8-2.8,1.67c-0.73-0.07-1.4-0.53-1.73-1.2c-0.13-0.2-0.2-0.47-0.2-0.73C32.73,86.16,32.73,85.62,32.73,85.09z"></path> <path class="st124" d="M34.99,81.23c-0.07,0-0.07-0.07-0.13-0.07c-0.2-0.13-0.4-0.33-0.4-0.6c0-0.07,0.67,0,0.8,0.13 c0.4,0.27,0.93,0.2,1.2-0.13c0.07-0.13,0.13-0.27,0.2-0.47c-0.27,0.13-0.4,0.33-0.67,0.27h-0.6c-0.13,0-0.33-0.07-0.4-0.2 c-0.07-0.13-0.2-0.27-0.33-0.33c-0.13-0.13-0.2-0.33-0.2-0.47c0-0.2,0-0.4,0-0.6c0.13-0.73,0.73-1.2,1.47-1.13 c0.2,0,0.4,0.07,0.53,0.2c0.07,0.07,0.13,0.2,0.2,0.07c0.13-0.13,0.27-0.2,0.47-0.07c0.2,0.13,0.07,0.27,0.13,0.4 c0,0.4,0,0.87,0,1.27c0.07,0.6-0.13,1.2-0.53,1.67c-0.07,0.13-0.2,0.2-0.33,0.2c-0.13-0.07-0.27,0.07-0.4,0 C35.66,81.23,35.33,81.23,34.99,81.23z"></path> <path class="st124" d="M17.93,80.29c0-1.07,0-2.2,0-3.27c0-0.13,0.07-0.2,0.2-0.2c0.4,0,0.8,0,1.27,0.07 c0.6-0.07,1.13,0.33,1.2,0.93c0.07,0.6-0.33,1.13-0.93,1.2c-0.2,0.07-0.13,0.13-0.07,0.27c0.2,0.27,0.33,0.47,0.53,0.73 c0,0.13,0.13,0.13,0.07,0.27c-0.2,0.07-0.4,0-0.53,0.07c-0.33-0.33-0.53-0.8-0.87-1.13c-0.07-0.07-0.07-0.2-0.2-0.2 c-0.07,0.27-0.07,0.6-0.07,0.87c0,0.4,0,0.4-0.4,0.4C18.06,80.36,18,80.29,17.93,80.29z"></path> <path class="st125" d="M23.2,79.69c-0.33,0.67-1.07,0.93-1.8,0.67c-0.73-0.27-1.07-1.13-0.8-1.87c0.27-0.73,1.13-1.07,1.87-0.8 c0.53,0.2,0.93,0.73,0.93,1.33c0,0.2-0.07,0.27-0.27,0.27c-0.6,0-1.2,0-1.8,0c0.13,0.53,0.53,0.67,1.07,0.47 c0.13,0,0.13-0.07,0.2-0.2c0.13-0.13,0.33-0.2,0.47-0.07C23.13,79.56,23.2,79.63,23.2,79.69z"></path> <path class="st124" d="M27.13,79.49c-0.27-0.73,0.13-1.53,0.87-1.8c0.4-0.13,0.87-0.07,1.27,0.13c0-0.33,0-0.67,0.07-1 c0,0.27,0.07,0.47,0,0.73c0-0.27,0-0.53,0-0.73c0.2-0.07,0.4-0.07,0.6,0c-0.07,0.93,0,1.87,0,2.8c0,0.6,0,0.6-0.47,0.67 c-0.07-0.13-0.13-0.27-0.27-0.07c-0.07,0.07-0.2,0.13-0.33,0.13c-0.2,0-0.47,0-0.67,0c-0.33-0.07-0.6-0.27-0.73-0.53 C27.26,79.69,27.2,79.63,27.13,79.49C27.13,79.36,27.13,79.43,27.13,79.49L27.13,79.49z"></path> <path class="st124" d="M26.06,80.29c0-0.2-0.13-0.07-0.2-0.07c-0.47,0.33-1.07,0.33-1.53,0c-0.07-0.13-0.13-0.2-0.27-0.27 c-0.47-0.53-0.4-1.4,0.07-1.87c0.47-0.53,1.33-0.53,1.87-0.07c0-0.4,0.27-0.27,0.47-0.27s0.13,0.2,0.13,0.33c0,0.67,0,1.33,0,2 c0,0.07,0.07,0.2-0.07,0.27c-0.07-0.73,0-1.47-0.07-2.2c0-0.13,0.07-0.27-0.13-0.33h-0.07l0,0c0.27,0,0.13,0.2,0.13,0.33 c0,0.6,0,1.13,0,1.73C26.53,80.36,26.53,80.36,26.06,80.29z"></path> <path class="st123" d="M33.46,83.23c-0.13-0.27-0.13-0.53,0.07-0.73c0.87-1.13,2-1.2,3-0.13c0.2,0.27,0.4,0.53,0.53,0.8 c0.07,0.13,0.07,0.27-0.07,0.33l0,0c-0.13,0.13-0.2,0-0.27-0.07c-0.07-0.07-0.13-0.07-0.13-0.13c-0.2-0.13-0.33-0.33-0.53-0.4 c-0.2,0-0.27,0.27-0.4,0.4l-0.07-0.07c-0.4-0.53-0.4-0.53-0.87-0.07c-0.07,0.07-0.2,0.27-0.27,0c-0.13-0.4-0.4-0.33-0.67-0.13 C33.66,83.09,33.59,83.16,33.46,83.23z"></path> <path class="st125" d="M33.33,80.29c0-0.4,0-0.87,0-1.27c0-0.13,0-0.33-0.07-0.47c-0.07-0.2-0.33-0.4-0.53-0.33 c-0.27,0-0.47,0.27-0.47,0.53c0,0.4,0,0.87,0,1.27c0,0.13,0.07,0.2-0.07,0.33c-0.07-0.47-0.07-0.93-0.07-1.47c0,0.33,0,0.67,0,1 s-0.07,0.4-0.33,0.33c-0.07,0-0.13,0-0.2,0c-0.07-0.47-0.07-0.93-0.07-1.33c0-0.33,0-0.67,0-1c0-0.13-0.07-0.27,0.07-0.27 c0.2,0,0.4-0.13,0.47,0.07s0.13,0.07,0.2,0c0.33-0.27,0.87-0.2,1.2,0.07c0.07,0.13,0.13,0.27,0.27,0.33 c0.13,0.2,0.2,0.47,0.13,0.67c0,0.47,0,0.93,0,1.4C33.79,80.29,33.59,80.29,33.33,80.29z"></path> <path class="st126" d="M30.39,80.36c-0.13-0.13-0.07-0.27-0.07-0.4c0-0.73,0-1.4,0-2.13c0-0.27,0.13-0.27,0.33-0.27 c0.2,0,0.33-0.07,0.33,0.27c0,0.8,0,1.6,0,2.33c0,0.07,0.07,0.13-0.07,0.2c-0.07-0.53-0.07-1.07-0.07-1.6c0-0.27,0-0.53,0-0.73 c0-0.27-0.07-0.4-0.27-0.33c0.27,0.07,0.27,0.07,0.27,0.33v1.93c0,0.4,0,0.4-0.4,0.4C30.46,80.29,30.46,80.29,30.39,80.36z"></path> <path class="st127" d="M36.73,81.16c-0.07-0.13,0.07-0.13,0.07-0.2c0.27-0.27,0.4-0.6,0.4-1c0-0.6,0-1.2,0-1.8 c0-0.13,0.07-0.27-0.07-0.33c-0.07-0.07-0.2-0.07-0.27,0.07v0.07l-0.13-0.07c-0.07-0.4,0.27-0.13,0.4-0.2 c0.13-0.07,0.27,0,0.27,0.2c0,0.73,0,1.47,0,2.2C37.33,80.49,37.06,80.96,36.73,81.16z"></path> <path class="st128" d="M29.4,80.36v-0.2c0.07,0.13,0.2,0.13,0.33,0.13c0.13-0.07,0.07-0.2,0.07-0.27v-2.73 c0-0.13-0.07-0.27,0.07-0.4c0.07,0.53,0.07,1,0.07,1.53c0,0.53,0,1.07,0,1.67c0,0.33-0.07,0.4-0.4,0.33L29.4,80.36z"></path> <path class="st129" d="M30.66,77.43c-0.27,0.07-0.27-0.07-0.33-0.33c0-0.33,0.2-0.27,0.4-0.27c0.27-0.07,0.27,0.13,0.27,0.33 C31.06,77.49,30.86,77.43,30.66,77.43z"></path> <path class="st130" d="M28.06,84.09c-0.07,0.27-0.13,0.53-0.2,0.8c-0.2,0.67-0.2,1.4,0,2.07c0,0.07,0,0.13-0.07,0.2 c-0.2-0.73-0.27-1.47-0.07-2.2c0.07-0.27,0.13-0.53,0.2-0.73L28,84.09C28.06,84.03,28.06,84.03,28.06,84.09z"></path> <path class="st131" d="M30.39,80.36c0.47-0.2,0.47-0.2,0.47-0.8v-1.4c0-0.4,0-0.4-0.4-0.47c0.47-0.07,0.47-0.07,0.47,0.4 c0,0.73,0,1.53,0,2.27C30.79,80.36,30.59,80.36,30.39,80.36z"></path> <path class="st132" d="M26.06,80.29c0.47,0,0.47,0,0.47-0.47c0-0.47,0-1.07,0-1.6c0-0.27,0-0.47-0.33-0.4 c0.33-0.13,0.47-0.07,0.47,0.33c0,0.73,0,1.47,0,2.2C26.4,80.36,26.2,80.43,26.06,80.29z"></path> <path class="st128" d="M23.2,79.69c-0.13-0.2-0.33-0.2-0.47-0.13c-0.07,0-0.07,0.07-0.13,0.13c-0.07,0.07-0.13,0.2-0.2,0.07 c0.13-0.27,0.4-0.4,0.73-0.33C23.4,79.49,23.33,79.56,23.2,79.69z"></path> <path class="st133" d="M31.59,80.36c0.47-0.13,0.47-0.13,0.47-0.73v-0.8h0.07v1.53C31.99,80.36,31.79,80.36,31.59,80.36z"></path> <path class="st134" d="M17.93,80.29c0.07,0,0.13,0,0.2,0c0.27,0.07,0.33-0.07,0.33-0.33c0-0.27-0.13-0.6,0.07-0.93 c0,0.33,0,0.73,0,1.07c0,0.27-0.07,0.33-0.27,0.27C18.2,80.36,18,80.43,17.93,80.29z"></path> <path class="st135" d="M19.93,88.62c0.33-0.07,0.73-0.07,1.07,0C20.66,88.69,20.33,88.69,19.93,88.62z"></path> <path class="st136" d="M19.6,80.36c0.13-0.13,0.33,0,0.47-0.07c0.07-0.07-0.13-0.13,0-0.27l0.33,0.4 C20.13,80.36,19.86,80.36,19.6,80.36z"></path> <path class="st137" d="M34.99,81.23c0.33-0.13,0.6,0,0.93,0.07c0,0.07,0,0.13-0.13,0.07L34.99,81.23z"></path> <path class="st136" d="M28.06,80.43c0.2-0.13,0.47-0.13,0.67,0C28.53,80.49,28.26,80.49,28.06,80.43z"></path> <path class="st136" d="M35.46,80.43c0.2-0.13,0.47-0.13,0.6,0C35.86,80.49,35.66,80.49,35.46,80.43z"></path> <path class="st138" d="M34.46,78.76c0.13,0.2,0.13,0.4,0,0.6C34.39,79.16,34.39,78.96,34.46,78.76z"></path> <path class="st139" d="M19.53,82.63c-0.07,0.27-0.27,0.4-0.47,0.47C19.2,82.89,19.33,82.76,19.53,82.63z"></path> <path class="st140" d="M32.13,82.63c-0.27-0.07-0.4-0.33-0.53-0.47l0,0C31.79,82.23,31.99,82.43,32.13,82.63z"></path> <path class="st141" d="M31.59,82.09L31.59,82.09l-0.6-0.27l0,0l0.07-0.07C31.26,81.83,31.46,81.96,31.59,82.09z"></path> <path class="st142" d="M28.13,87.82c0.2,0.07,0.4,0.27,0.47,0.47C28.4,88.22,28.26,88.02,28.13,87.82z"></path> <path class="st143" d="M21,82.23c-0.2,0.13-0.4,0.13-0.6,0C20.6,82.16,20.8,82.16,21,82.23z"></path> <path class="st144" d="M33.79,78.16l-0.07,0.07c-0.07-0.13-0.27-0.27-0.27-0.47C33.66,77.89,33.79,78.03,33.79,78.16z"></path> <path class="st145" d="M35.79,81.36l0.13-0.07c0.13,0,0.27-0.07,0.4,0.07C36.19,81.49,35.99,81.49,35.79,81.36z"></path> <path class="st146" d="M34.66,79.83c0.2,0,0.33,0.13,0.33,0.33C34.86,80.09,34.73,80.03,34.66,79.83z"></path> <path class="st147" d="M33.33,80.29h0.6C33.79,80.43,33.53,80.43,33.33,80.29z"></path> <path class="st148" d="M30.79,81.76c-0.2,0.07-0.4,0.07-0.6,0C30.39,81.69,30.59,81.69,30.79,81.76z"></path> <path class="st136" d="M24.06,79.89c0.2,0,0.27,0.07,0.27,0.27C24.2,80.16,24.13,80.03,24.06,79.89z"></path> <path class="st136" d="M27.13,79.49l0.07-0.07c0.07,0.13,0.2,0.27,0.13,0.4C27.2,79.76,27.13,79.63,27.13,79.49z"></path> <path class="st149" d="M29.66,88.82c0.13-0.13,0.27-0.07,0.4,0H29.8H29.66z"></path> <path class="st150" d="M32.93,84.09l-0.07,0.27c-0.13-0.13,0.07-0.27,0-0.33L32.93,84.09z"></path> <path class="st151" d="M28.06,84.09v-0.07l0.07-0.2C28.2,83.96,28.13,84.03,28.06,84.09z"></path> <path class="st152" d="M24.93,87.82c-0.33,0-0.67-0.2-0.73-0.47c-0.07-0.07-0.07-0.07,0-0.13c0.07-0.13,0.13-0.4,0.33-0.47 c0.07,0,0.13-0.07,0.2-0.13l0.07-0.07c0.13,0,0.27,0,0.4,0c0.07,0.07,0.2,0.07,0.27,0.07c0.07,0,0.13,0.07,0.13,0.13 c0,0.07-0.07,0.07-0.07,0.07c-0.13,0.07-0.33,0.07-0.47,0.07h-0.2c-0.13,0-0.27,0.13-0.33,0.27c0,0.2,0.13,0.27,0.27,0.33 c0.2,0.07,0.33,0.07,0.53,0.07c0.13,0,0.33-0.07,0.4,0.13C25.46,87.89,25.13,87.76,24.93,87.82z"></path> <path class="st153" d="M26.06,83.23c0.6,0.2,0.53,0.73,0.67,1.2c-0.07,0.07,0,0.13-0.13,0.13c-0.2-0.2-0.2-0.4-0.27-0.67 c-0.13-0.4-0.33-0.47-0.67-0.27c-0.2,0.13-0.47,0.13-0.67-0.07l0,0c0.07-0.13,0.2,0,0.2-0.07c0.27,0.07,0.4-0.27,0.67-0.27 C25.93,83.16,26,83.16,26.06,83.23C26.06,83.16,26.06,83.16,26.06,83.23z"></path> <path class="st154" d="M24.93,87.82c0.2-0.13,0.53,0.07,0.73-0.13c0-0.07,0.07-0.07,0.07-0.07c0.53-0.13,0.93-0.47,1.2-1 c0.07,0,0.07,0.07,0.13,0.07c0,0.27-0.2,0.53-0.4,0.73C26.13,87.82,25.53,87.96,24.93,87.82z"></path> <path class="st155" d="M23.66,85.36c-0.27-0.8,0.4-1.87,1.13-1.87c0.07,0.07,0.2,0,0.2,0.07c0,0.07-0.07,0.13-0.13,0.13 c-0.53,0.13-0.87,0.53-1,1c0,0.13-0.07,0.27-0.07,0.4C23.8,85.16,23.8,85.29,23.66,85.36z"></path> <path class="st156" d="M23.66,85.36c0.2-0.2-0.07-0.47,0.13-0.67c0.07,0.07,0.13,0.2,0.07,0.33c0,0.53,0.2,1.07,0.67,1.4 c0.07,0.07,0.2,0.13,0.2,0.27l0,0c-0.07,0.07-0.13,0.07-0.13,0C24.06,86.42,23.73,85.89,23.66,85.36z"></path> <path class="st157" d="M27.06,86.76L27,86.69c-0.13-0.4-0.2-0.8-0.2-1.2c0-0.07,0-0.2,0.13-0.2c0.07,0.27,0.13,0.53,0.2,0.8 C27.13,86.22,27.13,86.49,27.06,86.76z"></path> <path class="st158" d="M26.93,85.22c-0.07,0.07-0.07,0.13-0.07,0.2c-0.2-0.13-0.2-0.33-0.2-0.47c0-0.07,0.07-0.2,0.13-0.27 C26.86,84.89,26.93,85.02,26.93,85.22z"></path> <path class="st159" d="M26.8,84.69c0,0.07,0,0.13-0.07,0.2c-0.13-0.07-0.2-0.2-0.13-0.33c0,0,0,0,0-0.07l0.07-0.13L26.8,84.69z"></path> <path class="st160" d="M25,83.56c-0.07,0-0.2,0-0.2-0.07c0.13-0.07,0.33-0.07,0.47,0C25.2,83.56,25.06,83.49,25,83.56L25,83.56z"></path> <path class="st161" d="M27.26,86.09v0.47l0,0V86.09L27.26,86.09z"></path> <path class="st162" d="M26.06,83.23h-0.2l-0.07-0.07c0.13-0.07,0.2-0.07,0.33,0C26.2,83.16,26.13,83.16,26.06,83.23z"></path> <path class="st163" d="M24.13,87.22v0.13l-0.07,0.07c-0.07-0.07-0.07-0.2,0-0.27L24.13,87.22z"></path> <path class="st164" d="M24.53,86.69h0.13c0,0.13-0.13,0.13-0.2,0.13C24.53,86.76,24.6,86.76,24.53,86.69z"></path> <path class="st165" d="M21.6,86.56c-0.53,0.4-1.2,0.53-1.8,0.2c-0.2-0.07-0.33-0.2-0.33-0.33c-0.27-0.4-0.4-0.87-0.27-1.33 c0.13-0.53,0.6-0.93,1.13-0.93c0.13,0.07,0.27,0.07,0.33,0c0.53,0.07,1,0.47,1.2,1c0.07,0.07,0.07,0.13,0,0.13s-0.2,0.2,0,0.33 c0.07,0.07,0.13,0.2,0.2,0.27c0.07,0.07,0.07,0.07,0,0.13l-0.2,0.4C21.86,86.42,21.73,86.56,21.6,86.56z"></path> <path class="st166" d="M19.46,86.36l0.33,0.33C19.6,86.76,19.46,86.62,19.46,86.36z"></path> <path class="st167" d="M21.6,86.56l0.2-0.2C21.86,86.49,21.8,86.56,21.6,86.56z"></path> <path class="st168" d="M22.06,85.96v-0.13l0.07-0.07c0.07,0.07,0.07,0.2,0,0.27L22.06,85.96z"></path> <path class="st169" d="M21.8,85.22v-0.13l0.07-0.07C21.93,85.09,21.93,85.22,21.8,85.22L21.8,85.22L21.8,85.22z"></path> <path class="st170" d="M20.66,84.09c-0.07,0.07-0.27,0.07-0.33,0C20.4,84.03,20.53,84.03,20.66,84.09z"></path> <path class="st171" d="M29.33,83.63l0.13-0.13c0.07-0.13,0.13-0.13,0.27-0.13c0.2-0.07,0.47-0.07,0.67-0.07 c0.13-0.07,0.27,0,0.33,0.07c0.13,0.07,0.2,0.13,0.33,0.07c0.4-0.2,0.6-0.07,0.87,0.33c0.13,0.27,0,0.53,0.07,0.73v0.73 c0,0.2-0.07,0.33-0.07,0.53c0,0.07-0.07,0.07-0.13,0c-0.2-0.27,0-0.6-0.13-0.87c0-0.07,0-0.07,0-0.13c0-0.27,0.07-0.47,0-0.73 c-0.07-0.53-0.2-0.6-0.67-0.47c-0.07,0.07-0.2,0.07-0.27,0c-0.6-0.33-1.33-0.13-1.67,0.47c-0.07,0.07-0.07,0.2-0.13,0.27 l-0.07,0.27c-0.07,0.2-0.07,0.47,0,0.67c0,0.07,0,0.13,0,0.13c0,0.07-0.07,0.13-0.13,0.13c-0.13-0.13,0-0.33-0.13-0.47 c-0.07-0.33,0-0.67,0.13-0.93l0.33-0.53C29.2,83.76,29.26,83.69,29.33,83.63L29.33,83.63z"></path> <path class="st172" d="M31.86,85.02c0.13,0.33,0,0.6,0.07,0.93c0.13,0.2,0.07,0.4,0.07,0.6c0,0.13-0.07,0.27-0.13,0.4l-0.2,0.33 c0,0.13-0.13,0.27-0.27,0.27l-0.33,0.2c-0.07,0.07-0.2,0.07-0.27,0.13c-0.27,0.07-0.53,0.07-0.8,0c-0.47-0.07-0.87-0.27-1.2-0.53 c-0.07,0-0.07-0.07-0.07-0.13c-0.13-0.13-0.13-0.2,0-0.27c0.07,0,0.13,0,0.13,0.07c0.53,0.67,1.47,0.87,2.2,0.47 c0.4-0.2,0.6-0.67,0.6-1.07c0-0.33,0.07-0.67,0.07-1.07C31.73,85.16,31.79,85.02,31.86,85.02z"></path> <path class="st173" d="M31.86,86.89c0-0.13,0-0.27,0.07-0.33c0.07-0.2,0-0.47,0.07-0.67v-0.53c0.07-0.27,0.07-0.53,0-0.8 c0-0.27,0-0.47,0-0.73c0.13,0,0.13,0.13,0.13,0.27c-0.07,0.73-0.13,1.53-0.13,2.27C32.06,86.49,31.99,86.69,31.86,86.89 C31.86,87.02,31.86,86.89,31.86,86.89z"></path> <path class="st174" d="M28.86,85.69c0.07,0,0.07-0.07,0.07-0.13c0.13,0,0.13,0.13,0.2,0.2c0.13,0.27,0.33,0.53,0.53,0.67 c0.07,0.07,0,0.13-0.07,0.13h-0.07l-0.27-0.13c-0.07-0.07-0.2-0.13-0.2-0.27L28.86,85.69z"></path> <path class="st175" d="M32.73,85.09c0.13,0.53,0.13,1.13,0,1.67v-0.07c-0.07-0.13,0-0.33-0.07-0.53c0-0.2,0-0.33,0-0.53 C32.73,85.49,32.59,85.29,32.73,85.09C32.66,85.09,32.66,85.09,32.73,85.09z"></path> <path class="st176" d="M28.86,84.29c-0.07,0.33-0.13,0.6-0.13,0.93c0,0.07,0,0.13-0.07,0.2c-0.07-0.4,0-0.8,0.13-1.2 C28.8,84.29,28.8,84.29,28.86,84.29L28.86,84.29z"></path> <path class="st177" d="M29.99,87.82c0.27-0.07,0.53,0.07,0.8-0.07c0,0,0,0,0,0.07c0,0.07,0,0,0,0c-0.33,0.13-0.67,0.13-1,0H29.99z"></path> <path class="st173" d="M28.8,86.89c-0.07,0.07-0.07,0.2,0,0.27c-0.2-0.27-0.13-0.53,0.27-0.67v0.07 C29,86.62,28.93,86.76,28.8,86.89z"></path> <path class="st178" d="M30.79,83.43l-0.33-0.07c-0.07-0.13-0.27,0-0.33-0.13C30.39,83.16,30.59,83.23,30.79,83.43 C30.86,83.36,30.86,83.36,30.79,83.43L30.79,83.43z"></path> <path class="st179" d="M32.06,83.83v0.73c0,0,0,0.07-0.07,0.07L32.06,83.83L32.06,83.83z"></path> <path class="st180" d="M31.39,87.49l0.27-0.27C31.73,87.42,31.59,87.56,31.39,87.49z"></path> <path class="st181" d="M29.06,86.16l0.2,0.2c0,0.13-0.07,0.13-0.2,0.13c-0.07,0-0.07,0-0.07-0.07l0,0 C29.13,86.36,29,86.29,29.06,86.16z"></path> <path class="st150" d="M32.79,84.49l-0.07,0.4C32.59,84.76,32.73,84.62,32.79,84.49L32.79,84.49L32.79,84.49z"></path> <path class="st176" d="M30.86,87.82L30.86,87.82l0.27-0.13C31.06,87.89,30.93,87.82,30.86,87.82z"></path> <path class="st123" d="M32.73,85.09c0,0.2,0.07,0.33-0.07,0.53v-0.2C32.59,85.29,32.59,85.22,32.73,85.09L32.73,85.09z"></path> <path class="st123" d="M32.66,86.16c0.13,0.13,0.07,0.33,0.07,0.53C32.66,86.49,32.59,86.36,32.66,86.16z"></path> <path class="st182" d="M29.8,83.43l-0.27,0.13C29.53,83.36,29.6,83.36,29.8,83.43z"></path> <path class="st150" d="M32.66,85.16v0.27C32.53,85.36,32.59,85.22,32.66,85.16C32.59,85.02,32.66,85.09,32.66,85.16L32.66,85.16z"></path> <path class="st183" d="M29.33,83.63l-0.13,0.13C29.13,83.63,29.2,83.63,29.33,83.63z"></path> <path class="st184" d="M35.59,85.42c0.53,0.13,0.8,0.4,0.87,0.87c0,0.47-0.33,0.87-0.8,1c-0.4,0.13-0.8,0.13-1.2,0 c-0.27-0.07-0.4-0.27-0.4-0.53c0-0.27,0.2-0.47,0.47-0.47c0.13-0.07,0.27-0.07,0.33,0.07c-0.07,0.13-0.2,0.13-0.33,0.2 s-0.2,0.13-0.2,0.27s0.07,0.2,0.2,0.2c0.47,0.27,1.07,0.13,1.47-0.27c0.27-0.27,0.27-0.67,0.07-0.93c-0.07-0.07-0.13-0.13-0.27-0.2 c-0.13-0.07-0.33-0.07-0.4-0.27C35.46,85.36,35.53,85.36,35.59,85.42C35.59,85.36,35.59,85.42,35.59,85.42z"></path> <path class="st185" d="M34.53,86.22c-0.4-0.07-0.67-0.4-0.67-0.73c-0.07-0.4,0.13-0.8,0.47-0.93c0.4-0.27,0.87-0.27,1.33-0.13 c0.27,0.07,0.4,0.27,0.4,0.53c0,0.27-0.2,0.47-0.47,0.47c-0.13,0-0.27,0.07-0.4-0.07c0-0.13,0.07-0.13,0.2-0.13 c0.2,0,0.4,0,0.4-0.27c0-0.27-0.2-0.33-0.4-0.33c-0.33-0.07-0.67,0-0.93,0.2c-0.33,0.2-0.47,0.6-0.27,0.93 c0.07,0.13,0.2,0.27,0.33,0.27s0.2,0.07,0.27,0.13c0,0.07,0,0.13-0.07,0.13l0,0C34.59,86.22,34.53,86.22,34.53,86.22z"></path> <path class="st186" d="M35.19,85.22c0.13,0.07,0.27,0,0.4,0.07v0.07c-0.07,0-0.13,0-0.2,0.07c-0.07,0-0.13,0-0.13,0 c-0.07-0.07-0.13-0.07-0.2-0.07s-0.13-0.07-0.07-0.13C34.99,85.16,35.06,85.16,35.19,85.22z"></path> <path class="st187" d="M34.53,86.22h0.13c0.07,0,0.2-0.07,0.27,0c0.2,0.07,0.2,0.2,0,0.27c0,0-0.07,0-0.13,0 c0-0.2-0.2-0.13-0.27-0.13V86.22z"></path> <path class="st188" d="M33.73,85.09c0.07,0.13,0.07,0.27,0,0.4C33.66,85.36,33.66,85.22,33.73,85.09z"></path> <path class="st189" d="M36.53,86.16c0.07,0.13,0.07,0.27,0,0.33C36.46,86.36,36.46,86.22,36.53,86.16z"></path> <path class="st190" d="M36.66,79.16c0,0,0,0.07-0.07,0.07c-0.07,0.4-0.47,0.67-0.87,0.67c-0.33,0-0.67-0.27-0.73-0.67 s0.13-0.8,0.47-1c0.4-0.13,0.8,0,1,0.33l0.07,0.07C36.66,78.83,36.79,78.96,36.66,79.16z"></path> <path class="st191" d="M36.66,79.16l-0.07-0.47c0.2,0.13,0.2,0.2,0.13,0.67L36.66,79.16z"></path> <path class="st192" d="M18.6,77.49c0.27-0.13,0.6-0.13,0.87,0.07c0.2,0.07,0.27,0.27,0.27,0.47s-0.13,0.4-0.33,0.47 c-0.27,0.07-0.53,0.07-0.73,0.07C18.46,78.16,18.46,77.83,18.6,77.49z"></path> <path class="st134" d="M18.6,77.49c0,0.33,0,0.67,0,1C18.4,78.16,18.53,77.83,18.6,77.49L18.6,77.49L18.6,77.49z"></path> <path class="st193" d="M21.2,78.83c0.07-0.33,0.33-0.6,0.67-0.6c0.27,0,0.6,0.13,0.73,0.4c0.13,0.2,0.07,0.2-0.13,0.2 C22.06,78.83,21.66,78.83,21.2,78.83z"></path> <path class="st190" d="M29.33,79.03c0.07,0.47-0.27,0.8-0.73,0.87c-0.47,0.07-0.8-0.27-0.87-0.73c0-0.07,0-0.07,0-0.13 c0-0.47,0.33-0.8,0.8-0.87C28.93,78.23,29.33,78.56,29.33,79.03L29.33,79.03z"></path> <path class="st194" d="M29.33,76.83c0.07,0.33,0.07,0.67,0,1V76.83z"></path> <path class="st190" d="M25.2,79.89c-0.47,0-0.8-0.4-0.73-0.87c0,0,0,0,0-0.07c0-0.47,0.4-0.8,0.8-0.8c0,0,0,0,0.07,0 c0.47,0,0.8,0.4,0.8,0.87l0,0C26,79.56,25.6,79.89,25.2,79.89L25.2,79.89z"></path> <path class="st109" d="M25,83.56L25,83.56L25,83.56c0.27,0.07,0.47,0.2,0.73-0.07c0.27-0.27,0.6-0.07,0.67,0.27 c0.07,0.33,0.13,0.53,0.2,0.8c0,0.13,0,0.27,0.07,0.4c0,0.2,0.07,0.33,0.13,0.53c0.13,0.4,0.13,0.8,0.13,1.2 c-0.2,0.6-0.73,1-1.33,1.07c-0.33,0-0.67,0-0.93-0.07c-0.2-0.07-0.4-0.13-0.4-0.4c0-0.2,0.2-0.4,0.47-0.33h0.07 c0.07,0,0.07,0,0.13,0c0.2,0.07,0.47,0.07,0.67,0c0.13-0.07,0.2-0.13,0.27-0.2c0.07-0.07,0.07-0.07,0.07-0.13 c-0.2,0.2-0.53,0.27-0.8,0.2h-0.47c-0.07-0.2-0.27-0.2-0.4-0.33c-0.47-0.47-0.67-1.07-0.53-1.67C23.8,84.09,24.33,83.63,25,83.56z"></path> <path class="st195" d="M25.2,86.69c0.33,0,0.67-0.13,0.87-0.4c0.07,0.27,0.07,0.27-0.07,0.4l-0.07,0.07c-0.13,0-0.33,0.13-0.47,0 C25.33,86.76,25.2,86.82,25.2,86.69z"></path> <path class="st196" d="M25.4,86.76c0.2,0.07,0.33-0.2,0.47-0.07c-0.07,0.13-0.2,0.2-0.33,0.2h-0.07 C25.46,86.82,25.4,86.82,25.4,86.76z"></path> <path class="st164" d="M25.66,86.89c-0.27,0.07-0.53,0.07-0.73,0h0.6C25.6,86.82,25.66,86.82,25.66,86.89L25.66,86.89z"></path> <path class="st197" d="M25.66,86.89h-0.13v-0.07c0.13,0,0.27-0.07,0.33-0.13h0.07C25.93,86.82,25.8,86.89,25.66,86.89z"></path> <path class="st190" d="M21.6,85.62c0.27,0.13,0.33,0.27,0.13,0.53c-0.4,0.53-1.07,0.73-1.67,0.53c-0.6-0.27-0.93-1-0.73-1.6 c0.13-0.47,0.6-0.87,1.07-0.87c0.53,0,1,0.27,1.2,0.73c0.07,0.13,0,0.33-0.13,0.4H21.4c-0.07,0.07-0.2,0.13-0.33,0.2 c-0.2,0.07-0.47,0.13-0.67,0.27c-0.13,0.07-0.13,0.13,0,0.2c0.2,0.07,0.47,0,0.6-0.2C21.2,85.69,21.4,85.49,21.6,85.62z"></path> <path class="st198" d="M21.6,85.62c-0.2,0.07-0.4,0.13-0.53,0.33c-0.2,0.2-0.47,0.27-0.73,0.2v-0.07c0.13-0.07,0.27-0.07,0.33-0.13 c0.13-0.07,0.2-0.13,0.27-0.2C21,85.69,21,85.62,21,85.62c0.13-0.07,0.27-0.13,0.4-0.13C21.46,85.56,21.6,85.56,21.6,85.62z"></path> <path class="st109" d="M29.66,86.42c-0.33-0.2-0.6-0.53-0.67-0.93v-0.13c-0.07-0.2-0.07-0.47,0-0.67c0.07-0.53,0.47-0.93,0.93-1.13 c0.33-0.13,0.73-0.07,1,0.13c0.07,0.07,0.07,0.13,0.2,0.07c0.67-0.27,0.67-0.2,0.87,0.4c-0.07,0.27,0,0.53-0.07,0.8v0.07 c0,0.47-0.07,0.87-0.07,1.33c0,0.73-0.53,1.33-1.27,1.33c-0.67,0.13-1.4-0.13-1.73-0.67c0-0.27,0.27-0.47,0.53-0.4l0,0l0.27,0.07 c0.13,0.07,0.27,0.13,0.4,0.13c0.2,0,0.47,0.07,0.67-0.2c-0.13,0-0.27,0.07-0.4,0.07c-0.13,0-0.27,0-0.4,0 C29.8,86.62,29.73,86.56,29.66,86.42z"></path> <path class="st122" d="M31.99,84.62L31.99,84.62c0.07,0.2,0.07,0.47,0,0.73V84.62z"></path> <path class="st179" d="M31.86,84.89c0-0.27,0-0.53,0.07-0.8C31.99,84.36,31.93,84.69,31.86,84.89z"></path> <path class="st174" d="M28.93,84.69v0.67C28.86,85.16,28.86,84.96,28.93,84.69z"></path> <path class="st122" d="M31.99,85.89c0,0.2,0.07,0.47-0.07,0.67C31.99,86.29,31.99,86.09,31.99,85.89L31.99,85.89z"></path> <path class="st199" d="M29.33,86.62c-0.27-0.07-0.4,0.2-0.53,0.33l-0.07-0.07c0-0.2,0.2-0.27,0.27-0.4h0.07 c0.13,0.07,0.27-0.07,0.4,0.07l0,0C29.53,86.69,29.4,86.62,29.33,86.62z"></path> <path class="st200" d="M29.33,86.62c0.07,0,0.13,0,0.13-0.07c0.07,0,0.13,0,0.13-0.07c0.07,0,0.2,0,0.2,0.13v0.07 c-0.07,0.07-0.13,0-0.2,0.07L29.33,86.62z"></path> <path class="st200" d="M29.53,86.49c-0.13,0-0.27,0.07-0.4-0.07c0.07,0,0.2,0,0.2-0.07L29.53,86.49z"></path> <path class="st201" d="M34.79,86.42L34.79,86.42L34.79,86.42c0.13,0,0.33,0,0.47-0.07c0,0,0.07,0,0.07-0.07 c0-0.07-0.07-0.07-0.07-0.07c-0.07,0-0.27-0.07-0.33-0.07c-0.13-0.07-0.13,0-0.2-0.07c-0.13,0-0.2-0.07-0.33-0.13 c-0.4-0.2-0.53-0.6-0.4-1c0.07-0.13,0.13-0.2,0.2-0.27c0.33-0.33,0.87-0.4,1.33-0.27c0.2,0.07,0.4,0.2,0.33,0.47 c-0.07,0.27-0.27,0.33-0.47,0.27h-0.07c-0.13,0-0.33-0.07-0.4,0.13c0,0.2,0.2,0.07,0.33,0.13l0.07,0.07h0.13l0.2,0.07 c0.33,0.07,0.53,0.33,0.6,0.6c0.07,0.33-0.13,0.67-0.4,0.87c-0.4,0.27-0.87,0.27-1.27,0.13c-0.2-0.07-0.4-0.13-0.33-0.4 s0.27-0.33,0.47-0.33C34.73,86.42,34.79,86.42,34.79,86.42z"></path> <path class="st200" d="M35.26,85.49c-0.13,0-0.27,0-0.4-0.07s-0.2-0.07-0.2-0.2s0.13-0.13,0.2-0.13c0.13,0,0.27,0,0.47,0.07 c-0.07,0-0.13,0-0.2,0.07c-0.07,0.07-0.13-0.07-0.2,0.07C35.06,85.42,35.26,85.29,35.26,85.49z"></path> <path class="st202" d="M34.73,86.09l0.27,0.07c0,0.07-0.07,0.07-0.07,0.07c-0.07,0-0.13,0-0.2-0.07L34.73,86.09z"></path> <path class="st203" d="M34.86,86.29l0.07-0.07c0.13,0,0.27,0,0.4,0.07c-0.07,0.07,0.07,0.13,0,0.2c-0.13,0.13-0.4,0.13-0.53,0 c0.07-0.07,0.2-0.07,0.13-0.13C34.93,86.22,34.93,86.29,34.86,86.29z"></path> <path class="st204" d="M25.8,85.22c0,0.27-0.2,0.53-0.47,0.6h-0.07c-0.4-0.07-0.67-0.47-0.6-0.87c0-0.27,0.2-0.53,0.47-0.6h0.07 C25.6,84.42,25.86,84.82,25.8,85.22z"></path> <path class="st205" d="M20.86,85.02c0,0.07-0.07,0.07-0.13,0.13c-0.2,0.07-0.4,0.13-0.53,0.2c-0.07,0-0.13,0.07-0.2,0 c-0.07-0.07-0.07-0.13,0-0.2s0.13-0.27,0.27-0.27s0.4-0.07,0.53,0.13H20.86z"></path> <path class="st206" d="M20.4,86.02v0.07c-0.13-0.07-0.2-0.13-0.2-0.2c0-0.13,0.13-0.13,0.27-0.13l0.67-0.2c0.27,0.07,0,0.13,0,0.27 c-0.2,0.07-0.4,0.13-0.6,0.2C20.4,86.02,20.4,86.02,20.4,86.02z"></path> <path class="st207" d="M20.4,85.96c0.2-0.07,0.4-0.27,0.67-0.13l-0.27,0.2C20.66,86.02,20.53,86.02,20.4,85.96z"></path> <path class="st208" d="M20.4,85.96c0.13,0.07,0.27,0.07,0.4,0c-0.13,0.13-0.27,0.07-0.4,0.07V85.96z"></path> <path class="st209" d="M29.86,84.82c0.07-0.4,0.33-0.6,0.6-0.53c0.33,0.07,0.53,0.33,0.47,0.67c0,0.2-0.07,0.4-0.13,0.6 c-0.2,0.2-0.53,0.27-0.73,0.07c-0.07-0.07-0.13-0.2-0.2-0.33C29.86,85.16,29.86,85.02,29.86,84.82z"></path> <path class="st210" d="M30.33,86.56c0.2-0.07,0.4-0.13,0.53-0.2c0,0.47-0.2,0.6-0.8,0.47v-0.07c0.07,0,0.07-0.07,0.13-0.07 s0.13,0,0.2-0.07C30.33,86.62,30.33,86.62,30.33,86.56z"></path> <path class="st211" d="M30.06,86.82L30.06,86.82c-0.13,0.07-0.27,0-0.4-0.07c0.07-0.07,0.13-0.07,0.2-0.07h0.07 C29.99,86.69,30.06,86.69,30.06,86.82z"></path> <path class="st212" d="M30.33,86.56l0.13,0.07c-0.07,0.13-0.2,0.07-0.33,0.07s-0.2,0-0.27-0.07l0,0v-0.07H30.33z"></path> <path class="st213" d="M29.86,84.82c0.07,0.13,0.07,0.27,0,0.4C29.8,85.16,29.8,85.02,29.86,84.82z"></path> <path class="st214" d="M35.39,86.49c0.07-0.07-0.33-0.13,0-0.2C35.53,86.29,35.53,86.36,35.39,86.49z"></path> <path class="st215" d="M24.8,84.96c0-0.2,0.07-0.4,0.27-0.47c0.2-0.07,0.4,0.07,0.47,0.27c0.13,0.2,0.13,0.53,0,0.73 c-0.07,0.13-0.27,0.13-0.4,0.13C24.93,85.49,24.8,85.22,24.8,84.96z"></path> <path class="st216" d="M20.2,85.16c0.13-0.2,0.13-0.2,0.4-0.13L20.2,85.16z"></path> <path class="st217" d="M30.19,85.56c-0.13,0-0.13-0.13-0.2-0.2c-0.13-0.33,0-0.67,0.27-0.87c0.13-0.07,0.33,0,0.47,0.13l0,0 c0.2,0.33,0.13,0.67-0.13,0.93C30.46,85.56,30.33,85.56,30.19,85.56z"></path> <path class="st218" d="M30.19,85.56c0.07-0.07,0.27-0.07,0.33,0l0,0C30.46,85.62,30.33,85.62,30.19,85.56z"></path> <path class="st219" d="M30.13,86.69h0.33c0,0.2-0.2,0.13-0.27,0.13C30.13,86.82,30.06,86.76,30.13,86.69z"></path> <path class="st200" d="M30.13,86.69l0.07,0.13h-0.13l-0.2-0.13H30.13z"></path> <linearGradient id="SVGID_1_" gradientUnits="userSpaceOnUse" x1="83.6602" y1="83.7485" x2="83.4812" y2="79.735"> <stop offset="0" style="stop-color:#0AC1E4"></stop> <stop offset="0.21" style="stop-color:#15A4D6"></stop> <stop offset="0.47" style="stop-color:#247EC2"></stop> <stop offset="0.59" style="stop-color:#2369A8"></stop> <stop offset="0.74" style="stop-color:#22528D"></stop> <stop offset="0.88" style="stop-color:#21447D"></stop> <stop offset="0.98" style="stop-color:#213F77"></stop> </linearGradient> <path class="st220" d="M79.32,78.83h-1l0,0c1.4,2,3.53,1.33,4.6,1.53c0.27,0,0.53,0.2,0.6,0.47c0.07,0.13,0.13,0.27,0.2,0.4 c0.8,1.87,1.07,3,1.6,3.6c0.07,0.13,0.2,0.27,0.33,0.33l0.07,0.07c0.13,0.07,0.27,0.13,0.4,0.13c0.8,0,2.2,0.07,2.73-0.13 c-0.07-0.07-0.13-0.07-0.13-0.13c-0.07-0.07-0.07-0.13-0.13-0.2l0,0c-0.07-0.13-0.13-0.33-0.2-0.47c-0.73-1.67-1.47-4.93-2.67-5.4 c-0.33-0.13-0.67-0.13-1-0.13C82.85,78.89,81.05,78.83,79.32,78.83z"></path> <path class="st221" d="M80.58,80.69c0.67,0.73,2.07,1,2.93,1.27c-0.07-0.2-0.2-0.47-0.27-0.73C82.92,80.43,81.85,80.83,80.58,80.69 z"></path> <path class="st222" d="M101.05,80.69c-0.73,0.73-2.2,1-3,1.27c0.13-0.2,0.2-0.47,0.33-0.73C98.78,80.43,99.78,80.83,101.05,80.69z"></path> <linearGradient id="SVGID_2_" gradientUnits="userSpaceOnUse" x1="92.2518" y1="83.5283" x2="92.0457" y2="80.6049"> <stop offset="0" style="stop-color:#F38AAF"></stop> <stop offset="0.23" style="stop-color:#E17CAC"></stop> <stop offset="0.55" style="stop-color:#C062A6"></stop> <stop offset="1" style="stop-color:#922A8B"></stop> </linearGradient> <path class="st223" d="M95.11,85.22c0,0-0.07,0-0.07-0.07c-0.2-0.13-0.27-0.47-0.47-0.93c-0.2-0.67-0.33-1.47-0.53-2.27 c-0.13-0.47-0.2-1-0.33-1.53s-0.4-1.4-1.27-1.6h-0.47h-0.2h-0.27l-2.33,0.07c0.07,0.07,0.27,0.27,0.53,0.6 c0.33,0.4,0.6,0.87,0.8,1.33c0.33,0.87,0.67,1.8,0.93,2.73c0.07,0.27,0.13,0.47,0.2,0.67c0.33,1.13,0.93,1.07,1.87,1.07 C94.05,85.36,94.58,85.29,95.11,85.22z"></path> <linearGradient id="SVGID_3_" gradientUnits="userSpaceOnUse" x1="98.3632" y1="85.739" x2="97.3057" y2="77.0829"> <stop offset="0.11" style="stop-color:#F57E2A"></stop> <stop offset="0.15" style="stop-color:#F6862A"></stop> <stop offset="0.21" style="stop-color:#F99C29"></stop> <stop offset="0.29" style="stop-color:#FDC028"></stop> <stop offset="0.31" style="stop-color:#FFCE28"></stop> <stop offset="0.32" style="stop-color:#FFCF2D"></stop> <stop offset="0.34" style="stop-color:#FFDC64"></stop> <stop offset="0.36" style="stop-color:#FFE693"></stop> <stop offset="0.37" style="stop-color:#FFEFBA"></stop> <stop offset="0.39" style="stop-color:#FFF6D8"></stop> <stop offset="0.41" style="stop-color:#FFFBEE"></stop> <stop offset="0.43" style="stop-color:#FFFEFB"></stop> <stop offset="0.45" style="stop-color:#FFFFFF"></stop> <stop offset="0.47" style="stop-color:#FFF1CB"></stop> <stop offset="0.49" style="stop-color:#FFE49A"></stop> <stop offset="0.51" style="stop-color:#FFD970"></stop> <stop offset="0.53" style="stop-color:#FFD050"></stop> <stop offset="0.55" style="stop-color:#FFCA39"></stop> <stop offset="0.56" style="stop-color:#FFC62C"></stop> <stop offset="0.58" style="stop-color:#FFC527"></stop> <stop offset="0.73" style="stop-color:#F68935"></stop> <stop offset="1" style="stop-color:#C02026"></stop> </linearGradient> <path class="st224" d="M103.51,78.89L103.51,78.89c-1.4,1.87-3.27,1.4-4.4,1.47c-0.47,0-0.8,0.07-1,0.47l-0.07,0.13 c-0.27,0.53-0.53,1-0.73,1.47c-0.2,0.4-0.33,0.73-0.47,1c-0.6,1.27-0.73,1.87-2.2,1.87h-1.73c-0.2,0-0.4,0-0.6-0.07 c0.27-0.2,0.47-0.4,0.6-0.67c0.93-1.6,1.87-5.13,3.2-5.67c0.33-0.13,0.67-0.13,1-0.13C99.25,78.89,101.38,78.83,103.51,78.89z"></path> <linearGradient id="SVGID_4_" gradientUnits="userSpaceOnUse" x1="89.5849" y1="85.4533" x2="88.6249" y2="78.6467"> <stop offset="0.09" style="stop-color:#33215E"></stop> <stop offset="0.27" style="stop-color:#A84C9D"></stop> <stop offset="0.29" style="stop-color:#B567AC"></stop> <stop offset="0.35" style="stop-color:#D5A8CF"></stop> <stop offset="0.39" style="stop-color:#ECD7E9"></stop> <stop offset="0.43" style="stop-color:#FAF4F9"></stop> <stop offset="0.45" style="stop-color:#FFFFFF"></stop> <stop offset="0.47" style="stop-color:#EEE2F0"></stop> <stop offset="0.54" style="stop-color:#C8A3CF"></stop> <stop offset="0.6" style="stop-color:#AA71B5"></stop> <stop offset="0.66" style="stop-color:#944DA2"></stop> <stop offset="0.7" style="stop-color:#873796"></stop> <stop offset="0.73" style="stop-color:#822F92"></stop> <stop offset="1" style="stop-color:#141845"></stop> </linearGradient> <path class="st225" d="M85.72,85.29c0.07-0.07,0.13-0.07,0.13-0.13c0.07-0.07,0.07-0.13,0.13-0.13l0,0c0.87-1.33,1.73-5.47,3.07-6 c0.53-0.07,1.13-0.13,1.73-0.07h1.73c-0.93,0.53-1.6,2.4-2,3.4c-0.27,0.6-0.47,1.07-0.6,1.53c-0.6,1.33-0.93,1.6-2.33,1.6h-1.33 C86.05,85.36,85.92,85.36,85.72,85.29z"></path> <path class="st226" d="M85.85,86.89l-0.47,1.67c-0.07,0.13-0.13,0.2-0.27,0.2l0,0c-0.13,0-0.27-0.07-0.27-0.2l-0.33-1.27 l-0.33,1.27c-0.07,0.13-0.13,0.2-0.27,0.2l0,0c-0.13,0-0.27-0.07-0.33-0.2l-0.47-1.67v-0.07c0-0.13,0.13-0.27,0.27-0.27 c0.13,0,0.2,0.07,0.27,0.2l0.33,1.4l0.4-1.4c0-0.13,0.13-0.2,0.2-0.2c0.13,0,0.2,0.07,0.2,0.2l0.4,1.4l0.33-1.4 c0-0.13,0.13-0.2,0.27-0.2c0.13,0,0.27,0.07,0.27,0.2C85.92,86.82,85.92,86.82,85.85,86.89C85.85,86.82,85.85,86.89,85.85,86.89z"></path> <path class="st226" d="M86.65,88.82c-0.47,0-0.8-0.4-0.8-0.8c0-0.47,0.4-0.8,0.8-0.8c0.47,0,0.8,0.4,0.8,0.8 C87.52,88.42,87.18,88.82,86.65,88.82C86.72,88.82,86.65,88.82,86.65,88.82z M86.65,87.56c-0.27,0-0.47,0.13-0.53,0.4 c0,0.27,0.13,0.47,0.4,0.53c0.27,0,0.47-0.13,0.53-0.4v-0.07C87.05,87.76,86.92,87.56,86.65,87.56L86.65,87.56L86.65,87.56z"></path> <path class="st226" d="M88.45,87.56c-0.13,0-0.27,0.07-0.33,0.2v0.87c0,0.13-0.07,0.2-0.2,0.2l0,0l0,0c-0.13,0-0.2-0.07-0.2-0.2 l0,0v-1.27c0-0.13,0.13-0.2,0.27-0.2c0.07,0,0.13,0.07,0.2,0.2l0,0c0.07-0.13,0.2-0.2,0.33-0.2c0.07,0,0.2,0.07,0.2,0.13l0,0 C88.65,87.49,88.52,87.56,88.45,87.56z"></path> <path class="st226" d="M90.05,88.82c-0.13,0-0.2-0.07-0.2-0.2l0,0l0,0c-0.13,0.13-0.27,0.27-0.47,0.27c-0.4,0-0.67-0.27-0.67-0.8 s0.27-0.8,0.67-0.8c0.2,0,0.4,0.07,0.47,0.27v-0.6c0-0.13,0.07-0.2,0.2-0.2l0,0c0.13,0,0.2,0.07,0.2,0.2l0,0v1.8 C90.25,88.69,90.18,88.82,90.05,88.82L90.05,88.82z M89.85,87.69c-0.07-0.13-0.2-0.2-0.33-0.2c-0.27,0.07-0.4,0.27-0.4,0.53 c0,0.2,0.2,0.33,0.4,0.4c0.13,0,0.27-0.07,0.33-0.2V87.69z"></path> <path class="st226" d="M91.98,87.02h-0.87v0.47h0.87c0.13,0,0.2,0.07,0.2,0.2c0,0.13-0.07,0.2-0.2,0.2h-0.87v0.67 c0,0.13-0.13,0.2-0.2,0.2l0,0c-0.13,0-0.2-0.13-0.2-0.2v-1.67c0-0.13,0.13-0.27,0.27-0.27h1.07c0.13,0,0.2,0.07,0.2,0.2 S92.05,87.02,91.98,87.02L91.98,87.02z"></path> <path class="st226" d="M92.58,88.82c-0.13,0-0.2-0.07-0.2-0.2v-1.8c0-0.13,0.07-0.2,0.2-0.2l0,0c0.13,0,0.2,0.07,0.2,0.2v1.8 C92.78,88.69,92.71,88.82,92.58,88.82z"></path> <path class="st226" d="M94.51,87.49l-0.67,1.53c-0.07,0.27-0.27,0.4-0.53,0.4c-0.13,0-0.27-0.07-0.27-0.2c0-0.07,0.07-0.2,0.2-0.2 l0,0h0.07c0.07,0,0.13-0.07,0.13-0.13l0.07-0.13l-0.53-1.33v-0.07c0-0.13,0.07-0.2,0.2-0.2l0,0c0.07,0,0.13,0.07,0.2,0.13l0.33,1 l0.33-1c0-0.07,0.13-0.13,0.2-0.13c0.13,0,0.2,0.07,0.2,0.2C94.51,87.42,94.51,87.42,94.51,87.49z"></path> <path class="st226" d="M95.98,88.09h-0.93c0,0.2,0.2,0.4,0.47,0.33c0.13,0,0.2,0,0.33-0.07h0.07c0.07,0,0.2,0.07,0.2,0.2l0,0 c0,0.2-0.4,0.27-0.6,0.27c-0.47-0.07-0.73-0.47-0.67-0.93c0.07-0.33,0.33-0.6,0.67-0.67c0.33,0,0.67,0.2,0.73,0.53 c0,0.07,0.07,0.13,0.07,0.2C96.18,88.09,96.11,88.16,95.98,88.09z M95.38,87.49c-0.2,0-0.4,0.13-0.4,0.33h0.8 C95.78,87.62,95.65,87.49,95.38,87.49L95.38,87.49z"></path> <path class="st226" d="M97.11,87.56c-0.13,0-0.27,0.07-0.33,0.2v0.87c0,0.13-0.07,0.2-0.2,0.2l0,0c-0.13,0-0.2-0.07-0.2-0.2v-1.27 c0-0.13,0.07-0.2,0.2-0.2l0,0c0.13,0,0.2,0.07,0.2,0.2l0,0c0.07-0.13,0.2-0.2,0.33-0.2c0.07,0,0.2,0.07,0.2,0.13l0,0 C97.31,87.49,97.25,87.56,97.11,87.56L97.11,87.56z"></path> <path class="st226" d="M98.05,88.82c-0.2,0-0.47-0.07-0.6-0.2v-0.07c0-0.07,0.07-0.2,0.2-0.2h0.07c0.13,0.07,0.27,0.13,0.4,0.13 c0.2,0,0.27-0.07,0.27-0.2c0-0.27-0.93-0.07-0.93-0.67c0-0.27,0.2-0.47,0.67-0.47c0.2,0,0.4,0.07,0.53,0.2v0.07 c0,0.07-0.07,0.13-0.13,0.13h-0.07c-0.13-0.07-0.2-0.07-0.33-0.07s-0.27,0.07-0.27,0.13c0,0.2,0.93,0.07,0.93,0.67 C98.71,88.62,98.51,88.82,98.05,88.82z"></path> <g> <g> <g> <g> <defs> <rect id="SVGID_5_" x="90.98" y="11.71" width="55.92" height="53.06"></rect> </defs> <clipPath id="SVGID_6_"> <use xlink:href="#SVGID_5_" style="overflow:visible;"></use> </clipPath> <g class="st227"> <linearGradient id="SVGID_7_" gradientUnits="userSpaceOnUse" x1="6073.7642" y1="831.4657" x2="6031.3076" y2="891.3643" gradientTransform="matrix(0.9849 -0.1731 0.1731 0.9849 -5990.6069 258.5814)"> <stop offset="0" style="stop-color:#201B59"></stop> <stop offset="1" style="stop-color:#2D2D84"></stop> </linearGradient> <path class="st228" d="M119.51,44.23c-0.2-0.2-0.2-0.47,0-0.67l0,0l25.46-22.73c0.07-0.07,0.2-0.07,0.27-0.07l0,0 c0.13,0.07,0.13,0.2,0.13,0.33c0,0,0,0.07-0.07,0.07L120.18,44.3C119.98,44.43,119.71,44.43,119.51,44.23L119.51,44.23z"></path> <path class="st229" d="M108.98,45.37c0,0,7.53,2.73,11.06,1.47c0.13-0.07,0.33-0.13,0.47-0.2c3.33-1.73,3.73-6.47,3.73-6.47 l1.47,0.27c0,0,0.47,7.6-4.73,10.86c-2.53,1.6-6.53,2.2-12.53,0.27L108.98,45.37z"></path> <path class="st229" d="M124.31,40.57l-0.07-0.4c-0.13-0.73,0-1.47,0.53-2c1.2-1.4,2.07-0.93,2.07-0.93 c-0.07,0.2-0.07,0.4-0.07,0.6c0,0.13,0.13,0.27,0.27,0.27c0.07,0,0.13,0,0.2-0.07l1.93-1.8c0,0,0.53,2.8-3.6,4.73 L124.31,40.57z"></path> <linearGradient id="SVGID_8_" gradientUnits="userSpaceOnUse" x1="-11651.4541" y1="27.2269" x2="-11646.4102" y2="39.8803" gradientTransform="matrix(-1 0 0 1 -11544.1914 0)"> <stop offset="0" style="stop-color:#201B59"></stop> <stop offset="1" style="stop-color:#2D2D84"></stop> </linearGradient> <path class="st230" d="M104.25,34.04c0,0-1.73,0.8-2,1.8c-0.27,0.73-2.13,0.87-2.33,2.33c-0.07,0.8-0.67,1.4-1.47,1.53 c-1.93,0.27-4.87,1.27-5.33,4.6c-0.33,2.53,0.93,3.53,2.33,3.87c1,0.2,1.67,1.2,1.47,2.2c-0.2,0.93,0.07,2.07,1.8,3 c3.73,2,7.53-4.73,7.53-4.73l0.8-11.66L104.25,34.04z"></path> <linearGradient id="SVGID_9_" gradientUnits="userSpaceOnUse" x1="-7611.3853" y1="105.1993" x2="-7613.6797" y2="94.9757" gradientTransform="matrix(-1 0 0 1 -7523.981 0)"> <stop offset="0" style="stop-color:#66CDF3"></stop> <stop offset="1" style="stop-color:#4A5AA8"></stop> </linearGradient> <path class="st231" d="M88.78,107.22l-0.27,2c-0.07,0.4-0.33,0.67-0.73,0.73c-0.87,0.13-1.8,0.13-2.67,0.07 c-0.4-0.07-0.67-0.4-0.6-0.8c0-0.07,0-0.07,0-0.13c0.27-0.93,0.73-1.87,1.33-2.6h2.2c0.4,0,0.67,0.33,0.67,0.67 C88.78,107.15,88.78,107.22,88.78,107.22z"></path> <path class="st229" d="M106.18,83.76l0.4,2.2c0,0-1.27,12.73-1.47,17.8c-0.07,0.8,0.2,1.6,0.6,2.27l2.2,3.53l-5.53-3.27 l-0.13-0.67l0.93-1.27l-1.2-14.26c-0.07-0.87,0.13-1.67,0.47-2.4l1.13-2.2L106.18,83.76z"></path> <linearGradient id="SVGID_10_" gradientUnits="userSpaceOnUse" x1="-7629.8755" y1="105.9404" x2="-7626.605" y2="116.0825" gradientTransform="matrix(-1 0 0 1 -7523.981 0)"> <stop offset="0" style="stop-color:#66CDF3"></stop> <stop offset="1" style="stop-color:#4A5AA8"></stop> </linearGradient> <path class="st232" d="M108.24,110.09h-1.8c-0.33,0-0.67-0.13-0.87-0.4c-0.53-0.73-1.67-2.13-2.27-2.2 c-0.73-0.07-0.67,2.53-0.67,2.53h-0.33l-0.53-3.27c-0.13-0.8,0.27-1.6,1-2l0,0c0.13,0.73,0.47,1.4,1.07,1.8 c0.93,0.53,3.73,2.53,3.73,2.53c0.27-0.07,0.47-0.07,0.73,0c0.27,0,0.47,0.27,0.47,0.53 C108.71,109.89,108.51,110.09,108.24,110.09z"></path> <path class="st229" d="M98.58,84.82c0,0-7.33,13.93-8.53,17.13c-0.73,2-1.27,4-1.6,6.07c0,0.4-0.53,0.8-1.87,0.8 c-0.47,0.07-0.93-0.13-1.2-0.53c-0.13-0.27-0.13-0.53,0-0.73c0.4-0.87,1.8-3.6,2.27-4.87c0.6-1.47,1.87-8.26,2.6-10.6 c0.73-2.33,1.47-4.87,4.53-7.2C94.78,84.82,96.91,82.76,98.58,84.82z"></path> <linearGradient id="SVGID_11_" gradientUnits="userSpaceOnUse" x1="129.3505" y1="7.3877" x2="117.0388" y2="32.011"> <stop offset="0" style="stop-color:#F5928F"></stop> <stop offset="1" style="stop-color:#F37064"></stop> </linearGradient> <path class="st233" d="M103.25,61.96c1.87-8.06-2.93-12.6-2.93-12.6c2.4-2.33,6.47-3.67,8-4.07c0.4-0.13,0.8-0.07,1.07,0.2 c1.27,1,4.67,4.07,4.13,6.53c-0.4,1.8-3.73,10.6-3.73,10.6C107.64,63.5,105.18,63.23,103.25,61.96z"></path> <linearGradient id="SVGID_12_" gradientUnits="userSpaceOnUse" x1="131.7032" y1="45.1077" x2="118.2689" y2="59.3393"> <stop offset="0" style="stop-color:#F5928F"></stop> <stop offset="1" style="stop-color:#F37064"></stop> </linearGradient> <path class="st234" d="M99.05,65.96c0.8-2.33,4.2-4,4.2-4c2,1.27,4.4,1.47,6.6,0.67c0.4,1.67,0.47,3.4,0.2,5.13 c-0.47,2.47-3.47,18.26-3.47,18.26c-4.73,0.93-12-0.93-12-0.93C97.58,79.69,98.25,68.3,99.05,65.96z"></path> <path class="st229" d="M105.45,39.9l-1.53,6.93c-0.13,0.6,0.4,0.53,1,0.4c1-0.2,2.33-0.6,2.73-1.4 c0.07-0.07,0.07-0.2,0.07-0.27l0.67-4.8c0.07-0.4-0.13-0.73-0.53-0.93l-1.27-0.53c-0.4-0.2-0.93,0-1.13,0.4 C105.45,39.77,105.45,39.83,105.45,39.9z"></path> <path class="st229" d="M108.38,33.57c0,0,1.6,1.07,2.33,3.93c0.73,2.87-0.47,3.87-1.6,3.8c-1.73-0.07-3.4-1-4.33-2.47 C103.31,36.84,106.25,32.24,108.38,33.57z"></path> <linearGradient id="SVGID_13_" gradientUnits="userSpaceOnUse" x1="-11608.9189" y1="-1662.9276" x2="-11603.875" y2="-1650.2743" gradientTransform="matrix(-0.98 -0.19 -0.19 0.98 -11573.9873 -560.6581)"> <stop offset="0" style="stop-color:#201B59"></stop> <stop offset="1" style="stop-color:#2D2D84"></stop> </linearGradient> <path class="st235" d="M106.25,37.7c0,0-0.6-4.07,2.73-3.47l0.67,0.73c0,0,1.6-1.87-0.2-3.27s-4.33-1.07-5.73,1.53 c-1.4,2.53-1.93,4.33-0.73,5.93c1.2,1.6,2.07,0.2,2.07,0.2s-0.53-1.4-0.07-1.93c0.47-0.6,1,0.33,1,0.33L106.25,37.7z"></path> <path class="st229" d="M105.78,38.04c0,0-0.27-2.07-1.33-1.47c-1.07,0.6,0.4,1.93,0.93,2.4L105.78,38.04z"></path> <path class="st229" d="M100.31,49.57c0,0-3.27,5.27-3.93,9.13c-0.67,3.93,5.53,5.53,7.86,3.27l-0.33-1.6 c0,0-3.6,0.67-3.93-1.33c-0.33-2,2.93-5.87,2.93-5.87S101.91,50.17,100.31,49.57z"></path> <linearGradient id="SVGID_14_" gradientUnits="userSpaceOnUse" x1="123.9235" y1="46.6386" x2="100.4228" y2="66.7875"> <stop offset="0" style="stop-color:#201B59"></stop> <stop offset="1" style="stop-color:#2D2D84"></stop> </linearGradient> <path class="st236" d="M103.05,65.3l3.73-13c0.07-0.13,0.2-0.27,0.33-0.27c0.67-0.07,2.6-0.27,4.87-0.47 c2.6-0.27,5.13-0.33,7.73-0.27c0.2,0,0.33,0.2,0.33,0.4c0,0.07,0,0.07-0.07,0.13c-1.07,2.2-5.47,11-7.67,13.86 c-0.07,0.07-0.2,0.13-0.33,0.13l-8.6-0.07c-0.2,0-0.4-0.2-0.4-0.4C103.05,65.36,103.05,65.36,103.05,65.3z"></path> <path class="st237" d="M112.31,50.5l2.73-0.47c0.13,0,0.2,0.07,0.2,0.2v0.07l-0.27,0.8c0,0.07-0.07,0.13-0.13,0.13l-2.6,0.33 c-0.13,0-0.2-0.07-0.2-0.13v-0.07l0.2-0.73C112.24,50.57,112.24,50.5,112.31,50.5z"></path> <path class="st237" d="M110.31,52.77l0.2-1.13c0-0.13,0.13-0.2,0.2-0.2l5.4-0.53c0.13,0,0.27,0.07,0.27,0.27v0.07l-0.33,1.47 c0,0.13-0.13,0.2-0.27,0.2l-5.33,0.27C110.44,53.03,110.31,52.9,110.31,52.77L110.31,52.77z"></path> <path class="st229" d="M103.91,62.16c0,0-0.53-2.13-0.33-2.87c0.2-0.73,0.6-1.73,1.93-1.53c1,0.2,2,0.47,2.93,0.8 c0,0.4-0.4,0.73-0.8,0.73c-0.07,0-0.2,0-0.27-0.07l0.67,0.47c0,0-0.07,0.8-0.93,0.33l0.6,0.67c-0.2,0.33-0.6,0.47-0.93,0.27 l-0.07-0.07C106.05,60.56,105.71,62.43,103.91,62.16z"></path> </g> </g> </g> </g> </g> <path class="st238" d="M134.91,150.34c4,11.6,6.73,35.93,11.26,49.66h55.12l3.6-29.59c0,0,13.4,1.07,14.46-2.4 c8.46-26.53,16.46-51.92-15.2-68.79c-6.73-3.6-48.39-2.4-48.39-2.4s-27.33,4.8-60.59,50.86 C94.11,149.28,130.31,136.95,134.91,150.34z"></path> <path class="st229" d="M150.5,117.28l-9.46,3.87c0,0-3.67,1.67-2.8,2.2c1.07,0.6,8.4-1.67,8.4-1.67c1.87,0.87,3.6,1.8,5.27,3 c3.13,2.07,8.73,1.73,8.73,1.73s19.26,37.39,36.39,43.72c17.13,6.33,19.6,3.47,22.06-1.07c2.47-4.53,1.93-16.26-10.93-22.73 c-16.33-8.2-43.66-22.06-43.66-22.06l-8.4-8.86l-6-0.27c0,0-2.47,1.73-3.87,2.8"></path> <path class="st239" d="M136.64,141.75c0.4,1.13-0.2,2.2-1.33,2.2H79.65c-1.27-0.13-2.4-0.93-2.87-2.2l-14.13-38.66 c-0.4-1.13,0.2-2,1.33-2h55.65c1.27,0,2.4,0.8,2.87,2L136.64,141.75z"></path> <path class="st239" d="M80.45,143.95h74.25c1.13,0,2.07,0.93,2.07,2.07v1.87c0,1.13-0.93,2.07-2.07,2.07H80.45 c-1.13,0-2.07-0.93-2.07-2.07v-1.87C78.38,144.88,79.32,143.95,80.45,143.95z"></path> <path class="st240" d="M124.57,149.94H84.72c0,0-10.4,4.8-0.53,12.8c8.06,6.53,16.86,1.93,21.33,0.07s18.53-10.33,18.53-10.33 l6.27,0.73l7.86-3.67c-1.33-0.67-2.87-0.67-4.2,0c-2.33,1.07-3.67,0.8-3.67,0.8l-2.33-1.33l1.6-1.87l0.8-1.87l-3.67,2.2 L124.57,149.94z"></path> <path class="st229" d="M127.57,150.48c0,0-28.39,2.73-35.53,3.47c-4.73,0.47-9.06,2.47-10.33,5c0.53,1.13,0.93,2.87,2.47,3.87 c8.46,5.33,15.66,3.13,20.13,1.27c4.47-1.87,19.73-11.53,19.73-11.53l6.27,0.73C130.64,152.74,128.11,150.54,127.57,150.48z"></path> <path class="st240" d="M218.42,170.21c-1.87,1.27-2.47,2.33-5.47,1.87c-4.6-0.6-19.06-8.86-25.93-14.06 c-10.86-8.26-25.73-31.53-26.33-31.53c1.07,2,19.66,37.53,36.33,43.66C212.69,175.87,216.09,174.01,218.42,170.21z"></path> <path class="st229" d="M171.03,111.35c7.86,0.93,15-3,19.26-13.6c-6-2.4-11.8-8.46-12.06-16.86c-0.33-12.33-14.13-1.07-14.13-1.07 s3.07,13.46-2.67,18C159.83,103.49,164.17,110.55,171.03,111.35z"></path> <path class="st238" d="M152.57,66.43c0,0-18.86-4.6-13.8-16.2c5.07-11.6,5.53-4.13,5.8-8.93c0.27-4.87-2.4-15.73,4.13-14.26 s11.4,1,18.13-2.93s10.13-6.53,12.33,0.73c2.2,7.27,1.93,6.27,9.66,7c7.73,0.73,9.93,2.2,7.27,6.27c-2.67,4.13-6.53,5.53-2.93,9.66 c3.6,4.13,4.33,8.2,1.47,11.13c-2.87,2.93-15.86,8.33-15.86,8.33L152.57,66.43z"></path> <path class="st240" d="M181.83,57.43c0,0,6.13-4.07,7.6-1.07c1.47,3,0.73,8.26-1.53,10.8c-2.33,2.53-5.07,6.13-6.8,0.2 C179.3,61.43,181.83,57.43,181.83,57.43z"></path> <path class="st240" d="M148.37,68.96c0,0-2.87-7.73,3.13-7c3.33,0.4,7.4,3.73,8.33,7.07c0.93,3.27,2.47,7.53-3.47,5.87 C150.44,73.23,148.37,68.96,148.37,68.96z"></path> <path class="st240" d="M179.23,86.36c-0.6-1.8-1-3.67-1-5.53c-0.33-12.33-14.13-1.07-14.13-1.07S167.97,100.22,179.23,86.36z"></path> <path class="st229" d="M150.97,60.9c0,0,4.6,16.93,12.73,23.19c5.4,4.27,13.66,0.87,18.53-8.13c4.73-8.73,2.93-39.06-6.53-34.33 c-9.4,4.67-1.47-6.2-6.53-2.53S172.36,56.9,150.97,60.9z"></path> <path class="st109" d="M171.5,73.43c1.67,0,3.27,0.07,4.87,0.13c-0.47,3.47-3.67,5.87-7.13,5.33c-2.73-0.4-4.87-2.47-5.33-5.2 C166.37,73.56,168.9,73.43,171.5,73.43z"></path> </g> </svg> 