<?xml version="1.0" encoding="UTF-8"?> <!-- Generator: Adobe Illustrator 24.2.0, SVG Export Plug-In . SVG Version: 6.00 Build 0) --> <svg xmlns="http://www.w3.org/2000/svg" xmlns:xlink="http://www.w3.org/1999/xlink" version="1.1" id="Layer_1" x="0px" y="0px" viewBox="0 0 320 180" style="enable-background:new 0 0 320 180;" xml:space="preserve"> <style type="text/css"> .st0{fill:#FFFFFF;} .st1{fill:#D6E9BD;} .st2{fill:#96CA59;} .st3{fill:#60AD6E;} .st4{fill:#505E68;} .st5{fill:#5B979C;} .st6{fill:#1F81C5;} .st7{fill:none;stroke:#5B979C;stroke-width:5.7973;} .st8{fill:none;stroke:#FFFFFF;stroke-width:5.7973;} .st9{fill:#EBF4FB;} .st10{fill:#95CA59;} .st11{fill:#F58458;} .st12{fill:#5181C2;} .st13{fill:#4F74B9;} .st14{fill:#DCE3EA;} .st15{fill:#EFF2F5;} .st16{fill:#1B72A3;} .st17{fill:#D6644B;} </style> <rect x="0.2" class="st0" width="319.8" height="180"></rect> <g id="Layer_1_2_"> <path class="st1" d="M53,0.8h82.2c1.7,0,3,1.3,3,3v68.7c0,1.7-1.3,3-3,3H53c-1.7,0-3-1.3-3-3V3.8C50,2.2,51.3,0.8,53,0.8z"></path> <path class="st2" d="M50,11.7V3.8c0-1.7,1.3-3,3-3h82.2c1.6,0,3,1.3,3,3l0,0v7.8"></path> <rect x="84.4" y="23.2" class="st3" width="6" height="6"></rect> <rect x="96.4" y="23.2" class="st3" width="6" height="6"></rect> <rect x="108.3" y="23.2" class="st3" width="6" height="6"></rect> <rect x="120.3" y="23.2" class="st1" width="6" height="6"></rect> <rect x="60.5" y="35.2" class="st3" width="6" height="6"></rect> <rect x="72.5" y="35.2" class="st3" width="6" height="6"></rect> <rect x="84.4" y="35.2" class="st4" width="6" height="6"></rect> <rect x="96.4" y="35.2" class="st4" width="6" height="6"></rect> <rect x="108.3" y="35.2" class="st3" width="6" height="6"></rect> <rect x="120.3" y="35.2" class="st1" width="6" height="6"></rect> <rect x="60.5" y="47.2" class="st5" width="6" height="6"></rect> <rect x="72.5" y="47.2" class="st5" width="6" height="6"></rect> <rect x="84.4" y="47.2" class="st5" width="6" height="6"></rect> <rect x="96.4" y="47.2" class="st3" width="6" height="6"></rect> <rect x="108.3" y="47.2" class="st6" width="6" height="6"></rect> <rect x="120.3" y="47.2" class="st1" width="6" height="6"></rect> <rect x="60.5" y="59.1" class="st3" width="6" height="6"></rect> <rect x="72.5" y="59.1" class="st3" width="6" height="6"></rect> <rect x="84.4" y="59.1" class="st3" width="6" height="6"></rect> <line class="st7" x1="62" y1="26.2" x2="65" y2="26.2"></line> <line class="st7" x1="74" y1="26.2" x2="76.9" y2="26.2"></line> <line class="st7" x1="121.8" y1="62.1" x2="124.8" y2="62.1"></line> <line class="st7" x1="109.8" y1="62.1" x2="112.8" y2="62.1"></line> <line class="st7" x1="97.9" y1="62.1" x2="100.8" y2="62.1"></line> <line class="st8" x1="82.9" y1="6.8" x2="109.8" y2="6.8"></line> <line class="st8" x1="56" y1="6.8" x2="59" y2="6.8"></line> <line class="st8" x1="129.2" y1="6.8" x2="132.2" y2="6.8"></line> <rect x="50" y="11.8" class="st9" width="88.2" height="2.1"></rect> <path class="st10" d="M96.9,131.3c14.7-1,60.3-4.7,87.9-10.4c51-10.6,93.6,0.9,66.7,17.6c-7.5,4.7,15.8,29.4-38.4,37.8 c-47.5,7.4-96.7-1.2-120.5-4.9s-35-11.4-40.2-15C47.9,153.4,45.5,134.9,96.9,131.3z"></path> <path class="st11" d="M176.3,71.3c0.8,2.4,1.6,4.9,2.2,7.4c1.4,5.2,1.1,10.4,0.8,15.6c-0.2,2.1-0.5,4.2-1,6.3 c-0.2,1.1-0.7,2.5-0.4,3.7c0.3,0.8,0.3,0.5,1,0.7c1.2,0.1,2.2,0.7,3,1.6c0.2,0.3,0.3,0.6,0.4,0.9c0.4,1.2,0.8,3,0.9,3 c-0.9-0.1-1.7-0.5-2.3-1.1c-0.1-0.1-0.2-0.2-0.3-0.3c-0.6-0.3-1.3,0-1.9,0c-0.7-0.1-1.4-0.4-2-0.7c-0.5-0.2-1-0.5-1.4-0.8 c-0.5-0.5-0.9-1.1-1.2-1.8c-0.6-3.1-1-6.2-1.3-9.3c0-2-0.1-4-0.5-6v-0.1c-0.2-2.5-0.2-4.4-1.5-6.6c-1.5-2.3-3.3-4.4-5.2-6.4 c-0.3-0.3-0.6-0.7-0.9-1c2.1-0.2,4.2-0.8,6.2-1.6C172.8,73.9,174.8,72.7,176.3,71.3"></path> <path class="st11" d="M153.9,56.8c0,0,4.1-4.1-2.1-7c-0.8-0.4-6.2-3.1-4.2-7c1.1-2.1,7.2-12.6,12.1-12.1c4.3,0.4,11.3,2.6,10.7,8.2 s-6,8.4-8,10.1c-1.4,1.2-1.8,8.9,0.7,10.4C164.1,59.9,153.9,56.8,153.9,56.8z"></path> <path class="st5" d="M157.2,38.2c0.1,0.6-2.3,7.3-1,9.3c2.1,3.5,3.4,4.5,5.2,4.8c2.1,0.3,5.9-1.7,7.7-2.7c1.8-1,0.6-1,3-1.7 c5.6-1.7,4.2-9.5,3.6-10.8S173,34.2,171,35S155.4,24,157.2,38.2z"></path> <path class="st5" d="M167.2,39.9c0,0-0.7,11.1,2.5,8.4s5.7-1.9,6-4.6c0.3-2.7,1.6-3.6,0.6-3.9c-1-0.3,1.8-6-0.8-9.6 c-2.7-3.6-1.4-1.8-2-0.9c-0.6,0.8-2.4-2.4-3.3-3.9c-1.2-1.9-8.3-3.7-7.8-0.7c0.5,3-2.3-1.3-3,0.3c-0.7,1.6-2.2-0.4-2.4-1.9 c-0.2-1.4-4.2,3.9-1.5,10.3C158.3,39.8,165.3,40.1,167.2,39.9z"></path> <path class="st5" d="M158.9,40.6c0,0-2.8-1.4-3.5,0.3l-0.7,1.7l-0.7-2.1c0,0,4.5-6.2,4.5-8C158.6,30.9,159.2,39.2,158.9,40.6z"></path> <path class="st11" d="M144.5,134.6c0,0-0.4,8.4,0,12.1c0.4,3.6,3.4,20.7,3.7,23.4c0.4,2.6,3.8-0.9,3.1-4.4c-0.7-3.5,0.4-9,0.8-13.7 c0.4-4.6,1-14.4-0.1-18.5C150.9,129.4,144.5,134.6,144.5,134.6z"></path> <path class="st11" d="M158.2,132.3l9.6-0.9c0,2.7-0.2,5.5-0.7,8.2c-0.8,5.1-3.6,16.7-3.8,21c-0.1,4.3,0.1,9.8-2.9,7.9 c-2.9-1.9-2.2,0.1-1.9-1.3c0.3-1.4,0.2-12.8-0.4-18C157.4,143.9,157.3,134.6,158.2,132.3z"></path> <path class="st12" d="M141.3,108.4v1.7c0.3,0.3,0.4,0.7,0.4,1.1c0,2.6,0.1,5.2,0.2,7.8c0.3,5.7,1.3,15.1,1.9,20.8l9-2.3l2.3-19.3 l0.9-7.3l6.5-7.6L141.3,108.4z"></path> <path class="st13" d="M169.6,101.2l-11,3.3c-0.5,0.1-3.9,11.5-3.9,11.5l0.1,0.8h0.1c1,0,1.8,0.8,1.8,1.8c0.3,4.5,0.7,9,1,13.5 l10.6-0.8v-1.6c0-2.2,0-4.5,0-6.8c0-3.4,0-6.9,0-10.3c0-0.7,0.4-1.3,1-1.6c0.2-1,0.4-1.9,0.6-2.8L169.6,101.2z"></path> <path class="st11" d="M115,12.6L115,12.6c4.7,5.7,6.5,13,10.7,19c2.7,3.9,5.3,7.8,8.8,11c1.1,1,7.5,5.3,7.5,6.9 c0,1.3,0.2,2.7-0.3,3.9c-0.4,1-1.2,1.7-2.3,1.9c-1.1,0.3-2.2,0.6-3.3,0.8c-3.6,0.3-7.8-6.9-9.8-9.4c-3-3.8-5.5-8-7.2-12.4 c-0.8-2.3-1.6-10.1-3.2-11.4c-0.6-0.5-1.6-0.1-2.2-0.7c-0.3-0.3-0.4-0.7-0.5-1.1c-0.3-1.2-0.5-2.4-0.7-3.7c-0.1-1.4,0.4-3-0.3-4.3 l0,0c-0.5-1-0.8-1.7-0.5-2.7C112.9,10.5,114,11.4,115,12.6z"></path> <path class="st14" d="M148.1,52.7c0,0-12.6-8.8-13.1-9.8c-0.5-1-4.2,5.5-4.8,8c-0.6,2.5-1.4,6,0.4,6.9c1.8,0.9,12.2,6.5,14,9.8 C146.4,70.9,148.1,52.7,148.1,52.7z"></path> <path class="st14" d="M165.5,56.5c0.2-0.8,4.7,0.6,7.9,5.5c3.2,4.8,6.1,21.8,6.1,21.8s-1.5,2-3,2.3c-1.5,0.3-6.6-1-8.3-0.4 C166.5,86.3,165.4,57,165.5,56.5z"></path> <path class="st15" d="M170,92.8c-0.9-5.3-1.2-10.6-0.8-16c1.1-14.2-1-19.9-3.4-20.8c-2-0.7-4.1-1.2-6.2-1.5c0,0-10.9-2.5-12.3-2.9 c-1.4-0.4-5,10.4-4.9,19.3s1.4,13.6-0.8,21.2c-2.2,7.6-1,16.6-1,16.6s12.8,3.2,22.5,1.9c3.9-0.5,6.1-0.7,7.6-0.8 C170.1,104.2,170,98.5,170,92.8z"></path> <path class="st4" d="M148.8,168.6L148.8,168.6c-0.6,1.5-1.9,3.2-2.6,4.7c-0.6,1.3-1,2.2,0.7,2.4c1,0.1,3.2,0.5,4.1-0.1 c0.7-0.5,2.7-6.1,2.7-6.1C152.5,164.5,149.3,167.3,148.8,168.6z"></path> <path class="st4" d="M161,164.5c-1-0.3-2.9,1.6-2.7,3.5c0,1,0.7,2,1.6,2.4l4.3,1c0.1-1.2,0.1-2.4-0.1-3.5 C163.7,165.6,162.7,165.1,161,164.5z"></path> <path class="st11" d="M215.6,110.2c0.2-0.7,0.2-1.5,0.3-2.2c0-0.3,2.6-0.6,2.9,0.8c0.4,1.9,0.6,3.8,0.8,5.7c0,1-1,1.7-1.8,2.4 C217,117.7,215.5,110.6,215.6,110.2z"></path> <path class="st11" d="M210.1,145.1c0,0-0.4,0.8,0.8,2.2c2,2.3,1,11.3-2.3,12.8c-0.9,0.3-1.8,0.1-2.5-0.6c-0.4-0.7-0.4-1.6-0.2-2.4 c0.4-1.4,1.7-2.5,1.9-4c0.2-1.5-0.9-2.8-0.8-4.3C207.2,147.2,209.1,145.7,210.1,145.1z"></path> <path class="st11" d="M259.9,66.2c0.5-1.1,4.1-0.3,5.3-0.6c0.5-0.1,1.1-0.7,1.6,0.2c0.8,1.3-0.8,1-1.5,1.2 c-0.2,0.1,1.3,0.8,1.4,0.8c0.6,0.1,1.2,0.2,1.7,0.6c0.8,0.5,1.5,0.2,1.6,1.2c0.4,5-9.9-1.7-10.8,1c0.3-1.2,0.4-2.3,0.4-3.5 C259.7,66.7,259.8,66.4,259.9,66.2L259.9,66.2z"></path> <path class="st11" d="M201.8,40C201.8,40,201.8,39.9,201.8,40c0.4-1.3,1.5-2.4,0.8-3.9c-0.6-1.2-2.1-1.5-3.3-1.7 c-0.7-0.1-1.4,0.2-2,0.1c-0.7-0.1-1.4-1-2.1-1.3c-0.2-0.1-1.9-0.3-1.8-0.1c0.4,1.1,1,2.1,1.7,3c0.8,1.1,2,1.7,2.8,2.8 c0.6,0.8,4,3.1,4,3.1C201.7,41.4,201.7,40.7,201.8,40z"></path> <path class="st4" d="M241.7,50.5c3.4,7.2,1.9,19.1-1.3,24c-3.8,5.9-7.4,10.1-2.1,11.9l0.8,0.3c6.5,2.3,16.6,6.8,7.5,12.8 c-5.6,3.7-10.9,4.5-17.4,2.3c-5-1.9-9.2-5.6-11.7-10.3c-2.1-3.9,0.4-10.9-4-13.4c-5.2-3-9.3-13-6-19.4s7.8-8.4,8.2-12.4 c0.7-6.3,6.9-4.7,11.1-3.2C232.5,45.1,238.9,44.5,241.7,50.5z"></path> <path class="st16" d="M215.3,128.9c0,0,2.6,0.5,3.2-7.7c0.7-8.1-0.2-11.9-1.8-12.1c-1.6-0.2-4.8,3.1-4.7,11.9 C212,129.7,214.3,128,215.3,128.9z"></path> <path class="st6" d="M200.8,135.9c-1.1-3.6-7.6-19.4-7.2-25c0.2-3.4,7.6-7.6,10-5.2c1.4,1.4-1.8,5.3-0.3,12.3 c1,4.5,2.8,13.5,4.2,17.1c1.6,4,2.6,8.1,3.2,12.4c0.2,1.8-1,4.8-3.1,2.2"></path> <path class="st6" d="M201.9,107.7c0,0,6.4,15.4,7.7,19.3c1.3,3.9,2.4,4.4,4.4,4c1.7-0.3,3-1.6,3.4-3.3c0.4-1.4-6.3-23.7-6.3-24.5 C211,102.3,202.5,105.4,201.9,107.7z"></path> <path class="st6" d="M212.1,122c-1.2-2.8-5-12.3-7-16.9c2.6-1.4,5.9-2.3,5.9-1.8c0,0.5,3.1,11,4.9,18.1 C216.4,123.2,216.6,132.6,212.1,122z"></path> <path class="st6" d="M209.8,99.2c0,0-13,4-15.9,3c-2.9-1-1.4,9.4,2.2,18.7c3.6,9.3,6.8,18,7.1,12.7c0.4-5.3-1.8-19-1.4-23.2 c0.1-0.8-3.4-2.8-2.9-3.4c0.5-0.6,6.2,0.3,7-0.3C208.3,105.1,209.2,100.8,209.8,99.2z"></path> <path class="st3" d="M213.2,95c-1.4,2.6-2.2,5.5-2.1,8.4c0.3,4.4-17.7-0.9-18,0.7c-0.3,1.6-2-6.8,2.1-16.7S210.6,87.6,213.2,95z"></path> <path class="st1" d="M213.9,64.4c0,0-2.1-9.5-4.4-14.4c-1.9-3.9-3.9-7.7-6.2-11.4c0,0-3.1,0-3.5,2.4c-0.4,2.4,0.8,2.7,2.4,7.5 s5.4,16,3.2,21.2C203.3,74.9,213.6,64.9,213.9,64.4z"></path> <path class="st11" d="M227.8,50.9c0,0,7.9,7.3,7.1,9.5c-0.8,2.3-3.5,2.2-4.1,2.9c-0.6,0.7,1,1.1,0.8,1.9c-0.2,0.8-3.4,1.2-4.9,0.4 c-0.7-0.4,0.2-1.4-8.6,4.2c-4.2,2.7-2.9-3.4-3-6.8c-0.1-3.4-0.7-9.5,0.5-10.7c1.1-1.2,2.5-1.4,3.5-3 C220.1,47.7,222.8,53.4,227.8,50.9z"></path> <path class="st17" d="M214.9,62.9c0-1.6-0.1-3.8,0-5.7c0.8,1.5,0.8,3.4,2.4,4.7c1.3,1.1,3,1.7,4.7,1.7c7.6,0.3-0.6,2.4,0.6,3.9 c-1.7,0.8-3.5,1.5-5.3,2.1C213,71,214.9,66.3,214.9,62.9z"></path> <path class="st2" d="M230.9,71.9c0,0-4.8-3.8-6.7-4.7c-1.8-0.9-7.8,1.5-8.3,2.2c-0.7,1.3,1.8-5.4,1.8-5.4l-5.6-1.7 c0,0-5.9,3.7-12.9,13.5c-7,9.9-8.6,11.5-8.8,13.8c0,0-0.2-2.5,6.2-1.5c5.4,0.8,8.4,1.1,13.6,7.7c9.2,11.8,5.6,2.3,7.7-2.5 c1.4-3.3,3.6-6.3,6.4-8.5C226.5,83.2,222.8,78.1,230.9,71.9z"></path> <path class="st1" d="M229.8,72c0,0,12.3-2.4,16.3-3.4c4-1,14.8-4.1,14.8-4.1s0.4,4.7-0.2,5.8c-0.6,1.1-18.6,7.2-26.6,9.3 c-8,2-10,6.5-10.3,4.6C223.4,82.2,224.1,76.6,229.8,72z"></path> <path class="st16" d="M216.4,110.9c0,0,0.5,3.4,0.5,5.1c0,1.7-0.9-0.9-2.5-2.2C212.7,112.4,216.7,109.2,216.4,110.9z"></path> <path class="st0" d="M226.4,58.5c-2.4-1-4.6-2.3-6.6-4c0,0-1.7,2.4-0.8,4.2C220,60.6,223.6,60.8,226.4,58.5z"></path> </g> </svg> 