<?xml version="1.0" encoding="UTF-8"?> <!-- Generator: Adobe Illustrator 24.2.0, SVG Export Plug-In . SVG Version: 6.00 Build 0) --> <svg xmlns="http://www.w3.org/2000/svg" xmlns:xlink="http://www.w3.org/1999/xlink" version="1.1" id="Layer_1" x="0px" y="0px" viewBox="0 0 570 500" style="enable-background:new 0 0 570 500;" xml:space="preserve"> <style type="text/css"> .st0{fill:#95CA59;} .st1{fill:#DBE3E9;} .st2{fill:#055245;} .st3{fill:#D6EBBD;} .st4{fill:#E5E8EC;} .st5{fill:#758088;} .st6{fill:#F68457;} .st7{fill:#FFFFFF;} .st8{fill:#5FAD6E;} .st9{fill:#FEFEFE;} .st10{fill:#F38356;} .st11{fill:#1A80C3;} .st12{fill:#A7CDB9;} .st13{fill:#A5A093;} .st14{fill:#9DBDAF;} .st15{fill:#9DBBAE;} .st16{fill:#9DBAAD;} .st17{fill:#BAE3D0;} .st18{fill:#A0A79B;} .st19{fill:#A5CBB8;} .st20{fill:#A9CEB9;} .st21{fill:#ACD5BD;} .st22{fill:#B9DDBF;} .st23{fill:#BDE5D5;} .st24{fill:#A5AFA0;} .st25{fill:#A2C8B7;} .st26{fill:#AED5BD;} </style> <g> <path class="st0" d="M532,336c29.3-92.2-66-204.7-212.7-251.3S12.7,71.4,0.5,167.3c-5.7,45.2,36.4,175,165.9,258.1 S502.7,428.2,532,336z"></path> <path class="st1" d="M88.4,415.4c-8.1,0-14.6-6.5-14.6-14.6V130.1c0-8.1,6.5-14.6,14.6-14.6h395.8c8.1,0,14.6,6.5,14.6,14.6v270.9 c0,8.1-6.5,14.6-14.6,14.6H88.4V415.4z"></path> <path class="st2" d="M88.4,116.8h395.8c7.3,0,13.2,6,13.2,13.2v270.9c0,7.3-6,13.2-13.2,13.2H88.4c-7.3,0-13.2-6-13.2-13.2V130.1 C75.2,122.7,81.2,116.8,88.4,116.8z"></path> <rect x="96" y="135.8" class="st3" width="380.8" height="243.1"></rect> <rect x="2.7" y="399.1" class="st4" width="567.3" height="16.6"></rect> <path class="st5" d="M3.5,415.7c6.7,7.1,19.1,9.9,27.6,9.9h510.5c8.5,0,20.9-2.8,27.6-9.9H3.5z"></path> <path class="st1" d="M247.8,399.1v1.8c0,3.3,2.7,6,6,6H319c3.3,0,6-2.7,6-6v-1.8H247.8z"></path> <path class="st6" d="M364.7,150.7c0,6.6,5.3,11.9,11.9,11.9h7.9v27.7l27.7-27.7h91.1c6.6,0,11.9-5.3,11.9-11.9v-99 c0-6.6-5.3-11.9-11.8-11.9l0,0H376.6c-6.6,0-11.9,5.3-11.9,11.8l0,0V150.7z"></path> <rect x="388.4" y="75.5" class="st7" width="103" height="7.9"></rect> <rect x="388.4" y="95.3" class="st7" width="103" height="7.9"></rect> <rect x="388.4" y="115.1" class="st7" width="103" height="7.9"></rect> <path class="st8" d="M255.2,357.2l-10.1-3.6c-1.6-0.9-3.3-1.5-5-2.1c-2.7-1.2-5.2-2.4-7.8-4c-6.4-3.7-12.2-8.2-17.7-13.2 c-4.6-4.4-8.8-9-12.7-14.2c-2.4-3.3-4.7-6.7-6.6-10.3c-2.1-3.6-4-7.4-5.6-11.4c-1.2-3.2-2.3-6.4-3.3-9.6c-2.8-9-4.3-18.4-4.4-27.9 c0-7,0.6-14,1.9-21c1.1-4.9,2.4-9.7,4.2-14.3c2-6.3,4.8-12.2,8.1-18c3.1-5.1,6.6-10,10.5-14.6c7-8.2,15.2-15.2,24.5-20.9 c13.4-8.2,28.4-13.1,44.1-14.5c10.6-1.1,21.5-0.3,31.9,2.1c5.5,1.5,11,3.3,16.3,5.4c5.5,2.1,10.7,4.8,15.8,8 c16.4,10.4,29.5,25.3,37.8,43c4.2,8.6,6.9,17.9,8.3,27.4c5,38.1-10.3,76.6-41.7,99.1c-11.8,8.5-25.3,14.4-39.7,17 c-11.3,2.2-22.9,2.4-34.2,0.9c-4.7-0.7-9.4-1.9-13.9-3.4C255.7,357.2,255.5,357.2,255.2,357.2z"></path> <path class="st9" d="M379.4,296.7c-0.1-0.9,0.2-1.8,0.9-2.3L379.4,296.7z"></path> <path class="st9" d="M380.9,292.7c-0.2-0.4-0.1-1.1,0.4-1.3c0,0,0,0,0.1,0L380.9,292.7z"></path> <path class="st10" d="M290.7,336.3l-3-0.7c-0.5,0.1-0.9-0.2-1.3-0.3c-0.5-0.2-1.2-0.4-1.7-0.5l-0.7-0.2c-0.5,0.1-1.1-0.3-1.6-0.4 c-0.5-0.2-1.2-0.4-1.7-0.5l-1.6-0.5c-0.5-0.1-1.2-0.2-1.7-0.5l-2.8-1.1c-1-0.4-2-0.7-3.1-1c-1.7-0.4-3.4-1-5-1.7 c-0.4-0.5-1.2-0.3-1.6-0.9c-0.9-0.5-1.4-1.4-1.4-2.3c-0.6-6.2-2.3-12-4.2-18c-0.6-2-1.5-4-2.2-6.1c-0.1-1.5,0.1-3,0.5-4.4 c0.3-1.8,0.7-3.5,1.1-5.3c0.1-0.7,0.4-1.4,0.9-1.9c0.5-0.5,1.3-0.3,1.9-0.3c3.3,0.1,6.5-0.7,9.3-2.4c1.5-1,2-0.9,3.1,0.4 c3.8,4.7,8.8,6.6,14.7,6.9c1.4,0.1,2.6,0.2,3.1,1.7c0.2,0.5,0.7,0.6,1.3,0.5l11-1c0.9,0,1.5-0.6,1.6-1.5c0-0.1,0-0.2,0-0.3 c0-1.1-0.1-2-0.2-3.1c0-0.7-0.5-1.3-1.2-1.4c-0.1,0-0.2,0-0.4,0c-3.4,0.3-6.9,0.5-10.4,0.9c-1,0-1.8,0.5-2.2,1.4 c-0.5,1.2-1.5,1.3-2.6,1.3c-4.5,0-8.8-1.7-12.1-4.8c-3.5-3.2-2.7-2.8-0.5-5.5c6.9-8.7,4.9-22.6-4.6-28.4c-0.6-0.3-1.2-0.7-1.6-1.3 c-0.2-1.1-0.1-2.2,0.3-3.2c0.5-1.5,0.9-3,1.2-4.5c0.3-1.8,1.4-3.4,3.1-4.3c6.1-3.5,11.8-7.6,17.1-12c5.4-4.5,10.4-9.3,15.1-14.5 c0.5-0.5,1-1.6,2-1c2.9,3.3,5.6,6.6,8.5,9.9c2.8,3.2,5.4,6.6,8,10c0.2,0.2,0.3,0.4,0.5,0.6c0.3,0.5-0.1,1-0.3,1.4l-0.1,0.3 c-0.3,1.2-0.6,2.3-1.1,3.4c-0.3,1-0.6,1.8-1.1,2.7l-0.1,0.5c-0.1,0.6-0.3,1.4-0.6,1.9c-1,2.2-0.9,2.2,0.6,3.6 c4.8,4.5,9.6,8.9,14.4,13.3c1.7,1.6,1.7,2.1,0.2,4.3c-1.8,2.6-3.7,5.1-5.7,7.4c-0.5,0.5-0.7,1.3-0.5,1.9c0.1,1,0.1,1.9,0.2,2.8 c0.2,0.9-0.2,1.7-1,2.1c-0.7,0.9-1.8,0.9-2.7,1c-3.8,0.5-7.7,0.7-11.5,1.1c-3.3,0.3-6.6,0.5-10,0.9c-0.1,0.6,0.4,0.9,0.7,1.2 c3.6,3.3,8,5.7,12.8,6.9c2.6,0.5,5.1,1.3,7.7,1.6c0.5,0,1.1,0.3,1.4,0.9c0.5,0.3,0.7,1,0.6,1.6c-0.4,4.5-0.6,8.9-0.5,13.4 c0,0.5-0.1,1.1-0.5,1.4c-3.1,1.2-6.4,0.9-9.6,1c-4.6,0.1-9,0.1-13.6,0.1c-1.2,0-1.5,0.4-1.3,1.5c0.6,6.3,1.3,12.5,2.3,18.6 c0.2,1.1,0.3,2.2,0.5,3.3c0.4,2.9-0.6,3.7-3.7,3.7c-2.9-0.2-5.7-0.6-8.5-1.3c-0.7-0.1-1.5-0.3-2.2-0.4 C291.7,336.8,291.3,336.2,290.7,336.3z"></path> <path class="st11" d="M260,290.2c-0.9,3-1.5,6-1.9,9c-0.1,1-0.4,1.8-0.9,2.7c-0.6-0.4-0.7-1.1-1-1.7c-3-5.9-7.3-10.4-11.9-15 c-5.2-5.2-10.4-10.5-14.6-16.7c-5-7.2-8.4-15.3-10-23.9c-1-5-1.3-10-1-15.1c0.5-6.6,3.3-12.9,7.9-17.8c5.4-5.6,12.1-9,19.5-11.6 c9.2-3.2,18.7-3.9,28.2-4.8c0.4,0,0.9-0.1,1.1,0.4c0.2,0.5-0.2,1-0.5,1.3c-5.7,6-10.5,12.8-14.3,20.2c-2.3,4.8-3.8,9.9-4.7,15.1 c-1,6.1-1.1,12.2-0.2,18.4c0.2,1.3-0.4,2.6-1.7,3.1c-4.7,2.2-8.2,6.5-9.4,11.6c-2.6,10.1,2.1,20,12.1,23.6c0.5,0.2,1.2,0.2,1.8,0.4 C259.2,289.7,259.8,289.5,260,290.2z"></path> <path class="st11" d="M308.4,213.9c-0.4-0.2-0.7,0.1-1,0.4c-8.4,9.6-18.1,17.9-28.8,24.7c-1.5,1.1-3.1,2-4.8,3 c-1.2,0.6-2,1.8-2.2,3.2c-0.6,2.7-1.3,5.2-1.9,7.9c-0.6,0.4-1.3,0.2-1.9,0c-2.3-0.9-4.8-1.2-7.2-1.1c-2.1,0-2.6-0.4-2.8-2.4 c-0.6-7.2,0-14.6,1.8-21.6c2.4-9.6,7.4-17.8,13.5-25.4c1.7-2.1,3.5-4.2,5.4-6.1c0.4-0.5,0.9-1.2,1.7-1.1c0.5-0.5,1.2-0.9,1.9-1 c7.1-0.9,14-2.6,20.8-5.1c3.4-1.4,6.6-3.2,9.6-5.2c1.7-1.1,3.3-2.2,4.8-3.6c1.1-1,1.9-0.7,2,0.6c0.4,3.2,0.3,6.4-0.4,9.6 c-0.7,2.8-1.7,5.5-2.8,8.3c-1.6,3.9-3.5,7.7-5.7,11.2C309.8,211.4,308.7,212.4,308.4,213.9z"></path> <path class="st9" d="M280.3,195.3c-5.6,5.6-10.5,11.9-14.5,18.9c-6.1,11-8.6,23.4-7.4,35.9c0.1,1.2,0.4,1.7,1.7,1.5 c3.3-0.4,6.5,0.4,9.6,1.6c4.2,2.1,7.3,5.6,9,9.9c1.7,4,2,8.5,1,12.8c-0.9,3.5-2.6,6.7-5.1,9.2c-0.5,0.5-0.5,0.9,0,1.3 c3.8,4.2,8.3,6.7,14,6.5c1.1,0,1.8-0.2,2-1.5c0.1-0.9,1-1.2,1.7-1.2c3.8-0.3,7.8-0.6,11.6-1c0.7-0.1,1.5,0.3,1.6,1.1 c0,0.1,0,0.2,0,0.3c0.1,1.3,0.2,2.6,0.3,3.8c0.2,1-0.4,1.8-1.3,2c-0.1,0-0.3,0-0.4,0c-3.8,0.3-7.7,0.6-11.5,1.1 c-1.1,0.1-1.7-0.3-1.8-1.3c-0.1-1-0.6-1.1-1.5-1.1c-5.2-0.1-10-1.4-13.9-5c-0.9-0.7-1.7-1.6-2.3-2.6c-0.5-0.6-0.9-0.6-1.5-0.2 c-3.4,2.3-7.6,3.3-11.7,2.8c-5.2-0.7-9.8-3.5-12.8-7.8c-3-4.2-4.3-9.3-3.6-14.4c0.6-6.6,4.8-12.3,10.9-15.1c0.6-0.2,1.1-1,0.9-1.7 c-0.6-4.5-0.9-8.9-0.5-13.4c0.4-4.7,1.3-9.4,2.7-13.8c1.7-5.2,4.2-10.1,7.1-14.7c3.2-4.9,6.8-9.5,10.9-13.7 c1.4-0.6,2.9-0.4,4.4-0.7C280.1,194.9,280.2,195.1,280.3,195.3z"></path> <path class="st9" d="M328.7,293.5c-3.2-0.5-6.4-1.1-9.5-1.9c-5.6-1.6-10.7-4.6-14.7-8.9c8.7-1.1,17.2-1.2,25.8-2.6 c0.1,2.2,0,4.6-0.3,6.8c0.1,0.5-0.4,1-0.2,1.5c-0.3,1-0.5,2-0.5,3.1c0.1,0.6-0.4,1.1-0.3,1.7L328.7,293.5z"></path> <path class="st12" d="M323.8,239.5l1.2-3.4c0.1,1.3-0.7,2.3-1.1,3.5C323.9,239.7,323.8,239.7,323.8,239.5z"></path> <path class="st13" d="M271.6,330.7c1.1,0.1,2.1,0.3,3,0.9c0.1,0.1,0.1,0.1,0,0.2h-0.1L271.6,330.7z"></path> <path class="st14" d="M274.5,331.7l0.1-0.2l2.9,1.1c0.1,0.1,0.1,0.1,0,0.2h-0.1L274.5,331.7z"></path> <path class="st15" d="M323.8,239.5l0.2,0.1c-0.3,0.9-0.4,1.9-1.2,2.6L323.8,239.5z"></path> <path class="st16" d="M322,244.6c0.2-0.6,0.4-1.3,0.6-1.9C322.9,243.4,322.6,244.2,322,244.6z"></path> <path class="st17" d="M328.9,293.1c-0.2-0.6,0.1-1.2,0.3-1.7C329.5,292.1,329,292.6,328.9,293.1z"></path> <path class="st18" d="M284.8,334.7c0.6-0.1,1.2,0.1,1.7,0.4c0.1,0.1,0.1,0.1,0,0.2h-0.1L284.8,334.7z"></path> <path class="st18" d="M280.6,333.7c0.6,0,1.2,0.1,1.7,0.4c0.1,0.1,0.1,0.1,0,0.2h-0.1L280.6,333.7z"></path> <path class="st19" d="M282.3,334.2l0.1-0.2l1.6,0.5C283.4,334.7,282.9,334.4,282.3,334.2z"></path> <path class="st20" d="M265,328.1c0.5,0.2,1.2,0.2,1.6,0.9C266,328.7,265.4,328.7,265,328.1z"></path> <path class="st21" d="M277.4,332.8l0.1-0.2l1.6,0.5C278.5,333.3,278,332.9,277.4,332.8z"></path> <path class="st22" d="M325.1,235.8c0.1-0.4,0.2-1,0.3-1.4C326,235,325.6,235.4,325.1,235.8z"></path> <path class="st23" d="M329.7,288.3c-0.2-0.5,0.1-1,0.2-1.5C330.2,287.4,329.9,287.9,329.7,288.3z"></path> <path class="st24" d="M328.3,309.9l0.5-1.4C329,309.1,328.8,309.7,328.3,309.9z"></path> <path class="st25" d="M290.7,336.3c0.5-0.1,1.1,0,1.5,0.2C291.7,336.8,291.3,336.4,290.7,336.3z"></path> <path class="st26" d="M286.4,335.4l0.1-0.2l1.3,0.4C287.2,335.8,286.8,335.5,286.4,335.4z"></path> <rect x="36.2" y="291.2" class="st7" width="2.1" height="4.3"></rect> </g> </svg> 