<?xml version="1.0" encoding="UTF-8"?> <!-- Generator: Adobe Illustrator 24.2.0, SVG Export Plug-In . SVG Version: 6.00 Build 0) --> <svg xmlns="http://www.w3.org/2000/svg" xmlns:xlink="http://www.w3.org/1999/xlink" version="1.1" id="Layer_1" x="0px" y="0px" viewBox="0 0 570 500" style="enable-background:new 0 0 570 500;" xml:space="preserve"> <style type="text/css"> .st0{fill:#D6EBBD;} .st1{fill:#D6634A;} .st2{fill:#FFFFFF;} .st3{opacity:0.6;fill:#758088;enable-background:new ;} .st4{fill:#EEF1F4;} .st5{fill:#CFD7DD;} .st6{fill:#C6CED4;} .st7{fill:#67BD50;} .st8{fill:#5FAE6D;} .st9{fill:#055245;} .st10{fill:#DCEDDF;} .st11{fill:#F38356;} .st12{fill:#D5634A;} .st13{fill:#95C95A;} .st14{fill:#FEFEFE;} .st15{fill:#E2F0E5;} .st16{fill:#C6E2CC;} .st17{fill:#D2E8D6;} .st18{fill:#A1CFAA;} .st19{fill:#84A468;} .st20{fill:#91C79B;} .st21{fill:#60AE6E;} .st22{fill:#78BA65;} .st23{fill:#60AE6D;} .st24{fill:#DBE3E9;} .st25{fill:#DFEECD;} .st26{fill:#F6A07C;} .st27{fill:#FAD8CA;} .st28{fill:#C3E0A2;} .st29{fill:#AE8278;} .st30{fill:#728197;} .st31{fill:#F8B79C;} </style> <g> <path class="st0" d="M304,439.9c0,0,281.4,64,265.3-78.4c-15.1-133.3-54.9-258.3-175-288.7S-1.3,145,0,236.8S130.3,408.5,304,439.9 z"></path> <ellipse transform="matrix(0.7071 -0.7071 0.7071 0.7071 42.2383 356.5861)" class="st1" cx="451.6" cy="127.3" rx="81.9" ry="81.9"></ellipse> <path class="st2" d="M443.9,111.1c8.9-4.2,19.6-0.3,23.8,8.6s0.3,19.6-8.6,23.8"></path> <path class="st2" d="M506.4,101.6c14.2,30.3,1.2,66.4-29.1,80.6c-30.3,14.2-66.4,1.2-80.6-29.1s-1.2-66.4,29.1-80.6c0,0,0,0,0,0 C456.1,58.2,492.2,71.3,506.4,101.6z"></path> <path class="st1" d="M487.1,110.6c9.2,19.6,0.7,42.9-18.9,52.1c-19.6,9.2-42.9,0.7-52.1-18.9c-9.1-19.6-0.7-42.9,18.8-52 C454.5,82.6,477.8,91,487.1,110.6C487,110.6,487,110.6,487.1,110.6z"></path> <path class="st2" d="M467.7,119.7c4.2,8.9,0.3,19.6-8.6,23.8c-8.9,4.2-19.6,0.3-23.8-8.6c-4.2-8.9-0.3-19.6,8.6-23.8 C452.9,106.9,463.5,110.7,467.7,119.7C467.7,119.7,467.7,119.7,467.7,119.7z"></path> <path class="st3" d="M436.2,134.2l-61.9,23.3l61.5-23.2l-0.5,0.1L436.2,134.2l-79,7.4l12.2,12.1h-0.2c0.9,0.6,3.4,21.4,3.4,21.4 l9-4.1c1.3,2.4,2.2,4.2,2.2,4.2L436.2,134.2z"></path> <polygon class="st4" points="355,133.4 366.9,147.1 434.3,132 "></polygon> <path class="st5" d="M366.1,146.4c0.9,0.7,1.8,21.7,1.8,21.7l3-17.4l63-18.5L366.1,146.4z"></path> <polygon class="st6" points="393.5,158.5 367.9,168 370.9,150.6 405.3,150 "></polygon> <path class="st4" d="M370.9,150.6c0.4,0.1,8.2,18.4,8.2,18.4l55.2-36.9L370.9,150.6z"></path> <path class="st7" d="M314.8,330.1c-0.7-0.8-1.3-1.7-1.9-2.5l1.6-1.2c1.5,2.1,3.2,4.1,4.9,6l-1.5,1.3 C316.7,332.5,315.7,331.3,314.8,330.1z M308.4,321.1c-1.4-2.2-2.7-4.5-3.9-6.8l1.7-0.9c1.2,2.3,2.5,4.5,3.9,6.7L308.4,321.1z M323.2,339.5l1.4-1.4c1.8,1.8,3.7,3.6,5.7,5.3l-1.3,1.5C326.9,343.1,325,341.3,323.2,339.5z M335,349.9l1.2-1.5 c2,1.6,4.1,3.1,6.3,4.6l-1.1,1.6C339.1,353,337,351.4,335,349.9L335,349.9z M301.1,307.1c-1-2.4-1.9-4.9-2.8-7.4l1.9-0.6 c0.8,2.4,1.7,4.9,2.7,7.2L301.1,307.1z M347.9,358.8l1-1.7c2.2,1.3,4.4,2.7,6.7,3.9l-0.9,1.7C352.4,361.5,350.1,360.2,347.9,358.8z M296.2,292.1c-0.6-2.5-1.1-5.2-1.5-7.7l1.9-0.3c0.4,2.5,0.9,5.1,1.5,7.6L296.2,292.1z M293.8,276.5c-0.2-2.6-0.3-5.2-0.3-7.9h2 c0,2.6,0.1,5.2,0.3,7.7L293.8,276.5z M293.9,260.8c0.2-2.6,0.5-5.2,0.9-7.8l1.9,0.3c-0.4,2.6-0.6,5.2-0.8,7.7L293.9,260.8z M296.1,245.2c0.5-2.5,1.2-5.2,1.9-7.7l1.9,0.5c-0.7,2.5-1.3,5-1.8,7.5L296.1,245.2z M300.3,230.1c0.8-2.5,1.8-4.9,2.7-7.4l1.8,0.7 c-1,2.4-1.9,4.8-2.7,7.3L300.3,230.1z M306.1,215.5c1.1-2.4,2.3-4.7,3.5-7l1.7,0.9c-1.2,2.3-2.4,4.6-3.5,6.9L306.1,215.5z M313.6,201.6c1.4-2.2,2.8-4.5,4.3-6.6l1.6,1.1c-1.5,2.1-2.9,4.3-4.2,6.5L313.6,201.6z M322.6,188.7c1.7-2.1,3.4-4.1,5.1-6l1.5,1.3 c-1.7,1.9-3.4,3.9-5,5.9L322.6,188.7z M333.2,177c1.6-1.5,3.3-2.9,4.9-4.2l1.2-0.9l1.2,1.6c-0.4,0.3-0.8,0.6-1.1,0.9 c-1.6,1.2-3.2,2.6-4.7,4.1L333.2,177z M346.9,169.2l-0.9-1.7c2.3-1.3,4.8-2.3,7.4-3l0.5,1.9C351.4,167.1,349.1,168,346.9,169.2z"></path> <path class="st8" d="M169.7,247.5c-3.2,0.6-6.4,1.5-9.6,2.4c-8.1,2.2-16.1,4.4-24.1,6.8c-3.3,1-6.5,2-9.8,2.9 c-3.6,1-7.1,2.1-10.7,3.2c-3.9,1.2-7.6,2.6-11.3,4.4c-2.9,1.5-5.4,3.6-7.4,6.1c-2.7,3.1-4.6,6.7-6.8,10.2 c-3.7,5.7-6.5,11.9-9.6,17.9c-2.8,5.4-5.5,10.9-8,16.6c-1.3,2.9-2.6,5.8-3.8,8.7c-0.8,2-1.6,3.9-2.3,5.9c-0.7,2-1.5,4-2.1,6 c-0.6,1.8-1.2,3.7-1.8,5.5c-0.6,1.6-1,3.2-1.5,4.9c-0.5,1.8-1,3.6-1.5,5.4c-0.5,1.8-0.9,3.6-1.5,5.3c-0.3,0.8-0.5,1.7-0.7,2.6 s-0.5,1.7-0.8,2.5c-0.3,1-0.6,2-0.8,3.1c-0.3,1.1-0.7,2.2-0.9,3.4c-0.3,1.5-0.7,2.9-1,4.4s-0.8,3-1,4.5c-0.5,2.4-1,4.7-1.4,7.1 c-0.5,2.5-1,5-1.4,7.6c-0.6,4-1.3,8-1.7,12c-0.2,2.1-0.7,4.1-0.8,6.2c-0.1,1.8-0.4,3.5-0.5,5.3c0,1.4-0.2,2.8-0.4,4.2 c0,0.4,0,0.7,0,1.1c-0.2,2.5-0.1,5.1-0.2,7.6c0,0.2,0.1,0.5-0.1,0.6v0.2c0.1,0.3,0.1,0.5,0.1,0.8c-0.1,2.5,0,4.9,0.4,7.4 c0.4,3.5,1.8,6.8,4,9.5c1.7,1.8,3.9,3,6.4,3.4c0.8,0.1,1.6,0.1,2.4,0c0.7-0.2,1.4-0.3,2.1-0.2c2.6,0,5.2,0,7.8,0 c4-0.2,8-0.8,12-1.7c7.1-1.5,14.1-3.5,21-5.8c4.5-1.5,9-3.2,13.5-4.8c6.7-2.4,13.3-5.3,19.6-8.7c5.2-2.6,10.3-5.3,15.3-8.2 c4.5-2.7,8.9-5.4,13.2-8.2c2-1.3,4-2.6,6-3.9c0.8-0.5,1.7-0.8,2.6-0.8h3.3c3,0,5.9-0.2,8.9-0.4c3-0.2,6.1-0.5,9.2-0.8 c4.3-0.4,8.7-1,13-1.7c6.1-0.9,12.1-2.2,18.2-3.4c1.3-0.3,2.7-0.4,4-0.4c1.3,0.1,1.6,0.3,2,1.5c0.1,0.4,0.3,0.8,0.7,0.9 c0.4-0.4,0.8-0.8,1-1.3c0.2-0.5,0.6-0.9,1.1-1c0.7-0.3,1.2-0.8,1.6-1.5c1.6-2.4,3.2-4.8,4.5-7.3c1.2-2.5,2.1-5,2.9-7.6 c1-3,2.1-6.1,2.9-9.2c0.8-3,1.4-6,1.6-9c0.2-1.8,0.2-3.5,0-5.3c-0.1-1-0.7-2-1.7-2.4c-3-0.1-6,0.1-9,0.5c-0.5,0.1-1,0.1-1.5,0.1 c-0.5,0-0.9,0.1-1.3,0.4c0.1,0.5,0.5,0.6,0.9,0.8c1.9,1,3.6,2.4,5,4.1c1.4,1.9,2.2,4.2,2.2,6.5c0.2,1.6,0,3.3-0.5,4.8 c-1.1,2.9-4.1,4.7-7.2,4.4c-1.6-0.1-3.1-0.5-4.6-1c-1.9-0.6-3.8-0.9-5.7-1c-2.4-0.2-4.7-0.2-7.1-0.2c-0.5,0-1,0-1.4,0.2 c-0.3,0.1-0.7,0.2-1,0.1c-0.1,0-0.2,0-0.4,0.1c-0.2,0.1-0.4,0.2-0.4,0.4c0.1,0.2,0.3,0.3,0.6,0.3c0.3-0.1,0.5-0.3,0.8-0.1 c1.7,0.6,3.4,1.3,5.1,2.1c0.8,0.4,1.5,1.1,1.8,1.9c0.4,1.2-0.1,2.5-1.2,3c-0.6,0.4-1.3,0.5-2.1,0.5c-2.8,0.1-5.7-0.1-8.5-0.7 c-1.6-0.3-3.2-0.7-4.8-0.9c-1.3-0.2-2.6,0.3-3.3,1.3c-0.8,0.8-1.7,1.5-2.7,2c-4,2.4-8.3,4.2-12.8,5.3c-0.6,0.1-1.2,0.3-1.8,0.5 c-0.5,0.4-1,0.8-1.4,1.3c-1.1,1.3-2.4,2.5-3.7,3.6c-2.2,2.1-4.5,4.1-6.8,6.1c-0.2,0.1-0.3,0.3-0.5,0.4c-0.4,0.5-1.2,0.5-1.7,0.1 c0,0-0.1-0.1-0.1-0.1c-1.5-1.1-2.9-2.5-3.9-4.1c-1.5-2.2-2.3-4.7-2.5-7.3c-0.1-1.3-0.1-2.6,0.2-3.9c0.2-1,0-1.2-1-1.1 c-2.3,0.3-4.6,0.6-6.9,0.9c-5.7,0.7-11.5,1.5-17.2,2.4c-5.6,0.9-11.2,1.9-16.7,3.2c-5.3,1.2-10.5,2.4-15.7,3.9 c-7.8,2.2-15.4,4.9-22.8,8.2c-5.4,2.4-10.7,5.1-15.8,8.1c-4.3,2.6-8.3,5.6-11.9,8.9c-0.7,0.5-1.4,1-2,1.6c-0.2,0.4-0.5,0.7-0.8,1 c-0.1,0.1-0.2,0.2-0.4,0.4c-0.2,0.2-0.4,0.5-0.6,0.8c0,0.1-0.1,0.1-0.1,0.1c0.1-0.1,0.1-0.2,0.2-0.2c0.2-0.3,0.5-0.6,0.8-0.9 c1.7-2.5,3.7-4.9,5.9-7c3.9-3.7,8.2-6.9,12.9-9.6c7.9-4.5,16.1-8.2,24.7-11c2.7-0.9,2.3-0.4,3.5-3.3c3.4-8.1,6.2-16.4,8.4-24.9 c2.1-8.2,3.9-16.6,5.2-25c0.9-5.4,1.6-10.8,2.1-16.3c0.4-3.9,0.7-7.7,0.9-11.6c0.2-3.5,0.4-7.1,0.6-10.6c0.4-7.9,0.3-15.9,0.2-23.8 c-0.1-3.4-0.4-6.8-0.8-10.2c-0.2-1.4-0.3-2.8-0.4-4.1c-0.1-0.4-0.1-0.8-0.2-1.2c-0.1-0.4-0.1-0.8-0.2-1.2c-0.1-0.4-0.2-0.9-0.2-1.4 c0-0.1,0.1,0.1,0,0c-0.1-0.1,0,0-0.1,0.1c0,0.2,0.1,0.4,0.1,0.7s0.2,0.6,0.2,0.9c0,0.3,0.1,0.7,0.2,1c0.5,2.6,1.1,5.2,1.4,7.8 c0.3,3.6,0.7,7.2,1,10.8c0.3,3.6,0.4,7.1,0.7,10.6c0.1,0.5,0.5,0.9,1,1c4.5,1.3,9,2.5,13.6,3.5c7.2,1.7,14.6,3,22,3.9 c4.1,0.5,8.2,1,12.3,1.3c3.7,0.3,7.4,0.6,11.1,0.8c1.4,0.1,2.8,0.2,4.2,0.2c3.5,0.2,7,0.2,10.5,0.1c3.7-0.1,7.4-0.2,11.1-0.4 c2.9-0.1,5.7-0.3,8.6-0.5c4.2-0.3,8.5-0.8,12.7-1.4c6.2-0.9,12.2-2.2,18.3-3.6c1.1-0.3,2.1-0.4,3.2-0.4c2.7,0.1,4.3,1.8,6,3.6 c2,2.4,3.7,4.9,5.2,7.6c0,0.1,0.1,0.1,0.2,0.2c0.8,0.4,1.5,0.8,2.2,1.4c0.8,0.6,1.9,0.9,2.9,0.9c1.3-0.1,2.6,0.1,3.9,0.2 c3.5,0.1,6.9-0.4,10.2-1.5c3.9-1.1,7.3-3.7,9.4-7.2c0.4-0.7,0.6-1.4,0.6-2.2v-1.2c-0.1-1.2-0.6-2.3-1.5-3.1 c-1.5-1.5-2.9-3.1-4.4-4.6c-2.8-2.9-5.5-5.8-8.4-8.6c-2.4-2.3-4.9-4.5-7.4-6.7c-2-1.8-4-3.5-6-5.3c-4.3-3.7-8.4-7.6-13.1-10.9 c-1.9-1.3-3.9-2.3-6.1-3c-2.1-0.7-3.9-1.7-5.9-2.5c-6.5-2.4-13-4.8-19.7-6.7c-2.8-0.8-5.6-1.5-8.3-2.3c-0.1-0.1-0.3-0.1-0.5-0.1 c-0.4,0.1-0.4,0.5-0.5,0.8c-2.6,6.5-5.4,12.8-8,19.3c-0.9,2.3-4.2,4-6.2,4c-0.5,0-1-0.1-1.4-0.4c-3.6-1.7-6.9-3.9-9.8-6.5 c-3.6-3.3-6.7-7.2-9.1-11.5c-1.1-1.9-2-3.9-2.7-6c-0.4-1.1-0.5-2.3-0.1-3.4c0.2-0.5,0.3-1,0.5-1.6 C169.8,247.9,169.9,247.7,169.7,247.5z"></path> <path class="st9" d="M253.6,169c-0.1-1.4-0.4-2.9-0.8-4.2c-0.9-3.1-2.1-6.1-3.6-8.9c-1.5-2.9-3.3-5.7-5.4-8.3 c-3.1-3.9-6.8-7.3-11-9.9c-3.5-2.2-7.2-4-11-5.3c-2.4-0.9-4.9-1.6-7.5-2c-1.2-0.3-2.4-0.4-3.7-0.4c-0.2,0-0.4,0.1-0.5-0.1h-5.5 c0,0.2-0.2,0.1-0.3,0.2c-2.7,0.1-5.3,0.5-7.9,1.2c-2.3,0.5-4.6,1.2-6.7,2.1c-2.1,0.9-4.1,1.9-6.1,3.1c-2.5,1.5-4.7,3.3-6.7,5.4 c-1.9,2-3.6,4.1-5.1,6.5c-1.2,1.9-2.2,3.9-3.1,5.9c-0.7,1.5-1.2,3.1-1.7,4.7c-0.6,2.2-1,4.4-1.3,6.6c-0.3,1.8-0.3,3.6-0.5,5.4 c-0.2,2-0.1,4,0.1,6c0.2,2.1,0.5,4,0.6,6.1c0,0.2,0.1,0.2,0.2,0.3c0.3,0.3,0.6,0.1,0.8,0c3-1,6.2-0.7,9,0.8l0.4,0.2 c0.7,0.3,0.9,0.3,1.2-0.5c0.7-1.7,1.4-3.4,2.2-5c1.2-2.7,2.7-5.2,4.1-7.8c0.9-1.6,1.8-3.2,2.6-4.8c0.2-0.5,0.8-0.8,1.3-0.6 c0,0,0.1,0,0.1,0c6.7,1.8,13.4,3.5,20,5.5c5.2,1.6,10.4,3.1,15.6,4.5c1.4,0.3,2.7,0.4,4.1,0.2c5.2-0.6,10.4-1.6,15.4-3 c3.2-0.9,6.3-1.9,9.4-3C252.9,169.6,253.3,169.3,253.6,169z"></path> <path class="st10" d="M288.1,308.4h0.1v-1.4h-0.1V308.4z"></path> <path class="st11" d="M253.6,169c-2.6,1-5.3,1.8-8,2.7c-4.5,1.3-9,2.4-13.6,3.1c-2.3,0.4-4.6,0.6-6.9,0.6c-0.8,0-1.6-0.2-2.3-0.5 c-8.5-2.5-17.1-5-25.6-7.4c-3.2-0.9-6.5-1.7-9.8-2.6c-0.3-0.2-0.8,0-0.9,0.3c0,0,0,0.1,0,0.1c-3.3,6-6.8,11.9-9.3,18.3 c-0.1,0.4-0.3,0.5-0.7,0.2c-1.7-1-3.6-1.6-5.6-1.7c-1.4-0.1-2.8,0.1-4.1,0.6c-0.2,0.1-0.5,0.2-0.8,0.2c-5.8,2.2-7.5,9.1-6.7,13.7 c0.4,3.5,1.8,6.8,3.9,9.5c2.5,2.9,5.7,5.1,9.3,6.5c1.1,0.4,2.2,0.8,3.4,1.1c0.3,0.1,0.6,0.1,0.6,0.5c0.1,1.7,0.6,3.3,0.6,5 c0.6,2.3,1.4,4.5,2.4,6.7c1.8,3.9,4.1,7.5,7,10.7c3.2,3.5,7,6.4,11.3,8.5c3.2,1.6,6.7,2.5,10.2,2.7c0.3,0,0.6,0.1,0.9,0.3 c0.2-0.4,0.6-0.3,0.9-0.3c5.3,0.2,10.6-1,15.4-3.4c3.7-1.9,7.2-4.3,10.3-7.1c6.2-5.7,11.1-12.8,14.2-20.7 c2.4-5.8,4.2-11.9,5.3-18.1c0.9-5,1.1-10,0.8-15.1C255.5,178.5,254.8,173.7,253.6,169z"></path> <path class="st12" d="M209,248.1c-0.1-0.4-0.4-0.4-0.8-0.5c-4.9-0.4-9.6-1.9-13.7-4.5c-2.6-1.6-5-3.5-7.1-5.7 c-4.6-4.8-8-10.7-9.7-17.1c-0.1-0.4,0-0.9-0.5-1c-1,3.8-1.9,7.6-2.9,11.4c-1.4,5.3-2.7,10.7-4.3,16c-0.1,0.3-0.2,0.5-0.3,0.8 c-0.1,0.6-0.3,1.2-0.5,1.8c-0.6,1.6-0.6,3.3,0.2,4.8c2,4.9,4.8,9.4,8.2,13.4c3.7,4.1,8.1,7.5,13.1,9.8c1.7,0.8,3.2,0.2,4.6-0.5 c1.7-0.8,3-2.3,3.6-4.1c2.5-6.3,5.2-12.5,7.7-18.7c0.1-0.2,0.2-0.4,0.3-0.5c0.6-1.5,1.2-3,1.8-4.6 C208.9,248.6,208.9,248.4,209,248.1z"></path> <path class="st13" d="M245.3,361.4c0.6-0.3,1.2-0.5,1.8-0.8c2.4-1.4,4.3-3.5,5.5-5.9c2-3.7,3.4-7.7,4.2-11.8c0.4-1.8,1-3.7,1.5-5.5 c0.7-2.8,1.2-5.7,1.4-8.7c0.2-2.7,0.2-5.4,0.1-8.1c-0.1-1.3-0.3-2.7-0.8-3.9c-1.4-2.6-3-5.1-4.9-7.4c-0.8-0.9-1.7-1.8-2.6-2.6 c-0.9-0.8-2.1-1.2-3.3-1.4c-1.3-0.2-2.6-0.1-3.9,0.3c-5.3,1.2-10.6,2.3-16,3.2c-3,0.5-6.1,0.9-9.1,1.2c-3.1,0.3-6,0.6-9,0.8 c-1.8,0.1-3.6,0.2-5.4,0.3c-2.7,0.1-5.3,0.2-8,0.3c-3.6,0.2-7.1,0.1-10.7,0.1c-2.4,0-4.8-0.1-7.1-0.3c-2.9-0.2-5.7-0.3-8.6-0.6 c-3.4-0.3-6.8-0.6-10.1-1c-4.4-0.5-8.8-1.1-13.2-1.8c-8-1.3-16-3.1-23.8-5.2c-1.2-0.3-2.3-0.7-3.5-1c-0.4-0.1-0.4-0.4-0.6-0.6 c-0.4,0.3-0.3,0.7-0.2,1c0.1,0.9,0.1,1.8,0.1,2.7c0,3.5,0,7,0,10.4c0,4.3-0.2,8.5-0.4,12.8c-0.5,8.2-1.4,16.4-2.8,24.6 c-0.3,1.6-0.5,3.1-0.8,4.7c-0.3,0.6-0.1,1.3,0.5,1.6c0.2,0.1,0.4,0.1,0.7,0.1c2.7,0.8,5.4,1.6,8.1,2.2c8.6,2,17.4,3.5,26.2,4.5 c3.5,0.5,7,0.7,10.4,1c4.5,0.3,9,0.5,13.5,0.6c4.7,0.2,9.5,0.1,14.2,0.1c1.6,0,3.2-0.1,4.9-0.2c0.3,0,0.6,0,0.8,0.1 c0.5,0,0.7-0.3,1-0.6c1.6-1.6,3.4-3,5.3-4.1c3.4-1.9,7.2-3.2,11.1-3.7c4-0.4,8-0.1,11.9,0.8c2.9,0.7,5.7,1.5,8.5,2.6 c0.3,0.1,0.6,0.4,0.9,0.2c1-0.5,2.1-0.2,3.2-0.4c1.4-0.3,2.8-0.2,4.2-0.5c0.3-0.1,0.6-0.1,0.8,0 C242.8,361.7,244.1,361.7,245.3,361.4z"></path> <path class="st13" d="M59.2,452.7h0.4c6.9,0.2,13.7,0.1,20.6,0.2c10.3,0,20.6-0.1,31,0c13.2,0.2,26.4,0.1,39.6,0.1 c6.6,0,13.1,0,19.7-0.1c0.6,0.1,1.2,0,1.8,0.2c2.3,0.1,4.6,0.3,6.9,0.4c1.6,0.1,3.2,0,4.8,0.1c2.5,0.1,4.9,0.1,7.4-0.1 c3.2-0.2,6.5,0.2,9.6-0.6c4-0.8,7.4-3.3,9.4-6.8c3.3-5.9,6.7-11.7,9.9-17.7c0.3-0.6,0.6-1.2,0.9-1.8c-0.1-0.4-0.4-0.4-0.7-0.5 c-1.4-0.7-2.5-1.7-3.4-3c-0.4-0.5-0.6-1.2-0.7-1.8c-0.2-0.8,0.3-1.5,1-1.8c0.7-0.2,1.4,0,1.8,0.6c0.3,0.4,0.5,0.8,0.7,1.2 c0.6,0.9,0.8,1,1.9,0.8c0.1-0.1,0.1,0.1,0,0c-0.1-0.1,0,0-0.1,0c-0.4,0.4-0.2,0.7,0.1,0.9c0.3,0.2,0.8,0.3,1.2,0.2 c1.4-2.4,2.6-4.9,3.9-7.3c1.4-2.8,2.9-5.6,4.3-8.4c0.3-0.4,0.4-1,0.2-1.5c-0.4-0.4-0.6-1-0.6-1.5c0-0.6-0.5-0.8-1-0.9 c-1.3-0.3-2.7-0.2-4,0.1c-6,1.1-12,2.4-18.1,3.4c-3.8,0.6-7.5,1.2-11.3,1.6c-3.2,0.3-6.5,0.7-9.7,0.9l-7.8,0.5 c-2.3,0.1-4.6,0.1-6.8,0.1c-0.9,0-1.7,0.3-2.5,0.7c-5,3.4-10.1,6.6-15.3,9.8c-3.8,2.4-7.7,4.6-11.6,6.7c-3.8,2-7.6,4-11.4,5.9 c-4.7,2.4-9.5,4.5-14.4,6.4c-4.2,1.5-8.4,3.1-12.7,4.5c-6,2-12,4-18.2,5.4c-4,1-8.1,1.8-12.1,2.5c-0.8,0.1-1.5,0.2-2.3,0.2 c-3.6,0.1-7.2,0.2-10.8,0.1C60,452.4,59.6,452.5,59.2,452.7z"></path> <path class="st11" d="M233.4,362.4c-4.3-1.8-8.8-3.1-13.4-3.7c-7.3-1.1-14.8,0.6-21,4.7c-1.5,1.1-3,2.4-4.3,3.7 c-0.2,0.1-0.4,0.2-0.6,0.4c-1.8,1.8-3.4,3.7-4.9,5.8c-2.5,3.4-4.8,6.9-7.2,10.2c-1.2,1.5-2.1,3.2-2.7,5c-0.4,1.2-0.2,2.6,0.5,3.7 c0.3,0.6,0.6,1.3,0.8,2c0.3,1,0.9,1.8,1.7,2.5c0.5,0.5,1.4,0.7,2.1,0.4c2.6-0.6,5.1-1.3,7.6-2.3c3.3-1.2,6.4-2.9,9.3-4.9 c0.1-0.1,0.2-0.2,0.4-0.3c1-1.7,2.6-1.8,4.3-1.4c3.9,1,7.9,1.4,12,1.4c0.8,0,1.6-0.1,2.3-0.4c1.4-0.6,2.1-2.2,1.5-3.7 c-0.2-0.6-0.6-1-1.2-1.4c-1.7-1.1-3.6-1.9-5.5-2.4l-0.4-0.2c-0.3-0.3-0.4,0.3-0.6,0.2c-0.2,0-0.4,0-0.6-0.2c-0.1-0.1-0.3-0.2-0.4,0 c0.2-0.2,0.5-0.1,0.7-0.3h0.3c0.3-0.2,0.7,0.1,1.1-0.1c2.4-0.2,4.9-0.2,7.3,0c1.1,0.1,2.2,0.2,3.2,0.3c2.3,0.2,4.4,1.2,6.7,1.7 c2.8,0.5,5.4,0.2,7.5-1.9c1.2-1.2,1.9-2.8,2.1-4.5c0.3-2.3,0-4.7-0.8-7c-1-2.3-2.7-4.3-4.8-5.6 C235.2,363.4,234.3,362.9,233.4,362.4z"></path> <path class="st14" d="M184.4,396.9c-1.6,0.1-3.1-1-3.5-2.6c-0.3-0.9-0.7-1.8-1.1-2.7c-0.5-1-0.5-2.1-0.2-3.2 c-0.2-0.2-0.5-0.2-0.8-0.2c-2.6,0-5.2,0.1-7.8,0.4c-2.4,0.2-4.7,0.4-7.1,0.6c-3.7,0.4-7.3,0.8-11,1.2c-7.2,0.8-14.3,1.8-21.5,3.1 c-7.8,1.4-15.6,3.2-23.3,5.2c-1.5,0.4-3,0.8-4.5,1.3c-0.1-0.4,0.1-0.6,0.2-0.9c3.7-9.6,6.8-19.4,9.4-29.4c0.9-3.5,1.5-7,2.2-10.6 c0.1-0.3,0.1-0.6,0-0.9c0.3-2,0.6-4,1-6c0.7-4.4,1.3-8.8,1.8-13.2c1.2-11.8,1.6-23.7,1.3-35.6c0-0.8,0-1.6-0.1-2.4 c-0.2-3-0.3-6-0.5-9c-0.5-6.7-0.9-13.4-2.5-20c0-0.2-0.1-0.3-0.1-0.5c-0.5,0.4-0.2,0.8-0.2,1.2c0.3,2.8,0.5,5.7,0.8,8.6 c0.4,4.9,0.6,9.7,0.5,14.6c0,5.5-0.1,11.1-0.4,16.6c-0.4,6.8-0.8,13.7-1.5,20.5c-0.7,7.2-1.7,14.4-2.9,21.6 c-1,5.6-2.2,11.2-3.5,16.7c-1.6,6.5-3.5,12.9-5.8,19.2c-1.3,3.5-2.6,6.9-4.1,10.3c-0.2,0.6-0.7,1-1.3,1.2 c-10.2,3.2-19.9,7.6-29,13.2c-5.9,3.6-11.1,8.3-15.3,13.8c-0.3,0.4-0.6,0.9-0.9,1.3c-0.1,0.2-0.1,0.3,0.1,0.3 c0.1-0.1,0.3-0.2,0.3-0.3c0.3-0.3,0.5-0.7,0.9-0.9c6.2-5.9,13.3-10.9,20.9-14.7c10.2-5.3,21-9.5,32.1-12.5 c8.2-2.2,16.4-4.1,24.7-5.7c4.6-0.9,9.3-1.5,13.9-2.2c5.7-0.8,11.5-1.5,17.2-2.2c1-0.1,1-0.1,0.8,0.9c-1,6.4,1.2,11.5,6.3,15.5 c1,0.7,1.3,0.7,2.2-0.1C176.4,404.8,180.5,401,184.4,396.9z"></path> <path class="st15" d="M116.1,272.8c0.1-0.4-0.1-0.9,0.2-1.2c0-0.3,0-0.6-0.2-0.9c-0.4,0.2-0.1,0.6-0.2,0.9 C115.9,272,116,272.4,116.1,272.8z"></path> <path class="st16" d="M115.9,271.6c0.1-0.3-0.1-0.7,0.2-0.9l-0.2-0.9c-0.4,0.1-0.2,0.4-0.2,0.6 C115.8,270.8,115.8,271.2,115.9,271.6z"></path> <path class="st17" d="M52.9,430.6l-0.1-0.3c-0.3,0.2-0.4,0.6-0.6,0.9c0,0.1,0,0.2,0.2,0.2L52.9,430.6z"></path> <path class="st18" d="M115.8,270.4c0.1-0.2-0.1-0.4,0.2-0.6c-0.1-0.3-0.1-0.5-0.2-0.8C115.6,269.4,115.6,269.9,115.8,270.4z"></path> <path class="st17" d="M54,429.4c-0.4,0.1-0.7,0.5-0.8,0.9C53.5,430.1,53.8,429.8,54,429.4z"></path> <path class="st19" d="M213.6,381.1c-0.3-0.1-0.5,0-0.8,0.1c0.1,0.3,0.3,0.2,0.5,0.2L213.6,381.1z"></path> <path class="st20" d="M52.3,431.4l-0.2-0.2c-0.2,0.2-0.4,0.4-0.4,0.7C52,431.8,52.2,431.6,52.3,431.4z"></path> <path class="st19" d="M215,381c-0.4,0-0.7-0.1-1.1,0.1C214.2,381.1,214.6,381.2,215,381z"></path> <path class="st19" d="M213.8,381.6c0.3,0.3,0.4-0.3,0.6-0.2C214.2,381,214.1,381.4,213.8,381.6z"></path> <path class="st21" d="M222.9,423.1c-0.2-0.3-0.6-0.1-0.9-0.2c-0.6-0.2-0.6-0.5-0.2-1c-1.6,0.4-2-0.8-2.6-1.7c-0.3-0.7-1-1.1-1.8-1 c-0.8,0.1-1.4,0.8-1.5,1.6c0,0.7,0.2,1.4,0.6,2.1c1,1.7,2.6,3,4.4,3.7C221.7,425.4,222.3,424.3,222.9,423.1z"></path> <path class="st22" d="M172.2,453c-0.6-0.4-1.2-0.1-1.8-0.2C171,453,171.6,453.1,172.2,453z"></path> <path class="st14" d="M213.8,239.3c7.4-0.4,13.1-3.7,16.9-10c0.5-0.8,0.9-1.6,1.2-2.5c0.5-1.4,0-2.3-1.5-2.5 c-1.5-0.2-3.1-0.2-4.7-0.3c-4.4-0.2-8.7-0.8-13.1-1.3c-4.7-0.6-9.5-1.5-14.2-2c-1.2-0.1-1.9,0.7-1.8,2.1c0.2,1.6,0.6,3.1,1.2,4.5 c1.8,4.2,4.4,7.7,8.5,10C208.7,238.5,211.2,239.2,213.8,239.3z"></path> <path class="st21" d="M115.3,358.3c-0.4,1.9-0.8,3.8-1.1,5.7c-1.4,7.1-3.4,14.2-5.7,21c-1.6,5-3.3,9.9-5.2,14.8 c-0.1,0.2-0.1,0.4-0.2,0.7c1.5-0.4,2.9-0.8,4.3-1.2c9.5-2.6,19.1-4.7,28.9-6.2c7-1.1,14-2,21.1-2.8c6.6-0.7,13.2-1.4,19.8-1.7 c0.8,0,1.6,0,2.4,0c1.1-2.3,2.4-4.5,3.9-6.5c2.4-3.2,4.6-6.6,7-9.9c1.3-1.7,2.8-3.4,4.3-4.9c-0.2-0.5-0.6-0.3-0.8-0.2 c-0.5,0.1-1.1,0.1-1.6,0.1c-5.2,0.3-10.5,0.2-15.7,0.1c-2,0-3.9,0-5.9-0.1c-2-0.1-4-0.1-6.1-0.3c-3.4-0.3-6.7-0.5-10.1-0.8 c-3.1-0.3-6.2-0.7-9.3-1.1c-3.7-0.5-7.3-1.2-11-1.8c-6-1-11.9-2.4-17.6-4.1C116.2,358.6,115.8,358.4,115.3,358.3z"></path> <path class="st23" d="M146.9,330.1c3.3,0.3,6.9-3.1,7.4-6.2c0.2-0.7-0.1-1.4-0.7-1.8c-0.5-0.5-1.3-0.4-1.8,0.1c0,0,0,0,0,0 c-0.8,0.8-1.2,1.7-1.9,2.5c-2.6,3.1-5.5,1.2-6.4-1.5c-0.1-0.5-0.4-0.9-0.8-1.2c-0.5-0.5-1.3-0.6-1.9-0.3c-0.6,0.3-1,0.9-0.9,1.5 c0,1.6,0.5,3.1,1.6,4.2c1,1.2,2.4,2.2,3.9,2.6C145.9,330.1,146.4,330.1,146.9,330.1z"></path> <path class="st23" d="M174.1,354.3c3.2,0.2,6.8-3.2,7.2-6.3c0.1-0.7-0.1-1.4-0.7-1.8c-0.5-0.4-1.3-0.4-1.7,0.1 c-0.8,0.8-1.2,1.7-1.9,2.5c-2.6,3.1-5.5,1.2-6.4-1.5c-0.1-0.5-0.4-0.9-0.8-1.2c-0.5-0.5-1.3-0.6-1.9-0.3c-0.6,0.3-1,0.9-1,1.5 c0,1.6,0.5,3.1,1.6,4.2c1,1.3,2.4,2.2,3.9,2.6C172.9,354.3,173.5,354.3,174.1,354.3z"></path> <path class="st23" d="M226,352.5c2.3,0,4.4-1.1,5.7-2.9c1.1-1.2,1.7-2.7,1.7-4.4c0-0.8-0.5-1.5-1.3-1.8c-0.5-0.2-1-0.1-1.3,0.4 c0,0,0,0,0,0c-0.5,0.8-0.9,1.5-1.3,2.3c-0.3,0.6-0.8,1.2-1.3,1.6c-1.2,1-3,1-4.1-0.1c-0.7-0.6-1.2-1.4-1.6-2.2 c-0.4-0.9-1.4-1.3-2.3-1c-0.9,0.3-1.4,1.3-1.1,2.3c0.6,2.6,2.6,4.6,5.2,5.4C224.7,352.4,225.3,352.5,226,352.5z"></path> <path class="st23" d="M200.1,354.3c2.2,0,4.3-1,5.6-2.8c1-1,1.6-2.4,1.7-3.8c0-0.7-0.4-1.3-1.1-1.6c-0.6-0.3-1,0-1.4,0.5 c-0.6,0.8-1.2,1.6-1.9,2.3c-2.4,2.7-5.3,1.5-6.4-1.5c-0.1-0.8-0.6-1.5-1.3-1.8c-0.8-0.4-1.8,0-2.2,0.8c0,0.1-0.1,0.2-0.1,0.2 c-0.5,1.7,0.3,3.1,1.1,4.4c1,1.5,2.5,2.6,4.2,3.1C199.1,354.3,199.6,354.3,200.1,354.3z"></path> <path class="st21" d="M146.9,352.2c2.5,0,4.9-1.4,6.2-3.5c0.6-0.8,1-1.7,1.1-2.7c0.2-0.7-0.1-1.4-0.6-1.8c-0.5-0.5-1.3-0.5-1.8,0 c0,0,0,0-0.1,0.1c-0.5,0.6-0.9,1.2-1.3,1.8c-0.6,0.8-1.3,1.5-2.2,2c-1.8,0.9-3.3-0.1-4.3-1.6c-0.4-0.5-0.5-1.2-0.8-1.8 c-0.4-0.9-1.5-1.3-2.4-0.9c-0.3,0.1-0.5,0.3-0.7,0.5c-0.5,0.7-0.6,1.6-0.2,2.3c0.7,2.7,2.8,4.8,5.5,5.5c0.1,0.1,0.3,0.1,0.4,0.1 L146.9,352.2z"></path> <path class="st21" d="M173.9,332.2c2.5-0.1,4.8-1.4,6.1-3.5c0.6-0.8,1-1.7,1.2-2.7c0.2-0.7-0.1-1.5-0.7-2c-0.5-0.4-1.3-0.4-1.7,0.1 c-0.5,0.6-0.9,1.2-1.3,1.8c-0.6,0.8-1.3,1.5-2.2,2c-1.8,0.9-3.3-0.1-4.4-1.7c-0.3-0.5-0.5-1.2-0.8-1.7c-0.4-0.9-1.4-1.4-2.4-1 c-0.3,0.1-0.5,0.3-0.7,0.5c-0.5,0.7-0.6,1.6-0.3,2.3c0.7,2.6,2.8,4.7,5.4,5.5C172.8,332.2,173.4,332.3,173.9,332.2z"></path> <path class="st21" d="M226.7,330.4c2-0.2,3.8-1.2,5-2.9c1.1-1.2,1.7-2.7,1.8-4.3c0-0.4-0.1-0.9-0.4-1.2c-0.8-1-1.9-0.8-2.6,0.4 c-0.5,1-1.1,2-1.8,2.8c-2,2.2-4.5,1.2-5.7-0.8c-0.2-0.4-0.4-0.7-0.6-1.1c-0.4-0.9-1.5-1.3-2.4-0.8c-0.7,0.3-1.1,1.1-1,1.9 c0.1,1.1,0.6,2.2,1.4,3C221.9,329.4,224.2,330.5,226.7,330.4z"></path> <path class="st21" d="M200,332.2c1.9,0.1,3.7-0.7,5-2.1c1.2-1,2-2.3,2.4-3.8c0.2-0.5,0.1-1.1-0.1-1.5c-0.7-1-1.5-1.1-2.4-0.2 c-0.9,0.9-1.4,1.9-2.3,2.7c-1.2,1.3-3.3,1.4-4.6,0.1c-0.3-0.3-0.5-0.6-0.7-1c-0.4-0.7-0.7-1.4-0.9-2.1c-0.3-0.6-0.9-1-1.6-1 c-0.6,0-1.2,0.3-1.5,0.9c-0.3,0.6-0.4,1.2-0.3,1.9c0.7,2.9,2.9,5.2,5.8,6c0.1,0,0.1,0,0.2,0L200,332.2z"></path> <path class="st21" d="M171,430.6c2.2-0.1,4.2-1.1,5.5-2.8c0.9-1,1.5-2.3,1.7-3.7c0.1-0.4,0-0.9-0.3-1.2c-0.8-1.1-1.7-0.9-2.5,0.4 c-0.5,0.9-1.1,1.7-1.8,2.5c-1.3,1.4-3.5,1.5-4.9,0.2c-0.3-0.3-0.5-0.6-0.7-1c-0.2-0.4-0.5-0.9-0.7-1.4c-0.3-0.9-1.3-1.4-2.2-1.1 c-0.9,0.3-1.4,1.3-1.1,2.2c0.8,3,3.3,5.4,6.3,5.9C170.5,430.6,170.8,430.6,171,430.6z"></path> <path class="st23" d="M190.3,423.6c0.3,1.6,1.1,3,2.3,4c1.2,1.2,2.9,2,4.6,2.1c2.3-0.1,4.5-1.2,5.8-3.1c0.7-0.9,1.3-2,1.5-3.1 c0.2-0.8-0.2-1.7-1-2.1c-0.4-0.2-0.8-0.1-1.1,0.2c-0.7,0.8-1.4,1.7-1.9,2.6c-1.1,1.6-3.3,2.1-4.9,1c-0.5-0.4-1-0.9-1.3-1.4 c-0.2-0.4-0.4-0.8-0.5-1.2c-0.2-1-1.2-1.6-2.2-1.4c0,0,0,0,0,0C190.7,421.3,190.3,422,190.3,423.6z"></path> <path class="st24" d="M543.1,372.8c0.3,0.1,0,0.2,0,0.4c-2.3,3.2-4.6,6.4-6.9,9.5l-12.4,17.1l-12.3,17.1c-1.7,2.4-3.5,4.8-5.2,7.2 c-0.3,0.5-0.8,0.8-1.4,0.7c-6.2,0.3-12.5,0.7-18.7,1.1c-4.9,0.3-9.8,0.5-14.8,0.8l-14.4,0.9c1-1.5,2.1-2.8,3-4.2 c0.6-0.7,1.1-1.4,1.5-2.2c0.3-0.6,0.6-1.2,1-1.7c3.5-4.8,6.9-9.7,10.4-14.4c3.2-4.4,6.3-8.8,9.5-13.1c3.2-4.4,6.2-8.6,9.3-13 c0.6-0.9,1.3-1.8,1.9-2.7c0.4-0.6,1-1,1.7-1c3.8-0.1,7.5-0.4,11.3-0.6c3.4-0.2,6.8-0.4,10.3-0.6l10-0.6c2.4-0.2,4.9-0.3,7.3-0.4 c2.4-0.2,4.8-0.2,7.1-0.5C542,372.5,542.6,372.6,543.1,372.8z"></path> <path class="st0" d="M543.1,372.8c-3.7,0.2-7.4,0.5-11.1,0.7c-2.7,0.2-5.4,0.2-8,0.4c-3.1,0.2-6.3,0.4-9.4,0.6 c-1.1,0.1-2.2,0.1-3.4,0.2c-3.5,0.2-7,0.3-10.5,0.6c-1.8,0.1-3.7,0.3-5.5,0.3c-0.6,0-0.9,0.5-1.2,0.9c-2.3,3.2-4.6,6.4-6.9,9.5 c-2,2.8-4,5.6-6,8.3c-3.8,5.3-7.7,10.7-11.6,16c-2.1,2.8-4.1,5.7-6.1,8.5c-0.5,0.9-1.2,1.7-1.9,2.5c-2.1,0-4.1,0.2-6.2,0.3 l-1.2,0.1c0.3-0.6,0.7-1.2,1.1-1.7l18.1-25.2c5.9-8.2,11.8-16.3,17.7-24.5c0.3-0.5,0.8-0.7,1.3-0.7c8.2-0.4,16.5-0.9,24.7-1.4 l14.1-0.9c2.5-0.1,5-0.3,7.5-0.5c0.4,0,0.5,0.3,0.7,0.6L543.1,372.8z"></path> <polygon class="st13" points="453.9,452.3 495.8,435.9 441.1,412.2 "></polygon> <path class="st13" d="M381.8,356.9c1.6,4.8,3.1,9.5,4.4,14.3c2.3,8.1,4.2,16.4,5.7,24.7c1,5.7,1.8,29.6,2.5,35.3 c0.4,3.6,0.7,7.1,0.9,10.7c0.2,3.6,0.3,7,0.5,10.5c0,0.8-0.2,0.9-0.9,0.9c-12.5,0-25.1,0-37.6,0c-2.2,0-4.4,0.1-6.6,0.1 c-0.6,0-0.8-0.1-0.9-0.7c-0.6-3.7-0.8-25.6-0.8-29.4c0-7.2,0.4-14.3,1.2-21.4c0.8-8.5,2.1-16.9,4.1-25.1c1.8-7.4,4.4-14.5,7.7-21.4 c2.6-5.6,7-10.2,12.5-12.9c2-0.9,4.1-1.5,6.3-1.8c0.2,0,0.3-0.1,0.5-0.1c0.8-0.4,1.8-0.6,2.7-0.5c3-0.1,5.9,0.3,8.8,1 c6.2,1.7,11.7,4.9,17,8.3c3.6,2.3,7.1,4.9,10.5,7.6c1.4,1.1,2.7,2.3,4,3.5c0.6,0.7,1.5,1.2,2,2.1c1,1.2,2.1,2.3,3.2,3.3 c5.6,5.6,10.7,11.7,15.2,18.2c6.5,9.4,11.7,19.6,15.4,30.4c0.2,0.5-0.2,0.7-0.5,1c-1.7,1.6-3.3,3.4-4.7,5.2c-1.6,2-2.8,4.2-3.7,6.6 c-0.9,2.3-0.2,5.8,1.8,7.2c0.2,0.1,0.4,18.6,0.4,18.8h-21.4c-10.1,0-20.2,0-30.4,0c-0.8,0-1-0.2-1-1c-0.2-10.4-1.3-20.8-3.1-31.1 c-2.1-11.9-5.1-41.8-9.7-53.1c-1.7-4-3.5-7.9-5.6-11.8c-0.3-0.2-0.4-0.6-0.6-0.9h-0.1c0,0,0.1,0.1,0.1,0.1 C381.8,356,381.6,356.5,381.8,356.9z"></path> <path class="st9" d="M426.1,362.6c-0.8-0.5-1.5-1.2-2.1-1.9c-0.1-0.3-0.1-0.6,0.1-0.8c1.5-5.2,3.3-10.2,5-15.3 c0.1-0.3,0.2-0.5,0.5-0.7c1.2,0,2.4,0.2,3.6,0.4c2,0.2,4,0.2,6,0c2.7-0.2,5.4-0.7,8-1.4c6.1-1.7,11.8-4.7,16.6-8.8 c5.2-4.4,9.4-9.9,12.4-16c3-5.9,4.9-12.4,5.6-19c0.4-3,0.6-6,0.5-9c-0.1-6.5-1.6-12.9-4.4-18.9c-0.5-1.1-1.2-2.1-2-2.9 c-0.2,1.3-0.4,2.5-0.4,3.8c-1,7.9-4.2,15.4-9.2,21.7c-1.1,1.4-2.3,2.7-3.6,4c-0.2,0.2-0.3,0.3-0.5,0.5c-0.2,0.1-0.5,0.3-0.7,0.1 c-0.2-0.2-0.1-0.4-0.1-0.6c0.2-1.7,0.6-3.5,0.9-5.2c0.2-1.8,0.4-3.7,0.4-5.5c0.1-1.8,0-3.9,0-5.8c-0.1-3.5-0.5-7-1.2-10.4 c0-0.3,0-0.6,0-0.9c0,0.3,0,0.5-0.1,0.8c-1.3,4.4-3.1,8.6-5.5,12.5c-2.6,4-6,7.4-10,10.1c-1,0.7-2.1,1.4-3.2,2 c-0.1,0.1-0.3,0.2-0.5,0.2c-0.3,0.1-0.7,0.4-1,0.1c-0.3-0.3,0.1-0.6,0.2-0.9c2.4-4.2,4.4-8.6,5.9-13.3c0.6-2.1,1.2-4.1,1.6-6.3 c0.1-0.5,0.2-0.9,0.3-1.4c0-0.1,0.1-0.2,0.1-0.2s0,0,0,0.1c-1.8,2.8-4,5.4-6.5,7.7c-4,3.7-8.4,6.9-13.2,9.4c-3,1.7-6.2,2.9-9.5,3.7 c-3.5,0.8-6.6-0.3-9.5-2.3c-2.2-1.7-4-3.8-5.5-6.2c-1.1-1.7-2.4-3.2-3.7-4.6c-1.4-1.5-3.3-2.5-5.4-2.9c-1.9-0.4-3.8-0.3-5.6,0.1 c-3,0.9-5.5,3-6.8,5.8c-1.2,2.2-1.9,4.7-2.1,7.2c-0.5,5,1.1,10,4.5,13.8c2.4,2.7,5.7,4.4,9.3,4.7c1.2,0.1,2.3-0.1,3.4-0.1 c0.7,0,1,0.2,1.2,0.9c0.1,0.5,0.2,1,0.3,1.6c0,1.1-0.2,2.2-0.5,3.2c-2,8-4.3,16-6.1,24.1c-0.1,0.6,0,1.3-0.6,1.8 c-1.3-0.2-2.6-0.5-3.8-0.7c-2.6-0.4-5.3-0.4-7.9-0.1c-4.7-7-7.2-15.3-7.1-23.8c0-9.8,1-19.6,2.9-29.2c1-5,1.8-10,3.2-14.9 c2.5-8.5,5.8-16.6,11-23.9c5.1-7,11.8-12.6,19.6-16.3c6.2-3,12.9-5,19.8-5.8c7.9-1,15.9-0.1,23.3,2.7c6.6,2.3,12.8,5.7,18.3,10 c5.7,4.6,10.7,9.9,14.1,16.5c2.6,5.2,4.2,10.8,4.7,16.5c0.9,9.4,0.7,18.8-0.5,28.2c-1.4,12.7-4.6,25.1-9.7,36.8 c-1.8,4.6-4.2,9-7.1,13c-4.6,6.2-10.9,9.5-18.4,10.8c-2.4,0.4-4.8,0.6-7.2,0.4c1.1-0.4,2.2-0.8,3.3-1.2c3.6-1.2,6.8-3.3,9.3-6.2 c4.5-4.9,7.4-11.2,8.3-17.8c0.1-0.8,0.2-1.6,0.3-2.4c-0.4,0.2-0.5,0.5-0.6,0.8c-3.6,7.8-9.4,14.4-16.7,19 C444.4,358.8,435.4,361.9,426.1,362.6z"></path> <path class="st11" d="M453.3,435c-2.9-1.7-3.4-5.9-2.2-8.4c1.9-4,4.5-7.7,7.8-10.8c0.5-0.4,0.9-0.8,1.2-1.3 c1.2-0.8,2.1-1.9,3.1-2.8c2.1-1.9,4.5-3.6,7-5c0.9-0.4,1.9-0.7,2.8-0.8c1.2-0.3,2.5,0.5,2.7,1.8c0,0.2,0.1,0.4,0,0.6 c0,0.8-0.1,1.6-0.4,2.4c-1.3,3.5-3.2,6.8-5.5,9.7c0.1,0.3,0.2,0.1,0.3,0c7.1-3.8,14.5-6.8,22.2-9.1c3.6-1.2,7.4-2,11.2-2.5 c1.5-0.1,3.1-0.3,4.5,0.6c1.3,0.7,1.8,2.4,1.1,3.7c-0.8,1.6-2.1,2.8-3.6,3.6c-3.2,1.7-6.4,3.3-9.7,4.7c-0.2,0.2-0.4,0.3-0.6,0.3 c-0.1,0-0.3,0.1-0.4,0.1c0.3-0.1,0.5-0.1,0.7-0.2c0.2-0.1,0.5,0.1,0.7-0.1c2.8-0.7,5.6-1.1,8.4-1.3c1.9-0.2,3.8-0.2,5.7,0.1 c1.9,0.3,3.2,2.1,2.9,4c0,0.1,0,0.2,0,0.2c-0.4,2.1-1.7,4-3.6,5.2c-3.6,2.5-7.7,4.2-11.9,5.2c-0.3,0.1-0.7,0.1-1,0.1h-42.3 C453.8,435.1,453.6,435.1,453.3,435z"></path> <path class="st25" d="M381.8,356.9c-0.2-0.4-0.4-0.9-0.5-1.3c-0.1-0.2-0.2-0.3,0.1-0.3c0.1,0.4,0.5,0.7,0.6,1.2 C381.8,356.5,381.8,356.7,381.8,356.9z"></path> <path class="st26" d="M470,420.4c-0.1,0.3-0.3,0.5-0.6,0.4s0.1-0.3,0.3-0.4L470,420.4z"></path> <path class="st27" d="M494.9,421.6l0.6-0.2c0.1,0.2,0.2,0.2,0.4,0.2c-0.2,0.2-0.4,0.2-0.7,0.2C495,421.8,494.9,422,494.9,421.6z"></path> <path class="st12" d="M392.9,341.4c1.2-6,2.8-11.9,4.4-17.8c0.9-3.4,1.8-6.8,2.6-10.2c0.1-0.4,0.1-0.8,0.1-1.2 c0.4,0,0.3,0.4,0.3,0.6c1.2,7,4.3,13.5,8.9,18.9c4.3,5,9.9,8.8,16.2,10.8c1.2,0.4,2.4,0.8,3.6,1c0.3,0,0.5,0.2,0.6,0.4 c-1.8,5.1-3.5,10.3-5.1,15.5c-0.1,0.4-0.3,0.8-0.4,1.2c-1.1-0.8-2.2-1.8-3.2-2.7c-4.2-3.6-8.7-6.8-13.5-9.7 c-3.2-2.1-6.7-3.9-10.3-5.4C395.7,342.4,394.3,341.9,392.9,341.4z"></path> <path class="st28" d="M381.4,355.3l-0.1,0.3c-0.2-0.2-0.3-0.4-0.1-0.6S381.4,355.2,381.4,355.3z"></path> <path class="st11" d="M429.6,344c-3.4-0.7-6.6-1.9-9.7-3.5c-6.2-3.2-11.4-8.1-14.8-14.2c-2.3-4-4-8.4-4.9-12.9 c-0.1-0.4,0.1-0.8-0.2-1.1c-0.1-0.5-0.2-1-0.3-1.5c0-0.7-0.4-0.8-1-0.7c-3.3,0.5-6.7-0.3-9.6-2c-3.6-2.2-6.2-5.8-7.2-9.9 c-1.3-4.5-0.9-9.2,1.1-13.4c2.6-5.5,7.4-7.8,13.4-6.5c1.9,0.4,3.6,1.3,4.9,2.7c2,2.1,3.8,4.4,5.4,6.8c1.5,2.1,3.5,3.9,5.7,5.2 c2.5,1.4,5.4,1.8,8.1,1c5-1.4,9.7-3.6,14-6.6c5.8-3.7,10.8-8.5,14.7-14.2c0.3,0,0.3,0.1,0.2,0.3c-1.5,7.8-4.3,15.2-8.4,22 c1.2-0.3,2.2-0.9,3.2-1.6c6.9-4.2,12.2-10.7,15.1-18.3c0.6-1.7,1.3-3.4,1.8-5.1c0.2-0.1,0.1-0.3,0.3-0.3s0.2,0.2,0.2,0.4 c1.8,9.1,1.8,18.5-0.1,27.7c9-8.2,13.4-18.5,14-30.6c0.6,0.4,1.2,1,1.5,1.7c1.4,2.2,2.4,4.6,3.2,7.2c3.1,9.9,2.8,19.8,0.5,29.8 c-2,8.5-6.1,16.4-11.8,23c-5.2,6.1-12,10.7-19.7,13.2c-5.2,1.8-10.7,2.4-16.2,1.9C431.8,344.4,430.7,344.1,429.6,344z"></path> <path class="st29" d="M461.6,270.6c-0.2-0.3-0.4-0.2-0.5,0c0.1-0.3,0.2-0.6,0.3-0.9C461.6,269.9,461.7,270.3,461.6,270.6z"></path> <path class="st30" d="M449.4,273.5l-0.2-0.3c0-0.1,0.1-0.3,0.2-0.2C449.5,273,449.5,273.3,449.4,273.5z"></path> <path class="st31" d="M494.9,421.6l0.3,0.2l-1.1,0.3C494.3,421.7,494.7,421.8,494.9,421.6z"></path> <path class="st14" d="M443.8,333.4c-6.6-0.2-11.1-3.5-14.1-9.2c-1.4-2.6-2.3-5.4-2.4-8.3c0-0.4,0-0.8,0.1-1.2c0.3-1,1-1.5,2-1 c2.3,1,4.6,2.2,7,3.1c5.8,2.3,11.6,4.8,17.7,6.4c1.2,0.3,2.3,0.6,3.5,0.9c1.1,0.3,1.2,0.9,0.7,1.8c-0.3,0.6-0.7,1.1-1.1,1.5 c-3.2,3.2-7.5,5.3-12,5.9C444.7,333.4,444.3,333.4,443.8,333.4z"></path> <path class="st24" d="M403.7,315.6V315c-0.1-0.1-0.1-0.1-0.2-0.1c-0.4-0.1-0.8-0.1-1.3-0.1c-32.3,0-64.7,0.1-97.1,0 c-24-0.1-48,0-72-0.1c-1.9,0-1.6,0-2.1,1.6l-6.3,22.1c-1.6,5.9-3.3,11.7-5,17.5c-2.2,8-4.5,15.9-6.8,23.9 c-1.4,4.9-2.8,9.9-4.2,14.8c-1.7,6-3.4,12.1-5.2,18.1c-1.6,5.6-3.2,11.3-4.8,16.9c-1.9,6.8-3.9,13.6-5.8,20.4 c-0.3,1-0.6,2.2-0.9,3.2c-0.1,0.3-0.2,0.7-0.1,1c0.3,0.2,0.6,0.1,0.8,0.1h103c22.4,0,44.9,0,67.3,0c0.7,0,1.2-0.2,1.4-1 c0.2-0.3,0.3-0.6,0.4-0.9c1.6-5.6,3.2-11.2,4.7-16.8c2.1-7.3,4.1-14.6,6.2-21.9c1.5-5.3,3-10.6,4.5-16c1.7-6.1,3.4-12.1,5.2-18.2 c1.1-4,2.3-7.9,3.4-11.9c0.9-3,1.7-6.1,2.5-9.1c1.1-4,2.3-8,3.4-12c1.7-6.1,3.4-12.2,5.2-18.3c1.1-4,2.3-8,3.4-12 C403.5,316.2,403.6,315.9,403.7,315.6z"></path> <path class="st0" d="M224.4,305.7c-3.2,11.7-6.5,23.5-9.7,35.2c-3,10.8-6,21.6-9,32.4l-13.1,47.4c-0.9,3.2-1.8,6.3-2.6,9.5 c-0.2,0.6-0.4,0.7-0.9,0.7H124c-0.3,0-0.5,0-0.8,0v0.4c0.1,0.3,0.1,0.5,0.1,0.8v21.6c0,0.8,0,0.8,0.8,0.8h67.8 c0.1,0,0.3-0.1,0.3-0.2c0.5-2,1.1-4,1.6-6l6.3-22.3c1.2-4.3,2.4-8.5,3.6-12.7c2.2-7.7,4.4-15.4,6.5-23c1.1-4,2.2-7.9,3.4-11.9 c2.3-8,4.5-16,6.8-24c1.3-4.4,2.5-8.8,3.8-13.3c2.2-7.9,4.5-15.7,6.7-23.6c0.2-0.7,0.4-1.5,0.6-2.3c0.1-0.5,0.4-0.5,0.8-0.5h7.3 c21,0,42-0.1,62.9,0c33.5,0.2,67,0,100.5,0.1h0.6c0-0.4-0.2-0.6-0.4-0.8c-1.8-1.8-3.6-3.6-5.6-5.2c-0.9-0.9-1.9-1.7-2.9-2.6 c-0.3-0.3-0.6-0.5-1-0.5c-0.3,0-0.6,0-0.9,0H225.5c-0.3,0.1-0.6,0-0.9-0.1L224.4,305.7z"></path> <path class="st0" d="M192,454.6v-0.1h-67.6c-1.2,0-1,0.1-1-1V435c0-0.2,0.1-0.5-0.1-0.7c0,6.6,0,13.2,0,19.8c0,0.4,0.1,0.5,0.5,0.5 L192,454.6z"></path> </g> </svg> 