<?xml version="1.0" encoding="UTF-8"?> <!-- Generator: Adobe Illustrator 24.2.0, SVG Export Plug-In . SVG Version: 6.00 Build 0) --> <svg xmlns="http://www.w3.org/2000/svg" xmlns:xlink="http://www.w3.org/1999/xlink" version="1.1" id="Layer_1" x="0px" y="0px" viewBox="0 0 320 180" style="enable-background:new 0 0 320 180;" xml:space="preserve"> <style type="text/css"> .st0{fill:#FFFFFF;} .st1{fill:#5A969C;} .st2{fill:#1A82C5;} .st3{fill:#015245;} .st4{fill:#F9D6BA;} .st5{fill:#F58457;} .st6{fill:#95CA59;} .st7{fill:#5EAD6E;} .st8{fill:#087262;} .st9{fill:#93CA59;} .st10{clip-path:url(#SVGID_2_);} .st11{fill:#2278B5;} .st12{fill:#EC7A51;} .st13{fill:#1F81C5;} .st14{fill:#345AA9;} </style> <rect x="0.2" class="st0" width="319.8" height="180"></rect> <g id="Layer_1_4_"> <path class="st1" d="M97.3,40.5c15-2.2,33.7,2.9,59.6-12.4C205.3-0.6,260,3.5,268.5,66.8c8.5,63.3-19.4,109.1-76.2,102.9 c-41.7-4.5-51.5-31.1-76.8-27.6c-47.2,6.4-71.3-21.6-64.3-55.9S77.4,43.4,97.3,40.5z"></path> <path class="st2" d="M248.4,80.8c-1.3-0.9-2.6-1.9-3.7-3c1,1.1,2.1,2.1,3.2,3l0.3,0.2c0.7,0.5,1.4,1,2.1,1.6c1.3,1,2.6,2.1,3.8,3.2 C252.3,83.9,250.4,82.2,248.4,80.8"></path> <path class="st3" d="M219.6,56.8c0-0.1,0.1-0.2,0.2-0.3c0-0.1,0-0.3,0.1-0.4c0.3-0.7,1.2-1.3,2.5-1.6c0.1,0,0.2-0.1,0.3-0.1 c0.4-0.1,0.8-0.1,1.2-0.1h0.1c0.8,0,1.5,0.1,2.3,0.2c-1.1-0.5-2.4-0.6-3.6-0.4c-1.5,0.3-2.7,1.3-3.4,2.6c-2,8.4-3,17-2.8,25.6 l0.4,0.3C216.6,73.9,217.5,65.2,219.6,56.8"></path> <path class="st3" d="M221.2,76.2c0-0.2,0-0.4,0-0.6c-1.2-0.6-2.1-1.6-2.4-2.9c0,3.1,0.1,6.4,0.4,9.8l0,0c0.8-1.6,1.4-3.3,2-4.9 C221.2,77.1,221.2,76.7,221.2,76.2"></path> <path class="st3" d="M224.2,58.9l2.4,0.2c1.2,1,3.7-0.2,4.1,7.4c0.2,3.1,2.9,1.1,3.7,3c0.9,1.9-1.9,2.3-4.3,4.1 c-1.2,0.9-3,1-2.7,4.6c0.2,2,1.3,3.9,2.9,5.1l0.3-0.3c0.5,1.1,0.7,2.4,0.6,3.6c0.3-0.4,0.3-1,0.2-1.5c1.9,0.8,3.7,1.9,5.2,3.3 c2.6,0.5,6.1,4.7,6.1,4.7s8.5,11.3,11.9,21.5c7.3-4.7,6.9-14.7,6.9-14.7s-0.4-7.1-7.6-14.2c-1.2-1.2-2.5-2.2-3.8-3.2l-0.4-0.2 c-0.7-0.5-1.4-1-2-1.5c-1.1-0.9-2.2-1.9-3.2-3c-6.7-7.2-8.7-15.5-11.9-19.5l-0.1-0.1c-2-1.6-4.4-2.6-7-2.8c-0.4,0-0.8,0.1-1.3,0.1 c-0.8,0.1-1.5,0.6-1.8,1.2c0,0.1-0.2,1.4-0.4,3.6C222.9,59.5,223.7,58.9,224.2,58.9"></path> <path class="st2" d="M221.8,75.9l-0.2-0.1c0,0.2,0,0.5,0,0.7C221.7,76.1,221.8,75.9,221.8,75.9"></path> <path class="st3" d="M223.9,54.3c-0.5,0-1,0.1-1.5,0.2c-1.3,0.3-2.3,0.9-2.5,1.6c0,0.1-0.1,0.3-0.1,0.4c-0.2,1.1-0.5,4.2-0.7,8.4 c0.7-1.5,1.6-3,2.7-4.2c0.1-1.4,0.3-2.8,0.5-4.1c0.4-0.8,1.2-1.3,2.1-1.4c1.6-0.3,4.4,0.1,7.5,2.1c-0.2-0.2-0.3-0.3-0.5-0.4 c-1.5-1.1-3.3-1.9-5.1-2.3C225.4,54.4,224.6,54.3,223.9,54.3"></path> <path class="st3" d="M221.2,77.5c0.1-0.4,0.3-0.7,0.3-1c0.1-0.3,0-0.5,0-0.7c-0.1,0-0.3-0.1-0.4-0.1c0,0.2,0,0.4,0,0.6 C221.2,76.7,221.2,77.1,221.2,77.5"></path> <path class="st3" d="M224.2,55.1c-0.9,0.1-1.7,0.6-2.1,1.4c-0.2,1.4-0.4,2.7-0.5,4.1l0.4-0.4c0.2-2.1,0.4-3.5,0.4-3.6 c0.4-0.7,1-1.2,1.8-1.2c0.4-0.1,0.9-0.1,1.3-0.1c2.5,0.2,5,1.2,7,2.8l0.1,0.1c1.8,1.4,3.2,4,5.1,7.2c3,5.4,6.8,12.1,14.5,17.5 c4.3,2.9,7.8,7,10.1,11.7c0.9,1.8,1.4,3.8,1.7,5.8c0,1.9-0.2,3.8-0.7,5.7c-0.8,2.8-2.5,6.7-6.4,9.1c-0.5,0.3-1.1,0.6-1.6,0.8 l0.1,0.3c0.6-0.2,1.2-0.5,1.8-0.9c4-2.4,5.8-6.3,6.6-9.2c0.5-1.9,0.8-3.8,0.8-5.8c-0.2-2-0.8-4-1.7-5.9c-2.3-4.8-5.8-8.9-10.2-11.8 c-7.7-5.4-11.4-12.1-14.4-17.4c-1.9-3.4-3.4-6-5.3-7.4c-0.4-0.3-0.7-0.5-1.1-0.7C228.6,55.2,225.9,54.8,224.2,55.1"></path> <path class="st2" d="M160.9,15.1l-2.3-3.5l-0.1-0.1c0,0-1.5,1.8-1.8,1.6l1.4,2l3.2,4.6l2.5,3.5l0.8,1.1c0.4-0.3,0.8-0.5,1.3-0.6 c-0.1-0.1-0.2-0.2-0.3-0.2c-0.4-0.1-2.4-1.5-2.6-2.2c-0.1-0.4,1.1,0.1,2.2,0.6l-1.5-2.3L160.9,15.1z"></path> <path class="st4" d="M155.9,9.7c0,0,0.2,0.9,0.3,1.7l0,0C156.1,10.5,155.9,9.7,155.9,9.7"></path> <path class="st4" d="M156.7,13c0.3,0.2,1.8-1.6,1.8-1.6l-2.6-1.7l1.2,0.8c0.1,0.1,0.1,0.2,0,0.2l0,0c0,0-0.7,1.5-0.9,0.8l0,0 C156.3,12.1,156.5,12.6,156.7,13"></path> <path class="st2" d="M157.1,10.8c0.1-0.1,0.1-0.2,0-0.2l0,0L156,9.7c0,0,0.2,0.8,0.3,1.7v0.1C156.5,12.2,157.2,10.7,157.1,10.8"></path> <path class="st5" d="M217.2,83.6c0.2-0.1,0.4-0.3,0.6-0.4l-0.9-0.7l-0.4-0.3c-11.7-8.2-28-17.5-28-17.5s-8-23.6-17.3-35.3 c0.2,0.9,0.5,1.9,0.9,2.8c0.1,0.1,0.9,1.9,1.1,2c-0.1,0.2-0.4,0.7-0.5,1c-0.6-0.7-2.4-1.7-2.6-1.9c-0.2-0.2-0.3-0.3-0.4-0.4 c3,30.2,8.5,34.4,8.5,34.4C189,81.9,200.6,88.8,209.5,92C211.8,87.9,214.3,84.8,217.2,83.6"></path> <path class="st5" d="M218.8,72.7c0.3,1.3,1.2,2.4,2.4,2.9c0.1,0.1,0.2,0.1,0.4,0.1l0.2,0.1l-0.2,0.6c-0.1,0.3-0.2,0.6-0.3,1 c-0.6,1.7-1.2,3.3-2,4.9l0.4-0.1c0,0-1.2,12.6,10.8,0.9c-1.6-1.2-2.7-3.1-2.9-5.1c-0.3-3.6,1.5-3.7,2.7-4.6 c2.4-1.8,5.2-2.2,4.3-4.1c-0.9-1.9-3.5,0.1-3.7-3c-0.5-7.6-2.9-6.4-4.1-7.4l-2.4-0.2c-0.5,0-1.3,0.5-2.1,1.3l-0.4,0.4 c-1.1,1.2-2,2.7-2.7,4.2c-0.3,0.8-0.5,1.6-0.6,2.4C218.2,69.1,218.4,71,218.8,72.7"></path> <path class="st5" d="M220.7,88.6L220.7,88.6c0-0.1,0-0.1,0-0.2V88.6"></path> <path class="st5" d="M164.6,27.4l-0.1-0.2h-0.1C164.5,27.2,164.5,27.3,164.6,27.4"></path> <path class="st5" d="M170.1,33.3c0.1,0.2,2,1.3,2.6,1.9c0.1-0.3,0.4-0.8,0.5-1c-0.1-0.1-0.9-1.9-1.1-2c-0.4-0.9-0.6-1.8-0.9-2.8 c0-0.1,0-0.2-0.1-0.3c-0.1-0.5-0.2-0.8-0.2-0.8l0,0c-0.2-1.8-2.6-4.3-3.5-5.2l-0.4-0.4c0,0-0.9-0.4-1.8-0.9c-1.1-0.5-2.3-1-2.2-0.6 c0.1,0.6,2.2,2.1,2.6,2.2c0.1,0,0.2,0.1,0.3,0.2c-0.5,0.1-0.9,0.3-1.3,0.6c-0.3,0.3-0.5,0.6-0.4,0.9c0.1,0.3-0.8,0.3,0.5,0.9l0,0 c-0.6,0-0.3-0.3-0.7,0.2c-0.2,0.2-0.2,0.4,0.5,0.9l0,0v0.1c0.2,0.1,0.5,0.3,0.9,0.5c-0.3-0.1-0.5-0.2-0.8-0.3c0.8,1.6,1,1.7,1,1.7 c0.1,0,0.3,0.1,0.4,0.2c0.7,0.6,1.3,1.2,1.9,1.9c0.1,0.5,0.9,1,1.7,1.8C169.9,33,170,33.2,170.1,33.3"></path> <path class="st6" d="M238.1,135.6c-2.9,0.9-5.8,1.8-8.5,2.6l0.5,2.7c0.5,2.5-0.7,4.9-3,5.1h1c0.5,0,0.9,0.3,1.1,0.7 c1.2,0,6.4,0,12.3,0.1C240.5,143.8,239.3,139.8,238.1,135.6"></path> <path class="st6" d="M256.2,147.1c-1-1.8-2.3-4.5-3.8-7.8c1,2.7,2.2,5.3,3.6,7.8H256.2"></path> <path class="st6" d="M223.1,104.1l5.3,27.9c2.4-1.6,4.9-3.1,7.2-4.6c-1.8-6.1-3.4-11.4-3.7-12.6c-3-10.9-1.9-20.9-3.1-24.6 c-1.8,1.8-4.4,3.4-6.8,2.4c-1.8-0.8-1.5-3.1-1.3-3.8l0,0c-0.2,0.8-1.3,3.5-3.9,2.8c-2.6-0.8-2.7-5.2,0.4-7.8 c-2.9,1.2-5.4,4.2-7.7,8.4c-1.4,2.7-2.6,5.4-3.7,8.3h12.9C220.9,100.4,222.7,102,223.1,104.1"></path> <polygon class="st6" points="190,146 190,146 200.2,146 "></polygon> <path class="st7" d="M234.7,89.2c0.4-0.7,1.2-1,2-0.8c-1.6-1.4-3.3-2.5-5.2-3.3c0.2,0.5,0.1,1-0.2,1.5c-0.1,0.5-0.3,0.9-0.6,1.3 c-0.6,0.8-1.2,1.5-1.9,2.2c1.2,3.7,0.1,13.7,3.1,24.6c0.3,1.2,1.9,6.4,3.7,12.6c3.1-1.9,6-3.6,7.9-4.5 C245.6,121.8,229,98.5,234.7,89.2"></path> <path class="st7" d="M238.1,135.6c1.2,4.2,2.4,8.2,3.3,11.1c5.2,0.1,10.9,0.2,14.7,0.4c-1.4-2.5-2.6-5.1-3.6-7.8 c-1.1-2.8-2-5.7-2.8-8.3C245.9,132.8,242,134.3,238.1,135.6"></path> <path class="st5" d="M254.7,114.6c-3.4-10.3-11.9-21.5-11.9-21.5s-3.5-4.2-6.1-4.7c-0.8-0.2-1.6,0.1-2,0.8 c-5.7,9.3,10.9,32.7,8.9,33.7c-1.9,0.9-4.8,2.6-7.9,4.5c-2.3,1.4-4.8,3-7.2,4.6l1.2,6.2c2.7-0.7,5.6-1.6,8.5-2.6 c4-1.2,7.8-2.8,11.5-4.6c1.6-0.8,3-1.7,4.3-2.9c2.6-2.7,2.6-7,1.4-11.7l-0.1-0.3C255.1,115.6,254.9,115.1,254.7,114.6"></path> <path class="st0" d="M230.8,87.9c0.3-0.4,0.5-0.9,0.6-1.3c0.2-1.2,0-2.5-0.6-3.6l-0.3,0.3c-12,11.7-10.8-0.9-10.8-0.9l-0.4,0.1l0,0 c-0.5,0.2-1,0.4-1.4,0.7c-0.2,0.1-0.4,0.3-0.6,0.4c-3.1,2.6-2.9,7-0.4,7.8c2.5,0.7,3.7-2,3.9-2.8v-0.2c0,0,0,0.1,0,0.2 c-0.1,0.7-0.5,3,1.3,3.8c2.4,1,5-0.6,6.8-2.4C229.6,89.4,230.2,88.6,230.8,87.9"></path> <path class="st8" d="M194.9,128.9c-3,0-5.6-1.8-5.7-4.1s2.1-4.1,5.1-4.1s5.6,1.8,5.7,4.1S197.9,128.9,194.9,128.9 M227.1,146 c2.3-0.2,3.5-2.6,3-5.1l-0.5-2.7l-1.3-6.2l-5.3-27.9c-0.4-2.1-2.2-3.7-4.4-3.8h-50.3c-2.2,0-3.9,1.8-3.9,4c0,0.3,0,0.6,0.1,0.9 l7.2,36.4c0.4,2.1,3,4.4,5.1,4.4h23.3H227.1z"></path> <path class="st8" d="M241.4,146.7c-5.9-0.1-11.1-0.1-12.3-0.1c0.1,0.1,0.1,0.3,0.1,0.4l0.2,2.8c0,0.3-0.1,0.6-0.4,0.8 c0.2,0.2,0.5,0.2,0.8,0.2h29.3c0.5,0,0.9-0.2,1.2-0.6c0.2-0.3,0.3-0.7,0.3-1l-0.1-1.6c0-0.2-1.6-0.4-4.2-0.5h-0.2 C252.3,146.8,246.6,146.7,241.4,146.7"></path> <path class="st0" d="M200,124.8c-0.2-2.3-2.7-4.1-5.7-4.1s-5.3,1.8-5.1,4.1c0.2,2.3,2.7,4.1,5.7,4.1 C197.9,128.9,200.2,127,200,124.8"></path> <path class="st8" d="M175.4,150.9h53c0.2,0,0.5-0.1,0.7-0.2c0.2-0.2,0.4-0.5,0.4-0.8l-0.2-2.8c0-0.1,0-0.3-0.1-0.4 c-0.2-0.4-0.6-0.7-1.1-0.7h-53c-0.6,0-1,0.4-1,1v0.1l0.2,2.8c0,0.1,0,0.3,0.1,0.4C174.5,150.6,174.9,150.9,175.4,150.9"></path> <path class="st7" d="M100.9,117L100.9,117L100.9,117L100.9,117z"></path> <path class="st9" d="M112.8,101.1c0,0-9.5-5.9-19.9,3.4s6.8,27.3,6.8,27.3S121.6,119.2,112.8,101.1z"></path> <path class="st3" d="M109.6,82.4c-0.7,0.4-0.8,0.7-0.8,0.7s0.7-4.6,2.3-5.3c1.6-0.7,11.8-5.3,13.7-1.6c-0.3-0.2-0.7-0.3-1.2-0.3 c0.7,0.2,1.3,0.6,1.7,1.1c0.8,1.1,1.5,2.3,2,3.6c0.6-1.1,0.7-2.4,0.4-3.6c-0.5-2.7-2.9-4.8-4-4.8c-0.6,0,0.7-3.2-2.5-5.6 s-1.9,2.2-6.9,3.2c-2.9,0.6-4.5,2.5-4.6,3.5c-0.1,1-3,4.3-3.8,5c-1.9,1.8-2.2,5.8,1,10.5c0.6,0.9,1.6,1.6,2.7,1.9 C108.9,87.9,108.9,85.1,109.6,82.4"></path> <path class="st5" d="M149,103.1c-0.1,0.3-0.3,0.6-0.5,0.9c1.9-1.2,3.1-1.9,3.1-1.9s16.4-9.9,25.1-19.9c0.6-0.6,1.1-1.3,1.6-1.9 l0.1-0.2c0.3,0.1,0.5,0.1,0.5-0.2s0.2-0.3,0.5-0.5c0.5-0.2,1.1-0.3,1.3-0.7c0.4-0.6,0.6-2,0.2-2c-0.6,0.1-1.2,1.8-1.2,0.9 c0-0.9,2.3-2.8,1.1-3.3c-0.4-0.1-1,0.4-1.4,0.9c-0.5,0.5-0.8,1-0.7,0.6c0.2-0.3,0.4-0.6,0.7-0.9c0.7-0.8,1.7-1.9,1-2.6 c-0.2-0.1-0.6,0.3-1,0.8c-0.5,0.5-0.8,0.9-1.1,1.2c-0.3,0.3-0.5,0.5-0.5,0.3c0-0.1,0.2-0.5,0.5-0.8c0.4-0.4,0.8-0.9,1.1-1.5 c0-0.1,0-0.1,0-0.2l-0.1-0.1c-0.3-0.3-0.7-0.3-1-0.1c0,0,0,0-0.1,0.1c-0.6,0.5-1.1,1.8-1.6,1.8c-0.2,0-0.4-0.2-0.6-0.9 c-0.6-2.1-1.1-0.9-0.9,0.9c0.2,2.8,1.2,4,1.2,4s0.1,0.2,0.4,0.4c0.2,0.2,0.3,0.3,0.4,0.4l-0.4,0.3c-4.1,2.5-24.5,12.4-24.5,12.4 c-0.6,0.3-1.2,0.6-1.8,0.9C151,94.2,150.9,97.3,149,103.1"></path> <path class="st9" d="M127,99.1c0.5,0.3,1,0.7,1.5,1.1c1,0.8,1.8,1.8,2.6,2.8c0.8,1.1,1.4,2.3,1.9,3.5c0.5,1.3,1,2.6,1.2,4 c0.2,0.9,0.3,1.7,0.4,2.6c5.2-2.8,11.9-6.6,13.9-9.2c0.2-0.3,0.4-0.6,0.5-0.9c1.9-5.7,2-8.9,1.5-10.6c-0.6-2.1-2-2-2-2 s-13.6,2.9-21.3,7.3c-0.4,0.3-0.9,0.5-1.3,0.8C126.3,98.7,126.6,98.9,127,99.1"></path> <path class="st9" d="M136.1,153.9c-0.1,1-0.1,2.1,0,3.1h3.2c0.1-0.5,0.2-1,0.2-1.5L136.1,153.9z"></path> <path class="st9" d="M133.3,158.1c0-0.6,0.4-1,1-1h1c-0.1-1.2-0.1-2.4,0-3.6l-7.4-3.6l-0.6-24.4h-0.1l0.1-0.1v-0.3l0.2,0.1l0.8-0.8 l0.8,0.4l0.4-0.4c0,0,0.6,0.2,1.5,0.6c0-0.7,0-1.4,0.1-2c0,0.1,0.1,0.2,0.3,0.3c0-0.3,0-0.6,0-0.9s0-0.6,0-1c0-0.2,0-0.3,0-0.5 s0-0.3,0-0.5c0-0.3,0-0.6-0.1-0.9s0-0.6-0.1-0.9c-0.2-2.3-0.5-4.7-0.9-7c-0.5-2.3-1.1-4.5-1.9-6.6c-0.4-1.1-0.9-2.2-1.4-3.3 c-0.2-0.6-0.5-1.1-0.8-1.7c-0.2-0.4-0.4-0.9-0.7-1.3c-0.2,0.1-0.4,0.3-0.5,0.4c-0.3,0.2-0.5,0.4-0.7,0.6c0.5,0.2,1,0.4,1.4,0.8 c0.5,0.6,1.5,6,1.5,6.9s-5.2-3.4-5.9-3.4c-0.7,0-3.5,3.5-4,4.6c-0.5,1.1-2.8-2.2-3.3-5c-0.6-2.8,0.9-4.2,0.9-4.2 c-1.3,0.4-2.6,1-3.8,1.8c-0.3-0.2-0.6-0.4-0.9-0.5l0.3,0.4c0.6,0.9,1.2,1.8,1.5,2.8c0.4,1,0.6,2.1,0.7,3.2c0.2,2.1,0,4.3-0.5,6.3 c-0.2,1-0.5,2-0.9,2.9c-0.2,0.5-0.4,0.9-0.6,1.4l-0.3,0.7l-0.3,0.7c-0.9,1.8-1.9,3.5-3,5.1c-1.1,1.6-2.3,3.1-3.7,4.5 c-1.1,1.2-2.4,2.3-3.6,3.4c-1.6,5.5-3.4,11.5-5,16.5c-1.4,4.4-2.5,8.2-3.1,10.4h41.8C133.4,158.6,133.3,158.4,133.3,158.1"></path> <path class="st9" d="M115.8,102.9L115.8,102.9L115.8,102.9z"></path> <path class="st9" d="M133.9,120.9l-0.1,0.5c0,0.2-0.1,0.3-0.2,0.5l-0.3,0.9c-0.2,0.4-0.3,0.9-0.5,1.3c0.6,0.3,1.3,0.6,2.1,0.9 c-0.2-1.9-0.4-3.8-0.6-5.7c0,0.2-0.1,0.5-0.1,0.7C134.1,120.3,134,120.6,133.9,120.9"></path> <path class="st9" d="M114.7,99.3L114.7,99.3c0,0,0.3,1.6,0.6,2.6C115.2,101.2,115,100.3,114.7,99.3"></path> <path class="st9" d="M124.1,100.2c0-0.1,0-0.2-0.1-0.2l0,0C124.1,100,124.1,100.1,124.1,100.2"></path> <path class="st5" d="M124.2,100.3L124.2,100.3c-0.1-0.2-0.1-0.3-0.1-0.4c-0.3-0.6-0.5-1.2-0.7-1.8 C123.5,98.9,123.8,99.6,124.2,100.3"></path> <path class="st5" d="M91.3,109.4c0.9,3.3,2.2,6.5,4,9.4c-0.8,0.3-1.7,0.6-2.5,0.7c-1.7,0.4-3.5,0.4-5.3,0.3c0,0-19-10.5-25.8-18.5 l0,0c-0.9-0.2-1.8-0.6-2.6-1.2s-1.9-2-1.5-2c0.6,0.1,2.4,1.9,1.8,1c-0.6-0.9-4.2-2.9-3.3-3.3c0.5-0.2,3.9,2.4,3.1,1.6 c-0.8-0.8-4.4-2.6-4-3.5c0.1-0.3,4.4,2.9,4.2,2.5c-0.2-0.5-3.5-2.2-3.3-2.6c0.5-1.2,4.9,3.9,3.8,1.1c-0.8-2,0.4-0.8,1.6,1 c0.7,1,1.2,2,1.5,3.2c2.3,0.1,26.8,11.1,26.8,11.1s0.6-0.3,1.6-0.7"></path> <path class="st2" d="M123.2,97.6L123.2,97.6c0,0.2,0.1,0.4,0.2,0.6C123.3,97.9,123.3,97.7,123.2,97.6"></path> <g> <g> <defs> <path id="SVGID_1_" d="M123.2,97.6c0,0.2,0.1,0.4,0.2,0.6C123.3,97.9,123.2,97.7,123.2,97.6L123.2,97.6z"></path> </defs> <clipPath id="SVGID_2_"> <use xlink:href="#SVGID_1_" style="overflow:visible;"></use> </clipPath> <g class="st10"> <rect x="123.2" y="97.6" class="st11" width="0.2" height="0.6"></rect> </g> </g> </g> <path class="st5" d="M124.2,100.3c-0.4-0.7-0.6-1.4-0.8-2.1c-0.1-0.2-0.1-0.4-0.2-0.6c-2.8,1.3-6.2,1.1-8.9-0.5l0.1,0.4 c0.9,3.6,8.3,4.1,9.8,3.5C124.2,100.8,124.2,100.5,124.2,100.3"></path> <path class="st12" d="M114.4,97.1l0.1,0.4c0.7,2.8,5.4,3.7,8,3.7c0.6,0,1.1,0,1.7-0.2c0-0.1,0-0.2,0-0.2c0-0.2,0-0.3,0-0.5 c-0.4-0.7-0.6-1.4-0.8-2.1c-0.1-0.2-0.1-0.4-0.2-0.6c-1.2,0.6-2.5,0.9-3.8,0.9C117.6,98.4,115.9,97.9,114.4,97.1"></path> <path class="st5" d="M114.1,96.9c0.2,0.7,0.4,1.6,0.6,2.3c0.2,1,0.5,2,0.6,2.6c0.1,0.3,0.2,0.6,0.4,0.9l0.1,0.1 c2.7,1,5.6,0.8,8.2-0.4c0.1-0.5,0.2-1,0.3-1.5c-1.5,0.5-8.9,0-9.8-3.5l-0.1-0.4c2.7,1.6,6,1.8,8.9,0.5l0,0c0.6-0.3,1.2-0.6,1.7-1 c0.2-0.2,0.5-0.4,0.7-0.5c4.7-4.1,3.7-10.9,1.7-15.4c-0.5-1.3-1.2-2.5-2-3.6c-0.5-0.5-1-0.9-1.7-1.1c-0.7,0.1-1.4,0.3-2,0.7 c-2.3,1.3-2.3,3.5-7.4,4.4c-1.6,0.2-3.2,0.7-4.7,1.4c-0.8,2.7-0.8,5.5,0,8.2c0.3,1.2,0.7,2.3,1.2,3.4c0.1,0.2,0.3,0.4,0.4,0.6 C112,95.5,113,96.3,114.1,96.9"></path> <path class="st0" d="M124.1,99.9c0,0.1,0.1,0.2,0.1,0.2v0.1c0,0.2,0,0.5,0,0.7c0,0.5-0.1,1-0.3,1.5c-2.6,1.2-5.5,1.4-8.2,0.4 l-0.1-0.1c-0.2-0.3-0.3-0.6-0.4-0.9c-0.3-1.1-0.6-2.6-0.6-2.6s-1.4,1.4-0.9,4.2c0.6,2.8,2.7,6,3.3,5c0.6-1,3.3-4.6,4-4.6 c0.7,0,5.9,4.4,5.9,3.5s-1-6.3-1.5-6.9c-0.4-0.4-0.9-0.6-1.4-0.8l-0.3-0.1C124,99.8,124,99.8,124.1,99.9"></path> <path class="st3" d="M124.7,76.2c-1.9-3.7-12.1,0.9-13.7,1.6c-1.6,0.7-2.3,5.3-2.3,5.3s0.1-0.3,0.8-0.7c1.5-0.7,3-1.2,4.7-1.4 c5.1-0.9,5.1-3.1,7.4-4.4c0.6-0.4,1.3-0.6,2-0.7C124,75.8,124.4,75.9,124.7,76.2"></path> <path class="st7" d="M127.2,125.5L127.2,125.5L127.2,125.5L127.2,125.5z"></path> <polygon class="st7" points="140.6,142 140.9,136.2 129.4,130.3 129.4,136.3 "></polygon> <path class="st0" d="M121.3,91.7c-1,0-2-0.2-2.9-0.6c-0.3-0.1-0.5-0.3-0.4-0.6c0.3-0.9,6.4-1.1,6.4-1.6 C124.4,90.7,123,91.6,121.3,91.7"></path> <path class="st13" d="M173,113.7h-43.2c-1.2,0.1-2.2,0.8-2.6,1.9l-14.6,40.1h47.1l14.6-40.1c0.3-0.6,0.1-1.4-0.5-1.8 C173.5,113.8,173.3,113.7,173,113.7z"></path> <path class="st14" d="M75.1,155.5v1.2c0,1,0.9,1.9,1.9,1.9l0,0h81.1c1,0,1.9-0.9,1.9-1.9l0,0v-1.2H75.1z"></path> <path class="st13" d="M112.6,157.1v-1.2H75.1v1.2c0,1,0.9,1.9,1.9,1.9h33.7C111.7,159,112.6,158.2,112.6,157.1z"></path> <polygon class="st9" points="125,99.2 127.9,97.4 137.6,101.9 136.1,109.3 134.5,113.1 130.2,114.8 127.2,107.5 126.6,101.8 "></polygon> </g> </svg> 