<?xml version="1.0" encoding="UTF-8"?> <!-- Generator: Adobe Illustrator 24.2.0, SVG Export Plug-In . SVG Version: 6.00 Build 0) --> <svg xmlns="http://www.w3.org/2000/svg" xmlns:xlink="http://www.w3.org/1999/xlink" version="1.1" id="Trial_Thank_You_Resources" x="0px" y="0px" viewBox="0 0 250 200" style="enable-background:new 0 0 250 200;" xml:space="preserve"> <style type="text/css"> .st0{fill:#D6E9BD;} .st1{fill:#1F81C5;} .st2{fill:#D6644B;} .st3{fill:#5FAD6E;} .st4{fill:#F58458;} .st5{fill:#95CA59;} .st6{fill:#95CA59;stroke:#5FAD6E;stroke-width:1.9428;stroke-miterlimit:10;} .st7{fill:none;stroke:#1F81C5;stroke-width:3.4927;stroke-miterlimit:10;} .st8{fill:none;stroke:#5B979C;stroke-width:3.4927;stroke-miterlimit:10;} .st9{fill:#5A969C;} .st10{fill:none;stroke:#D6E9BD;stroke-width:2.936;} .st11{fill:#F58457;stroke:#F58457;stroke-width:0.5457;stroke-miterlimit:10;} .st12{fill:none;stroke:#95CA59;stroke-width:2.9087;} .st13{fill:none;stroke:#5FAD6E;stroke-width:2.9087;} .st14{fill:#FFFFFF;} .st15{fill:#6ABE52;} .st16{fill:#01A063;} .st17{fill:#D1EBFA;} .st18{fill:#555554;} .st19{fill:#69B345;} </style> <g> <path class="st0" d="M162.49,5.17c-15.72,6.03-31.11,21.09-64.51,20.37c-62.54-1.44-113.23,32.22-87.1,98.23 s78.13,95.16,129.8,58.35c37.92-27.05,33.01-58.09,59.46-68.5c49.25-19.45,57.37-59.66,31.89-89.13S183.45-2.82,162.49,5.17z"></path> <path class="st1" d="M82.86,99.6c0,0-1.11,3.14,4.39,7.6c5.44,4.39,16.57,2.69,23.9-11s15.46-7.01,20.89-17.49 c5.44-10.41-6.42-32.81-16.9-31.89c-10.48,0.92-6.35,11.59-5.96,16.7c0.39,5.04,8.38,10.87,10.81,6.09 c2.42-4.78-6.35-39.1-23.18-41.72c-11.33-1.77-14.54,0.33-15.98,11.33c-1.05,7.99-4.52,13.88-15.39,12.51 c-14.01-1.77-12.38,4.32-9.95,9.5c3.54,7.66,11.46,15.39,5.63,20.76C55.29,87.36,70.15,96.72,82.86,99.6z"></path> <path class="st2" d="M99.42,164.83c0,0,9.1,32.42,18.14,33.73c9.1,1.31-3.86-48-5.17-52.72 C111.08,141.06,99.42,164.83,99.42,164.83z"></path> <path class="st3" d="M83.84,111.65c0,0,9.5-2.16,18.6,5.63s14.41,29.8,14.41,29.8l-18.47,25.34l-18.86-24.49 C79.52,147.94,67.4,109.49,83.84,111.65z"></path> <path class="st4" d="M109.77,89.58c0,0,3.47,8.19,3.01,10.81c-0.46,2.62-3.86,10.35-3.86,10.35l16.83,64.83 c0,0,0.85,17.29-3.86,21.61s-5.17,2.62-9.1-0.85c-3.86-3.47-7.33-51.87-8.64-68.7c-1.31-16.83-3.01-23.31-3.01-23.31 s4.32-2.62,6.03-3.47C108.92,100,109.38,90.89,109.77,89.58z"></path> <path class="st4" d="M104.14,88.73c-1.31,0.85-12.97,12.12-12.57,25.08c0.39,12.97,1.31,12.97,0.85,17.29 c-0.46,4.32,1.31,17.75-8.64,25.08c-2.82,2.1-6.94-21.61-10.81-33.73c-2.88-9.04-8.64-9.1,3.86-20.3S91.5,80.09,92.42,74.52 C93.33,68.82,104.14,88.73,104.14,88.73z"></path> <path class="st5" d="M65.7,110.34c0,0-10.54-9.76-27.24,31.89C34.98,150.88,16.38,200,16.38,200H88.1c0,0,6.48-27.96,9.95-37.46 c3.47-9.5-6.03-47.74-6.03-47.74l-0.85,25.08C91.17,139.88,74.8,97.25,65.7,110.34z"></path> <path class="st4" d="M54.43,144.07l15.98,52.33c0,0,2.16,5.17,14.67,1.31c14.74-4.58,60.97-15.13,60.97-15.13 c1.83,1.9,3.6,3.93,5.17,6.03c3.01,3.86,9.95,0.65,9.95,0.65l4.32,3.21c0,0,3.99,2.36,5.83,2.36c1.31,0-14.47-13.62-14.47-13.62 l-15.78-4.98l-52.92,4.98l-13.82-47.09L54.43,144.07z"></path> <path class="st5" d="M192.03,176.49c-0.26,0.92-1.18,1.51-2.1,1.24l-7.07-1.83c-0.92-0.26-1.51-1.18-1.24-2.1l27.05-103.28 c0.26-0.92,1.18-1.51,2.1-1.24l7.07,1.83c0.92,0.26,1.44,1.18,1.24,2.1L192.03,176.49z"></path> <path class="st6" d="M181.61,174.66l7.07,1.83c0.92,0.26,1.9-0.33,2.1-1.24l27.05-103.28l1.18,1.18"></path> <path class="st5" d="M187.18,200v-1.44c0-0.98-0.13-0.98-1.11-0.98H143.3c-0.98,0-2.95,0-2.95,0.98V200H187.18z"></path> <path class="st2" d="M92.48,74.46c-0.85,6.35-3.21,12.44-6.81,17.75c0.2,9.82,2.49,18.8,6.16,25.87c-0.07-1.24-0.13-2.69-0.2-4.32 c-0.46-12.97,11.26-24.23,12.57-25.08C104.14,88.73,93.33,68.82,92.48,74.46z"></path> <path class="st2" d="M111.74,94.89c-0.85-2.75-1.96-5.3-1.96-5.3c-0.46,1.31-0.85,10.35-2.62,11.26c-1.7,0.85-6.03,3.47-6.03,3.47 c0.65,2.88,1.18,5.76,1.51,8.64C107.28,109.3,110.69,102.75,111.74,94.89z"></path> <path class="st2" d="M94.97,191.29c-11.59,2.16-19.71,3.47-25.41,2.1l0.92,2.95c0,0,2.16,5.17,14.67,1.31 c13.75-4.26,54.95-13.75,60.38-15C142.98,181.4,115.99,187.36,94.97,191.29z"></path> <line class="st7" x1="133.55" y1="174.72" x2="137.47" y2="190.77"></line> <line class="st8" x1="130.07" y1="175.18" x2="132.24" y2="191.62"></line> <path class="st2" d="M58.69,157.82c6.29-2.42,15.06-5.37,21.09-5.17l-3.86-13.29l-20.69,7.07L58.69,157.82z"></path> <path class="st3" d="M36.75,160.9l44.93-16.83c0,0-0.46-27.64-6.03-38.05c-2.88-5.3-10.09-4.85-21.61,8.64 C44.09,126.32,36.75,160.9,36.75,160.9z"></path> <path class="st4" d="M111.28,59.92c0,0,11.13,56.26-19.32,41.26c-12.31-6.03-11.33-11.98-11.33-16.31c0-4.32-6.75,0.26-5.04-7.73 s4.06-6.75,6.22-2.03c2.23,4.72,4.19,3.47,6.61-1.9c2.36-5.44-2.36-8.71,8.06-4.91C106.89,72.03,112.06,69.61,111.28,59.92z"></path> <path class="st5" d="M222.22,200h-27.31v-2.42h27.11c0.65-0.13,4.98-1.24,4.98-7.33c0-4.06-14.08-41.26-23.58-65.23l2.23-0.85 c2.42,6.16,23.71,60.25,23.71,66.08c0,6.88-4.65,9.36-7.07,9.69L222.22,200z"></path> <rect x="143.83" y="57.95" class="st9" width="12.12" height="12.12"></rect> <polyline class="st10" points="145.53,64.04 147.82,66.34 153.19,60.77 "></polyline> <rect x="162.49" y="70.85" class="st11" width="13.62" height="1.83"></rect> <rect x="162.49" y="58.74" class="st9" width="18.8" height="9.1"></rect> <rect x="162.49" y="88.73" class="st11" width="13.62" height="1.83"></rect> <rect x="162.49" y="76.62" class="st9" width="18.8" height="9.1"></rect> <line class="st12" x1="162.1" y1="101.5" x2="185.81" y2="101.5"></line> <line class="st12" x1="162.1" y1="106.81" x2="185.81" y2="106.81"></line> <polyline class="st13" points="152.41,103.86 148.74,108.51 146.32,106.94 "></polyline> <line class="st12" x1="162.1" y1="117.29" x2="185.81" y2="117.29"></line> <line class="st12" x1="162.1" y1="122.59" x2="185.81" y2="122.59"></line> <polyline class="st13" points="152.41,119.64 148.74,124.29 146.32,122.72 "></polyline> <line class="st12" x1="162.1" y1="133.07" x2="185.81" y2="133.07"></line> <line class="st12" x1="162.1" y1="138.37" x2="185.81" y2="138.37"></line> <polyline class="st13" points="152.41,135.43 148.74,140.08 146.32,138.51 "></polyline> <path class="st14" d="M100.08,98.95c-2.16-0.39-4.19-1.44-5.76-3.01c-0.46-0.46-0.85-1.05-0.46-1.83 c1.18-2.1,14.08,0.52,14.41-0.85C107.15,98.03,103.62,99.6,100.08,98.95"></path> <path class="st15" d="M223.72,34.57c0,12.9-10.48,23.38-23.38,23.38c-12.9,0-23.38-10.48-23.38-23.38s10.48-23.38,23.38-23.38l0,0 C213.25,11.19,223.72,21.67,223.72,34.57z"></path> <path class="st16" d="M200.34,11.19c12.9,0,23.38,10.48,23.38,23.38s-10.48,23.38-23.38,23.38"></path> <path class="st14" d="M218.55,34.57c0,10.02-8.12,18.21-18.21,18.21c-10.02,0-18.21-8.12-18.21-18.21s8.12-18.21,18.21-18.21 C210.36,16.43,218.55,24.55,218.55,34.57L218.55,34.57z"></path> <path class="st17" d="M184.1,35.88c0-10.02,8.12-18.21,18.21-18.21c3.21,0,6.35,0.85,9.1,2.42c-7.99-6.09-19.38-4.58-25.48,3.34 s-4.58,19.38,3.34,25.48c0.65,0.46,1.31,0.92,1.96,1.31C186.79,46.89,184.1,41.58,184.1,35.88z"></path> <path class="st18" d="M203.62,34.57c0,1.83-1.44,3.27-3.27,3.27s-3.27-1.44-3.27-3.27s1.44-3.27,3.27-3.27h0.07 C202.11,31.36,203.55,32.81,203.62,34.57z"></path> <path class="st18" d="M208.07,21.48c-0.07,0-0.07,0-0.13-0.07c-0.13-0.07-0.2-0.26-0.07-0.33l0,0l0.52-0.85 c0.07-0.13,0.26-0.2,0.33-0.07c0.13,0.07,0.2,0.26,0.07,0.33l-0.52,0.85C208.27,21.41,208.2,21.48,208.07,21.48L208.07,21.48z"></path> <path class="st18" d="M192.09,49.11c-0.07,0-0.07,0-0.13,0c-0.13-0.07-0.2-0.26-0.07-0.33l0.52-0.85c0.07-0.13,0.26-0.2,0.33-0.13 c0.13,0.07,0.2,0.26,0.07,0.33l0,0l-0.52,0.85C192.29,49.05,192.22,49.11,192.09,49.11z"></path> <path class="st18" d="M214.62,43.09c-0.07,0-0.07,0-0.13,0l-0.85-0.52c-0.13-0.07-0.2-0.26-0.07-0.33c0.07-0.13,0.26-0.2,0.33-0.07 l0,0l0.85,0.46c0.13,0.07,0.2,0.26,0.13,0.33C214.82,43.02,214.69,43.09,214.62,43.09L214.62,43.09z"></path> <path class="st18" d="M186.98,27.11c-0.07,0-0.07,0-0.13,0L186,26.58c-0.13-0.07-0.2-0.26-0.07-0.33c0.07-0.13,0.26-0.2,0.33-0.07 l0.85,0.52c0.13,0.07,0.2,0.26,0.13,0.33C187.18,27.11,187.05,27.11,186.98,27.11L186.98,27.11z"></path> <path class="st18" d="M192.62,21.48c-0.07,0-0.2-0.07-0.26-0.13l-0.52-0.85c-0.07-0.13,0-0.26,0.07-0.33 c0.13-0.07,0.26,0,0.33,0.07l0,0l0.52,0.92c0.07,0.13,0,0.26-0.07,0.33C192.75,21.48,192.68,21.48,192.62,21.48L192.62,21.48z"></path> <path class="st18" d="M208.6,49.11c-0.07,0-0.2-0.07-0.26-0.13l-0.52-0.85c-0.07-0.13,0-0.26,0.07-0.33c0.13-0.07,0.26,0,0.33,0.07 l0.52,0.85c0.07,0.13,0.07,0.26-0.07,0.33l0,0C208.66,49.11,208.66,49.11,208.6,49.11L208.6,49.11z"></path> <path class="st18" d="M186.07,43.09c-0.13,0-0.26-0.13-0.26-0.26c0-0.07,0.07-0.2,0.13-0.26l0.85-0.52c0.13-0.07,0.26,0,0.33,0.07 c0.07,0.13,0,0.26-0.07,0.33l-0.85,0.52C186.2,43.09,186.13,43.09,186.07,43.09L186.07,43.09z"></path> <path class="st18" d="M213.77,27.11c-0.13,0-0.26-0.13-0.26-0.26c0-0.07,0.07-0.2,0.13-0.26l0.85-0.52 c0.13-0.07,0.26-0.07,0.39,0.07c0.07,0.13,0.07,0.26-0.07,0.39l0,0l-0.85,0.52C213.84,27.11,213.77,27.11,213.77,27.11 L213.77,27.11z"></path> <path class="st18" d="M184.89,34.84h-0.98c-0.13,0-0.26-0.13-0.26-0.26l0,0c0-0.13,0.13-0.26,0.26-0.26l0,0h0.98 c0.13,0,0.26,0.13,0.26,0.26C185.15,34.77,185.02,34.84,184.89,34.84z"></path> <path class="st18" d="M215.8,34.84c-0.13,0-0.26-0.13-0.26-0.26l0,0c0-0.13,0.13-0.26,0.26-0.26l0,0h0.98 c0.13,0,0.26,0.13,0.26,0.26c0,0.13-0.13,0.26-0.26,0.26l0,0H215.8z"></path> <path class="st18" d="M200.34,51.34L200.34,51.34c-0.13,0-0.26-0.13-0.26-0.26v-0.98c0-0.13,0.13-0.26,0.26-0.26l0,0 c0.13,0,0.26,0.13,0.26,0.26l0,0v0.98C200.61,51.21,200.48,51.34,200.34,51.34L200.34,51.34L200.34,51.34z"></path> <path class="st18" d="M200.34,19.38c-0.13,0-0.26-0.13-0.26-0.26l0,0v-0.98c0-0.13,0.13-0.26,0.26-0.26l0,0 c0.13,0,0.26,0.13,0.26,0.26l0,0v0.98C200.61,19.25,200.48,19.38,200.34,19.38L200.34,19.38z"></path> <path class="st18" d="M200.34,35.49c-0.46,0-0.85-0.39-0.85-0.85v-12.9c0.07-0.46,0.46-0.85,0.92-0.79 c0.39,0.07,0.79,0.39,0.79,0.79v12.9C201.2,35.1,200.8,35.49,200.34,35.49L200.34,35.49z"></path> <path class="st18" d="M194.71,41.12c-0.26,0-0.46-0.07-0.59-0.26c-0.33-0.33-0.33-0.92,0-1.24l0,0l5.44-5.44 c0.33-0.33,0.92-0.26,1.24,0.07c0.26,0.33,0.26,0.85,0,1.18l-5.44,5.44C195.17,40.99,194.97,41.06,194.71,41.12L194.71,41.12z"></path> <path class="st14" d="M202.37,34.57c0,1.11-0.92,2.03-2.03,2.03s-2.03-0.92-2.03-2.03s0.92-2.03,2.03-2.03 C201.46,32.61,202.37,33.46,202.37,34.57z"></path> <path class="st19" d="M201.33,34.57c0,0.52-0.46,0.98-0.98,0.98s-0.98-0.46-0.98-0.98s0.46-0.98,0.98-0.98l0,0 C200.87,33.59,201.33,34.05,201.33,34.57z"></path> <path class="st19" d="M200.34,35.03c-0.26,0-0.46-0.2-0.46-0.39c0-0.2,0.13-0.39,0.33-0.39l11.26-3.41 c0.2-0.07,0.46,0.07,0.52,0.26s-0.07,0.46-0.26,0.52l-11.2,3.41C200.48,35.03,200.41,35.03,200.34,35.03L200.34,35.03z"></path> </g> </svg> 