<?xml version="1.0" encoding="UTF-8"?> <!-- Generator: Adobe Illustrator 24.2.0, SVG Export Plug-In . SVG Version: 6.00 Build 0) --> <svg xmlns="http://www.w3.org/2000/svg" xmlns:xlink="http://www.w3.org/1999/xlink" version="1.1" id="Layer_1" x="0px" y="0px" viewBox="0 0 570 500" style="enable-background:new 0 0 570 500;" xml:space="preserve"> <style type="text/css"> .st0{fill:#D6E8BC;} .st1{fill:#95CA59;} .st2{fill:#EEF1F4;} .st3{fill:#CFD7DD;} .st4{fill:#C6CED4;} .st5{fill:#60AC6E;} .st6{fill:#3F4040;} .st7{fill:#FFFFFF;} .st8{fill:#D5634B;} .st9{fill:#24AEE4;} .st10{fill:#F48257;} .st11{fill:#545554;} </style> <g> <path class="st0" d="M47,240.7c54-31,121.7-40.6,177.8-80.3C282.7,119.5,325.4,32.5,409,41.2c76.4,7.9,131.8,98.1,147.2,177 C615,519.5,235.5,544.1,79.7,454.5l-4.3-2.5c-28.6-17.4-55.1-44.7-67.8-79.3C-12,319.4,8.1,263.1,47,240.7z"></path> <path class="st1" d="M143.9,474.8H69.3V384h74.6V474.8z M79,465h55.2v-71.3H79V465z"></path> <path class="st1" d="M251,474.8h-74.7V275.1H251V474.8z M186,465h55.2V284.8H186V465z"></path> <path class="st1" d="M358,474.8h-74.7V326.5H358V474.8z M293,465h55.2V336.2H293V465z"></path> <path class="st1" d="M465,474.8h-74.7V231.1H465V474.8z M400.1,465h55.3V240.8h-55.3V465z"></path> <rect x="421.5" y="465" class="st1" width="73.7" height="9.7"></rect> <rect x="53.2" y="465" class="st1" width="368.2" height="9.7"></rect> <polygon class="st2" points="496.8,94.8 499.3,114.6 570,142.2 "></polygon> <path class="st3" d="M498.9,113.4c0.3,1.2-11.6,20.8-11.6,20.8l13.5-14.1l68.8,21.8L498.9,113.4z"></path> <polygon class="st4" points="516.5,141.3 487.3,134.3 500.7,120.2 532.5,140.8 "></polygon> <path class="st2" d="M500.7,120.2c0.3,0.3-3.8,21.8-3.8,21.8l73,0.2L500.7,120.2z"></path> <path class="st5" d="M26.8,362.5c-0.7,0.1-1.3-0.4-1.5-1c-0.1-0.7,0.4-1.4,1.1-1.5c0,0,0.1,0,0.1,0c1.9-0.3,3.8-0.6,5.7-0.9 c0.8-0.2,1.5,0.3,1.8,1c0.1,0.7-0.3,1.4-1,1.5c0,0-0.1,0-0.1,0c-1.9,0.4-3.9,0.7-5.9,1L26.8,362.5z"></path> <path class="st5" d="M44.2,358.9c-0.6,0-1.2-0.3-1.5-0.9c-0.2-0.7,0.2-1.4,0.8-1.6c0,0,0.1,0,0.1,0c3.7-1,7.4-2.2,11.1-3.4 c0.7-0.3,1.5,0,1.9,0.7c0.3,0.6,0,1.3-0.6,1.6c-0.1,0-0.1,0-0.2,0.1c-3.7,1.3-7.5,2.5-11.3,3.5C44.4,358.9,44.3,358.9,44.2,358.9z M66.2,351.2c-0.5,0-1.1-0.2-1.4-0.7c-0.3-0.6-0.1-1.3,0.5-1.6c0.1,0,0.1-0.1,0.2-0.1c3.5-1.5,6.9-3.2,10.3-5 c0.7-0.4,1.6-0.2,2.1,0.4c0.4,0.5,0.3,1.3-0.3,1.7c-0.1,0-0.1,0.1-0.2,0.1c-3.4,1.8-6.9,3.5-10.5,5.1 C66.6,351.1,66.4,351.2,66.2,351.2z M86.5,340.4c-0.5,0-0.9-0.2-1.3-0.5c-0.4-0.5-0.3-1.3,0.2-1.7c0,0,0.1-0.1,0.1-0.1 c3.1-2,6.3-4.1,9.3-6.2c0.6-0.5,1.5-0.4,2.1,0.2c0.5,0.4,0.5,1.2,0,1.6c-0.1,0.1-0.1,0.1-0.2,0.2c-3.1,2.2-6.2,4.4-9.5,6.4 C87.1,340.3,86.8,340.4,86.5,340.4z M104.8,327.1c-0.4,0-0.8-0.1-1.1-0.4c-0.5-0.4-0.6-1.1-0.2-1.7c0-0.1,0.1-0.1,0.2-0.2 c2.8-2.4,5.6-4.8,8.2-7.4c0.6-0.5,1.5-0.6,2.1-0.1c0.5,0.4,0.6,1.1,0.3,1.6c0,0.1-0.1,0.1-0.2,0.2c-2.7,2.6-5.5,5.1-8.3,7.5 C105.5,327,105.1,327.2,104.8,327.1L104.8,327.1z M120.7,311.8c-0.3,0-0.7-0.1-1-0.3c-0.6-0.3-0.7-1.1-0.4-1.6 c0-0.1,0.1-0.1,0.1-0.2c2.4-2.6,4.8-5.4,7-8.2c0.5-0.6,1.4-0.7,2.1-0.3c0.6,0.3,0.8,1,0.5,1.6c0,0.1-0.1,0.1-0.1,0.2 c-2.3,2.9-4.7,5.7-7.1,8.4C121.6,311.7,121.2,311.9,120.7,311.8L120.7,311.8z M134.4,294.9c-0.3,0-0.6-0.1-0.8-0.2 c-0.6-0.3-0.9-1-0.6-1.6c0-0.1,0.1-0.1,0.1-0.2c2.1-2.9,4-5.9,5.9-8.9c0.4-0.6,1.3-0.9,2-0.5c0.6,0.2,0.9,0.9,0.7,1.6 c0,0.1-0.1,0.1-0.1,0.2c-1.9,3.1-3.9,6.1-6,9C135.3,294.7,134.8,294.9,134.4,294.9z M145.7,276.7c-0.2,0-0.5,0-0.7-0.1 c-0.6-0.2-1-0.9-0.8-1.6c0-0.1,0-0.1,0.1-0.2c1.7-3,3.3-6.2,4.8-9.3c0.4-0.7,1.2-1,1.9-0.7c0.7,0.2,1,0.9,0.8,1.5 c0,0,0,0.1-0.1,0.1c-1.6,3.2-3.2,6.4-4.9,9.5C146.7,276.5,146.2,276.7,145.7,276.7z M154.9,257.6c-0.2,0-0.4,0-0.6-0.1 c-0.7-0.2-1.1-0.8-0.9-1.5c0-0.1,0-0.1,0-0.2c1.3-3.2,2.6-6.5,3.8-9.7c0.3-0.7,1.1-1.1,1.9-0.8c0.7,0.1,1.1,0.8,1,1.5 c0,0,0,0.1,0,0.1c-1.2,3.3-2.5,6.6-3.9,9.8C156,257.3,155.5,257.7,154.9,257.6z M153.7,243.3c-1.4,0-2.8,0-4.2,0 c-0.7,0.1-1.4-0.4-1.5-1.1c-0.1-0.7,0.4-1.4,1.1-1.5c0.1,0,0.2,0,0.3,0c1.4,0,2.7,0,4.1,0c2.5-0.1,5.1-0.2,7.6-0.5 c0.8-0.1,1.5,0.4,1.6,1.1c0.1,0.7-0.5,1.4-1.2,1.4c0,0-0.1,0-0.1,0C159,243.1,156.3,243.2,153.7,243.3L153.7,243.3z M137.8,242.4 h-0.3c-2.7-0.4-5.4-0.9-8.1-1.5c-1.3-0.3-2.5-0.6-3.8-1c-0.7-0.1-1.1-0.8-1-1.5c0,0,0-0.1,0-0.1c0.3-0.7,1.1-1.1,1.9-0.8 c1.2,0.3,2.4,0.7,3.6,0.9c2.5,0.6,5.2,1,7.8,1.4c0.7,0,1.3,0.7,1.2,1.4c0,0,0,0,0,0.1C139,242,138.4,242.5,137.8,242.4L137.8,242.4 z M173.3,241.1c-0.7,0-1.3-0.4-1.5-1c-0.1-0.7,0.3-1.4,1-1.5c0,0,0.1,0,0.1,0c3.7-0.7,7.5-1.7,11.3-2.8c0.7-0.2,1.5,0.1,1.9,0.8 c0.2,0.7-0.1,1.4-0.8,1.6c-0.1,0-0.1,0-0.2,0c-3.9,1.1-7.8,2.1-11.6,2.8L173.3,241.1z M162.2,238c-0.1,0-0.3,0-0.4,0 c-0.7-0.1-1.2-0.8-1.1-1.5c0,0,0-0.1,0-0.1c0.3-0.8,0.5-1.6,0.8-2.5c0.8-2.5,1.5-5,2.1-7.5c0.3-0.7,1-1.1,1.8-1 c0.7,0.1,1.2,0.7,1.1,1.5c0,0,0,0.1,0,0.1c-0.7,2.6-1.4,5.1-2.2,7.6c-0.2,0.8-0.5,1.7-0.8,2.5C163.3,237.6,162.8,237.9,162.2,238 L162.2,238z M195.8,234.6c-0.6,0-1.1-0.3-1.4-0.8c-0.3-0.6,0-1.3,0.6-1.6c0.1,0,0.1,0,0.2-0.1c2.4-0.9,4.9-1.9,7.3-3 c1.1-0.5,2.2-1,3.4-1.5c0.7-0.3,1.6-0.1,2,0.5c0.3,0.6,0.1,1.3-0.4,1.7c-0.1,0-0.1,0.1-0.2,0.1l-3.4,1.5c-2.4,1-4.9,2.1-7.4,3 C196.2,234.5,196,234.6,195.8,234.6L195.8,234.6z M115.2,235.9c-0.3,0-0.5,0-0.7-0.2c-3.5-1.7-7-3.6-10.2-5.8 c-0.6-0.3-0.7-1.1-0.4-1.6c0-0.1,0.1-0.1,0.1-0.2c0.5-0.6,1.4-0.7,2.1-0.2c3.1,2.1,6.4,4,9.8,5.6c0.6,0.2,0.9,0.9,0.7,1.6 c0,0.1-0.1,0.1-0.1,0.2C116.2,235.7,115.7,235.9,115.2,235.9L115.2,235.9z M216.8,224.9c-0.5,0-1-0.2-1.3-0.6 c-0.4-0.5-0.3-1.3,0.3-1.7c0.1,0,0.1-0.1,0.2-0.1c3.2-1.8,6.5-3.7,9.8-5.7c0.7-0.4,1.6-0.3,2.1,0.3c0.4,0.5,0.4,1.2-0.2,1.7 c-0.1,0-0.1,0.1-0.2,0.1c-3.3,2.1-6.7,4-10,5.8C217.3,224.8,217.1,224.8,216.8,224.9L216.8,224.9z M96.5,223.1 c-0.4,0-0.8-0.1-1.2-0.4c-2.7-2.6-5.1-5.5-7.2-8.6c-0.4-0.5-0.2-1.3,0.3-1.7c0.1,0,0.1-0.1,0.2-0.1c0.7-0.4,1.6-0.2,2.1,0.5 c2,3,4.3,5.7,6.9,8.2c0.5,0.4,0.5,1.2,0,1.7c0,0.1-0.1,0.1-0.2,0.1C97.2,223,96.8,223.1,96.5,223.1L96.5,223.1z M167.3,217.7H167 c-0.7,0-1.3-0.7-1.2-1.4c0,0,0,0,0-0.1c0.6-3.4,1-6.8,1.2-10.2c0.1-0.8,0.8-1.3,1.5-1.2c0.8,0,1.4,0.6,1.4,1.4 c-0.2,3.5-0.6,7-1.2,10.5C168.5,217.3,168,217.7,167.3,217.7L167.3,217.7z M236.2,212.9c-0.5,0-0.9-0.2-1.2-0.5 c-0.4-0.5-0.4-1.2,0-1.7c0.1-0.1,0.1-0.1,0.2-0.1c3-2.1,6-4.2,9.1-6.6c0.6-0.5,1.5-0.4,2.1,0.1c0.5,0.4,0.5,1.2,0,1.6 c-0.1,0.1-0.1,0.1-0.2,0.2c-3.1,2.3-6.2,4.6-9.2,6.6C236.8,212.8,236.5,212.9,236.2,212.9L236.2,212.9z M84.5,205.3 c-0.6,0-1.2-0.3-1.5-0.9c-1.2-3.4-2-6.9-2.3-10.5c0-0.7,0.6-1.3,1.3-1.4c0,0,0,0,0.1,0l0,0c0.7-0.1,1.4,0.5,1.5,1.2 c0.3,3.4,1,6.7,2.2,9.9c0.2,0.8-0.3,1.5-1.1,1.6C84.7,205.3,84.6,205.3,84.5,205.3L84.5,205.3z M254.2,199.4 c-0.4,0-0.8-0.1-1.1-0.4c-0.5-0.4-0.5-1.2-0.1-1.7c0.1-0.1,0.1-0.1,0.2-0.2c2.9-2.3,5.8-4.7,8.6-7.1c0.6-0.5,1.5-0.5,2.1,0 c0.5,0.4,0.6,1.1,0.2,1.6c-0.1,0.1-0.1,0.1-0.2,0.2c-2.9,2.4-5.7,4.8-8.7,7.1C254.9,199.3,254.6,199.4,254.2,199.4L254.2,199.4z M168.2,197c-0.7,0.1-1.4-0.5-1.5-1.2c-0.3-3.3-1-6.6-1.9-9.8c0,0-0.1-0.2-0.1-0.3c-0.1-0.7,0.3-1.4,1-1.5c0,0,0.1,0,0.1,0 c0.8-0.2,1.5,0.2,1.8,1c1,3.4,1.7,6.9,2.1,10.4c0,0.7-0.6,1.4-1.3,1.4c0,0,0,0,0,0H168.2z M271.3,185c-0.4,0-0.7-0.1-1-0.4 c-0.5-0.4-0.6-1.1-0.2-1.6c0.1-0.1,0.1-0.1,0.2-0.2c2.8-2.4,5.5-4.9,8.3-7.4c0.6-0.5,1.5-0.5,2.1,0c0.5,0.4,0.6,1.1,0.2,1.7 c0,0.1-0.1,0.1-0.2,0.2c-2.8,2.5-5.6,4.9-8.4,7.4C272.1,184.9,271.7,185,271.3,185L271.3,185z M83.2,184.8c-0.1,0-0.2,0-0.4,0 c-0.7-0.1-1.2-0.7-1.1-1.4c0,0,0-0.1,0-0.1c0.9-3.5,2.3-6.9,4.2-10c0.4-0.6,1.3-0.9,2-0.6c0.6,0.2,1,0.9,0.7,1.6 c0,0.1,0,0.1-0.1,0.2c-1.7,2.9-3.1,6.1-3.9,9.4C84.3,184.4,83.8,184.8,83.2,184.8L83.2,184.8z M162,177.1c-0.6,0-1.1-0.2-1.4-0.7 c-1.8-3.1-3.8-5.9-6.2-8.5c-0.4-0.5-0.4-1.2,0-1.7c0.1-0.1,0.1-0.1,0.2-0.1c0.7-0.4,1.5-0.4,2.1,0.2c2.5,2.7,4.7,5.8,6.6,9 c0.3,0.6,0.1,1.3-0.5,1.6c-0.1,0-0.1,0.1-0.2,0.1C162.5,177,162.3,177.1,162,177.1L162,177.1z M288,170.3c-0.4,0-0.7-0.1-1-0.4 c-0.5-0.4-0.6-1.1-0.2-1.7c0-0.1,0.1-0.1,0.2-0.2c2.8-2.5,5.5-4.9,8.3-7.4c0.6-0.5,1.5-0.5,2.1,0c0.5,0.4,0.6,1.1,0.2,1.7 c0,0.1-0.1,0.1-0.2,0.2c-2.8,2.5-5.5,4.9-8.3,7.4C288.8,170.1,288.4,170.3,288,170.3L288,170.3z M93.9,166.5c-0.4,0-0.7-0.1-1-0.3 c-0.5-0.4-0.7-1.1-0.3-1.6c0-0.1,0.1-0.1,0.2-0.2c2.7-2.7,5.8-5.1,9.1-7.1c0.7-0.4,1.6-0.3,2.1,0.3c0.4,0.5,0.3,1.2-0.2,1.7 c-0.1,0.1-0.1,0.1-0.2,0.1c-3.1,1.9-6,4.1-8.6,6.6C94.7,166.4,94.3,166.5,93.9,166.5L93.9,166.5z M147.1,161c-0.3,0-0.7-0.1-1-0.3 c-3.1-2.1-6.4-3.7-10-5c-0.7-0.2-1.1-0.8-0.9-1.5c0-0.1,0-0.1,0.1-0.2c0.4-0.7,1.2-1,1.9-0.7c3.8,1.3,7.4,3.1,10.7,5.3 c0.6,0.3,0.7,1.1,0.4,1.6c0,0.1-0.1,0.1-0.1,0.2C148,160.8,147.6,161,147.1,161L147.1,161z M304.8,155.6c-0.4,0-0.8-0.1-1.1-0.4 c-0.5-0.4-0.6-1.1-0.2-1.7c0-0.1,0.1-0.1,0.2-0.2c2.8-2.4,5.7-4.8,8.6-7.2c0.6-0.5,1.5-0.5,2.1,0.1c0.5,0.4,0.5,1.2,0.1,1.6 c-0.1,0.1-0.1,0.1-0.2,0.2c-2.9,2.3-5.7,4.7-8.6,7.1C305.5,155.4,305.1,155.6,304.8,155.6L304.8,155.6z M113.4,155.1 c-0.6,0-1.2-0.3-1.5-0.9c-0.2-0.7,0.1-1.4,0.8-1.6c0.1,0,0.1,0,0.2,0c3.2-0.9,6.5-1.4,9.8-1.5c0.8,0,1.6,0,2.4,0 c0.8,0,1.4,0.6,1.4,1.3c-0.1,0.7-0.8,1.3-1.5,1.2c-0.7,0-1.5,0-2.2,0c-3.1,0.1-6.1,0.5-9,1.3C113.7,155.1,113.6,155.1,113.4,155.1 L113.4,155.1z M322.2,141.5c-0.4,0-0.8-0.1-1.2-0.4c-0.5-0.4-0.5-1.2,0-1.7c0.1-0.1,0.1-0.1,0.2-0.2c3.1-2.3,6.1-4.6,9.1-6.7 c0.6-0.4,1.5-0.4,2.1,0.2c0.5,0.5,0.4,1.2,0,1.7c-0.1,0.1-0.1,0.1-0.2,0.1c-3,2.1-6,4.3-9,6.6C322.8,141.3,322.5,141.5,322.2,141.5 L322.2,141.5z M340.7,128.5c-0.5,0-0.9-0.2-1.2-0.5c-0.4-0.5-0.4-1.2,0.1-1.7c0.1-0.1,0.1-0.1,0.2-0.1c3.3-2.1,6.6-4.1,9.8-5.9 c0.7-0.4,1.6-0.2,2.1,0.4c0.4,0.5,0.3,1.3-0.3,1.7c-0.1,0-0.1,0.1-0.2,0.1c-3.2,1.8-6.5,3.8-9.7,5.9 C341.3,128.4,341,128.5,340.7,128.5z M360.6,117.2c-0.5,0-1-0.2-1.3-0.7c-0.4-0.5-0.2-1.3,0.4-1.6c0.1,0,0.1-0.1,0.2-0.1 c3.5-1.7,7.1-3.3,10.7-4.8c0.7-0.3,1.6,0,2,0.6c0.3,0.6,0.1,1.3-0.5,1.6c-0.1,0-0.1,0.1-0.2,0.1c-3.5,1.4-7,3-10.5,4.7 C361.1,117.1,360.9,117.2,360.6,117.2L360.6,117.2z M463.7,108.9c-0.2,0-0.5,0-0.7-0.1c-3.6-1.4-7.2-2.6-11-3.6 c-0.7-0.1-1.2-0.8-1.1-1.5c0,0,0-0.1,0-0.1c0.3-0.7,1.1-1.1,1.8-0.9c3.9,1,7.7,2.2,11.4,3.7c0.6,0.2,1,0.9,0.8,1.6 c0,0.1,0,0.1-0.1,0.1C464.7,108.7,464.2,108.9,463.7,108.9z M382.2,108.5c-0.6,0-1.2-0.3-1.4-0.8c-0.2-0.6,0.1-1.4,0.7-1.6 c0.1,0,0.1,0,0.2-0.1c3.8-1.2,7.6-2.2,11.5-3.1c0.8-0.2,1.5,0.2,1.8,0.9c0.2,0.7-0.2,1.4-0.9,1.5c0,0-0.1,0-0.1,0 c-3.8,0.9-7.6,1.9-11.2,3.1C382.5,108.4,382.4,108.5,382.2,108.5L382.2,108.5z M440.8,103h-0.3c-3.9-0.5-7.8-0.9-11.7-1 c-0.7,0.1-1.4-0.4-1.4-1.1s0.4-1.4,1.1-1.4c0.1,0,0.3,0,0.4,0c4,0.1,8,0.5,12,1c0.7,0,1.3,0.7,1.2,1.4c0,0,0,0,0,0.1 C442.1,102.5,441.5,103,440.8,103z M405.2,103.2c-0.7,0.1-1.3-0.4-1.5-1c-0.1-0.7,0.4-1.4,1.1-1.5c0,0,0.1,0,0.1,0 c4-0.6,8-1,12-1.2c0.7-0.2,1.4,0.3,1.5,1c0.2,0.7-0.3,1.4-1,1.5c-0.1,0-0.2,0-0.3,0c-3.9,0.2-7.8,0.6-11.7,1.2L405.2,103.2z"></path> <path class="st5" d="M479.1,117.1c-0.3,0-0.7-0.1-1-0.3c-1.5-1-3.1-2-4.7-3c-0.6-0.3-0.8-1-0.5-1.6c0-0.1,0.1-0.1,0.1-0.2 c0.5-0.6,1.4-0.8,2.1-0.4c1.7,1,3.3,2,4.9,3.1c0.6,0.3,0.7,1,0.4,1.6c0,0.1-0.1,0.1-0.1,0.2C480,117,479.6,117.1,479.1,117.1z"></path> <path class="st6" d="M309.5,210.9c0,0-2.6,14.1,5.9,6.9c8.5-7.2,21.2-16.6,20.1-18.8C334.3,196.9,320.8,191.6,309.5,210.9z"></path> <path class="st7" d="M310.4,205.9c0,0,5.9,16.7,7.1,21.5c1.2,4.8-4,9.2-7.8,25.1c-3.7,15.9-7,24.8-10.6,27.4 c-3.6,2.6-8.5,6.6-4.4,12.2s12.5,14.5,15.7,18.8c3.2,4.2,4.9,2,4.9,2c-0.7-3.6-1.7-7.1-2.8-10.6c-1.4-3.6-4.2-8.7-2.9-12.8 c1.3-4,9.1-21.1,15.3-29.3c6.2-8.3,13.7-26.1,13.5-30.9c-0.2-4.8-1.3-24.1-11.5-40.6C316.6,172.3,308.5,201.2,310.4,205.9z"></path> <path class="st8" d="M326.8,188.7c-10.2-16.4-18.3,12.5-16.4,17.2c0,0,5.9,16.7,7.1,21.5c1.2,4.8-4,9.2-7.8,25.1 c-0.8,3.5-1.6,6.7-2.4,9.6c0.3,0.2,0.6,0.5,0.9,0.8c2.6,3.8,5.7,7.3,8.5,11c2.4-4.8,5.1-9.4,8.2-13.8c6.2-8.3,13.7-26.1,13.5-30.9 C338.2,224.5,337.1,205.1,326.8,188.7z"></path> <path class="st9" d="M294,178.9c0,0,16.1,40.5,15.5,38.4c-0.3-0.9,6.5-11.4,16.1-13.1c7.3-1.3,6.9-4.3,8.7-2.8s-4.6-31.3-4.6-31.3 S306.8,166.5,294,178.9z"></path> <path class="st6" d="M294,178.9c0,0,16.1,40.5,15.5,38.4c-0.3-0.9,6.5-11.4,16.1-13.1c7.3-1.3,6.9-4.3,8.7-2.8s-4.6-31.3-4.6-31.3 S306.8,166.5,294,178.9z"></path> <path class="st8" d="M356.2,66.2c0,0-16.8-6.8-14.2-19.2c2.5-12.4-3-17.8,3.7-22.6s7.2-9.5,9.6-7.1c2.4,2.4,13.7-11.9,26.7-15.9 c18.2-5.6,6.8,5.5,5.4,8.1c-1.6,3,10,2,15.1,3.1c27.2,6.1,21.8,16.9,13.1,19.9s6.8,4.2,3.5,8.4s4.2,5.2,8.3,3.6 c4.2-1.6-4.4,16.8-25.3,18.7C381.2,65.2,358.4,71.5,356.2,66.2z"></path> <path class="st10" d="M340.9,80.8c4.7-2.2,8.1-6.4,9.3-11.4c2.1-8.5-5.6-17.7-3.9-22.8s8.1-9.8,8.1-4.1c0.1,5.7,1.4,12.1,4.4,7.9 s-2.6-15.2,3.2-18.8c5.8-3.6,8.3,4.6,13.2,5.3s7.3-1,6.4-4.7c-0.9-3.7,2.8-1,8.5,2.1s11,8.3,11.7,4.9s5.2-1.8,6.1,2.8 s-3.5,21.9-3.9,28.2s-0.5,19.3-16.2,20.2c-15.8,0.9-15.1-0.8-18,2.4c-1.2,1.3-0.8,22.9-22.2,13.8C338.7,102.7,336,89.3,340.9,80.8z "></path> <path class="st8" d="M273.4,40.2l-10.3-15c0,0-2.2,4.8,4.2,12.3s7,8.9,7,8.9L273.4,40.2z"></path> <path class="st8" d="M275,43.2l-13.5-13.3c-0.1,3.2,1.2,6.3,3.5,8.6c3.8,3.4,9.6,11,9.6,11L275,43.2z"></path> <path class="st10" d="M388.1,99.4c0,0,22.9-3,28.2-2.2c4.7,0.7,10.3,15.5,18.4,19.7c0,0,2.5-0.9,6.2-2.4c2.3-1.1,4.7-2.1,7.1-3 c3.7-0.8,0,1.3-1.2,1.7c-0.9,0.4,6.2-1.6,6.7-1.3c1.6,0.7-2.2,2.3-2.6,2.8c-0.9,1.1,6.2-2.5,6.2-2.5c0.6,2.6-3.5,4.2-11.8,7.8 c-5.6,2.4-11.1,6-8,6.6c3.1,0.6,5.3,2.1,5.4,3s-4.9,0.6-8.2-0.4c-3.9-1-7.4-3.1-10.3-5.9c-3.7-3.6-8.1-7.1-10.2-7.8 c-2.1-0.7-29.8,5.4-29.8,5.4L388.1,99.4z"></path> <path class="st0" d="M330.2,58.2c0,0-33.2,25.7-20.6,26C322.3,84.5,332.2,69.1,330.2,58.2z"></path> <path class="st10" d="M329.3,64.4l-13.5-22.5c0,0-1.2-9.8-14-4.8c-8.3,3.2-16.7,5.9-25.2,8.2c0,0-0.5,10.4,6.3,9.6 c6.9-0.8,19-0.9,21.5-2.3c2.5-1.4,9.3,32.5,9.3,32.5S330.3,79.9,329.3,64.4z"></path> <path class="st7" d="M310.7,99.4c0,0,1.4-14.5-3-15.6c-2.2-0.5,8.8,1.1,14.8-9.1c5.9-10.3,7.8-16.5,7.8-16.5l12.5,18.5 C342.7,76.7,338.6,96.9,310.7,99.4z"></path> <path class="st7" d="M371.4,95c0,0,17.6,5.2,18.5,3.1c1.3-2.9-2.7,19.9,0.2,27.1l-24.1,4L371.4,95z"></path> <path class="st5" d="M369.5,93.6c-2.3,4.1-18.8,9-18.3,7.4c1-3-9-17.5-6.8-22.1c0.4-0.9-1.6-2.3-1.6-2.3 c-1.6,1.9-4.7,13.4-31.7,21.5l0,0c-7.5,7.1-15.4,13.8-22.2,21.6c-5.1,6.1-9.5,12.8-13,20c4.9-2.1,12.1-2.1,22.2,0 c14.1,2.9,14.8,27.2,22.7,32.3c7.9,5.1,12.3,5.1,13.8-2.3c1.5-7.3,3.9-14.2,15.3-21.7c11.4-7.5,20-21.7,20-21.7l3.1-30.9 C373,95.6,370,92.8,369.5,93.6z"></path> <path class="st10" d="M280.8,45.4c0,0-8.4-14.9-10.2-21.2c-1.8-6.3-0.3,7.1-0.3,8.3c0,1.2,3.4,11.4,2.5,14.8 c-0.9,3.4-4.4,5.3-7.6,5.6c-3.2,0.3-5.7,4.3,1,4.1c6.7-0.3,6.6-2,9.1-1.5s7.6,0.1,8.5-2.8C284.6,49.7,280.8,45.4,280.8,45.4z"></path> <path class="st7" d="M375.8,63.6c0,0,19.2,6.3,22.9,11.9s-13.4,9.7-16.9,5.6C378.3,77,375,72,375.8,63.6z"></path> <path class="st6" d="M322.3,132.7c0,0,9.2-6.1,8.8-1c-0.4,5.6,2.4,21.2,2.3,26c0,4.8,0.3,14.1-5.9,13.1 C321.4,169.8,322.3,132.7,322.3,132.7z"></path> <path class="st7" d="M364.2,137.9c1-8.2-3.6-10.5-11-11.6c-7.4-1-42.4,10.2-42.4,10.2c-8.5,1.6-24.6,35.1-4.6,33 c12.2-1.4,23.7-6.2,33.2-14c-4.5,4.6-10.6,30.6-12.6,35.9s-5.3,15.4-4,17.3c1.7,2.6,4.4,1.7,7.4-1c3.7-1.6,9.1-4,12.1-5.5 c9.3-4.8,10.1-4.5,12-8.5c1.7-3.5,2.5-5.8-2.7-4.2c-5.5,1.8-10.1,4.8-8.6,0.4C350.9,174.3,363.5,144.5,364.2,137.9z"></path> <path class="st11" d="M351.5,189.5c-5.1,1.6-9.3,4.3-8.8,1.3c-5.1,1.6-11.4,2.3-16.4,3.1c-0.2,0-0.3,0-0.5,0 c-1.9,5.5-4.2,13-3.1,14.7c1.7,2.6,4.4,1.7,7.4-1c3.7-1.6,9.1-4,12.1-5.5c9.3-4.8,10.1-4.5,12-8.5 C355.9,190.1,356.8,187.8,351.5,189.5z"></path> <path class="st10" d="M353.2,126.3c-7.4-1-42.4,10.2-42.4,10.2c-8.5,1.6-24.6,35.1-4.6,33c12.2-1.4,23.7-6.2,33.2-14 c-2.4,2.4-5.1,10.6-7.5,18.6c3.6-2,7.4-3.5,11.4-4.4c3.1-0.9,6.3-1.1,9.4-0.7c5.8-13.3,11.1-26.9,11.6-31.1 C365.2,129.7,360.7,127.3,353.2,126.3z"></path> <path class="st11" d="M329.4,129.5c0,0-12,11.7,1.5,40.6c0,0-2.5,1.5-16.5,6c-14.1,4.5-24.1,8.2-32.6,1.7 c-8.5-6.5-12.4-23.1-8.8-36.1c1.8-6.6,18.9-5.1,18.9-5.1l12-1.6C303.9,135,325.3,130.8,329.4,129.5z"></path> <path class="st11" d="M309.3,293.1c-3.4-4.4-6.8-8.8-9.9-13.4l-0.3,0.2c-3.6,2.6-8.5,6.6-4.4,12.2s12.5,14.5,15.7,18.8 c3.2,4.2,4.9,2,4.9,2c-0.7-3.6-1.7-7.1-2.8-10.6C311.4,299.7,309.7,296.3,309.3,293.1z"></path> <polygon class="st7" points="348.9,104 352.4,98.4 346,74.6 336.4,79.4 341.7,95.4 348.8,97.4 "></polygon> <polygon class="st7" points="348.9,104 351.2,102.5 355.3,99.9 357.4,99 371.4,92.3 371.8,98.7 362.5,104.6 359.8,100.4 "></polygon> </g> </svg> 