<?xml version="1.0" encoding="UTF-8"?> <!-- Generator: Adobe Illustrator 24.2.0, SVG Export Plug-In . SVG Version: 6.00 Build 0) --> <svg xmlns="http://www.w3.org/2000/svg" xmlns:xlink="http://www.w3.org/1999/xlink" version="1.1" id="Layer_2_1_" x="0px" y="0px" viewBox="0 0 570 500" style="enable-background:new 0 0 570 500;" xml:space="preserve"> <style type="text/css"> .st0{fill:#D6E9BD;} .st1{fill:#FFFFFF;} .st2{fill:#015245;} .st3{fill:#F58457;} .st4{fill:#D5634B;} .st5{fill:#5FAD6E;} .st6{fill:#F58257;} .st7{fill:#4F5E67;} .st8{fill:#1766B0;} .st9{fill:#1D76BB;} .st10{fill:#95CA59;} .st11{fill:#1B81C4;} .st12{fill:none;stroke:#F58457;stroke-width:3.9129;stroke-miterlimit:10;} .st13{fill:#F58457;stroke:#D6E9BD;stroke-width:1.1212;stroke-miterlimit:10;} .st14{fill:none;stroke:#087262;stroke-width:3.3635;stroke-miterlimit:10;} .st15{fill:#087262;} .st16{fill:none;stroke:#FFFFFF;stroke-width:3.9129;} </style> <g> <path class="st0" d="M459.85,385.98c-101.21,43.27-230.57,99.3-342.58,64C29.75,422.36-4.94,316.99,0.56,233.64 c5.16-77.29,53-136.49,107.25-166.61c56.47-30.17,106.73-33.79,151.25-21.68c45.15,12.03,84.55,39.86,134.21,71.12 c48.5,32.05,97.66,52.9,132.68,73.77c34.64,21.69,55.14,43.43,37.73,95.8C546.06,338.99,506.2,366.17,459.85,385.98z"></path> <path class="st1" d="M440.37,226.37H247.53c0-0.18,0-0.35,0-0.53c-0.04-21.36,17.24-38.72,38.6-38.76 c3.6-0.01,7.18,0.49,10.64,1.47c4.31-31.12,33.04-52.85,64.16-48.54c28.12,3.9,49.07,27.93,49.08,56.32c0,0.12,0,0.25,0,0.38 C425.7,198.53,438.18,210.73,440.37,226.37z"></path> <path class="st2" d="M312.64,255.01c-80.38-2.55-42.21-40.66-97.96-67.81c-21.65-10.56-38.56,10.65-46.88,19.06l-8.48,3.6 c-8.77,8.97-4.13,23.74,4.76,32.51l13.71,13.45c15.86,12.65,8.18,33.98,18.4,44.06c11.46,11.27,29.96,11.03,41.62-0.37 c0.35,0.37,0.67,0.76,1.05,1.12c11.59,11.41,66.45,19.38,79.39,8.97C342.93,289.81,326.72,255.44,312.64,255.01z"></path> <path class="st3" d="M204.29,344.77c0,0-0.61,5.02-24.98,2.7c-24.37-2.32-59.57-11.74-59.57-11.74l56.72,0.09 C176.46,335.82,198.13,336.88,204.29,344.77z"></path> <path class="st3" d="M138.73,339.35c-11.6-0.75-16.97,4.75-21.69,6.27c-3.24,1.1-6.42,2.41-9.5,3.91c2.89-4.79,6.73-4.7,8.66-6.18 s1.45-0.72-2.67-1.29c-2.34-0.34-6.73,3.55-9.87,5.66c-1.27,0.98-2.76,1.62-4.34,1.87c2.2-2.61,4.66-5,7.33-7.13 c3.77-2.9,7.88-5.34,12.23-7.27c2.53-0.81,10.33-0.58,15.81,0.52C140.9,336.95,147.11,339.91,138.73,339.35z"></path> <path class="st4" d="M119.51,335.48c0,0-9.06,1.68-10.68,2.76c-1.12,0.74-6,5.24-6,5.24c1.95-0.2,3.81-0.9,5.42-2.02 C110.26,339.79,119.51,335.48,119.51,335.48z"></path> <path class="st5" d="M194.24,333.5c0,0,22.42,2.79,20.05,16.04c-1.35,7.52-6.63,9.84-13.4,8.88c-12.57-1.79-26.76-4.48-26.76-4.48 l-5.12-21.12L194.24,333.5z"></path> <path class="st5" d="M194.84,342.96l10.21-73.4c0,0,0.92-15.75,6.55-14.92c8.12,1.12,20.65,25.04,20.95,29.96 c0.57,10.09-13.97,61.78-15.84,72.08c-1.29,7.09-7.57-1.47-14.78-2.78C188.49,351.46,194.84,342.96,194.84,342.96z"></path> <polygon class="st6" points="498.41,251 520.27,212.7 545.83,214.33 558.49,218.06 530.18,222.26 512.13,258.01 "></polygon> <path class="st7" d="M523.64,206.64l3.36,1.12l1.55,4.31l20.65,0.87l16.3,4.48c-0.23,0.65-0.67,1.21-1.24,1.59 c-3.08,1.31-16.01,0.96-16.01,0.96s1.66-3.46,0.27-4.33c-1.39-0.86-17.37-1.29-21.22-1.12c-6.65,0.37-10.17,1.73-9.82,0.87 C517.97,214.21,523.64,206.64,523.64,206.64z"></path> <path class="st8" d="M458.02,364.01H436c-25.47-1.87-81.59-5.45-88.57-8.04c-18.77-7.02,43.98-16.09,42.09-32.66l60,6.81 l53.28-94.18l17.94,8.97l-53.91,114.25C466.83,359.15,464.94,362.33,458.02,364.01z"></path> <path class="st6" d="M163.67,236.01c-1.69-3.08-2.88-6.4-3.55-9.84c1.12,0.3,1.74,1.12,2.69,1.95c0.95,0.83,1.68,1.35,2.56,1.98 c11.93,8.54,25.98,9.98,33.71,4.05c4.44,3.97,9.39,7.34,14.72,10.01c5.35,2.74,14.35,2.24,14.35,2.24 c8.36,5.95,13.29,29.86-5.82,39.24c-11.45,5.61-13.45-7.85-12.09-17.18c0.57-3.78,1.3-8.14-0.2-11.81 c-0.28-0.79-0.8-1.48-1.48-1.96c-5.03-3.36-6.79-0.07-9.51,3.45c-6.61,8.61-21.04-0.4-25.47-6.86 C170.33,246.5,166.47,241.38,163.67,236.01z"></path> <polygon class="st6" points="450.38,230.77 451.12,200.19 457.31,192.81 473.82,183.13 486.16,185.26 464.59,201.58 463.23,233.66 "></polygon> <path class="st7" d="M452.03,193.5l5.61-4.04l1.73,1.35l15.32-9.87c0,0,13.97-3.77,16.72-0.59c0.86,1.01-1.38,2.74-4.48,5.07 c-1.25,0.97-2.58,1.84-3.97,2.59c0,0-0.65-2.39-6.2-3.26c-1.76-0.28-12.68,7.06-16.45,8.97c-6.73,3.43-9.4,8.2-9.74,7.76 C449.61,200.3,452.03,193.5,452.03,193.5z"></path> <path class="st9" d="M458.48,364.01H285.44c-2.24-4-2.96-9.38,2.58-15.16c25.79-26.83,37.6-36.55,58.07-43.66 c17.52-6.1,94.77,18.59,94.77,18.59l8.03-104.63l16.3-0.38c0,0,12.5,110.83,3.73,133.04C465.77,359.65,461.73,362.81,458.48,364.01 z"></path> <path class="st10" d="M268.4,364.01c-13.45-5.61-22.26-11.74-23.68-13.87c-9.86-14.79-45.62-71.15-39.42-89.69 c0,0,18.59-23.25,34.09-9.29c15.51,13.96,69.67,57.37,86.07,62.42l3.11,50.45L268.4,364.01z"></path> <path class="st5" d="M265.26,364.01c-11.87-5.61-19.06-11.74-20.53-13.87c-9.65-14.5-18.5-29.51-26.5-44.98 c-9.04-17.78,7.85-20.79,18.84-2.67c8.73,14.35,17.75,27.15,22.11,33.13c2.24,3.08,17.74,19.98,40.03,28.35L265.26,364.01z"></path> <path class="st6" d="M229.19,364.01h-21.3c-21.4-2.16-21.1-0.72-74.24-14.44l70.84,1.12c0,0,19.59,0.06,27.32,9.17 C231.81,359.88,234.36,362.61,229.19,364.01z"></path> <path class="st6" d="M157.4,354.02c-14.58-1.07-21.18,5.1-27.06,6.73c-4.03,1.19-7.98,2.62-11.84,4.28c3.6-5.4,8.3-5.22,10.79-6.88 c2.49-1.66,1.78-0.78-3.36-1.51c-2.93-0.41-8.4,3.92-12.33,6.26c-1.61,1.1-3.45,1.81-5.38,2.06c2.76-2.96,5.81-5.63,9.12-7.97 c4.75-3.26,9.86-5.96,15.24-8.03c3.17-0.9,12.89-0.47,19.74,0.86C160.07,351.32,167.85,354.79,157.4,354.02z"></path> <path class="st4" d="M133.32,349.25c0,0-11.21,1.76-13.31,2.95c-1.42,0.83-7.46,5.84-7.46,5.84s4.2-0.33,6.73-2.24 C121.8,353.88,133.32,349.25,133.32,349.25z"></path> <path class="st10" d="M189.33,364.01l-4.42-16.35l31.01,0.1l-10.09-82.97c0,0,6.49-8.18,12.2-5.34 c6.09,3.05,18.27,11.42,18.27,11.42s10.19,28.81,12.96,54.08c2.48,22.77,2.96,33.43,0.41,39.02L189.33,364.01z"></path> <path class="st11" d="M164.05,363.35c0.02-0.03,0.04-0.07,0.06-0.1l-0.06-3.21H31.36v3.21c0,0,0,0.07,0,0.1l0.34,0.59 c1.7,2.77,4.76,3.29,8.26,3.29h115.48c3.51,0,6.56-0.52,8.27-3.29L164.05,363.35z"></path> <path class="st11" d="M132.07,363.89c-0.01,0.03-0.01,0.06,0,0.09l0.33,0.48c0.51,0.69,1.18,1.25,1.94,1.64h20.18 c3.36,0,6.32-0.41,7.97-2.66l0.31-0.48v-0.08v-1.58h-30.73V363.89z"></path> <rect x="47.85" y="360.78" class="st11" width="66.31" height="2.26"></rect> <path class="st11" d="M131.33,359.92l-17.2-65.21c-0.52-1.76-2.1-3.01-3.94-3.11H17.14c-1.27-0.04-2.34,0.96-2.38,2.23 c-0.01,0.3,0.04,0.59,0.14,0.87l17.15,65.21H131.33z"></path> <path class="st11" d="M78.7,325.76c0.87,3.36-1.12,6.03-4.48,6.03c-3.57-0.19-6.62-2.61-7.62-6.03c-0.87-3.36,1.12-6.03,4.48-6.03 C74.63,319.93,77.69,322.34,78.7,325.76z"></path> <path class="st1" d="M187.65,248.92c0,0,0-0.06,0-0.08c-1.99,1.67-4.19,3.07-6.56,4.15c0,0.43,0.25,0.36,0.56,0.61 c0.98,0.83,2.1,1.48,3.3,1.94c1.54,0.59,5.91,2.66,6.73,0.29C192.38,253.86,188.29,250.46,187.65,248.92z"></path> <line class="st12" x1="44.98" y1="185.85" x2="17.66" y2="185.85"></line> <line class="st12" x1="44.98" y1="197.31" x2="22.4" y2="197.31"></line> <rect x="55.48" y="180.12" class="st13" width="22.92" height="22.92"></rect> <line class="st14" x1="44.98" y1="225.96" x2="17.66" y2="225.96"></line> <line class="st14" x1="44.98" y1="237.41" x2="22.4" y2="237.41"></line> <rect x="55.48" y="220.23" class="st15" width="22.92" height="22.92"></rect> <line class="st14" x1="44.98" y1="266.07" x2="17.66" y2="266.07"></line> <line class="st14" x1="44.98" y1="277.53" x2="22.4" y2="277.53"></line> <rect x="55.48" y="260.34" class="st15" width="22.92" height="22.92"></rect> <rect x="85.07" y="169.62" class="st3" width="38.2" height="38.2"></rect> <polyline class="st16" points="93.7,190.15 100.86,197.31 118.05,180.12 "></polyline> </g> </svg> 