<?xml version="1.0" encoding="utf-8"?>
<!-- Generator: Adobe Illustrator 25.0.0, SVG Export Plug-In . SVG Version: 6.00 Build 0)  -->
<svg version="1.1" id="Layer_1" xmlns="http://www.w3.org/2000/svg" xmlns:xlink="http://www.w3.org/1999/xlink" x="0px" y="0px"
	 viewBox="0 0 2560 729.7" style="enable-background:new 0 0 2560 729.7;" xml:space="preserve">
<style type="text/css">
	.st0{fill-rule:evenodd;clip-rule:evenodd;fill:url(#Fill-1_1_);}
	.st1{fill-rule:evenodd;clip-rule:evenodd;fill:#59B547;fill-opacity:0.14;}
</style>
<g id="Atom-_x2F_-Shape-_x2F_-3">
	
		<linearGradient id="Fill-1_1_" gradientUnits="userSpaceOnUse" x1="319.877" y1="1040.4908" x2="320.8629" y2="1040.5536" gradientTransform="matrix(2559.885 0 0 729.7458 -818843.1875 -758974.6875)">
		<stop  offset="0" style="stop-color:#015F4E"/>
		<stop  offset="0.5099" style="stop-color:#00925A"/>
		<stop  offset="1" style="stop-color:#59B547"/>
	</linearGradient>
	<path id="Fill-1" class="st0" d="M2056.3,587.2c-103.4-1.8-152.4-121.8-255.7-126c-51-2.1-101.8,16.2-152.5,10.4
		c-75.9-8.7-129.8-76.7-197.2-112.6c-85.1-45.4-180.5-50.3-272-19.8c-113.1,37.7-214,124-333.2,121c-44.8-1.1-88.7-15.2-133.5-15.4
		c-94.5-0.4-161.2,129.1-253.3,107.7c-94.5-22-156.1-61.1-238.7-50.8c-75.2,9.4-154.5-1.5-220-38.8V0h2559.9v725.5
		c-88.2,10-181.5,4.1-256.9-34.8C2204.4,639.9,2173.2,589.2,2056.3,587.2z"/>
	<path id="Fill-4" class="st1" d="M2320.4,651.3c-44.7-21.5-79.9-58-123.9-80.6c-49.9-25.6-108.9-24.8-161.7-9.2
		c-65.3,19.2-129.6-87.5-213.1-111.4c-65.6-18.7-139.7,46.5-177.3,45c-79.2-3-104-23.8-137.7-50.8c-53.5-42.8-86.9-75.2-188.9-100.3
		c-135.8-33.4-201.4,105-339.8,124.9c-132.2,19-259-75.4-392.2-65.6C480.1,411,391.3,482,292.8,520.9c-63.4,25-132.7,52.1-200.8,49
		c-26.9-1.2-59.9-11.9-92-29V1.6C54.2-8.8,107.7-11.6,136.9,1.3c90,39.7,214.6,180.3,284.5,173.4c111.7-11,190.3-114.2,293.5-158.2
		c29.5-12.6,62.5-20.3,93.8-13.4C853.3,12.8,886,49.2,920,79.7c139.2,125.2,361.6,148.9,528.4,154.8c0,0,133.7,12.5,306.4-109.6
		c170.5-120.6,189.5,170,366.5,70.4C2200,150.9,2212.9,48.4,2559.9,0v673.6c-27,0.7-54,0.6-80.7,1.8
		C2425.4,677.8,2369.7,675,2320.4,651.3z"/>
</g>
</svg>
