<?xml version="1.0" encoding="utf-8"?>
<!-- Generator: Adobe Illustrator 25.0.0, SVG Export Plug-In . SVG Version: 6.00 Build 0)  -->
<svg version="1.1" id="Layer_1" xmlns="http://www.w3.org/2000/svg" xmlns:xlink="http://www.w3.org/1999/xlink" x="0px" y="0px"
	 viewBox="0 0 2560 942" style="enable-background:new 0 0 2560 942;" xml:space="preserve">
<style type="text/css">
	.st0{fill-rule:evenodd;clip-rule:evenodd;fill:url(#Fill-3_1_);}
</style>
<g id="Atom-_x2F_-Shape-_x2F_-1">
	
		<linearGradient id="Fill-3_1_" gradientUnits="userSpaceOnUse" x1="320.8749" y1="1011.4954" x2="319.8749" y2="1011.3613" gradientTransform="matrix(2560 0 0 -937.2576 -818880 948438.9375)">
		<stop  offset="0" style="stop-color:#015F4E"/>
		<stop  offset="0.5099" style="stop-color:#00925A"/>
		<stop  offset="1" style="stop-color:#59B547"/>
	</linearGradient>
	<path id="Fill-3" class="st0" d="M2152.7,37.9C2003-32.9,1775.2,1,1666,146.8c-78.9,92.1-152.4,262.9-249.2,335.9
		c-179,134.9-427.9,28.2-630.9-23c-62.3-15.7-126.2-29.4-190.8-28.1c-14.5,0.3-28.8,1.5-42.9,3.5c-82.6,8.9-163.1,37.1-233.2,81.7
		c-63.3,40.3-118.7,94.1-188.2,122.4C89.1,656.2,44.9,663,0,662.9v149.6c55-3.2,111.1,2.5,165,14c102.8,21.9,148.8,51.8,246.7,90.2
		c12.9,5.1,61.4,20,99.6,21.4c41.8,3.8,84.9-0.2,125.4-10c97.6-23.7,185.4-76,277.1-117c91.7-41,194.3-71.5,291.9-47.9
		c48,11.6,92.6,35.7,141.4,43.1c72.6,11,145.6-16.4,209.9-51.7c64.3-35.4,124.2-79.4,192.5-106.4c63.4-25.1,134.3-14.3,204.2,15.7
		c67.3,31.6,128.6,65.6,174.9,73.8c77,13.6,158.2,10.9,230.7-18.2c75.9-30.4,137.1-86.9,200.8-139.1V209.6
		c-56.8,9.7-116,4.7-169.6-16.7C2300,156.8,2241.9,76.8,2152.7,37.9z"/>
</g>
</svg>
