<?xml version="1.0" encoding="UTF-8"?> <!-- Generator: Adobe Illustrator 24.2.0, SVG Export Plug-In . SVG Version: 6.00 Build 0) --> <svg xmlns="http://www.w3.org/2000/svg" xmlns:xlink="http://www.w3.org/1999/xlink" version="1.1" id="Layer_1" x="0px" y="0px" viewBox="0 0 320 180" style="enable-background:new 0 0 320 180;" xml:space="preserve"> <style type="text/css"> .st0{fill:#FFFFFF;} .st1{fill:#D6E9BD;} .st2{clip-path:url(#SVGID_2_);} .st3{fill:#0E6495;} .st4{fill:#0A5271;} .st5{fill:#BDD1E3;} .st6{fill:#DBE3E8;} .st7{fill:#5EAD6E;} .st8{fill:#95CA59;} .st9{fill:#1587B7;} .st10{fill:#D9E8ED;} .st11{fill:#2EABD0;} .st12{fill:#1A82C5;} .st13{fill:#D6644A;} .st14{fill:#4F5C66;} .st15{fill:#F58457;} .st16{fill:#5A969C;} .st17{fill:#5A969B;} .st18{fill:#015245;} </style> <rect x="0.2" class="st0" width="319.8" height="180"></rect> <g id="Layer_1_3_"> <path class="st1" d="M239.2,73.6c-13.8-7-33.6-8.1-53.8-31.2c-37.8-43.4-92-57-120.5,1.7s-16.3,112,40.7,124.1 c41.9,9,59.9-13.6,83.4-2c43.7,21.4,76.1,2,80.3-33.5C273.3,97.3,257.7,82.9,239.2,73.6z"></path> <path class="st1" d="M239.4,73.5c-13.8-7-33.6-8.1-53.8-31.2C147.9-1,93.6-14.7,65,44s-16.3,112,40.7,124.1 c41.9,9,59.9-13.5,83.4-2c43.7,21.4,76.1,2,80.3-33.5C273.4,97.2,257.7,82.8,239.4,73.5z"></path> <g> <g> <defs> <path id="SVGID_1_" d="M239.4,73.5c-13.8-7-33.6-8.1-53.8-31.2C147.9-1,93.6-14.7,65,44s-16.3,112,40.7,124.1 c41.9,9,59.9-13.5,83.4-2c43.7,21.4,76.1,2,80.3-33.5C273.4,97.2,257.7,82.8,239.4,73.5z"></path> </defs> <clipPath id="SVGID_2_"> <use xlink:href="#SVGID_1_" style="overflow:visible;"></use> </clipPath> <g class="st2"> <path class="st3" d="M167.5,225.8h-3.2c-1.1-0.1-2-1-1.9-2.1V186c-0.1-1.1,0.8-2.1,1.9-2.1h3.2v-4.3H-76.8 c-3.2,0-5.7,2.9-5.7,6.4v37.7c0,3.5,2.6,6.4,5.7,6.4h244.3V225.8z"></path> <path class="st4" d="M167.5,225.8h-3.2c-1.1-0.1-2-1-1.9-2.1V186c-0.1-1.1,0.8-2.1,1.9-2.1h3.2v-4.3H20.9v50.6h146.6V225.8z"></path> <path class="st0" d="M162.4,223.7V186c-0.1-1.1,0.8-2.1,1.9-2.1H-76.8c-1.1,0.1-2,1-1.9,2.1v37.7c-0.1,1.1,0.8,2.1,1.9,2.1 h241.1C163.2,225.7,162.3,224.8,162.4,223.7"></path> <path class="st5" d="M162.4,223.7V186c-0.1-1.1,0.8-2.1,1.9-2.1H17.1c-1.1,0.1-2,1-1.9,2.1v37.7c-0.1,1.1,0.8,2.1,1.9,2.1h147.2 C163.2,225.7,162.3,224.8,162.4,223.7"></path> <path class="st6" d="M136.2,97c-2.3,13.3-2.1,26.8,0.4,40.1H-20.5V97H136.2z"></path> <path class="st5" d="M136.2,97c-0.2,1.4-0.4,2.8-0.6,4.2H-6.2V97H136.2z"></path> <path class="st7" d="M-26.8,90.7h164.7c1,0,1.8,0.8,1.8,1.8V97H64v40.1h75.7v4.5c0,1-0.8,1.8-1.8,1.8H-26.8 c-1,0-1.8-0.8-1.8-1.8v-49C-28.6,91.5-27.8,90.7-26.8,90.7"></path> <path class="st1" d="M-67.5,90.7H59.8c-1,0-1.8,0.8-1.8,1.8v49c0,1,0.8,1.8,1.8,1.8H-67.5c-1,0-1.8-0.8-1.8-1.8v-49 C-69.3,91.5-68.5,90.7-67.5,90.7"></path> <path class="st8" d="M-67.5,90.7H59.8c-1,0-1.8,0.8-1.8,1.8v6H-69.3v-6C-69.3,91.5-68.5,90.7-67.5,90.7"></path> <path class="st3" d="M-51.1,175.4h3.1c1.1-0.1,1.9-1,1.9-2.2v-23.3c0.1-1.1-0.8-2.1-1.9-2.2h-3.1v-4.4h197.8 c3.1,0,5.6,2.9,5.6,6.6v23.3c0,3.6-2.5,6.6-5.6,6.6H-51.1V175.4z"></path> <path class="st9" d="M-51.1,175.4h3.1c1.1-0.1,1.9-1,1.9-2.2v-23.3c0.1-1.1-0.8-2.1-1.9-2.2h-3.1v-4.4H51.5v36.4H-51.1V175.4z"></path> <path class="st6" d="M-46.1,173.2v-23.3c0.1-1.1-0.8-2.1-1.9-2.2h194.7c1.1,0.1,1.9,1.1,1.9,2.2v23.3c0.1,1.1-0.7,2.1-1.9,2.2 H-48C-46.9,175.3-46,174.3-46.1,173.2"></path> <path class="st10" d="M-46.1,173.2v-23.3c0.1-1.1-0.8-2.1-1.9-2.2H55.2c1.1,0.1,1.9,1.1,1.9,2.2v23.3c0.1,1.1-0.7,2.1-1.9,2.2 H-48C-46.9,175.3-46,174.3-46.1,173.2"></path> <path class="st0" d="M284.3,157.3c-0.9,5.5-1.5-7-1.5-1c0,6.5,0.6,13,1.8,19.4h-144v-18.4H284.3z"></path> <path class="st3" d="M284.3,157.3c-0.2,1.3-0.4,2.6-0.6,3.8H153.8v-3.8H284.3z"></path> <path class="st11" d="M134.9,151.5h151c0.9,0,1.6,0.7,1.6,1.6l0,0v4.1h-69.4v18.4h69.4v4.1c0,0.9-0.7,1.6-1.6,1.6h-151 c-0.9,0-1.6-0.7-1.6-1.6l0,0v-26.6C133.2,152.3,134,151.6,134.9,151.5C134.9,151.6,134.9,151.6,134.9,151.5"></path> <path class="st12" d="M97.8,151h116.7c-0.9,0-1.6,0.7-1.6,1.6v26.7c0,0.9,0.7,1.6,1.6,1.6H97.8c-0.9,0-1.6-0.7-1.6-1.6v-26.7 C96.1,151.7,96.9,151,97.8,151"></path> <path class="st11" d="M97.6,151.5h116.7c-0.9,0-1.6,0.7-1.6,1.6v5.5H95.9v-5.5C95.9,152.3,96.7,151.6,97.6,151.5 C97.6,151.6,97.6,151.6,97.6,151.5"></path> <path class="st3" d="M270.8,210.8H268c-1-0.1-1.8-1-1.7-2l0,0v-21.4c-0.1-1,0.7-1.9,1.7-2h2.9v-4H89.5c-2.8,0-5.1,2.7-5.1,6 v21.4c0,3.3,2.3,6,5.1,6h181.3V210.8z"></path> <path class="st9" d="M270.8,210.8H268c-1-0.1-1.8-1-1.7-2l0,0v-21.4c-0.1-1,0.7-1.9,1.7-2h2.9v-4h-94.2v33.4h94.1V210.8z"></path> <path class="st3" d="M125.2,23.1c-16.1-0.5-14.8,7.3-15.5,17.5s4,31.1,14,35.9s14.1,17.4,17.7,8.9c4.1-9.9,9.3-3.6,14.1-8.4 c8.5-8.3,5.9-19.3-3.5-26.1c-9.4-6.8-9.2-9.1-10.3-15.9S130.3,23.3,125.2,23.1"></path> <path class="st13" d="M126.2,63.9c3.3-0.5,20.9,15.1,25.5,19.3c4.6,4.2,9.3,10.1,4.5,10.1c-4.9,0-10-4.1-13.8-7 c-3.9-2.8-9.1-6.9-12-8.7C127.5,75.8,122.9,64.3,126.2,63.9"></path> <path class="st13" d="M150.8,97.2c0,0,2.1-12.7,9.1-22.1s9.7-16.2,9.7-16.2l3.8,0.6c0,0-10.6,25.1-12.9,29.2 C156.4,96.1,157.9,92.3,150.8,97.2"></path> <path class="st13" d="M170,59.2l1.4,1.4c3.3,0.1,6.6-0.2,9.8-0.9c5.9-1.3,5.6-2.7,7.1-3.9c1.4-1.2,3.6-2.8,1.5-2.2 c-2.1,0.5-4.9,3-6,3.3c-1.1,0.3-2.8,0-4.4,0c-1.6,0-2.8,0.1-1.3-0.6c0.9-0.4,1.7-0.9,2.4-1.5c0.4-0.4,1.1-1,0.8-1.6 c-0.4-0.6-1.3,0.4-1.8,0.6c-0.5,0.3-3.5,0.6-4.1,0.8c-0.6,0.2-2.5,1.7-3.7,2.6c-0.7,0.5-1.4,1.1-2,1.8L170,59.2"></path> <path class="st7" d="M187,128.3c0,0,39,15.9,42.9,20.5s9.2,45,11.9,54.7c0.6,2-5-0.4-7.6-1.9c-2.6-1.5-17.5-29.9-19.5-35.4 c-2.1-6.1-0.4-5.1-2.1-5.8c-3.5-1.5-38.2-10.1-43.1-13.5c-5-3.3-19.3-15.1-17.8-19C153.2,124,187,128.3,187,128.3"></path> <path class="st14" d="M124.4,96.8c0,0,6.3,6.4,8.2,12.6c1.9,6.2-2.6,22.6,8.4,34.6c5.6,6.1,38.2,2.9,38.2,2.9 c-26.5-42.7-28-49.6-26.5-54.6c1.5-5,0.1-7.4-5-11.2c-5.1-3.9-8.8-7.3-9.9-11.8C136.7,64.7,96.5,56.6,124.4,96.8"></path> <path class="st15" d="M113.5,68c0,0,2.1-1.6,2.4-8.5c0.4-6.9,0.5-10.5-0.9-12.9c-1.4-2.4,13.3-3,13.6,2.1s1.2,5.8-0.3,11.1 c-1.5,5.3,3.8,6.8,4.9,7.2C135.6,67.8,142.2,75.6,113.5,68"></path> <path class="st15" d="M125.4,40.2c-2.6,0.6-5.3,0.6-7.8-0.2c0.1,0,1.4,5,1.7,5.5c0.7,1.6,1.5,3.1,2.6,4.5c1.5,2.2,3.5,4,5.8,5.4 c2.6,1.6,5.2,3.2,7.1,0.3c1.3-2,2.2-4.3,2.8-6.7c0.7-3.3-0.8-4.4-1.5-7.5c-0.2-1.5-0.1-3.1,0.3-4.6c0.4-1.5,0.2-3.1-0.5-4.5 C133.6,36.5,129.8,39.4,125.4,40.2"></path> <path class="st12" d="M129,24.5c-1.4-0.5-14.8-2.8-21.3,3.2s-8.2,14.9-5.1,23.2s8.4,14.8,1.4,19.2C81.4,84,93.3,89.7,97.4,94.4 c8,9.2,27.2,7.8,27.9,1.5c0.8-7.8-14.5-21.9-5.8-27c6.4-3.8,11.3-1.7,9.7-10.9s-13.7-16.4-8.2-18.2 C127.6,37.6,140.8,29.3,129,24.5"></path> <path class="st15" d="M119.4,71.4c4.7,0.9,19.2,26.9,23.4,34c4.2,7.1,7.8,16.2,1.3,13.9c-6.5-2.2-11.4-9.4-15.3-14.4 c-3.9-5-8.9-12.2-11.9-15.7C113.8,85.8,114.7,70.5,119.4,71.4"></path> <path class="st15" d="M196.2,183.7c0,0-10.3,14.5-11.2,17.3c-0.8,2.4-1.4,3.9-3.1,3.9c-1.5,0-3.3-3.7-2.8-5.4 c0.6-2,6.5-10.6,8.7-16.7c2.9-8,7.6,3.3,7.6,3.3L196.2,183.7z"></path> <path class="st8" d="M165.3,127.2c8.2,0.1,46.2-2.8,51.6,1.8c5.4,4.6-3.5,17.6-31.1,23.7c-27.7,6.1-33,4.4-41.8-4.4 C135.1,139.7,159.2,127.1,165.3,127.2"></path> <path class="st8" d="M205.1,139.7c0,0-14.7,12.1-15.8,25.6c-0.7,8.4-2.4,16.7-4.9,24.8l4.5,4.1c0,0,8.5-7,30.8-49.7 c3.6-6.9,1.2-15.7-4.2-14.5C210,131.1,205.2,139.7,205.1,139.7"></path> <path class="st15" d="M182.7,122.4c0,0,0.1-1,0.9-0.9c1.5,0.4,2.9,1,4.2,1.8c0.9,0.5,4.5,3.7,4.5,3.7c-1.2-0.1-2.3-0.5-3.2-1.3 C186.9,123.9,182.7,122.4,182.7,122.4"></path> <path class="st15" d="M183.3,122.7c1.8,0.3,3.3,1.7,4.6,3.9c1.3,2.2,2.8,2.2,2.8,2.2c-0.8-1.6-1.8-3.1-2.9-4.4 c-0.6-0.9-1.4-1.7-2.3-2.3C182.9,120.5,178.7,122.1,183.3,122.7"></path> <path class="st15" d="M145.9,119.8c8.7,0.6,22.7,0.9,22.7,0.9s19.3,2.7,1.1-4c-3.9-1.4-14.2-6.1-28.7-7.8 c-1.6-0.2-0.8,0.2-2.4,0.8C135.6,110.7,138.8,119.2,145.9,119.8"></path> <path class="st15" d="M185,123.8V123l-2.3-2.2c0,0-5.3-1.9-7.6-1.9c-2.3,0-10.3-3.2-11.4-3.3c-1.1-0.1-3.8,4.1-3.8,4.1 s8.9,1.2,12.4,2c3.5,0.8,8.1,3.6,9.4,3.9c2.3,0.6,3.5,1,3.5,1s0.1-1.3-3.4-2.4c-0.9-0.3-0.1-1.2-0.1-1.2L185,123.8z"></path> <path class="st15" d="M181.9,121.4c0,0,2.8,0.9,3.7,2c0.6,0.8,2.9,5,2.9,5c-1.1-0.5-2-1.3-2.6-2.3 C184.8,124.3,183.4,122.8,181.9,121.4"></path> <path class="st15" d="M181.7,122.9c0,0-0.6,0.6-0.5,0.9c-0.2-0.2-0.4-0.3-0.6-0.5c-0.4-0.3-3.2-1.9-3.2-1.9c1,0.3,2,0.6,3,0.9 c0.7,0.2,1.5,0.4,2.2,0.7c0.1,0.1,0.3,0.2,0.4,0.3L181.7,122.9z"></path> <path class="st15" d="M181.8,124.1c2.4,0.8,3.1,1.6,3.3,2.1c-0.6-0.2-1.5-0.5-2.8-0.8c-0.8-0.3-1.6-0.7-2.4-1.1 c-0.2-0.1,0.1-0.9-1.3-2.3c-0.3-0.3,1.9,0.4,3,1C181.4,123.3,181,123.9,181.8,124.1"></path> <path class="st16" d="M164.6,127.2L164.6,127.2V126h51.3v1.2l0,0l-0.1,0.2c-0.7,1.1-1.8,1.3-3.2,1.3H168c-1.4,0-2.5-0.2-3.2-1.3 L164.6,127.2z"></path> <path class="st16" d="M176.9,127.4L176.9,127.4l-0.1,0.2c-0.2,0.3-0.5,0.5-0.8,0.6h-7.8c-1.3,0-2.4-0.2-3.1-1L165,127l0,0v-0.6 h11.9V127.4z"></path> <rect x="183.8" y="126.2" class="st14" width="25.6" height="0.9"></rect> <path class="st16" d="M177.2,125.9l6.6-25.2c0.2-0.7,0.8-1.2,1.5-1.2h36c0.5,0,0.9,0.3,0.9,0.8c0,0.1,0,0.3-0.1,0.4l-6.6,25.2 C215.5,125.9,177.2,125.9,177.2,125.9z"></path> <path class="st8" d="M197.5,112.7c-0.3,0.9,0.1,1.9,1,2.2c0.2,0.1,0.5,0.1,0.7,0.1c1.4-0.1,2.6-1,3-2.3c0.3-0.9-0.1-1.9-1-2.2 c-0.2-0.1-0.5-0.1-0.7-0.1C199.1,110.4,197.9,111.4,197.5,112.7"></path> <path class="st15" d="M107.9,96.7c0,0-1.3,1.9,1.7,5.2c3.1,3.3,3.4,6.4,3.8,7.4c0.4,1.1-0.3,1.5-0.2,2c0.1,0.5,1.9,1.2,2.3,2.1 c0.4,0.9,3.4,5,3.6,2.3c0.2-2.2-0.6,0.1-2.1-5.2c-0.4-1.6-0.5-3.6-1-6.6s-2.5-10.3-4.1-10.1C110.5,94.1,108.1,96.4,107.9,96.7"></path> <path class="st15" d="M102.1,72.8c0.1,1.6,0.1,3.2-0.1,4.8c-0.3,1.7,0.5,3.4,0.5,4.6c-0.2,1.2-0.5,2.3-0.9,3.4 c0,0-2.8-6.1-2.9-7.6c0.1-1.9,0.4-3.9,1.1-5.7C100.2,71.7,102.1,72.8,102.1,72.8"></path> <path class="st14" d="M82.3,82.7c0,0-2.6,3.8-0.9,6.6c1.7,2.8,7.7,5,12.4,5.2c4.7,0.2,18.8-0.1,19-1.8 c0.5-3.2-13.3-13.1-21.5-12.6C83.1,80.6,82.3,82.8,82.3,82.7"></path> <path class="st8" d="M101.5,61.1c0,0,3.7,3.9,2.7,6.3c-0.7,2-1.1,4-1.3,6.1l-4.4-0.8C98.6,72.8,101.2,61.4,101.5,61.1"></path> <path class="st17" d="M98.8,59.6c0,0-4.9-1.1-9.7,6.1c-3.6,5.6-6.3,11.7-8,18.2c-0.5,2.6-2,3.5,2.4-0.4c4.4-3.9,10.6-2,13.6-1.6 c1.3,0.1,2.6,0.4,3.9,0.9c0,0-0.3-14.3,1.5-15.9C104.2,65.2,102,59.7,98.8,59.6"></path> <path class="st18" d="M106.1,38.6c0,0,2.6,0.5,5,4s4.5,1.5,4.7,4.9c0.2,3.3-2.1,10.3-7.5,11.3s-8.7-0.9-14.1,5.6 c-5.4,6.5-12.1,4-12.9,1.4c-1.4-4.4,4.8-4.4,4.3-6.2s1.5-9.1,2.6-12.1C89.3,44.5,96.9,31.7,106.1,38.6"></path> <path class="st15" d="M110.7,45.9c0,0,1.9,3.6,0.8,6c-1.1,2.3-2.6,5-2.8,5.7c-0.1,0.6,0,1.2,0.3,1.7l-1.2,0.9c0,0-2.3,2-4,2 c-1.8,0-6.4-2.4-7.5-3.6c-1.1-1.2-0.5-0.9-1.2-2.2c-0.7-1.3,0.5-5,1.5-4.4c1,0.6,1.3,1.4,2.2,1.9c0.9,0.5,2.9-2.6,2.9-2.6 s1.4,1.3,4.9-0.6C109.9,48.9,110.9,46.2,110.7,45.9"></path> <path class="st15" d="M102.8,62.5c0,0,4.7,3.7,5.1,3.8c2.7,0.9,5.4,1.9,8,3c3.9,1.7,1.5,2.4-0.6,2.4c-2.1,0-7.7-0.8-9.6-2.1 c-1.9-1.3-5.8-2.2-6.7-3.4S102.8,62.5,102.8,62.5"></path> <path class="st8" d="M104.2,63.2c0,0-3.4-5.1-6.2-3.8c-2.8,1.3-2.6,3-2.5,4.1c0.1,1.1,3.7,5.3,3.7,5.3S100.4,63.7,104.2,63.2"></path> <path class="st17" d="M100.5,90.8c0,0,3.7-0.1,5.4,1c1.7,1.1,2.2,4,1.2,4.9c-0.9,0.9,2.4,1.3,3.6,0.7c1.2-0.6,3-2.2,2.5-4.1 c-0.6-1.9-3.5-4.8-6.4-4.5C103.9,89.1,102.8,88.8,100.5,90.8"></path> <path class="st15" d="M106.1,90.5c0,0-2.3-1.6-7.5,1.5s-8.1,4.6-9.9,4.7c-1.7,0.1-0.7,2.5,0,2.7c1.7,0.5,3.3,1.3,4.8,2.2 c2.3,1.6,3.9,0.8,3.5,0.1c-0.5-1.1-1-2.1-2.3-2.6c-1.5-0.5,4.9-1.3,8.5-1.5C106.8,97.4,111.8,97.3,106.1,90.5"></path> <path class="st15" d="M117.8,69.8c0.6-0.5,1.3-1,2.1-1.3c0.7-0.2,1.5-0.3,2.2-0.3l1.6,0.4c-0.4,0.4-1,0.5-1.5,0.3 c-0.5,0-0.9,0-1.4,0.2l0.8,0.9c0.1,0.7-0.2,1.5-0.7,2c-0.3,0.2-0.6,0.3-0.9,0.2c0,0-0.9,0-0.5-0.3c0.4-0.3-0.8-0.3-0.8-0.3 c-0.9,0-1.7-0.1-2.5-0.4C115.3,71,117.2,70.1,117.8,69.8"></path> <path class="st0" d="M131.2,50.4h5C136.2,50.4,132.7,59.9,131.2,50.4"></path> </g> </g> </g> </g> </svg> 