<?xml version="1.0" encoding="UTF-8"?> <!-- Generator: Adobe Illustrator 24.2.0, SVG Export Plug-In . SVG Version: 6.00 Build 0) --> <svg xmlns="http://www.w3.org/2000/svg" xmlns:xlink="http://www.w3.org/1999/xlink" version="1.1" id="Layer_1" x="0px" y="0px" viewBox="0 0 270 270" style="enable-background:new 0 0 270 270;" xml:space="preserve"> <style type="text/css"> .st0{fill:#015245;} .st1{fill:#1766B0;} .st2{fill:#F58257;} .st3{fill:#B84096;} .st4{fill:#5FAD6E;} .st5{fill:#D5634B;} .st6{fill:#D6E9BD;} .st7{fill:#95CA59;} .st8{fill:#1B81C4;} .st9{fill:#087262;} .st10{fill:none;stroke:#5FAD6E;stroke-width:0.8268;stroke-miterlimit:10;} .st11{fill:none;stroke:#95CA59;stroke-width:0.8268;stroke-miterlimit:10;} .st12{fill:#FFFFFF;} .st13{fill:#DEF0EE;} .st14{fill:#CDDFEE;} .st15{fill:#D6E9BD;stroke:#95CA59;stroke-width:0.617;stroke-miterlimit:10;} .st16{fill:#F58457;} .st17{fill:#5A969C;} .st18{fill:#4C8186;} .st19{fill:#437479;} .st20{fill:#D6634A;} </style> <g> <path class="st0" d="M170.9,86.4c0,0,11.8-14.4,19.7-22.3s21-29.8,3-34.1s-9-10.1-19.2-12.6s-17.3,0.6-20.2,8s-11.1,19.3-17.3,17.7 c-6.2-1.6-37.3-7.3-32.7,21.9C108.8,94.2,163.1,122,170.9,86.4z"></path> <path class="st1" d="M176.1,70.3c0,0,4.6,0.9,6.4,18.3c1.9,17.5,3.8,38.1-0.2,39.1c-4,1-14.9-3.6-12.3-21.3S176.1,70.3,176.1,70.3z "></path> <path class="st2" d="M204.5,77.4c-0.4-1.9-0.9-3.8-1.7-5.6c-0.4,0.9-0.4,1.9-0.3,2.8c0.2,2.2,1,5.4,0.1,6.6 c-1.6,2.1-1.4,2.6-1.5,1.2s1-3.5-0.7-6.1c-0.1,2-0.4,4.1-0.8,6c-0.6,2.5,0.4,6-2,10.9c-5.5,6.1-13.5,15-18.4,22.6 c-5.4,8.1-7.2,10.6-4,11.4c6.5,1.5,11.2-5.2,13-8.4c3.3-6,11.3-24.5,11.3-24.5l0.1-0.1c2.3-2.7,4.9-6.9,5.2-8.5 C205,82.9,205,80.1,204.5,77.4z"></path> <path class="st2" d="M204.4,85.9c0,0,1.9-5.3,1.8-6.4c-0.1-0.8-1-4.4-1-4.4s-0.9,1.9-0.6,3.4S204.4,85.9,204.4,85.9z"></path> <path class="st3" d="M173.4,133.2c-3.6-7-16.8-5.2-26.2,0H173.4z"></path> <path class="st1" d="M140.7,133.2h34.4l-1.8-30.4c0,0,3.9-30.5,4.2-32c0.3-1.5-15.5-8.8-18.1-6c-4.7,5.1-15.9,0.8-15.9,0.8 S146.5,112.6,140.7,133.2z"></path> <path class="st1" d="M147.5,67.7c-4.6-3.6-7.4-3.9-11.3,5.4c-8.7,20.9-8.8,52.7-0.1,54.6c5.1,1.1,6.8-1.8,9.3-5 C148,119.7,151.4,70.8,147.5,67.7z"></path> <path class="st4" d="M193.3,105.9c-0.6,1.1-1.6,1.9-2.8,1.9h-16.7c-0.7,0.1-1.4-0.4-1.5-1.1c-0.1-0.2,0-0.6,0.1-0.7l10.8-26 c0.4-1,1.7-2.1,2.8-2.1h16.7c0.8,0,1.5,0.6,1.5,1.4c0,0.2-0.1,0.5-0.1,0.7L193.3,105.9z"></path> <path class="st2" d="M177.8,92.7c0,0-1.8,3.1-0.6,3.5s8.8-3.9,8.8-3.9l2.4-0.3l-5.9,4.7c1.9-1.4,3.9-2.7,6.1-3.8 c1.3-0.6,2.2-0.2,2.5-0.4c0.9-0.3-7.8,5.4-7.8,5.4l3.7-1.2c0,0,2-0.4,1,0.7c-0.6,0.6-1.4,0.7-2.5,2.3s-6.5,6.2-11.8,6.9 c-1.7,0.2-3.2,0.8-4.5,1.8l-25.4,16.5c0,0-11.7,2-10.4-4.5c1.4-6.5,23.6-13.5,31.7-16c5.2-1.7,5.7-3.1,6.8-4.3 C172.8,99,175,94.3,177.8,92.7z"></path> <path class="st2" d="M169.6,54.2l-7.6-8.3c-1.2,5.7-2,11.4-2.5,17.1c0,1.5-0.9,2.9-2.2,3.6l6,8c0.6,0.2,1.1,0.2,1.7,0.3 c0.4,0,0.9,0,1.5,0c0.2-0.2,0.6-0.5,0.7-0.7c0.1-0.2,0.3-0.3,0.4-0.5l0,0l0.1-0.2c0.4-0.6,0.9-1.3,1.2-2c0.1-0.2,0.2-0.4,0.3-0.6 c0.2-0.6,0.5-1.2,0.8-1.9C165.8,63.7,169.6,54.2,169.6,54.2z"></path> <path class="st5" d="M168.2,62.2c0-0.6,0.1-1,0.1-1.6c0.1-0.3,0.1-0.6,0.3-0.9c0.3-1.4,0.7-2.7,1.3-3.9l-9.1-8.3 c-1,4.3-1.9,8.6-2.5,13.1c0.1,0.2,0.1,0.4,0.1,0.6c0,0.1,0.1,0.1,0.1,0.2c0.1,0.4,0.2,0.9,0.4,1.3c0.6,1.5,1.4,2.4,2.7,4.1 c1.7,2,4.1,0.8,6.5-1.8C168.1,63.9,168.1,63.1,168.2,62.2z"></path> <path class="st2" d="M154.6,46c1.7-4.4,6.2-3.8,9.6-5.7c2.8-1.6,5.2-8.9,8.8-8.1c12,2.6,3.5,32.9-9.4,31.9 c-7.5-0.6-9.9-7.9-9.5-14.8C154.1,48.1,154.3,47,154.6,46z"></path> <path class="st6" d="M181.6,141.9h-63c0-0.1,0-0.1,0-0.2c0-7,5.6-12.6,12.6-12.6c1.2,0,2.3,0.2,3.5,0.5 c1.3-10.2,10.6-17.4,20.8-16.1c9.4,1.2,16.4,9.2,16.2,18.6v0.1C176.9,132.8,181,136.8,181.6,141.9z"></path> <path class="st5" d="M58.3,140.9c0-0.1,0-0.1-0.1-0.1v-0.1v-0.1l-0.1-0.1c-0.2-0.7-0.6-1.4-1-2H32.5c0,0-7.2,3.8-0.4,10.1 c5.6,5.1,11.7,1.5,14.8,0.1c2.4-1.1,8.8-5.3,11.5-7.2C58.4,141.3,58.4,141.1,58.3,140.9z"></path> <path class="st2" d="M58.5,141.5c-0.1-0.2-0.1-0.4-0.2-0.6c0-0.1,0-0.1-0.1-0.1v-0.1v-0.1l-0.1-0.1c-0.1-0.4-0.3-0.7-0.4-1 c-6.1,0.7-16.7,1.8-20.1,2.2c-3.3,0.4-6.3,1.9-7.2,3.9c0.4,0.9,0.6,2.3,1.7,3c5.9,4.1,10.9,2.5,14,1 C48.6,148.4,55.6,143.5,58.5,141.5L58.5,141.5z"></path> <path class="st7" d="M64.5,141.1c2.5,7.3,4.3,22.6,7.1,31.3h34.8l2.3-18.6c0,0,7.6-3.2,9.1-1.5c14.6,15.9,10.4-32.8-9.6-43.4 c-4.3-2.3-30.5-1.5-30.5-1.5s-17.3,3-38.3,32.1C38.7,140.4,61.6,132.7,64.5,141.1z"></path> <path class="st2" d="M79.3,127.3c2-0.9,4.1-1.7,6.3-2.5l-9.3-6.7l-6.5,0.2c0,0-2.5,1.7-4,2.8l4.6-0.9l-10.1,4.1 c0,0-3.9,1.8-2.9,2.1c1.2,0.4,9.1-2.2,9.1-2.2c2,0.6,4,1.3,5.9,2.2c2,0.9,4.8,1,6.8,1C79.2,127.3,79.3,127.3,79.3,127.3z"></path> <path class="st2" d="M116.4,137.7c-10.6-4.2-25.9-11-31-13c-1.4,0.4-5.6,0.7-6.9,1.2c2.4,3.6,18.3,19.3,30.3,22.8 c13.3,3.8,14.1,5.7,16,3C126.7,148.8,126.3,141.6,116.4,137.7z"></path> <path class="st8" d="M68.5,136.7c0.2,0.5,0.1,1.1-0.4,1.4c-0.2,0.1-0.4,0.1-0.6,0.1H27c-0.9-0.1-1.7-0.7-2.1-1.5l-10.3-28.1 c-0.3-0.9,0.1-1.3,1-1.3h40.5c0.9-0.1,1.7,0.5,2.1,1.3L68.5,136.7z"></path> <path class="st8" d="M83.3,141.2c-0.1,0.9-0.8,1.5-1.6,1.4H27.6c-0.8,0.1-1.5-0.6-1.6-1.4l0,0v-1.4c0-0.9,0.7-1.6,1.6-1.6h54.1 c0.9,0.1,1.6,0.7,1.6,1.6V141.2z"></path> <path class="st5" d="M54.2,144.7l8.5,1.8l11.2-4.3c-1.9-0.6-3.9-0.7-5.8-0.1c-3.5,0.9-5,0.3-5,0.3l-3.1-2.1l2.3-2.4l1.3-2.5 l-5.2,2.5l-3.1,3.1"></path> <path class="st2" d="M56.8,143.1c-0.4-0.1-0.8-0.4-1-0.7h-0.7c-0.7,0.8-1.5,1.6-2.3,2.3c0,0.1,0,0.1,0.1,0.2l8.5,1.8 c2.1-0.3,3.2-0.7,3.6-1C62.2,144.9,59.5,143.9,56.8,143.1z"></path> <path class="st5" d="M120.9,153.1c-3.6-0.4-13.1-5.2-18.4-8.4c-7.3-4.4-19-14.8-22.3-17.5c-0.1,0.1-0.1,0.2-0.1,0.3 c-0.3,0.7,5.2,5.3,6,6.2c2.5,2.5,5.2,4.9,8,7.1c2.9,2.5,6,4.8,9.2,7c3.1,2,6.6,3.6,9.9,5.6c10.1,2.9,9.1,2.2,10.7-0.1 C122.4,154.1,123.3,153.3,120.9,153.1z"></path> <path class="st2" d="M92.5,111.1c0.7-0.9,1.5-1.7,2.4-2.5c-0.1-0.6-0.2-0.9-0.1-0.9c-0.3-0.4-0.7-0.7-1.1-1 c-3-2.3-3.8-11.3-3.8-11.3s-13.3,1.6-8.3,6.7c2.3,2.3,1.9,5.9,1.1,8.9c0.1,0.1,0.1,0.2,0.1,0.2c0.1,0.1,0.1,0.3,0.1,0.4 c0,0.1,0,0.1,0.1,0.1c0.2,0.2,0.3,0.5,0.4,0.8c0.1,0.1,0.1,0.2,0.2,0.3c0.1,0.1,0.1,0.1,0.1,0.1c0.2,0.2,0.4,0.5,0.7,0.7 c0.5,0.5,1,0.9,1.5,1.4l0.7,0.6l0.1,0.1l0.1,0.1l0.4,0.3l1,0.8C89.5,114.8,90.9,112.8,92.5,111.1z"></path> <path class="st0" d="M82.1,95.5c0,0,13.6-4.1,17.1-7.7c3.5-3.6-3.5-3.1-4.5-9.4s-6.2-22.2-9.1-12.5s2.2,13,1.6,8.5 c-0.6-4.5,1.2-16.9-11.7-14.4c-12.8,2.5-16.2,11.3-4.9,13.9S56.4,64.2,58,72.6c1.6,8.4,9.1,6.5,11.7,6c2.6-0.4-11.2-5.1-8.6,3.7 C63.7,91.1,71.8,94,82.1,95.5z"></path> <path class="st5" d="M91.4,95.2c0,0-2.1,2.8,2.2,12.4c0,0-5.6,3.3-9.9-0.6c0-1.9-0.7-3.6-2.1-4.9C76.6,96.9,91.4,95.2,91.4,95.2z"></path> <path class="st2" d="M70.5,77.6c0,0-1.4,6.8,1.5,16.8s8.4,12,16.6,9c8.2-3,7.5-13.3,6.9-15.8c-0.6-2.5,7.7-2,4.8-7.3 c-2.8-5.4-5.9-2.5-5.9-0.2c0.1,2.3-0.9,5.5-3,4c-2.2-1.5-0.2-11-4.1-8.8C83.4,77.4,76.8,80.6,70.5,77.6z"></path> <path class="st6" d="M140.1,201.2c0.1-0.6,0.2-1.2,0.2-1.8c0-6.9-5.6-12.5-12.5-12.5c-1.3,0-2.7,0.2-3.9,0.7 c-2-14.1-15.2-23.9-29.2-21.8c-0.6,0.1-1.3,0.2-1.9,0.4c-11.7-13-31.7-14-44.7-2.3c-4.7,4.3-8,9.8-9.6,16h-0.1 c-10.4,0-18.8,8.4-18.8,18.8l0,0c0,0.9,0.1,1.8,0.2,2.7L140.1,201.2L140.1,201.2z"></path> <path class="st5" d="M134.5,237.8l10.6,14.3c0,0,8-10.9,6.9-14.7c-1-3.9-5.8-10.4-7.7-13.8"></path> <path class="st9" d="M115.9,148.8c0,0-16.8,2.9-18,13c-1.2,10.1-0.4,11.5-5.5,15.3c-5.1,3.8-12.7,16.2,2.5,21.3 c15.2,5.1,23-3.3,30.5-0.2c7.6,3.1,19.9-0.2,22.6-5.1c2.7-4.9,3.9-16.2-5.1-20.6c-9-4.4-6.2-12.3-7.2-14.4 C132.7,151.5,126.3,147.9,115.9,148.8z"></path> <path class="st1" d="M89.8,250.9c0,0-26.5,13.1,0.6-45c1.4-2.9,12.2-14.8,24-9.5c11.8,5.3,9.8,3.5,19.1,5.8 c9.3,2.4,13.1,1.9,14.7,9.4c1.7,7.5-7.4,36.2-8.1,37.5C139.3,250.6,89.8,250.9,89.8,250.9z"></path> <path class="st6" d="M129.1,201c-3.2-0.6-4.4-0.7-11.1-3.8c-1.2,0.4-1.7,1.4-1.6,2.8c0,0,2.4,38.4,2.4,51.5 c5.7,0.1,11.4-2.9,16.3-2.9c1.5-6.8,2.3-35.3-0.6-40.8C133.2,205.2,131.4,202.9,129.1,201z"></path> <path class="st2" d="M130.7,203.8c0.1-0.1,0.1-0.2,0.1-0.2c-0.9-1.2-2-2.3-2.8-3.4c-1.4-2.1-0.4-5.7,1.2-9.4 c1.6-3.8-2.9,3.5-11.4,2.8l-0.7,3.6l0.7,6.9c0.4,0.1,0.9,0.4,1.1,0.8c0.6,1,1.4,1.9,2.1,2.7c0.9,0.9,1.7,1.9,2.5,2.7 c0.7,0.7,1.4,1.5,2,2.2c0.5,0,1.6,1.6,1.6-0.1c0-0.5,0.9-0.2,1.4-0.4C129.1,209.1,129.8,206.4,130.7,203.8z"></path> <path class="st5" d="M130.3,189.2c3.9-8.9-3.4,3.9-13.5,3.3l0.6,4.6l0.6,2.3c5.4-0.6,8.1-5.5,12-9.3L130.3,189.2z"></path> <path class="st2" d="M107.9,160.1c0,0,3.4,6.2-1.1,11.8c-4.6,5.7-2.8,3.5-2.8,3.5s5.7,19.6,14.7,19.2c9.1-0.4,14.3-5.1,15.9-12.8 c1.7-7.7-2.8-15.1-2.8-15.1s-10.9,4.4-14.6,3.6C113.6,169.4,113.8,159.1,107.9,160.1z"></path> <path class="st2" d="M73.3,251.1c0.1,0.2,0.2,0.3,0.4,0.5c2.3,0.3,4.6,0.5,7,0.5c7.3,0.3,30.6-1,30.6-1s1.9,1.3,5.3,1.2 c2.6-0.1,4-0.7,5.7-0.9c1.9-0.1,3.8,0.1,5.7,0.2c0.6,0.1,1.2,0.3,1.8,0.6h3.1c-0.4-0.3-2-1.8-1.5-1.6c4.9,2.3,6.4,0.7,6.4,0.7 s-0.9-0.7-0.6-0.7c1.1,0.1,1.3-0.4,1.3-0.4l-7.4-6.2l-5.2-0.1l-14.3,1.2L89,240.9l3.4-10.8c-3.1-1-6.4-2.3-9.6-3 c-4.6-0.8-4.9,2.2-6.4,6c-0.9,2.2-1.5,4.4-2.2,6.7c-0.5,2-2.7,6.9-2.2,8.9C72.5,249.7,72.8,250.4,73.3,251.1z"></path> <line class="st10" x1="105.1" y1="242.7" x2="100.4" y2="252.2"></line> <line class="st11" x1="106.9" y1="243.1" x2="103.4" y2="251.7"></line> <path class="st5" d="M131.7,245.8c0,0,3.6,2.3,5.5,3.5l1.4,0.7c0,0-0.2,0.4-1.3,0.4l-4.6-3.4l-4.8-0.6L131.7,245.8z"></path> <path class="st5" d="M133.1,252c0,0,0,0.1-0.1,0.1l0,0l-0.8-0.9C132.6,251.6,133.1,252,133.1,252z"></path> <path class="st5" d="M127,248.8l4.2,0.3c1.5,1,3.2,2,4.9,2.7c-1,0-2.5-0.3-4.6-1.4c-0.1,0-0.1-0.1-0.1-0.1l-1-0.9L127,248.8z"></path> <path class="st5" d="M77.6,230.6c-0.6,1.5-1.2,3-1.9,4.4c-0.9,3.1-1.7,6.3-2.5,9.5c1.5-0.9,3.6-3.3,6.7-5c3.6-1.9,8.1-1.8,8.1-1.8 C86,237.1,81.8,230.7,77.6,230.6z"></path> <path class="st1" d="M84.8,215.3c-2.2,3.8-4.1,7.8-5.9,11.8c-0.1,0.3-0.2,0.6-0.4,0.9c-0.7,2.3-1.7,4.7-2.8,6.9 c-0.1,0.3-0.2,0.6-0.2,0.9c2.4,0.7,20.8,5.5,21.7,1c1-4.8,10.4-37.9,10.4-37.9C97.9,189.2,89,207.9,84.8,215.3z"></path> <path class="st2" d="M143.8,251.4c0,0,2.8-30,3.7-33.4c0.9-3.4,0.7-10.7,3.9-2.5c3.3,8.2,3.3,27.5,3.5,33.1 C155.2,254.2,145,254.2,143.8,251.4z"></path> <path class="st2" d="M149.9,212.1c-1.7-1.2-3.7-2.2-5.8-2.7c-3.5-0.9-6.7,4.3-8.6,4.5c-1.9,0.3-8.8,4.8-9.5,5.4 c-0.7,0.6,0,1.4,2.8,0.3c2.8-1.1,6.7-2.3,6.7-2.3l-4.4,4.3l-2.1,5.1c0,0,1.3,0.7,2.4-0.9c0.6-0.9,1.1-1.9,1.5-2.8l4.2-3.1l-2.3,5.7 l-2.8,5.7c0,0,2.2,1.6,3.9-3.4c1-2.8,4.2-4.8,4.2-4.8l-1.4,4.5l-1.2,3.2c0,0,1,1.8,2.1-0.4c1.7-3.5,3-6,3-6s4.6-2.7,6.3-6.4"></path> <polygon class="st12" points="117.2,199.1 117.2,213.5 118.2,215.4 122.9,211.2 126.9,214.9 "></polygon> <path class="st12" d="M127.8,199.9c0.6,1.4-0.9,15-0.9,15l2.3-4.3l4,1.4l-1.2-8.1L127.8,199.9z"></path> <polygon class="st12" points="93.4,106 88.2,116.5 87.8,117.8 87.8,117.8 88.6,120.4 88.8,116.4 94.2,119.8 97.4,107.7 "></polygon> <polygon class="st12" points="82.7,106.3 87.9,116.8 88.3,119.1 88.8,120.2 88.2,120.6 85.7,116.2 81.3,118.6 79.3,108.1 "></polygon> <path class="st6" d="M157.6,66.6l8.1,7.5c0,0-0.4,5-0.4,4.3s-1.4-3.5-1.4-3.5l-3.3,3.3l-7.5-10.8L157.6,66.6z"></path> <path class="st6" d="M165.5,77.9c-0.2,0.3-0.2-3.6-0.2-3.6s3.1-6.4,3.3-8.3l3.3,1.4l0.4,10.4l-4.6-4"></path> <path class="st13" d="M162.6,233.7c-0.2,0.8-1,1.2-1.8,1l0,0l-6-1.6c-0.8-0.2-1.2-1-1-1.8l0,0l23-87.6c0.2-0.8,1-1.2,1.8-1l6,1.6 c0.8,0.2,1.2,1,1,1.8L162.6,233.7z"></path> <path class="st14" d="M160.2,234.3c-0.2,0-0.3,0-0.5-0.1l-6-1.6l0.2-1l6,1.6c0.5,0.1,1-0.2,1.2-0.7l23-87.6l1,0.2l-23,87.6 C161.9,233.7,161.1,234.3,160.2,234.3z"></path> <path class="st14" d="M188.3,253.5h-23.1v-1.8h23c0.6,0,4.2-1.1,4.2-6.3c0-3.5-12-35-20-55.3l1.9-0.7c2,5.2,20.1,51.1,20.1,56 c0,5.8-3.9,7.8-6,8.1L188.3,253.5z"></path> <path class="st14" d="M158.7,253.5v-1c0-0.8-0.3-0.7-1.1-0.7h-36.3c-0.8,0-2.7-0.1-2.7,0.7v1H158.7z"></path> <path class="st15" d="M44.9,62c0.1-0.4,0.2-0.7,0.2-1.1l0.6,0.1c-0.1,0.4-0.2,0.7-0.2,1.1L44.9,62z"></path> <path class="st15" d="M45.8,58.7c0.2-0.7,0.5-1.5,0.7-2.2l0.6,0.2c-0.2,0.7-0.5,1.4-0.7,2.2L45.8,58.7z M47.9,54.5l-0.6-0.2l0,0 c0.3-0.7,0.6-1.4,0.9-2.1l0.5,0.2C48.5,53.2,48.1,53.9,47.9,54.5z M49.9,50.5l-0.5-0.3c0.4-0.7,0.8-1.4,1.2-2l0.5,0.3 C50.7,49.2,50.3,49.8,49.9,50.5L49.9,50.5z M52.3,46.6l-0.5-0.3c0.4-0.6,0.9-1.2,1.4-1.9l0.4,0.4C53.2,45.4,52.8,46,52.3,46.6z M55.2,43.1l-0.4-0.4c0.5-0.6,1-1.1,1.5-1.7l0.4,0.4C56.2,42,55.7,42.5,55.2,43.1z M58.4,39.8L58,39.4c0.6-0.5,1.2-1,1.7-1.5 l0.4,0.4C59.5,38.8,58.9,39.3,58.4,39.8z M61.8,36.9l-0.4-0.4c0.6-0.4,1.2-0.9,1.9-1.4l0.3,0.5C63.1,36,62.4,36.4,61.8,36.9z M65.6,34.3l-0.3-0.5c0.6-0.4,1.3-0.8,2-1.2l0.3,0.5C66.9,33.5,66.2,33.9,65.6,34.3L65.6,34.3z M69.5,32.1l-0.2-0.5 c0.7-0.3,1.4-0.7,2.1-1l0.2,0.6C70.9,31.4,70.2,31.8,69.5,32.1L69.5,32.1z M73.7,30.2l-0.2-0.6c0.7-0.3,1.4-0.6,2.2-0.8l0.2,0.6 C75.2,29.7,74.4,30,73.7,30.2L73.7,30.2z M77.9,28.2c0.7-0.2,1.5-0.4,2.2-0.6l0.1,0.6c-0.7,0.2-1.5,0.4-2.2,0.6L77.9,28.2z M82.4,27.6l-0.1-0.6c0.7-0.1,1.5-0.3,2.3-0.4l0.1,0.6C83.9,27.3,83.2,27.5,82.4,27.6z M86.9,26.8l-0.1-0.6 c0.7-0.1,1.5-0.2,2.3-0.2l0.1,0.6C88.4,26.7,87.7,26.8,86.9,26.8L86.9,26.8z M91.4,26.5v-0.6c0.7-0.1,1.5-0.1,2.3-0.1v0.6 C93,26.4,92.2,26.4,91.4,26.5L91.4,26.5z M96,26.4v-0.6c0.7,0,1.5,0.1,2.3,0.1l-0.1,0.6C97.5,26.5,96.8,26.5,96,26.4L96,26.4z M100.6,26.8l0.1-0.6c0.7,0.1,1.5,0.2,2.3,0.3l-0.1,0.6C102.1,27,101.3,26.8,100.6,26.8L100.6,26.8z M105.1,27.5l0.1-0.6 c0.7,0.1,1.5,0.3,2.3,0.5l-0.1,0.6C106.6,27.7,105.9,27.6,105.1,27.5L105.1,27.5z M128,37.1c-0.6-0.4-1.2-0.9-1.9-1.2l0.3-0.5 c0.6,0.4,1.3,0.9,1.9,1.3L128,37.1z M109.6,28.4l0.1-0.6c0.7,0.2,1.5,0.4,2.2,0.6l-0.2,0.6C111,28.9,110.3,28.7,109.6,28.4z M124.2,34.7c-0.7-0.4-1.3-0.7-2-1.1l0.2-0.5c0.7,0.4,1.4,0.7,2,1.1L124.2,34.7z M113.9,29.9l0.2-0.6c0.7,0.2,1.4,0.6,2.2,0.8 l-0.2,0.6C115.3,30.4,114.6,30.1,113.9,29.9z M120.2,32.5c-0.7-0.3-1.4-0.7-2-1l0.2-0.5c0.7,0.3,1.4,0.6,2.1,1L120.2,32.5z"></path> <path class="st15" d="M130.8,39.2c-0.3-0.2-0.6-0.5-0.9-0.7l0.4-0.5c0.3,0.2,0.6,0.5,0.9,0.7L130.8,39.2z"></path> <path class="st15" d="M179.4,183c-0.3,0-0.6,0-0.9,0v-0.6c0.7,0,1.5,0,2.3-0.1v0.6C180.3,183,179.8,183,179.4,183z M176.1,182.9 c-0.7-0.1-1.5-0.2-2.3-0.3l0.1-0.6c0.7,0.1,1.5,0.2,2.3,0.3L176.1,182.9z M183.1,182.8l-0.1-0.6c0.7-0.1,1.5-0.2,2.3-0.4l0.1,0.6 C184.6,182.6,183.8,182.7,183.1,182.8L183.1,182.8z M187.7,182l-0.1-0.6c0.7-0.2,1.5-0.4,2.2-0.6l0.2,0.6 C189.2,181.6,188.4,181.8,187.7,182z M171.5,182c-0.7-0.2-1.5-0.4-2.2-0.7l0.2-0.6c0.7,0.2,1.4,0.5,2.2,0.7L171.5,182z M192.1,180.6l-0.2-0.6c0.7-0.2,1.4-0.6,2.2-0.9l0.2,0.6C193.6,180,192.9,180.3,192.1,180.6z M167.1,180.4c-0.7-0.3-1.4-0.7-2.1-1 l0.3-0.5c0.7,0.4,1.4,0.7,2,1L167.1,180.4z M163,178.1c-0.6-0.4-1.3-0.9-1.9-1.4l0.4-0.4c0.6,0.5,1.2,0.9,1.9,1.4L163,178.1z M159.4,175.2c-0.6-0.6-1.1-1-1.7-1.6l0.4-0.4c0.6,0.6,1.1,1.1,1.7,1.6L159.4,175.2z M156.2,171.8c-0.5-0.6-1-1.2-1.4-1.9l0.5-0.4 c0.4,0.6,0.9,1.2,1.4,1.8L156.2,171.8z M153.4,168.1c-0.4-0.6-0.8-1.3-1.2-2l0.5-0.3c0.4,0.7,0.8,1.3,1.2,2L153.4,168.1z M151,164.1c-0.4-0.7-0.7-1.4-1-2.1l0.6-0.2c0.3,0.7,0.6,1.4,1,2.1L151,164.1z M149.2,159.7c-0.2-0.7-0.6-1.5-0.7-2.2l0.6-0.2 c0.2,0.7,0.5,1.5,0.7,2.2L149.2,159.7z M147.8,155.3c-0.2-0.7-0.4-1.5-0.5-2.3l0.6-0.1c0.1,0.7,0.3,1.5,0.5,2.3L147.8,155.3z M147,150.7c-0.1-0.7-0.1-1.3-0.1-1.9c0-0.1,0-0.3,0-0.4h0.6c0,0.1,0,0.2,0,0.4c0,0.6,0.1,1.2,0.1,1.9L147,150.7z M147.7,146.1 l-0.6-0.1c0.1-0.8,0.4-1.5,0.7-2.3l0.6,0.2C148.1,144.6,147.8,145.4,147.7,146.1L147.7,146.1z"></path> <polyline class="st4" points="234.2,163.4 189.2,175.5 187.3,173.4 "></polyline> <polygon class="st6" points="234.2,163.4 206.6,163.7 194.7,167.6 187.3,173.4 "></polygon> <polygon class="st6" points="182.4,183.6 185.4,175.8 233.8,163.5 197.1,182.9 "></polygon> <polygon class="st4" points="191.9,182.9 191.9,182.9 197.1,188.1 234,163.4 "></polygon> <path class="st12" d="M76,94.8c3-0.2,5.9-1,8.6-2.4c0,0-0.7,4.5-2.6,6.5C80.1,100.9,77.7,99,76,94.8z"></path> <path class="st12" d="M157.9,53.4c3.5,0.9,7.1,1.1,10.7,0.7c0,0-2.1,4.6-4.8,6C161.2,61.5,158.8,58.5,157.9,53.4z"></path> <path class="st12" d="M115.1,184.9c3.4-0.5,6.7-1.6,9.7-3.3c0,0-0.2,4.9-2.1,7.1S117.7,189.2,115.1,184.9z"></path> <path class="st16" d="M8.7,37.3h34.2c4.8,0,8.7,3.9,8.7,8.7v34.2c0,4.8-3.9,8.7-8.7,8.7H8.7C3.9,89,0,85.1,0,80.3V46 C0,41.2,3.9,37.3,8.7,37.3z"></path> <polygon class="st16" points="40.5,97.9 40.5,84.7 25.9,84.7 "></polygon> <path class="st12" d="M17.5,56.8c1.9-1.9,5.1-1.9,7,0l0,0l1.1,1.2l1.2-1.2c2-1.9,5.1-1.8,7,0.2c1.8,1.9,1.8,4.9,0,6.8l-1.1,1.2l0,0 l-7,7l-7-7l0,0l-1.2-1.2C15.6,61.8,15.6,58.7,17.5,56.8L17.5,56.8z"></path> <path class="st17" d="M240.1,85.2l-9.5-5.5c-4.1-2.3-8.7-1.9-10.2,0.9l-4.8,8.4c-1.5,2.7-1.4,5.6,2.7,11.5c2.2,3.3,4.8,6.4,7.8,9.1 L240.1,85.2z"></path> <path class="st18" d="M240.1,85.2l9.4,5.4c4,2.4,6,6.6,4.4,9.3l-4.8,8.4c-1.6,2.7-4.1,4-11.4,3.5c-3.9-0.2-7.9-1-11.7-2.2 L240.1,85.2z"></path> <path class="st19" d="M230.8,101.4l-24.6-30.3l0.9-1.2l62.9,36.3l-0.7,1.3L230.8,101.4z"></path> <path class="st17" d="M231.4,100.1l-24.6-30.3l38.6,6l24.6,30.4L231.4,100.1z"></path> <path class="st16" d="M250.7,112.5c-0.3-0.2-0.4-0.6-0.2-0.9l4.2-7.3l-15.3-18.9c-0.2-0.3-0.1-0.7,0.2-0.9c0.2-0.2,0.6-0.1,0.9,0.1 l15.6,19.3c0.2,0.2,0.2,0.6,0.1,0.7l-4.4,7.8C251.5,112.5,251.1,112.7,250.7,112.5L250.7,112.5z"></path> <path class="st20" d="M254.6,104.6c-0.1-0.1-0.1-0.1-0.2-0.1l-14.6-18.1c-0.2-0.2-0.2-0.7,0.1-0.9c0.2-0.2,0.7-0.2,0.9,0.1l0,0 l14.6,18.1c0.2,0.2,0.3,0.6,0.1,0.9C255.3,104.8,254.9,104.8,254.6,104.6z"></path> <path class="st19" d="M244.1,87.6c-0.7,1.3-2.8,1.4-4.8,0.4c-1.9-1-2.8-3-2-4.3c0.7-1.3,2.8-1.4,4.8-0.4S244.8,86.3,244.1,87.6z"></path> <path class="st18" d="M243.8,86.7c-0.6,1-2.5,0.9-4.4-0.2c-1.9-1.1-3-2.8-2.5-3.8c0.6-1,2.5-0.9,4.4,0.2 C243.2,84.1,244.3,85.8,243.8,86.7z"></path> <path class="st16" d="M254,111.2c-0.6,1-1.9,1.4-3,0.8c-1-0.6-1.4-1.9-0.8-3c0.6-1,1.9-1.4,3-0.8l0,0 C254.1,108.8,254.5,110.1,254,111.2z"></path> <path class="st16" d="M251,114.3c-0.3,0.6-1,0.7-1.6,0.4l0,0c-0.6-0.3-0.7-1-0.4-1.6l2.1-3.6c0.3-0.6,1-0.7,1.6-0.4l0,0l0,0 c0.6,0.3,0.7,1,0.4,1.6L251,114.3z"></path> <path class="st16" d="M249.1,122.9c-0.4-1.2,0.3-2.8,2.3-7.3c0.5-1,0.1-2.3-0.8-3l0,0l0,0c-1-0.5-2.3-0.2-3,0.8 c-2.9,4-4,5.5-5.2,5.7c-0.8,0.8,0,2.8,2.1,4l0,0l0,0C246.7,124.3,248.8,124,249.1,122.9z"></path> <path class="st20" d="M248.4,114.8c0.5-0.6,1.2-1,2-1.1l0.9-1.5c-0.4-0.7-0.4-1.5,0.1-2.3c0.5-0.9,1.5-1.4,2.5-1.2 c-0.7-0.9-2-1.1-3-0.4c-0.2,0.2-0.4,0.4-0.6,0.6c-0.3,0.6-0.3,1.4,0,2l-0.8,1.4c-0.7,0.1-1.3,0.4-1.7,1c-2.9,4-4,5.5-5.2,5.7 c-0.5,0.5-0.4,1.3,0.1,2.2C243.9,120.9,245.1,119.3,248.4,114.8z"></path> </g> </svg> 