<?xml version="1.0" encoding="UTF-8"?> <svg xmlns="http://www.w3.org/2000/svg" id="Layer_1" data-name="Layer 1" viewBox="0 0 270 270"><defs><style>.cls-1{fill:#fff;}.cls-2{fill:#67bd50;}.cls-3{fill:#95ca59;}.cls-4{fill:#5a969c;}.cls-5{fill:#5fad6e;}.cls-6{fill:#4f5e67;}.cls-7{fill:#f58457;}.cls-8{fill:#118c8c;}.cls-9{fill:#d6634a;}.cls-10{fill:#1b81c4;}.cls-11{fill:#d6e9bd;}.cls-12{fill:#055245;}.cls-13{fill:#f58458;}</style></defs><path class="cls-1" d="M67.92,127h-4a.52.52,0,0,1-.53-.47,31.69,31.69,0,0,0-1.54-5.22.56.56,0,0,1,.23-.72l3.09-1.78a2.11,2.11,0,0,0,.77-2.78L63.64,112a2.08,2.08,0,0,0-2.78-.77h0l-3.5,2a.36.36,0,0,1-.48-.06,26.4,26.4,0,0,0-4.21-4,.39.39,0,0,1-.12-.48l2-3.44a2,2,0,0,0-.65-2.55l-4.39-2.55a1.77,1.77,0,0,0-2.49.65h0l-2,3.56a.56.56,0,0,1-.65.24A27.3,27.3,0,0,0,39,103.37a.55.55,0,0,1-.47-.53V99a1.91,1.91,0,0,0-1.84-1.89h-5A1.91,1.91,0,0,0,29.72,99v4.1a.57.57,0,0,1-.42.53,26.28,26.28,0,0,0-5.28,1.6.5.5,0,0,1-.65-.24l-1.84-3.2a2.12,2.12,0,0,0-1.19-1,2.27,2.27,0,0,0-1.54.18l-4.15,2.43a2,2,0,0,0-.71,2.73l1.9,3.26a.75.75,0,0,1-.18,1,29.66,29.66,0,0,0-3.5,3.74.75.75,0,0,1-1,.18L8.3,112.69a2.28,2.28,0,0,0-1.66-.24,2.25,2.25,0,0,0-1.3,1l-2.2,3.85a2.17,2.17,0,0,0,.83,3l3.33,1.9a.41.41,0,0,1,.17.59,29.7,29.7,0,0,0-1.3,5.46.51.51,0,0,1-.48.41H2.14A2.13,2.13,0,0,0,0,130.78v4.5a2.13,2.13,0,0,0,2.14,2.14H6a.4.4,0,0,1,.42.36A28.06,28.06,0,0,0,8,143.17a.47.47,0,0,1-.18.6l-3.14,1.84a2.06,2.06,0,0,0-.78,2.84l2.32,4a2.07,2.07,0,0,0,2.85.77h0l3.32-1.9a.52.52,0,0,1,.65.12,30.27,30.27,0,0,0,4,3.79.5.5,0,0,1,.12.72l-1.72,3a2.23,2.23,0,0,0,.83,3L20,164.11a2.25,2.25,0,0,0,3-.77h0L25,160a.31.31,0,0,1,.42-.18h0a27.75,27.75,0,0,0,5.69,1.37c.18,0,.3.17.24.29V165a2.31,2.31,0,0,0,2.31,2.31h4.15A2.31,2.31,0,0,0,40.1,165v-3.44a.76.76,0,0,1,.65-.77,29.23,29.23,0,0,0,4.86-1.48.75.75,0,0,1,1,.29l1.72,3a2.09,2.09,0,0,0,2.79.77L55.16,161a2.08,2.08,0,0,0,.77-2.79L54,155a.74.74,0,0,1,.17-.95,29,29,0,0,0,3.5-3.74.75.75,0,0,1,.95-.18l2.67,1.55a2.35,2.35,0,0,0,3.2-.89l2-3.5a2.42,2.42,0,0,0-.89-3.27l-3.2-1.83a.4.4,0,0,1-.18-.48,31.06,31.06,0,0,0,1.31-5.57.39.39,0,0,1,.41-.36h3.86a1.92,1.92,0,0,0,1.89-2v-4.92A1.77,1.77,0,0,0,67.92,127ZM43.06,140.56a11.45,11.45,0,0,1-8.18,3.38,9.32,9.32,0,0,1-2.26-.23,11.67,11.67,0,0,1-9.07-13.82,11.82,11.82,0,0,1,3.2-5.93,11.52,11.52,0,0,1,10.44-3.15,11.7,11.7,0,0,1,9.13,13.82,12,12,0,0,1-3.26,5.93Z"></path><path class="cls-2" d="M121.24,150.94c-30.67,0-55.64-25.2-55.64-56.11s25-56.11,55.64-56.11,55.64,25.15,55.64,56.11S151.9,150.94,121.24,150.94Zm0-110.91C91.29,40,67,64.58,67,94.77s24.32,54.75,54.27,54.75S175.51,125,175.51,94.77,151.19,40,121.24,40Z"></path><path class="cls-2" d="M121.24,151.3C90.4,151.3,65.31,126,65.31,94.83S90.4,38.36,121.24,38.36s55.93,25.33,55.93,56.47S152.08,151.3,121.24,151.3Zm0-112.28C90.75,39,66,64.05,66,94.83s24.79,55.76,55.28,55.76,55.28-25,55.28-55.76S151.73,39,121.24,39Zm0,110.92c-30.13,0-54.63-24.74-54.63-55.11s24.5-55.1,54.63-55.1,54.63,24.73,54.63,55.1-24.5,55.11-54.63,55.11Zm0-109.56c-29.78,0-53.92,24.44-53.92,54.45s24.2,54.45,53.92,54.45,53.92-24.43,53.92-54.45S151,40.38,121.24,40.38Z"></path><rect class="cls-2" x="120.23" y="38.66" width="2.02" height="111.63"></rect><path class="cls-2" d="M166.73,126.51c-.47-.24-47.33-21.3-90.75-.24l-.89-1.84c44.25-21.47,91.94,0,92.41.24Z"></path><path class="cls-2" d="M123.85,74.72a129.47,129.47,0,0,1-49-9.78l.84-1.84c.47.24,47.33,21.29,90.75.24l.89,1.83A98.82,98.82,0,0,1,123.85,74.72Z"></path><rect class="cls-2" x="66.14" y="93.94" width="110.62" height="2.02"></rect><path class="cls-2" d="M121.12,150.71c-15.18,0-27.58-25.21-27.58-56.12s12.34-56.11,27.52-56.11,27.58,25.15,27.58,56.11S136.3,150.71,121.12,150.71Zm0-110.27c-14.06,0-25.5,24.26-25.5,54.1s11.44,54.09,25.5,54.09,25.51-24.26,25.51-54.09S135.18,40.44,121.12,40.44Z"></path><path class="cls-2" d="M37.78,167.49H33.63a2.31,2.31,0,0,1-2.31-2.25h0v-3.62a.27.27,0,0,0-.24-.3A26.22,26.22,0,0,1,25.39,160a.29.29,0,0,0-.36.12l-2,3.38a2.25,2.25,0,0,1-1.36,1.07,2,2,0,0,1-1.66-.24l-3.74-2.2a2.22,2.22,0,0,1-.83-3l1.72-3a.63.63,0,0,0-.12-.71,29.66,29.66,0,0,1-4-3.79.55.55,0,0,0-.65-.12l-3.33,1.9a2.17,2.17,0,0,1-1.6.23,1.75,1.75,0,0,1-1.24-1l-2.26-4a2.06,2.06,0,0,1,.77-2.85L8,143.89a.48.48,0,0,0,.18-.6,28,28,0,0,1-1.61-5.4.42.42,0,0,0-.41-.35H2.25A2.13,2.13,0,0,1,.12,135.4v-4.51a2.13,2.13,0,0,1,2.13-2.13H5.81a.51.51,0,0,0,.48-.42,29,29,0,0,1,1.3-5.45.47.47,0,0,0-.18-.6L4.09,120.4a2.27,2.27,0,0,1-.83-3l2.2-3.85a2.15,2.15,0,0,1,3-.84h0l2.85,1.67a.83.83,0,0,0,1-.18,29.66,29.66,0,0,1,3.5-3.74.76.76,0,0,0,.18-.95l-1.9-3.26a2,2,0,0,1,.71-2.73l4.15-2.43a2,2,0,0,1,2.73.71h0l1.84,3.2a.56.56,0,0,0,.65.24,28.86,28.86,0,0,1,5.28-1.6.52.52,0,0,0,.42-.53V99a1.9,1.9,0,0,1,1.83-1.9h5A1.87,1.87,0,0,1,38.55,99h0v3.8a.52.52,0,0,0,.48.53,26.71,26.71,0,0,1,5.34,1.31.56.56,0,0,0,.65-.24l2-3.56a1.79,1.79,0,0,1,2.49-.65h0l4.39,2.55a1.85,1.85,0,0,1,.65,2.55l-2,3.44a.31.31,0,0,0,.12.47,33.76,33.76,0,0,1,4.21,4,.36.36,0,0,0,.48.06l3.5-2a1.81,1.81,0,0,1,1.54-.18,2,2,0,0,1,1.24,1l2.32,4.1a2,2,0,0,1-.77,2.78l-3.09,1.78a.6.6,0,0,0-.24.71,31.05,31.05,0,0,1,1.55,5.22.63.63,0,0,0,.53.48h4a1.93,1.93,0,0,1,1.9,2V134a2,2,0,0,1-1.9,2H64.12a.5.5,0,0,0-.42.35,29,29,0,0,1-1.3,5.58.37.37,0,0,0,.18.47l3.2,1.9a2.4,2.4,0,0,1,.89,3.26l-2,3.5a2.43,2.43,0,0,1-1.42,1.13,2.31,2.31,0,0,1-1.78-.24l-2.67-1.54a.71.71,0,0,0-1,.18,29.57,29.57,0,0,1-3.5,3.73.76.76,0,0,0-.18,1L56,158.48a2,2,0,0,1-.77,2.78l-4.09,2.38a2.1,2.1,0,0,1-2.79-.72h0l-1.72-3a.77.77,0,0,0-.95-.36A23.68,23.68,0,0,1,40.81,161a.81.81,0,0,0-.65.77v3.44A2.45,2.45,0,0,1,37.78,167.49Zm-12.51-9.31a2.09,2.09,0,0,1,.65.12,27.27,27.27,0,0,0,5.4,1.3,2,2,0,0,1,1.72,2v3.62a.56.56,0,0,0,.59.59h4.15a.56.56,0,0,0,.6-.59V161.8a2.46,2.46,0,0,1,2-2.43A24.73,24.73,0,0,0,45,158,2.48,2.48,0,0,1,48,159.07l1.72,3,.18.17h.24l4.09-2.37a.32.32,0,0,0,.12-.47h0l-1.84-3.27A2.52,2.52,0,0,1,53,153a31.43,31.43,0,0,0,3.32-3.5,2.46,2.46,0,0,1,3.2-.59l2.67,1.54a.47.47,0,0,0,.48.06,1.12,1.12,0,0,0,.41-.3l2-3.5a.67.67,0,0,0-.24-.89l-3.14-1.9a2.16,2.16,0,0,1-1-2.55A26.08,26.08,0,0,0,62,136.12a2.06,2.06,0,0,1,2.08-1.84H68a.26.26,0,0,0,.24-.24v-4.92a.26.26,0,0,0-.24-.24H64A2.33,2.33,0,0,1,61.75,127a29,29,0,0,0-1.49-4.92,2.36,2.36,0,0,1,1-2.85l3.09-1.78a.33.33,0,0,0,.12-.47l-2.32-4.1a.67.67,0,0,0-.24-.17.4.4,0,0,0-.23,0l-3.5,2a2.15,2.15,0,0,1-2.61-.41,28.9,28.9,0,0,0-3.92-3.74,2.12,2.12,0,0,1-.53-2.67l2-3.44a.11.11,0,0,0-.06-.18l-4.39-2.55h-.12a.06.06,0,0,0-.06.06l-2,3.56a2.22,2.22,0,0,1-2.67,1,28.64,28.64,0,0,0-5-1.19A2.3,2.3,0,0,1,36.78,103V99.16A.16.16,0,0,0,36.6,99h-5a.16.16,0,0,0-.18.18h0v4.09a2.29,2.29,0,0,1-1.78,2.2,28.88,28.88,0,0,0-5,1.48,2.19,2.19,0,0,1-2.73-1l-1.9-3.2c-.06-.06-.12-.12-.18-.12h-.24l-4.15,2.43a.34.34,0,0,0-.12.42l1.9,3.26a2.47,2.47,0,0,1-.53,3.09,25.67,25.67,0,0,0-3.26,3.55,2.56,2.56,0,0,1-3.21.6l-2.84-1.66a.76.76,0,0,0-.36-.06.64.64,0,0,0-.3.23l-2.19,3.86a.47.47,0,0,0,.18.65L8,120.93a2.18,2.18,0,0,1,1,2.61,29.33,29.33,0,0,0-1.19,5.16,2.22,2.22,0,0,1-2.13,1.9H2.08a.47.47,0,0,0-.48.47v4.51a.47.47,0,0,0,.48.48H5.93a2.17,2.17,0,0,1,2.14,1.78,26.2,26.2,0,0,0,1.54,5.1,2.17,2.17,0,0,1-.89,2.67l-3.14,1.83a.39.39,0,0,0-.12.54l2.31,4c.06.12.12.18.24.18a.49.49,0,0,0,.29-.06l3.33-1.9a2.26,2.26,0,0,1,2.84.48,27.39,27.39,0,0,0,3.74,3.56,2.27,2.27,0,0,1,.59,2.9l-1.72,3a.54.54,0,0,0,.18.71L21,163a.87.87,0,0,0,.41.06.58.58,0,0,0,.3-.23l2-3.38a1.62,1.62,0,0,1,1.6-1.25ZM34.88,144a9.85,9.85,0,0,1-2.26-.23A11.67,11.67,0,0,1,23.55,130a11.89,11.89,0,0,1,3.2-5.94,11.54,11.54,0,0,1,10.44-3.14,11.69,11.69,0,0,1,9.13,13.82,11.38,11.38,0,0,1-3.2,5.93A11.84,11.84,0,0,1,34.88,144Zm0-21.65A9.6,9.6,0,0,0,28,125.26a10,10,0,0,0,0,14.12,10.31,10.31,0,0,0,5,2.73,9.77,9.77,0,0,0,8.9-2.73,10,10,0,0,0,0-14.12,10.38,10.38,0,0,0-5-2.73A11.9,11.9,0,0,0,34.88,122.35Z"></path><path class="cls-2" d="M236.55,206.88c2.13,9.13-19.46,10.32-28.36,10.44a33.63,33.63,0,0,1-7.29-.71c-7.53-1.55-24-5.52-21.65-11,3-7,11.92-2.13,11.92-2.13s-1.13-5.28,14.06-8.78,15.12,8.18,15.12,8.18S233.88,195.37,236.55,206.88Z"></path><path class="cls-2" d="M93,200.29H6.29s-4.69-5.93,0-10A8.22,8.22,0,0,1,14.18,189a2.58,2.58,0,0,0,3.14-1.84c0-.05.06-.11.06-.17.53-2.44,2.13-5.64,6.82-7.54s7.47,1,9.19,3.92a1.27,1.27,0,0,0,1.78.47,1.34,1.34,0,0,0,.6-.71c1.48-4.62,6.52-10.68,23.19-10.68,21.17,0,18.8,11.27,17,16a1.06,1.06,0,0,0,.6,1.42,1.15,1.15,0,0,0,.65.06c3.26-.71,9.31-1.6,12,.54C93,193.35,93,200.29,93,200.29Z"></path><polygon class="cls-3" points="41.1 127.04 183.58 127.04 219.41 229.42 73.97 229.42 41.1 127.04"></polygon><polygon class="cls-4" points="47.16 130.54 179.9 130.54 213.35 225.92 77.82 225.92 47.16 130.54"></polygon><path class="cls-5" d="M76.58,225.09H256.24a4.45,4.45,0,0,1,4.45,4.5V230a4.5,4.5,0,0,1-4.45,4.51H76.58A4.5,4.5,0,0,1,72.07,230v-.36A4.57,4.57,0,0,1,76.58,225.09Z"></path><path class="cls-3" d="M74.68,225.09h62.57a4.5,4.5,0,0,1,4.51,4.5V230a4.5,4.5,0,0,1-4.51,4.51H74.68a2.53,2.53,0,0,1-2.55-2.55V227.7A2.54,2.54,0,0,1,74.68,225.09Z"></path><path class="cls-6" d="M205.94,229.59a1.37,1.37,0,1,1-1.36-1.36h0a1.34,1.34,0,0,1,1.36,1.36Z"></path><path class="cls-6" d="M197.81,229.59a1.36,1.36,0,1,1-1.36-1.36,1.37,1.37,0,0,1,1.36,1.36Z"></path><path class="cls-5" d="M121.48,231.08h-8.13a1.59,1.59,0,0,1-1.6-1.6h0a1.6,1.6,0,0,1,1.6-1.61h8.13a1.6,1.6,0,0,1,1.6,1.61h0A1.59,1.59,0,0,1,121.48,231.08Z"></path><path class="cls-5" d="M106.88,231.08H98.76a1.59,1.59,0,0,1-1.6-1.6h0a1.6,1.6,0,0,1,1.6-1.61h8.12a1.61,1.61,0,0,1,1.61,1.61h0A1.6,1.6,0,0,1,106.88,231.08Z"></path><polygon class="cls-1" points="57.42 135.82 86.72 225.38 207.3 225.38 176.28 135.82 57.42 135.82"></polygon><path class="cls-7" d="M226.34,163.34c.66-.24,2.85-1.25,5.76-5.22,2.61-3.56,5.87-12.46,8.6-8.72-.3,4.75,0,10.38,0,10.38-.48,2.85-3.92,6.29-6.47,8l-8.54,4.33s-4.27-1.84-4.51-1.84l.36-2A22,22,0,0,0,226.34,163.34Z"></path><path class="cls-7" d="M228.78,163a3.6,3.6,0,0,0,.71-.11c-.12.59-.18,1.24-.24,1.83-1.13,2-2.25,4-3.38,6-1.07-.83-2.55-1.95-2.67-2L228,154.21s2-.18,2,3A14.93,14.93,0,0,1,228.78,163Z"></path><polygon class="cls-4" points="71.3 151.18 74.86 161.56 132.39 161.56 129.54 151.42 71.3 151.18"></polygon><polygon class="cls-5" points="146.09 151.24 153.74 175.2 183.46 195.13 169.82 151.24 146.09 151.24"></polygon><polygon class="cls-8" points="75.03 166.96 76.93 172.18 134.47 172.18 131.62 167.08 75.03 166.96"></polygon><polygon class="cls-1" points="78.71 180.42 80.67 185.64 138.14 185.64 135.36 180.6 78.71 180.42"></polygon><polygon class="cls-5" points="57.42 135.82 60.92 146.5 179.84 146.5 176.28 135.82 57.42 135.82"></polygon><path class="cls-2" d="M134.53,188.43s16.37,29.18,39.91,26.34,53.74-41.29,53.74-41.29L222,166.31l-36.78,21.11a13.89,13.89,0,0,1-17.08-2.61l-17.5-18.92Z"></path><polygon class="cls-9" points="135.24 143.53 136.54 156.58 122.6 157.11 125.39 136.94 135.24 143.53"></polygon><path class="cls-7" d="M139.51,145.9c1.6-.06,3.14-.29,3.91-1,4.69-6.82-.65-25.15-.65-25.15l-7.47-3.14-9.49,5.93-.6,12.28a10,10,0,0,0,4.21,8.48h0A19.09,19.09,0,0,0,139.51,145.9Z"></path><path class="cls-10" d="M127.29,129.59c.53-2.08.24-6.82,2.37-6.46,1.54.23,6.76.47,8.54.47,4.21,0,11.75-1.66,11.75-8.07,0-3.2-3.09-6-5.1-6.82a8.37,8.37,0,0,0-6.11-.06c-4.63,1.6-10.8,5.22-13.23,4.69-4.15-.83-8.25,1.6-8.19,5.1.06,3.74,2,9.37,3.86,13a20.18,20.18,0,0,0,4.21,5.52h0Z"></path><path class="cls-7" d="M123,130.07a3.15,3.15,0,0,1,3.91.35c1.25,1,1.49,2.55.54,3.38s-2.67.65-3.92-.35S122.07,130.9,123,130.07Z"></path><path class="cls-2" d="M158.43,225V190c0-15.42-12-36.65-27.4-37.25H129.6a46.81,46.81,0,0,0-6.46.48C109.14,155.39,99,167.79,99,182V225Z"></path><polygon class="cls-1" points="135.95 149.28 123.55 149.28 121.54 153.85 137.55 154.26 135.95 149.28"></polygon><path class="cls-2" d="M108.43,225.26l-.83-63.64s-10.44,4.57-15.37,31.26c-1.6,8.66-1.36,23.55-.65,32.38Z"></path><path class="cls-3" d="M109,224.43l-.59-46.68c-.42.66-.83,1.37-1.25,2l.59,44.66Z"></path><path class="cls-3" d="M157.72,195.25l.41,30.13h1.25L159,195.43Z"></path><path class="cls-6" d="M124.74,126.27h.35a4.63,4.63,0,0,1,4.63,4.63v.35a4.63,4.63,0,0,1-4.63,4.63h-.35a4.64,4.64,0,0,1-4.63-4.63v-.35A4.6,4.6,0,0,1,124.74,126.27Z"></path><path class="cls-6" d="M135.53,110a16.29,16.29,0,0,1,4.39-1.66h-6.46A10.45,10.45,0,0,0,123,118.8v9.84h1.66V118.8a8.75,8.75,0,0,1,8.78-8.78Z"></path><path class="cls-6" d="M142.47,141.28l-.47-1.61,3-.83a2,2,0,0,0,1.43-2.55c-.06-.12-.06-.23-.12-.35l-1.07-2.14-.41-4.27,3,5.64a3.67,3.67,0,0,1-1.66,5,2.85,2.85,0,0,1-.65.24Z"></path><path class="cls-6" d="M143,141.69l-2.14.53a1.49,1.49,0,0,1-1.78-1.06h0a1.5,1.5,0,0,1,1.07-1.78l2.14-.54a1.5,1.5,0,0,1,1.78,1.07h0A1.5,1.5,0,0,1,143,141.69Z"></path><polygon class="cls-1" points="63.82 137.9 65.84 143.29 101.72 143.29 99.29 137.9 63.82 137.9"></polygon><path class="cls-11" d="M151.49,139.73l.77-.29A63.42,63.42,0,0,1,186,137.36c12.93,2.67,30.37,4.92,40.1.12,6.58-3.26,14.41-20.7,12.81-31.62-1.19-8.36-8.54-14.53-17-15.24-12.76-1.07-36.42-1.78-47.81,6.47-16,11.62-16,32-16,32Z"></path><path class="cls-3" d="M210.74,110c.72-6.77-3.91-12.76-10.26-13.47a12,12,0,0,0-12.87,11,12.37,12.37,0,0,0,5.1,11.5,3.49,3.49,0,0,1,.24.83,11.3,11.3,0,0,0,.83,3.21,5,5,0,0,0,4.15,2.37h.36c.18,0,.41.06.59.06,1.25.06,3.15-.3,4-1.54a5.44,5.44,0,0,0,.41-.95c.12-.18.24-.42.36-.6a15.48,15.48,0,0,0,1-2.73A12.7,12.7,0,0,0,210.74,110Z"></path><path class="cls-11" d="M199.83,114.17a2.62,2.62,0,0,0,.71-.54c.66-.65,1.31-2,.54-2.84s-1.55.06-1.72.77a11.68,11.68,0,0,0-.24,2.49,1.65,1.65,0,0,1-.77.18.22.22,0,0,0-.06-.18c-.3-1.19-.95-2.85-2.26-3.38-1-.42-1.3.47-1.24,1.19a3.23,3.23,0,0,0,3.14,2.72c.06.3.12.66.18,1a28.28,28.28,0,0,1-.77,9.73c0,.12.24.18.24.06a20.11,20.11,0,0,0,.77-10.74,3.49,3.49,0,0,0,.71-.11c.06,1.12.18,2.25.18,3.26a21.29,21.29,0,0,1-1,7.23.23.23,0,0,0,.18.3.21.21,0,0,0,.29-.12c1.25-2.55,1.13-5.63,1-8.36A9.46,9.46,0,0,0,199.83,114.17Zm-4.15-1.42a1.42,1.42,0,0,1-.3-1.07c.24-.83.89-.48,1.37.06a5.44,5.44,0,0,1,1.18,2.49,3.48,3.48,0,0,1-2.25-1.48Zm4.21-.48a4,4,0,0,1,.12-.83l1,.42c.12.23-.42,1.12-.54,1.24l-.53.53a5.16,5.16,0,0,1,0-1.36Z"></path><path class="cls-6" d="M201,125.79a.65.65,0,0,0-.42-.71,1,1,0,0,0-.41-.06.76.76,0,0,0-.36-.06,7.15,7.15,0,0,1-2,.06,8.46,8.46,0,0,0-1.18-.29c-.42-.12-.71-.24-.95,0a.43.43,0,0,0-.12.29.74.74,0,0,0-.12.6,1,1,0,0,0,.48.59.56.56,0,0,0-.24.59,1,1,0,0,0,.47.6.89.89,0,0,0,.42.17c-.18,1.31,3.79,1.25,3.62.06v-.06a1.45,1.45,0,0,0,.59-.47.55.55,0,0,0-.06-.77A1.48,1.48,0,0,0,201,125.79Z"></path><polygon class="cls-2" points="270 120.69 259.09 114.7 253.57 113.58 249.36 114.23 270 120.69"></polygon><polyline class="cls-12" points="270 120.69 249.66 115.47 249.36 114.23"></polyline><polygon class="cls-12" points="249.06 118.97 249.06 118.97 249.95 122.18 269.94 120.69 249.06 118.97"></polygon><polygon class="cls-2" points="245.15 117.13 248.05 114.76 269.82 120.63 251.08 120.1 245.15 117.13"></polygon><path class="cls-3" d="M199.42,157.41c.65-.24,1.3-.53,2-.83a.4.4,0,0,1,.42.12.38.38,0,0,1-.12.41,12.15,12.15,0,0,1-2,.89,2.78,2.78,0,0,1-.77.24.36.36,0,0,1-.24-.06c0-.06,0-.12-.11-.18a.28.28,0,0,1,.17-.35C198.94,157.59,199.18,157.47,199.42,157.41Z"></path><path class="cls-3" d="M239.22,114.88c.94.12,1.89.24,2.9.47.18,0,.24.18.24.36h0a.33.33,0,0,1-.36.24c-1.06-.18-1.95-.36-2.9-.48-.06,0-.12,0-.12-.06a.43.43,0,0,1-.12-.29.41.41,0,0,1,.36-.24Z"></path><path class="cls-3" d="M234.29,115.12a.31.31,0,0,1-.12-.24.28.28,0,0,1,.3-.3c.95,0,2,.06,3,.12a.32.32,0,0,1,.29.3h0c0,.18-.18.3-.29.24-1-.06-2-.12-2.91-.12C234.41,115.18,234.35,115.18,234.29,115.12Z"></path><path class="cls-3" d="M205.11,153.85a.29.29,0,0,1,.42,0h0a.31.31,0,0,1,0,.42h0a18.4,18.4,0,0,1-2.32,1.89.36.36,0,0,1-.35,0l-.06-.06c-.12-.11-.06-.29.06-.41A22.89,22.89,0,0,0,205.11,153.85Z"></path><path class="cls-3" d="M206.36,153a.36.36,0,0,1-.06-.41,4.92,4.92,0,0,0,.47-.6,13.91,13.91,0,0,0,1.13-1.78.33.33,0,0,1,.41-.12.34.34,0,0,1,.12.42h0a20.57,20.57,0,0,1-1.18,1.84c-.18.24-.36.41-.54.65a.19.19,0,0,1-.35,0Z"></path><path class="cls-3" d="M208.85,149l-.06-.06a.29.29,0,0,1-.12-.36,23.26,23.26,0,0,0,.89-2.79.33.33,0,0,1,.35-.23.32.32,0,0,1,.24.35,17.65,17.65,0,0,1-1,2.85C209.14,148.93,209,149.05,208.85,149Z"></path><path class="cls-3" d="M216.68,123.78a11.2,11.2,0,0,0-.72,1c-.35.47-.65,1-1,1.42a.34.34,0,0,1-.42.12h0a.29.29,0,0,1-.06-.42,13.78,13.78,0,0,1,1-1.48c.24-.3.47-.65.71-1a.3.3,0,0,1,.42-.06h0A.37.37,0,0,1,216.68,123.78Z"></path><path class="cls-3" d="M214.07,127.63a26,26,0,0,0-1.19,2.67.27.27,0,0,1-.36.18.06.06,0,0,1-.06-.06.3.3,0,0,1-.11-.36,22.57,22.57,0,0,1,1.18-2.72.34.34,0,0,1,.42-.12h0a.36.36,0,0,1,.12.41Z"></path><path class="cls-3" d="M219.94,120.46a23.61,23.61,0,0,0-2.14,2,.35.35,0,0,1-.41.06h0a.28.28,0,0,1,0-.41h0a23,23,0,0,1,2.19-2,.3.3,0,0,1,.42.06h0A.23.23,0,0,1,219.94,120.46Z"></path><path class="cls-3" d="M225.4,117.13A.33.33,0,0,1,225,117a.29.29,0,0,1,.12-.36h0a24,24,0,0,1,2.79-1.07.28.28,0,0,1,.35.18.29.29,0,0,1-.18.36C227.23,116.42,226.29,116.72,225.4,117.13Z"></path><path class="cls-3" d="M210.86,139.79c-.17,0-.29-.18-.23-.29h0l.06-.36c.11-.83.17-1.72.29-2.55a.26.26,0,0,1,.36-.24c.18.06.29.18.24.36-.12.83-.24,1.72-.3,2.55l-.06.35a.68.68,0,0,1-.36.18Z"></path><path class="cls-3" d="M221.36,119.39a.36.36,0,0,1-.35,0l-.06-.06a.3.3,0,0,1,.06-.42h0a24.18,24.18,0,0,1,2.55-1.6.38.38,0,0,1,.41.12.4.4,0,0,1-.12.42h0A23.31,23.31,0,0,0,221.36,119.39Z"></path><path class="cls-3" d="M210.69,141a.26.26,0,0,1,.23.35h0c-.12,1.13-.29,2.08-.47,3,0,.18-.18.24-.36.24h0c-.06,0-.12,0-.12-.06s-.12-.18-.12-.3c.18-.83.3-1.78.48-2.9.06-.18.18-.36.36-.3Z"></path><path class="cls-3" d="M197,158.06a.33.33,0,0,1,.36.24c.06.18-.06.3-.24.35h0a24.9,24.9,0,0,1-3,.36A.22.22,0,0,1,194,159a.31.31,0,0,1-.12-.24.28.28,0,0,1,.3-.29A23,23,0,0,0,197,158.06Z"></path><path class="cls-3" d="M212.23,131.61a.32.32,0,0,1,.23.35c-.23.89-.41,1.78-.59,2.85,0,.18-.18.24-.29.24h0c-.06,0-.12,0-.12-.06s-.12-.18-.12-.3c.18-1.07.35-2,.59-2.9C211.93,131.67,212.05,131.61,212.23,131.61Z"></path><path class="cls-3" d="M231.62,114.76l1.07-.12a.3.3,0,0,1,0,.6,7.08,7.08,0,0,0-1,.11c-.59.06-1.24.18-1.9.3a.35.35,0,0,1-.23-.06c-.06-.06-.12-.12-.12-.18s.06-.29.24-.35h0C230.38,114.94,231,114.82,231.62,114.76Z"></path><path class="cls-13" d="M217.86,37.42c-3.56,5.16-6.46,10.85-9.61,16.19-1.36,2.31-2.72,4.63-4.09,6.88-.24-.83-.47-1.72-.77-2.55-1.13-3.74-1.9-9-5.75-10.92a2,2,0,0,0-2.2.72c-2.49,3.14-.77,8.72-.18,12.27.72,4.45,1.61,8.9,2.61,13.29.83,3.68,6.23,5.22,8.37,1.72,3.32-5.52,6.64-11.09,10-16.61s7-11.09,9.91-17C228.48,36.76,220.71,33.2,217.86,37.42Z"></path></svg> 