<?xml version="1.0" encoding="UTF-8"?> <svg xmlns="http://www.w3.org/2000/svg" id="Layer_1" data-name="Layer 1" viewBox="0 0 536 200"><defs><style>.cls-1{fill:#fff;}.cls-2{fill:#2db99d;}</style></defs><path class="cls-1" d="M480.52.23a81.71,81.71,0,0,1,21.12,1.15C522.35,6.09,531,23.32,532.44,38a46.94,46.94,0,0,1-3.19,22.06c-12.46,31.77-25,63.52-37,95.43-10.52,27.92-41.83,46.37-68.85,44.36-22.74-1.69-45.56-2.49-68.32-3.75Q309.55,193.58,264,191l-76.75-4.36-76.87-4.27c-20-1.12-39.94-2-59.86-3.39a33.78,33.78,0,0,1-22.17-11.39,46.62,46.62,0,0,1-12.71-25.47c-3.94-25.83-8-51.65-11.73-77.5a41.25,41.25,0,0,1,6.76-30.2,27.65,27.65,0,0,1,22.2-12.76L79,19.43,169,15.13l90.58-4.31,90.07-4.29,90.06-4.29Zm.75,7.56c-6.35.36-12.69.73-19,1l-45,2.16-45,2.15-45.56,2.14-45,2.15-45,2.15-45,2.16-45,2.15-45.52,2.25-45,2L31.87,29.37a17.79,17.79,0,0,0-11.79,5.38,28.27,28.27,0,0,0-8.87,21.66,262.23,262.23,0,0,0,3.33,27.66c2.73,18.29,5.49,36.34,8.2,54.53a40.8,40.8,0,0,0,10.38,22.46,27.59,27.59,0,0,0,19.41,9.69c6.71.26,13.41.7,20.12,1.06l32.27,1.85,25.93,1.46c9.52.56,19,1.21,28.56,1.73s18.7.9,28,1.44c15.53.9,31,2,46.55,2.85,15.85.9,31.69,1.64,47.54,2.47,7,.36,14.12.74,21.17,1.14,9.51.58,19,1.24,28.54,1.78s19.06.93,28.59,1.43c10.93.58,21.78,1.22,32.8,1.82,8.83.48,17.66.7,26.46,1.55a56,56,0,0,0,18.44-.54c21.79-5.24,38.41-17,46.88-38.55,12.46-31.65,24.58-63.46,37-95.13a37,37,0,0,0,2.36-22.06c-2.93-13.22-10-22.58-23.61-26.07-6.18-1.61-12.5-1.17-18.86-1.19"></path><path class="cls-2" d="M481.27,7.79c6.36,0,12.68-.42,19,1.23,13.57,3.51,20.68,12.87,23.61,26.07a37,37,0,0,1-2.36,22.06c-12.38,31.67-24.5,63.48-37,95.13-8.48,21.58-25.17,33.31-46.88,38.55a56,56,0,0,1-18.44.54c-8.8-.85-17.63-1.07-26.46-1.55-10.94-.6-21.79-1.24-32.8-1.82-9.53-.5-19.06-.9-28.59-1.43s-19-1.2-28.54-1.78c-7.05-.4-14.12-.78-21.17-1.14-15.85-.83-31.69-1.57-47.54-2.47-15.51-.88-31-2-46.55-2.85-9.35-.54-18.69-.92-28-1.44s-19-1.17-28.57-1.73L105,173.7l-32.31-1.89c-6.71-.36-13.41-.8-20.12-1.06a27.59,27.59,0,0,1-19.49-9.69,40.8,40.8,0,0,1-10.4-22.46c-2.69-18.19-5.45-36.24-8.18-54.53a261.48,261.48,0,0,1-3.33-27.62,28.27,28.27,0,0,1,8.87-21.66,17.79,17.79,0,0,1,11.79-5.38l24.36-1.26,45-2L146.77,24l45-2.15,45-2.26,45-2.15,45-2.15,45.56-2.14,45-2.15,45-2.16c6.32-.32,12.66-.75,19-1"></path><path class="cls-1" d="M73.72,105.09c3.53,5.89,7.11,11.79,10.62,17.73a21.48,21.48,0,0,1,2.1,4.31,3,3,0,0,1-1.64,4l-.16.06a5,5,0,0,1-3.81-.7,10.07,10.07,0,0,1-2.57-3.33c-3.71-6-7.39-12.18-11-18.33a4.9,4.9,0,0,0-5.07-3c-2.62.22-5.25,0-8.2,0-.14,1.68-.34,3-.34,4.43v16.65a4.21,4.21,0,0,1-3.76,4.61l-.2,0c-2-.14-3.31-1.7-3.31-4.61V70c0-3.29,1.13-4.66,4.46-4.64a107.24,107.24,0,0,1,19.53.91c11.88,2.22,16.32,14,15,22.56C84,96.16,82,98.89,73.72,105.09M53.9,98.35c4.59,0,8.81.28,13,0A12.08,12.08,0,0,0,78,87.36a12.63,12.63,0,0,0-9.25-13.74A42.37,42.37,0,0,0,54,73.12Z"></path><path class="cls-1" d="M226.71,91.13v-22a3.65,3.65,0,0,1,3.68-3.62h.07a3.53,3.53,0,0,1,3.32,3.57v2.14c0,11.81.34,23.65.2,35.46a34.22,34.22,0,0,1-1.86,10.47c-3.27,9.59-11.27,14.6-21.79,14.7a21.83,21.83,0,0,1-20.56-15.48A24.83,24.83,0,0,1,193.4,93a21.16,21.16,0,0,1,29.71-4.35c1,.78,2,1.4,3.6,2.49m-31.07,16.58a42.79,42.79,0,0,0,1,6.28,15.13,15.13,0,0,0,15.15,11,15.53,15.53,0,0,0,14.46-12.71A16.55,16.55,0,0,0,220.63,95a14.11,14.11,0,0,0-15.84-1.85,15.45,15.45,0,0,0-9.15,14.6"></path><path class="cls-1" d="M277.89,116.4c1-3.19,2-6.38,2.93-9.57q2.69-9,5.26-17.93c.59-2,1.48-3.59,4-3.55s3.22,1.65,3.8,3.69c2.4,8.56,4.87,17.11,7.35,25.65a18.55,18.55,0,0,0,1,2.11c.79-2,1.48-3.53,2-5.1,2.2-7,4.32-13.91,6.5-20.87a22,22,0,0,1,1.48-4,3,3,0,0,1,4-1.25l.12.07a4,4,0,0,1,1.8,2.81,10.9,10.9,0,0,1-.75,4.15q-5.19,16.55-10.48,33.07c-.79,2.49-1.25,5.76-4.55,5.78s-3.79-3.11-4.52-5.7c-2-7.18-4.16-14.34-6.28-21.52-.43-1.44-.95-2.88-1.78-5.43-1.74,5.77-3.19,10.51-4.56,15.24-1.2,4.11-2.25,8.24-3.48,12.34a13.45,13.45,0,0,1-1.77,3.85,2.86,2.86,0,0,1-4.91.26,11.07,11.07,0,0,1-1.86-3.73q-5.57-17-11-34.1a9.12,9.12,0,0,1-.73-3.65c.13-1.24.61-3,1.48-3.45a3.08,3.08,0,0,1,4.3.93c.08.13.15.26.22.39a47,47,0,0,1,1.82,5q3.86,12.19,7.68,24.41Z"></path><path class="cls-1" d="M174.2,125.62c-1.2.79-2.12,1.29-2.93,1.91a20.47,20.47,0,0,1-22.93,2c-8.14-4.11-11.49-11.33-12-20.53a23.45,23.45,0,0,1,18.28-24.07c11.89-2.45,24.84,5.88,26.37,18,.95,7.78.65,15.7.83,23.57a9.55,9.55,0,0,1-.63,2.58,3.36,3.36,0,0,1-6.64-.46c-.06-.94-.18-1.78-.32-3M159.07,91.67c-8.91-.3-15.49,8-15.57,16-.12,9.63,6.14,17.07,15.55,17.21,8.42.14,15.27-7.32,15.41-16.42a16,16,0,0,0-15.05-16.82h-.34"></path><path class="cls-1" d="M98.48,111a14.44,14.44,0,0,0,14.78,14.11,13.54,13.54,0,0,0,2.45-.29,36.93,36.93,0,0,0,6.34-2.53c.81-.34,1.55-1.22,2.3-1.2a6.23,6.23,0,0,1,3.7,1,2.58,2.58,0,0,1,.5,3.57,2.67,2.67,0,0,1-.67.63,31,31,0,0,1-9.73,5c-17.51,3.49-27.19-9.11-27.45-21.08a28,28,0,0,1,3.48-15.88,20.88,20.88,0,0,1,24.51-8.81c8.33,2.69,14.36,12,13.74,21.34a3.77,3.77,0,0,1-3.45,4,24.06,24.06,0,0,1-3.7.14H98.48Zm26.64-6.64c-1.44-8.84-6.3-13-14.06-12.65a12.7,12.7,0,0,0-12.58,12.65Z"></path><path class="cls-1" d="M415.79,111.26c3,12.46,13.35,17.21,23.77,11.48.61-.35,1.13-.89,1.74-1.21,2.32-1.2,4.22-.92,5.07.8a3.53,3.53,0,0,1-1.09,4.84,3.62,3.62,0,0,1-.43.24,33.39,33.39,0,0,1-9.65,4.13c-12,1.75-20-3.31-24.22-12-4.72-9.93-2.52-23,5.07-29.69,11.78-10.37,30.8-5,33.89,11.46,1.64,8.88,1,9.8-7.71,9.8H418.86a20,20,0,0,0-3.07.18m.34-7h27C442,96.38,437.64,92,430.92,91.67c-7.86-.4-12.49,3.41-14.79,12.55"></path><path class="cls-1" d="M382.83,93.55l-4.77-.42a2.75,2.75,0,0,1-2.77-2.69,3.06,3.06,0,0,1,2.38-3.6h0a37,37,0,0,1,5.13-.6V75c.16-2.81,1.43-4.39,3.49-4.53s3.72,1.64,4,4.69V86.31l5.37.26a8.55,8.55,0,0,1,3.62.4,5.11,5.11,0,0,1,2.44,3.09,2.8,2.8,0,0,1-2.52,3,3.38,3.38,0,0,1-.45,0h-8.36c0,8.43-.28,16.25.12,24.07.2,3.65,2.95,6,6.57,6.82a14.61,14.61,0,0,0,2.64.2c2.26,0,3.82,1,3.86,3.45a4,4,0,0,1-4,4h-.16a14.52,14.52,0,0,1-14.42-8,24.51,24.51,0,0,1-2.1-8.71c-.3-6.92-.1-13.9-.1-21.38"></path><path class="cls-1" d="M466.08,89.54a17.51,17.51,0,0,1,13.29-5.11,18.28,18.28,0,0,1,3.59.72c1.88.48,3.27,1.54,3,3.73-.3,2.51-2.1,3.07-4.24,3.05-1.23,0-2.46-.12-3.7,0-8.07,0-12.4,4.27-12.58,12.49-.14,6.62,0,13.26,0,19.88v3.23c-.26,2.79-1.67,4.33-3.79,4.23s-3.32-1.56-3.34-4.53V90.73c0-2-.5-4.5,2.39-5.26,2.36-.72,3.49.08,5.39,4.07"></path><path class="cls-1" d="M332,89.46c4.26-3.35,8.44-5.47,13.49-5a19.88,19.88,0,0,1,3.58.7c1.86.54,3.21,1.58,2.93,3.81s-1.72,3-3.72,3h-4.22c-6.52-.22-13,4-12.56,12.53.36,6.78,0,13.6,0,20.4a16.72,16.72,0,0,1-.39,4.23,3.32,3.32,0,0,1-3.89,2.65l-.07,0a3.14,3.14,0,0,1-2.74-3.41v-37c0-2.13-1.05-4.9,2.28-5.76s4.5,1.08,5.31,4"></path><path class="cls-1" d="M246.9,108.6V89.28c0-2.27.69-3.81,3.19-4,2-.14,3.5.54,4,2.71a26.05,26.05,0,0,1,.35,4.23v32.21a15.56,15.56,0,0,1-.27,3.73c-.54,2-1.61,3.79-4,3.43a3.6,3.6,0,0,1-3.2-3.94,1.87,1.87,0,0,1,0-.25V115.05c-.12-2.14-.1-4.29-.1-6.45"></path><path class="cls-1" d="M360.51,107.85V90.16c0-3.75.77-4.79,3.31-4.89s3.78,1.12,3.84,5.08c.1,5.89,0,11.79,0,17.7V125.2a7.43,7.43,0,0,1-.38,3.65,5.91,5.91,0,0,1-3.38,2.67c-2,.26-3.27-1.12-3.33-3.29v-8Z"></path><path class="cls-1" d="M359.24,72.11a4.79,4.79,0,0,1,4.67-4.9h.38A5.3,5.3,0,0,1,369,72.63a5.56,5.56,0,0,1-5.27,5,4.86,4.86,0,0,1-4.53-5.15l0-.33"></path><path class="cls-1" d="M245.63,72.49a4.78,4.78,0,0,1,4.23-5.25l.46,0a5.08,5.08,0,0,1,5.07,5,5.45,5.45,0,0,1-4.85,5.38,4.9,4.9,0,0,1-4.91-4.89,1.77,1.77,0,0,1,0-.23"></path><path class="cls-1" d="M480.52.23a81.71,81.71,0,0,1,21.12,1.15C522.35,6.09,531,23.32,532.44,38a46.94,46.94,0,0,1-3.19,22.06c-12.46,31.77-25,63.52-37,95.43-10.52,27.92-41.83,46.37-68.85,44.36-22.74-1.69-45.56-2.49-68.32-3.75Q309.55,193.58,264,191l-76.75-4.36-76.87-4.27c-20-1.12-39.94-2-59.86-3.39a33.78,33.78,0,0,1-22.17-11.39,46.62,46.62,0,0,1-12.71-25.47c-3.94-25.83-8-51.65-11.73-77.5a41.25,41.25,0,0,1,6.76-30.2,27.65,27.65,0,0,1,22.2-12.76L79,19.43,169,15.13l90.58-4.31,90.07-4.29,90.06-4.29Zm.75,7.56c-6.35.36-12.69.73-19,1l-45,2.16-45,2.15-45.56,2.14-45,2.15-45,2.15-45,2.16-45,2.15-45.52,2.25-45,2L31.87,29.37a17.79,17.79,0,0,0-11.79,5.38,28.27,28.27,0,0,0-8.87,21.66,262.23,262.23,0,0,0,3.33,27.66c2.73,18.29,5.49,36.34,8.2,54.53a40.8,40.8,0,0,0,10.38,22.46,27.59,27.59,0,0,0,19.41,9.69c6.71.26,13.41.7,20.12,1.06l32.27,1.85,25.93,1.46c9.52.56,19,1.21,28.56,1.73s18.7.9,28,1.44c15.53.9,31,2,46.55,2.85,15.85.9,31.69,1.64,47.54,2.47,7,.36,14.12.74,21.17,1.14,9.51.58,19,1.24,28.54,1.78s19.06.93,28.59,1.43c10.93.58,21.78,1.22,32.8,1.82,8.83.48,17.66.7,26.46,1.55a56,56,0,0,0,18.44-.54c21.79-5.24,38.41-17,46.88-38.55,12.46-31.65,24.58-63.46,37-95.13a37,37,0,0,0,2.36-22.06c-2.93-13.22-10-22.58-23.61-26.07-6.18-1.61-12.5-1.17-18.86-1.19"></path><path class="cls-2" d="M481.27,7.79c6.36,0,12.68-.42,19,1.23,13.57,3.51,20.68,12.87,23.61,26.07a37,37,0,0,1-2.36,22.06c-12.38,31.67-24.5,63.48-37,95.13-8.48,21.58-25.17,33.31-46.88,38.55a56,56,0,0,1-18.44.54c-8.8-.85-17.63-1.07-26.46-1.55-10.94-.6-21.79-1.24-32.8-1.82-9.53-.5-19.06-.9-28.59-1.43s-19-1.2-28.54-1.78c-7.05-.4-14.12-.78-21.17-1.14-15.85-.83-31.69-1.57-47.54-2.47-15.51-.88-31-2-46.55-2.85-9.35-.54-18.69-.92-28-1.44s-19-1.17-28.57-1.73L105,173.7l-32.31-1.89c-6.71-.36-13.41-.8-20.12-1.06a27.59,27.59,0,0,1-19.49-9.69,40.8,40.8,0,0,1-10.4-22.46c-2.69-18.19-5.45-36.24-8.18-54.53a261.48,261.48,0,0,1-3.33-27.62,28.27,28.27,0,0,1,8.87-21.66,17.79,17.79,0,0,1,11.79-5.38l24.36-1.26,45-2L146.77,24l45-2.15,45-2.26,45-2.15,45-2.15,45.56-2.14,45-2.15,45-2.16c6.32-.32,12.66-.75,19-1"></path><path class="cls-1" d="M73.72,105.09c3.53,5.89,7.11,11.79,10.62,17.73a21.48,21.48,0,0,1,2.1,4.31,3,3,0,0,1-1.64,4l-.16.06a5,5,0,0,1-3.81-.7,10.07,10.07,0,0,1-2.57-3.33c-3.71-6-7.39-12.18-11-18.33a4.9,4.9,0,0,0-5.07-3c-2.62.22-5.25,0-8.2,0-.14,1.68-.34,3-.34,4.43v16.65a4.21,4.21,0,0,1-3.76,4.61l-.2,0c-2-.14-3.31-1.7-3.31-4.61V70c0-3.29,1.13-4.66,4.46-4.64a107.24,107.24,0,0,1,19.53.91c11.88,2.22,16.32,14,15,22.56C84,96.16,82,98.89,73.72,105.09M53.9,98.35c4.59,0,8.81.28,13,0A12.08,12.08,0,0,0,78,87.36a12.63,12.63,0,0,0-9.25-13.74A42.37,42.37,0,0,0,54,73.12Z"></path><path class="cls-1" d="M226.71,91.13v-22a3.65,3.65,0,0,1,3.68-3.62h.07a3.53,3.53,0,0,1,3.32,3.57v2.14c0,11.81.34,23.65.2,35.46a34.22,34.22,0,0,1-1.86,10.47c-3.27,9.59-11.27,14.6-21.79,14.7a21.83,21.83,0,0,1-20.56-15.48A24.83,24.83,0,0,1,193.4,93a21.16,21.16,0,0,1,29.71-4.35c1,.78,2,1.4,3.6,2.49m-31.07,16.58a42.79,42.79,0,0,0,1,6.28,15.13,15.13,0,0,0,15.15,11,15.53,15.53,0,0,0,14.46-12.71A16.55,16.55,0,0,0,220.63,95a14.11,14.11,0,0,0-15.84-1.85,15.45,15.45,0,0,0-9.15,14.6"></path><path class="cls-1" d="M277.89,116.4c1-3.19,2-6.38,2.93-9.57q2.69-9,5.26-17.93c.59-2,1.48-3.59,4-3.55s3.22,1.65,3.8,3.69c2.4,8.56,4.87,17.11,7.35,25.65a18.55,18.55,0,0,0,1,2.11c.79-2,1.48-3.53,2-5.1,2.2-7,4.32-13.91,6.5-20.87a22,22,0,0,1,1.48-4,3,3,0,0,1,4-1.25l.12.07a4,4,0,0,1,1.8,2.81,10.9,10.9,0,0,1-.75,4.15q-5.19,16.55-10.48,33.07c-.79,2.49-1.25,5.76-4.55,5.78s-3.79-3.11-4.52-5.7c-2-7.18-4.16-14.34-6.28-21.52-.43-1.44-.95-2.88-1.78-5.43-1.74,5.77-3.19,10.51-4.56,15.24-1.2,4.11-2.25,8.24-3.48,12.34a13.45,13.45,0,0,1-1.77,3.85,2.86,2.86,0,0,1-4.91.26,11.07,11.07,0,0,1-1.86-3.73q-5.57-17-11-34.1a9.12,9.12,0,0,1-.73-3.65c.13-1.24.61-3,1.48-3.45a3.08,3.08,0,0,1,4.3.93c.08.13.15.26.22.39a47,47,0,0,1,1.82,5q3.86,12.19,7.68,24.41Z"></path><path class="cls-1" d="M174.2,125.62c-1.2.79-2.12,1.29-2.93,1.91a20.47,20.47,0,0,1-22.93,2c-8.14-4.11-11.49-11.33-12-20.53a23.45,23.45,0,0,1,18.28-24.07c11.89-2.45,24.84,5.88,26.37,18,.95,7.78.65,15.7.83,23.57a9.55,9.55,0,0,1-.63,2.58,3.36,3.36,0,0,1-6.64-.46c-.06-.94-.18-1.78-.32-3M159.07,91.67c-8.91-.3-15.49,8-15.57,16-.12,9.63,6.14,17.07,15.55,17.21,8.42.14,15.27-7.32,15.41-16.42a16,16,0,0,0-15.05-16.82h-.34"></path><path class="cls-1" d="M98.48,111a14.44,14.44,0,0,0,14.78,14.11,13.54,13.54,0,0,0,2.45-.29,36.93,36.93,0,0,0,6.34-2.53c.81-.34,1.55-1.22,2.3-1.2a6.23,6.23,0,0,1,3.7,1,2.58,2.58,0,0,1,.5,3.57,2.67,2.67,0,0,1-.67.63,31,31,0,0,1-9.73,5c-17.51,3.49-27.19-9.11-27.45-21.08a28,28,0,0,1,3.48-15.88,20.88,20.88,0,0,1,24.51-8.81c8.33,2.69,14.36,12,13.74,21.34a3.77,3.77,0,0,1-3.45,4,24.06,24.06,0,0,1-3.7.14H98.48Zm26.64-6.64c-1.44-8.84-6.3-13-14.06-12.65a12.7,12.7,0,0,0-12.58,12.65Z"></path><path class="cls-1" d="M415.79,111.26c3,12.46,13.35,17.21,23.77,11.48.61-.35,1.13-.89,1.74-1.21,2.32-1.2,4.22-.92,5.07.8a3.53,3.53,0,0,1-1.09,4.84,3.62,3.62,0,0,1-.43.24,33.39,33.39,0,0,1-9.65,4.13c-12,1.75-20-3.31-24.22-12-4.72-9.93-2.52-23,5.07-29.69,11.78-10.37,30.8-5,33.89,11.46,1.64,8.88,1,9.8-7.71,9.8H418.86a20,20,0,0,0-3.07.18m.34-7h27C442,96.38,437.64,92,430.92,91.67c-7.86-.4-12.49,3.41-14.79,12.55"></path><path class="cls-1" d="M382.83,93.55l-4.77-.42a2.75,2.75,0,0,1-2.77-2.69,3.06,3.06,0,0,1,2.38-3.6h0a37,37,0,0,1,5.13-.6V75c.16-2.81,1.43-4.39,3.49-4.53s3.72,1.64,4,4.69V86.31l5.37.26a8.55,8.55,0,0,1,3.62.4,5.11,5.11,0,0,1,2.44,3.09,2.8,2.8,0,0,1-2.52,3,3.38,3.38,0,0,1-.45,0h-8.36c0,8.43-.28,16.25.12,24.07.2,3.65,2.95,6,6.57,6.82a14.61,14.61,0,0,0,2.64.2c2.26,0,3.82,1,3.86,3.45a4,4,0,0,1-4,4h-.16a14.52,14.52,0,0,1-14.42-8,24.51,24.51,0,0,1-2.1-8.71c-.3-6.92-.1-13.9-.1-21.38"></path><path class="cls-1" d="M466.08,89.54a17.51,17.51,0,0,1,13.29-5.11,18.28,18.28,0,0,1,3.59.72c1.88.48,3.27,1.54,3,3.73-.3,2.51-2.1,3.07-4.24,3.05-1.23,0-2.46-.12-3.7,0-8.07,0-12.4,4.27-12.58,12.49-.14,6.62,0,13.26,0,19.88v3.23c-.26,2.79-1.67,4.33-3.79,4.23s-3.32-1.56-3.34-4.53V90.73c0-2-.5-4.5,2.39-5.26,2.36-.72,3.49.08,5.39,4.07"></path><path class="cls-1" d="M332,89.46c4.26-3.35,8.44-5.47,13.49-5a19.88,19.88,0,0,1,3.58.7c1.86.54,3.21,1.58,2.93,3.81s-1.72,3-3.72,3h-4.22c-6.52-.22-13,4-12.56,12.53.36,6.78,0,13.6,0,20.4a16.72,16.72,0,0,1-.39,4.23,3.32,3.32,0,0,1-3.89,2.65l-.07,0a3.14,3.14,0,0,1-2.74-3.41v-37c0-2.13-1.05-4.9,2.28-5.76s4.5,1.08,5.31,4"></path><path class="cls-1" d="M246.9,108.6V89.28c0-2.27.69-3.81,3.19-4,2-.14,3.5.54,4,2.71a26.05,26.05,0,0,1,.35,4.23v32.21a15.56,15.56,0,0,1-.27,3.73c-.54,2-1.61,3.79-4,3.43a3.6,3.6,0,0,1-3.2-3.94,1.87,1.87,0,0,1,0-.25V115.05c-.12-2.14-.1-4.29-.1-6.45"></path><path class="cls-1" d="M360.51,107.85V90.16c0-3.75.77-4.79,3.31-4.89s3.78,1.12,3.84,5.08c.1,5.89,0,11.79,0,17.7V125.2a7.43,7.43,0,0,1-.38,3.65,5.91,5.91,0,0,1-3.38,2.67c-2,.26-3.27-1.12-3.33-3.29v-8Z"></path><path class="cls-1" d="M359.24,72.11a4.79,4.79,0,0,1,4.67-4.9h.38A5.3,5.3,0,0,1,369,72.63a5.56,5.56,0,0,1-5.27,5,4.86,4.86,0,0,1-4.53-5.15l0-.33"></path><path class="cls-1" d="M245.63,72.49a4.78,4.78,0,0,1,4.23-5.25l.46,0a5.08,5.08,0,0,1,5.07,5,5.45,5.45,0,0,1-4.85,5.38,4.9,4.9,0,0,1-4.91-4.89,1.77,1.77,0,0,1,0-.23"></path></svg> 