<?xml version="1.0" encoding="UTF-8"?> <svg xmlns="http://www.w3.org/2000/svg" id="Layer_1" data-name="Layer 1" viewBox="0 0 322 200"><defs><style>.cls-1{fill:#1eafe5;}.cls-2{fill:#a4cd39;}.cls-3{fill:#c64196;}.cls-4{fill:#fff;}.cls-5{fill:#ffc90f;}</style></defs><path d="M2.7,0H20.12Q30.73,0,36.54,4.81t5.83,13.52q0,9.81-5.92,14.83a22.17,22.17,0,0,1-9.58,4.35L43,59.46H30L13.7,35.71V59.46H2.7Zm11,28.53h5.6c4,0,7-.76,9-2.28s3-3.79,3-6.83-1-5.35-3-6.88-5-2.29-9-2.29H13.7Z"></path><path d="M68.8,61A22.22,22.22,0,0,1,52.34,54a23.15,23.15,0,0,1-6.8-16.83,23.25,23.25,0,0,1,6.8-16.87,23,23,0,0,1,33,0,23.34,23.34,0,0,1,6.8,16.89,28.24,28.24,0,0,1-.39,4.71H56.94a14,14,0,0,0,3,5.25,11.83,11.83,0,0,0,9.1,4,12.56,12.56,0,0,0,6.19-1.55c1.87-1,3.25-2.43,4.6-5.55h11.3c-1.9,6.11-4.61,9.87-8.59,12.68A23.22,23.22,0,0,1,68.8,61M80.89,33.4a13.33,13.33,0,0,0-3.17-6.19,11.87,11.87,0,0,0-17.88,0,15.12,15.12,0,0,0-3.22,6.19Z"></path><path d="M119.9,61A20.64,20.64,0,0,1,104.25,54,23.78,23.78,0,0,1,97.78,37.2a23.93,23.93,0,0,1,6.47-16.87,20.63,20.63,0,0,1,15.69-7A20.23,20.23,0,0,1,135,19.75V14.86h9.85v44.6H135V54.61A20.65,20.65,0,0,1,119.9,61m1.77-37.91a12.27,12.27,0,0,0-9.38,4.07,14.27,14.27,0,0,0-3.76,10.08,14.16,14.16,0,0,0,3.76,10,12.87,12.87,0,0,0,18.73,0,14.16,14.16,0,0,0,3.79-10.07A14.21,14.21,0,0,0,131,27.1a12.25,12.25,0,0,0-9.37-4.05"></path><path d="M173.48,61A20.54,20.54,0,0,1,157.88,54a23.81,23.81,0,0,1-6.45-16.83,23.41,23.41,0,0,1,6.71-16.87,21.69,21.69,0,0,1,16.24-7,19.63,19.63,0,0,1,13.26,5.06V0h10.69V59.46H188.5V54.65a20.32,20.32,0,0,1-15,6.31m1.72-37.91a12.12,12.12,0,0,0-9.28,4.07,14.34,14.34,0,0,0-3.74,10.08,14.26,14.26,0,0,0,3.72,10,12.1,12.1,0,0,0,9.26,4,12.27,12.27,0,0,0,9.34-4,14.23,14.23,0,0,0,3.76-10.07,14.2,14.2,0,0,0-3.75-10.06,12.15,12.15,0,0,0-9.31-4.05"></path><path d="M206,0h10.7V9.79H206Zm0,12.35h10.7V59.46H206Z"></path><path d="M225.38,14.86h10v3.83a16.68,16.68,0,0,1,12.39-5.33q7.94,0,12.58,5.36T265,33.19V59.46h-10.7V35.59q0-6.14-2.28-9.31a7.65,7.65,0,0,0-6.64-3.18,8,8,0,0,0-6.94,3.22q-2.33,3.22-2.32,9.66V59.46h-10.7Z"></path><path d="M295.27,67.84a13.31,13.31,0,0,0,10.26-4.27,15.06,15.06,0,0,0,3.88-9.43A21,21,0,0,1,293.8,61,20.44,20.44,0,0,1,278.27,54a23.88,23.88,0,0,1-6.43-16.83,24,24,0,0,1,6.43-16.87,20.41,20.41,0,0,1,15.57-7,19.91,19.91,0,0,1,15.1,6.47v-5H319.3V51.1q0,12-6.68,19.27t-17.75,7.26a24.67,24.67,0,0,1-14-4,19.36,19.36,0,0,1-8.05-10.74h12.45a8.22,8.22,0,0,0,3.86,3.62,13.67,13.67,0,0,0,6.16,1.35m.3-44.79a12.06,12.06,0,0,0-9.26,4.07,14.37,14.37,0,0,0-3.72,10.08,14.26,14.26,0,0,0,3.72,10,12.6,12.6,0,0,0,18.49,0,14.26,14.26,0,0,0,3.75-10.07,14.31,14.31,0,0,0-3.73-10.06,12,12,0,0,0-9.25-4.05"></path><path class="cls-1" d="M83.32,143.73a91,91,0,0,0-1.19-10.18c-3.81-21.84-16-44.61-34.56-46.23S13.06,106,5.51,126.84a91,91,0,0,0-2.94,9.82A81.08,81.08,0,0,0,.65,148.35c-2.37,27.06,12,45.26,37.43,47.48s42.74-13.2,45.1-40.25A79.08,79.08,0,0,0,83.32,143.73Z"></path><path class="cls-2" d="M169.23,144.72A95.23,95.23,0,0,0,167,131.11a106.73,106.73,0,0,0-3.43-11.42c-8.76-24.21-27.23-47.8-48.73-45.92s-35.6,28.32-40,53.68a105.28,105.28,0,0,0-1.39,11.85,94.26,94.26,0,0,0,.16,13.79c1.42,16.24,7.09,28.62,16.85,36.81,9.15,7.68,21.39,11.09,35.42,9.85s25.5-6.7,33.17-15.85c7-8.33,10.51-19.14,10.51-32.23Q169.54,148.29,169.23,144.72Z"></path><path class="cls-3" d="M249.75,140a101.67,101.67,0,0,0-1.81-11.23c-5.28-24-19.85-48.69-40.48-49.6s-37.29,22.39-44.64,45.87a102,102,0,0,0-2.79,11,90,90,0,0,0-1.57,13.08c-1.31,30.07,15.45,49.52,43.73,50.76,13.45.59,25-3.18,33.42-10.9,9-8.22,13.88-20.29,14.56-35.85.05-1.21.08-2.44.08-3.67A92.78,92.78,0,0,0,249.75,140Z"></path><path class="cls-4" d="M210.7,159.72q-4.06,2.78-10.82,2.47a27,27,0,0,1-5.18-.91q-10.06-2.84-14-14.07a33.35,33.35,0,0,1-.59-20.49,27.72,27.72,0,0,1,8.5-13.81,21.09,21.09,0,0,1,15.25-5.24,18.06,18.06,0,0,1,4,.67,16.64,16.64,0,0,1,7.05,3.86,9.33,9.33,0,0,1,9.33-2.82,8,8,0,0,1,4.72,3.49,9.76,9.76,0,0,1,1.48,6l-1.8,37.54a30.62,30.62,0,0,1-1.09,7.18,21.78,21.78,0,0,1-9.79,13.26q-7.29,4.41-17.53,3.85a30.78,30.78,0,0,1-7.22-1.29A34.41,34.41,0,0,1,183,175q-6-3.94-4.65-8.72a9.16,9.16,0,0,1,2.88-4.39,6.38,6.38,0,0,1,4.68-1.81,11.56,11.56,0,0,1,2.5.42,39.2,39.2,0,0,1,4.51,1.8,40.25,40.25,0,0,0,5,1.93,17.4,17.4,0,0,0,4,.67q7,.39,8.69-5.22M197,131.1a13.39,13.39,0,0,0-.5,3.42q-.51,9.4,5.65,11.15a6.68,6.68,0,0,0,6.12-1.08,9.67,9.67,0,0,0,3.38-5.32,17.37,17.37,0,0,0-.77-10.9,7.07,7.07,0,0,0-4.5-4,6.09,6.09,0,0,0-6,1.3,10.28,10.28,0,0,0-3.4,5.41"></path><path d="M188.22,112.46a28.37,28.37,0,0,0-8.68,14.1,34,34,0,0,0,.6,20.84c2.68,7.65,7.53,12.51,14.4,14.45a26.64,26.64,0,0,0,5.3.92,19.44,19.44,0,0,0,9.64-1.7c-1.32,2.39-3.75,3.48-7.44,3.27a16.54,16.54,0,0,1-3.89-.64,38.39,38.39,0,0,1-5-1.91,38.29,38.29,0,0,0-4.59-1.81,11.6,11.6,0,0,0-2.63-.45,7,7,0,0,0-5.11,2,9.85,9.85,0,0,0-3.05,4.67c-1,3.44.67,6.59,4.9,9.37A34.93,34.93,0,0,0,192.87,180a31.57,31.57,0,0,0,7.37,1.32c6.9.37,12.91-1,17.85-3.94a22.44,22.44,0,0,0,10.06-13.61,31.21,31.21,0,0,0,1.11-7.32l1.8-37.53a10.31,10.31,0,0,0-1.57-6.39,8.62,8.62,0,0,0-5.06-3.74,9.14,9.14,0,0,0-2.22-.33,8.72,8.72,0,0,0-7.31,2.92,17.38,17.38,0,0,0-6.85-3.63,19.25,19.25,0,0,0-4.16-.7,21.8,21.8,0,0,0-15.67,5.39m11.69,49.13a26.6,26.6,0,0,1-5-.88c-6.47-1.83-11.05-6.44-13.6-13.7a32.79,32.79,0,0,1-.57-20.13A27.11,27.11,0,0,1,189,113.36a20.64,20.64,0,0,1,14.83-5.1,17.57,17.57,0,0,1,3.9.65,16.18,16.18,0,0,1,6.81,3.72l.48.46.4-.53a7.43,7.43,0,0,1,6.75-2.89,7.67,7.67,0,0,1,1.93.28,7.36,7.36,0,0,1,4.39,3.24,9.19,9.19,0,0,1,1.39,5.68l-1.8,37.54a30,30,0,0,1-1.08,7.06,21.23,21.23,0,0,1-9.52,12.91c-4.73,2.86-10.52,4.13-17.19,3.77a30,30,0,0,1-7.09-1.27,33.71,33.71,0,0,1-9.82-4.33c-3.8-2.5-5.25-5.14-4.42-8.07a8.64,8.64,0,0,1,2.7-4.1,5.76,5.76,0,0,1,4.25-1.67,11,11,0,0,1,2.38.41,36.68,36.68,0,0,1,4.42,1.76,40.18,40.18,0,0,0,5.11,2,17.89,17.89,0,0,0,4.16.69c5,.28,8.08-1.62,9.29-5.65l.48-1.6-1.39.95c-2.58,1.77-6.1,2.56-10.45,2.36"></path><path d="M200,125.24a10.85,10.85,0,0,0-3.58,5.7,13.69,13.69,0,0,0-.52,3.57c-.35,6.54,1.69,10.5,6.08,11.74a7.29,7.29,0,0,0,6.63-1.18,10.33,10.33,0,0,0,3.6-5.64,18,18,0,0,0-.81-11.32,7.68,7.68,0,0,0-4.86-4.29,6.68,6.68,0,0,0-6.54,1.42m.76.92a5.51,5.51,0,0,1,5.46-1.2,6.47,6.47,0,0,1,4.12,3.68,14,14,0,0,1,1.22,7.09,13.51,13.51,0,0,1-.5,3.38,9.05,9.05,0,0,1-3.16,5,6,6,0,0,1-5.6,1c-3.83-1.08-5.54-4.53-5.22-10.55a12.76,12.76,0,0,1,.48-3.29,9.64,9.64,0,0,1,3.2-5.1"></path><path class="cls-4" d="M58.77,142.43l-20.5,7.26c1.55,2.08,3.56,2.69,6,2.75a9.87,9.87,0,0,0,3.59-.67,14.69,14.69,0,0,0,5.53-4.18c2-2.2,3.51-3.49,4.56-3.89a5.56,5.56,0,0,1,1.79-.3,6.47,6.47,0,0,1,4.59,1.87,5.87,5.87,0,0,1,2,4.41q0,4.11-5.08,8.74a27.81,27.81,0,0,1-10,6.13,23.53,23.53,0,0,1-7.77,1.34,20,20,0,0,1-12.44-4.18c-3.66-2.79-6.58-7.51-8.22-12.29a23.54,23.54,0,0,1-1.35-7.92A22.32,22.32,0,0,1,25,129.17a19.65,19.65,0,0,1,10.38-8.06A20.41,20.41,0,0,1,42,120a21,21,0,0,1,12.77,4.4,20.46,20.46,0,0,1,7.62,10.09,8.53,8.53,0,0,1,.53,2.83c0,2.64-1.14,4.07-4.18,5.12m-19.21-9.38a6.14,6.14,0,0,0-4.4,6.27l11.72-4a6.1,6.1,0,0,0-5-2.62,7.76,7.76,0,0,0-2.32.38"></path><path d="M35.19,120.55a20.31,20.31,0,0,0-10.69,8.3,22.91,22.91,0,0,0-3.61,12.65,24.26,24.26,0,0,0,1.38,8.12c1.82,5.29,4.89,9.87,8.42,12.56a20.66,20.66,0,0,0,12.8,4.31,24.49,24.49,0,0,0,8-1.38,28.56,28.56,0,0,0,10.22-6.26c3.49-3.18,5.27-6.27,5.27-9.17a6.44,6.44,0,0,0-2.17-4.84,7.08,7.08,0,0,0-5-2,5,5,0,0,0-.66.11c3.12-1.12,4.42-2.75,4.42-5.61a9.45,9.45,0,0,0-.55-3,21.22,21.22,0,0,0-7.84-10.37A21.62,21.62,0,0,0,42,119.39a21,21,0,0,0-6.84,1.16m-3.78,40.69c-3.3-2.51-6.3-7-8-12a23.1,23.1,0,0,1-1.31-7.72,21.84,21.84,0,0,1,3.41-12,19.21,19.21,0,0,1,10.08-7.83A19.83,19.83,0,0,1,42,120.58a20.41,20.41,0,0,1,12.42,4.29,20.08,20.08,0,0,1,7.41,9.79,8,8,0,0,1,.49,2.65c0,2.4-1,3.6-3.77,4.55l-21.27,7.53.48.65a7.72,7.72,0,0,0,6.51,3,10.35,10.35,0,0,0,3.8-.71A15.12,15.12,0,0,0,53.87,148c2.39-2.62,3.67-3.47,4.33-3.72a5,5,0,0,1,1.58-.26A5.83,5.83,0,0,1,64,145.7a5.25,5.25,0,0,1,1.8,4c0,2.55-1.65,5.35-4.89,8.3a27.13,27.13,0,0,1-9.8,6,23.21,23.21,0,0,1-7.58,1.31,19.49,19.49,0,0,1-12.08-4.06m25.18-17.41a22.91,22.91,0,0,0-3.6,3.35,14.32,14.32,0,0,1-5.29,4,9.56,9.56,0,0,1-3.37.64,6.61,6.61,0,0,1-5-1.91l17.28-6.11"></path><path d="M39.39,132.48h0a6.72,6.72,0,0,0-4.81,6.84v.84l13.31-4.58-.51-.65a6.68,6.68,0,0,0-5.47-2.85,8.51,8.51,0,0,0-2.49.4m2.49.79A5.3,5.3,0,0,1,45.83,135l-10,3.42a5.43,5.43,0,0,1,3.88-4.84,7.11,7.11,0,0,1,2.13-.34"></path><path class="cls-4" d="M133,157.93q-3.15,3.78-9.73,5.31a26.6,26.6,0,0,1-5.22.54q-10.45,0-17.3-9.72a33.29,33.29,0,0,1-6.12-19.55A27.58,27.58,0,0,1,99,118.93a21.08,21.08,0,0,1,13.24-9.19,18.24,18.24,0,0,1,4.06-.45,16.56,16.56,0,0,1,7.83,1.8,8.08,8.08,0,0,1,6.13-5,8.53,8.53,0,0,1,2.07-.27,8.06,8.06,0,0,1,5.5,2.07,9.73,9.73,0,0,1,3.06,5.41l8.47,36.58a30.91,30.91,0,0,1,.89,7.21,21.74,21.74,0,0,1-5.8,15.41q-5.82,6.21-15.82,8.47a30.76,30.76,0,0,1-7.29.72,34.25,34.25,0,0,1-10.81-1.53c-4.56-1.44-6.84-3.82-6.84-7.11a9.24,9.24,0,0,1,1.57-5,6.4,6.4,0,0,1,4-3,11.19,11.19,0,0,1,2.52-.27,38.49,38.49,0,0,1,4.82.5,38.93,38.93,0,0,0,5.36.49,17.61,17.61,0,0,0,4.06-.44q6.84-1.53,6.93-7.39m-21-23.78a13.39,13.39,0,0,0,.45,3.42q2.07,9.19,8.47,9.19a6.67,6.67,0,0,0,5.58-2.7,9.6,9.6,0,0,0,1.81-6,17.27,17.27,0,0,0-3.7-10.26,7.06,7.06,0,0,0-5.4-2.62,6.09,6.09,0,0,0-5.41,2.89,10.25,10.25,0,0,0-1.8,6.12"></path><path d="M130.1,105.53a8.72,8.72,0,0,0-6.24,4.8,17.35,17.35,0,0,0-7.57-1.64,18.88,18.88,0,0,0-4.19.47,21.76,21.76,0,0,0-13.6,9.44A28.21,28.21,0,0,0,94,134.51a34,34,0,0,0,6.23,19.89c4.66,6.62,10.64,10,17.78,10a27.17,27.17,0,0,0,5.34-.56,19.21,19.21,0,0,0,8.81-4.29c-.6,2.68-2.65,4.4-6.26,5.21a17.66,17.66,0,0,1-3.93.43,38,38,0,0,1-5.27-.49,37.91,37.91,0,0,0-4.91-.5,11.1,11.1,0,0,0-2.65.29,6.92,6.92,0,0,0-4.38,3.27,9.84,9.84,0,0,0-1.67,5.32c0,3.58,2.44,6.16,7.26,7.68a35.1,35.1,0,0,0,11,1.56,31.65,31.65,0,0,0,7.44-.73c6.74-1.52,12.16-4.43,16.09-8.65a22.35,22.35,0,0,0,6-15.81,31.08,31.08,0,0,0-.92-7.35l-8.47-36.58a10.31,10.31,0,0,0-3.24-5.71,8.62,8.62,0,0,0-5.89-2.22,9.85,9.85,0,0,0-2.22.28m-5.43,5.77a7.48,7.48,0,0,1,5.71-4.61,8,8,0,0,1,1.94-.26,7.36,7.36,0,0,1,5.1,1.93,9.2,9.2,0,0,1,2.88,5.08l8.47,36.6a30.27,30.27,0,0,1,.88,7.07,21.22,21.22,0,0,1-5.65,15c-3.77,4-9,6.83-15.5,8.3a30.49,30.49,0,0,1-7.17.7,34,34,0,0,1-10.62-1.49c-4.34-1.37-6.44-3.52-6.44-6.56a8.73,8.73,0,0,1,1.48-4.68,5.72,5.72,0,0,1,3.64-2.76,10.63,10.63,0,0,1,2.39-.25,37.07,37.07,0,0,1,4.74.49,38.47,38.47,0,0,0,5.44.49,18.12,18.12,0,0,0,4.19-.46c4.84-1.08,7.33-3.76,7.39-7.95l0-1.68-1.08,1.29c-2,2.41-5.17,4.13-9.4,5.11a26,26,0,0,1-5.09.53c-6.73,0-12.39-3.18-16.81-9.48a32.84,32.84,0,0,1-6-19.2,27,27,0,0,1,4.32-15.25,20.57,20.57,0,0,1,12.88-8.94,17.64,17.64,0,0,1,3.92-.44,16.13,16.13,0,0,1,7.55,1.73l.59.31Z"></path><path class="cls-5" d="M321.36,149.61h0a78.25,78.25,0,0,0-1.88-11.38,86.58,86.58,0,0,0-2.86-9.54,90.11,90.11,0,0,0-5.05-11.4l0-.06-.13-.13,0-.07,0,0L300,106.25s-6.7,7.92-8.92,10.78c-2.51-3.17-10.25-13.06-10.25-13.06l-2.25,2.7a11.11,11.11,0,0,0-2.24,2.7c-2.65,3.2-5.74,6.94-7,8.54-2.39-2.71-10.39-11.2-10.39-11.2l-11.11,8.82,0,0,0,0A86.72,86.72,0,0,0,242,135.2a90.37,90.37,0,0,0-1.16,9.91,80.33,80.33,0,0,0,.13,11.53c2.31,26.35,19.14,41.37,43.94,39.2S323.66,176,321.36,149.61Z"></path><path d="M113.27,127.7a10.82,10.82,0,0,0-1.9,6.45,14.06,14.06,0,0,0,.47,3.57c1.44,6.38,4.48,9.63,9,9.63a7.27,7.27,0,0,0,6.06-2.93,10.28,10.28,0,0,0,1.92-6.4A18,18,0,0,0,125,127.36a7.71,7.71,0,0,0-5.85-2.81,6.66,6.66,0,0,0-5.9,3.15m-.28,9.74a12.93,12.93,0,0,1-.43-3.29,9.75,9.75,0,0,1,1.69-5.78,5.48,5.48,0,0,1,4.92-2.63,6.44,6.44,0,0,1,5,2.41,16.6,16.6,0,0,1,3.54,9.87A9.07,9.07,0,0,1,126,143.7a6,6,0,0,1-5.11,2.46c-4,0-6.57-2.85-7.89-8.72"></path><path class="cls-4" d="M286.1,173.23a27.24,27.24,0,0,1-5.84.58,24.32,24.32,0,0,1-9.51-1.75q-5.65-2.25-5.66-6.92a8.64,8.64,0,0,1,1.25-4.51,6.28,6.28,0,0,1,4.25-3.09,10,10,0,0,1,2.16-.25,17.31,17.31,0,0,1,4.55.84,17.1,17.1,0,0,0,4.46.83,6.78,6.78,0,0,0,1.83-.25c1.78-.39,2.56-1,2.34-1.91q-.17-.68-5.84-1.42a36.11,36.11,0,0,1-10.92-2.67,13,13,0,0,1-7.67-9.18,15,15,0,0,1-.5-3.75,14.61,14.61,0,0,1,6.42-12.26A22.17,22.17,0,0,1,281,123.18a20.35,20.35,0,0,1,9,1.84q5,2.34,5,7a7.5,7.5,0,0,1-1.92,5.09,6,6,0,0,1-4.67,2.17,22.8,22.8,0,0,1-4.17-.63,23.53,23.53,0,0,0-4.33-.62,4.9,4.9,0,0,0-2.84.66,1,1,0,0,0-.42,1.17q.18.75,5.92,1.41A39.68,39.68,0,0,1,293.52,144a13.17,13.17,0,0,1,7.67,9.17,15.55,15.55,0,0,1,.41,3.5,14.81,14.81,0,0,1-4.21,10.43,21.91,21.91,0,0,1-11.29,6.17"></path><path d="M267.07,127a15.39,15.39,0,0,0-6.14,16.64,13.52,13.52,0,0,0,8,9.56A36.37,36.37,0,0,0,280,156c4.07.53,5.09.92,5.35,1.08v0a.37.37,0,0,1-.06.21c-.12.19-.51.55-1.84.84a6.47,6.47,0,0,1-1.71.24,16.67,16.67,0,0,1-4.29-.81,17.77,17.77,0,0,0-4.71-.86,10.12,10.12,0,0,0-2.31.27,6.89,6.89,0,0,0-4.62,3.36,9.15,9.15,0,0,0-1.34,4.8c0,3.37,2,5.89,6.05,7.48a25,25,0,0,0,9.72,1.8,27.14,27.14,0,0,0,6-.61h0a22.51,22.51,0,0,0,11.6-6.34,15.43,15.43,0,0,0,4.37-10.83,15.68,15.68,0,0,0-.44-3.64,13.77,13.77,0,0,0-8-9.57,40,40,0,0,0-11.1-2.72c-4.24-.49-5.21-.92-5.43-1.06,0,0,0-.06,0-.09a.41.41,0,0,1,.21-.37,4.31,4.31,0,0,1,2.49-.55,22.36,22.36,0,0,1,4.21.61,22.23,22.23,0,0,0,4.29.64,6.61,6.61,0,0,0,5.11-2.37,8.06,8.06,0,0,0,2.07-5.48c0-3.36-1.8-5.89-5.35-7.55a20.85,20.85,0,0,0-9.25-1.89A22.84,22.84,0,0,0,267.07,127m16.68,32.24a3.84,3.84,0,0,0,2.57-1.36,1.61,1.61,0,0,0,.18-1.27c-.14-.6-.71-1.12-6.33-1.86a35.53,35.53,0,0,1-10.74-2.62,12.27,12.27,0,0,1-7.35-8.77,14.17,14.17,0,0,1,5.69-15.4A21.71,21.71,0,0,1,281,123.78a19.94,19.94,0,0,1,8.74,1.77c3.15,1.47,4.67,3.59,4.67,6.48a6.85,6.85,0,0,1-1.77,4.7,5.39,5.39,0,0,1-4.22,2,23.24,23.24,0,0,1-4.05-.61,23.21,23.21,0,0,0-4.45-.64,5.35,5.35,0,0,0-3.19.78,1.59,1.59,0,0,0-.7,1.33,1.8,1.8,0,0,0,.06.45c.13.63.72,1.21,6.43,1.88a39.4,39.4,0,0,1,10.74,2.61,12.66,12.66,0,0,1,7.34,8.77,14.43,14.43,0,0,1,.4,3.37,14.26,14.26,0,0,1-4.05,10,21.37,21.37,0,0,1-11,6,26.56,26.56,0,0,1-5.7.57,23.87,23.87,0,0,1-9.27-1.71c-3.58-1.41-5.31-3.5-5.31-6.38a8.07,8.07,0,0,1,1.16-4.19,5.72,5.72,0,0,1,3.87-2.82,9.61,9.61,0,0,1,2.05-.23,16.79,16.79,0,0,1,4.37.81,17.89,17.89,0,0,0,4.63.85,7.17,7.17,0,0,0,2-.27"></path><path class="cls-5" d="M314.16,106.12c-7.34-16-19.4-29.17-34-28.79-11.6.3-21.06,9-27.77,20.82l1.44,7.27a1.3,1.3,0,0,1,.08-.17h0s9.5-5.5,12.33-7l5.34,9,10.53-11,7.55,10.53,6.56-8.63c4.69,3.58,5.72,5,14.52,11.76l.13.28Z"></path></svg> 