<?xml version="1.0" encoding="UTF-8"?> <!-- Generator: Adobe Illustrator 24.2.0, SVG Export Plug-In . SVG Version: 6.00 Build 0) --> <svg xmlns="http://www.w3.org/2000/svg" xmlns:xlink="http://www.w3.org/1999/xlink" version="1.1" id="Layer_1" x="0px" y="0px" viewBox="0 0 555 200" style="enable-background:new 0 0 555 200;" xml:space="preserve"> <style type="text/css"> .st0{fill:url(#SVGID_1_);} .st1{clip-path:url(#SVGID_3_);fill:url(#SVGID_4_);} .st2{clip-path:url(#SVGID_6_);fill:url(#SVGID_7_);} .st3{opacity:0.5;} .st4{clip-path:url(#SVGID_9_);fill:#FFFFFF;} .st5{clip-path:url(#SVGID_11_);fill:#FFFFFF;} .st6{clip-path:url(#SVGID_13_);fill:#FFFFFF;} .st7{clip-path:url(#SVGID_15_);fill:#FFFFFF;} .st8{clip-path:url(#SVGID_17_);fill:#FFFFFF;} .st9{clip-path:url(#SVGID_19_);fill:#FFFFFF;} .st10{clip-path:url(#SVGID_21_);fill:#FFFFFF;} .st11{clip-path:url(#SVGID_23_);fill:#FFFFFF;} .st12{fill:#FFFFFF;} .st13{fill:#346924;} </style> <g> <linearGradient id="SVGID_1_" gradientUnits="userSpaceOnUse" x1="7.7237" y1="99.95" x2="562.394" y2="99.95"> <stop offset="0" style="stop-color:#427C2E"></stop> <stop offset="1" style="stop-color:#80B041"></stop> </linearGradient> <path class="st0" d="M50.1,4.3c-8.4,4.3-13.8,11.5-16.5,21.3v0.6L1.4,159.9v0.2c-4.6,19.3,3.4,32.5,24.1,39.6 c0.7,0.1,1.6,0.2,2.3,0.2l502.8-15.5c0.6-0.1,1.3-0.2,2.2-0.4c10.6-3.9,17.3-9.9,20.4-17.6c1.5-4.2,2-8.9,1.3-14.2 c0-0.4-0.1-0.9-0.4-1.3L521.3,43.5c0-0.1,0-0.2-0.1-0.4c-3.9-11.5-13.1-18.4-28.1-21.1h-0.2h-0.6L74.5,0c-0.7,0-1.4,0-2.1,0 C63.5,0,56,1.5,50.1,4.3"></path> <g> <g> <defs> <path id="SVGID_2_" d="M54.8,14.9h-0.2c-5.4,2.9-8.8,7.7-10.5,14.2v-0.2L11.9,162.6c-3.1,12.9,2.6,21.7,16.1,26.6l501.2-15.4 c10.3-3.8,15.1-10.4,14.4-19.8L510.7,47l0.2,0.2c-2.7-7.1-8.4-11.7-17.5-13.8c-0.7-0.1-1.6-0.4-2.2-0.5L73.9,11.4 c-1.1-0.1-2.1-0.1-3.1-0.1C64.4,11.3,59,12.6,54.8,14.9"></path> </defs> <clipPath id="SVGID_3_"> <use xlink:href="#SVGID_2_" style="overflow:visible;"></use> </clipPath> <linearGradient id="SVGID_4_" gradientUnits="userSpaceOnUse" x1="-590.4405" y1="88.4889" x2="-587.7326" y2="88.4889" gradientTransform="matrix(0 -65.7344 65.7344 0 -5540.1113 -38622.9492)"> <stop offset="0" style="stop-color:#70A642"></stop> <stop offset="0.3717" style="stop-color:#81B349"></stop> <stop offset="1" style="stop-color:#A6D057"></stop> </linearGradient> <rect x="8.9" y="11.3" class="st1" width="535.5" height="178"></rect> </g> </g> <g> <g> <defs> <path id="SVGID_5_" d="M22.2,185.6c-0.2,0.2-0.5,0.5-0.6,0.7c1.9,1.1,4.1,2.1,6.5,3l31.8-1c-0.9-0.9-1.7-1.8-2.6-2.7 c-4.9-4.9-10.6-7.1-17.3-7.1C33,178.5,27.1,180.7,22.2,185.6 M272.4,176.1c-1.6,1.7-3.2,3.8-4.3,5.8l43.1-1.3 c-1.1-1.6-2.4-3.1-3.7-4.5c-4.9-4.9-10.8-7.3-17.7-7.3C283.1,168.7,277.3,171.2,272.4,176.1 M460.5,164.1 c-3.6,3.6-6.2,7.6-7.9,12.1l67.2-2.1c-1.7-3.6-4.1-7-7.4-10.1c-7.1-7.3-15.5-10.9-25.8-10.9 C476.4,153.2,467.8,156.8,460.5,164.1 M325.8,161.6c-5.2,5.5-8.5,11.7-10,18.8l45.8-1.4l27.7-0.9c-1.7-6.1-5.1-11.6-10-16.5 c-7.3-7.3-16.1-11-26.5-11C342.3,150.6,333.2,154.3,325.8,161.6 M398.5,154.3c-6,6.1-8.9,13.4-8.9,21.7c0,0.9,0,1.5,0.1,2.1 l15.1-0.5l46.2-1.4V176c0-8.3-3.1-15.6-9-21.7c-6-6-13.2-9-21.5-9C411.6,145.3,404.4,148.3,398.5,154.3 M178.2,152.4 c-6,6-8.9,13.2-8.9,21.5c0,3.9,0.6,7.6,1.9,11l58.1-1.8c1-2.9,1.4-5.9,1.4-9.2c0-8.3-3.1-15.5-9.2-21.5c-6-6.1-13.3-9-21.5-9 C191.5,143.3,184.3,146.3,178.2,152.4 M126.8,142c-4.9,4.9-7.2,10.7-7.2,17.8c0,6.7,2.3,12.5,7.2,17.3 c4.9,4.9,10.8,7.3,17.7,7.3c6.8,0,12.5-2.4,17.3-7.3c4.9-4.9,7.5-10.6,7.5-17.3c0-7.1-2.6-12.9-7.5-17.8c-4.9-4.6-10.5-7-17.3-7 C137.5,135,131.7,137.3,126.8,142 M11.9,162.6c-2,8.4-0.3,15,4.8,20c0.1,0,0.1,0.1,0.2,0.1h1c6.8,0,12.7-2.3,17.6-7.2 S43,164.8,43,158c0-7-2.6-12.8-7.5-17.7c-4.5-4.5-10-7-16.5-7.1L11.9,162.6z M235.3,127.1c-5.7,6-8.8,13.2-8.8,21.7 c0,8.4,3.1,15.8,8.8,21.6c6.2,6.1,13.4,9.3,21.7,9.3c8.4,0,15.6-3.2,21.7-9.3c6-5.9,8.9-13.2,8.9-21.6c0-8.6-2.9-15.8-8.9-21.7 c-6.1-5.9-13.3-8.8-21.7-8.8C248.7,118.3,241.5,121.2,235.3,127.1 M507.2,106.8c-7.3,7.1-10.9,15.6-10.9,26 c0,10.3,3.5,18.7,10.9,25.8c7.2,7.2,15.9,10.9,26,10.9c1.4,0,2.9,0,4.3-0.1c1.4-1.1,2.5-2.4,3.4-3.7l2.8-11.6l-17.6-57.4 C518.9,98.2,512.6,101.5,507.2,106.8 M191.8,100.8c-4.9,4.9-7.2,10.9-7.2,17.7s2.3,12.6,7.2,17.5s10.8,7.3,17.6,7.3 s12.7-2.4,17.6-7.3c4.9-4.9,7.5-10.6,7.5-17.5s-2.6-12.8-7.5-17.7c-4.9-4.9-10.8-7.3-17.6-7.3 C202.5,93.5,196.7,95.9,191.8,100.8 M293.6,100c-6.6,6.6-9.9,14.7-9.9,24.3c0,9.3,3.3,17.2,9.9,23.9 c6.8,6.7,14.9,10.1,24.2,10.1c9.5,0,17.7-3.4,24.1-10.1c6.8-6.7,10.1-14.7,10.1-23.9c0-9.6-3.3-17.7-10.1-24.3 c-6.4-6.5-14.5-9.7-24.1-9.7C308.5,90.3,300.5,93.5,293.6,100 M362.4,96.2c-6.5,6.7-9.8,14.9-9.8,24.3s3.3,17.5,9.8,23.9 c6.7,6.7,14.8,10.1,24.1,10.1c9.5,0,17.7-3.4,24.2-10.1c6.7-6.5,10-14.5,10-23.9s-3.3-17.6-10-24.3c-6.5-6.4-14.7-9.8-24.2-9.8 C377.2,86.4,369.1,89.8,362.4,96.2 M432.2,92.5c-7.2,7.3-10.9,16.2-10.9,26.9c0,10.5,3.7,19.4,10.9,26.6 c7.5,7.5,16.4,11.2,27,11.2c10.5,0,19.3-3.8,26.6-11.2c7.6-7.2,11.1-16.1,11.1-26.6c0-10.6-3.5-19.5-11.1-26.9 c-7.3-7.6-16.1-11.1-26.6-11.1C448.5,81.4,439.6,84.9,432.2,92.5 M33.3,73.8l-13.7,57.1c4.6,2.7,9.8,4.2,15.6,4.2 c8.4,0,15.6-3.1,21.6-9.3c6-6,8.9-13.1,8.9-21.5s-2.9-15.8-8.9-21.7c-6-5.9-13.2-8.8-21.6-8.8C34.4,73.7,33.8,73.7,33.3,73.8 M132.3,82.5c-6.1,6-9.2,13.3-9.2,21.6c0,8.5,3.1,15.6,9.2,21.5c6,6.1,13.2,9.4,21.7,9.4c8.3,0,15.6-3.3,21.4-9.4 c6.2-5.9,9.2-12.9,9.2-21.5c0-8.3-2.9-15.6-9.2-21.6c-5.7-6.1-13.1-9.2-21.4-9.2C145.5,73.3,138.3,76.4,132.3,82.5 M514.4,76.5 c0,5.4,2,9.9,5.5,13.8c1.7,1.5,3.5,2.8,5.4,3.8l-2.3-7.7l-6-19.6C515.1,69.6,514.4,73,514.4,76.5 M232.9,52.8 C225.7,60.1,222,69,222,79.7c0,10.6,3.7,19.3,10.9,26.8c7.5,7.5,16.4,11.1,27,11.1c10.4,0,19.1-3.7,26.5-11.1 c7.5-7.5,11.2-16.1,11.2-26.8c0-10.6-3.8-19.5-11.2-26.9c-7.5-7.3-16.1-10.9-26.5-10.9C249.3,41.9,240.4,45.5,232.9,52.8 M465.9,31.8c-0.2,0.1-0.6,0.5-1,0.7c-6.1,6.4-9.3,13.8-9.3,22.4c0,8.7,3.2,16.1,9.3,22.4c6.2,6.2,13.8,9.4,22.5,9.4 c8.5,0,16.1-3.2,22.2-9.4c3.4-3.4,5.7-7,7.1-11l-5.9-19.2l0.2,0.2c-2.7-7.1-8.4-11.7-17.5-13.8c-0.7-0.1-1.6-0.4-2.2-0.5 L465.9,31.8L465.9,31.8z M390.5,28.1c-7.1,7.5-10.7,16.5-10.7,26.8c0,10.6,3.7,19.4,10.7,26.9c7.5,7.3,16.5,11,27,11 c10.6,0,19.4-3.7,26.6-11c7.5-7.5,11.1-16.2,11.1-26.9c0-9.2-2.9-17.5-8.8-24.2l-55.3-2.8C390.9,28,390.8,28,390.5,28.1 M345.6,29.6c3.7,3.5,7.5,6.1,12,7.6c-2.7-0.7-5.4-1.1-8.2-1.1c-8.3,0-15.6,2.9-21.6,9c-6.1,6.1-9,13.3-9,21.6 c0,8.6,2.9,15.8,9,21.6c6,6,13.3,9,21.6,9c8.6,0,15.8-3.1,21.6-9c6.1-5.9,9-13.1,9-21.6c0-8.3-2.9-15.5-9-21.6 c-3.5-3.5-7.5-6.1-12-7.5c2.6,0.6,5.3,0.9,8.1,0.9c8.8,0,15.9-2.9,21.7-8.9c0.5-0.7,1.1-1.3,1.7-1.7l-48.6-2.6 C343,26.8,344.3,28.1,345.6,29.6 M278.7,44.9c6.6,6.7,14.7,10,24.1,10c9.3,0,17.3-3.3,24.2-10c5.6-5.7,8.9-12.3,9.8-19.7 l-68.2-3.7C268.8,30.4,272.1,38.4,278.7,44.9 M226,36.2c4.9,4.9,10.8,7.3,17.6,7.3s12.7-2.4,17.5-7.3c4.2-4,6.7-8.9,7.1-14.7 l-30.3-1.7l-19-1C218.8,25.6,221.1,31.6,226,36.2 M106.3,26.2c-6,6-9,13.2-9,21.5c0,8.5,3.1,15.8,9,21.6 c6,6.1,13.3,9.2,21.9,9.2c8.6,0,15.9-3.1,21.6-9.2c6-5.9,8.9-13.1,8.9-21.6c0-8.3-2.9-15.5-8.9-21.5c-5.7-6-13.1-9-21.6-9 C119.6,17.1,112.2,20.2,106.3,26.2 M142.2,19.5c4.9,4.9,10.8,7.5,17.6,7.5c4.3,0,8.2-1,11.8-3.1c-1.1,0.9-2,1.7-2.8,2.8 c-6.7,6.5-10.1,14.7-10.1,24.1c0,9.2,3.4,17.3,10.1,23.8c6.6,6.8,14.7,10.1,23.9,10.1c9.4,0,17.5-3.3,24.1-10.1 c6.8-6.5,10.1-14.7,10.1-23.8c0-9.4-3.3-17.6-10.1-24.1c-4-4.3-8.7-7.2-13.8-8.6h-0.1l-16-0.8h-0.1h-0.5 c-3.9,0.6-7.6,2.1-10.9,4.2c0.5-0.7,1.1-1.2,2-2c0.7-0.7,1.5-1.7,2.3-2.4l-31.8-1.8l-9.4-0.5C139.4,16.5,140.6,18.1,142.2,19.5 M72.2,11.4c1.1,3.2,2.9,6.1,5.5,8.8c0.6,0.5,1.3,1.2,2.1,1.8c-4-1.8-8.4-2.8-13.2-2.8c-8.3,0-15.6,2.9-21.5,8.8 c-0.4,0.2-0.7,0.6-1,1.1v0.2c-0.1,0.1-0.1,0.1-0.2,0.2l-6.8,28.4l0,0V58c1.3,5.1,3.9,9.4,7.9,13.4c5.9,6,13.2,9,21.5,9 c6.4,0,11.8-1.7,16.7-4.9c-1,0.7-1.7,1.6-2.6,2.2c-4.9,4.9-7.2,10.7-7.2,17.7c0,6.7,2.3,12.6,7.2,17.5c2.8,2.7,6,4.8,9.5,6.1 c-2.8-0.6-5.6-0.9-8.5-0.9c-10.4,0-19.3,3.5-26.9,10.9c-7.2,7.5-10.7,16.5-10.7,27s3.5,19.4,10.9,26.6c2.1,2.1,4.4,4,6.7,5.5 l42-1.2h0.1c1.7-1.3,3.3-2.7,4.8-4.3c7.5-7.2,11.1-16.1,11.1-26.6s-3.7-19.5-11.1-26.9c-4.5-4.4-9.4-7.6-14.9-9.4 c1.6,0.5,3.1,0.6,4.9,0.6c6.7,0,12.6-2.4,17.5-7.3s7.2-10.7,7.2-17.5c0-7-2.3-12.8-7.2-17.7c-4.9-4.9-10.8-7.1-17.5-7.1 c-5.2,0-10,1.3-14,4.2c1.5-1.1,2.7-2.2,3.9-3.4c6-6,8.9-13.2,8.9-21.6S94.4,34.1,88.4,28c-0.9-1-1.8-1.7-2.8-2.4 c2.9,1.2,6.1,1.8,9.8,1.8c6.8,0,12.7-2.3,17.6-7.2c2.1-1.9,3.8-4.1,4.9-6.5l-43.8-2.3C74.1,11.4,72.2,11.4,72.2,11.4z"></path> </defs> <clipPath id="SVGID_6_"> <use xlink:href="#SVGID_5_" style="overflow:visible;"></use> </clipPath> <linearGradient id="SVGID_7_" gradientUnits="userSpaceOnUse" x1="-566.6347" y1="69.4369" x2="-563.9274" y2="69.4369" gradientTransform="matrix(0 52.8456 -52.8456 0 3946.2837 29977.1582)"> <stop offset="0" style="stop-color:#BDD483"></stop> <stop offset="0.5197" style="stop-color:#A9C75C"></stop> <stop offset="1" style="stop-color:#99BD3C"></stop> </linearGradient> <rect x="10" y="11.4" class="st2" width="533.7" height="177.9"></rect> </g> </g> <g> <g class="st3"> <g> <g> <g> <defs> <path id="SVGID_8_" d="M54.8,14.9h-0.2c-5.4,2.9-8.8,7.7-10.5,14.2v-0.2L11.9,162.6c-3.1,12.9,2.6,21.7,16.1,26.6l501.2-15.4 c9.5-3.5,14.4-9.5,14.5-17.8v-0.3c0-0.5,0-1.1-0.1-1.7L510.7,47l0.2,0.2c-2.7-7.1-8.4-11.7-17.5-13.8 c-0.7-0.1-1.6-0.4-2.2-0.5L73.9,11.4c-1.1-0.1-2.1-0.1-3.1-0.1C64.4,11.3,59,12.6,54.8,14.9"></path> </defs> <clipPath id="SVGID_9_"> <use xlink:href="#SVGID_8_" style="overflow:visible;"></use> </clipPath> <path class="st4" d="M76,66.1v-5.4c-1,2.2-2.4,3.9-4.1,5c-1.8,1.2-3.9,1.7-6.3,1.7c-4.3,0-7.7-1.5-10.3-4.4s-3.9-6.8-3.9-11.6 s1.3-8.6,3.8-11.6c2.6-3,5.9-4.5,9.9-4.5c2.5,0,4.7,0.6,6.5,1.7c1.8,1.1,3.3,2.7,4.3,4.9v-5.4H80v29.7L76,66.1L76,66.1z M56,51.6c0,3.8,0.9,6.8,2.6,8.9c1.7,2.1,4.2,3.1,7.4,3.1c3.1,0,5.6-1.1,7.4-3.4c1.8-2.3,2.7-5.4,2.7-9.3 c0-3.6-0.9-6.5-2.7-8.6c-1.8-2.1-4.2-3.1-7.3-3.1c-3.1,0-5.6,1.1-7.4,3.3C56.9,44.7,56,47.7,56,51.6"></path> </g> <g> <defs> <path id="SVGID_10_" d="M54.8,14.9h-0.2c-5.4,2.9-8.8,7.7-10.5,14.2v-0.2L11.9,162.6c-3.1,12.9,2.6,21.7,16.1,26.6 l501.2-15.4c9.5-3.5,14.4-9.5,14.5-17.8v-0.3c0-0.5,0-1.1-0.1-1.7L510.7,47l0.2,0.2c-2.7-7.1-8.4-11.7-17.5-13.8 c-0.7-0.1-1.6-0.4-2.2-0.5L73.9,11.4c-1.1-0.1-2.1-0.1-3.1-0.1C64.4,11.3,59,12.6,54.8,14.9"></path> </defs> <clipPath id="SVGID_11_"> <use xlink:href="#SVGID_10_" style="overflow:visible;"></use> </clipPath> <path class="st5" d="M70.3,166.5l3.9-2.2c0.6,1.7,1.6,2.9,2.8,3.7c1.2,0.8,2.7,1.3,4.5,1.3c1.7,0,3.1-0.4,4.1-1.3 c1-0.9,1.5-2.1,1.5-3.5c0-2.3-2-4.2-6.1-5.8c-0.4-0.2-0.8-0.3-1-0.4c-3.1-1.2-5.3-2.5-6.6-3.8c-1.2-1.3-1.9-2.9-1.9-4.8 c0-2.5,0.9-4.6,2.7-6.2c1.8-1.6,4.1-2.4,6.9-2.4c2.4,0,4.5,0.5,6.2,1.6c1.7,1,2.9,2.5,3.7,4.5l-3.8,2.1 c-0.5-1.4-1.2-2.5-2.3-3.2c-1.1-0.7-2.4-1.1-4-1.1c-1.4,0-2.6,0.4-3.5,1.3c-0.9,0.8-1.4,1.9-1.4,3.1c0,1.2,0.5,2.2,1.4,3 s2.8,1.7,5.7,2.6c3.3,1.1,5.4,2.4,6.6,3.7c1.1,1.3,1.7,3.2,1.7,5.6c0,2.7-1,4.9-2.9,6.5s-4.5,2.4-7.8,2.4 c-2.5,0-4.7-0.6-6.5-1.7C72.4,170.2,71.1,168.6,70.3,166.5"></path> </g> <g> <defs> <path id="SVGID_12_" d="M54.8,14.9h-0.2c-5.4,2.9-8.8,7.7-10.5,14.2v-0.2L11.9,162.6c-3.1,12.9,2.6,21.7,16.1,26.6 l501.2-15.4c9.5-3.5,14.4-9.5,14.5-17.8v-0.3c0-0.5,0-1.1-0.1-1.7L510.7,47l0.2,0.2c-2.7-7.1-8.4-11.7-17.5-13.8 c-0.7-0.1-1.6-0.4-2.2-0.5L73.9,11.4c-1.1-0.1-2.1-0.1-3.1-0.1C64.4,11.3,59,12.6,54.8,14.9"></path> </defs> <clipPath id="SVGID_13_"> <use xlink:href="#SVGID_12_" style="overflow:visible;"></use> </clipPath> <path class="st6" d="M261.6,159.6v-2.9c-0.5,1.2-1.2,2-2.2,2.6c-0.9,0.6-2,0.9-3.3,0.9c-2.2,0-4-0.8-5.4-2.3s-2.1-3.6-2.1-6.1 s0.7-4.5,2-6.1c1.4-1.6,3.1-2.4,5.2-2.4c1.3,0,2.5,0.3,3.4,0.9c1,0.6,1.7,1.4,2.2,2.6v-14.5h2.2v27.3H261.6z M251.1,151.9 c0,2,0.5,3.6,1.4,4.7c0.9,1.1,2.2,1.6,3.9,1.6c1.6,0,2.9-0.6,3.9-1.8c0.9-1.2,1.4-2.8,1.4-4.9c0-1.9-0.5-3.4-1.4-4.5 s-2.2-1.6-3.8-1.6c-1.6,0-2.9,0.6-3.9,1.7C251.5,148.3,251.1,149.9,251.1,151.9"></path> </g> <g> <defs> <path id="SVGID_14_" d="M54.8,14.9h-0.2c-5.4,2.9-8.8,7.7-10.5,14.2v-0.2L11.9,162.6c-3.1,12.9,2.6,21.7,16.1,26.6 l501.2-15.4c9.5-3.5,14.4-9.5,14.5-17.8v-0.3c0-0.5,0-1.1-0.1-1.7L510.7,47l0.2,0.2c-2.7-7.1-8.4-11.7-17.5-13.8 c-0.7-0.1-1.6-0.4-2.2-0.5L73.9,11.4c-1.1-0.1-2.1-0.1-3.1-0.1C64.4,11.3,59,12.6,54.8,14.9"></path> </defs> <clipPath id="SVGID_15_"> <use xlink:href="#SVGID_14_" style="overflow:visible;"></use> </clipPath> <path class="st7" d="M348.7,61.1c0.8-1.4,1.6-2.3,2.3-2.9c0.8-0.6,1.7-0.8,2.7-0.8c0.3,0,0.6,0,0.9,0.1s0.6,0.1,0.9,0.2 l-0.7,2c-0.2-0.1-0.5-0.1-0.7-0.2c-0.3,0-0.5-0.1-0.7-0.1c-1.3,0-2.4,0.6-3.3,1.8s-1.4,2.7-1.4,4.6v7.7h-2.2V58h2.2 L348.7,61.1L348.7,61.1z"></path> </g> <g> <defs> <path id="SVGID_16_" d="M54.8,14.9h-0.2c-5.4,2.9-8.8,7.7-10.5,14.2v-0.2L11.9,162.6c-3.1,12.9,2.6,21.7,16.1,26.6 l501.2-15.4c9.5-3.5,14.4-9.5,14.5-17.8v-0.3c0-0.5,0-1.1-0.1-1.7L510.7,47l0.2,0.2c-2.7-7.1-8.4-11.7-17.5-13.8 c-0.7-0.1-1.6-0.4-2.2-0.5L73.9,11.4c-1.1-0.1-2.1-0.1-3.1-0.1C64.4,11.3,59,12.6,54.8,14.9"></path> </defs> <clipPath id="SVGID_17_"> <use xlink:href="#SVGID_16_" style="overflow:visible;"></use> </clipPath> <path class="st8" d="M151.1,158.8h-12.4c0.1,2,0.6,3.6,1.5,4.8c1,1.2,2.2,1.7,3.8,1.7c1.2,0,2.2-0.3,3-0.9 c0.9-0.6,1.6-1.6,2.2-2.8l2,1.1c-0.8,1.6-1.8,2.8-2.9,3.5c-1.2,0.7-2.6,1.1-4.3,1.1c-2.3,0-4.1-0.8-5.6-2.3 c-1.4-1.5-2.1-3.5-2.1-6c0-2.6,0.7-4.6,2.1-6.2c1.4-1.6,3.2-2.4,5.5-2.4c2.2,0,3.9,0.7,5.2,2.2c1.3,1.4,2,3.4,2,5.8V158.8z M148.6,156.9c-0.1-1.4-0.6-2.5-1.4-3.3c-0.8-0.8-2-1.2-3.4-1.2c-1.3,0-2.4,0.4-3.3,1.2c-0.9,0.8-1.4,1.9-1.5,3.3H148.6z"></path> </g> <g> <defs> <path id="SVGID_18_" d="M54.8,14.9h-0.2c-5.4,2.9-8.8,7.7-10.5,14.2v-0.2L11.9,162.6c-3.1,12.9,2.6,21.7,16.1,26.6 l501.2-15.4c9.5-3.5,14.4-9.5,14.5-17.8v-0.3c0-0.5,0-1.1-0.1-1.7L510.7,47l0.2,0.2c-2.7-7.1-8.4-11.7-17.5-13.8 c-0.7-0.1-1.6-0.4-2.2-0.5L73.9,11.4c-1.1-0.1-2.1-0.1-3.1-0.1C64.4,11.3,59,12.6,54.8,14.9"></path> </defs> <clipPath id="SVGID_19_"> <use xlink:href="#SVGID_18_" style="overflow:visible;"></use> </clipPath> <path class="st9" d="M539.4,133.3H527c0.1,2,0.6,3.6,1.5,4.8c1,1.2,2.2,1.7,3.8,1.7c1.2,0,2.2-0.3,3-0.9 c0.9-0.6,1.6-1.6,2.2-2.8l2,1.1c-0.8,1.6-1.8,2.8-2.9,3.5c-1.2,0.7-2.6,1.1-4.3,1.1c-2.3,0-4.1-0.8-5.6-2.3 c-1.4-1.5-2.1-3.5-2.1-6c0-2.6,0.7-4.6,2.1-6.2c1.4-1.6,3.2-2.4,5.5-2.4c2.2,0,3.9,0.7,5.2,2.2c1.3,1.5,2,3.4,2,5.8V133.3z M536.8,131.5c-0.1-1.4-0.6-2.5-1.4-3.3c-0.8-0.8-2-1.2-3.4-1.2c-1.3,0-2.4,0.4-3.3,1.2c-0.9,0.8-1.4,1.9-1.5,3.3H536.8z"></path> </g> <g> <defs> <path id="SVGID_20_" d="M54.8,14.9h-0.2c-5.4,2.9-8.8,7.7-10.5,14.2v-0.2L11.9,162.6c-3.1,12.9,2.6,21.7,16.1,26.6 l501.2-15.4c9.5-3.5,14.4-9.5,14.5-17.8v-0.3c0-0.5,0-1.1-0.1-1.7L510.7,47l0.2,0.2c-2.7-7.1-8.4-11.7-17.5-13.8 c-0.7-0.1-1.6-0.4-2.2-0.5L73.9,11.4c-1.1-0.1-2.1-0.1-3.1-0.1C64.4,11.3,59,12.6,54.8,14.9"></path> </defs> <clipPath id="SVGID_21_"> <use xlink:href="#SVGID_20_" style="overflow:visible;"></use> </clipPath> <polygon class="st10" points="187.6,63.2 187.6,37.4 190,37.4 190,61 198.8,61 198.8,63.2 "></polygon> </g> <g> <defs> <path id="SVGID_22_" d="M54.8,14.9h-0.2c-5.4,2.9-8.8,7.7-10.5,14.2v-0.2L11.9,162.6c-3.1,12.9,2.6,21.7,16.1,26.6 l501.2-15.4c9.5-3.5,14.4-9.5,14.5-17.8v-0.3c0-0.5,0-1.1-0.1-1.7L510.7,47l0.2,0.2c-2.7-7.1-8.4-11.7-17.5-13.8 c-0.7-0.1-1.6-0.4-2.2-0.5L73.9,11.4c-1.1-0.1-2.1-0.1-3.1-0.1C64.4,11.3,59,12.6,54.8,14.9"></path> </defs> <clipPath id="SVGID_23_"> <use xlink:href="#SVGID_22_" style="overflow:visible;"></use> </clipPath> <polygon class="st11" points="352.3,174.6 350.2,174.6 350.2,173.2 352.3,173.2 352.3,168.4 353.9,168.4 353.9,173.2 356.3,173.2 356.3,174.6 353.9,174.6 353.9,184.9 352.3,184.9 "></polygon> </g> </g> </g> </g> <path class="st12" d="M50.5,124.9l3.5-10.1c7.2,4.3,13.7,6.7,18.7,6.7c6.6,0,12.1-2.7,12.1-8.3c0-5.5-7.9-8-13.4-9.3 c-10.2-2.3-19.7-7.4-19.7-19.2c0-10.6,8.8-17.4,21.7-17.4c6.5,0,15.8,3.2,19.3,4.7l-3.2,9.7C87,80.6,79,77.6,73.4,77.6 c-9,0-11.4,4.7-11.4,7.1c0,5.4,6.1,7.8,11.2,9c9.8,2.3,21.8,7.4,22,19.6c0,4.2-1.6,18.6-22.5,18.6 C65.9,131.8,58.4,129.4,50.5,124.9"></path> <path class="st13" d="M72.8,135.5L72.8,135.5c-7.5-0.1-15.6-2.6-24-7.4l-2.6-1.5l6-17.1l3.8,2.3c6.7,4.1,12.6,6.2,16.9,6.2 c1.4,0,8.5-0.2,8.5-4.7c0-0.8-0.8-3.5-10.6-5.8c-18.6-4.2-22.5-14.7-22.5-22.7c0-12.6,10.2-21,25.3-21c7.6,0,17.8,3.7,20.8,5.1 l3,1.3L92,86.6L88.2,85c-3.4-1.4-10.3-3.8-14.7-3.8c-6.3,0-7.8,2.6-7.8,3.5c0,2.9,4.6,4.6,8.5,5.5c20.3,4.7,24.7,15.1,24.8,23 C98.9,117,97.6,135.5,72.8,135.5 M54.9,123.2c6.4,3.3,12.4,5,17.9,5.1c17,0,18.9-10.5,18.9-15c-0.1-7.7-6.6-13.1-19.2-16.1 c-9.3-2.2-14-6.5-14-12.5c0-3.7,3.1-10.7,15-10.7c4.6,0,10.2,1.7,13.9,3l0.9-2.8c-4.1-1.5-10.3-3.3-14.8-3.3 c-11,0-18.1,5.4-18.1,13.8c0,5.1,1.8,12.3,16.9,15.7c4,1,16.2,3.8,16.2,12.8c0,7.1-6.3,11.9-15.7,11.9c-4.8,0-10.4-1.7-16.8-5.1 L54.9,123.2z"></path> <path class="st12" d="M141.2,109c0,11.5-5.3,22.5-18.6,22.5c-3.7,0-6.6-1.3-8.8-2.9V150h-10V87h10v2.5c2.1-1.6,5.1-2.9,8.8-2.9 C135.9,86.5,141.2,97.6,141.2,109 M131.3,109c0-6.1-2.2-12.7-8.7-12.7c-6.3,0-8.8,6.6-8.8,12.7s2.5,12.7,8.8,12.7 C129.1,121.7,131.3,115.1,131.3,109"></path> <path class="st13" d="M117.4,153.5h-17.2V83.4h17.2v0.2c1.5-0.4,3.2-0.7,5.2-0.7c13.5,0,22.2,10.2,22.2,26.1s-8.7,26.1-22.2,26.1 c-1.9,0-3.6-0.3-5.2-0.7C117.4,134.4,117.4,153.5,117.4,153.5z M107.5,146.3h2.8v-25.1l5.8,4.5c1.3,1,3.5,2.2,6.6,2.2 c13.9,0,15-14.5,15-18.9s-1.1-18.9-15-18.9c-3.1,0-5.3,1.2-6.6,2.2l-5.8,4.5v-6.2h-2.8C107.5,90.6,107.5,146.3,107.5,146.3z M122.6,125.3c-7.4,0-12.4-6.5-12.4-16.3s5-16.3,12.4-16.3c7.5,0,12.3,6.4,12.3,16.3S130.1,125.3,122.6,125.3 M122.6,99.9 c-5,0-5.2,8.2-5.2,9.1s0.1,9.1,5.2,9.1c4.7,0,5.1-7,5.1-9.1S127.3,99.9,122.6,99.9"></path> <path class="st12" d="M149.4,109c0-11.5,4.6-22.5,17.8-22.5c14.1,0,17.7,12.6,17.7,19.6c0,6-2.5,8.3-8.3,8.3H160 c0.8,3.9,3.6,7.4,9.2,7.4c3.4,0,6.1-0.6,9.9-3l5.1,7.9c-6.4,4.6-10.9,5-15,5C153.9,131.5,149.4,120.5,149.4,109 M159.8,104.5h14.8 c-0.6-4.6-2.7-8.2-7.4-8.2C162.4,96.3,160.3,99.9,159.8,104.5"></path> <path class="st13" d="M169.2,135.1c-14.9,0-23.4-9.5-23.4-26.1c0-7,1.6-13.1,4.6-17.5c3.7-5.6,9.6-8.6,16.9-8.6 c14.6,0,21.3,12,21.3,23.2c0,5.7-2.1,9.3-6.2,10.9l6.7,10.4l-2.8,2C178.9,134.7,173.6,135.1,169.2,135.1 M167.2,90.1 C154.8,90.1,153,102,153,109c0,12.5,5.5,18.9,16.2,18.9c3,0,6-0.2,10-2.5l-1.3-2c-3.2,1.5-5.9,1.8-8.7,1.8 c-6.5,0-11.4-3.9-12.7-10.2l-0.9-4.3h21c3.9,0,4.7-0.8,4.7-4.7C181.3,104.4,180.9,90.1,167.2,90.1 M167.5,117.9 c0.5,0.1,1.1,0.2,1.7,0.2c0.9,0,1.7,0,2.5-0.2H167.5z M178.7,108.1h-22.9l0.4-4c0.8-7.1,4.9-11.4,10.9-11.4s10.1,4.2,11,11.3 L178.7,108.1z M164.8,100.9h4.9c-0.9-1-1.9-1-2.4-1C166.6,99.9,165.6,99.9,164.8,100.9"></path> <rect x="195.5" y="68.1" class="st12" width="10" height="62.9"></rect> <path class="st13" d="M209.1,134.6h-17.2V64.5h17.2V134.6z M199.1,127.4h2.8V71.7h-2.8V127.4z"></path> <rect x="218.6" y="68.1" class="st12" width="10" height="62.9"></rect> <path class="st13" d="M232.2,134.6H215V64.5h17.2V134.6z M222.2,127.4h2.8V71.7h-2.8V127.4z"></path> <path class="st12" d="M239.2,109c0-11.5,5.5-22.5,18.7-22.5c13.3,0,18.7,11,18.7,22.5s-5.4,22.5-18.7,22.5 C244.7,131.5,239.2,120.5,239.2,109 M266.6,109c0-6.1-2.4-12.7-8.8-12.7c-6.3,0-8.8,6.6-8.8,12.7s2.5,12.7,8.8,12.7 C264.2,121.7,266.6,115.1,266.6,109"></path> <path class="st13" d="M257.9,135.1c-7.3,0-13.2-2.9-17.2-8.5c-3.3-4.5-5.1-10.8-5.1-17.6c0-6.8,1.8-13.1,5.1-17.6 c4-5.5,9.9-8.5,17.2-8.5c13.5,0,22.3,10.2,22.3,26.1C280.1,124.9,271.4,135.1,257.9,135.1 M257.9,90.1c-14,0-15.1,14.5-15.1,18.9 s1.1,18.9,15.1,18.9S273,113.4,273,109C272.9,104.6,271.8,90.1,257.9,90.1 M257.9,125.3c-7.4,0-12.4-6.5-12.4-16.3 s5-16.3,12.4-16.3s12.4,6.5,12.4,16.3S265.2,125.3,257.9,125.3 M257.9,99.9c-5,0-5.2,8.2-5.2,9.1s0.1,9.1,5.2,9.1 c5,0,5.2-8.2,5.2-9.1C263,108.1,262.9,99.9,257.9,99.9"></path> <path class="st12" d="M284.7,109c0-11.5,5.3-22.5,18.6-22.5c3.6,0,6.6,1.3,8.8,2.9V68.1h10V131h-10v-2.5c-2.1,1.6-5.2,2.9-8.8,2.9 C290,131.5,284.7,120.5,284.7,109 M294.6,109c0,6.1,2.2,12.7,8.7,12.7c6.3,0,8.8-6.6,8.8-12.7s-2.5-12.7-8.8-12.7 C296.8,96.3,294.6,103,294.6,109"></path> <path class="st13" d="M303.3,135.1c-13.5,0-22.2-10.2-22.2-26.1s8.7-26.1,22.2-26.1c1.8,0,3.5,0.3,5.2,0.7V64.5h17.2v70.1h-17.2 v-0.3C306.8,134.9,305,135.1,303.3,135.1 M303.3,90.1c-13.9,0-15,14.5-15,18.9s1.1,18.9,15,18.9c3.2,0,5.5-1.4,6.6-2.2l5.8-4.5 v6.2h2.8V71.7h-2.8v25.1l-5.8-4.5C308.8,91.5,306.5,90.1,303.3,90.1 M303.3,125.3c-7.5,0-12.3-6.4-12.3-16.3s4.8-16.3,12.3-16.3 c7.4,0,12.4,6.5,12.4,16.3S310.7,125.3,303.3,125.3 M303.3,99.9c-4.7,0-5.1,7-5.1,9.1s0.4,9.1,5.1,9.1c5,0,5.2-8.2,5.2-9.1 C308.4,108.1,308.3,99.9,303.3,99.9"></path> <path class="st12" d="M354.7,98.6c-1.9-1.9-4-2.3-6.3-2.3c-4.7,0-6.6,2.6-6.6,2.6V131h-10V95.8c0,0,5.8-9.2,16.6-9.2 c4.3,0,7.9,1.5,11,3.7L354.7,98.6z"></path> <path class="st13" d="M345.4,134.6h-17.2V94.7l0.5-0.9c0.3-0.4,7-10.9,19.7-10.9c4.7,0,9,1.4,13.1,4.3l2.6,1.9l-8.7,15.4l-3.4-3.4 c-0.9-0.9-1.9-1.2-3.8-1.2c-1.5,0-2.4,0.3-3,0.7v34H345.4z M335.4,127.4h2.8V97.8l0.7-0.9c0.3-0.4,3.1-4.1,9.6-4.1 c1.4,0,3.2,0.1,5,0.8l1.2-2.1c-2-0.9-4-1.4-6.2-1.4c-7,0-11.5,4.9-13,6.8v30.5H335.4z"></path> <path class="st12" d="M364,109c0-11.5,5.5-22.5,18.7-22.5c13.3,0,18.7,11,18.7,22.5s-5.4,22.5-18.7,22.5 C369.5,131.5,364,120.5,364,109 M391.4,109c0-6.1-2.4-12.7-8.8-12.7c-6.3,0-8.8,6.6-8.8,12.7s2.5,12.7,8.8,12.7 C389,121.7,391.4,115.1,391.4,109"></path> <path class="st13" d="M382.6,135.1c-7.3,0-13.2-2.9-17.2-8.5c-3.3-4.5-5.1-10.8-5.1-17.6c0-6.8,1.8-13.1,5.1-17.6 c4-5.5,9.9-8.5,17.2-8.5c13.5,0,22.3,10.2,22.3,26.1S396.2,135.1,382.6,135.1 M382.6,90.1c-14,0-15.1,14.5-15.1,18.9 s1.1,18.9,15.1,18.9s15.1-14.5,15.1-18.9S396.6,90.1,382.6,90.1 M382.6,125.3c-7.4,0-12.4-6.5-12.4-16.3s5-16.3,12.4-16.3 S395,99.2,395,109S390,125.3,382.6,125.3 M382.6,99.9c-5,0-5.2,8.2-5.2,9.1s0.1,9.1,5.2,9.1c5,0,5.2-8.2,5.2-9.1 C387.8,108.1,387.7,99.9,382.6,99.9"></path> <path class="st12" d="M452.6,131v-27.3c0-3.6-1.7-7.4-5.9-7.4c-2.6,0-4.7,1.6-5.6,2.9c0.2,1.4,0.2,2.6,0.2,4.5V131h-10v-27.3 c0-3.6-1.7-7.4-5.9-7.4c-3.1,0-5.2,2.5-5.2,2.5V131h-10V95.8c0,0,3.8-9.2,15.2-9.2c4.2,0,7.8,1.4,10.3,3.5 c2.4-1.9,6.1-3.5,10.9-3.5c11.4,0,15.8,8.8,15.8,17.2V131H452.6z"></path> <path class="st13" d="M466.1,134.6H449v-30.9c0-0.9-0.2-3.8-2.3-3.8c-0.7,0-1.3,0.3-1.8,0.6c0.1,1,0.1,2,0.1,3.2v30.9h-17.2v-30.9 c0-0.9-0.2-3.8-2.3-3.8c-0.6,0-1.2,0.3-1.6,0.5v34.2h-17.2V95.1l0.3-0.7c0.2-0.5,4.9-11.5,18.5-11.5c3.8,0,7.4,1,10.4,2.8 c2.4-1.4,6-2.8,10.8-2.8c13.4,0,19.4,10.4,19.4,20.8L466.1,134.6L466.1,134.6z M456.2,127.4h2.7v-23.7c0-3.2-0.9-13.6-12.2-13.6 c-4.7,0-7.6,1.9-8.6,2.7l-2.3,1.8l-2.2-1.9c-2.1-1.7-4.9-2.7-8-2.7c-7.4,0-10.7,4.8-11.6,6.5v30.8h2.8v-30l0.9-1 c0.3-0.4,3.3-3.7,8-3.7c5.6,0,9.5,4.5,9.5,11v23.7h2.8v-23.7c0-1.7,0-2.8-0.2-3.9l-0.3-1.5l0.8-1.2c1.4-2,4.5-4.4,8.5-4.4 c5.6,0,9.5,4.5,9.5,11L456.2,127.4L456.2,127.4z"></path> <path class="st12" d="M471.5,109c0-11.5,4.6-22.5,17.8-22.5c14.1,0,17.7,12.6,17.7,19.6c0,6-2.5,8.3-8.3,8.3h-16.6 c0.8,3.9,3.6,7.4,9.2,7.4c3.4,0,6.1-0.6,9.9-3l5.1,7.9c-6.4,4.6-10.9,5-15,5C476.1,131.5,471.5,120.5,471.5,109 M482,104.5h14.8 c-0.6-4.6-2.7-8.2-7.4-8.2C484.6,96.3,482.5,99.9,482,104.5"></path> <path class="st13" d="M491.3,135.1c-14.9,0-23.4-9.5-23.4-26.1c0-7,1.6-13.1,4.6-17.5c3.7-5.6,9.6-8.6,16.9-8.6 c14.6,0,21.3,12,21.3,23.2c0,5.7-2.1,9.3-6.2,10.9l6.7,10.4l-2.8,2C501.1,134.7,495.7,135.1,491.3,135.1 M489.3,90.1 c-12.4,0-14.2,11.8-14.2,18.9c0,12.5,5.5,18.9,16.2,18.9c3,0,6-0.2,10-2.5l-1.3-2c-3.2,1.5-5.9,1.8-8.7,1.8 c-6.5,0-11.4-3.9-12.7-10.2l-0.9-4.3h21c3.9,0,4.7-0.8,4.7-4.7C503.4,104.4,503,90.1,489.3,90.1 M489.6,117.9 c0.5,0.1,1.1,0.2,1.7,0.2c0.9,0,1.7,0,2.5-0.2H489.6z M500.9,108.1H478l0.4-4c0.8-7.1,4.9-11.4,10.9-11.4s10.1,4.2,11,11.3 L500.9,108.1z M486.9,100.9h4.9c-0.9-1-1.9-1-2.4-1C488.8,99.9,487.8,99.9,486.9,100.9"></path> <path class="st12" d="M50.5,124.9l3.5-10.1c7.2,4.3,13.7,6.7,18.7,6.7c6.6,0,12.1-2.7,12.1-8.3c0-5.5-7.9-8-13.4-9.3 c-10.2-2.3-19.7-7.4-19.7-19.2c0-10.6,8.8-17.4,21.7-17.4c6.5,0,15.8,3.2,19.3,4.7l-3.2,9.7C87,80.6,79,77.6,73.4,77.6 c-9,0-11.4,4.7-11.4,7.1c0,5.4,6.1,7.8,11.2,9c9.8,2.3,21.8,7.4,22,19.6c0,4.2-1.6,18.6-22.5,18.6 C65.9,131.8,58.4,129.4,50.5,124.9"></path> <path class="st12" d="M141.2,109c0,11.5-5.3,22.5-18.6,22.5c-3.7,0-6.6-1.3-8.8-2.9V150h-10V87h10v2.5c2.1-1.6,5.1-2.9,8.8-2.9 C135.9,86.5,141.2,97.6,141.2,109 M131.3,109c0-6.1-2.2-12.7-8.7-12.7c-6.3,0-8.8,6.6-8.8,12.7s2.5,12.7,8.8,12.7 C129.1,121.7,131.3,115.1,131.3,109"></path> <path class="st12" d="M149.4,109c0-11.5,4.6-22.5,17.8-22.5c14.1,0,17.7,12.6,17.7,19.6c0,6-2.5,8.3-8.3,8.3H160 c0.8,3.9,3.6,7.4,9.2,7.4c3.4,0,6.1-0.6,9.9-3l5.1,7.9c-6.4,4.6-10.9,5-15,5C153.9,131.5,149.4,120.5,149.4,109 M159.8,104.5h14.8 c-0.6-4.6-2.7-8.2-7.4-8.2C162.4,96.3,160.3,99.9,159.8,104.5"></path> <rect x="195.5" y="68.1" class="st12" width="10" height="62.9"></rect> <rect x="218.6" y="68.1" class="st12" width="10" height="62.9"></rect> <path class="st12" d="M239.2,109c0-11.5,5.5-22.5,18.7-22.5c13.3,0,18.7,11,18.7,22.5s-5.4,22.5-18.7,22.5 C244.7,131.5,239.2,120.5,239.2,109 M266.6,109c0-6.1-2.4-12.7-8.8-12.7c-6.3,0-8.8,6.6-8.8,12.7s2.5,12.7,8.8,12.7 C264.2,121.7,266.6,115.1,266.6,109"></path> <path class="st12" d="M284.7,109c0-11.5,5.3-22.5,18.6-22.5c3.6,0,6.6,1.3,8.8,2.9V68.1h10V131h-10v-2.5c-2.1,1.6-5.2,2.9-8.8,2.9 C290,131.5,284.7,120.5,284.7,109 M294.6,109c0,6.1,2.2,12.7,8.7,12.7c6.3,0,8.8-6.6,8.8-12.7s-2.5-12.7-8.8-12.7 C296.8,96.3,294.6,103,294.6,109"></path> <path class="st12" d="M354.7,98.6c-1.9-1.9-4-2.3-6.3-2.3c-4.7,0-6.6,2.6-6.6,2.6V131h-10V95.8c0,0,5.8-9.2,16.6-9.2 c4.3,0,7.9,1.5,11,3.7L354.7,98.6z"></path> <path class="st12" d="M364,109c0-11.5,5.5-22.5,18.7-22.5c13.3,0,18.7,11,18.7,22.5s-5.4,22.5-18.7,22.5 C369.5,131.5,364,120.5,364,109 M391.4,109c0-6.1-2.4-12.7-8.8-12.7c-6.3,0-8.8,6.6-8.8,12.7s2.5,12.7,8.8,12.7 C389,121.7,391.4,115.1,391.4,109"></path> <path class="st12" d="M452.6,131v-27.3c0-3.6-1.7-7.4-5.9-7.4c-2.6,0-4.7,1.6-5.6,2.9c0.2,1.4,0.2,2.6,0.2,4.5V131h-10v-27.3 c0-3.6-1.7-7.4-5.9-7.4c-3.1,0-5.2,2.5-5.2,2.5V131h-10V95.8c0,0,3.8-9.2,15.2-9.2c4.2,0,7.8,1.4,10.3,3.5 c2.4-1.9,6.1-3.5,10.9-3.5c11.4,0,15.8,8.8,15.8,17.2V131H452.6z"></path> <path class="st12" d="M471.5,109c0-11.5,4.6-22.5,17.8-22.5c14.1,0,17.7,12.6,17.7,19.6c0,6-2.5,8.3-8.3,8.3h-16.6 c0.8,3.9,3.6,7.4,9.2,7.4c3.4,0,6.1-0.6,9.9-3l5.1,7.9c-6.4,4.6-10.9,5-15,5C476.1,131.5,471.5,120.5,471.5,109 M482,104.5h14.8 c-0.6-4.6-2.7-8.2-7.4-8.2C484.6,96.3,482.5,99.9,482,104.5"></path> </g> </g> </svg> 