<?xml version="1.0" encoding="UTF-8"?> <svg xmlns="http://www.w3.org/2000/svg" xmlns:xlink="http://www.w3.org/1999/xlink" id="Layer_1" data-name="Layer 1" viewBox="0 0 478 200"><defs><style>.cls-1{fill:none;}.cls-2{clip-path:url(#clip-path);}.cls-3{fill:url(#linear-gradient);}.cls-4{fill:#0090ce;}.cls-4,.cls-5{fill-rule:evenodd;}.cls-5{fill:#f58936;}.cls-6{clip-path:url(#clip-path-2);}.cls-7{fill:url(#linear-gradient-2);}.cls-8{clip-path:url(#clip-path-3);}.cls-9{fill:url(#linear-gradient-3);}.cls-10{clip-path:url(#clip-path-4);}.cls-11{fill:url(#linear-gradient-4);}.cls-12{fill:#767c80;}</style><clipPath id="clip-path"><path class="cls-1" d="M120.37.18c-18.11.27-36.2.21-54.28.14C50.53.26,35,.2,19.39.36c-4.63,0-8.69,0-12,0S1.78.32.2.36L.33.54C20.15,29.31,47.6,29.09,69,28.87c7.08-.07,13.5-.14,18.75.85,6.37,1.2,9.15,3.25,11.59,8.79,1.11,2.51,2.17,5,3.2,7.35,15.32,35.75,20.91,56.8,29.68,68.28a28.56,28.56,0,0,0,6.66,6.41c.41.28.83.55,1.26.8,2.83,1.68,4.41,1.91,7.62,1.92,14.76-.36,41.21.78,50.78-2.88a13.81,13.81,0,0,1-2.9-2.37,31.34,31.34,0,0,1-2.38-3.14l-.33-.51c-1.89-2.9-2.34-5.43-4.18-9.52-14.14-31.55-27.54-93.31-50-102C135,1.39,128.69.17,121.35.17h-1"></path></clipPath><linearGradient id="linear-gradient" x1="384.24" y1="830.74" x2="387.77" y2="830.74" gradientTransform="matrix(0, -21.52, -21.52, 0, 17976.92, 8361.89)" gradientUnits="userSpaceOnUse"><stop offset="0" stop-color="#09c0e4"></stop><stop offset="0.22" stop-color="#14a3d5"></stop><stop offset="0.47" stop-color="#237ec1"></stop><stop offset="0.58" stop-color="#2269a8"></stop><stop offset="0.74" stop-color="#22528d"></stop><stop offset="0.88" stop-color="#21447d"></stop><stop offset="0.98" stop-color="#213f77"></stop><stop offset="1" stop-color="#213f77"></stop></linearGradient><clipPath id="clip-path-2"><path class="cls-1" d="M259.58.56a36.18,36.18,0,0,1-3.82.22h-5L206.31,1.84c1.1,1.18,4.89,5.34,9.92,11.61a103.44,103.44,0,0,1,14.86,25.37A443,443,0,0,1,248.63,90.3c1.39,5,2.55,9.25,3.67,12.91,6.57,21.49,17.22,19.89,35.9,20,10.47.07,21.31,0,30.35-2.09a4.62,4.62,0,0,1-1.51-1c-3.88-3.06-5.48-8.63-8.28-18.31-3.48-12.06-6.49-27.72-9.91-43.11-1.92-8.68-3.64-19.06-6.49-28.81-3.13-10.72-7.5-26.57-23.57-29.67Z"></path></clipPath><linearGradient id="linear-gradient-2" x1="383.77" y1="832.94" x2="387.3" y2="832.94" gradientTransform="matrix(0, -15.68, -15.68, 0, 13325.85, 6107.64)" gradientUnits="userSpaceOnUse"><stop offset="0" stop-color="#f288ae"></stop><stop offset="0.23" stop-color="#e07bab"></stop><stop offset="0.55" stop-color="#bf63a5"></stop><stop offset="1" stop-color="#922a8b"></stop></linearGradient><clipPath id="clip-path-3"><path class="cls-1" d="M339.2,2.69c-24.29,9.19-42.92,76.89-60.1,106.65-3.12,5.42-5.78,9.22-11,12.69,3.37,1.41,6.67,1.51,11.13,1.28l32.42-.11c27.43-.09,29.26-11.13,40.71-35.67,2.6-5.58,5.47-11.89,8.8-19,3.77-8.07,8.13-17.17,13.37-27.41.47-.93.95-1.86,1.44-2.8,3.95-7.69,10.05-9,18.59-9.44,3.85-.2,8.09-.12,12.6,0,14.22.26,55.7-8.5,70.55-28L477.8.7C454.88.13,431.94.16,409,.19c-17.09,0-34.19,0-51.28-.19h-.86A53.35,53.35,0,0,0,339.2,2.69"></path></clipPath><linearGradient id="linear-gradient-3" x1="385.55" y1="812.71" x2="389.16" y2="812.71" gradientTransform="matrix(-5.65, -46.4, -46.4, 5.65, 40270.1, 13431.52)" gradientUnits="userSpaceOnUse"><stop offset="0" stop-color="#f47e2a"></stop><stop offset="0.11" stop-color="#f47e2a"></stop><stop offset="0.15" stop-color="#f5862a"></stop><stop offset="0.21" stop-color="#f89c29"></stop><stop offset="0.29" stop-color="#fdc027"></stop><stop offset="0.31" stop-color="#ffcd27"></stop><stop offset="0.32" stop-color="#ffce2d"></stop><stop offset="0.34" stop-color="#ffdb64"></stop><stop offset="0.36" stop-color="#ffe693"></stop><stop offset="0.37" stop-color="#ffefba"></stop><stop offset="0.39" stop-color="#fff6d8"></stop><stop offset="0.41" stop-color="#fffbee"></stop><stop offset="0.43" stop-color="#fffefb"></stop><stop offset="0.45" stop-color="#fff"></stop><stop offset="0.47" stop-color="#fff1cb"></stop><stop offset="0.49" stop-color="#ffe39a"></stop><stop offset="0.51" stop-color="#ffd870"></stop><stop offset="0.53" stop-color="#ffcf50"></stop><stop offset="0.55" stop-color="#ffc939"></stop><stop offset="0.56" stop-color="#ffc52c"></stop><stop offset="0.58" stop-color="#ffc427"></stop><stop offset="0.73" stop-color="#f58835"></stop><stop offset="1" stop-color="#c02026"></stop></linearGradient><clipPath id="clip-path-4"><path class="cls-1" d="M240.33.09l-3.86.07c-3.73.08-7.44.06-11,0C216.57.11,208.7,0,204.25,1.74c-25.58,9.8-40.93,88.5-57.79,113.68l-.35.51a32.67,32.67,0,0,1-2.44,3.14,16.92,16.92,0,0,1-3,2.66c3.83,2,6.58,1.61,10.23,1.61H176c27,0,33.11-5,44-30.65,3.29-7.78,7-17.19,11.69-28.49,8-19,19.71-53.88,37.54-64,0,0-8.71-.06-10.61-.12Z"></path></clipPath><linearGradient id="linear-gradient-4" x1="385.89" y1="818.03" x2="389.42" y2="818.03" gradientTransform="matrix(0, -36.85, -36.85, 0, 30350.35, 14346.45)" gradientUnits="userSpaceOnUse"><stop offset="0" stop-color="#33215e"></stop><stop offset="0.09" stop-color="#33215e"></stop><stop offset="0.27" stop-color="#a74c9b"></stop><stop offset="0.29" stop-color="#b467aa"></stop><stop offset="0.35" stop-color="#d4a8ce"></stop><stop offset="0.39" stop-color="#ebd7e9"></stop><stop offset="0.43" stop-color="#faf4f9"></stop><stop offset="0.45" stop-color="#fff"></stop><stop offset="0.47" stop-color="#ede2f0"></stop><stop offset="0.54" stop-color="#c7a3ce"></stop><stop offset="0.6" stop-color="#a971b4"></stop><stop offset="0.66" stop-color="#934da1"></stop><stop offset="0.7" stop-color="#863795"></stop><stop offset="0.73" stop-color="#812f91"></stop><stop offset="1" stop-color="#151844"></stop></linearGradient></defs><g class="cls-2"><rect class="cls-3" x="-2.48" y="-4.22" width="203.66" height="132.65" transform="translate(-2.69 4.52) rotate(-2.57)"></rect></g><path class="cls-4" d="M44.54,35.21C57.13,49.05,84,54.62,99.72,58.64,98,54.19,96.1,49.51,94,44.55c-5.93-14.28-25.58-7.15-49.5-9.34"></path><path class="cls-5" d="M431.07,35.42C417.33,49.26,390,54.83,374,58.85c2.11-4.45,4.37-9.14,6.84-14.09,7.12-14.28,26.18-7.15,50.28-9.34"></path><g class="cls-6"><rect class="cls-7" x="202.1" y="-3.54" width="120.66" height="132.01" transform="translate(-3.72 18.46) rotate(-4)"></rect></g><g class="cls-8"><polygon class="cls-9" points="271.12 148.69 253.25 1.8 474.74 -28.68 492.61 118.21 271.12 148.69"></polygon></g><g class="cls-10"><rect class="cls-11" x="132.64" y="-8.32" width="144.56" height="140.41" transform="translate(-6.62 29.12) rotate(-8)"></rect></g><path class="cls-12" d="M143.55,152.15l-9.13,31.92a6,6,0,0,1-5.63,4.29h-.12a5.67,5.67,0,0,1-5.58-4.29l-6.19-24.14-6.12,24.14a5.77,5.77,0,0,1-5.52,4.29h-.12a6,6,0,0,1-5.7-4.29l-9.19-32a4,4,0,0,1-.18-1.16,4.59,4.59,0,0,1,4.65-4.54A4.69,4.69,0,0,1,99.26,150l6.49,26.71,7-26.71a4.37,4.37,0,0,1,4.28-3.19,4.26,4.26,0,0,1,4,3.19l7,26.71L134.42,150a4.73,4.73,0,0,1,4.66-3.62,4.56,4.56,0,0,1,4.66,4.54,3.76,3.76,0,0,1-.19,1.22"></path><path class="cls-12" d="M158.62,188.73c-9.74,0-15.62-7.11-15.62-15.56s5.88-15.5,15.62-15.5,15.69,7.1,15.69,15.5-5.88,15.56-15.69,15.56m0-24.14c-4.84,0-7.53,4-7.53,8.58s2.69,8.63,7.53,8.63,7.6-4,7.6-8.63-2.75-8.58-7.6-8.58"></path><path class="cls-12" d="M192.38,165.32a8.93,8.93,0,0,0-6.07,3.13V184.5a3.83,3.83,0,0,1-3.79,3.86h-.13a3.85,3.85,0,0,1-3.86-3.86V161.83a3.87,3.87,0,0,1,4-3.8,3.82,3.82,0,0,1,3.79,3.8v.61c1.48-2,3.43-4.28,6.38-4.28a3.1,3.1,0,0,1,3.43,3.18c0,2.33-1.59,3.68-3.74,4"></path><path class="cls-12" d="M223.26,188.36a3.84,3.84,0,0,1-3.86-3.86v-.31a11.51,11.51,0,0,1-9.13,4.54c-7.47,0-13.11-5.64-13.11-15.5,0-9.68,5.57-15.57,13.11-15.57a11.42,11.42,0,0,1,9.13,4.54V150.62a3.92,3.92,0,0,1,7.84,0V184.5a3.88,3.88,0,0,1-4,3.86M219.4,168a8.48,8.48,0,0,0-6.74-3.37c-4.41,0-7.48,3.49-7.48,8.64s3.07,8.57,7.48,8.57a8.45,8.45,0,0,0,6.74-3.37Z"></path><path class="cls-12" d="M259.16,154.79H242.31v8.63h16.42a3.83,3.83,0,0,1,0,7.66H242.31v13a4.35,4.35,0,0,1-8.7,0V152a4.91,4.91,0,0,1,4.9-4.9h20.65a3.83,3.83,0,0,1,0,7.66"></path><path class="cls-12" d="M270.74,188.36a3.84,3.84,0,0,1-3.86-3.86V150.56a3.89,3.89,0,0,1,7.78,0V184.5a3.86,3.86,0,0,1-3.92,3.86"></path><path class="cls-12" d="M306.82,163.24l-11.95,29.59C292.79,198,289.05,200,284.7,200c-2.69,0-4.77-1.35-4.77-3.49a3.49,3.49,0,0,1,3.67-3.44,5.32,5.32,0,0,0,1-.06,3.73,3.73,0,0,0,2.94-2.08l1.1-2.51-10.11-25.24a3.28,3.28,0,0,1-.24-1.29,3.89,3.89,0,0,1,3.92-3.86,3.94,3.94,0,0,1,3.62,2.57L292.67,179l6.86-18.38a4,4,0,0,1,3.74-2.57,3.77,3.77,0,0,1,3.79,3.8,3.67,3.67,0,0,1-.24,1.41"></path><path class="cls-12" d="M335.25,175.68H317c.49,3.73,3.49,6.86,8.52,6.86a13.11,13.11,0,0,0,5.75-1.47,3.45,3.45,0,0,1,1.54-.37,3.26,3.26,0,0,1,3.31,3.12c0,3.5-7.54,4.91-11.46,4.91-9,0-15.81-6.07-15.81-15.57,0-8.57,6.31-15.5,15.32-15.5a14.11,14.11,0,0,1,13.84,10,15.61,15.61,0,0,1,.86,4.47,3.61,3.61,0,0,1-3.61,3.56m-11.09-11.83a7.11,7.11,0,0,0-7.29,6.56h14.58a6.86,6.86,0,0,0-7.29-6.56"></path><path class="cls-12" d="M356.93,165.32a8.93,8.93,0,0,0-6.06,3.13V184.5a3.84,3.84,0,0,1-3.8,3.86H347a3.84,3.84,0,0,1-3.86-3.86V161.83a3.89,3.89,0,0,1,7.78,0v.61c1.47-2,3.43-4.28,6.37-4.28a3.09,3.09,0,0,1,3.43,3.18c0,2.33-1.59,3.68-3.74,4"></path><path class="cls-12" d="M374.27,188.73c-3.86,0-10-1.29-11.88-3.92a2.7,2.7,0,0,1-.56-1.66,3.32,3.32,0,0,1,3.25-3.25,3,3,0,0,1,1.59.43,17.16,17.16,0,0,0,8,2.39c3.37,0,5-1.34,5-3.18,0-4.9-17.58-.92-17.58-12.56,0-5,4.35-9.32,12.13-9.32,3.86,0,9.12,1.23,10.78,3.62a2.65,2.65,0,0,1,.49,1.53,3.07,3.07,0,0,1-4.53,2.57,13.61,13.61,0,0,0-6.68-1.77c-2.82,0-4.66,1.28-4.66,2.94,0,4.41,17.52.73,17.52,12.68,0,5.39-4.59,9.5-12.8,9.5"></path></svg> 