<?xml version="1.0" encoding="UTF-8"?> <!-- Generator: Adobe Illustrator 24.2.0, SVG Export Plug-In . SVG Version: 6.00 Build 0) --> <svg xmlns="http://www.w3.org/2000/svg" xmlns:xlink="http://www.w3.org/1999/xlink" version="1.1" id="Layer_1" x="0px" y="0px" viewBox="0 0 570 500" style="enable-background:new 0 0 570 500;" xml:space="preserve"> <style type="text/css"> .st0{fill:#5FAD6E;} .st1{fill:#D6E9BD;} .st2{fill:#5A969C;} .st3{fill:#FFFFFF;} .st4{fill:#F58457;} .st5{fill:#95CA59;} .st6{fill:#4F5E67;} .st7{fill:#1B81C4;} .st8{fill:#4473B9;} .st9{fill-rule:evenodd;clip-rule:evenodd;fill:#1B81C4;} .st10{fill-rule:evenodd;clip-rule:evenodd;fill:#5FAD6E;} .st11{fill-rule:evenodd;clip-rule:evenodd;fill:#95CA59;} .st12{fill:#EFE0CA;} .st13{fill:url(#SVGID_1_);} .st14{fill:url(#SVGID_2_);} .st15{fill:url(#SVGID_3_);} .st16{fill:url(#SVGID_4_);} .st17{fill:url(#SVGID_5_);} .st18{fill:url(#SVGID_6_);} .st19{fill:#1F81C5;} .st20{fill:url(#SVGID_7_);} .st21{fill:#F9A670;} .st22{fill:url(#SVGID_8_);} .st23{fill:url(#SVGID_9_);} .st24{fill:url(#SVGID_10_);} </style> <g> <path class="st0" d="M97.59,317.58l-2.8-1.57c0,0,0-0.11,0-0.22c0-0.11,0.11-0.11,0.22,0l2.8,1.57c0.11,0,0.11,0.11,0.11,0.22 C97.81,317.69,97.7,317.69,97.59,317.58C97.7,317.69,97.59,317.69,97.59,317.58z"></path> <path class="st0" d="M92.22,314.33l-2.69-1.79c0,0,0-0.11,0-0.22l0,0c0,0,0.11,0,0.22,0l2.69,1.79c0,0,0,0.11,0,0.22l0,0 C92.22,314.44,92.22,314.44,92.22,314.33z"></path> <path class="st0" d="M86.95,310.75l-2.46-2.02c0,0,0-0.11,0-0.22l0,0h0.11l2.46,2.02c0,0,0,0.11,0,0.22l0,0 C87.07,310.86,87.07,310.86,86.95,310.75z"></path> <path class="st0" d="M82.14,306.72l-2.24-2.24c0-0.11,0-0.11,0-0.11h0.11l2.24,2.24v0.11H82.14L82.14,306.72z"></path> <path class="st0" d="M77.66,302.24l-2.02-2.46v-0.11l0,0h0.11l0,0l0,0l2.02,2.46l0,0v0.11C77.77,302.24,77.77,302.24,77.66,302.24z "></path> <path class="st0" d="M73.97,297.09l-1.57-2.8v-0.11l0,0h0.11l0,0l1.57,2.69l0,0v0.11C74.08,297.09,73.97,297.09,73.97,297.09 L73.97,297.09z"></path> <path class="st0" d="M71.06,291.49l-1.12-2.91c0,0,0-0.11,0.11-0.11h0.11l0,0l1.12,2.91l0,0c0,0,0,0.11-0.11,0.11H71.06z"></path> <path class="st0" d="M69.04,285.45l-0.67-3.13c0,0,0-0.11,0.11-0.11c0,0,0.11,0,0.11,0.11l0,0l0,0l0.67,3.02l0,0 C69.26,285.45,69.15,285.56,69.04,285.45C69.04,285.56,69.04,285.45,69.04,285.45L69.04,285.45z"></path> <path class="st0" d="M67.92,279.29l-0.22-3.13c0,0,0-0.11,0.11-0.11s0.11,0,0.11,0.11l0.22,3.13l0,0c0,0,0,0.11-0.11,0.11 C67.92,279.29,67.92,279.29,67.92,279.29L67.92,279.29z"></path> <path class="st0" d="M67.47,272.91l0.11-3.13c0,0,0-0.11,0.11-0.11l0,0c0,0,0.11,0,0.11,0.11l-0.11,3.13 C67.7,273.02,67.59,273.02,67.47,272.91L67.47,272.91C67.59,273.02,67.47,273.02,67.47,272.91z"></path> <path class="st0" d="M67.92,266.64l0.45-3.13c0,0,0,0,0.11,0c0,0,0.11,0,0.11,0.11l-0.45,3.13c0,0,0,0.11-0.11,0.11l0,0 C67.92,266.75,67.81,266.64,67.92,266.64z"></path> <path class="st0" d="M68.82,260.37l0.67-3.13c0,0,0-0.11,0.11,0v0.11L68.82,260.37c0.11,0.11,0.11,0.11,0,0.11 C68.82,260.59,68.82,260.48,68.82,260.37C68.82,260.48,68.82,260.37,68.82,260.37z"></path> <path class="st0" d="M70.5,254.32l1.01-3.02c0,0,0,0,0.11,0s0.11,0,0.11,0l0,0l-1.01,3.02C70.61,254.32,70.61,254.32,70.5,254.32 L70.5,254.32L70.5,254.32L70.5,254.32z"></path> <path class="st0" d="M72.62,248.28l1.23-2.91c0,0,0,0,0.11,0s0,0,0,0.11L72.62,248.28L72.62,248.28z"></path> <path class="st0" d="M75.2,242.57l1.46-2.8 M76.77,239.88l-1.46,2.69 M75.2,242.57L75.2,242.57L75.2,242.57z"></path> <path class="st0" d="M78.33,236.97l1.68-2.69l0,0 M80.01,234.4l-1.68,2.69l0,0c0,0,0,0,0-0.11L80.01,234.4z"></path> <path class="st0" d="M81.8,231.82l1.9-2.46l0,0l0,0L81.8,231.82L81.8,231.82L81.8,231.82z"></path> <path class="st0" d="M85.72,226.89l2.13-2.35l0,0l0,0L85.72,226.89L85.72,226.89L85.72,226.89z"></path> <path class="st0" d="M89.98,222.19l2.24-2.24l0,0l0,0L89.98,222.19L89.98,222.19z"></path> <path class="st0" d="M94.45,217.83l2.35-2.13l0,0l0,0L94.45,217.83L94.45,217.83L94.45,217.83z"></path> <path class="st0" d="M99.38,213.8l2.57-1.79l0,0L99.38,213.8L99.38,213.8L99.38,213.8z"></path> <g> <path class="st1" d="M385.76,35.9c-37.73,10.86-76.35,42.99-153.94,34.71C86.84,55.15-37.54,123.45,10.49,281.98 s163.01,236.34,290.19,160.66c93.37-55.53,88-128.52,151.48-147.67c118.34-35.6,144.98-127.52,91.47-200.85 S436.03,21.34,385.76,35.9z"></path> <path class="st2" d="M466.37,390.46c0,4.14-3.36,7.39-7.39,7.39H56.61c-4.14,0-7.39-3.36-7.39-7.39l-3.36-231.19 c0-4.03,4.81-12.09,13.66-11.42l393.19-10.19c10.41-0.22,18.92,7.95,19.26,18.25c0,0.34,0,0.56,0,0.9L466.37,390.46z"></path> <path class="st3" d="M459.09,383.3c0,3.92-3.13,7.05-7.05,7.05H66.24c-3.92,0-7.05-3.13-7.05-7.05l-3.13-209.92 c0.34-12.65,11.42-17.13,18.14-16.91l376.84-10.08c7.28-0.22,13.32,5.6,13.55,12.87c0,0.22,0,0.45,0,0.56L459.09,383.3z"></path> <path class="st3" d="M63.44,283.21c-0.34,0-0.67-0.34-0.67-0.67l-0.22-17.02c0-0.34,0.22-0.67,0.56-0.67l0,0l0,0 c0.34,0,0.67,0.34,0.67,0.67L64,282.54C64,282.87,63.78,283.21,63.44,283.21L63.44,283.21z"></path> <path class="st3" d="M62.77,241.45c-0.34,0-0.67-0.22-0.67-0.67l-1.01-65.16c0-4.37,1.34-7.84,4.03-10.41 c4.81-4.59,12.32-4.37,12.65-4.37l120.35-3.25l0,0c0.34,0,0.67,0.22,0.67,0.67c0,0.34-0.22,0.67-0.56,0.67l-120.46,3.25 c-0.34,0-7.28-0.22-11.76,4.03c-2.46,2.46-3.81,5.93-3.58,9.52l1.01,65.16C63.44,241.22,63.11,241.45,62.77,241.45L62.77,241.45 L62.77,241.45z"></path> <path class="st2" d="M34.78,396.73h454.09c5.6,0,10.19,4.59,10.19,10.19l0,0c0,5.6-4.59,10.19-10.19,10.19H34.78 c-5.6,0-10.19-4.59-10.19-10.19l0,0C24.71,401.32,29.18,396.73,34.78,396.73z"></path> <path class="st4" d="M418.9,48.89c0.11-2.02-1.46-3.69-3.47-3.81l0,0c-6.72-0.22-21.5,1.68-35.27,19.82 c-18.58,24.41-3.47,58.1,35.83,58.66c36.05,0.56,48.36-26.65,47.8-43.1c-0.11-1.79-1.57-3.13-3.25-3.02 c-0.34,0-0.56,0.11-0.9,0.22l-38.4,12.65c-1.57,0.56-3.25-0.34-3.69-1.9c-0.11-0.34-0.11-0.67-0.11-1.12L418.9,48.89z"></path> <path class="st4" d="M428.42,44.29l-6.05,36.05c-0.22,1.34,0.67,2.57,2.02,2.8c0.45,0.11,0.9,0,1.34-0.22l33.14-15.34 c2.24-1.01,3.36-3.47,2.57-5.82c-2.13-6.49-8.62-18.36-28.32-21.05C430.77,40.6,428.75,42.06,428.42,44.29z"></path> <polygon class="st5" points="475.44,169.01 481.71,181.78 487.64,172.04 "></polygon> <path class="st5" d="M529.18,133.75l-19.7,46.91c-0.34,0.9-1.12,1.57-2.02,1.9c-0.9,0.34-1.9,0.34-2.8-0.11l-46.35-21.5 c-0.56-0.22-0.9-0.78-0.78-1.34c0-0.56,0.45-1.12,1.01-1.23L529.18,133.75z"></path> <polygon class="st0" points="475.44,169.01 529.18,133.75 482.94,172.48 484.51,176.07 "></polygon> <polygon class="st1" points="487.42,174.5 481.71,181.78 482.94,172.48 "></polygon> <path class="st0" d="M477.45,183.46l-1.9,2.57c-0.22,0.34-0.56,0.34-0.9,0.22c-0.34-0.11-0.34-0.56-0.22-0.9c0,0,0-0.11,0.11-0.11 l1.9-2.57c0.22-0.34,0.56-0.34,0.9-0.11C477.68,182.78,477.68,183.23,477.45,183.46L477.45,183.46z"></path> <path class="st0" d="M473.65,188.49l-1.9,2.57c-0.22,0.22-0.56,0.34-0.9,0.11l0,0c-0.22-0.22-0.34-0.56-0.11-0.9l1.9-2.46 c0.22-0.22,0.67-0.34,0.9-0.11C473.76,187.93,473.87,188.27,473.65,188.49z"></path> <path class="st0" d="M469.84,193.53l-1.9,2.46c-0.22,0.22-0.67,0.22-0.9,0s-0.22-0.56-0.11-0.78l1.9-2.46 c0.22-0.22,0.56-0.34,0.9-0.11l0,0C470.06,192.97,470.06,193.31,469.84,193.53z"></path> <path class="st0" d="M465.92,198.57l-1.9,2.46c-0.22,0.22-0.56,0.34-0.9,0.11l0,0c-0.22-0.22-0.34-0.56-0.11-0.9l2.02-2.46 c0.22-0.34,0.56-0.45,0.9-0.22s0.45,0.56,0.22,0.9C466.03,198.46,466.03,198.57,465.92,198.57L465.92,198.57z"></path> <path class="st0" d="M462,203.5l-2.02,2.46c-0.22,0.22-0.56,0.34-0.9,0.11l0,0c-0.22-0.22-0.34-0.56-0.11-0.9l2.02-2.46 c0.22-0.22,0.56-0.34,0.9-0.11l0,0C462.23,202.82,462.23,203.27,462,203.5z"></path> <path class="st0" d="M457.97,208.42l-2.02,2.46c-0.22,0.34-0.56,0.34-0.78,0.22c-0.34-0.22-0.34-0.56-0.22-0.78l0.11-0.11 l2.02-2.46c0.22-0.22,0.56-0.34,0.78-0.11l0,0C458.2,207.75,458.2,208.09,457.97,208.42z"></path> <path class="st0" d="M453.94,213.24l-2.02,2.35c-0.22,0.22-0.56,0.22-0.78,0c-0.22-0.22-0.22-0.56,0-0.78l2.02-2.35 c0.22-0.22,0.56-0.34,0.9-0.11S454.17,212.9,453.94,213.24L453.94,213.24z"></path> <path class="st0" d="M449.8,217.94l-2.13,2.35c-0.22,0.22-0.56,0.22-0.78,0c-0.22-0.22-0.22-0.56,0-0.78l2.13-2.35 c0.22-0.22,0.56-0.22,0.78,0C450.02,217.38,450.02,217.71,449.8,217.94L449.8,217.94z"></path> <path class="st0" d="M445.55,222.75l-2.13,2.35c-0.22,0.22-0.56,0.22-0.78,0c-0.22-0.22-0.22-0.56,0-0.78l2.13-2.35 c0.22-0.22,0.56-0.22,0.78-0.11l0,0C445.77,222.08,445.77,222.42,445.55,222.75z"></path> <path class="st0" d="M441.29,227.34l-2.13,2.35c-0.22,0.22-0.56,0.22-0.78,0.11c-0.22-0.22-0.22-0.56-0.11-0.78l0,0l2.13-2.35 c0.22-0.22,0.56-0.22,0.78-0.11C441.52,226.67,441.52,227.12,441.29,227.34L441.29,227.34z"></path> <path class="st0" d="M437.04,231.93l-2.24,2.24c-0.22,0.22-0.56,0.22-0.78,0c-0.22-0.22-0.22-0.56,0-0.78l2.13-2.24 c0.22-0.22,0.56-0.22,0.78,0l0,0C437.15,231.37,437.15,231.71,437.04,231.93z"></path> <path class="st0" d="M432.56,236.52l-2.24,2.24c-0.22,0.22-0.56,0.22-0.78,0l0,0c-0.22-0.22-0.22-0.56,0-0.78l0,0l2.24-2.24 c0.22-0.22,0.56-0.22,0.78,0C432.9,235.96,432.78,236.3,432.56,236.52L432.56,236.52z"></path> <path class="st0" d="M428.19,241l-2.24,2.24c-0.22,0.22-0.56,0.22-0.78,0c-0.22-0.22-0.22-0.56,0-0.78l2.24-2.24 c0.22-0.22,0.56-0.22,0.78,0l0,0C428.42,240.44,428.42,240.78,428.19,241z"></path> <path class="st0" d="M423.72,245.48l-2.24,2.24c-0.22,0.22-0.56,0.22-0.78,0.11c-0.22-0.22-0.22-0.56-0.11-0.78c0,0,0,0,0.11-0.11 l2.24-2.24c0.22-0.22,0.56-0.22,0.78,0C423.94,244.92,423.94,245.25,423.72,245.48L423.72,245.48z"></path> <path class="st0" d="M419.13,249.85l-2.35,2.24c-0.22,0.22-0.56,0.22-0.78,0c-0.22-0.22-0.22-0.56,0-0.78l0,0l2.24-2.13 c0.22-0.22,0.56-0.22,0.78,0C419.24,249.4,419.24,249.73,419.13,249.85L419.13,249.85z"></path> <path class="st0" d="M414.53,254.21l-2.35,2.13c-0.22,0.22-0.56,0.22-0.78,0l0,0c-0.22-0.22-0.22-0.56,0-0.78l2.35-2.13 c0.22-0.22,0.56-0.22,0.78,0l0,0C414.76,253.65,414.76,253.99,414.53,254.21z"></path> <path class="st0" d="M409.83,258.47l-2.35,2.13c-0.22,0.22-0.56,0.22-0.78,0c-0.22-0.22-0.22-0.56,0-0.78l0,0l2.35-2.13 c0.22-0.22,0.56-0.22,0.78,0C410.06,257.91,410.06,258.24,409.83,258.47z"></path> <path class="st0" d="M405.13,262.72l-2.35,2.13c-0.22,0.22-0.56,0.11-0.67-0.11c-0.22-0.22-0.11-0.56,0-0.67l0,0l2.35-2.13 c0.22-0.22,0.56-0.22,0.67,0C405.35,262.16,405.35,262.5,405.13,262.72z"></path> <path class="st0" d="M400.32,266.86l-2.35,2.02c-0.22,0.22-0.56,0.11-0.67-0.11l0,0c-0.22-0.22-0.11-0.56,0.11-0.67l0,0l2.35-2.02 c0.22-0.22,0.56-0.11,0.78,0.11C400.65,266.3,400.54,266.64,400.32,266.86C400.32,266.75,400.32,266.75,400.32,266.86z"></path> <path class="st0" d="M395.5,270.89l-2.46,2.02c-0.22,0.11-0.45,0.11-0.67,0c-0.22-0.22-0.11-0.56,0.11-0.67l0,0l2.46-2.02 c0.22-0.22,0.56-0.22,0.67,0C395.84,270.33,395.73,270.67,395.5,270.89L395.5,270.89z"></path> <path class="st0" d="M390.58,274.92l-2.46,2.02c-0.22,0.22-0.56,0.11-0.67-0.11c-0.11-0.22-0.11-0.56,0.11-0.67l2.46-2.02 c0.22-0.22,0.56-0.11,0.67,0.11C390.91,274.36,390.8,274.7,390.58,274.92L390.58,274.92L390.58,274.92z"></path> <path class="st0" d="M385.65,278.84l-2.46,1.9c-0.22,0.11-0.56,0.11-0.67-0.11c-0.11-0.22-0.11-0.56,0.11-0.67l2.46-1.9 c0.22-0.11,0.56-0.11,0.67,0.11C385.87,278.28,385.87,278.62,385.65,278.84L385.65,278.84z"></path> <path class="st0" d="M380.61,282.65l-2.57,1.9c-0.22,0.11-0.56,0.11-0.67-0.11s-0.11-0.56,0.11-0.67l0,0l2.46-1.9 c0.22-0.11,0.56,0,0.67,0.22C380.84,282.31,380.84,282.54,380.61,282.65z"></path> <path class="st0" d="M375.57,286.45l-2.57,1.9c-0.22,0.11-0.56,0.11-0.67-0.11c-0.11-0.22-0.11-0.56,0.11-0.67l2.57-1.9 c0.22-0.11,0.56-0.11,0.67,0.11C375.8,286.01,375.8,286.23,375.57,286.45z"></path> <path class="st0" d="M370.42,290.15l-2.57,1.79c-0.22,0.11-0.56,0.11-0.67-0.11l0,0c-0.11-0.22-0.11-0.56,0.11-0.67l2.57-1.79 c0.22-0.11,0.45-0.11,0.67,0.11l0,0C370.76,289.7,370.65,290.04,370.42,290.15z"></path> <path class="st0" d="M365.27,293.73l-2.57,1.79c-0.22,0.11-0.45,0.11-0.67-0.11c-0.11-0.22-0.11-0.45,0.11-0.67l0,0l2.57-1.79 c0.22-0.11,0.56-0.11,0.67,0.11l0,0C365.5,293.28,365.5,293.62,365.27,293.73z"></path> <path class="st0" d="M360.01,297.31l-2.69,1.68c-0.22,0.11-0.45,0.11-0.67-0.11l0,0c-0.11-0.22-0.11-0.56,0.11-0.67l2.69-1.68 c0.22-0.11,0.45-0.11,0.67,0.11C360.24,296.87,360.24,297.09,360.01,297.31L360.01,297.31L360.01,297.31z"></path> <path class="st0" d="M354.75,300.67l-2.57,1.68c-0.22,0.11-0.45,0.11-0.67-0.11c-0.22-0.22-0.11-0.45,0.11-0.67l0,0l2.69-1.68 c0.22-0.11,0.45-0.11,0.67,0.11C355.09,300.22,354.97,300.56,354.75,300.67L354.75,300.67L354.75,300.67z"></path> <path class="st0" d="M349.38,304.03l-2.69,1.68c-0.22,0.11-0.45,0.11-0.56-0.11c-0.11-0.22-0.11-0.45,0.11-0.56l0,0l2.69-1.68 c0.22-0.11,0.45,0,0.56,0.22C349.6,303.7,349.49,303.92,349.38,304.03z"></path> <path class="st0" d="M343.89,307.28l-2.8,1.57c-0.22,0.11-0.45,0-0.56-0.11c-0.11-0.11,0-0.45,0.11-0.56l2.69-1.57 c0.22-0.11,0.45,0,0.56,0.11C344.23,306.94,344.11,307.17,343.89,307.28L343.89,307.28z"></path> <path class="st0" d="M338.41,310.41l-2.8,1.57c-0.22,0.11-0.45,0-0.56-0.22s0-0.45,0.11-0.56l2.8-1.57c0.22-0.11,0.45,0,0.56,0.11 C338.63,309.85,338.63,310.41,338.41,310.41L338.41,310.41z"></path> <path class="st0" d="M332.92,313.44l-2.8,1.46c-0.22,0.11-0.45,0-0.56-0.11l0,0c-0.11-0.22,0-0.45,0.22-0.56l0,0l2.8-1.46 c0.22-0.11,0.45,0,0.56,0.22S333.03,313.32,332.92,313.44L332.92,313.44z"></path> <path class="st0" d="M327.21,316.46l-2.8,1.46c-0.22,0.11-0.45,0-0.56-0.22l0,0c-0.11-0.22,0-0.45,0.22-0.56l2.8-1.46 c0.22-0.11,0.45-0.11,0.56,0.11c0.11,0.22,0.11,0.45-0.11,0.56C327.32,316.35,327.32,316.35,327.21,316.46z"></path> <path class="st0" d="M321.61,319.26l-2.8,1.34c-0.22,0.11-0.45,0-0.56-0.22c-0.11-0.22,0-0.45,0.22-0.56l2.8-1.34 c0.22-0.11,0.45,0,0.56,0.22C321.95,318.92,321.84,319.15,321.61,319.26z"></path> <path class="st0" d="M315.9,321.94l-2.91,1.34c-0.22,0.11-0.45,0-0.56-0.22l0,0c-0.11-0.22,0-0.45,0.22-0.56l0,0l2.91-1.34 c0.22-0.11,0.45,0,0.56,0.22C316.13,321.61,316.01,321.83,315.9,321.94z"></path> <path class="st0" d="M310.08,324.41l-2.91,1.23c-0.22,0.11-0.45,0-0.56-0.11c-0.11-0.11,0-0.45,0.11-0.56c0,0,0,0,0.11,0 l2.91-1.23c0.22-0.11,0.45,0,0.56,0.22C310.42,324.18,310.3,324.41,310.08,324.41L310.08,324.41L310.08,324.41z"></path> <path class="st0" d="M304.26,326.87l-2.91,1.12c-0.22,0.11-0.45,0-0.56-0.22c-0.11-0.22,0-0.45,0.22-0.56l2.91-1.12 c0.22-0.11,0.45,0,0.56,0.22C304.59,326.53,304.48,326.76,304.26,326.87z"></path> <path class="st0" d="M298.33,329.11l-3.02,1.12c-0.22,0-0.45-0.11-0.45-0.34c0-0.22,0-0.34,0.22-0.45l2.91-1.12 c0.22-0.11,0.45,0,0.56,0.22C298.66,328.77,298.66,329,298.33,329.11C298.44,329.11,298.33,329.11,298.33,329.11z"></path> <path class="st0" d="M292.39,331.35l-3.02,1.01c-0.22,0.11-0.45,0-0.45-0.22c0-0.22,0-0.45,0.22-0.45l3.02-1.01 c0.22-0.11,0.45,0,0.45,0.22C292.62,331.12,292.62,331.24,292.39,331.35L292.39,331.35L292.39,331.35z"></path> <path class="st0" d="M286.35,333.25l-3.02,0.9c-0.22,0.11-0.45-0.11-0.45-0.22c0-0.22,0-0.45,0.22-0.45l3.02-0.9 c0.22-0.11,0.45,0,0.56,0.11c0.11,0.11,0,0.45-0.11,0.56C286.46,333.25,286.46,333.25,286.35,333.25z"></path> <path class="st0" d="M280.3,335.04l-3.02,0.9c-0.22,0.11-0.45-0.11-0.45-0.22l0,0c0-0.22,0-0.34,0.22-0.45l0,0l3.02-0.9 c0.22,0,0.45,0.11,0.45,0.22C280.52,334.71,280.52,335.04,280.3,335.04L280.3,335.04z"></path> <path class="st0" d="M274.25,336.72l-3.02,0.78c-0.22,0-0.34-0.11-0.45-0.22l0,0c0-0.22,0-0.34,0.22-0.45l0,0l3.02-0.78 c0.22-0.11,0.45,0,0.45,0.22C274.48,336.5,274.48,336.72,274.25,336.72L274.25,336.72z"></path> <path class="st0" d="M268.1,338.18l-3.13,0.67c-0.22,0-0.34-0.11-0.45-0.22c0-0.22,0.11-0.34,0.22-0.45l3.13-0.67 c0.22,0,0.34,0.11,0.45,0.22C268.43,337.95,268.32,338.18,268.1,338.18z"></path> <path class="st0" d="M261.83,339.52l-3.13,0.56c-0.22,0-0.34-0.11-0.45-0.34c0-0.22,0.11-0.34,0.22-0.45l3.13-0.56 c0.22,0,0.34,0.11,0.45,0.22C262.16,339.3,262.05,339.52,261.83,339.52z"></path> <path class="st0" d="M255.67,340.64l-3.13,0.45c-0.22,0-0.34-0.11-0.45-0.34c0-0.22,0.11-0.34,0.22-0.34l0,0l3.13-0.45 c0.22,0,0.34,0.11,0.45,0.34C256.01,340.42,255.78,340.53,255.67,340.64L255.67,340.64z"></path> <path class="st0" d="M249.4,341.54l-3.13,0.45c-0.22,0-0.34-0.11-0.34-0.34c0-0.22,0.11-0.34,0.22-0.34l0,0l3.13-0.45 c0.22,0,0.34,0.11,0.34,0.22l0,0C249.74,341.31,249.62,341.54,249.4,341.54L249.4,341.54z"></path> <path class="st0" d="M243.13,342.21l-3.13,0.34c-0.22,0-0.34-0.11-0.34-0.34c0-0.22,0.11-0.34,0.34-0.34l3.13-0.34 c0.22,0,0.34,0.11,0.34,0.34l0,0C243.47,342.1,243.24,342.21,243.13,342.21L243.13,342.21z"></path> <path class="st0" d="M236.75,342.88l-3.13,0.22c-0.22,0-0.34-0.11-0.34-0.34c0-0.22,0.11-0.34,0.34-0.34l0,0l3.13-0.22 c0.22,0,0.34,0.22,0.34,0.34C237.09,342.77,236.97,342.88,236.75,342.88L236.75,342.88z"></path> <path class="st0" d="M230.48,343.33l-3.13,0.22c-0.22,0-0.34-0.11-0.34-0.34s0.11-0.34,0.34-0.34l3.13-0.22 c0.22,0,0.34,0.22,0.22,0.34C230.7,343.22,230.59,343.33,230.48,343.33L230.48,343.33z"></path> <path class="st0" d="M224.21,343.66l-3.13,0.11c-0.22,0-0.34-0.11-0.34-0.22c0-0.22,0.11-0.34,0.22-0.34h0.11l3.13-0.11 c0.22,0,0.34,0.22,0.22,0.34C224.43,343.55,224.32,343.66,224.21,343.66L224.21,343.66z"></path> <path class="st0" d="M217.83,343.89h-3.13c-0.11,0-0.34-0.11-0.34-0.22l0,0c0-0.11,0.11-0.34,0.34-0.34l0,0h3.13 c0.22,0,0.34,0.11,0.34,0.22C218.28,343.55,218.17,343.78,217.83,343.89C217.94,343.78,217.94,343.78,217.83,343.89L217.83,343.89 z"></path> <path class="st0" d="M211.56,343.89h-3.13c-0.11,0-0.34-0.11-0.34-0.34c0-0.11,0.11-0.34,0.34-0.34h3.13 c0.11,0,0.34,0.11,0.34,0.34C211.9,343.78,211.67,343.89,211.56,343.89L211.56,343.89z"></path> <path class="st0" d="M205.18,343.89l-3.13-0.11c-0.11,0-0.34-0.11-0.22-0.34c0-0.11,0.11-0.34,0.34-0.34l0,0l3.13,0.11 c0.11,0,0.34,0.11,0.34,0.34l0,0C205.51,343.78,205.4,343.89,205.18,343.89C205.29,343.89,205.29,343.89,205.18,343.89z"></path> <path class="st0" d="M198.91,343.66l-3.13-0.11c-0.11,0-0.22-0.11-0.22-0.34c0-0.11,0.11-0.22,0.22-0.22l0,0l3.13,0.11 c0.11,0,0.22,0.22,0.22,0.34C199.13,343.55,199.02,343.66,198.91,343.66L198.91,343.66z"></path> <path class="st0" d="M192.64,343.44l-3.13-0.11c-0.11,0-0.22-0.22-0.22-0.34c0-0.11,0.11-0.22,0.22-0.22l3.13,0.11 c0.11,0,0.22,0.11,0.22,0.34l0,0C192.86,343.33,192.75,343.44,192.64,343.44z"></path> <path class="st0" d="M186.26,343.1l-3.13-0.22c-0.11,0-0.22-0.11-0.22-0.34c0-0.11,0.11-0.22,0.34-0.22l3.13,0.22 c0.11,0,0.22,0.11,0.22,0.22C186.59,342.88,186.48,343.1,186.26,343.1L186.26,343.1z"></path> <path class="st0" d="M179.99,342.66l-3.13-0.22c-0.11,0-0.22-0.11-0.22-0.22c0-0.11,0.11-0.22,0.34-0.22l0,0l3.13,0.22 c0.11,0,0.34,0.11,0.34,0.22s-0.11,0.34-0.22,0.34C180.1,342.66,180.1,342.66,179.99,342.66L179.99,342.66z"></path> <path class="st0" d="M173.72,342.1l-3.13-0.22c-0.11,0-0.22-0.22-0.22-0.34c0-0.11,0.11-0.22,0.22-0.22l3.13,0.22 c0.11,0,0.22,0.11,0.22,0.34l0,0C173.94,341.98,173.83,342.1,173.72,342.1z"></path> <path class="st0" d="M167.34,341.54l-3.13-0.34c-0.11,0-0.22-0.11-0.22-0.22s0.11-0.22,0.22-0.22l3.13,0.34 c0.11,0,0.22,0.22,0.22,0.34C167.56,341.42,167.45,341.54,167.34,341.54L167.34,341.54z"></path> <path class="st0" d="M161.07,340.86l-3.13-0.34c-0.11,0-0.22-0.11-0.22-0.22c0-0.11,0.11-0.22,0.22-0.22l0,0l3.13,0.34 c0.11,0,0.22,0.11,0.22,0.22S161.29,340.86,161.07,340.86z"></path> <path class="st0" d="M154.8,340.19l-3.13-0.45c-0.11,0-0.22-0.11-0.22-0.22l0,0c0-0.11,0.11-0.22,0.22-0.22l0,0l3.13,0.34 c0.11,0,0.22,0.11,0.22,0.22C155.13,340.08,154.91,340.19,154.8,340.19z"></path> <path class="st0" d="M148.53,339.41l-3.13-0.45c-0.11,0-0.22-0.22-0.11-0.34c0-0.11,0.11-0.11,0.22-0.11l3.13,0.45 c0.11,0,0.22,0.11,0.22,0.22l0,0C148.75,339.3,148.64,339.41,148.53,339.41z"></path> <path class="st0" d="M142.26,338.51l-3.13-0.45c-0.11,0-0.22-0.11-0.22-0.22s0.11-0.22,0.22-0.22l0,0l3.13,0.45 c0.11,0,0.22,0.11,0.22,0.22l0,0C142.6,338.51,142.37,338.51,142.26,338.51z"></path> <path class="st0" d="M135.99,337.62l-3.13-0.45c-0.11,0-0.22-0.11-0.22-0.22s0.11-0.22,0.22-0.22l3.13,0.45 c0.11,0,0.22,0.11,0.22,0.22l0,0C136.21,337.62,136.1,337.73,135.99,337.62L135.99,337.62z"></path> <path class="st0" d="M129.83,336.72l-3.13-0.45c-0.11,0-0.22-0.11-0.22-0.22l0,0c0-0.11,0.11-0.22,0.22-0.22l0,0l3.13,0.45 c0.11,0,0.22,0.11,0.22,0.22S129.94,336.72,129.83,336.72z"></path> <path class="st0" d="M123.56,335.83l-3.13-0.45c-0.11,0-0.22-0.11-0.22-0.22l0,0c0-0.11,0.11-0.22,0.22-0.22l0,0l3.13,0.45 c0.11,0,0.22,0.11,0.22,0.22C123.79,335.71,123.67,335.83,123.56,335.83L123.56,335.83z"></path> <path class="st0" d="M117.29,334.82l-3.13-0.56c-0.11,0-0.22-0.11-0.11-0.22c0-0.11,0.11-0.22,0.22-0.22l0,0l3.13,0.45 c0.11,0,0.22,0.11,0.22,0.22l0,0C117.52,334.71,117.41,334.82,117.29,334.82L117.29,334.82z"></path> <path class="st0" d="M111.02,333.81l-3.02-0.56c-0.11,0-0.22-0.11-0.22-0.22l0,0c0-0.11,0.11-0.22,0.22-0.11l3.13,0.56 c0.11,0,0.22,0.11,0.11,0.22l0,0C111.36,333.7,111.25,333.81,111.02,333.81C111.14,333.81,111.14,333.81,111.02,333.81z"></path> <path class="st0" d="M104.87,332.8l-3.13-0.56c-0.11,0-0.22-0.11-0.11-0.22l0,0c0-0.11,0.11-0.11,0.22-0.11l3.13,0.56 c0.11,0,0.22,0.11,0.11,0.22l0,0C105.09,332.69,104.98,332.8,104.87,332.8L104.87,332.8z"></path> <path class="st0" d="M98.6,331.57l-3.13-0.67c-0.11,0-0.11-0.11-0.11-0.22s0.11-0.11,0.22-0.11l0,0l3.13,0.67 c0.11,0,0.11,0.11,0.11,0.22S98.71,331.57,98.6,331.57L98.6,331.57z"></path> <path class="st0" d="M92.44,330.23l-3.13-0.78c-0.11,0-0.11-0.11-0.11-0.22l0,0c0-0.11,0.11-0.11,0.22-0.11l3.13,0.67 c0.11,0,0.11,0.11,0.11,0.22C92.66,330.23,92.55,330.34,92.44,330.23z"></path> <path class="st0" d="M86.28,328.77l-3.02-0.78c-0.11,0-0.11-0.11-0.11-0.22s0.11-0.11,0.22-0.11l3.02,0.78 c0.11,0,0.11,0.11,0.11,0.22C86.51,328.77,86.39,328.89,86.28,328.77L86.28,328.77z"></path> <path class="st0" d="M80.24,327.09l-3.02-0.9c-0.11,0-0.11-0.11-0.11-0.22c0-0.11,0.11-0.11,0.22-0.11l3.02,0.9 c0.11,0,0.11,0.11,0.11,0.22l0,0C80.46,326.98,80.35,327.09,80.24,327.09z"></path> <path class="st0" d="M74.19,325.08l-3.02-1.12c-0.11,0-0.11-0.11-0.11-0.22s0.11-0.11,0.22-0.11l2.91,1.01 c0.11,0,0.11,0.11,0.11,0.22C74.41,325.08,74.3,325.19,74.19,325.08L74.19,325.08z"></path> <path class="st0" d="M68.26,322.95l-2.91-1.23c-0.11,0-0.11-0.11-0.11-0.22s0.11-0.11,0.22-0.11l0,0l2.91,1.23 c0.11,0,0.11,0.11,0.11,0.22S68.37,322.95,68.26,322.95z"></path> <path class="st0" d="M62.44,320.38l-2.91-1.34c-0.11,0-0.11-0.11-0.11-0.22s0.11-0.11,0.22-0.11l0,0l2.8,1.34 c0.11,0,0.11,0.11,0.11,0.22C62.66,320.38,62.55,320.49,62.44,320.38z"></path> <polygon class="st0" points="63.89,210.32 66.69,208.98 63.89,210.32 "></polygon> <polygon class="st5" points="339.3,288.47 325.53,270.89 368.97,270.89 382.74,288.47 "></polygon> <polygon class="st6" points="325.53,270.89 311.76,288.47 311.76,344.11 339.3,344.11 339.3,288.47 "></polygon> <rect x="339.3" y="288.47" class="st7" width="43.44" height="55.64"></rect> <rect x="349.82" y="296.64" class="st1" width="3.13" height="2.69"></rect> <rect x="349.82" y="304.7" class="st1" width="3.13" height="2.69"></rect> <rect x="359.45" y="296.64" class="st1" width="3.13" height="2.69"></rect> <rect x="359.45" y="304.7" class="st1" width="3.13" height="2.69"></rect> <rect x="368.97" y="296.64" class="st1" width="3.13" height="2.69"></rect> <rect x="368.97" y="304.7" class="st1" width="3.13" height="2.69"></rect> <rect x="349.82" y="312.65" class="st1" width="3.13" height="2.69"></rect> <rect x="359.45" y="312.65" class="st1" width="3.13" height="2.69"></rect> <rect x="368.97" y="312.65" class="st1" width="3.13" height="2.69"></rect> <rect x="319.15" y="296.64" class="st8" width="3.13" height="2.69"></rect> <rect x="319.15" y="304.7" class="st8" width="3.13" height="2.69"></rect> <rect x="328.67" y="296.64" class="st8" width="3.13" height="2.69"></rect> <rect x="328.67" y="304.7" class="st8" width="3.13" height="2.69"></rect> <rect x="319.15" y="312.65" class="st8" width="3.13" height="2.69"></rect> <rect x="328.67" y="312.65" class="st8" width="3.13" height="2.69"></rect> <path class="st5" d="M382.74,326.31c-18.7-7.39-26.98,5.93-35.71,8.51c-12.54,3.81-14.55-1.46-30.23,0.78 c-12.09,1.68-15.45,10.86-26.31,8.73c-11.31-2.24-26.2-7.17-42.1,1.12c-17.47,9.07-12.99,37.73-12.99,37.73l29,7.95h118.45v-64.82 H382.74z"></path> <path class="st0" d="M268.55,391.13v-45.45c0,0,13.99-7.5,31.46,2.24c24.07,13.32,22.84,7.39,49.48,7.39 c18.7,0,50.16,36.05,50.16,36.05L268.55,391.13z"></path> <polygon class="st9" points="410.17,326.42 382.74,326.42 382.74,336.27 410.17,336.27 "></polygon> <polygon class="st10" points="410.17,326.42 382.74,326.42 394.94,314.44 422.37,314.44 "></polygon> <polygon class="st9" points="397.97,348.25 370.42,348.25 370.42,391.24 397.97,391.24 "></polygon> <polygon class="st10" points="397.97,348.25 370.42,348.25 382.74,336.27 410.17,336.27 "></polygon> <polygon class="st11" points="422.37,314.44 434.57,326.42 410.17,326.42 "></polygon> <polygon class="st11" points="446.55,348.25 434.69,336.5 434.69,326.2 410.39,326.2 410.39,336.61 397.85,348.25 397.85,391.36 410.39,391.36 410.39,391.36 434.69,391.36 434.69,391.36 446.55,391.36 "></polygon> <rect x="415.88" y="334.26" class="st0" width="2.57" height="5.04"></rect> <rect x="426.29" y="334.26" class="st0" width="2.57" height="5.04"></rect> <rect x="415.88" y="343.22" class="st0" width="2.57" height="5.04"></rect> <rect x="426.29" y="343.22" class="st0" width="2.57" height="5.04"></rect> <rect x="415.88" y="352.17" class="st0" width="2.57" height="5.04"></rect> <rect x="426.29" y="352.17" class="st0" width="2.57" height="5.04"></rect> <rect x="415.88" y="361.13" class="st0" width="2.57" height="5.04"></rect> <rect x="426.29" y="361.13" class="st0" width="2.57" height="5.04"></rect> <rect x="415.88" y="370.09" class="st0" width="2.57" height="5.04"></rect> <rect x="426.29" y="370.09" class="st0" width="2.57" height="5.04"></rect> <rect x="415.88" y="379.04" class="st0" width="2.57" height="5.04"></rect> <rect x="426.29" y="379.04" class="st0" width="2.57" height="5.04"></rect> <rect x="405.35" y="352.17" class="st0" width="2.57" height="5.04"></rect> <rect x="405.35" y="361.13" class="st0" width="2.57" height="5.04"></rect> <rect x="405.35" y="370.09" class="st0" width="2.57" height="5.04"></rect> <rect x="405.35" y="379.04" class="st0" width="2.57" height="5.04"></rect> <rect x="436.7" y="352.17" class="st0" width="2.57" height="5.04"></rect> <rect x="436.7" y="361.13" class="st0" width="2.57" height="5.04"></rect> <rect x="436.7" y="370.09" class="st0" width="2.57" height="5.04"></rect> <rect x="436.7" y="379.04" class="st0" width="2.57" height="5.04"></rect> <path class="st6" d="M285.9,391.24h51.72c-0.67-4.59-5.49-8.06-11.42-8.06c-1.79,0-3.58,0.34-5.15,1.01c0-0.22,0-0.56,0-0.78 c0-8.06-8.17-14.55-18.36-14.55c-1.9,0-3.69,0.22-5.49,0.67c-0.45-4.7-5.37-8.4-11.42-8.4L285.9,391.24z"></path> <polygon class="st8" points="258.58,235.18 258.58,228.13 223.54,228.13 223.54,235.18 221.41,235.18 221.41,390.68 258.47,390.68 258.47,235.18 "></polygon> <polygon class="st0" points="256.23,235.18 223.54,235.18 221.41,235.18 221.41,390.68 258.47,390.68 258.47,235.18 "></polygon> <rect x="201.93" y="228.13" class="st5" width="41.87" height="162.45"></rect> <rect x="201.93" y="228.13" class="st5" width="41.87" height="6.94"></rect> <rect x="209.77" y="244.92" class="st12" width="3.81" height="7.17"></rect> <rect x="217.27" y="244.92" class="st12" width="3.81" height="7.17"></rect> <rect x="224.66" y="244.92" class="st12" width="3.81" height="7.17"></rect> <rect x="232.16" y="244.92" class="st12" width="3.81" height="7.17"></rect> <rect x="209.77" y="257.46" class="st12" width="3.81" height="7.17"></rect> <rect x="217.27" y="257.46" class="st12" width="3.81" height="7.17"></rect> <rect x="224.66" y="257.46" class="st12" width="3.81" height="7.17"></rect> <rect x="232.16" y="257.46" class="st12" width="3.81" height="7.17"></rect> <rect x="209.77" y="269.89" class="st12" width="3.81" height="7.17"></rect> <rect x="217.27" y="269.89" class="st12" width="3.81" height="7.17"></rect> <rect x="224.66" y="269.89" class="st12" width="3.81" height="7.17"></rect> <rect x="232.16" y="269.89" class="st12" width="3.81" height="7.17"></rect> <rect x="209.77" y="282.42" class="st12" width="3.81" height="7.17"></rect> <rect x="217.27" y="282.42" class="st12" width="3.81" height="7.17"></rect> <rect x="224.66" y="282.42" class="st12" width="3.81" height="7.17"></rect> <rect x="232.16" y="282.42" class="st12" width="3.81" height="7.17"></rect> <polygon class="st0" points="253.88,391.13 222.08,391.13 222.08,291.27 253.88,283.32 "></polygon> <rect x="254.1" y="283.32" class="st1" width="31.91" height="107.7"></rect> <rect x="222.08" y="291.27" class="st1" width="31.91" height="1.34"></rect> <rect x="222.08" y="299.55" class="st1" width="31.91" height="1.34"></rect> <rect x="222.08" y="307.84" class="st1" width="31.91" height="1.34"></rect> <rect x="222.08" y="316.12" class="st1" width="31.91" height="1.34"></rect> <rect x="222.08" y="324.41" class="st1" width="31.91" height="1.34"></rect> <rect x="222.08" y="332.69" class="st1" width="31.91" height="1.34"></rect> <rect x="222.08" y="340.98" class="st1" width="31.91" height="1.34"></rect> <rect x="222.08" y="349.15" class="st1" width="31.91" height="1.34"></rect> <rect x="222.08" y="357.43" class="st1" width="31.91" height="1.34"></rect> <rect x="222.08" y="365.72" class="st1" width="31.91" height="1.34"></rect> <rect x="222.08" y="374" class="st1" width="31.91" height="1.34"></rect> <rect x="222.08" y="382.29" class="st1" width="31.91" height="1.34"></rect> <rect x="253.88" y="291.27" class="st5" width="31.91" height="1.34"></rect> <rect x="253.88" y="299.55" class="st5" width="31.91" height="1.34"></rect> <rect x="253.88" y="307.84" class="st5" width="31.91" height="1.34"></rect> <rect x="253.88" y="316.12" class="st5" width="31.91" height="1.34"></rect> <rect x="253.88" y="324.41" class="st5" width="31.91" height="1.34"></rect> <rect x="253.88" y="332.69" class="st5" width="31.91" height="1.34"></rect> <rect x="253.88" y="340.98" class="st5" width="31.91" height="1.34"></rect> <rect x="253.88" y="349.15" class="st5" width="31.91" height="1.34"></rect> <rect x="253.88" y="357.43" class="st5" width="31.91" height="1.34"></rect> <rect x="253.88" y="365.72" class="st5" width="31.91" height="1.34"></rect> <rect x="253.88" y="374" class="st5" width="31.91" height="1.34"></rect> <rect x="253.88" y="382.29" class="st5" width="31.91" height="1.34"></rect> <path class="st4" d="M402.44,169.35c-18.81,0-34.15,15.23-34.15,34.15c0,18.81,15.23,34.15,34.15,34.15 c18.81,0,34.15-15.23,34.15-34.15l0,0C436.59,184.58,421.25,169.35,402.44,169.35z M431.44,209.99 c-3.58,16.01-19.59,26.09-35.6,22.5c-16.01-3.58-26.09-19.59-22.5-35.6c3.58-16.01,19.59-26.09,35.6-22.5 c13.55,3.02,23.17,15.11,23.17,29C432.22,205.62,431.89,207.86,431.44,209.99z"></path> <path class="st4" d="M450.47,204.28c-1.46-26.53-24.18-46.91-50.72-45.34c-24.63,1.34-44.33,21.27-45.45,45.9v0.56 c0,37.39,48.14,71.54,48.14,71.54s48.14-34.03,48.14-71.54C450.58,205.06,450.47,204.73,450.47,204.28z M402.44,238.99 c-19.7,0-35.6-16.01-35.6-35.6c0-19.7,16.01-35.6,35.6-35.6s35.6,16.01,35.6,35.6l0,0C438.05,223.09,422.15,239.1,402.44,238.99 C402.44,239.1,402.44,239.1,402.44,238.99L402.44,238.99z"></path> <linearGradient id="SVGID_1_" gradientUnits="userSpaceOnUse" x1="149.8924" y1="540.349" x2="309.7758" y2="265.9352" gradientTransform="matrix(1 0 0 1 -90.64 14.54)"> <stop offset="0" style="stop-color:#F9EE4A"></stop> <stop offset="1" style="stop-color:#DA3D66"></stop> </linearGradient> <path class="st13" d="M193.42,390.35c4.25-24.85,7.17-42.66,7.17-42.66l-56.43-3.92c-4.59,6.27-12.76,24.18-22.06,46.57H193.42z"></path> <linearGradient id="SVGID_2_" gradientUnits="userSpaceOnUse" x1="219.5131" y1="445.6087" x2="280.0811" y2="342.2963" gradientTransform="matrix(1 0 0 1 -90.64 14.54)"> <stop offset="0" style="stop-color:#F9EE4A"></stop> <stop offset="1" style="stop-color:#DA3D66"></stop> </linearGradient> <path class="st14" d="M166.33,390.35l6.61-9.96l8.84-1.68c0.45-0.11,0.67-0.45,0.67-0.9l0,0c-0.11-0.45-0.56-0.67-1.01-0.56 l-9.18,1.68c-0.22,0-0.45,0.11-0.56,0.34l-7.39,11.08H166.33z"></path> <linearGradient id="SVGID_3_" gradientUnits="userSpaceOnUse" x1="405.8204" y1="166.6633" x2="336.5648" y2="256.765" gradientTransform="matrix(1 0 0 1 -90.64 14.54)"> <stop offset="0" style="stop-color:#F7B777"></stop> <stop offset="1" style="stop-color:#F47960"></stop> </linearGradient> <path class="st15" d="M353.3,155.69c0,0-22.5,4.7-36.16,10.64c-2.69,1.12-4.81,3.13-6.16,5.82c-4.03,8.4-16.35,29.56-40.08,39.63 c3.36,4.25,8.96,13.21,11.31,28.1c14.22-9.96,26.53-26.65,32.47-54.07c3.25,1.34,6.94,1.23,10.08-0.22 c2.91-1.34,6.38-3.25,8.96-4.81c2.57-1.46,4.37-3.81,5.15-6.61c1.01-3.58,0.45-6.83,0.45-10.19l11.53-3.36 C353.07,159.94,354.08,157.71,353.3,155.69L353.3,155.69z"></path> <path class="st2" d="M282.43,239.88c-2.35-14.89-7.84-23.85-11.31-28.1c-14.67,6.27-33.92,8.28-58.22,0.34 c-2.24-0.78-4.59-1.12-6.94-1.34c-12.99-0.67-55.75-2.02-91.24,8.96c-7.28,2.24-13.32,7.39-16.57,14.22 c-9.63,20.71-25.08,67.96,17.91,91.69c2.8-6.49,6.27-12.76,10.41-18.58c-6.94-10.97-8.96-26.09,3.36-45.68 c8.96,22.84,13.21,56.2,14.11,70.87c0.34,4.93-0.67,9.74-2.69,14.22l-0.22,0.45c-0.34,0.78,0,1.79,0.9,2.13 c0.11,0,0.22,0.11,0.34,0.11c24.18,5.15,49.48,3.69,56.99,3.13c1.34-0.11,2.46-1.01,2.8-2.24c11.76-46.8,11.76-78.7,8.96-98.97 C221.86,253.76,255.56,258.69,282.43,239.88z"></path> <linearGradient id="SVGID_4_" gradientUnits="userSpaceOnUse" x1="292.1193" y1="222.9317" x2="302.3632" y2="222.9317" gradientTransform="matrix(1 0 0 1 -90.64 14.54)"> <stop offset="0" style="stop-color:#CE1C68"></stop> <stop offset="1" style="stop-color:#72429A"></stop> </linearGradient> <path class="st16" d="M210.89,252.53c-0.45,0-0.78-0.22-0.78-0.67c-2.8-19.82-8.4-28.32-8.51-28.44 c-0.22-0.34-0.11-0.78,0.22-1.01c0,0,0,0,0.11,0c0.34-0.22,0.9-0.11,1.12,0.22c0.22,0.34,5.93,8.96,8.73,29.11 c0,0.45-0.22,0.78-0.67,0.9C211,252.53,211,252.53,210.89,252.53L210.89,252.53z"></path> <linearGradient id="SVGID_5_" gradientUnits="userSpaceOnUse" x1="246.207" y1="224.1014" x2="253.6072" y2="185.2529" gradientTransform="matrix(1 0 0 1 -90.64 14.54)"> <stop offset="0" style="stop-color:#F7B777"></stop> <stop offset="1" style="stop-color:#F47960"></stop> </linearGradient> <path class="st17" d="M151.1,183.57c0,0-2.46,24.41-4.59,31.68c-0.34,1.12,0.22,2.35,1.23,2.8c3.69,2.02,12.43,5.15,24.52-0.34 c1.9-0.9,3.13-2.8,3.02-4.81l-1.12-23.62L151.1,183.57z"></path> <linearGradient id="SVGID_6_" gradientUnits="userSpaceOnUse" x1="266.42" y1="152.4462" x2="222.9925" y2="185.6745" gradientTransform="matrix(1 0 0 1 -90.64 14.54)"> <stop offset="0" style="stop-color:#F7B777"></stop> <stop offset="1" style="stop-color:#F47960"></stop> </linearGradient> <path class="st18" d="M174.73,152.22c0,0,7.84,17.02,8.4,25.86c0.56,8.84,2.57,14.67-8.4,16.46s-20.15-3.36-25.19-12.2 c0,0-7.84-13.66-6.05-19.26C145.28,157.48,174.73,152.22,174.73,152.22z"></path> <path class="st19" d="M153.23,176.07l0.67-0.22c0.67-0.22,1.12-1.12,0.78-1.79c0,0,0-0.11-0.11-0.11 c-1.57-2.8-4.59-9.29-0.67-10.75c5.04-1.9,24.85-5.71,29.11-12.43c4.14-6.38,0.45-14.55-5.04-16.91c-0.34-0.11-0.78,0-1.01,0.34 l-0.45,0.78c-0.22,0.34-0.67,0.45-1.01,0.34c-0.11-0.11-0.22-0.22-0.34-0.45c-0.11-0.45-0.56-0.56-1.01-0.45 c-0.11,0-0.22,0.11-0.34,0.22c-1.34,2.02-4.93,5.26-14.33,6.83c-13.43,2.35-22.39,7.5-22.61,16.23c0,0.45-0.45,0.67-0.78,0.67 c-0.11,0-0.22,0-0.34-0.11c-1.01-0.56-2.57-0.9-4.7,0.9c-3.69,2.91-2.24,10.52,5.93,16.79c0.34,0.22,0.34,0.67,0.22,0.9 c0,0.11-0.11,0.11-0.22,0.22c-1.46,0.9-3.69,3.02,2.02,5.93c5.93,2.91,10.3,2.69,11.98,2.46c0.34,0,0.67-0.45,0.67-0.78 c0,0,0,0,0-0.11l-1.79-7.72c-0.11-0.34,0.11-0.78,0.56-0.78c0.11,0,0.11,0,0.22,0H153.23z"></path> <linearGradient id="SVGID_7_" gradientUnits="userSpaceOnUse" x1="260.6588" y1="145.3621" x2="217.2201" y2="178.6017" gradientTransform="matrix(1 0 0 1 -90.64 14.54)"> <stop offset="0" style="stop-color:#F7B777"></stop> <stop offset="1" style="stop-color:#F47960"></stop> </linearGradient> <path class="st20" d="M153.68,177.63c0,0-3.02-10.86-8.17-7.84c-5.15,3.02,2.69,12.2,6.83,12.54L153.68,177.63z"></path> <path class="st21" d="M320.83,183.12c-0.22,0-0.34-0.11-0.56-0.11c-0.34-0.22-0.45-0.67-0.22-1.01c0,0,0-0.11,0.11-0.11 c0.34-0.45,8.28-9.63,11.2-11.2c1.12-0.56,1.79-1.23,1.9-1.79c0.11-0.34,0-0.78-0.22-1.12l-8.96,1.79l-5.04,4.14 c-0.34,0.22-0.78,0.22-1.12-0.11c-0.34-0.34-0.34-0.78,0-1.01c0,0,0,0,0.11-0.11l5.26-4.25c0.11-0.11,0.22-0.11,0.34-0.11 l9.85-1.79c0.34-0.11,0.67,0.11,0.9,0.34c0.67,0.78,0.9,1.79,0.67,2.69c-0.45,1.23-1.46,2.24-2.69,2.8 c-2.24,1.12-8.51,8.17-10.75,10.86C321.28,183.01,321.05,183.12,320.83,183.12z"></path> <linearGradient id="SVGID_8_" gradientUnits="userSpaceOnUse" x1="285.7462" y1="279.9427" x2="266.5794" y2="308.6929" gradientTransform="matrix(1 0 0 1 -90.64 14.54)"> <stop offset="0" style="stop-color:#F7B777"></stop> <stop offset="1" style="stop-color:#F47960"></stop> </linearGradient> <path class="st22" d="M183.68,334.93c0,0,0.56,10.08-13.55,8.62c-7.72-0.78-20.04-7.5-20.04-7.5S182.34,336.05,183.68,334.93z"></path> <linearGradient id="SVGID_9_" gradientUnits="userSpaceOnUse" x1="291.507" y1="281.4286" x2="271.8029" y2="310.9848" gradientTransform="matrix(1 0 0 1 -90.64 14.54)"> <stop offset="0" style="stop-color:#F7B777"></stop> <stop offset="1" style="stop-color:#F47960"></stop> </linearGradient> <path class="st23" d="M157.04,334.6c0,0,11.53-1.34,15.67-3.13s5.49,0.56,1.9,2.8c-3.58,2.24-4.14,2.24-4.14,2.24 s12.2,3.02,14.78,3.02c2.57,0,10.19,0.45,8.06,1.68s-10.86,1.9-16.35,1.9s-10.97,2.13-25.86-6.61 C153.23,333.81,157.04,334.6,157.04,334.6z"></path> <linearGradient id="SVGID_10_" gradientUnits="userSpaceOnUse" x1="265.1188" y1="266.5121" x2="242.7166" y2="300.11" gradientTransform="matrix(1 0 0 1 -90.64 14.54)"> <stop offset="0" style="stop-color:#F7B777"></stop> <stop offset="1" style="stop-color:#F47960"></stop> </linearGradient> <path class="st24" d="M153.23,337.51l16.57-3.47c0,0-32.91-10.19-43.33-26.87c-4.14,5.82-7.61,11.98-10.41,18.58 C125.47,331.01,137.56,335.04,153.23,337.51z"></path> </g> </g> </svg> 